<svg width="966" height="546" viewBox="0 0 966 546" fill="none" xmlns="http://www.w3.org/2000/svg">
<path d="M712.788 199.373C730.681 202.219 747.002 210.923 765.809 210.873C769.282 210.873 772.773 215.301 775.99 218.446C769.264 215.384 762.922 214.152 756.196 219.611C763.945 222.74 771.457 225.753 779.243 228.882C779.389 228.166 779.7 226.651 780.102 224.638C789.533 225.936 799.659 225.337 806.092 235.123C802.108 243.212 797.685 251.933 793.609 260.804C792.859 262.418 793.609 264.582 793.645 266.513C795.382 265.115 797.703 263.983 798.745 262.235C801.303 257.941 802.912 253.181 805.672 249.02C806.531 247.722 810.296 246.873 811.904 247.506C813.22 248.022 813.841 251.101 813.787 253.031C813.732 254.862 812.8 256.909 811.575 258.424C807.792 263.184 803.533 267.212 808.048 274.102C809.473 276.282 806.092 281.076 804.666 285.353C800.609 286.701 792.421 284.538 793.755 292.643C797.703 294.99 801.413 297.187 805.123 299.384L805.251 301.747C812.325 298.635 819.398 295.506 827.659 291.861C824.588 288.449 822.816 286.318 820.86 284.355C814.189 277.697 813.421 267.312 819.124 260.122C823.236 254.945 827.824 255.628 834.878 262.851C833.014 264.399 831.15 265.947 827.97 268.593C831.15 269.276 833.014 270.224 834.623 269.941C844.364 268.227 848.093 269.725 849.884 278.513C851.693 287.4 851.986 296.538 853.119 305.542C853.357 307.456 854.27 309.287 854.892 311.167C856.61 309.886 858.785 308.887 859.955 307.289C864.597 300.832 864.487 300.665 858.876 294.374C864.414 291.927 869.934 289.481 876.221 286.685C878.14 288.732 877.08 296.238 885.195 292.993C882.143 296.188 879.091 299.384 876.075 302.529C882.381 303.611 887.315 304.46 892.25 305.325C892.378 306.407 892.488 307.472 892.616 308.554C888.394 309.886 884.281 311.9 879.95 312.382C870.628 313.414 861.161 313.447 851.821 314.363C849.646 314.579 846.612 316.36 845.936 318.058C845.15 320.005 846.009 322.934 847.142 324.965C849.244 328.743 852.077 332.188 854.599 335.783C853.941 336.416 853.283 337.031 852.625 337.664C850.414 336.499 848.038 335.517 846.064 334.069C844.986 333.27 844.711 331.639 843.944 330.44C838.406 321.686 830.839 319.489 820.878 323.633C815.084 326.047 809.309 328.493 803.387 330.574C798.909 332.155 798.672 334.635 801.084 337.63C804.465 341.825 808.212 345.769 811.868 349.913C818.319 347.533 817.131 343.838 814.426 339.611C819.654 342.74 821.445 346.501 819.343 351.128C816.693 356.987 813.458 362.629 810.826 368.504C809.948 370.468 809.437 373.065 810.15 374.929C810.515 375.861 813.97 376.127 816.035 376.177C822.688 376.343 829.34 376.393 835.993 376.243C840.599 376.144 843.432 374.246 842.884 369.47C842.738 368.155 842.829 366.191 843.725 365.542C845.698 364.11 848.221 363.311 850.524 362.263C851.291 364.377 852.753 366.524 852.68 368.621C852.534 372.898 851.584 377.159 850.926 381.653C857.725 381.231 864.201 377.775 870.354 371.284C877.373 376.959 886.438 381.603 890.861 388.66C895.302 395.75 895.101 405.236 897.094 414.39C893.109 413.458 890.825 412.926 888.522 412.393C895.43 398.912 893.566 396.182 876.989 394.135C861.124 392.171 845.351 389.641 829.487 387.661C825.027 387.095 820.421 387.578 815.943 387.578C814.262 394.734 820.238 399.894 833.087 403.073C839.996 404.787 842.646 401.691 843.377 396.865C850.889 403.855 858.291 411.378 866.553 418.052C869.148 420.149 874.247 419.433 877.702 420.965C880.26 422.096 881.978 424.793 884.062 426.773C881.339 427.123 878.615 427.489 875.929 427.838C876.276 430.202 876.696 433.031 877.117 435.861L873.973 437.142C877.793 439.805 881.613 442.451 885.433 445.114L883.989 446.795C879.529 444.265 875.07 441.752 870.482 439.156C870.062 440.204 869.587 441.386 868.819 443.284C864.25 441.137 859.644 439.356 855.458 436.942C847.983 432.648 842.902 432.682 836.249 437.708C835.811 434.579 835.354 431.367 834.677 426.573C831.79 431.6 830.839 436.027 828.043 437.425C824.936 438.989 820.165 437.775 816.126 437.775C815.962 438.69 815.815 439.605 815.651 440.504C819.745 441.419 823.784 442.734 827.933 443.167C838.333 444.232 838.845 444.698 837.364 453.919C837.127 455.4 837.967 457.031 838.534 459.578C839.941 458.113 840.617 457.381 841.915 456.016C843.359 461.525 853.155 463.805 847.947 471.228C845.04 475.372 840.928 474.823 837.145 471.261C838.095 469.048 839.082 466.801 839.557 465.719C833.91 461.275 828.884 457.264 823.784 453.353C822.194 452.138 820.494 450.906 818.63 450.141C808.943 446.18 799.183 442.368 788.692 438.191C784.342 444.482 779.682 440.088 774.162 436.243C770.47 442.801 767.125 448.726 763.799 454.651C763.123 454.501 762.465 454.335 761.788 454.185C760.016 440.188 764.457 424.659 749.451 412.992C744.041 415.755 738.028 418.851 730.918 422.496C721.067 418.634 713.135 410.329 706.19 401.958C699.555 393.969 701.492 383.55 704.965 374.745C708.218 366.507 719.641 365.542 725.307 373.231C730.26 379.955 737.663 386.479 735.214 396.349C734.775 398.13 737.315 400.526 739.052 403.655C742.817 398.096 745.54 394.085 748.72 389.408C738.156 382.102 731.613 371.7 728.177 359.766C727.702 358.102 730.297 355.722 732.143 352.493C735.616 355.622 737.955 358.035 740.66 360.083C743.511 362.23 744.809 365.592 750.731 364.776C754.021 364.327 759.486 370.285 762.191 374.346C770.269 386.496 773.998 399.744 769.52 415.322C773.321 413.891 775.551 413.042 777.616 412.26C782.003 418.019 786.298 423.677 790.502 429.203C797.739 429.203 805.416 429.419 813.074 429.153C821.664 428.854 825.32 422.862 829.139 416.454C828.116 415.439 827.184 414.024 825.795 413.175C817.735 408.282 810.003 402.707 801.303 398.995C795.619 396.565 788.509 396.915 780.888 395.866L780.888 388.576C788.491 390.074 795.601 391.472 802.711 392.87C803.223 391.905 803.753 390.923 804.264 389.958C794.687 384.915 784.58 380.704 776.374 373.764C767.765 366.474 758.188 360.266 752.778 348.798C760.162 348.798 766.102 348.648 772.024 348.915C773.285 348.965 774.582 350.463 775.642 351.495C782.624 358.302 788.656 366.157 800.773 368.338C797.995 363.278 795.199 358.219 792.421 353.159C793.371 352.51 794.322 351.844 795.254 351.195C796.698 353.508 798.142 355.822 799.896 358.601C802.729 351.711 798.909 338.413 793.993 335.151C790.118 332.587 781.18 334.668 778.877 338.779C778.092 340.194 777.726 341.808 776.812 344.321C769.922 337.581 763.378 348.415 755.062 341.625C754.715 336.648 754.222 329.741 753.692 322.085C760.948 324.715 763.561 321.586 763.854 314.762C769.227 319.489 773.084 322.868 775.971 325.397C781.619 322.435 785.914 320.188 791.013 317.508C788.637 316.443 787.34 315.861 786.335 315.411C787.833 311.184 790.429 306.99 790.374 302.829C790.337 300.199 786.627 297.337 784.032 295.106C782.825 294.074 779.846 293.459 778.512 294.108C772.956 296.754 767.728 299.95 761.112 303.661C764.585 305.625 766.906 306.94 769.227 308.255L769.41 309.969C765.206 310.069 760.144 311.567 756.963 309.969C751.151 307.056 751.572 301.015 752.979 295.772C753.984 292.061 756.104 288.599 757.731 285.037C758.809 282.674 759.924 280.31 761.021 277.963C760.271 277.597 759.504 277.231 758.754 276.865C753.82 283.789 748.867 290.696 743.895 297.669C742.177 296.754 739.216 295.189 736.255 293.608C735.597 293.758 734.939 293.908 734.281 294.041C740.605 300.199 733.77 302.912 731.119 307.373C745.759 313.331 735.214 325.947 741.062 334.701C730.334 341.342 720.72 336.582 711.106 334.002C704.654 332.288 698.294 330.291 691.422 328.293C691.879 335.983 692.244 341.974 692.61 347.966L691.239 348.332C687.456 340.843 683.764 333.32 679.816 325.913C679.048 324.482 677.312 323.5 676.014 322.302L676.179 322.435C678.445 319.389 680.364 316.06 683.033 313.348C687.949 308.338 693.304 303.678 698.458 298.884L696.594 296.787C694.456 297.919 692.262 299.001 690.161 300.199C684.093 303.694 678.317 307.705 671.957 310.651C666.272 313.298 661.155 313.414 656.019 307.672C652.528 303.778 645.692 302.346 640.337 299.85C635.293 297.503 630.23 295.206 623.815 292.26C628.914 286.868 632.917 282.624 636.444 278.879C641.343 278.147 646.058 277.447 651.687 276.615C650.207 279.811 649.129 282.108 647.301 286.019C654.173 282.94 656.933 279.378 657.737 274.169C658.267 270.674 658.395 266.413 660.643 264.016C666.199 258.091 664.536 253.115 659.748 246.907C657.591 252.466 656.001 257.542 653.661 262.302C651.76 266.18 650.115 270.274 643.737 270.69C636.974 271.14 631.893 269.525 627.708 264.832C624.052 260.754 620.269 256.776 616.541 252.749C615.809 252.932 615.06 253.115 614.329 253.298C615.554 250.668 616.778 248.055 618.003 245.425C617.765 244.81 617.528 244.177 617.272 243.561C615.371 244.277 612.063 244.743 611.843 245.775C611.039 249.503 610.491 253.564 611.24 257.259C613.287 267.262 605.483 276.599 594.297 276.882C590.075 276.998 585.817 277.148 581.668 277.764C567.96 279.794 564.14 278.263 558.017 266.796C554.727 260.621 552.096 254.163 549.153 247.839C548.111 245.608 546.996 243.395 544.09 241.048C542.628 248.005 541.166 254.945 539.557 262.535C534.111 261.902 529.194 261.353 522.341 260.571C526.508 256.177 530.218 252.266 534.312 247.955C533.161 245.858 531.735 243.262 529.633 239.4C526.745 243.478 524.79 246.79 522.249 249.669C517.753 254.762 513.147 254.13 511.045 247.905C509.949 244.66 510.241 240.882 510.552 237.403C510.844 234.241 512.014 231.129 512.8 228C512.16 227.717 511.502 227.434 510.862 227.151C509.51 228.998 507.408 230.696 506.988 232.693C506.037 237.27 505.27 241.564 499.092 242.479C492.604 243.428 489.168 239.667 484.964 234.807C490.502 229.947 495.839 225.17 501.285 220.543C506.549 216.066 512.087 211.872 517.186 207.278C519.361 205.314 519.91 203.783 523.291 206.729C525.649 208.776 531.095 209.009 534.751 208.294C538.059 207.661 540.819 204.632 544.437 202.252C545.479 203.267 547.965 205.664 550.432 208.044C551.364 202.468 545.278 198.391 550.122 192.865C552.955 189.636 553.101 183.878 556.409 181.681C563.829 176.771 571.78 171.062 581.887 172.726C586.877 173.542 593.365 175.273 595.778 178.618C599.287 183.478 598.41 190.419 592.707 194.463C586.566 198.807 579.785 202.885 572.566 205.364C567.101 207.245 564.762 209.841 563.775 215.55C569.514 213.07 574.631 210.857 579.804 208.627C580.754 213.253 580.535 217.298 582.454 220.177C584.482 223.24 588.54 225.187 593.146 228.749C584.83 230.396 577.866 231.794 570.884 233.176L571.031 234.973C573.224 235.106 575.417 235.256 577.61 235.356C583.605 235.639 589.6 236.172 595.577 236.038C598.629 235.972 601.992 235.14 604.514 233.658C605.282 233.209 604.204 229.298 603.198 227.284C594.517 210.191 598.848 193.997 607.512 178.302C610.418 173.026 614.987 168.532 618.167 163.356C619.977 160.394 620.525 156.782 622.243 151.689C627.836 150.091 635.183 147.978 642.786 145.814C638.966 140.804 630.577 136.876 636.225 129.254C632.697 126.208 629.554 123.495 625.624 120.116C634.269 117.021 634.854 125.542 641.544 126.008C635.622 119.151 627.525 113.659 632.496 104.338L632.332 104.521C634.416 106.735 636.499 108.932 638.583 111.145C639.168 110.746 639.752 110.363 640.337 109.964C639.387 107.634 638.436 105.32 637.285 102.524C643.335 101.193 648.489 102.507 651.212 106.735C656.311 114.657 663.001 119.883 672.395 123.661C677.842 125.858 681.333 132.116 685.756 136.593C689.064 132.532 688.223 129.304 684.184 125.908C681.899 123.978 678.701 119.417 679.359 118.685C683.307 114.408 685.939 119.301 689.082 120.782C689.868 121.148 690.563 121.731 691.769 122.53C693.268 120.948 694.73 119.401 696.503 117.503C698.733 118.801 700.871 120.05 703.393 121.514C703.015 114.513 699.244 111.029 692.08 111.062C685.153 111.095 683.818 109.148 686.341 102.99C687.255 100.727 687.858 98.3632 688.918 95.0511C698.403 100.294 708.383 102.025 719.038 98.4631C720.318 107.184 718.216 114.091 710.265 118.652C713.251 122.801 716.065 122.94 718.709 119.068C731.156 127.706 745.248 116.505 758.535 121.032C766.102 111.495 764.548 104.388 752.741 98.0803C753.856 96.0498 754.953 94.0359 756.817 90.6406C763.616 94.8847 771.018 98.3632 776.556 103.489C779.005 105.753 778.347 111.462 777.708 115.423C777.488 116.788 773.047 117.67 770.452 118.585C768.313 119.334 766.047 119.767 762.903 120.566C766.961 127.523 770.543 133.647 774.747 140.854C776.812 138.058 778 135.894 779.755 134.197C782.058 131.966 784.799 130.102 787.34 128.089C788.985 130.835 791.087 133.464 792.128 136.394C793.024 138.957 792.604 141.869 792.987 144.616C793.298 146.929 793.938 149.193 794.797 153.22C798.982 148.993 801.815 146.147 805.452 142.469C802.656 151.406 800.243 159.129 797.739 167.151C789.131 167.75 782.204 164.055 777.36 158.33C772.883 153.037 770.89 146.047 766.486 140.671C762.666 136.011 757.036 132.582 752.284 128.671C748.044 137.892 746.819 147.545 746.381 157.664C745.906 168.316 738.101 182.746 724.741 184.077C716.023 176.671 715.675 172.26 723.078 161.858C720.171 159.844 717.247 157.83 714.433 155.883C711.271 159.145 708.127 162.407 704.965 165.653C704.161 165.237 703.357 164.804 702.552 164.388C703.064 161.292 703.594 158.213 703.923 156.166C700.816 155.401 696.704 155.55 694.876 153.753C687.273 146.346 680.2 138.474 673.273 130.518C670.458 127.29 669.014 122.563 662.891 125.642C655.288 129.47 653.131 134.846 656.549 140.438C658.011 142.818 659.455 145.531 659.656 148.161C660.314 157.331 666.748 161.309 675.246 163.855C677.166 164.421 679.213 165.22 680.638 166.452C686.761 171.728 692.08 178.202 703.978 175.09C701.62 178.851 700.524 180.582 699.427 182.33C708.693 185.076 715.913 189.004 712.897 199.523C709.388 201.719 705.111 203.351 702.552 206.247C698.952 210.357 701.255 213.054 705.221 213.57C707.981 208.36 710.375 203.866 712.751 199.373L712.788 199.373ZM694.931 228.948C691.385 225.154 688.899 222.491 686.578 219.994C684.86 220.56 683.325 221.609 682.119 221.359C668.667 218.613 656.677 214.252 651.029 201.087C648.617 195.478 647.922 191.267 653.369 187.04C655.306 185.542 656.33 183.029 657.865 180.832C654.977 179.634 652.638 178.635 649.988 177.536C648.178 181.131 646.515 184.377 644.907 187.656C641.781 194.03 638.436 194.696 632.57 189.952C629.627 187.589 626.849 185.059 623.742 182.38C619.428 186.94 611.679 187.922 610.399 195.312C628.402 189.437 635.878 198.407 647.666 215.001C644.706 216.732 641.745 218.48 639.405 219.844C638.455 223.706 637.541 227.35 636.664 231.012C636.006 233.808 635.384 236.604 634.745 239.4C635.859 239.817 636.974 240.233 638.089 240.649C640.502 233.542 644.431 228.016 651.34 223.989C657.335 220.493 663.092 220.344 667.186 223.989C675.137 231.079 684.001 229.914 694.913 228.948L694.931 228.948ZM741.629 411.411C737.443 408.049 734.72 405.736 731.851 403.589C728.396 401.009 726.477 398.812 728.25 393.886C731.229 385.614 726.678 380.354 716.187 377.575C723.48 401.858 727.629 413.592 741.629 411.395V411.411ZM840.215 291.994C828.555 297.753 817.826 303.062 807.097 308.355C807.426 309.054 807.755 309.736 808.084 310.435C816.272 308.737 824.57 307.422 832.594 305.226C837.894 303.778 842.811 301.081 840.215 291.994ZM662.727 294.674C661.575 296.072 660.442 296.937 660.625 297.32C661.959 300.416 663.439 303.461 665.194 306.374C665.359 306.64 667.735 305.825 669.087 305.492C668.1 302.596 667.259 299.633 666.053 296.821C665.706 296.005 664.244 295.606 662.745 294.657L662.727 294.674ZM718.691 221.226C718.947 222.025 719.203 222.823 719.477 223.622C726.77 221.492 734.062 219.345 741.336 217.215C732.838 215.351 725.033 215.767 718.691 221.226ZM625.423 209.842C627.726 212.588 629.097 215.467 630.267 215.4C633.904 215.201 637.45 213.886 641.032 212.987C640.831 212.321 640.63 211.672 640.429 211.007C636.28 210.674 632.131 210.357 625.423 209.825V209.842Z" fill="#004520"/>
<path d="M40.1913 335.8C41.4341 337.048 42.878 339.511 43.865 339.378C57.4997 337.364 70.6409 334.252 80.145 323.933C83.3435 320.471 81.6437 318.557 78.4087 316.726C77.9517 316.46 77.1841 316.726 76.6358 316.543C60.1133 311.583 58.9984 309.736 62.3249 292.843C66.7845 292.843 75.2284 286.984 76.0509 283.339C78.7376 271.472 76.1971 267.628 61.5024 261.952C70.056 253.897 53.0949 249.952 58.4867 241.131C65.9437 249.986 73.09 258.457 79.3773 265.93C86.085 263.334 91.9519 261.053 97.8006 258.79C97.7275 258.224 97.6544 257.658 97.5631 257.092C96.1009 256.61 94.6387 256.127 93.3045 255.694C95.5343 254.196 98.0565 252.515 99.9025 251.25C104.033 251.866 107.999 252.465 112.843 253.198L112.843 264.266C112.843 264.266 112.038 264.798 111.874 264.648C107.725 261.253 103.064 259.755 99.4821 264.565C96.174 269.026 99.3542 273.07 102.991 276.249C108.767 281.275 118.527 282.024 125.308 277.78C133.697 272.521 143.201 272.854 152.687 272.321C156.909 272.088 161.058 270.624 165.097 268.926C173.797 271.589 194.596 267.228 198.434 260.371C199.311 262.818 200.024 264.782 200.335 265.664C205.124 266.23 209.108 267.062 213.111 267.095C216.346 267.128 221.5 267.178 222.505 265.531C226.362 259.273 231.607 260.887 237.255 261.653C239.704 261.986 242.354 261.17 244.693 259.556C237.31 258.624 229.926 257.642 222.523 256.793C211.813 255.561 201.084 254.429 190.886 253.314C189.954 251.25 189.076 249.286 188.181 247.323C187.559 247.489 186.92 247.655 186.298 247.822C186.079 250.651 185.86 253.481 185.549 257.558C177.013 250.235 173.449 261.303 166.943 261.037C166.577 260.404 166.23 259.789 165.864 259.156C167.509 258.091 169.026 256.743 170.836 256.027C178.403 253.015 180.742 249.569 178.439 244.327C176.118 239.067 171.677 237.902 164.238 240.615C163.689 240.815 163.068 240.865 162.465 240.981C158.755 234.923 158.773 234.973 165.133 233.708C171.932 232.36 176.886 234.507 180.577 239.816C184.562 245.575 188.875 246.474 196.351 243.461C209.547 252.316 210.04 252.366 220.933 244.826C208.944 240.882 197.301 237.054 185.969 233.325C186.993 229.264 187.797 226.069 188.784 222.091C192.092 226.202 198.946 225.636 199.878 232.793C200.152 234.956 209.565 236.954 214.975 237.436C218.173 237.719 224.479 235.006 224.534 233.442C224.717 229.531 223.382 224.305 220.422 221.808C215.724 217.847 209.218 215.65 203.442 212.754C200.28 211.173 197.063 209.675 193.865 208.144C194.23 207.461 194.614 206.796 194.98 206.113C200.39 207.744 205.818 209.359 211.977 211.206C213.421 206.979 214.884 202.668 216.364 198.374C217.059 198.424 217.753 198.457 218.448 198.507C217.717 205.381 217.022 213.486 225.521 215.067C229.469 215.8 234.897 210.024 239.302 207.395C241.02 212.854 246.539 210.99 251.639 210.341C259.169 209.392 263.062 212.554 261.6 219.029C261.143 221.076 258.803 223.855 256.829 224.271C254.472 224.754 250.085 223.722 249.208 222.141C246.704 217.564 242.555 215.617 238.351 217.364C235.738 218.463 234.111 222.89 233.417 226.069C232.32 231.145 236.268 233.409 241.111 234.657C250.341 237.02 250.944 238.352 245.973 245.692C249.043 248.022 252.169 250.402 256.866 253.963C255.44 250.268 254.691 248.305 253.759 245.908C255.294 244.743 257.104 243.395 259.041 241.947C250.049 239.167 255.477 234.873 257.14 229.747C265.109 242.529 264.122 255.411 263.245 268.826C268.673 268.077 273.224 267.428 278.561 266.696C273.827 272.937 269.733 278.329 265.639 283.722C266.224 284.138 266.809 284.537 267.394 284.954C269.221 283.372 271.049 281.791 273.462 279.694C274.339 281.342 275.728 282.707 275.399 283.522C273.571 288.099 261.746 291.378 257.049 289.514C245.406 284.904 233.581 280.643 221.719 276.532C220.184 275.999 216.693 276.732 216.218 277.714C212.434 285.536 205.105 292.476 208.907 302.363C209.93 305.009 209.053 308.271 209.053 311.25C208.048 311.383 207.024 311.517 206.019 311.65C205.325 308.737 204.648 305.825 203.917 302.912C203.57 301.514 203.497 299.234 202.656 298.967C200.956 298.418 198.398 298.335 196.954 299.167C192.622 301.647 188.638 304.659 184.525 307.456C182.789 300.099 175.113 302.246 170.233 300.249C172.042 297.769 173.778 295.439 175.515 293.059C187.632 299.567 201.815 291.811 208.212 274.352C203.899 274.119 199.714 273.553 195.565 273.719C176.1 274.485 156.708 276.066 138.76 283.739C133.185 286.119 128.049 289.597 123.389 293.292C121.945 294.44 121.67 298.568 122.785 300.299C126.532 306.074 143.822 306.807 150.457 302.08C149.854 304.976 149.251 307.855 148.593 310.917C154.35 315.844 161.441 318.79 166.596 316.11C172.298 313.131 176.045 314.313 181.108 319.273C182.551 314.396 183.593 310.834 184.653 307.273C186.883 309.702 188.638 312.848 191.452 314.429C197.849 318.024 204.776 320.837 212.032 324.232C211.466 326.279 210.844 328.526 210.077 331.356C217.004 333.536 225.813 332.304 229.633 340.543L219.8 340.543C219.544 341.076 219.307 341.625 219.051 342.157C222.597 344.105 226.142 346.052 229.834 348.066C224.771 349.98 219.91 351.811 213.458 354.241C217.954 357.12 220.495 358.751 223.181 360.482C217.205 364.842 208.158 363.245 206.842 357.253C205.178 349.647 198.471 348.482 192.677 346.318C188.4 344.72 182.716 352.077 183.136 358.002C183.282 360.099 183.155 362.213 183.155 364.327L181.272 364.376C180.614 360.981 179.499 357.619 179.389 354.207C179.006 343.689 173.047 337.347 162.465 333.935C157.512 332.338 152.084 328.177 148.044 329.159C144.627 329.991 142.927 336.582 140.423 340.593C137.864 344.687 134.336 348.499 132.893 352.876C131.613 356.737 131.741 361.447 133.021 365.308C133.642 367.189 139.564 369.752 140.88 368.953C146.253 365.725 151.645 361.88 155.373 357.17C158.535 353.159 159.413 347.666 161.515 342.224C163.251 345.253 164.603 347.65 165.408 349.048C164.018 353.641 162.867 357.486 161.716 361.314C166.157 362.329 170.58 363.328 175.99 364.56C180.468 373.264 182.862 373.88 194.761 369.702C198.361 368.437 202.51 368.471 206.202 367.938C203.186 372.082 200.755 375.394 197.356 380.055C202.985 380.371 206.312 380.571 210.259 380.787C208.359 389.092 200.317 389.342 194.706 391.455C186.097 394.684 176.812 396.382 167.857 398.895C164.512 399.827 161.332 401.192 158.06 402.374C158.115 402.989 158.188 403.589 158.243 404.204C168.167 405.403 178.074 406.601 186.956 407.666C191.745 402.74 196.278 398.046 200.134 394.068C204.74 396.698 207.792 398.462 211.886 400.792C212.142 404.97 214.171 409.114 221.153 410.529C224.808 411.278 228.134 413.858 231.296 415.988C238.169 420.632 245.68 422.828 254.289 422.745C258.474 422.695 262.715 423.727 266.864 424.543C268.472 424.859 271.122 425.858 271.177 426.69C271.616 432.399 285.323 432.798 277.848 441.419C269.642 441.702 267.851 436.426 267.503 429.619C264.177 429.486 261.198 429.236 258.237 429.253C244.876 429.353 243.268 431.65 249.007 443.017C251.657 448.243 254.874 453.236 258.127 458.845C250.103 459.794 254.271 466.268 252.882 471.927C250.634 469.747 249.555 468.698 248.148 467.333C245.808 471.927 243.505 476.421 241.221 480.914C240.581 480.914 239.941 480.948 239.302 480.964C238.516 476.154 238.297 471.178 236.688 466.618C235.847 464.221 232.832 461.175 230.364 460.792C225.704 460.077 220.513 460.443 215.944 461.658C213.549 462.29 212.215 465.835 210.04 467.716C207.061 470.296 205.873 472.692 208.158 476.337C211.703 482.013 209.254 485.691 202.766 487.655C200.755 488.271 198.8 489.086 196.881 489.935C192.732 491.749 190.813 493.98 193.627 498.423C196.186 502.434 197.721 506.995 200.024 511.988C197.319 512.654 195.181 513.169 193.335 513.619C188.29 507.011 190.74 495.294 175.295 495.561C177.47 501.136 179.115 505.713 181.071 510.174C182.551 513.552 181.619 515.217 177.708 516.232C173.998 517.197 170.525 518.895 166.486 520.459C171.494 507.378 164.713 497.025 153.875 487.339C152.486 488.953 151.06 490.052 150.402 491.466C146.418 500.054 144.59 500.903 134.263 499.905C131.394 499.638 128.378 500.687 124.668 501.269C129.237 482.412 138.833 462.24 118.874 444.182C123.352 442.118 125.235 437.558 126.879 432.349C128.287 427.921 131.869 424.06 135.36 420.199C135.616 413.924 123.809 424.01 127.208 411.411C126.039 412.21 124.869 413.025 123.699 413.824C119.715 419.999 115.73 426.19 111.234 433.147C108.2 426.773 112.313 418.235 103.357 414.207C96.9233 420.265 97.3254 427.056 98.9521 434.978C92.7379 429.053 86.5237 423.128 79.9439 416.87C79.9988 416.637 79.9439 415.339 80.4191 415.172C90.3802 411.561 93.7066 403.039 97.6179 395.267C99.1532 392.221 98.8607 388.077 98.1479 384.632C97.9468 383.616 92.1347 382.102 91.1843 382.951C88.1686 385.614 86.1399 389.225 84.0014 392.62C83.5811 393.286 84.3122 394.568 84.8788 397.347C74.4974 392.288 67.5521 394.801 63.5494 404.055C62.928 403.555 62.3248 403.056 61.7034 402.557C64.2622 398.829 66.821 395.084 70.0377 390.39L62.471 390.39C64.975 387.511 67.5338 384.565 71.0978 380.487C65.1943 381.869 61.5207 382.768 57.8104 383.566C53.296 384.532 46.5517 383.383 46.2593 389.142C46.1131 392.005 50.8651 395.084 53.6067 398.296C50.8834 401.541 48.8181 401.159 29.7734 392.754C31.7838 391.306 33.575 390.024 35.3296 388.759C28.2381 371.716 27.1598 370.801 18.8985 375.444C15.5355 370.451 12.465 365.891 18.3868 360.349C19.6479 359.167 19.264 355.539 18.204 353.725C17.6557 352.776 13.854 352.809 11.7887 353.292C8.06021 354.191 4.51444 355.755 2.78706e-10 357.37C0.950408 352.193 1.71806 347.949 2.41259 344.138C8.33436 343.755 15.5173 343.289 23.8333 342.757C19.9037 334.501 7.87743 330.973 14.9141 320.537C16.8332 322.635 18.1492 324.465 19.8672 325.88C23.2485 328.693 26.7942 329.708 31.4 327.395C38.6377 323.766 44.852 317.059 55.1237 321.37C57.189 322.235 61.7582 318.157 65.8889 317.309C57.9749 324.432 46.5152 327.328 39.972 335.916C40.63 332.937 41.2696 329.941 41.9276 326.962L40.0816 325.93C37.1756 327.328 34.2513 328.726 31.3452 330.124C31.3086 330.99 31.2538 331.855 31.2172 332.72C34.1964 333.736 37.1573 334.768 40.1365 335.783L40.1913 335.8ZM65.8889 362.795C64.6826 358.934 63.458 355.089 62.2517 351.245C50.262 350.646 43.8284 356.271 45.1627 366.756C45.6013 370.285 46.5517 375.278 49.2019 376.792C56.7869 381.153 67.6617 375.528 69.2701 367.322C78.0797 365.525 76.0692 358.684 76.5992 353.408C76.7455 351.894 73.4738 348.582 72.3224 348.781C70.0012 349.181 66.8941 351.078 66.2361 352.976C65.1943 355.988 65.9071 359.5 65.8889 362.812L65.8889 362.795ZM162.374 434.163C165.59 430.634 168.131 426.074 172.207 423.877C176.575 421.547 182.387 421.464 187.578 420.399C178.403 416.404 168.953 411.478 164.823 425.175C162.428 424.742 160.29 424.343 157.42 423.827C156.635 427.738 155.958 431.05 155.136 435.211C158.554 434.662 160.564 434.346 162.575 434.013C162.045 436.376 162.428 439.705 160.838 440.937C154.953 445.514 156.817 451.539 156.141 457.097C155.885 459.178 156.324 461.325 156.488 464.537C153.345 462.507 151.206 461.109 149.05 459.711C151.151 466.934 153.765 473.425 157.146 479.566C160.93 486.423 174.272 487.588 180.285 482.196C182.826 479.916 185.86 477.819 189.095 476.52C206.293 469.647 207.098 468.715 206.312 452.704C205.946 445.48 202.309 443.15 194.98 445.78C192.677 446.595 190.721 448.21 189.131 449.142C187.303 446.845 185.512 444.565 184.343 443.084C189.588 440.354 195.455 437.708 200.755 434.312C202.4 433.264 202.492 430.218 203.278 428.088C201.084 428.021 198.635 427.356 196.734 427.988C186.243 431.5 172.188 431 172.517 447.361C171.731 447.045 170.927 446.745 170.141 446.429C167.564 442.351 164.987 438.257 162.41 434.179L162.374 434.163ZM112.386 342.374C118.545 340.56 124.979 347.533 129.676 341.175C132.856 336.865 135.323 332.121 138.175 327.461C124.266 321.786 114.926 324.266 104.216 334.501C95.2418 343.073 95.2601 359.184 102.571 368.737C113.964 366.474 117.229 357.686 112.367 342.374L112.386 342.374ZM113.172 387.411C110.96 393.02 108.127 398.429 106.811 404.121C105.952 407.866 108.548 411.195 113.61 410.962C116.882 410.812 120.245 410.346 123.334 409.43C128.908 407.766 130.498 398.779 125.838 395.467C122.347 392.987 118.582 390.84 113.153 387.411L113.172 387.411ZM70.184 306.324C79.0484 305.808 86.5419 305.375 94.7118 304.893C93.0851 299.25 99.4456 292.893 92.0616 288.698C84.5132 284.404 80.2547 291.561 73.8029 293.425C78.8291 296.987 87.4193 293.508 88.8814 303.578C85.025 302.729 81.5889 302.779 79.3042 301.331C74.5887 298.335 72.3955 299.683 70.184 306.341L70.184 306.324ZM224.26 441.852C230.145 446.329 235.939 450.723 241.714 455.117C242.08 454.901 242.445 454.684 242.811 454.468C239.466 446.446 236.103 438.423 232.21 429.07C228.92 434.346 226.837 437.724 224.26 441.852ZM173.961 375.078C165.572 366.39 157.329 367.472 154.112 376.593C153.71 377.708 154.021 379.705 154.88 380.371C156.05 381.286 158.407 382.052 159.65 381.569C164.311 379.805 168.734 377.508 173.961 375.078ZM155.337 441.702C151.334 440.454 148.355 439.522 143.914 438.124C145.193 444.598 146.29 450.074 147.368 455.55C148.172 455.516 148.958 455.466 149.762 455.433C151.59 450.939 153.399 446.462 155.337 441.702ZM32.1677 373.813C33.2277 373.43 34.3061 373.048 35.3661 372.648C37.1939 368.537 40.2461 363.977 34.5071 360.632C32.8622 359.666 28.9874 361.847 26.1362 362.579C28.1467 366.324 30.1572 370.052 32.1677 373.797L32.1677 373.813ZM133.276 494.529C135.488 494.046 139.198 494.229 140.989 492.631C145.083 488.937 144.462 480.299 140.057 475.239C137.827 481.597 135.726 487.588 133.276 494.529Z" fill="#004520"/>
<path d="M497.721 124.926C497.283 127.789 497.959 132.183 496.223 133.231C490.301 136.777 494.157 138.807 497.612 141.736C485.603 144.715 474.29 147.528 463.342 150.241C460.728 147.562 458.791 145.564 456.086 142.801C454.222 150.125 454.514 155.817 459.412 161.259C464.037 166.385 462.684 177.17 457.53 181.548C454.203 184.377 445.833 182.047 442.908 177.17C441.629 175.04 441.099 172.527 440.185 170.064C444.955 166.951 449.488 164.005 454.021 161.043C445.321 160.31 436.493 156.915 429.767 164.738C428.762 165.903 425.801 165.836 423.717 166.052C415.767 166.868 419.861 174.641 415.657 177.819C414.981 178.335 417.119 181.947 419.623 183.861C418.234 186.191 416.863 188.538 415.511 190.801C409.973 182.197 398.733 193.015 391.696 182.979C394.328 182.03 397.691 180.815 401.035 179.6C400.14 178.435 399.244 177.287 398.349 176.122C395.644 177.303 392.281 177.936 390.343 179.8C384.988 184.91 380.437 186.607 374.698 182.213C368.904 177.786 364.701 171.645 359.894 166.186C359.181 165.37 359.291 163.439 358.56 163.206C350.646 160.71 351.907 153.819 350.335 148.294C349.531 148.211 348.727 148.127 347.922 148.044C346.826 151.772 345.729 155.517 344.194 160.693C342.001 160.011 338.272 159.761 335.933 157.964C330.431 153.77 325.387 149.01 320.653 144.1C319.447 142.835 319.703 140.072 319.94 138.058C320.434 133.864 318.697 131.734 314.877 131.65C312.044 136.211 309.449 140.372 306.854 144.532C300.347 141.82 293.859 139.123 287.608 136.527C293.091 134.397 303.18 139.639 306.196 127.756C294.498 125.975 283.386 123.761 272.164 122.763C264.378 122.064 255.879 117.953 252.717 110.164C247.508 97.3314 237.565 89.3924 223.675 84.2329L237.602 84.2329C235.299 81.337 233.91 79.5894 231.589 76.6934C244.2 81.5533 252.443 87.7281 251.931 101.309C254.563 94.9181 257.725 95.0346 262.258 97.864C264.725 99.4118 268.088 100.56 271.031 100.544C278.378 100.494 284.574 102.025 290.075 106.835C296.418 112.394 305.063 111.245 310.29 103.906C298.629 101.076 291.209 90.3578 278.506 89.9417C278.14 90.5075 277.757 91.0734 277.391 91.6393C279.091 93.3536 280.809 95.0512 282.509 96.7655C277.811 94.8348 270.574 94.6351 273.626 86.4964C282.125 86.4465 291.044 84.2163 296.418 93.2537C296.966 94.1691 298.081 95.0013 299.159 95.3841C300.932 96.0498 302.888 96.3161 304.752 96.7489C305.099 95.1344 305.428 93.52 305.775 91.9056C314.091 98.5796 322.444 105.287 330.815 111.994C331.784 111.478 332.752 110.962 333.721 110.43C330.998 103.24 328.256 96.0498 325.533 88.8432C325.734 88.5602 325.953 88.2773 326.154 87.9777C328.439 90.441 330.541 93.054 333.063 95.3009C335 97.0152 337.267 98.796 339.752 99.5783C343.81 100.86 348.142 101.359 352.382 102.175C352.382 103.223 352.345 104.288 352.327 105.337C348.599 106.269 344.852 107.201 341.105 108.133C341.032 120.15 353.643 134.03 366.62 135.795C374.424 124.044 364.006 117.087 358.03 108.982C367.333 109.048 375.119 115.822 374.643 123.229C384.55 127.872 393.304 133.464 398.203 142.152C403.722 141.52 409.955 140.788 417.722 139.889C418.764 139.107 421.378 137.126 424.101 135.096C424.485 131.684 425.033 127.922 425.253 124.161C425.344 122.43 424.777 120.666 424.522 118.918C422.511 119.684 420.336 120.233 418.527 121.281C417.101 122.097 416.096 123.528 414.286 125.293C411.983 120.116 410.54 115.989 418.49 112.577C406.829 112.627 406.61 112.926 408.675 120.699C409.681 124.46 412.038 128.538 405.331 132.666C404.545 126.291 403.923 121.115 403.21 115.207C401.145 116.538 398.824 118.019 396.503 119.501L396.686 119.351C392.957 120.316 389.21 121.298 383.435 122.796C385.555 120.399 386.578 119.234 388.516 117.037C383.343 111.096 377.751 104.688 371.664 97.6809C375.027 98.7627 377.933 99.7114 381.863 100.976C382.923 93.6032 386.798 88.5436 395.973 87.2621C391.915 83.9167 388.753 81.3037 385.153 78.3245C380.108 78.6906 373.675 77.9916 368.429 79.9223C363.951 81.5866 360.863 86.2967 357.043 89.7419C351.267 85.9139 345.784 82.2856 340.301 78.6574C344.176 69.0541 350.207 66.208 359.766 69.337C363.165 70.4521 366.784 71.1012 370.111 72.3661C373.273 73.5811 376.215 75.312 380.657 77.509C380.784 65.3093 372.834 58.4854 365.322 51.4618L365.139 51.6283C367.79 51.2288 370.458 50.8127 375.356 50.0804C372.213 45.4868 369.727 41.8585 367.259 38.2469C372.889 36.2829 379.341 39.4952 379.359 45.2039C379.359 51.2455 380.73 55.3398 386.469 59.484C391.148 62.8627 392.975 69.4535 396.229 74.5464C400.761 81.6532 405.44 88.6768 410.064 95.7336C415.822 104.521 426.879 105.32 438.595 97.115C439.564 100.244 440.441 103.023 441.775 107.334C447.569 98.4964 452.851 90.624 457.859 82.6019C458.59 81.4368 458.078 79.5894 458.06 78.0582C458.023 76.5603 457.146 74.5298 457.895 73.6476C464.969 65.4923 467.144 55.3398 472.005 46.3024C472.736 44.9376 475.789 43.4896 477.342 43.8058C482.643 44.9043 485.384 51.1456 483.666 56.0555C483.136 57.5867 483.264 59.6338 483.94 61.1317C486.81 67.6227 489.771 74.0305 485.494 81.4535C480.559 80.0887 475.149 78.5908 467.637 76.5103C468.953 81.5866 469.904 85.3148 470.982 89.4923C469.428 89.3591 467.29 89.1761 464.183 88.9264C465.024 94.1858 465.773 98.8293 466.65 104.172C471.804 100.976 475.423 98.7294 479.097 96.4659C476.977 92.1719 479.243 89.8252 483.922 90.3578C491.58 91.2565 499.732 90.3744 506.458 95.5505C509.108 97.581 512.983 98.33 516.364 99.4784C522.541 101.575 529.103 102.641 532.704 108.998C533.636 110.646 539.521 111.661 541.824 110.613C546.868 108.299 551.054 104.471 555.605 101.259L555.459 101.392C562.623 104.022 554.691 108.083 558.145 112.444C563.683 108.815 569.605 104.937 575.527 101.043C575.179 100.161 574.832 99.2953 574.467 98.4132L558.584 98.4132C565.748 91.889 572.803 91.6393 580.571 96.5159C584.684 99.0956 589.746 100.444 595.266 102.741C596.893 99.1788 598.19 96.3328 599.671 93.0706C604.478 97.5145 606.908 101.908 606.122 107.9C605.117 115.556 604.916 123.312 604.313 131.617C606.78 131.134 609.76 130.535 612.026 130.086C612.245 133.365 612.446 136.394 612.684 139.939C611.332 140.405 608.882 141.304 606.397 142.152C602.156 143.6 598.391 144.249 595.43 139.689C594.517 138.291 591.336 138.108 588.193 137.026C588.796 140.322 589.125 142.102 589.344 143.401C585.341 145.631 580.681 146.979 578.78 149.842C577.866 151.206 582.161 155.467 584.72 159.328C581.467 159.328 578.213 159.811 575.198 159.245C565.986 157.498 556.646 155.966 547.782 153.187C535.427 149.292 532.265 142.186 536.103 130.302C536.322 129.653 535.811 128.804 534.019 127.356C532.027 130.885 530.035 134.413 528.061 137.925C518.283 133.231 517.424 130.951 521.28 119.734C514.097 116.072 513.44 123.845 508.724 125.742C507.81 123.894 506.915 122.114 505.471 119.218C502.619 121.331 500.207 123.112 497.794 124.91C499.476 119.717 501.157 114.541 502.875 109.298C494.048 112.86 495.181 102.324 488.254 98.7128C490.1 105.337 491.69 110.48 492.933 115.689C494.212 121.132 493.188 125.509 486.079 127.04C483.904 127.506 482.058 129.237 479.115 130.935C491.671 134.763 494.34 133.731 497.776 124.976L497.721 124.926ZM546.247 121.082C546.905 132.05 545.187 142.186 554.746 149.326C562.495 155.118 567.887 156.316 573.864 153.919C557.341 148.36 557.944 131.584 546.229 121.082L546.247 121.082ZM576.642 115.489C575.216 116.222 572.913 117.453 570.592 118.635C568.654 119.617 566.717 120.566 564.761 121.514C564.999 122.23 565.237 122.946 565.474 123.661C580.955 120.815 588.43 134.413 601.498 136.926C593.383 129.936 585.287 122.946 576.642 115.489ZM444.882 122.829C452.723 128.355 459.522 131.484 467.601 130.802C469.501 130.635 471.11 127.689 473.65 125.293C466.413 124.36 461.112 123.695 454.569 122.846C457 119.883 458.115 118.535 459.211 117.204C458.663 116.555 458.115 115.889 457.567 115.24C453.929 117.42 450.311 119.584 444.882 122.829ZM434.026 145.298C432.436 147.245 430.864 149.193 428.762 151.772C436.42 149.01 442.835 146.679 449.25 144.349C449.141 143.867 449.049 143.384 448.94 142.885C441.391 141.903 433.861 140.921 426.313 139.939C426.075 140.605 425.856 141.254 425.618 141.919C428.396 143.034 431.174 144.15 434.026 145.298ZM392.738 95.1011C388.223 101.775 388.753 103.722 396.357 108.1C399.226 102.691 397.983 98.6129 392.738 95.1011ZM309.888 115.639C309.285 125.709 312.52 127.423 326.41 125.226C320.708 121.914 315.608 118.968 309.888 115.639ZM305.922 115.639C301.645 115.939 298.812 116.139 294.919 116.421C298.245 118.252 300.365 119.417 302.467 120.566C302.321 120.882 302.157 121.198 302.01 121.531C298.958 121.098 295.906 120.682 292.853 120.25C292.726 120.915 292.616 121.598 292.488 122.263C296.089 123.046 299.671 123.811 303.856 124.71C304.533 121.747 305.063 119.451 305.922 115.623V115.639ZM333.684 145.331L336.243 142.286C333.867 137.076 328.183 136.577 322.81 135.611L321.347 137.575L333.684 145.331Z" fill="#004520"/>
<path d="M398.422 362.147C397.527 367.456 396.704 372.449 395.864 377.459C396.449 377.725 397.033 377.991 397.618 378.241C399.958 374.513 402.297 370.768 404.874 366.674C411.381 369.037 410.504 374.33 409.809 379.223C413.885 378.857 417.833 377.459 420.721 378.507C423.828 379.639 425.692 383.367 428.58 385.364C430.005 386.346 432.93 386.696 434.52 386.03C436.384 385.264 437.535 383.067 439.857 380.571C440.588 388.743 429.183 392.854 434.684 400.909C432.436 400.177 430.243 399.478 428.068 398.779C428.305 399.361 428.561 399.944 428.799 400.51C424.504 402.923 419.861 407.7 415.987 407.234C409.407 406.452 408.913 399.994 408.913 394.485C408.913 393.054 407.89 391.639 406.684 388.543C404.125 394.468 402.261 398.762 400.415 403.056C399.501 403.139 398.587 403.239 397.673 403.323C400.853 405.453 404.052 407.567 406.519 409.214C407.177 412.576 407.762 415.639 408.402 418.934C396.778 423.561 393.67 422.23 393.524 411.661C384.112 410.796 380.237 413.042 377.952 420.682C375.832 427.705 369.526 429.703 362.27 425.808C365.451 423.811 369.49 422.329 371.793 419.617C375.083 415.739 372.707 411.528 367.351 411.528C358.907 411.528 350.482 412.343 342.038 412.809C336.372 413.126 335.842 416.671 338.419 419.65C341.946 423.777 346.735 427.006 350.975 430.618C351.578 430.235 352.2 429.836 352.803 429.453C352.054 431.084 351.322 432.698 350.957 433.481C345.236 434.13 339.991 434.712 333.977 435.395C333.009 431.567 331.821 426.906 330.231 420.698C326.466 423.128 323.815 424.843 321.293 426.474C319.63 424.759 317.108 422.546 315.097 419.983C311.515 415.439 312.977 410.679 316.23 406.851C319.813 402.624 319.557 398.463 319.082 393.586C318.698 389.592 320.434 385.431 321.238 381.336C321.823 381.736 322.426 382.152 323.011 382.551C329.317 377.725 335.622 372.915 342.111 367.938C339.552 366.707 337.45 365.692 334.581 364.31C337.34 360.782 338.072 357.436 331.638 356.488C335.33 348.482 338.401 340.71 346.899 336.965C350.591 335.334 355.398 335.184 359.62 335.484C360.936 335.567 362.8 339.262 362.928 341.375C363.239 346.502 359.035 348.349 354.302 349.531C352.291 350.03 350.39 350.929 348.508 351.611C349.294 355.223 350.043 358.668 351.085 363.495C355.672 359.667 360.059 356.022 364.464 352.36C371.994 360.199 371.957 368.771 364.829 376.277C362.069 379.189 362.8 378.757 364.866 381.703C366.876 384.599 367.187 388.477 368.722 393.52C370.55 392.488 375.01 390.757 374.827 389.958C373.785 385.697 377.386 385.414 379.743 383.833C383.326 381.42 385.61 378.79 386.195 374.03C386.853 368.754 387.182 361.115 398.404 362.113L398.422 362.147ZM333.63 402.241L334.142 400.809C332.497 399.761 330.852 398.696 328.988 397.514C337.414 393.386 337.468 393.137 331.309 386.962C328.531 391.522 325.881 395.833 322.372 401.592C327.562 401.891 330.578 402.058 333.612 402.224L333.63 402.241Z" fill="#004520"/>
<path d="M656.202 422.745C659.126 423.777 662.361 424.393 664.902 425.941C667.863 427.739 670.22 430.352 673.364 433.048C670.111 442.268 670.129 451.555 676.38 460.493C680.967 467.067 683.818 467.916 691.458 463.688C693.176 462.74 695.351 462.44 697.672 461.741C699.226 463.971 700.578 465.935 702.297 468.399C704.965 466.235 707.103 464.487 709.26 462.756C709.955 462.84 710.667 462.923 711.362 462.989C710.832 467.733 710.247 472.46 709.772 477.22C709.699 478.019 709.845 478.951 710.229 479.666C714.25 487.322 715.986 495.261 713.921 503.833C712.696 499.339 711.965 494.812 710.192 490.651C706.939 482.995 704.782 482.745 694.675 489.935C699.263 492.116 703.503 494.113 707.743 496.127C707.103 496.776 706.445 497.442 705.806 498.091C705.404 498.79 705.184 499.772 704.545 500.171C695.644 505.564 694.803 506.895 698.056 516.515C700.122 522.607 699.061 525.885 691.55 527.067C689.1 527.45 687.145 530.379 683.891 533.025C683.617 531.777 682.301 529.53 683.033 528.448C688.625 520.193 690.142 511.855 687.145 502.252C685.61 497.342 687.236 491.65 687.053 486.324C686.999 484.576 686.103 481.597 685.061 481.381C683.16 480.998 680.072 481.664 678.865 482.945C675.265 486.84 672.03 490.768 665.322 489.652C663.659 483.478 662.507 477.27 660.296 471.378C657.371 463.589 651.468 462.34 643.974 467.167C639.789 469.863 635.421 472.327 631.418 474.707C629.133 472.693 627.251 469.68 624.911 469.364C623.011 469.098 620.708 472.243 618.35 473.525C614.201 475.788 609.851 477.786 605.593 479.899C605.757 480.532 605.922 481.164 606.086 481.797C608.499 482.196 610.911 482.612 614.932 483.278C614.53 491.084 614.11 499.106 613.689 507.111C612.958 507.228 612.245 507.361 611.514 507.478C611.167 505.996 610.418 504.482 610.564 503.05C610.966 499.505 612.373 495.994 612.282 492.498C612.154 488.404 609.029 486.973 604.606 487.688C598.885 488.604 593.128 489.336 587.389 490.135C587.023 489.186 586.639 488.221 586.274 487.272C591.135 484.526 596.088 481.93 600.804 479.001C605.282 476.221 609.796 473.408 613.744 470.063C616.906 467.383 615.883 464.92 612.008 462.906C600.859 457.148 586.054 460.227 577.884 470.08C574.649 473.991 571.012 477.636 567.43 481.514C564.213 477.769 561.472 474.59 559.224 471.977C571.561 467.883 583.879 463.006 589.564 448.992C593.786 450.174 597.934 452.121 602.193 452.321C606.287 452.521 610.473 450.906 615.572 449.908C616.12 450.84 617.162 452.604 618.953 455.65C627.141 446.229 637.084 442.901 648.16 448.809C649.786 443.25 650.737 438.657 652.491 434.329C654.52 429.303 651.706 427.306 647.356 425.458C633.812 419.733 633.173 417.836 640.685 405.303C645.108 397.913 649.841 390.673 654.868 382.701C665.596 388.726 670.019 395.833 671.006 405.27C671.993 414.757 664.591 417.403 656.988 420.149C656.768 420.998 656.531 421.863 656.311 422.712L656.202 422.745ZM640.813 453.27L639.168 450.806C637.011 451.805 633.831 452.288 632.899 453.885C631.071 456.981 630.778 460.609 636.499 463.089C638.071 459.528 639.442 456.399 640.813 453.27ZM664.152 471.195C664.993 474.806 665.852 478.401 666.748 482.196C671.609 480.21 670.744 476.543 664.152 471.195Z" fill="#004520"/>
<path d="M453.144 310.968C450.585 312.366 448.008 313.747 445.248 315.245C449.214 320.554 453.089 325.764 457.037 331.04C470.142 324.249 473.907 324.466 474.656 343.672C482.369 334.135 491.105 338.995 500.354 340.327C499.038 346.818 497.923 352.41 496.79 358.052C493.244 359.384 489.625 360.732 486.006 362.08C486.262 362.729 486.5 363.378 486.756 364.027C494.596 365.775 501.889 364.626 507.463 359.716C509.09 364.094 510.589 368.171 512.088 372.249C512.764 372.549 513.44 372.848 514.116 373.148C518.284 366.89 522.469 360.649 527.002 353.858C529.524 355.822 531.717 357.52 534.514 359.7L534.514 352.36C535.775 352.543 536.926 352.393 537.346 352.826C540.709 356.221 538.863 360.033 535.683 361.214C530.292 363.228 529.981 366.507 529.231 370.834C528.72 373.697 526.033 376.809 523.365 378.624C518.777 381.736 513.458 383.999 508.396 386.513C503.826 388.776 500.573 388.01 498.361 383.284C497.283 380.97 494.852 379.156 493.043 377.126C492.33 377.442 491.599 377.741 490.886 378.058C490.575 380.088 490.703 382.302 489.79 384.083C489.077 385.481 487.066 386.329 485.184 387.777C478.988 373.897 485.75 358.984 477.745 345.786C471.969 348.399 473.34 351.977 473.852 355.439C475.387 365.775 472.079 375.195 466.285 383.833C464.585 386.363 460.912 387.777 458.134 389.691C457.585 389.026 457.037 388.343 456.489 387.678C459.029 385.947 461.588 384.199 463.416 382.951C460.217 378.557 455.027 374.596 455.593 371.533C457 363.877 460.93 356.588 464.092 349.231C464.585 348.099 467.053 347.533 467.309 346.468C467.802 344.404 467.364 342.141 467.309 339.977C465.17 340.011 462.63 339.428 460.985 340.26C458.993 341.259 457.622 343.389 456.215 345.187C448.502 355.123 439.107 355.289 431.138 345.569C429.311 343.356 427.629 341.042 425.911 338.762C422.53 334.302 421.799 330.907 426.405 325.697C431.943 319.423 434.465 310.918 443.201 306.923C446.564 305.375 450 303.977 453.418 302.496C453.93 303.095 454.442 303.711 454.953 304.31C454.295 306.607 453.656 308.887 452.998 311.184L453.181 311.001L453.144 310.968Z" fill="#004520"/>
<path d="M817.789 191.9C828.006 188.787 837.4 184.477 847.252 183.295C861.91 181.514 877.189 180.066 888.741 192.449C892.56 196.56 898.135 199.306 904.349 203.7C896.527 204.366 890.276 204.898 884.902 205.348C888.594 210.357 892.597 214.202 894.37 218.779C895.521 221.725 893.401 225.719 892.743 229.248C891.976 229.198 891.208 229.165 890.44 229.115C889.929 226.918 889.417 224.721 888.54 220.876C885.158 224.854 882.618 227.85 880.096 230.812C879.748 228.932 879.364 226.901 878.853 224.105C876.002 225.337 873.772 226.285 871.524 227.267C873.315 221.375 875.051 215.667 877.007 209.292C870.884 208.61 867.557 208.577 866.954 214.851C866.589 218.646 863.098 222.174 861.124 225.636C851.017 223.589 841.275 221.608 831.332 219.595C831.15 218.097 830.894 216.016 830.382 211.972C827.494 215.284 825.794 217.231 823.82 219.511C822.23 218.413 820.622 217.314 819.032 216.183C814.408 212.904 814.006 209.808 818.849 206.147C825.082 201.436 824.88 198.041 817.807 191.916L817.789 191.9ZM854.343 194.879C851.236 197.775 848.622 199.789 846.74 202.252C846.246 202.901 847.8 206.047 848.696 206.163C852.424 206.613 856.281 206.363 861.033 206.363C858.529 202.086 857.012 199.473 854.343 194.896V194.879Z" fill="#004520"/>
<path d="M632.478 104.322C629.006 106.885 625.533 109.448 621.695 112.261C612.794 105.021 607.292 96.3827 605.794 85.8973C605.392 83.1012 606.982 80.1053 607.475 77.1761C608.407 71.5672 610.363 65.8918 602.814 62.0638C600.914 61.0984 600.749 57.2704 599.799 54.7739C600.731 54.3745 601.645 53.975 602.577 53.5756C606.58 58.9514 611.423 63.9778 614.384 69.803C617.473 75.8945 621.695 72.7156 625.917 72.3827C625.588 79.3897 623.815 86.796 631.747 92.2385C634.872 89.4257 638.51 87.3619 640.1 84.3827C641.617 81.57 641.672 74.9791 641.196 74.8793C633.191 73.2482 635.786 65.4091 631.528 61.5978C630.047 60.2663 631.144 55.9722 631.93 53.226C633.026 49.3481 634.946 45.6699 636.682 41.4757C639.935 41.742 644.87 42.724 641.726 35.9501C641.16 34.7351 643.006 32.5714 644.102 29.9917C650.042 36.0666 646.899 40.7101 644.249 46.2025C655.471 48.7157 661.319 59.6005 674.059 60.4161C680.255 60.8155 684.221 73.9139 679.596 77.6254C678.006 78.907 673.528 79.0069 671.701 77.8751C667.022 74.9958 663.988 77.3425 661.374 79.8557C654.557 86.4299 654.703 86.5797 646.88 86.4798C643.353 89.8584 640.922 93.9694 637.267 95.3175C631.729 97.348 631.839 100.494 632.35 104.488L632.515 104.305L632.478 104.322Z" fill="#004520"/>
<path d="M434.191 172.477C433.131 175.273 432.071 178.069 430.992 180.948C440.661 187.639 447.368 189.703 465.225 191.251C464.805 200.754 457.896 205.198 446.18 203.334C447.021 205.93 447.825 208.477 448.757 211.406C458.243 209.126 465.444 204.316 471.33 197.143C474.016 193.864 478.184 191.118 482.314 189.42C488.693 186.79 496.461 187.922 501.98 182.113C503.79 180.199 509.456 181.331 514.994 180.965C511.466 184.327 508.944 186.74 506.86 188.721C507.153 192.432 507.39 195.711 507.701 199.789C510.991 197.825 513.915 196.061 516.84 194.313C517.278 194.629 517.717 194.929 518.155 195.245C517.351 197.143 517.114 199.523 515.688 200.854C505.343 210.624 493.335 218.995 477.909 218.097C464.384 217.314 450.969 213.919 437.736 210.823C432.144 209.509 427.154 206.03 420.574 202.901C427.647 198.94 429.037 194.995 426.423 189.037C424.76 185.242 425.345 180.382 425.984 176.138C426.258 174.258 429.183 172.71 430.919 171.012C431.997 171.495 433.076 171.978 434.172 172.46L434.191 172.477Z" fill="#004520"/>
<path d="M365.505 267.129C361.046 276.948 350.28 274.302 342.695 277.348C345.218 279.511 348.891 281.292 348.818 282.957C348.709 285.486 346.625 288.632 344.304 290.263C335.805 296.238 330.907 296.571 322.243 292.56C325.259 288.932 331.035 285.753 324.729 279.944L335.165 279.944C335.732 277.548 336.298 275.101 337.231 271.19C333.557 272.455 331.528 273.137 328.695 274.102C327.836 271.356 326.977 268.61 326.045 265.614C320.891 264.749 317.235 265.614 316.815 271.423C316.614 274.169 316.157 276.998 315.115 279.561C314.055 282.208 312.173 284.588 309.906 288.299C309.943 288.349 310.985 289.864 312.228 291.694C311.076 291.744 309.669 292.061 309.486 291.778C306.708 287.267 302.888 282.873 301.901 278.014C301.407 275.567 305.703 271.855 308.554 269.425C312.977 265.647 318.04 262.485 324.126 258.141C314.037 254.296 307.823 257.309 301.554 260.887C304.917 255.695 309.778 252.649 316.322 252.366C323.267 252.066 330.249 252.366 337.194 252.1C345.108 251.817 351.03 255.129 356.385 259.955C359.163 262.452 362.288 264.649 365.469 267.145L365.505 267.129Z" fill="#004520"/>
<path d="M781.364 175.872C790.374 170.413 796.972 171.129 802.236 178.252C800.408 179.168 798.617 180.083 795.199 181.814C800.025 182.896 802.985 183.561 807.646 184.61C804.064 187.955 801.213 190.269 798.818 192.932C796.954 195.012 795.949 197.775 793.957 199.722C792.568 201.07 790.137 202.219 788.144 202.235C783.922 202.285 779.682 201.52 775.46 201.104C765.463 200.105 763.781 198.125 764.841 189.886C760.199 186.507 756.141 183.561 751.298 180.033C751.864 175.389 752.12 169.598 753.455 164.022C754.076 161.426 756.415 157.647 758.609 157.248C761.515 156.715 765.974 158.163 768.094 160.194C773.048 164.954 777.014 170.58 781.364 175.839L781.364 175.872Z" fill="#004520"/>
<path d="M606.232 403.705C615.024 395.567 612.885 388.51 607.804 380.421C600.786 369.253 603.089 360.615 612.977 351.661C614.951 349.88 616.322 347.533 616.925 346.784C625.533 343.855 633.155 341.259 641.708 338.346C640.795 340.21 640.557 342.141 639.442 342.74C632.789 346.318 632.241 351.312 633.465 357.719C635.129 366.341 635.86 374.779 633.173 383.866C629.499 396.282 622.463 403.123 606.214 403.705L606.232 403.705Z" fill="#004520"/>
<path d="M675.959 322.302C676.166 329.137 672.895 337.103 666.145 346.202C676.16 340.626 681.187 345.02 685.281 351.528C674.479 350.146 663.714 348.765 651.194 347.15C645.674 340.393 646.972 330.54 649.001 320.604C648.251 320.454 647.502 320.304 646.753 320.155C643.463 324.066 640.959 329.775 636.627 331.356C632.46 332.87 624.656 331.689 621.603 328.859C617.436 325.015 616.285 318.49 613.488 312.366C618.021 311.467 620.58 310.951 624.93 310.085C621.804 305.908 619.008 302.146 616.193 298.385C616.632 297.902 617.071 297.436 617.527 296.954C621.603 300.166 626.264 302.962 629.645 306.707C635.274 312.915 641.745 314.296 650.353 313.614C655.599 313.198 661.173 316.277 666.291 317.708C666.857 324.832 654.063 326.629 659.601 334.268C665.194 330.257 670.659 326.346 676.106 322.435L675.941 322.302L675.959 322.302Z" fill="#004520"/>
<path d="M380.017 362.03C377.879 353.242 375.412 346.302 374.626 339.212C372.542 320.338 373.2 319.772 392.738 312.882C398.77 310.751 405.386 312.948 408.292 318.041C412.258 325.015 410.851 338.296 404.454 343.822C397.472 349.847 389.576 354.99 380.017 362.03Z" fill="#004520"/>
<path d="M814.573 146.796C820.513 145.797 826.197 144.849 831.863 143.9L831.826 142.319C830.108 141.919 828.39 141.52 826.563 141.087C830.218 138.441 833.544 135.645 837.273 133.448C843.578 129.72 844.273 135.844 846.978 138.724C854.271 131.8 862.97 132.066 871.78 132.865C872.036 133.631 872.31 134.413 872.566 135.179C870.025 136.127 866.9 138.441 865.054 137.792C853.814 133.747 847.928 142.419 840.307 146.23C836.03 148.36 838.991 155.168 844.803 155.534C848.495 155.767 852.351 153.204 856.244 152.338C858.84 151.756 861.636 151.955 864.341 151.806C863.884 153.953 864.14 156.599 862.842 158.147C860.485 160.943 857.451 163.456 854.216 165.42C848.495 168.898 842.756 170.08 837.346 164.355C833.416 160.211 828.445 157.714 821.957 159.345C816.711 167.384 824.095 169.564 830.108 172.377C829.889 172.926 829.67 173.492 829.45 174.041C824.223 174.041 818.886 174.624 813.805 173.875C808.651 173.109 805.27 166.751 807.189 162.191C809.437 156.832 812.233 151.639 814.591 146.796L814.573 146.796Z" fill="#004520"/>
<path d="M445.102 413.891C450.841 424.959 458.92 431.101 471.896 434.063C465.737 436.61 461.917 438.44 457.859 439.722C456.452 440.171 454.478 439.422 452.851 438.956C448.611 437.708 444.316 436.526 440.222 434.945C433.039 432.182 429.512 435.811 426.642 440.92C425.454 443.034 424.211 445.131 422.987 447.245C422.347 447.145 421.726 447.062 421.086 446.962C421.506 442.102 422.42 437.225 422.219 432.382C422.036 427.489 421.141 422.546 419.861 417.769C418.545 412.826 420.684 410.396 425.582 409.214C435.744 406.751 445.924 404.321 456.909 401.675C454.624 405.403 452.76 408.449 450.22 412.56C455.776 413.924 460.729 415.123 466.029 416.421C461.168 421.159 454.186 420.321 445.084 413.908L445.102 413.891Z" fill="#004520"/>
<path d="M574.393 313.481C571.56 318.008 569.129 321.886 565.931 326.979C566.37 326.979 564.67 326.979 563.043 326.979C562.696 326.28 562.129 325.681 562.276 325.314C567.941 310.835 571.725 295.506 584.482 284.188C584.702 284.005 584.83 283.739 585.031 283.522C586.2 282.258 614.036 276.765 615.005 277.897C616.741 279.961 619.684 283.09 618.989 284.538C617.582 287.534 614.566 290.796 611.35 291.961C607.018 293.509 601.845 293.176 597.057 293.658C592.689 294.108 588.32 294.574 582.764 295.156C585.652 299.883 587.754 303.328 590.422 307.672C592.871 305.309 594.589 303.528 596.435 301.88C599.268 299.35 601.973 296.188 606.049 300.649C609.504 304.427 610.783 307.988 605.227 310.901C600.584 313.331 595.686 315.328 590.404 317.742C588.796 314.712 587.699 312.632 586.602 310.535C585.707 309.919 584.811 309.32 583.897 308.704C581.96 311.284 580.023 313.864 577.738 316.909C576.989 316.144 576.057 315.178 574.412 313.464L574.393 313.481Z" fill="#004520"/>
<path d="M510.406 324.715C507.701 328.632 501.815 325.764 492.75 316.11L492.75 322.019C490.264 322.618 488.126 323.151 484.342 324.083C489.935 326.413 493.956 328.094 497.977 329.775C484.964 333.237 479.261 326.629 483.812 314.912C488.4 303.095 496.022 294.99 510.661 293.109C511.246 294.208 511.648 295.19 512.27 296.055C518.649 305.043 521.628 312 522.633 320.172C527.22 320.92 531.808 321.669 537.657 322.635C529.395 330.374 524.442 331.423 515.45 327.877C517.168 322.086 518.941 316.11 520.604 310.518L502.217 310.518C501.724 316.094 502.09 322.119 510.442 324.715L510.406 324.715Z" fill="#004520"/>
<path d="M286.786 344.288C293.128 345.203 298.355 344.97 301.462 338.18C302.614 335.667 307.731 334.651 311.039 332.954C311.734 333.536 312.428 334.119 313.123 334.685C309.869 339.095 306.598 343.522 303.345 347.933C303.802 348.382 304.258 348.832 304.734 349.281C308.883 346.285 311.697 339.861 318.825 345.137C319.995 341.392 320.872 338.596 322.005 334.951C327.562 347.733 313.434 346.218 309.431 350.429C315.7 355.938 321.329 360.881 326.94 365.825C326.977 366.49 327.013 367.156 327.05 367.822C324.363 368.038 320.489 369.353 319.227 368.238C315.956 365.342 312.501 363.112 309.084 366.207C305.282 369.653 302.65 374.279 299.927 378.59C298.83 380.321 298.794 382.618 298.264 384.665C297.167 384.582 296.089 384.482 294.992 384.399C293.639 375.078 292.287 365.741 290.843 355.672C288.595 356.671 285.269 358.468 281.686 359.617C277.994 360.798 274.046 361.314 270.208 362.13C269.678 361.164 269.148 360.182 268.618 359.217C275.253 354.973 281.906 350.746 288.65 346.435C288.284 345.936 287.626 345.037 286.968 344.138L286.804 344.288L286.786 344.288ZM307.238 357.22C303.765 354.84 301.316 353.176 298.337 351.128C297.898 356.604 296.162 361.863 304.258 364.21C305.337 361.68 306.287 359.467 307.238 357.22Z" fill="#004520"/>
<path d="M497.338 284.804C500.774 282.857 503.991 280.31 507.719 279.129C513.678 277.231 519.983 276.249 526.143 274.851C536.67 272.438 546.485 273.203 554.838 280.26C558.018 282.94 558.913 285.503 554.783 288.432C552.48 290.063 551.219 292.876 548.934 294.54C546.339 296.438 543.14 297.653 540.216 299.151C538.772 296.671 537.182 294.258 535.921 291.694C535.336 290.529 535.409 289.098 533.344 287.234C530.931 291.262 528.5 295.289 525.704 299.966C519.928 292.71 514.884 280.31 498.416 288.482C498.069 287.251 497.703 286.036 497.356 284.804L497.338 284.804Z" fill="#004520"/>
<path d="M511.082 175.789C509.437 176.105 507.591 176.937 505.982 176.671C497.648 175.306 490.081 177.17 482.277 179.75C474.107 182.463 469.593 180.05 466.741 173.043C464.731 168.083 468.222 161.575 474.674 158.879C482.917 155.451 491.434 156.699 499.457 159.129C507.225 161.476 514.573 165.071 511.063 175.772L511.082 175.789Z" fill="#004520"/>
<path d="M403.266 269.059C404.673 269.974 408.328 271.173 409.461 273.42C410.759 276.033 411.289 280.959 409.589 282.457C403.156 288.116 396.046 293.309 388.443 297.619C384.129 300.066 373.712 295.406 371.208 291.128C370.787 290.429 370.147 289.381 370.422 288.865C373.145 284.005 375.43 278.796 379.122 274.618C381.041 272.438 385.445 271.839 388.881 271.09C392.994 270.191 397.271 269.875 403.266 269.059Z" fill="#004520"/>
<path d="M446.875 268.144L441.867 276.998C442.47 277.581 443.055 278.163 443.658 278.729C446.692 277.148 449.726 275.583 452.778 274.002C453.436 274.169 454.094 274.318 454.771 274.485C453.217 279.128 452.559 284.354 449.635 288.099C448.502 289.547 442.214 287.667 437.7 287.25C438.632 290.646 439.619 294.191 440.88 298.718C433.807 301.547 426.569 304.46 418.728 307.605C414.579 297.004 417.833 287.284 422.804 280.593C427.556 274.185 438.084 271.339 446.071 266.929C446.345 267.328 446.619 267.728 446.875 268.127V268.144Z" fill="#004520"/>
<path d="M781.162 6.47436C781.857 8.83774 781.802 11.8502 783.41 13.5645C789.423 19.9556 785.256 24.9487 780.925 29.5256C779.755 30.7739 775.752 30.7573 773.595 30.0083C771.165 29.1761 768.46 27.2122 767.454 25.1151C766.212 22.552 766.614 19.3564 764.896 16.3107C763.799 18.1748 762.702 20.0388 760.655 23.5173L760.655 10.7018C760.016 10.1359 759.376 9.57007 758.718 8.98755C747.916 15.1623 737.096 21.3204 726.441 27.4119C723.845 20.9209 724.777 18.3079 731.65 15.7947C736.255 14.1137 741.081 13.7476 743.402 8.15537C744.224 6.1415 751.005 5.45912 755.062 5.42583C763.817 5.34262 772.572 6.09156 781.18 6.47436L781.162 6.47436Z" fill="#004520"/>
<path d="M703.668 37.814C713.062 33.7031 717.284 39.029 718.637 58.6184C711.655 50.979 705.422 44.1386 699.172 37.2814C698.367 37.7142 697.563 38.1302 696.759 38.563C699.281 42.8404 701.767 47.1344 704.362 51.3785C706.574 54.9902 709.059 58.4686 711.052 62.1801C711.472 62.9624 710.595 65.0761 709.717 65.4755C708.767 65.8916 706.336 65.3923 705.897 64.6434C703.942 61.2647 702.461 57.6531 700.707 53.875C695.479 54.6906 689.868 55.5727 683.124 56.6212C683.124 54.8404 683.307 52.5768 683.069 50.3466C682.832 48.1829 682.85 44.8875 681.498 44.2384C679.761 43.3896 676.764 44.6878 674.169 45.0872C672.67 38.6961 672.926 38.4132 682.119 37.4645L682.119 31.1067C687.876 31.4396 693.487 31.373 698.879 32.2884C700.579 32.5713 701.749 35.4839 703.668 37.8307L703.668 37.814Z" fill="#004520"/>
<path d="M424.412 271.373C428.963 267.079 433.404 262.718 438.083 258.541C440.679 256.227 444.462 254.696 446.235 252.016C448.465 248.654 450.841 244.111 450 240.749C449.433 238.535 443.42 237.137 439.618 235.989C433.605 234.174 427.153 233.409 421.36 231.195C415.639 229.015 415.474 226.069 420.574 222.724C423.133 221.043 426.605 219.661 429.657 219.678C435.049 219.695 440.569 220.427 445.796 221.692C458.206 224.688 461.277 230.463 457.073 241.647C454.368 248.854 450.457 254.979 443.055 259.406C436.84 263.117 431.613 268.227 425.966 272.704C425.454 272.255 424.924 271.822 424.412 271.373Z" fill="#004520"/>
<path d="M429.127 62.4965C431.777 66.4244 434.172 70.5021 437.114 74.2302C440.148 78.0749 443.584 81.5201 436.511 84.8488C435.378 85.3814 434.318 86.6629 433.971 87.7947C432.856 91.3065 431.412 93.6199 427.08 90.8405C426.166 92.1719 425.252 93.5201 423.516 96.0665C418.709 91.3897 414.122 86.9459 408.949 81.9195C415.328 77.9084 419.276 73.4147 414.835 66.6241C418.033 65.9251 420.482 65.3759 422.95 64.8433C423.041 64.1609 423.132 63.4785 423.242 62.7961C418.581 61.8474 413.811 61.165 409.26 59.8835C404.307 58.5021 400.286 56.1887 403.521 49.5313C411.015 56.3384 422.913 54.6075 429.255 62.6463L429.145 62.4965L429.127 62.4965Z" fill="#004520"/>
<path d="M360.004 292.044C364.555 296.621 352.638 299.816 359.931 303.411C364.007 302.296 367.79 300.266 371.39 300.499C376.508 300.832 379.122 304.227 375.704 308.654C372.743 312.499 368.85 315.761 365.359 319.306C363.714 317.875 363.074 317.592 362.965 317.176C362.343 314.796 361.832 312.399 361.302 310.002C358.944 311.833 356.44 313.547 354.283 315.545C352.602 317.109 351.487 320.355 349.824 320.538C345.163 321.054 340.319 320.504 335.604 319.988C334.873 319.905 333.648 317.625 333.941 316.676C335.366 312 336.938 307.323 338.985 302.846C341.453 297.403 347.027 297.153 352.529 296.371C355.16 296.005 357.427 293.625 360.059 292.061L360.004 292.044Z" fill="#004520"/>
<path d="M756.542 505.68C753.965 506.462 751.388 507.245 749.195 507.91C750.858 511.555 752.54 515.184 754.806 520.11C740.075 517.148 742.341 531.877 735.341 534.041C731.905 532.493 729.894 531.594 727.317 530.429C727.774 522.573 740.897 515.6 731.795 504.615C740.623 504.116 735.432 517.131 744.407 514.634C742.67 508.326 740.97 502.202 739.325 496.044C739.124 495.261 738.887 493.946 739.307 493.68C743.328 491.017 747.148 487.489 751.699 486.29C756.451 485.042 762.684 481.947 767.509 488.737C763.177 490.085 758.681 490.485 755.848 492.648C752.832 494.962 751.37 498.973 749.159 502.351C752.046 503.733 754.239 504.781 756.433 505.83L756.597 505.647L756.542 505.68Z" fill="#004520"/>
<path d="M158.133 186.424C155.373 175.805 151.462 171.462 141.281 166.668L167.363 166.668C167.034 172.044 167.198 178.602 166.065 184.959C165.023 190.851 167.034 195.095 171.402 199.106C174.783 202.219 177.945 205.597 180.705 209.176C181.546 210.258 180.687 212.421 180.595 214.086C179.078 213.536 177.305 213.287 176.117 212.388C172.846 209.908 169.812 207.162 165.444 203.467C164.183 195.112 149.415 186.174 134.281 186.607C136.694 181.231 140.057 179.234 146.107 182.08C149.433 183.645 153.088 184.627 158.133 186.424Z" fill="#004520"/>
<path d="M323.449 169.564C326.282 164.904 329.554 164.088 335.421 166.269C340.74 168.233 347.155 167.767 352.163 168.266C353.862 173.276 356.074 177.303 356.385 181.464C356.641 184.826 355.818 190.102 353.387 191.467C345.583 195.828 336.518 197.542 327.342 195.079C325.369 194.546 323.998 192.149 322.371 190.602C324.491 189.486 326.666 187.339 328.713 187.439C333.867 187.706 338.985 188.971 345.236 190.036C348.306 186.74 345.912 182.613 341.617 181.098C335.823 179.051 331.802 176.271 328.933 171.345C328.22 170.13 325.222 170.03 323.267 169.414L323.431 169.564L323.449 169.564Z" fill="#004520"/>
<path d="M570.958 404.338C565.822 395.8 574.211 389.825 577.483 383.034C579.347 379.173 583.368 376.011 586.95 373.098C588.687 371.7 591.684 371.617 594.115 370.934C594.718 373.464 596.071 376.077 595.705 378.49C595.193 381.919 591.556 387.511 592.47 388.11C596.235 390.574 595.138 393.054 594.462 395.9C592.854 402.624 592.945 401.958 584.995 401.059C580.919 400.593 576.459 402.956 570.94 404.338L570.958 404.338Z" fill="#004520"/>
<path d="M784.415 55.2232C779.7 52.1441 774.82 49.3813 770.525 46.0193C766.997 43.2399 767.308 39.8279 772.023 38.4299C777.762 36.7322 783.903 35.2509 788.802 41.1927C787.979 42.6074 787.102 44.0887 786.042 45.8862C790.702 45.1372 794.705 44.4881 801.12 43.4562C798.726 54.0415 796.697 62.9791 794.669 71.9832C782.478 68.7377 780.01 64.3605 784.415 55.2398V55.2232Z" fill="#004520"/>
<path d="M285.36 321.386C289.71 306.69 295.687 301.864 310.418 301.115C317.911 300.732 321.75 304.743 318.478 310.884C316.413 314.762 312.41 318.923 308.188 320.454C301.023 323.051 293.036 324.499 285.269 321.237L285.378 321.403L285.36 321.386Z" fill="#004520"/>
<path d="M888.211 234.507C888.595 239.966 887.315 245.775 889.673 249.769C892.835 255.095 891.976 258.657 889.088 263.317C885.469 269.159 882.728 270.008 877.902 265.181C871.688 258.956 868.654 251.45 870.336 243.095C870.811 240.748 874.046 238.868 876.002 236.771C881.174 240.965 884.135 234.657 888.211 234.507Z" fill="#004520"/>
<path d="M285.269 321.22C283.661 322.352 282.052 323.483 279.841 325.048C286.95 330.324 288.614 336.848 286.786 344.288L286.951 344.138C279.713 345.752 272.475 347.35 263.867 349.281C263.611 345.686 263.446 343.106 263.263 340.526L263.117 340.726C270.081 339.395 268.363 334.402 268.399 330.207C268.436 327.228 267.284 323.9 268.399 321.353C271.945 313.298 277.52 313.447 285.36 321.386L285.251 321.22L285.269 321.22Z" fill="#004520"/>
<path d="M750.402 89.1593C743.95 91.7724 738.668 93.9194 731.997 96.6156C738.449 97.997 743.749 99.1288 750.11 100.494C747.387 103.889 745.212 107.684 741.977 110.413C736.475 115.073 729.237 113.242 727.519 106.169C726.13 100.427 726.222 93.9027 727.757 88.1773C729.42 81.936 733.971 80.9208 740.496 83.8001C743.841 85.2814 746.948 87.2453 750.402 89.1427V89.1593Z" fill="#004520"/>
<path d="M469.903 259.24C471.621 255.412 472.17 250.585 475.039 248.738C478.347 246.59 484.342 245.525 488.034 246.79C493.17 248.538 497.593 252.532 501.651 256.21C505.306 259.523 504.52 263.267 499.128 264.099C494.468 264.832 489.405 264.715 484.744 263.916C479.883 263.084 475.277 261.004 469.922 259.256L469.903 259.24Z" fill="#004520"/>
<path d="M609.12 317.225C612.136 324.432 614.621 330.34 617.217 336.548C605.337 335.55 593.621 343.039 581.083 336.465C587.443 326.729 599.506 324.682 609.12 317.242V317.225Z" fill="#004520"/>
<path d="M610.509 24.0498C626.081 29.3092 627.342 32.1053 620.47 43.0734C617.966 47.0678 615.608 51.1288 612.574 56.1718C599.927 45.4034 611.514 34.968 610.509 24.0498Z" fill="#004520"/>
<path d="M661.959 144.116C677.001 142.452 685.262 147.512 690.398 158.213C692.189 161.941 697.508 164.272 701.675 167.6C696.558 170.962 693.213 168.865 689.886 166.269C683.142 161.009 677.824 154.219 668.045 152.421C665.505 151.955 663.969 147.012 661.959 144.116Z" fill="#004520"/>
<path d="M331.583 242.33C325.807 241.83 318.167 243.711 313.232 237.037C323.376 224.238 329.828 224.688 350.609 240.199C347.209 241.464 344.523 242.463 342.348 243.262C340.52 240.166 339.131 237.836 337.742 235.506C335.896 237.553 334.05 239.584 331.583 242.33Z" fill="#004520"/>
<path d="M941.818 255.994C938.857 258.907 936.152 262.102 932.844 264.649C929.883 266.929 929.828 274.069 922.17 269.692C924.29 264.765 926.502 259.622 929.316 253.131C934.525 253.448 942.951 258.058 948.306 249.653C952.272 256.344 951.011 263.833 944.998 267.528C943.518 268.443 941.233 268.277 939.332 268.61C939.369 266.679 938.875 264.565 939.588 262.868C940.374 260.987 942.293 259.506 943.7 257.841C943.079 257.226 942.457 256.626 941.836 256.011L941.818 255.994Z" fill="#004520"/>
<path d="M678.902 367.972C685.062 377.375 689.905 386.479 688.205 397.88C678.646 396.915 676.344 390.241 672.578 384.865C667.223 377.209 674.735 373.531 678.884 367.972L678.902 367.972Z" fill="#004520"/>
<path d="M505.087 70.9513C507.262 66.108 508.925 62.4132 510.625 58.6018C517.935 60.0664 519.909 64.194 520.604 69.0373C520.988 71.7502 520.531 74.5463 520.768 77.2925C521.17 81.9859 519.928 85.581 514.189 86.4797C507.572 87.495 507.152 82.9013 505.964 79.323C508.76 76.194 511.246 73.3813 513.75 70.5685C513.348 70.1025 512.964 69.6531 512.562 69.1871C510.789 69.6032 508.998 70.0359 505.068 70.9679L505.087 70.9513Z" fill="#004520"/>
<path d="M639.259 544.093C639.716 541.996 640.173 539.916 640.392 538.901C643.59 539.6 646.643 541.164 648.635 540.415C650.188 539.833 651.175 536.371 651.157 534.191C651.084 524.438 655.105 519.195 667.205 516.016C664.902 519.994 662.069 522.84 661.904 525.786C661.776 528.082 664.956 530.529 666.272 532.343C662.325 535.322 657.353 538.435 653.277 542.313C649.293 546.091 645.4 547.089 639.259 544.077V544.093Z" fill="#004520"/>
<path d="M556.245 81.653C555.331 71.0178 569.112 73.4644 574.193 65.2092C576.733 73.3479 578.817 80.0053 580.882 86.6627L578.506 88.6932C571.159 86.3798 563.829 84.0497 556.226 81.653L556.245 81.653Z" fill="#004520"/>
<path d="M293.292 428.937C299.177 426.407 302.065 423.578 295.833 418.734C292.653 419.666 289.052 420.732 285.451 421.797C284.958 421.331 284.483 420.865 283.989 420.382C287.48 416.221 290.935 412.044 294.444 407.899C296.271 405.752 298.081 403.555 300.128 401.591C301.389 400.376 303.07 399.528 304.569 398.512C305.684 399.977 307.969 401.658 307.695 402.873C307.018 405.886 305.812 409.214 303.637 411.428C300.932 414.174 299.708 416.021 301.225 419.999C303.728 426.64 301.151 429.32 293.292 428.937Z" fill="#004520"/>
<path d="M580.681 358.784C577.19 370.551 564.908 373.847 552.077 366.44C559.607 357.503 572.072 354.157 580.681 358.784Z" fill="#004520"/>
<path d="M465.664 291.595C465.061 285.303 464.22 279.894 464.128 274.452C464.074 271.323 464.128 266.812 469.666 267.927C474.199 268.843 479.646 270.025 479.975 275.733C480.322 281.692 474.51 288.449 465.664 291.595Z" fill="#004520"/>
<path d="M384.714 252.982C394.437 243.944 407.981 241.514 416.827 248.221C411.143 256.294 399.646 258.124 384.714 252.982Z" fill="#004520"/>
<path d="M539.923 62.197C544.749 66.6907 548.952 66.2247 553.467 63.0957C558.676 59.4841 563.958 59.4508 569.148 64.4771C563.482 68.172 557.835 71.8668 553.467 74.7295C550.487 74.2968 548.386 73.6643 546.302 73.7642C540.325 74.0305 537.913 70.5354 539.923 62.197Z" fill="#004520"/>
<path d="M741.172 58.6351C743.128 60.2163 745.083 61.7974 748.19 64.3106C743.713 65.9916 740.386 67.9222 736.84 68.305C734.83 68.5214 730.516 66.0249 730.626 65.0928C731.284 59.4507 732.637 53.7919 734.574 48.3994C734.885 47.5339 739.381 47.9334 741.94 47.7336L742.762 57.7031C742.232 58.0193 741.684 58.3356 741.154 58.6518L741.172 58.6351Z" fill="#004520"/>
<path d="M909.65 275.767C908.352 274.069 907.256 272.621 905.885 270.824C902.723 272.771 899.945 274.502 896.71 276.499C896.874 264.133 905.483 257.725 922.499 257.242C918.222 263.401 914.256 269.126 909.65 275.783V275.767Z" fill="#004520"/>
<path d="M564.213 410.829C552.662 409.414 541.111 408.016 528.28 406.452C533.124 399.028 537.638 399.511 542.829 403.772C546.064 397.93 548.824 395.916 553.576 402.457C555.604 405.237 561.161 405.902 565.109 407.517C564.798 408.615 564.487 409.73 564.195 410.829L564.213 410.829Z" fill="#004520"/>
<path d="M768.258 85.4978C766.412 83.4174 764.566 81.3536 761.971 78.4077C764.749 78.5741 766.485 78.674 768.222 78.7738C768.679 78.2912 769.136 77.7918 769.593 77.3092C764.786 74.7294 759.979 72.1663 755.172 69.5866C756.214 68.4382 757.255 67.2898 758.279 66.158C762.19 67.3397 766.083 68.5381 769.995 69.7197L771.42 68.1552C770.433 66.2246 769.446 64.3106 768.496 62.4465C782.606 68.7045 782.697 74.6129 768.24 85.4812L768.258 85.4978Z" fill="#004520"/>
<path d="M527.385 314.746C530.273 307.839 542.847 302.563 548.915 305.525C550.396 306.257 552.223 308.754 551.858 309.836C550.615 313.414 548.44 316.71 546.612 320.122C544.638 319.223 541.586 318.773 540.855 317.342C537.675 311.167 532.283 314.23 527.385 314.746Z" fill="#004520"/>
<path d="M109.626 233.442C110.814 229.581 111.911 225.986 113.355 221.276C116.882 225.253 124.028 220.443 125.893 227.367C125.966 227.633 130.882 226.568 133.532 226.618C135.525 226.651 137.499 227.5 139.472 227.983C137.919 229.281 136.493 231.528 134.794 231.711C126.806 232.577 118.746 232.893 109.626 233.459L109.626 233.442Z" fill="#004520"/>
<path d="M124.668 256.71C130.48 262.552 135.981 263.6 142.451 257.975C144.48 256.21 147.021 256.111 145.357 252.715C145.065 252.116 148.519 250.002 150.237 248.588C150.676 249.004 151.115 249.403 151.553 249.819C150.548 253.198 149.342 256.527 148.611 259.939C146.801 268.277 139.929 271.14 132.289 266.313C128.999 264.233 126.276 261.387 123.297 258.89L124.668 256.693L124.668 256.71Z" fill="#004520"/>
<path d="M249.573 358.568C245.936 370.418 236.304 373.897 226.234 377.275C224.936 369.054 235.518 360.232 249.573 358.568Z" fill="#004520"/>
<path d="M356.531 206.313C355.179 208.61 353.826 210.873 352.273 213.47C350.061 207.345 354.283 201.453 360.68 201.037C366.309 200.671 371.957 200.405 377.532 200.105C376.27 209.325 367.351 212.305 356.531 206.313Z" fill="#004520"/>
<path d="M558.876 331.789C558.328 341.142 551.035 345.087 545.132 349.73C544.309 350.379 541.056 349.314 539.704 348.249C538.826 347.55 538.625 344.92 539.375 343.972C542.555 339.994 545.077 335.117 552.132 335.533C553.887 335.633 555.787 333.569 558.858 331.789L558.876 331.789Z" fill="#004520"/>
<path d="M674.844 355.106C666.674 364.144 660.661 364.343 652.181 355.872C657.773 348.898 666.748 348.598 674.844 355.106Z" fill="#004520"/>
<path d="M622.334 434.346C618.679 433.63 615.864 433.064 613.196 432.549C612.446 422.912 615.7 419.234 628.877 416.188C626.556 422.612 624.582 428.121 622.334 434.346Z" fill="#004520"/>
<path d="M365.304 51.4784C353.022 44.0887 357.006 57.5699 351.011 60.2995C349.366 55.1233 347.74 49.9639 346.04 44.6046C359.565 40.527 362.581 41.5089 365.14 51.6448L365.322 51.4784L365.304 51.4784Z" fill="#004520"/>
<path d="M461.442 31.2897C452.468 25.3313 445.705 20.8709 438.979 16.3605C437.755 15.5283 436.676 14.513 435.543 13.581C436.731 12.7155 437.773 11.5838 439.125 11.0512C441.227 10.219 443.548 9.78628 446.655 8.9541C451.334 16.011 456.013 23.0844 461.442 31.2897Z" fill="#004520"/>
<path d="M869.459 464.105C849.628 458.446 847.051 458.845 848.239 446.063C852.461 446.529 856.646 446.995 861.965 447.594C859.735 451.106 858.291 453.386 856.409 456.349C860.357 458.695 864.25 461.009 869.459 464.105Z" fill="#004520"/>
<path d="M582.144 435.944C583.405 430.402 584.739 424.493 586.128 418.402C588.705 420.133 592.708 422.812 596.656 425.458C599.105 423.228 600.932 421.531 602.778 419.85C603.327 420.349 603.857 420.848 604.405 421.347C602.961 425.675 599.763 428.055 594.7 429.553C590.588 430.768 586.987 433.414 582.144 435.961L582.144 435.944Z" fill="#004520"/>
<path d="M843.925 103.772C843.414 99.3118 843.121 96.7487 842.792 93.8694C851.053 96.8819 858.583 99.6447 866.698 102.607C864.944 109.747 856.5 102.69 852.717 107.833C851.145 103.639 850.103 99.5282 843.925 103.772Z" fill="#004520"/>
<path d="M291.684 240.249C292.342 244.227 292.689 246.274 293 248.172C296.235 247.939 298.976 247.739 301.699 247.556L301.919 249.137C297.679 250.851 293.566 252.915 289.18 254.13C287.06 254.713 284.391 253.714 281.979 253.431C282.308 251.217 281.869 248.538 283.13 246.923C284.903 244.627 287.9 243.095 291.702 240.266L291.684 240.249Z" fill="#004520"/>
<path d="M452.961 311.151C455.282 310.751 457.603 310.335 458.938 310.119C460.911 306.008 462.611 302.446 464.329 298.868C465.353 299.067 466.376 299.267 467.418 299.467C463.58 304.51 478.969 306.49 468.844 312.366C461.789 316.46 456.397 315.761 453.144 310.951L452.961 311.134L452.961 311.151Z" fill="#004520"/>
<path d="M778.256 488.537C770.397 481.247 768.661 468.066 776.465 463.439C777.927 472.093 779.28 480.132 780.632 488.171C779.828 488.288 779.042 488.421 778.238 488.537L778.256 488.537Z" fill="#004520"/>
<path d="M414.671 343.622C417.028 347.983 420.172 352.177 421.415 356.787C422.018 359.001 419.039 362.013 417.668 364.676C416.041 362.746 413.428 360.981 412.989 358.851C411.984 354.008 412.057 348.965 411.691 344.005C412.678 343.872 413.684 343.755 414.671 343.622Z" fill="#004520"/>
<path d="M394.73 214.568C398.879 210.923 400.415 203.916 408.146 208.377C411.125 210.108 413.885 212.721 410.741 216.499C407.287 220.643 401.237 220.177 394.73 214.568Z" fill="#004520"/>
<path d="M686.176 403.272C692.628 416.271 678.481 419.184 674.077 426.756C673.565 418.551 677.184 411.378 686.176 403.272Z" fill="#004520"/>
<path d="M555.569 101.259C552.791 101.093 549.537 99.9943 547.289 100.91C536.798 105.17 532.814 103.323 530.968 93.7529C535.263 94.0858 539.814 94.3354 544.347 94.7848C549.208 95.2841 555.349 94.1524 555.423 101.392L555.569 101.259Z" fill="#004520"/>
<path d="M263.263 340.527C262.002 343.273 260.741 346.002 259.388 348.932C255.934 349.098 252.662 349.264 247.91 349.497C251.127 343.656 254.051 338.38 256.957 333.104C257.981 333.17 258.986 333.237 260.01 333.287C261.051 335.767 262.093 338.246 263.117 340.726L263.263 340.527Z" fill="#004520"/>
<path d="M797.922 99.1288C800.408 98.6517 803.338 100.826 806.714 105.653C804.557 109.548 802.583 113.109 800.335 117.137C793.901 116.388 794.523 112.81 796.113 108.399C797.045 105.82 797.191 103.007 797.904 99.1288L797.922 99.1288Z" fill="#004520"/>
<path d="M709.461 421.996C707.944 428.97 706.427 435.927 704.691 443.982C697.672 436.543 699.39 426.956 707.195 421.381C707.944 421.58 708.712 421.797 709.461 421.996Z" fill="#004520"/>
<path d="M429.238 62.6462C432.729 62.4631 436.219 62.0803 439.692 62.1468C443.22 62.2134 446.747 62.6961 451.645 63.1122C449.16 66.9235 446.912 70.3854 444.353 74.3133C438.595 69.8528 433.862 66.1746 429.128 62.4964L429.238 62.6462Z" fill="#004520"/>
<path d="M275.527 274.186C283.679 276.898 290.387 279.112 297.387 281.442C290.862 290.579 284.154 288.333 275.527 274.186Z" fill="#004520"/>
<path d="M815.286 56.7544C817.954 55.7225 820.641 54.6906 823.328 53.6587C831.296 59.9832 835.5 67.4229 834.33 77.1427C833.672 66.0581 826.197 60.7655 814.683 58.8182C814.884 58.1358 815.085 57.4534 815.286 56.7544Z" fill="#004520"/>
<path d="M503.644 347.017C508.121 337.797 517.041 340.044 524.918 338.795C520.495 347.633 517.973 348.598 503.644 347.017Z" fill="#004520"/>
<path d="M640.849 23.8669C638.473 18.3912 635.603 11.8004 633.154 6.1582C648.617 8.23864 649.805 10.9349 640.849 23.8669Z" fill="#004520"/>
<path d="M911.185 244.394C904.922 240.466 903.521 235.717 906.981 230.147C911.203 232.81 915.498 235.489 919.592 238.069C917.509 239.634 914.383 241.98 911.185 244.394Z" fill="#004520"/>
<path d="M811.557 101.392L825.849 101.392C825.557 106.635 825.283 111.445 825.009 116.238C823.912 116.372 822.797 116.521 821.7 116.654C820.494 113.276 819.306 109.897 817.844 105.753C816.364 105.17 813.585 104.089 810.789 102.99C811.045 102.458 811.319 101.925 811.575 101.392L811.557 101.392Z" fill="#004520"/>
<path d="M577.83 8.32178C574.832 13.1817 572.255 17.3426 569.276 22.1525C571.524 22.6851 573.114 23.0679 576.897 23.9833C572.566 24.2496 570.373 24.3828 567.54 24.5492C567.795 21.2371 567.997 18.5908 568.198 15.9279C565.748 14.663 563.318 13.4147 560.887 12.1664C560.96 11.6005 561.015 11.0347 561.088 10.4688C566.352 9.78642 571.615 9.12067 577.848 8.32178L577.83 8.32178Z" fill="#004520"/>
<path d="M522.998 28.1442C525.594 36.0166 522.066 45.0707 513.312 48.649C516.126 40.8432 518.466 34.3023 520.823 27.7781C521.554 27.8946 522.267 28.0277 522.998 28.1442Z" fill="#004520"/>
<path d="M909.833 368.87C917.308 361.996 924.327 365.675 932.643 367.056C929.846 370.818 927.58 373.88 924.381 378.191C923.65 374.413 923.157 371.899 922.572 368.887L909.833 368.887L909.833 368.87Z" fill="#004520"/>
<path d="M709.607 342.64C717.923 339.944 722.95 344.221 728.177 348.981C719.55 353.009 713.574 350.962 709.607 342.64Z" fill="#004520"/>
<path d="M899.762 163.689C906.415 162.857 913.068 162.008 919.776 161.159C920.324 167.167 919.812 168.399 912.447 168.682C908.225 168.848 903.893 166.502 899.616 165.287C899.671 164.754 899.708 164.222 899.762 163.689Z" fill="#004520"/>
<path d="M926.703 451.971C918.496 459.894 911.588 448.826 903.783 450.673C903.82 449.791 903.856 448.892 903.911 448.01C911.459 448.443 919.008 448.876 926.556 449.308C926.611 450.191 926.648 451.089 926.703 451.971Z" fill="#004520"/>
<path d="M468.313 414.024C473.76 408.515 478 404.205 482.241 399.894C482.953 400.194 483.666 400.493 484.397 400.776C482.57 405.187 481.491 410.113 478.53 413.775C477.324 415.273 472.042 414.024 468.313 414.024Z" fill="#004520"/>
<path d="M691.494 74.7461C695.04 77.8751 703.704 73.6143 703.009 81.1206C702.845 82.9514 697.891 86.1802 695.808 85.7974C689.575 84.6323 690.782 79.5394 691.494 74.7627V74.7461Z" fill="#004520"/>
<path d="M73.7299 421.647C67.3451 421.614 63.5618 419.062 62.3799 413.991C72.4506 410.779 75.3018 412.693 73.7299 421.647Z" fill="#004520"/>
<path d="M794.157 217.331C787.358 216 780.668 215.55 774.144 210.84C788.272 207.828 792.695 209.309 794.157 217.331Z" fill="#004520"/>
<path d="M662.928 106.935C661.594 102.774 660.241 98.6128 658.907 94.452C659.437 94.0192 659.967 93.6031 660.497 93.1704C664.043 94.635 667.607 96.1163 672.231 98.0303C669.545 101.709 667.662 104.305 665.779 106.885C664.829 106.885 663.879 106.918 662.946 106.918L662.928 106.935Z" fill="#004520"/>
<path d="M323.267 169.414C324.93 173.991 322.865 177.42 319.21 182.13C316.45 178.369 314.549 175.789 312.557 173.059C315.554 169.231 318.679 167.301 323.432 169.564L323.267 169.414Z" fill="#004520"/>
<path d="M917.93 211.123C920.836 215.151 923.047 218.18 925.259 221.226C924.729 221.808 924.199 222.407 923.669 222.99C919.501 222.524 915.334 222.058 909.632 221.409C912.611 217.731 914.494 215.4 917.948 211.123L917.93 211.123Z" fill="#004520"/>
<path d="M514.737 144.482C518.027 147.711 521.335 150.94 524.625 154.169C524.369 154.868 524.113 155.567 523.857 156.266C520.878 156.516 516.108 157.897 515.267 156.799C512.983 153.786 512.343 149.725 511.063 146.08C512.288 145.548 513.513 145.015 514.755 144.482L514.737 144.482Z" fill="#004520"/>
<path d="M821.299 124.56C818.265 125.309 813.001 127.24 812.581 126.591C810.589 123.478 809.803 119.684 808.871 116.055C808.761 115.656 810.68 114.241 811.393 114.374C812.563 114.607 813.678 115.606 814.518 116.505C816.328 118.469 817.936 120.599 819.636 122.663C820.184 123.295 820.751 123.928 821.299 124.543V124.56Z" fill="#004520"/>
<path d="M852.022 357.603C844.675 360.981 842.664 360.366 837.272 353.142C845.552 350.13 845.607 350.13 852.022 357.603Z" fill="#004520"/>
<path d="M566.078 37.7144C571.086 41.559 575.308 44.7879 579.585 48.05C570.775 52.86 567.431 50.4633 566.078 37.7144Z" fill="#004520"/>
<path d="M756.397 505.863C761.094 504.332 765.773 502.817 770.507 501.27C771.92 503.999 768.807 507.744 761.167 512.504C759.614 510.224 758.079 507.96 756.543 505.68L756.379 505.863L756.397 505.863Z" fill="#004520"/>
<path d="M943.17 178.785C950.28 178.785 955.617 168.865 965.578 177.087C957.335 178.452 950.426 179.6 943.517 180.749C943.408 180.083 943.28 179.434 943.17 178.768V178.785Z" fill="#004520"/>
<path d="M796.497 84.7988C792.366 87.8113 788.236 90.8404 782.826 94.7849C781.82 94.269 779.134 92.8709 774.619 90.5408C783.027 87.7281 789.551 85.5478 796.076 83.3508L796.497 84.7988Z" fill="#004520"/>
<path d="M396.484 119.484C398.513 123.162 400.542 126.84 402.571 130.518C401.748 131.284 400.926 132.066 400.103 132.832C395.954 130.885 391.824 128.954 386.779 126.591C390.453 123.195 398.221 126.141 396.667 119.334L396.484 119.484Z" fill="#004520"/>
<path d="M762.154 198.474C750.858 199.656 750.548 199.423 751.498 191.417C757.822 191.506 761.374 193.858 762.154 198.474Z" fill="#004520"/>
<path d="M495.126 62.5796C496.625 56.2883 500.938 54.3577 507.737 55.3896C507.81 64.2938 499.476 60.7155 495.126 62.5796Z" fill="#004520"/>
<path d="M516.528 0C522.907 0.965324 526.91 1.56449 532.557 2.41331C528.226 5.2427 525.265 7.17336 521.244 9.80303C519.654 6.47433 518.539 4.17754 516.547 0.0166598L516.528 0Z" fill="#004520"/>
<path d="M43.7184 285.287C38.2535 290.796 32.9714 288.549 28.2925 288.682C27.7076 288.682 26.3369 286.435 26.611 285.603C26.9217 284.704 28.786 283.606 29.9192 283.672C33.9584 283.889 37.9794 284.571 43.7184 285.287Z" fill="#004520"/>
<path d="M315.956 432.515C322.974 429.636 323.943 434.413 325.99 437.874C323.102 439.522 320.361 441.087 317.82 442.551C317.327 439.922 316.705 436.543 315.956 432.532L315.956 432.515Z" fill="#004520"/>
<path d="M672.451 509.308C668.466 509.042 664.463 508.776 660.479 508.509C660.187 507.81 659.913 507.128 659.62 506.429C662.453 505.048 665.213 502.851 668.174 502.584C669.947 502.418 672.049 505.281 673.986 506.778C673.474 507.611 672.962 508.46 672.451 509.292V509.308Z" fill="#004520"/>
<path d="M283.295 183.994C272.657 187.023 268.508 182.463 265.146 175.24C271.14 178.135 276.441 180.682 283.295 183.994Z" fill="#004520"/>
<path d="M705.842 536.937L712.275 529.331C714.432 531.128 716.607 532.926 720.08 535.822C714.469 537.17 710.923 538.018 707.395 538.851L705.86 536.92L705.842 536.937Z" fill="#004520"/>
<path d="M861.087 278.613C855.696 275.467 853.868 270.923 854.837 265.281L857.359 264.282C859.516 268.693 861.672 273.12 863.829 277.531C862.915 277.897 862.001 278.263 861.069 278.629L861.087 278.613Z" fill="#004520"/>
<path d="M673.584 82.6018C677.623 83.6171 681.644 84.6323 685.683 85.6476C685.774 86.4465 685.884 87.262 685.975 88.0609C683.307 88.8764 680.273 90.7904 678.062 90.1912C675.667 89.5255 674.041 86.5297 672.085 84.5325C672.578 83.8834 673.072 83.2509 673.565 82.6018L673.584 82.6018Z" fill="#004520"/>
<path d="M366.711 248.538C361.575 247.406 357.664 246.541 352.583 245.425C360.332 238.252 362.654 238.801 366.711 248.538Z" fill="#004520"/>
<path d="M551.182 377.442C551.876 381.287 552.589 385.148 553.284 388.993C543.798 386.796 545.443 382.385 548.66 377.642C549.5 377.575 550.341 377.508 551.182 377.459V377.442Z" fill="#004520"/>
<path d="M729.822 189.586C737.901 185.808 741.41 188.388 743.018 196.593C737.59 193.714 733.697 191.65 729.822 189.586Z" fill="#004520"/>
<path d="M891.044 155.983C895.412 155.234 899.762 154.502 904.861 153.636C899.927 161.076 897.624 161.742 891.19 158.23C891.135 157.481 891.099 156.732 891.044 155.983Z" fill="#004520"/>
<path d="M622.134 127.756C623.852 130.668 625.57 133.581 627.288 136.477C625.734 136.926 623.084 138.075 622.828 137.725C620.964 135.195 619.575 132.383 618.021 129.653C619.392 129.021 620.763 128.388 622.134 127.739V127.756Z" fill="#004520"/>
<path d="M931.948 242.23C937.706 235.755 942.695 236.038 948.982 242.929C943.664 242.712 938.071 242.479 931.948 242.23Z" fill="#004520"/>
<path d="M179.919 468.465C177.141 467.55 174.363 466.651 170.305 465.32C168.13 469.331 165.828 473.592 163.525 477.869L162.446 477.686C164.438 468.366 166.412 459.062 168.405 449.741C169.008 449.791 169.593 449.841 170.196 449.891C173.961 455.6 177.726 461.292 181.491 467.001C180.961 467.483 180.449 467.983 179.919 468.465Z" fill="#004520"/>
</svg>
