<svg width="247" height="182" viewBox="0 0 247 182" fill="none" xmlns="http://www.w3.org/2000/svg">
<path d="M127.907 35.2745C127.424 34.6065 126.602 33.9556 126.54 33.263C126.472 32.527 126.929 31.6299 127.52 31.0258C128.478 30.0442 129.729 29.2449 130.727 28.477C132.851 27.8452 134.931 27.268 136.966 26.6003C138.143 26.216 139.189 25.659 140.46 26.4649C142.582 27.8049 144.94 27.2401 147.379 27.0257C148.352 25.1031 144.696 22.9545 147.975 21.2312C150.726 21.8847 149.889 24.1991 151.216 25.6543C152.709 25.5578 154.198 25.455 155.663 25.361C155.904 27.0328 154.782 28.3533 152.295 29.3227C151.88 31.1712 153.131 32.1063 155.195 32.7446C157.27 33.3862 158.723 32.8629 159.917 31.544C160.793 30.5697 161.649 29.595 162.496 28.6387C165.684 29.2618 166.57 29.8739 165.653 31.449C164.644 33.1949 164.796 34.5623 166.098 36.0724C166.433 36.4594 166.289 37.0981 166.423 37.962C171.49 35.3804 175.682 31.4061 182.849 32.8427C183.053 34.8377 183.968 36.9379 186.516 38.1146C186.963 39.6552 184.385 41.2212 187.026 42.4247C186.832 42.6703 186.474 42.9154 186.477 43.1655C186.473 43.7147 186.646 44.2678 186.744 44.8254C187.504 44.6695 188.411 44.6649 188.993 44.323C190.089 43.6869 190.893 42.7234 192.023 42.1282C193.424 41.3878 194.811 41.3908 196.1 42.5859C197.04 43.4522 198.797 43.8831 199.423 44.8259C200.37 46.2603 200.647 47.9699 201.297 49.8019C202.998 49.4693 204.489 46.9997 207.222 48.6866C209.224 50.8388 207.608 52.852 206.125 54.8928C212.321 55.0025 212.607 56.1383 214.305 51.6983C216.216 51.969 217.539 52.845 218.274 54.3261C219.112 53.5485 219.86 52.8491 220.933 51.8484C222.212 52.9785 223.455 53.8485 224.34 54.9019C225.264 56.0025 225.401 57.5424 223.813 58.1305C220.268 59.4559 219.476 62.2713 217.501 64.4463C216.978 65.0179 216.307 65.5369 215.596 65.9717C211.081 68.7322 205.527 69.7724 200.437 71.5789C199.693 71.8432 198.956 72.1201 197.961 72.4837C198.437 73.1238 198.811 73.6721 199.24 74.1847C201.351 76.7003 200.766 77.5606 196.787 77.7439C194.969 77.8301 193.144 77.8729 191.313 77.9712C190.648 78.0089 189.979 78.1545 188.794 78.3288C189.551 79.0338 190.006 79.4913 190.498 79.9127C192.721 81.8012 192.278 83.1955 189.098 84.0075C187.238 84.4816 185.299 84.7719 183.439 85.246C182.714 85.4274 182.104 85.886 181.088 86.3943C184.854 88.2059 188.253 89.8398 191.827 91.5546C191.056 93.3428 189.415 93.615 187.275 93.5983C184.772 93.5768 182.254 93.8048 179.766 94.0366C178.153 94.1922 176.713 94.8021 176.354 96.1581C175.522 99.3459 172.45 99.8672 169.085 100.123C168.53 100.166 167.946 100.227 167.407 100.15C159.489 99.0643 153.777 102.551 147.961 105.863C143.377 108.474 144.42 113.814 149.07 115.417C150.592 115.942 152.006 116.726 153.353 117.512C158.257 120.376 157.814 124.631 152.293 126.512C150.301 127.186 147.999 127.487 145.816 127.562C142.881 127.661 139.906 127.135 136.992 127.317C133.396 127.543 129.635 127.799 126.318 128.805C120.249 130.643 114.256 130.877 108.188 129.366C105.485 128.695 103.335 129.07 100.997 130.061C95.1997 132.522 89.4319 135.048 83.4565 137.223C76.9795 139.582 70.3347 141.691 63.6438 143.656C61.3684 144.328 58.6692 144.104 57.2595 146.172C57.1851 146.275 55.2589 145.967 54.999 145.544C54.5833 144.859 54.8291 143.917 54.789 142.951C49.1071 142.516 45.4482 139.676 42.5071 135.988C41.7321 135.023 40.6473 134.043 39.3974 133.503C36.4443 132.246 35.2189 130.358 35.1791 127.839C35.1243 124.199 35.0695 120.56 34.9871 116.923C34.9712 116.046 34.9957 115.139 34.7549 114.291C33.8791 111.195 32.5547 108.339 28.1503 107.232C26.8301 106.901 25.6259 106.291 24.3452 105.846C19.6331 104.22 18.427 100.909 21.351 97.5891C22.8249 95.9245 24.8195 95.7434 26.89 97.2922C28.7918 98.72 30.9132 99.0633 33.448 98.8295C36.6254 98.5358 39.8333 98.4897 43.0239 98.2674C48.2982 97.8999 53.6353 97.867 58.2191 95.1574C60.3222 93.9173 63.0569 93.3669 65.2709 92.2156C68.4097 90.5818 71.3413 88.6965 74.3403 86.9084C77.9052 84.7841 81.5274 82.7074 85.0054 80.4855C89.6654 77.5122 95.3622 76.2067 100.676 74.3033C106.96 72.0603 111.629 68.9391 114.149 63.6285C115.376 61.042 116.973 58.6858 116.753 55.8294C116.62 54.1663 115.662 52.9261 114.245 51.7775C112.993 50.7591 111.363 50.5101 110.019 51.0697C108.978 51.5033 108.294 52.6207 107.746 53.5435C107.42 54.0887 107.809 54.8596 107.618 55.4849C107.445 56.0427 106.916 56.5401 106.548 57.0627C105.775 56.7061 104.635 56.4988 104.292 55.9696C103.507 54.7425 103.112 53.3574 102.291 51.3827C101.417 52.9804 100.912 53.9104 100.239 55.1453C98.9551 53.6972 97.9124 52.5261 96.5942 51.0372C98.5473 50.1486 100.424 49.2953 103.112 48.0774C101.296 47.676 100.458 47.4877 99.5335 47.2851C99.5207 46.9855 99.399 46.6495 99.4997 46.3617C99.948 45.1403 101.24 44.0673 100.286 42.605C100.051 42.2418 100.291 41.3553 100.692 41.1327C103.598 39.5154 102.933 37.3466 102.486 35.1364C102.352 34.4854 102.679 33.7798 102.894 32.507C104.667 33.7992 105.862 34.6713 107.056 35.5433C109.944 37.6534 112.826 39.3621 117.059 37.336C118.982 36.4127 120.704 37.1607 120.964 39.0057C121.212 40.764 122.13 41.8892 124.073 42.6019C125.373 43.0782 125.633 43.8277 125.841 44.9463C126.715 49.7243 127.882 54.4716 128.958 59.2294C129.029 59.5457 129.205 59.8922 129.464 60.1324C132.787 63.2242 133.365 66.863 132.665 70.9457C137.014 72.6129 141.328 72.8475 145.755 71.7853C147.629 71.3363 149.366 70.557 151.242 70.0925C152.542 69.7696 154.072 69.3931 155.305 69.6426C158.754 70.3302 161.22 69.0486 163.811 67.6681C165.149 66.951 166.685 66.1919 168.219 66.0501C170.588 65.8311 171.572 64.9086 172.286 63.2704C173.207 61.1461 174.474 59.1158 176.007 57.2088C175.865 55.6935 175.857 54.1596 175.533 52.665C175.368 51.896 174.849 50.7921 174.126 50.5693C172.7 50.1241 171.422 50.8272 170.757 51.9449C170.347 52.6425 170.143 53.4095 169.775 54.1296C169.303 55.048 168.994 56.112 168.184 56.7883C167.438 57.4106 166.099 57.9456 165.055 57.9163C163.528 57.8732 163.234 56.7403 163.34 55.6594C163.52 53.7903 163.658 51.914 163.913 50.0557C164.14 48.4283 163.374 47.4454 161.234 47.3979C157.826 47.3192 156.382 45.6177 155.378 43.3674C154.807 42.0771 153.938 40.8728 153.167 39.572C151.953 42.5415 150.898 45.2399 149.73 47.9111C149.521 48.391 148.99 48.8513 148.455 49.1759C144.835 51.4347 137.387 51.2571 133.874 48.8585C131.975 47.5666 131.799 46.9764 132.501 43.943C132.17 43.7444 131.767 43.4731 131.336 43.2352C130.927 43.0039 130.483 42.7935 130.105 42.5969C131.998 38.9583 132.663 36.7142 132.102 35.8644C130.71 35.6576 129.311 35.4538 127.923 35.2533L127.945 35.2908L127.907 35.2745ZM197.467 48.6523C197.158 48.4078 196.845 48.1571 196.527 47.9155C195.044 48.6171 193.282 49.1088 192.132 50.0615C188.561 53.025 188.155 53.0592 185.249 49.594C185.129 49.4556 184.759 49.4536 184.249 49.3281C182.031 51.0286 181.589 53.3888 181.6 55.614C181.618 59.191 179.884 61.97 176.768 64.4098C175.87 65.1181 174.599 65.8491 175.268 67.3544C177.702 66.9671 179.979 66.3634 182.288 66.3036C184.628 66.2475 186.984 66.7256 189.337 66.9691C189.47 66.9813 189.619 66.9723 189.757 66.9599C194.412 66.5602 198.613 65.2308 202.413 63.1117C202.87 62.8534 203.047 62.3018 203.621 61.5369C200.97 61.3793 198.833 61.2548 196.399 61.102L197.166 62.3966C195.147 62.9289 193.259 63.4055 191.394 63.935C190.608 64.1613 189.86 64.7465 189.126 64.7179C188.334 64.6879 186.901 64.1007 186.915 63.7986C187.072 61.1852 185.309 58.3903 187.979 55.7864C188.615 55.927 189.271 56.0218 189.881 56.2174C191.812 56.828 193.315 56.2257 194.123 54.9413C195.406 52.9053 196.367 50.751 197.472 48.6431L197.467 48.6523ZM199.637 57.6744C203.533 58.0385 204.284 56.935 203.371 52.3383C202.038 54.2405 200.87 55.915 199.637 57.6744Z" fill="white"/>
<path d="M140.105 138.271C141.834 139.161 143.711 139.859 145.158 140.928C147.682 142.782 149.607 143.349 152.54 142.185C154.907 141.243 156.935 140.677 159.615 141.797C162.437 142.979 163.384 140.769 164.569 139.27C167.622 139.714 166.245 142.097 167.572 143.224C168.968 144.418 170.202 145.732 171.802 147.27C173.631 147.217 175.86 147.186 178.083 147.08C181.783 146.899 184.944 149.844 183.918 152.624C183.574 153.564 182.977 154.452 182.421 155.507C182.796 155.895 183.217 156.311 183.599 156.743C184.619 157.891 184.21 158.901 182.827 159.559C181.652 160.125 180.322 160.611 178.978 160.844C172.027 162.047 166.999 165.445 162.501 169.509C161.535 170.38 160.407 171.142 159.26 172.034C158.379 171.496 157.853 171.164 157.31 170.852C154.787 169.408 154.081 169.59 152.751 171.873C152.111 172.966 151.415 174.081 150.463 175.007C149.95 175.499 148.814 175.838 148.002 175.793C147.524 175.77 147.021 174.888 146.71 174.332C146.433 173.848 146.55 173.212 146.236 172.748C145.027 170.954 141.949 171.09 140.527 172.956C139.478 174.334 137.999 174.695 136.092 174.038C136.427 173.018 136.9 171.985 137.087 170.928C137.445 168.917 136.424 167.685 133.856 167.521C129.089 167.21 126.387 165.055 124.413 161.889C123.525 160.472 122.078 159.274 120.882 157.976C121.423 157.68 121.648 157.453 121.864 157.458C123.398 157.498 124.949 157.76 125.746 156.228C126.429 154.913 125.385 154.215 124.509 153.341C122.919 151.738 121.158 149.666 123.241 147.984C125.79 145.926 127.505 143.556 129.569 141.302C130.325 140.47 132.823 140.615 135.145 140.199C135.048 139.497 135.316 138.151 134.721 137.851C133.517 137.242 131.827 136.924 130.366 136.994C128.981 137.059 127.647 137.767 126.106 138.255C125.13 136.169 126.942 135.499 128.466 135.619C131.142 135.835 132.132 134.857 133.166 133.185C134.809 130.515 137.809 129.121 141.586 129.086C142.801 129.076 144.023 129.634 145.967 130.102C143.229 132.184 139.026 132.48 139.737 135.918C140.602 136.571 140.722 137.351 140.098 138.259L140.105 138.271ZM128.879 151.005C131.014 150.505 131.829 150.017 131.253 148.98C131.116 148.749 129.942 148.599 129.909 148.657C129.55 149.245 129.339 149.885 128.879 151.005ZM132.257 145.379C131.746 145.383 131.192 145.282 131.089 145.403C130.897 145.633 130.834 146.067 130.991 146.283C131.104 146.44 131.832 146.524 132.017 146.395C132.235 146.24 132.17 145.837 132.262 145.37L132.257 145.379Z" fill="white"/>
<path d="M203.245 90.8672C203.711 92.6672 204.186 94.4644 204.701 96.4444C207.767 97.4157 209.087 96.8491 209.904 94.0928C211.467 94.343 213.001 94.7408 214.555 94.8118C217.312 94.9371 217.864 95.3287 217.392 97.3427C217.314 97.668 217.071 97.9775 217.056 98.295C217.022 99.1213 216.643 100.279 217.182 100.714C218.385 101.697 219.756 100.922 220.93 100.272C221.391 100.019 221.773 99.5679 222.271 99.4924C223.164 99.3484 224.437 99.1109 224.952 99.4555C225.67 99.931 226.45 101.198 226.128 101.635C223.927 104.623 225.433 106.492 228.625 108.216C230.186 109.053 230.99 110.425 230.274 112.011C229.613 113.462 227.953 113.864 226.274 114.105C224.284 114.392 223.119 113.539 222.362 112.18C222.155 111.815 221.729 111.522 221.286 111.067C220.19 111.932 219.24 112.683 217.931 113.709C220.018 115.008 221.99 116.357 224.121 117.533C225.628 118.359 226.663 119.304 226.446 120.784C226.229 122.248 225.097 123.133 223.241 123.5C220.617 124.026 218.67 126.313 215.336 125.021C214.28 129.661 209.562 128.631 205.957 128.991C202.806 129.314 202.771 129.091 200.449 131.203C198.173 127.462 193.779 127.03 189.323 126.704C189.049 126.682 188.777 126.599 188.508 126.538C181.088 124.823 178.561 121.052 181.612 115.478C182.217 114.374 184.623 113.776 186.342 113.193C187.117 112.933 188.236 113.3 189.438 113.4C190.409 111.181 189.836 109.055 189.357 106.94C189.184 106.189 188.71 105.472 188.615 104.723C188.421 103.204 189.13 102.062 191.312 102.017C193.444 101.968 194.899 101.139 196.423 100.049C197.806 99.0645 199.7 98.5166 201.576 97.6782C200.653 96.2508 198.072 95.0032 199.49 93.1457C200.26 92.1411 202.047 91.6248 203.374 90.8886L203.237 90.8547L203.245 90.8672ZM209.095 101.716C209.064 103.705 210.677 104.089 212.32 104.508C213.609 104.836 215.006 105.542 214.057 106.62C212.124 108.818 214.982 109.667 215.255 111.059C216.508 109.938 217.58 108.984 218.7 107.98C216.882 102.642 215.838 101.928 209.095 101.716ZM211.377 115.794C210.352 117.006 209.876 117.887 211.631 118.935C212.583 117.795 212.704 116.922 211.377 115.794Z" fill="white"/>
<path d="M203.381 90.902C201.203 90.3668 199.086 89.9007 197.069 91.3686C196.65 91.6742 195.574 91.4284 194.499 90.8402C195.538 90.3384 196.586 89.8336 197.889 89.2049L195.887 85.8283C198.474 85.0117 200.734 84.2157 203.078 83.5943C204.705 83.1671 205.657 82.5831 205.913 81.1198C206.262 79.1587 208.251 77.3662 206.625 75.3433C209.23 73.4778 211.108 71.254 214.672 70.6964C217.209 70.3014 219.634 69.9472 222.015 71.0547C222.495 71.2751 222.985 71.5141 223.516 71.6245C228.413 72.6946 228.712 73.0036 228.625 77.0071C228.617 77.3371 228.486 77.7045 228.618 77.9913C231.063 83.2754 225.266 85.2807 221.985 88.2762C221.725 88.5081 221.274 88.7111 220.88 88.7334C214.934 89.1123 209.372 91.4807 203.241 90.862L203.377 90.8958L203.381 90.902Z" fill="white"/>
<path d="M162.134 113.303C166.146 112.095 169.563 113.577 172.971 114.21C174.965 114.584 175.573 117.717 174.414 119.488C172.739 122.055 168.42 122.745 165.993 120.596C163.807 118.657 161.567 116.562 162.131 113.297L162.134 113.303Z" fill="white"/>
<path d="M126.765 30.1942C123.924 30.5331 121.884 29.9854 120.979 28.3764C119.929 26.508 120.308 24.4673 121.769 22.7157C122.052 22.3763 123.144 22.0762 123.523 22.2419C124.161 22.5182 125.063 23.3372 124.915 23.6579C123.836 26.0382 125.909 27.8518 126.765 30.1942Z" fill="white"/>
<path d="M113.444 21.3696C112.977 19.6992 117.455 18.6401 113.795 16.8133C114.87 16.2073 115.372 15.7802 115.983 15.6022C117.528 15.1516 118.967 15.7818 118.314 16.9031C117.335 18.585 119.304 19.2576 119.537 20.4199C117.089 22.7455 116.575 22.8268 113.448 21.3759L113.444 21.3696Z" fill="white"/>
<path d="M174.389 129.296C178.462 129.336 180.508 130.254 181.05 132.148C181.235 132.788 180.618 133.805 179.945 134.272C179.55 134.538 177.902 134.273 177.531 133.861C176.393 132.595 175.608 131.14 174.385 129.305L174.389 129.296Z" fill="white"/>
<path d="M114.616 25.6511C115.928 26.6395 117.248 27.5417 118.386 28.5634C118.737 28.8766 118.824 29.6438 118.571 30.0024C118.31 30.3793 117.288 30.829 116.947 30.6951C115.653 30.1946 114.187 29.6502 113.357 28.7896C112.333 27.7334 112.842 26.5658 114.616 25.6511Z" fill="white"/>
<path d="M95.3205 39.8738C94.9754 38.6381 94.5274 37.8661 94.6009 37.124C94.7286 35.8524 94.8908 34.492 95.5749 33.3744C96.175 32.4094 97.7738 32.3117 98.7715 33.0958C99.2343 33.4515 99.3539 34.7317 98.9551 35.0068C97.5692 35.9701 97.169 37.0599 97.1675 38.43C97.1671 38.7725 96.33 39.1091 95.3125 39.8768L95.3205 39.8738Z" fill="white"/>
<path d="M137.081 20.9442C137.827 22.6115 136.871 24.3155 135.31 24.4449C134.554 24.5085 133.397 24.1098 132.966 23.6282C132.109 22.6559 133.265 20.9624 134.982 20.639C135.706 20.5036 136.577 20.8622 137.081 20.9442Z" fill="white"/>
<path d="M112.121 22.1491C112.261 23.4143 112.633 24.2217 112.344 24.8448C112.008 25.5688 111.172 26.2016 110.38 26.712C110.199 26.8314 108.9 26.3247 108.852 26.0305C108.695 25.1445 108.617 24.1152 109.073 23.3475C109.366 22.8448 110.644 22.6969 112.125 22.1554L112.121 22.1491Z" fill="white"/>
<path d="M185.427 101.392C184.672 102.505 184.428 103.401 183.722 103.796C182.612 104.407 181.015 104.23 180.704 103.15C180.522 102.516 181.529 101.486 182.334 100.948C182.732 100.688 183.903 101.143 185.427 101.392Z" fill="white"/>
<path d="M93.1625 39.9934C92.4224 40.9184 92.0898 41.7628 91.6483 41.8025C90.7457 41.8815 89.7762 41.5208 88.8314 41.3489C89.1324 40.729 89.2795 39.6861 89.7667 39.5765C90.6026 39.3849 91.6654 39.7724 93.1662 39.9996L93.1625 39.9934Z" fill="white"/>
<path d="M141.894 21.8542C144.095 22.0536 145.331 22.5528 145.009 24.101C144.934 24.4481 143.995 25.0046 143.604 24.9343C141.691 24.5993 141.509 23.5091 141.898 21.8605L141.894 21.8542Z" fill="white"/>
<path d="M150.602 49.0271C151.075 48.3216 151.556 47.6131 152.394 46.3632C153.552 47.5982 154.162 48.2503 155.07 49.2268C153.661 49.3996 152.686 49.5202 151.72 49.6379C151.346 49.4322 150.972 49.2265 150.598 49.0209L150.602 49.0271Z" fill="white"/>
<path d="M110.412 32.4463C109.093 31.8558 108.918 31.1361 109.833 30.3754C110.04 30.2009 110.997 30.2466 111.182 30.445C112.007 31.3302 111.459 31.957 110.415 32.4526L110.412 32.4463Z" fill="white"/>
<path d="M169.667 32.0136C170.512 32.2142 171.4 32.2244 171.613 32.5345C171.837 32.8634 171.527 33.8441 171.286 33.879C170.595 33.9872 169.821 33.7605 169.078 33.667C169.252 33.1925 169.422 32.7118 169.671 32.0198L169.667 32.0136Z" fill="white"/>
<path d="M191.304 86.2555C189.683 87.8679 188.549 87.5067 187.298 86.1153C188.779 84.79 189.895 85.3329 191.304 86.2555Z" fill="white"/>
<path d="M129.186 38.675C129.658 38.9816 130.45 39.255 130.509 39.5988C130.573 39.986 129.96 40.4385 129.647 40.8575C129.141 40.6088 128.424 40.445 128.193 40.0881C127.906 39.6529 128.029 39.06 127.977 38.5312C128.384 38.5803 128.791 38.6293 129.194 38.672L129.186 38.675Z" fill="white"/>
<path d="M138.46 17.6777C138.76 18.1842 139.064 18.6969 139.332 19.2151C139.344 19.2338 138.745 19.4984 138.718 19.4701C138.282 19.0285 137.898 18.5603 137.506 18.095C137.821 17.9569 138.136 17.8187 138.448 17.6744L138.46 17.6777Z" fill="white"/>
<path d="M219.42 96.6322C220.289 96.9382 220.84 97.1323 221.383 97.3294C221.062 97.7513 220.854 98.2837 220.385 98.5542C220.124 98.7028 219.065 98.4512 219.042 98.3149C218.979 97.8661 219.216 97.3837 219.416 96.6413L219.42 96.6322Z" fill="white"/>
<path d="M119.985 32.0262C119.604 32.5764 119.447 33.113 119.114 33.189C118.726 33.2854 118.179 32.9679 117.712 32.8343C117.887 32.4585 117.937 31.9227 118.281 31.7513C118.573 31.6065 119.2 31.8794 119.993 32.0233L119.985 32.0262Z" fill="white"/>
<path d="M211.164 47.6693C210.961 48.1771 210.877 48.6721 210.747 48.6816C210.141 48.7053 209.527 48.6024 208.913 48.5458C208.982 48.2541 208.993 47.7328 209.127 47.7142C209.712 47.622 210.335 47.6758 211.156 47.6722L211.164 47.6693Z" fill="white"/>
<path d="M207.299 43.4068C206.886 44.0828 206.747 44.6661 206.451 44.7213C205.925 44.8147 205.304 44.5851 204.718 44.4952C204.845 44.1215 204.847 43.5197 205.134 43.4149C205.611 43.2402 206.278 43.3845 207.291 43.4097L207.299 43.4068Z" fill="white"/>
<path d="M132.729 19.4534C132.435 19.7741 132.209 20.161 131.831 20.4058C131.569 20.5698 131.103 20.5349 129.626 20.7402C130.887 19.7618 131.461 19.3084 132.039 18.8613C132.272 19.0577 132.504 19.2541 132.729 19.4534Z" fill="white"/>
<path d="M158.18 30.2873C158.019 30.8482 157.997 31.335 157.851 31.3657C157.396 31.4483 156.893 31.351 156.403 31.3249C156.464 31.0518 156.412 30.622 156.608 30.5276C156.972 30.3566 157.486 30.374 158.18 30.2873Z" fill="white"/>
<path d="M96.2821 29.9734C95.8781 30.6156 95.7412 31.1526 95.4684 31.1991C95.0853 31.2555 94.556 31.0002 94.2145 30.7674C94.0995 30.6878 94.3013 30.0966 94.5162 30.018C94.8904 29.8812 95.3939 29.9786 96.2821 29.9734Z" fill="white"/>
<path d="M127.883 35.2019C127.065 35.4709 126.249 35.7461 125.439 36.0122L125.233 35.175C126.124 35.1913 127.003 35.2043 127.906 35.224C127.91 35.2302 127.888 35.1927 127.888 35.1927L127.883 35.2019Z" fill="white"/>
</svg>
