<svg width="238" height="349" viewBox="0 0 238 349" fill="none" xmlns="http://www.w3.org/2000/svg">
<path d="M193.132 196.668C194.376 196.71 195.674 197.012 196.853 196.737C201.322 195.694 204.648 197.281 207.834 198.785C209.348 199.505 210.025 201.211 211.261 202.691C208.701 203.698 206.321 204.314 206.501 206.642C205.121 206.992 203.928 207.288 202.754 207.587C202.77 208.261 202.782 208.842 202.802 209.588C199.154 208.981 199.296 205.092 194.706 205.064C196.618 207.487 200.099 208.675 199.403 212.051C198.008 212.079 196.576 212.111 194.964 212.142C194.085 213.88 193.11 215.528 192.431 217.22C191.071 220.624 187.451 222.635 184.037 224.024C180.755 225.358 179.514 227.745 176.264 229.433C180.888 229.156 180.906 229.169 179.71 232.721C179.204 232.654 178.524 232.582 177.865 232.473C171.66 231.411 166.292 233.244 161.472 236.96C159.707 238.324 158.502 238.019 157.368 236.472C158.26 235.878 159.058 235.344 159.868 234.81C159.155 233.459 157.975 233.353 156.984 234.499C155.3 236.443 153.422 237.444 150.527 237.294C149.686 237.254 148.574 238.121 147.665 238.663C145.189 240.162 142.652 241.025 139.775 240.317C137.31 239.718 134.786 239.216 132.034 240.023C131.002 240.326 129.911 240.736 129.057 241.298C124.692 244.151 122.41 244.007 119.686 240.622C119.478 240.369 119.124 240.202 118.815 239.978C114.89 240.854 110.996 242.315 106.929 241.644C105.462 241.4 104.674 241.038 105.687 239.397C106.855 239.665 107.993 239.931 109.143 240.195C110.056 238.944 109.056 238.457 108.15 238.089C106.144 237.272 104.16 236.351 101.969 235.891C99.1935 235.307 97.362 233.864 95.5315 232.393C93.737 230.957 94.5097 229.253 97.2277 228.722C100.999 227.984 104.661 227.207 108.025 225.251C108.953 224.712 110.756 224.89 111.994 225.109C115.666 225.753 118.494 223.908 121.47 222.462C121.779 222.315 122.078 221.861 122.081 221.582C122.071 219.158 122.08 216.727 121.858 214.329C121.82 213.961 120.612 213.784 119.7 213.412C120.614 212.742 121.451 212.137 122.453 211.402C122.409 208.682 120.784 206.779 118.256 205.05C114.569 202.529 110.45 201.71 105.344 202.921C103.19 203.431 101.725 202.757 101.172 201.241C100.277 198.795 98.4534 196.907 96.2312 195.281C94.578 194.079 94.7309 192.385 94.5586 190.785C94.3279 188.682 93.9761 186.882 91.4762 185.615C88.8602 184.294 87.1049 182.015 84.5214 180.648C81.9622 179.298 79.1113 178.157 75.2801 179.604C73.1106 180.423 71.7868 178.989 70.7939 177.675C66.8632 172.49 63.0143 167.264 58.9257 162.174C57.7454 160.714 56.0971 159.355 54.2231 158.473C46.6292 154.907 38.8615 151.544 31.1645 148.103C30.6024 147.855 30.0786 147.574 29.2064 147.14C30.2683 146.669 30.9657 146.364 32.0089 145.899C30.3943 145.236 28.9569 144.652 27.5195 144.068C27.5879 143.867 27.6438 143.667 27.7121 143.466C29.2787 143.492 30.8501 143.562 32.4246 143.533C35.6727 143.478 36.1168 143.149 37.4425 140.613C38.0494 139.45 38.8534 138.32 39.675 137.222C40.0244 136.754 40.7721 136.034 41.1614 136.067C44.2087 136.287 44.5678 134.341 45.4891 132.835C48.2215 128.333 50.9415 123.832 53.6863 119.329C54.6992 117.669 55.9205 116.862 58.4229 117.268C59.97 117.52 61.9957 116.938 63.6855 116.401C67.1774 115.3 70.6128 114.027 74.0364 112.736C76.3878 111.848 78.7883 110.976 80.9499 109.82C84.4667 107.935 87.9975 106.782 91.6662 108.116C93.1975 108.668 95.5733 107.206 96.4268 109.01C97.0426 110.301 97.3883 111.705 98.1238 112.932C100.808 117.391 103.623 121.786 106.326 126.239C106.938 127.255 107.298 128.39 107.749 129.42C109.112 130.191 110.798 130.755 111.782 131.771C116.077 136.209 121.59 139.575 127.095 142.967C130.316 144.949 133.253 147.065 135.353 149.996C136.647 151.809 139.261 152.988 141.431 154.296C143.523 155.546 145.965 156.47 147.999 157.769C150.38 159.289 150.108 160.626 147.442 162.267C143.082 164.954 141.005 170.474 142.806 174.031C143.541 175.478 144.735 176.106 146.623 176.375C149.472 176.772 152.269 176.309 154.887 175.204C158.837 173.533 162.94 172.495 167.135 171.885C170.509 171.39 171.656 169.005 173.592 167.354C174.362 166.701 174.188 165.37 174.407 164.507C173.691 164.227 173.425 164.013 173.226 164.059C169.76 164.908 167.807 163.989 166.666 161.485C166.104 160.244 164.621 159.336 163.508 158.306C162.473 157.352 161.947 156.358 163.412 154.876C169.501 156.094 174.395 154.147 177.743 149.371C179.487 149.667 180.87 150.03 182.322 150.124C184.449 150.257 185.891 150.904 186.521 152.535C186.881 153.479 187.552 154.398 189.131 154.042C192.226 153.344 194.334 154.055 195.321 156.147C198.618 155.723 200.615 156.59 201.31 158.747C201.706 159.948 202.158 161.129 202.749 162.793C199.412 162.341 196.105 163.276 194.549 160.58C193.862 159.388 192.214 159.574 190.877 160.136C188.786 161.012 187.048 161.294 185.963 158.98C184.276 160.411 182.891 161.299 181.989 162.408C179.855 165.019 180.035 165.009 182.133 167.237C183.182 168.35 183.858 169.695 184.823 171.099L188.127 168.296C186.556 167.635 185.121 167.183 183.941 166.476C183.187 166.028 182.303 165.194 182.417 164.535C182.532 163.836 183.702 162.701 184.512 162.558C185.521 162.379 186.635 163.009 187.684 163.33C187.899 163.396 187.971 163.669 188.114 163.843C189.939 166.073 192.539 166.45 195.915 164.973C196.483 165.828 197.056 166.696 197.594 167.508C197.966 167.488 198.318 167.553 198.482 167.442C203.335 164.242 204.389 164.426 205.312 168.909C205.565 170.126 205.212 171.484 205.085 172.775C205.04 173.204 204.565 173.731 204.703 174.072C206.253 177.937 203.461 181.393 201.338 184.834C200.188 186.706 201.205 187.847 202.083 189.077C203.798 191.467 203.867 191.437 201.46 194.671C200.36 193.591 199.356 192.62 198.347 191.625C194.926 192.437 195.233 195.278 193.168 196.695C190.417 195.145 189.786 195.108 185.889 196.496C188.657 196.543 190.892 196.584 193.14 196.624L193.132 196.668ZM182.999 181.356C179.938 176.282 171.931 175.383 166.253 179.187C164.481 180.376 162.914 181.332 160.557 181.213C159.685 181.171 158.296 181.805 157.681 182.441C154.971 185.264 156.943 190.279 160.905 190.974C161.287 191.041 161.774 191.104 162.119 190.974C163.926 190.262 166.4 189.805 167.347 188.658C169.435 186.124 172.107 185.842 175.201 185.784C175.649 184.727 176.039 183.786 176.44 182.835C178.531 182.359 180.578 181.902 183.005 181.35L182.999 181.356ZM180.034 207.834C178.897 206.957 178.134 205.81 176.953 205.563C172.817 204.682 168.599 203.88 164.28 203.498C160.401 203.154 158.128 205.673 159.318 208.565C160.342 211.055 164.521 212.729 167.921 211.762C171.785 210.661 175.57 209.301 180.034 207.844L180.034 207.834ZM183.056 196.141C182.786 194.329 182.578 193.065 182.414 191.792C182.233 190.447 181.626 189.675 179.57 189.854C176.525 190.118 173.483 190.122 170.437 190.254C170.04 190.276 169.633 190.431 169.083 190.553C168.661 191.369 168.225 192.215 167.808 193.056C167.762 193.142 167.852 193.257 167.928 193.594C172.026 196.243 177.507 195.896 183.062 196.145L183.056 196.141ZM195.399 172.842C195.229 174.494 195.096 175.761 194.969 177.033C194.871 177.974 194.985 179.051 196.424 178.803C197.178 178.67 198.386 177.522 198.405 176.914C198.447 175.18 197.867 173.554 195.405 172.837L195.399 172.842ZM56.1145 154.704C56.7588 156.657 57.6498 157.475 59.5271 157.667C60.9383 154.972 58.4999 155.285 56.1145 154.704ZM197.373 200.866C194.871 199.668 194.135 200.597 193.917 202.785C195.355 201.986 196.364 201.426 197.373 200.866ZM139.872 218.704C138.802 218.829 137.721 218.744 137.489 219.037C137.134 219.481 137.113 220.328 137.447 220.722C137.668 220.983 139.026 220.967 139.357 220.686C139.777 220.33 139.676 219.595 139.866 218.709L139.872 218.704Z" fill="white"/>
<path d="M77.4384 219.805C77.6601 221.411 77.7917 222.339 77.9734 223.645C81.9094 221.432 84.5474 222.057 85.9889 225.051C91 223.129 88.3425 220.384 89.3176 217.573C86.9052 217.844 85.1247 218.114 83.3614 218.236C81.8341 218.338 80.2768 218.41 78.82 218.243C77.1657 218.053 75.9644 217.249 76.874 215.724C77.5675 214.564 75.5143 213.081 78.4508 212.107C78.9294 212.836 79.4199 213.584 80.0935 214.615C82.8322 213.237 85.5566 211.919 88.2032 210.514C89.6777 209.731 91.1114 208.868 92.424 207.917C94.4344 206.45 96.6309 205.37 98.9414 206.358C101.093 207.281 100.763 209.297 100.396 211.077C100.198 212.046 99.5792 213.01 99.0537 213.952C98.4757 214.986 97.7872 215.989 97.2779 216.812C98.1609 218.467 101.368 218.543 100.017 221.101C94.6134 221.905 94.4008 225.682 93.09 228.921C91.6089 228.737 90.2093 228.722 88.9998 228.374C86.8877 227.771 84.9103 227.807 82.5696 228.552C78.6268 229.806 76.8884 227.188 74.6788 225.752C73.0219 224.667 74.5854 222.836 75.0165 221.354C75.1417 220.923 76.1875 220.571 77.4196 219.812L77.4384 219.805Z" fill="white"/>
<path d="M85.2318 240.127C84.6549 240.931 84.2466 241.888 83.4402 242.505C82.5259 243.204 81.2447 243.947 80.1325 244.051C76.7954 244.372 74.761 242.491 75.2168 239.644C74.4365 239.437 73.5948 239.216 72.5198 238.926C72.5166 237.66 72.2364 236.533 71.0524 235.382C69.9705 234.334 70.1267 232.141 70.5013 230.488C70.8184 229.083 72.8557 228.92 74.4245 228.878C75.7948 228.841 77.903 228.589 77.7932 229.903C77.5863 232.521 80.0711 233.285 81.6996 234.68C82.0433 234.98 82.279 235.362 82.7566 235.93C82.115 236.627 81.3373 237.315 80.8231 238.094C80.4522 238.657 80.4307 239.333 80.2436 239.96C81.1103 239.978 81.9689 240.061 82.8382 240.001C83.3411 239.966 83.8633 239.713 84.376 239.565C84.6613 239.752 84.9401 239.945 85.2254 240.132L85.2318 240.127ZM75.4271 237.309C75.7403 237.397 76.0411 237.485 76.3543 237.572C76.6534 237.128 76.9524 236.684 77.2515 236.239C76.9259 236.153 76.3499 235.954 76.311 236.006C75.9575 236.411 75.7138 236.866 75.4335 237.304L75.4271 237.309Z" fill="white"/>
<path d="M70.7425 225.447C68.8896 225.463 67.0366 225.48 64.7438 225.497C66.2529 222.844 61.4663 221.399 64.5801 218.548C68.9844 217.589 69.992 218.051 69.0437 221.383C68.5139 223.244 69.7781 224.013 70.7425 225.447Z" fill="white"/>
<path d="M158.391 165.526C162.454 164.188 164.755 165.49 167.049 167.008C164.063 169.731 161.392 169.373 158.391 165.526Z" fill="white"/>
<path d="M95.4216 240.195C94.0047 238.964 93.7007 238.001 94.9603 236.961C96.2773 235.873 97.5409 236.271 98.585 236.95C99.617 237.62 99.5172 239.202 98.2598 239.782C97.3418 240.208 96.1057 240.111 95.4216 240.195Z" fill="white"/>
<path d="M208.439 213.516C206.782 214.778 205.862 214.471 205.033 213.838C204.222 213.228 203.577 212.498 204.659 211.58C205.709 210.689 206.877 210.986 207.574 211.654C208.115 212.178 208.219 213.006 208.439 213.516Z" fill="white"/>
<path d="M100.471 244.63C98.8499 244.384 97.6771 244.443 97.046 244.025C96.6397 243.749 97.024 242.765 97.0576 242.097C98.0804 242.079 99.2591 241.833 100.067 242.13C100.508 242.29 100.301 243.363 100.471 244.63Z" fill="white"/>
<path d="M100.991 227.267C99.9002 227.286 98.8903 227.484 98.7544 227.275C98.4189 226.72 98.4543 225.994 98.3452 225.332C99.0806 225.195 100.326 224.797 100.457 224.973C100.849 225.508 100.806 226.27 100.991 227.267Z" fill="white"/>
<path d="M22.5198 145.408C22.6477 144.889 22.6827 144.373 22.7948 144.354C23.3929 144.248 24.0182 144.261 24.6263 144.232C24.5718 144.583 24.5892 145.208 24.4579 145.243C23.8895 145.391 23.2833 145.361 22.5198 145.408Z" fill="white"/>
<path d="M83.0101 232.383C83.8023 232.799 84.6009 233.209 85.9661 233.921C83.4488 234.568 82.6336 234.095 82.2652 233.015C82.5135 232.804 82.7618 232.594 83.0037 232.389L83.0101 232.383Z" fill="white"/>
<path d="M165.016 148.239C164.918 147.817 164.852 147.539 164.793 147.256C165.154 147.197 165.637 147.007 165.837 147.123C166.069 147.251 166.155 147.655 166.072 147.915C166.037 148.04 165.459 148.111 165.016 148.239Z" fill="white"/>
</svg>
