<svg width="174" height="202" viewBox="0 0 174 202" fill="none" xmlns="http://www.w3.org/2000/svg">
<path d="M93.9035 27.1385C97.5366 28.5974 100.824 29.901 104.843 29.9857C107.254 30.0353 109.681 30.4255 112.056 30.7979C113.883 31.088 115.78 33.1719 115.195 34.3844C114.823 35.14 113.649 36.2467 112.854 36.2331C109.453 36.1915 108.457 38.1756 106.268 39.5489C108.399 40.8908 110.13 42.2355 113.193 41.4831C113.403 40.2365 113.071 38.7646 113.94 37.9628C114.981 37.0006 117.04 36.6136 119.002 35.833C120.306 38.3132 122.182 40.0886 126.033 39.2317C126.917 40.5516 127.584 41.8062 128.547 42.9245C129.783 44.3547 131.254 45.5256 134.087 45.3265C135.051 45.2575 136.702 46.0013 137.038 46.6386C137.362 47.2486 136.672 48.4385 135.894 48.968C134.514 49.8994 134.187 50.7635 135.11 52.1131C135.782 51.9458 136.55 51.9047 136.981 51.6046C137.463 51.2765 137.648 50.7128 137.953 50.2512C138.66 49.1737 139.537 48.0531 141.469 48.6919C142.988 49.1953 142.899 50.2636 142.482 51.3935C141.325 54.4981 142.798 56.4587 147.131 57.9552C148.811 58.2057 149.35 55.2733 151.856 57.2951C149.878 58.5963 147.95 59.8759 145.545 61.4578C146.929 63.4104 148.584 65.7398 150.262 68.1039C152.689 67.7374 154.256 65.5377 156.36 67.2491C156.894 67.6825 156.75 68.8633 156.341 69.5112C155.217 71.2879 153.376 69.7375 151.581 69.7961C150.563 71.4781 148.85 71.5377 146.399 70.9691C143.05 70.1885 142.354 70.7188 141.841 73.4906C141.807 73.6962 141.839 73.9863 141.67 74.0753C140.843 74.522 139.953 74.9108 139.085 75.3277C138.881 74.6568 138.669 73.9786 138.32 72.8183C137.606 72.5967 136.377 72.3024 135.642 70.859C134.118 67.85 130.825 65.5021 127.1 63.676C126.305 63.2841 124.65 63.4794 123.593 63.7813C122.594 64.0624 121.833 64.8152 121.029 65.3945C118.575 67.1548 115.912 68.6023 112.63 69.5762C108.243 70.8736 107.162 72.6086 107.51 75.9218C107.679 77.5551 107.58 79.2227 107.331 80.8572C107.056 82.6524 107.348 84.0946 109.8 85.0873C111.014 85.5761 111.951 86.4115 112.868 86.9972C118.555 85.7853 123.997 84.6294 129.432 83.4598C129.968 83.3454 130.7 83.3011 130.982 83.0266C134.501 79.6735 140.207 79.5919 144.62 78.1925C145.057 76.673 145.455 75.2804 145.892 73.761C145.708 73.6724 145.157 73.394 144.505 73.0673C145.297 72.0759 146.19 71.8309 147.288 72.5765C148.403 73.3302 149.415 74.1529 150.645 75.0803C150.381 75.5194 150.052 76.0767 149.721 76.6403C148.485 78.7591 148.635 80.7756 150.148 82.8768C151.316 84.4966 151.99 86.3063 152.869 88.0302C153.011 88.3171 152.994 88.7396 153.27 88.8756C156.309 90.4175 154.201 91.6873 152.967 92.8799C153.474 94.446 154.021 95.8788 154.336 97.3427C154.382 97.5556 153.338 97.8913 152.545 98.2955C152.079 97.3985 151.689 96.7563 151.421 96.0861C150.473 93.7557 150.057 91.3823 147.558 89.3741C146.2 88.2917 146.215 86.3163 145.587 84.6673C141.418 82.84 140.114 86.0618 136.903 87.1008C138.45 88.083 139.562 88.856 140.768 89.5463C144.754 91.8201 144.893 92.7135 141.521 96.0017C140.925 95.8823 140.071 95.8959 139.623 95.5943C137.798 94.378 135.467 93.5268 133.817 92.3461C131.972 91.0302 130.112 90.6132 127.857 90.2842C123.752 89.6892 119.669 89.7683 115.538 90.0321C112.772 90.2047 111.352 91.4783 110.795 93.1174C110.137 95.0343 108.31 96.3035 106.994 97.8736C105.092 100.128 103.855 102.683 102.479 105.148C101.737 106.484 101.263 107.902 100.747 109.297C99.4447 112.832 101.32 115.527 106.018 116.959C109.431 118 110.01 118.548 109.275 121.241C108.781 123.042 108.062 124.895 106.884 126.504C102.977 131.837 100.206 137.477 98.043 143.269C97.1508 145.661 96.7171 148.074 98.9107 150.439C99.8841 151.493 100.068 152.985 100.327 154.3C100.734 156.346 100.902 158.417 101.149 160.285C100.322 160.895 99.0695 161.388 99.0543 161.909C98.9796 163.859 99.1348 165.843 99.5339 167.778C99.972 169.912 100.853 172.001 101.373 174.13C101.545 174.831 101.171 175.599 101.047 176.338C100.733 176.368 100.429 176.399 100.115 176.436C98.5526 174.519 96.9892 172.609 95.3821 170.636C95.1806 170.703 95.843 170.483 96.5054 170.262C96.4843 170.065 96.5712 169.818 96.4422 169.669C93.3912 166.261 93.398 166.274 88.1788 167.829C85.8415 168.523 83.7712 168.009 81.6955 167.096C80.8606 166.727 79.4651 166.456 78.6712 166.704C75.7028 167.647 72.5646 167.662 69.4556 167.934C66.0523 168.231 62.6937 168.748 59.3031 169.131C56.19 169.481 55.223 169.035 55.2729 166.801C55.3106 165.017 54.463 164.131 52.0832 163.732C45.6919 162.669 40.4302 159.848 34.898 157.558C32.4415 156.539 30.6317 154.639 26.7613 154.535C27.7011 152.506 28.2484 150.925 29.1554 149.468C30.1498 147.869 31.4368 146.361 32.6871 144.857C38.0893 138.341 40.4691 131.153 41.7513 123.702C42.3221 120.42 43.2054 117.166 43.8388 113.89C44.1136 112.473 44.1854 111.025 44.2271 109.594C44.2715 108.254 44.0371 106.902 44.1629 105.563C44.256 104.579 44.3965 103.477 46.3724 102.991C48.1102 105.21 44.4442 107.337 46.4194 109.76C47.2117 109.415 48.2601 109.217 48.6391 108.742C49.5588 107.586 50.2337 106.323 50.8708 105.07C52.3491 102.157 53.7315 99.2234 55.1752 96.3014C55.6808 95.2905 56.1896 94.2603 54.5489 93.5631C53.3474 93.056 51.6357 93.7485 50.931 95.0805C50.3202 96.2319 50.012 97.4696 49.4605 98.646C49.0798 99.4529 48.5083 100.21 47.6611 101.581C47.1169 100.508 46.7961 100.152 46.7764 99.785C46.5999 96.6897 46.4602 93.5912 46.3473 90.4951C46.2603 88.106 47.3168 87.3212 50.6425 87.3234C53.6603 87.3238 56.6708 87.4212 59.683 87.4015C63.2036 87.3757 65.26 86.036 65.9912 83.5778C66.3748 82.2687 66.8198 80.9717 67.3203 79.3993C62.02 76.2166 56.7443 73.0492 51.4596 69.881C50.9081 69.5503 50.1418 69.311 49.804 68.8954C46.6197 64.933 41.7477 65.6644 36.871 66.3693C35.9427 66.5002 34.9973 66.5709 33.789 66.6959C33.1398 62.5333 36.4509 59.5006 38.5636 55.8892C35.9596 56.3375 33.8325 56.6987 31.1438 57.1654C31.5127 58.4189 32.0355 59.6734 32.2104 60.9484C32.2972 61.563 31.9888 62.5331 31.3946 62.7792C30.5087 63.1423 29.113 63.2503 28.1582 63.0004C27.5942 62.8513 27.0622 61.7591 27.2199 61.1993C27.521 60.1111 28.3434 59.1029 28.919 58.0526C29.8052 56.45 29.5145 55.8625 27.4515 55.0357C24.2687 53.7547 24.2766 53.762 25.5715 51.4006C25.9372 50.7358 26.208 50.0427 26.5908 49.2229C24.4648 48.5012 21.3192 49.4744 20.2498 47.1069C22.4027 45.0322 24.6181 43.1786 28.5859 42.7042C30.2967 42.5009 31.7336 41.2876 33.4513 40.8826C36.6403 40.1352 39.95 39.6401 43.4196 39.003C43.4383 38.3001 43.0686 37.1053 43.6172 36.2157C44.2123 35.2651 45.6205 34.545 46.8159 33.8512C47.2673 33.5921 48.2649 33.4805 48.722 33.6721C49.111 33.838 49.0955 34.5216 49.2261 34.9836C49.2488 35.0639 49.1469 35.1852 49.0614 35.2622C48.116 36.194 46.9547 37.2236 48.3598 38.2973C49.821 39.4152 51.495 40.5069 53.9638 40.2159C54.2502 40.1832 54.5264 40.1039 54.8074 40.1034C57.5853 40.0753 58.5084 40.8899 57.414 42.7607C56.1658 44.898 57.1192 47.0397 57.3896 49.0932C57.5489 50.3538 58.605 52.1003 61.2764 52.3823C61.9258 52.4544 62.6269 52.8117 63.0916 53.1736C64.2774 54.0969 63.9882 55.1144 62.9744 55.9682C62.0228 56.7755 60.3487 56.545 59.3152 55.5247C58.9812 55.1942 58.863 54.766 58.5901 54.3954C58.3902 54.1293 58.1124 53.8953 57.6875 53.4587C56.2206 54.043 54.7816 54.6233 53.1489 55.2773C50.7321 54.1834 49.7355 51.4376 46.6904 51.761C45.1293 52.9043 43.9305 53.7805 42.4738 54.842C45.1057 55.6814 46.3534 57.1518 46.4885 59.3626C46.592 61.0617 48.3607 62.3446 50.4918 63.1973C56.1566 65.4541 61.8302 67.7117 67.5049 69.9629C68.8214 70.487 70.3843 70.5704 70.5899 69.3495C71.3578 64.6829 72.4656 59.9885 70.9346 55.0347C68.6351 55.5042 68.918 58.0221 66.2399 57.5111C65.4034 54.8908 65.7302 54.4573 69.886 53.0279C68.4472 48.6565 68.0733 44.0428 64.4904 39.9723C63.3427 38.6611 62.9317 37.0123 61.8882 34.9211C64.4468 35.3885 66.0464 35.684 67.8481 36.0174C69.6645 34.2188 71.0165 32.3258 71.0258 29.58C68.5559 30.7386 67.291 32.8679 63.9078 32.2929C68.0191 29.9983 66.8902 26.2619 68.7951 23.2383C71.9124 24.1545 72.1135 27.2651 75.9951 27.1417C77.0665 26.4301 76.8155 24.4762 79.3376 24.5684C82.3191 24.6764 85.3161 24.7466 88.2488 25.0914C88.8793 25.1683 89.675 26.3627 89.6874 27.0423C89.739 29.6957 87.9028 31.1273 83.6545 31.9219C84.3439 34.1244 85.0468 36.3542 85.7564 38.5977C81.9258 39.065 81.3994 38.8541 79.7568 36.9303C79.3024 36.3997 78.3103 35.618 77.8066 35.7027C77.0233 35.8337 76.0644 36.5229 75.8566 37.1107C75.4322 38.2856 75.1132 39.5875 75.3869 40.7606C75.8134 42.5869 76.6924 44.363 77.5189 46.1278C78.713 48.6698 80.0207 51.183 81.2805 53.7114C81.6941 54.5383 82.1365 55.3549 82.7808 56.5877C84.6224 54.9089 85.706 53.3177 87.4715 52.467C89.345 51.5673 90.6063 50.4816 91.8501 49.2311C93.5299 47.5441 94.9237 47.5012 96.5373 49.2201C98.2732 51.0741 100.216 52.2359 103.531 52.2501C106.175 52.2621 107.373 53.6497 106.978 55.7275C106.788 56.7476 106.269 57.7312 106.026 58.7463C105.311 61.8063 105.664 62.5626 109.21 65.5075C110.197 64.6513 111.501 63.9544 111.984 63.0262C114.05 59.0974 115.883 55.1017 117.874 50.9769C115.804 49.223 111.664 48.2987 113.61 44.7634C113.211 44.8185 112.813 44.8672 112.405 44.9214C111.622 45.5875 110.856 46.2615 110.049 46.9123C107.561 48.9304 104.711 48.7953 102.675 46.4638C101.923 45.5996 101.544 44.567 101.036 43.6009C99.4845 40.6546 95.5397 39.5392 91.7363 40.9745C89.4323 41.8481 87.2957 41.4581 86.4072 40.0073C85.5547 38.612 86.6686 36.4103 88.5826 35.808C89.2329 35.6061 89.9833 35.5634 90.6424 35.3624C91.2537 35.1765 91.802 34.8806 92.5453 34.5567C92.2126 34.0568 92.0823 33.647 91.7385 33.3743C89.4137 31.519 89.4662 31.5303 91.7465 29.7217C92.6462 29.0076 93.1531 28.0424 93.9078 27.1128L93.9035 27.1385ZM32.4294 52.1153C32.6791 52.0858 32.8576 52.102 32.9387 52.0507C35.6367 50.3453 35.8069 47.2358 39.6774 46.0479C40.9869 45.6451 40.2585 44.1044 38.7249 43.6323C36.6987 43.0176 35.3099 43.4067 34.0935 44.764C32.0975 46.9834 31.2218 49.3307 32.4216 52.108L32.4294 52.1153ZM94.0158 141.298C94.3726 141.278 94.7383 141.259 95.095 141.24C96.8276 138.97 97.7671 136.459 98.441 133.911C98.6894 132.974 96.8203 132.341 96.1384 133.108C94.6325 134.785 93.2757 136.599 92.4579 138.495C92.1417 139.242 93.45 140.353 94.0158 141.298Z" fill="white"/>
<path d="M163.666 75.8577C164.141 74.4916 164.438 73.6444 164.735 72.7907C166.201 73.2369 167.676 73.6775 169.781 74.3122C168.313 75.8165 167.294 76.8656 166.111 78.076C166.504 78.7576 166.989 79.591 167.558 80.5691C166.67 81.1082 165.832 81.6192 164.843 82.2145C165.392 83.8561 165.708 85.6397 163.261 86.768C162.288 87.2211 160.555 87.7684 159.945 87.465C158.807 86.8986 157.657 85.7633 157.581 84.817C157.435 83.101 157.89 81.3156 158.455 79.6251C158.73 78.8019 159.686 78.021 160.594 77.4185C161.728 76.6603 163.125 76.1087 163.658 75.8505L163.666 75.8577Z" fill="white"/>
<path d="M30.6502 70.0735C32.7738 70.9709 34.4941 71.3033 35.1941 72.0976C36.2049 73.2528 35.1005 74.4834 33.9658 75.4633C32.5347 76.6968 31.4868 76.7844 29.5423 75.7923C27.7644 74.8871 26.2848 73.8785 25.783 72.1759C25.4425 71.0229 24.3297 69.9889 23.304 68.5453C24.7095 67.7335 26.1084 66.7449 27.7497 66.0393C29.1373 65.4412 30.1473 66.0091 30.2874 67.2223C30.4202 68.3173 30.5631 69.4067 30.648 70.0864L30.6502 70.0735Z" fill="white"/>
<path d="M57.1246 28.7742C56.803 29.9846 56.5403 30.9523 56.2744 31.9394C53.0294 31.1359 52.7237 30.6906 52.12 26.3104C53.4624 25.1732 54.5357 24.1811 55.7467 23.2864C56.2744 22.8972 57.061 22.5315 57.7656 22.4911C58.1402 22.473 58.9893 23.1895 58.9487 23.5381C58.7291 25.7036 61.0261 26.4863 62.969 27.3803C61.6455 30.0198 61.5887 30.0342 57.1167 28.767L57.1246 28.7742Z" fill="white"/>
<path d="M13.7239 60.3631C13.1364 58.9006 12.642 57.7466 12.2311 56.5806C11.7399 55.1921 12.8192 53.8418 14.6587 53.9501C17.5559 54.1284 20.4158 54.636 23.9646 55.0887C22.1393 57.102 20.6368 58.7596 19.0355 60.5192C17.1873 60.4623 15.3837 60.4094 13.725 60.3566L13.7239 60.3631Z" fill="white"/>
<path d="M133.072 75.1995C133.416 75.6874 134.284 76.399 134.342 77.1349C134.421 78.2773 133.342 79.0339 131.657 79.031C130.172 79.0266 129.228 78.4972 129.326 77.3188C129.424 76.1468 130.903 75.1134 133.081 75.2003L133.072 75.1995Z" fill="white"/>
<path d="M23.9343 72.1654C21.6517 71.782 20.2324 71.6532 18.9368 71.2745C18.289 71.0852 17.4334 70.4073 17.4972 70.0282C17.5979 69.4306 18.2386 68.6929 18.9497 68.3986C19.3982 68.211 20.6614 68.5672 21.1128 68.9539C22.0852 69.799 22.7753 70.8141 23.9343 72.1654Z" fill="white"/>
<path d="M15.7518 64.4613C16.2003 64.2737 16.91 63.7183 17.6671 63.6892C19.1713 63.6366 21.0217 64.9724 20.6338 65.8766C20.3782 66.4797 19.28 67.189 18.4307 67.2815C17.081 67.4394 15.665 65.9995 15.7518 64.4613Z" fill="white"/>
<path d="M48.1366 74.0245C47.449 74.1252 46.5953 74.4587 46.1093 74.2776C45.2131 73.9483 44.5407 73.3131 43.7742 72.8064C44.2919 72.4228 45.0484 71.6434 45.2807 71.7167C46.1834 72.0074 46.9223 72.5704 47.7243 73.0281C47.8588 73.36 48.0021 73.6926 48.1366 74.0245Z" fill="white"/>
<path d="M157.213 100.996C157.077 99.972 156.989 99.3116 156.876 98.5315C157.651 98.6671 158.043 98.6505 158.159 98.7719C158.86 99.5011 158.991 100.178 157.213 100.996Z" fill="white"/>
<path d="M57.0631 37.5836C55.8598 37.7873 55.2688 38.0139 54.7844 37.9308C54.3703 37.8606 53.7825 37.4226 53.8057 37.177C53.8354 36.8929 54.4053 36.4688 54.8131 36.4146C55.1463 36.3731 55.5924 36.7917 57.0541 37.5828L57.0631 37.5836Z" fill="white"/>
<path d="M157.365 82.11C156.8 82.2934 156.407 82.525 156.202 82.4542C155.909 82.3624 155.6 82.0475 155.592 81.8251C155.582 81.6156 155.962 81.4024 156.17 81.1931C156.516 81.4527 156.851 81.7179 157.365 82.11Z" fill="white"/>
</svg>
