<svg width="221" height="222" viewBox="0 0 221 222" fill="none" xmlns="http://www.w3.org/2000/svg">
<path d="M31.2648 118.717C30.1422 119.14 28.8165 119.354 27.941 120.033C24.6238 122.606 20.7384 122.437 17.0252 122.287C15.2584 122.212 13.6383 120.958 11.6608 120.109C13.315 118.274 15.045 116.85 13.4903 114.864C14.498 114.044 15.3726 113.342 16.2289 112.644C15.8111 112.055 15.4517 111.548 14.9867 110.897C18.5693 110.083 20.776 113.566 24.8419 111.893C21.7021 110.462 17.9188 110.702 16.5083 107.467C17.7216 106.926 18.966 106.368 20.369 105.744C20.1025 103.886 19.975 102.072 19.5595 100.328C18.7173 96.8221 20.7047 93.7092 22.8841 91.2216C24.98 88.831 24.6426 86.266 26.4976 83.5747C22.5847 85.5299 22.5607 85.525 21.4862 81.9484C21.9727 81.8204 22.6154 81.6333 23.2623 81.4851C29.3732 80.1275 33.0089 76.525 35.0328 71.4643C35.7725 69.6082 37.0177 69.4312 38.946 70.3764C38.5153 71.2311 38.1315 71.9965 37.7374 72.7673C39.1764 73.6954 40.2809 73.3524 40.4678 71.9759C40.7884 69.6378 41.8447 68.06 44.4879 67.1212C45.2541 66.8454 45.7152 65.6699 46.1922 64.8553C47.4777 62.6172 49.1976 60.9175 52.1603 60.4782C54.6945 60.0951 57.2221 59.6042 59.1654 57.8744C59.8941 57.2258 60.6107 56.4605 61.027 55.6486C63.1671 51.5172 65.2665 50.8011 69.6993 52.7798C70.0348 52.925 70.4473 52.9416 70.8545 53.0255C73.7909 50.8005 76.3497 48.0716 80.3406 47.1596C81.781 46.8326 82.6931 46.8608 82.784 48.6826C81.5923 48.8783 80.4293 49.0646 79.2559 49.2565C79.2008 50.6982 80.3754 50.7577 81.3944 50.7471C83.6541 50.7259 85.9572 50.805 88.1658 50.4005C90.9647 49.8894 93.4452 50.4843 95.9425 51.1055C98.3863 51.7081 98.7269 53.4978 96.6474 54.9712C93.7624 57.0166 90.9987 59.0565 89.2041 62.0266C88.7087 62.8451 87.011 63.3549 85.7875 63.6201C82.1618 64.4096 80.7735 67.083 79.0152 69.4595C78.8313 69.7031 78.8396 70.2146 79.0045 70.4616C80.467 72.5965 81.9166 74.7441 83.5496 76.7773C83.804 77.0884 84.9764 76.7974 86.0033 76.7884C85.5991 77.717 85.2235 78.5602 84.7804 79.5796C86.45 81.9627 89.0249 83.0412 92.2922 83.6309C97.0561 84.491 101.181 83.6901 104.959 80.7333C106.553 79.487 108.25 79.5401 109.647 80.6724C111.903 82.4993 114.644 83.4902 117.579 84.1028C119.759 84.552 120.64 86.103 121.751 87.4505C123.216 89.2207 124.606 90.6788 127.57 90.8715C130.67 91.069 133.585 92.4307 136.684 92.6814C139.751 92.9255 142.95 92.8773 145.463 90.1845C146.885 88.6594 148.913 89.4349 150.577 90.2267C157.154 93.3473 163.683 96.5341 170.342 99.5119C172.259 100.363 174.528 100.953 176.71 101.037C185.548 101.375 194.416 101.468 203.27 101.657C203.914 101.669 204.545 101.723 205.574 101.783C204.92 102.591 204.488 103.118 203.847 103.914C205.668 103.902 207.287 103.885 208.905 103.869C208.965 104.071 209.036 104.269 209.096 104.471C207.698 105.028 206.27 105.547 204.898 106.155C202.066 107.405 201.871 107.859 202.223 110.587C202.385 111.837 202.354 113.132 202.287 114.404C202.259 114.946 202.031 115.858 201.669 115.973C198.848 116.906 199.698 118.755 199.789 120.424C200.078 125.406 200.377 130.383 200.656 135.37C200.758 137.21 200.165 138.373 197.714 138.941C196.198 139.29 194.76 140.554 193.591 141.652C191.171 143.915 188.903 146.308 186.658 148.713C185.116 150.366 183.521 152.023 182.307 153.842C180.335 156.806 177.912 159.129 173.876 159.309C172.194 159.389 170.974 161.557 169.14 160.281C167.823 159.37 166.675 158.259 165.291 157.449C160.249 154.507 155.13 151.672 150.076 148.744C148.926 148.073 147.928 147.205 146.913 146.464C145.248 146.288 143.422 146.414 141.945 145.881C135.495 143.555 128.613 142.623 121.723 141.667C117.693 141.111 113.833 140.33 110.222 138.521C107.994 137.4 104.981 137.327 102.283 136.976C99.6878 136.647 96.979 136.735 94.4056 136.342C91.3939 135.881 90.8318 134.601 92.1999 132.167C94.4352 128.184 92.9573 122.546 89.2351 120.075C87.7193 119.07 86.2891 118.958 84.4628 119.418C81.7106 120.122 79.5217 121.565 77.8742 123.508C75.3917 126.443 72.3942 128.876 69.0593 130.965C66.3803 132.65 66.7982 135.178 66.0807 137.351C65.7929 138.212 66.7449 139.321 67.069 140.164C67.8685 140.146 68.231 140.236 68.3799 140.122C70.9274 138.091 73.2018 138.179 75.7103 139.967C76.9498 140.854 78.8024 141.106 80.4026 141.604C81.8877 142.062 82.948 142.745 82.5435 144.594C76.4417 145.771 73.2918 149.298 73.2021 154.75C71.4866 155.134 70.0491 155.325 68.7111 155.78C66.7552 156.449 65.0954 156.411 63.5616 155.205C62.6775 154.506 61.5345 153.943 60.3555 154.841C58.0436 156.601 55.757 156.754 53.6321 155.274C50.9778 156.867 48.697 156.841 46.7896 155.195C45.7208 154.282 44.6137 153.407 43.0942 152.158C46.3089 151.322 48.6656 149.274 51.6554 151.077C52.9761 151.875 54.3182 151.101 55.1611 150.111C56.48 148.565 57.8441 147.674 60.1888 149.314C60.8191 147.427 61.5081 146.132 61.6394 144.82C61.9559 141.727 61.8029 141.802 58.6165 140.613C57.0234 140.019 55.621 139.083 53.9274 138.201L52.693 141.895C54.4756 141.898 56.0129 141.766 57.4776 141.953C58.4114 142.07 59.6914 142.478 59.9864 143.102C60.3038 143.761 59.9526 145.195 59.3239 145.621C58.5407 146.151 57.1807 146.008 56.0622 146.112C55.8332 146.134 55.6061 145.919 55.3753 145.819C52.4281 144.526 49.9082 145.156 47.8156 147.707C46.8027 147.163 45.7761 146.609 44.8143 146.092C44.4978 146.247 44.1493 146.32 44.0706 146.479C41.7082 151.097 40.6682 151.324 37.1655 147.711C36.213 146.731 35.7099 145.402 35.0483 144.216C34.8304 143.821 34.9335 143.18 34.6074 142.93C30.922 140.094 31.3131 136.013 31.1221 132.192C31.014 130.116 29.4326 129.486 27.9205 128.725C24.9745 127.251 24.9316 127.303 25.1159 123.559C26.7337 124.106 28.2013 124.591 29.6882 125.095C32.219 123.114 30.2453 120.721 31.2169 118.708C34.573 119.057 35.1519 118.857 37.7578 116.191C35.2879 117.173 33.2916 117.964 31.2849 118.76L31.2648 118.717ZM49.3863 128.478C55.129 131.822 62.7312 129.654 65.4589 124.198C66.3098 122.494 67.1183 121.07 69.2687 120.304C70.0636 120.019 70.9088 118.945 71.0699 118.157C71.7678 114.664 67.0208 110.97 63.1095 111.822C62.7322 111.904 62.2642 112.028 62.0381 112.271C60.8711 113.567 58.9628 114.886 58.8149 116.247C58.4926 119.255 56.3041 120.493 53.6096 121.687C53.8482 122.786 54.0689 123.76 54.2848 124.748C52.7258 125.94 51.1946 127.101 49.3839 128.485L49.3863 128.478ZM36.1239 104.023C37.6527 104.377 39.0132 105.106 40.204 104.887C44.3805 104.135 48.5822 103.282 52.6211 102.022C56.2501 100.891 56.7447 97.8276 53.9601 95.7169C51.564 93.8992 46.8738 93.9673 44.4534 96.078C41.7056 98.4788 39.1817 101.078 36.1183 104.015L36.1239 104.023ZM40.4693 115.456C41.7947 116.954 42.7361 117.993 43.644 119.055C44.6095 120.174 45.6088 120.631 47.3152 119.713C49.8425 118.354 52.5236 117.226 55.1318 115.983C55.469 115.816 55.7357 115.529 56.1468 115.218C56.03 114.342 55.9068 113.434 55.7708 112.539C55.7594 112.445 55.6116 112.377 55.3429 112.108C50.1394 111.287 45.5115 113.62 40.4613 115.455L40.4693 115.456ZM43.5521 140.574C42.7118 139.055 42.0693 137.887 41.4189 136.719C40.9407 135.852 40.1943 134.945 39.0732 135.695C38.4883 136.092 38.1116 137.551 38.4591 138.094C39.4614 139.64 40.9482 140.859 43.5497 140.582L43.5521 140.574ZM177.302 105.062C175.562 103.578 174.285 103.185 172.514 103.71C172.885 106.609 174.849 105.432 177.302 105.062ZM25.0068 116.583C27.9323 116.714 28.0241 115.623 26.9043 113.611C26.1154 114.849 25.5611 115.716 25.0068 116.583ZM65.0353 79.5804C65.904 79.0747 66.9087 78.7492 66.9383 78.4054C66.985 77.8824 66.4951 77.1271 65.964 76.9036C65.6126 76.755 64.4247 77.271 64.301 77.6412C64.144 78.1109 64.6736 78.7222 65.0377 79.5733L65.0353 79.5804Z" fill="white"/>
<path d="M119.453 55.5169C118.295 54.1826 117.622 53.4125 116.679 52.328C114.533 55.7355 111.832 56.1601 108.765 54.052C105.497 57.6009 109.487 59.0396 110.313 61.8802C112.278 60.7484 113.687 59.8519 115.169 59.0924C116.455 58.4368 117.786 57.7982 119.171 57.4065C120.745 56.9624 122.286 57.2268 122.398 58.9085C122.482 60.1888 125.183 60.7378 123.176 62.6827C122.317 62.2164 121.436 61.7381 120.223 61.0773C118.633 63.306 117.021 65.4767 115.528 67.695C114.697 68.9312 113.95 70.2227 113.362 71.5471C112.468 73.5844 111.178 75.35 108.548 75.3327C106.096 75.3144 105.179 73.4134 104.434 71.708C104.028 70.7797 103.996 69.7004 103.895 68.6753C103.785 67.5494 103.79 66.4094 103.746 65.4949C101.975 64.3614 99.1004 65.4808 98.7586 62.7247C103.043 60.0166 100.965 56.6061 100.179 53.264C101.597 52.8789 102.84 52.3745 104.116 52.2341C106.341 51.9852 108.063 51.2218 109.682 49.699C112.407 47.1339 115.511 48.8006 118.322 49.2505C120.434 49.5945 120.153 51.7886 120.661 53.2552C120.809 53.6813 120.098 54.3792 119.466 55.5043L119.453 55.5169Z" fill="white"/>
<path d="M100.392 40.4729C100.419 39.5502 100.205 38.5552 100.546 37.7125C100.934 36.7577 101.618 35.6283 102.537 35.1253C105.289 33.6078 108.211 34.5144 109.517 37.1952C110.329 37.0887 111.204 36.9724 112.326 36.8309C113.088 37.9466 114.011 38.8367 115.746 39.415C117.329 39.939 118.506 41.9314 119.167 43.5284C119.729 44.8844 118.03 45.7819 116.672 46.3997C115.485 46.9387 113.776 47.9408 113.085 46.7408C111.698 44.355 109.047 44.6001 106.774 43.9718C106.291 43.8342 105.854 43.5844 105.092 43.26C105.24 42.408 105.514 41.5133 105.5 40.6355C105.49 40.0019 105.103 39.3973 104.893 38.7757C104.117 39.0799 103.31 39.3244 102.579 39.6988C102.157 39.916 101.847 40.3315 101.484 40.6523C101.12 40.5925 100.758 40.5256 100.394 40.4658L100.392 40.4729ZM110.731 39.3323C110.402 39.3711 110.084 39.4044 109.755 39.4432C109.758 39.9458 109.761 40.4485 109.763 40.9512C110.102 40.907 110.729 40.8688 110.732 40.8086C110.802 40.3207 110.744 39.8295 110.729 39.3394L110.731 39.3323Z" fill="white"/>
<path d="M121.977 48.0639C123.602 47.3641 125.227 46.6643 127.239 45.8008C127.499 48.6998 132.588 48.2042 131.55 51.8705C128.24 54.3456 127.074 54.3108 125.913 51.0205C125.264 49.1826 123.687 48.9718 121.977 48.0639Z" fill="white"/>
<path d="M80.5879 133.342C77.8057 136.024 74.9955 135.727 72.062 135.236C73.0631 131.73 75.6342 131.058 80.5879 133.342Z" fill="white"/>
<path d="M91.3631 44.1808C93.3511 44.7428 94.1969 45.4801 93.7092 46.8631C93.2 48.3102 91.8469 48.427 90.5187 48.2141C89.2064 48.0045 88.3456 46.5717 89.1071 45.5951C89.6617 44.8801 90.81 44.5081 91.3631 44.1808Z" fill="white"/>
<path d="M7.66087 109.516C8.36575 107.789 9.36149 107.721 10.472 107.972C11.5529 108.21 12.5607 108.616 12.1564 109.826C11.7639 111 10.5554 111.17 9.53975 110.839C8.74842 110.577 8.16038 109.885 7.66087 109.516Z" fill="white"/>
<path d="M84.247 42.1366C85.8253 41.7544 86.8241 41.2679 87.6319 41.4039C88.1555 41.4966 88.4066 42.507 88.7774 43.1084C87.8861 43.5029 86.9938 44.1559 86.1026 44.1928C85.6175 44.2146 85.1573 43.1916 84.247 42.1366Z" fill="white"/>
<path d="M94.2013 57.6459C95.1523 57.2257 95.9243 56.6773 96.1696 56.8115C96.7983 57.1769 97.2027 57.8309 97.6954 58.3737C97.1289 58.7667 96.2689 59.5785 96.0484 59.4722C95.3814 59.1445 94.9626 58.4571 94.2013 57.6459Z" fill="white"/>
<path d="M212.512 100.837C212.711 101.342 212.989 101.811 212.902 101.869C212.438 102.184 211.878 102.403 211.359 102.654C211.197 102.324 210.807 101.779 210.902 101.7C211.314 101.359 211.867 101.161 212.512 100.837Z" fill="white"/>
<path d="M106.996 46.483C106.047 46.4093 105.097 46.3427 103.466 46.2195C105.299 44.7181 106.301 44.8334 107.274 45.6502C107.181 45.9278 107.088 46.2054 106.998 46.4759L106.996 46.483Z" fill="white"/>
<path d="M85.1079 151.042C85.4478 151.378 85.6725 151.599 85.8948 151.828C85.6112 152.013 85.2993 152.359 85.0527 152.331C84.7718 152.303 84.4535 151.979 84.3699 151.719C84.3258 151.596 84.7934 151.319 85.1079 151.042Z" fill="white"/>
</svg>
