<svg width="195" height="156" viewBox="0 0 195 156" fill="none" xmlns="http://www.w3.org/2000/svg">
<path d="M115.736 66.8089C116.364 65.8068 116.684 64.72 118.697 64.6979C120.672 64.6754 120.229 62.9578 121.122 62.0435C122.65 61.6319 124.233 61.2019 125.761 60.7903C127.961 59.0632 124.613 57.6464 125.999 55.8047C122.682 55.3186 123.633 52.6707 122.368 50.9571C124.295 51.8988 126.232 52.8405 128.159 53.7822C128.297 53.6424 128.444 53.5028 128.582 53.363L126.715 51.7368C128.494 48.8131 129.193 48.7768 131.989 51.3386C134.396 51.2071 134.657 49.8093 134.747 48.3633C136.013 48.0591 137.18 47.7765 138.41 47.4834C138.693 47.8548 138.944 48.1914 139.119 48.4274C140.328 48.1147 141.505 47.817 142.683 47.5116C142.832 47.6745 142.986 47.8336 143.134 47.9964C142.291 49.0798 141.444 50.1594 140.619 51.2507C140.277 51.6978 139.855 52.1514 139.709 52.6357C139.429 53.5393 140.295 54.16 141.41 53.8997C141.822 53.8058 142.159 53.4467 142.569 53.3681C143.154 53.2575 143.771 53.2928 144.376 53.2667C144.368 53.7375 144.428 54.2169 144.318 54.6825C144.245 54.9955 143.924 55.2859 143.587 55.7713C145.143 56.8916 146.667 57.9847 148.49 59.2963C148.418 59.5021 148.342 60.106 148.002 60.622C147.002 62.1474 146.464 62.1055 144.807 61.114C143.64 60.4164 142.162 59.9749 140.735 59.6029C136.64 58.5319 136.622 58.5661 136.545 55.5671C135.446 55.8582 134.322 56.1605 132.991 56.5174C134.51 57.5645 134.196 58.7394 132.97 60.009C131.977 61.0368 131.438 62.1091 132.257 63.3839C132.834 64.2801 132.307 65.2032 131.269 65.9662C130.732 66.3608 130.355 66.8955 129.653 67.6324C131.057 67.8164 132.084 67.9493 133.13 68.09C134.062 69.7225 135.249 71.167 137.933 71.0508C138.29 73.3887 137.736 74.6548 136.273 74.8491C136.567 72.3491 134.824 71.5593 131.863 71.3002C130.535 71.1824 129.479 69.8852 127.884 68.8563C128.094 70.0691 128.264 71.063 128.481 72.3334C126.231 72.9112 124.031 73.5662 121.793 74.0293C119.57 74.4888 117.654 75.2319 115.786 76.3855C113.745 77.64 111.334 78.5219 109.081 79.5667C108.194 79.9757 107.309 80.377 106.432 80.7861C104.612 81.6378 103.716 82.709 103.95 84.4544C104.472 88.4435 105.472 92.2133 109.109 95.1389C109.752 95.657 110.409 96.3553 110.538 97.0539C111.116 100.255 113.747 102.229 116.69 104.08C117.624 104.667 118.409 105.402 119.442 106.201C118.165 106.957 117.297 107.466 116.125 108.154C116.665 108.809 117.11 109.439 117.66 110.002C118.949 111.317 119.676 112.671 119.005 114.507C118.709 115.33 118.909 116.451 119.447 117.163C120.59 118.653 121.984 120.043 123.497 121.32C125.015 122.6 126.751 123.727 128.478 124.846C129.098 125.252 129.916 125.512 130.706 125.715C133.042 126.325 135.408 126.878 138.19 127.56C136.946 128.469 136.799 129.18 137.381 130.164C138.688 132.391 137.236 134.293 134.043 134.77C133.54 134.843 132.498 134.446 132.498 134.22C132.479 131.808 129.843 131.706 127.94 130.903C127.066 130.535 125.803 129.912 125.78 129.323C125.718 127.66 124.202 127.118 122.996 126.202C121.172 124.806 119.649 123.169 117.971 121.657C117.316 121.07 116.577 120.535 115.781 119.9C114.247 121.219 115.572 123.094 113.147 123.838C110.797 122.427 111.242 119.347 108.339 117.848C107.981 118.433 107.735 118.721 107.637 119.03C107.376 119.849 106.941 120.735 105.752 120.562C104.943 120.444 104.06 119.834 103.675 119.239C102.726 117.767 102.024 116.184 100.324 115.096C98.9192 116.302 97.7189 117.342 96.4998 118.375C95.1404 119.527 95.0491 120.805 95.2149 122.281C93.9998 120.335 92.7033 118.418 91.5901 116.435C90.7105 114.864 89.6455 113.467 87.8616 112.424C87.1119 111.989 86.2919 111.392 86.0477 110.718C85.2277 108.471 83.3451 106.99 81.0373 105.683C78.2739 104.114 75.7443 102.287 72.9024 100.808C70.1301 99.3649 68.9476 99.5745 66.6614 101.771C65.3108 103.066 64.3019 104.591 63.2651 106.059C61.4528 108.618 59.2952 109.687 55.945 109.542C53.7684 109.447 52.633 108.826 52.4544 107.154C52.3031 105.724 52.4578 104.225 52.7629 102.782C53.6448 98.6247 51.8027 95.4367 48.1477 92.7636C47.0831 91.987 46.0283 91.0765 45.4568 90.0425C44.028 87.4575 42.8899 84.7655 41.4386 81.7169C43.4949 83.1313 45.2015 84.2996 46.9035 85.464C47.4682 85.8471 47.9608 86.3516 48.6265 86.5714C49.2496 86.779 50.1418 86.8526 50.756 86.6505C51.137 86.5217 51.442 85.7486 51.4028 85.304C51.329 84.4606 51.258 83.5024 50.7032 82.8515C48.397 80.1473 45.9138 77.5401 43.4882 74.8992C42.4569 73.7747 41.3578 74.1156 39.966 75.0728C40.6415 75.5607 41.2126 75.9744 41.7569 76.3648C41.3787 77.3589 39.5782 78.1611 38.436 77.6017C36.5142 76.6563 34.0113 76.1011 33.4895 73.9459C33.1603 72.6205 31.9785 71.8422 30.5829 71.0955C26.7934 69.0676 22.8389 67.206 19.7104 64.5057C18.7315 63.6613 17.3133 63.121 16.0507 62.4987C12.9046 60.9391 13.1715 59.7559 13.8392 56.97C13.8999 56.7297 14.1071 56.3573 14.3332 56.303C17.7891 55.4853 18.8119 52.9417 20.7125 51.0037C22.5135 49.1716 24.25 47.2581 27.2969 46.5114C27.7642 46.3991 28.1211 45.9561 28.8054 45.4716C27.81 45.2243 27.0717 45.0418 26.2337 44.8312C26.6201 43.1825 28.0947 42.4064 29.7651 41.8092C30.4828 41.5549 31.2679 41.401 32.0364 41.3082C37.7526 40.625 42.5078 38.1329 47.333 35.7605C48.4654 35.2056 48.8379 34.4411 49.0531 33.372C49.4619 31.3407 50.2661 29.3187 51.1238 27.3433C51.5422 26.3842 52.6877 25.6649 54.043 25.9325C55.2355 26.1671 56.0016 26.8094 55.8601 28.0097C55.7631 28.8048 56.0315 29.6585 56.3747 30.4098C57.9772 33.9085 59.7374 37.3519 61.3 40.8576C62.8193 44.2671 64.7505 47.3567 68.7948 49.3805C70.0939 50.0263 70.7474 51.383 71.9744 52.1504C77.0662 55.3295 82.3266 58.354 87.4017 61.5521C90.0466 63.2196 92.8798 64.8668 94.8544 66.9807C97.3155 69.6105 100.833 70.999 104.237 72.4818C105.75 73.1382 108.077 72.8448 110.037 72.7685C111.222 72.7197 112.423 72.2921 113.598 71.9752C117.852 70.8392 118.504 69.2286 115.762 66.7059L115.757 66.7939L115.736 66.8089ZM60.8577 48.1875C60.9238 44.5089 56.5707 39.6362 52.5005 38.6956C52.7101 40.3526 52.2955 42.1693 53.2279 43.2581C54.9577 45.2844 57.5123 46.8396 60.863 48.1838L60.8577 48.1875ZM98.8659 90.4377C98.9167 90.0631 99.1262 89.6257 99.0093 89.2642C98.8009 88.6219 98.3354 88.0488 98.0773 87.4135C97.5701 86.1507 96.3057 86.2137 94.9191 86.3209C93.4588 86.431 92.0694 86.519 91.3255 87.8144C90.7924 88.7489 90.8894 89.4701 91.9286 90.0319C93.679 90.9788 95.6478 91.228 97.8033 90.8021C98.1129 90.7451 98.4033 90.5959 98.857 90.4299L98.8659 90.4377ZM27.5836 65.7015C27.356 65.9473 27.1284 66.193 26.9009 66.4387C27.7304 66.8599 28.5556 67.2771 29.3851 67.6982C29.5387 67.5471 29.6825 67.396 29.8361 67.2449C29.085 66.733 28.3347 66.2135 27.5836 65.7015ZM88.61 105.872C90.1191 106.433 90.947 106.735 92.0233 107.137C91.8431 105.717 90.7053 105.296 88.61 105.872ZM75.5079 59.8107C75.6472 58.4075 74.609 58.1481 73.1551 58.2889L75.5079 59.8107ZM106.109 75.5285C106.127 75.6359 106.145 75.7357 106.162 75.8432C106.725 75.7973 107.283 75.7552 107.846 75.7094C107.535 75.372 107.223 75.2758 106.913 75.2907C106.647 75.3024 106.378 75.4441 106.104 75.5323L106.109 75.5285Z" fill="white"/>
<path d="M23.8193 102.405C25.3214 102.851 26.3534 103.256 27.4658 103.463C28.5062 103.657 29.6225 103.649 30.9669 103.748C31.2052 103.093 31.4611 102.411 31.7108 101.741C32.1203 101.754 32.4637 101.701 32.5192 101.775C33.4469 103.085 35.1076 103.066 36.7839 103.128C39.5814 103.227 41.2934 104.836 41.0131 107.524C39.4442 106.35 38.1555 105.386 36.5367 104.177C36.3707 104.887 36.0429 105.422 36.2357 105.582C37.7842 106.897 37.0604 108.009 35.6504 109.177C35.2202 109.531 35.0389 110.068 34.5508 110.816C37.2992 110.471 38.6839 111.451 39.5394 113.285C38.7367 113.6 37.9137 113.921 36.8656 114.332C39.1212 116.071 38.3766 117.952 37.4556 119.344C38.337 121.746 39.0646 123.72 39.7719 125.701C39.8288 125.851 39.8472 126.085 39.7369 126.199C38.1174 127.938 38.069 129.939 37.6205 131.886C37.3381 133.123 36.4167 133.895 34.6016 133.939C33.6549 133.96 32.6428 134.578 31.7392 134.519C29.636 134.379 27.6896 133.882 26.6065 132.293C25.153 130.156 23.6279 128.048 21.9768 125.705C20.2818 127.018 18.7558 126.434 17.1459 126.079C15.5885 125.736 15.4866 124.658 14.9932 123.76C14.6544 123.146 14.472 122.401 13.9157 121.941C11.7719 120.166 11.2645 118.191 12.615 115.782C12.8038 115.444 12.2248 114.479 11.8328 114.439C10.4544 114.293 9.00578 114.43 7.0645 114.465C6.9518 114.065 6.72584 113.315 6.50964 112.566C8.56244 111.916 10.2802 111.377 12.2417 110.757C11.4966 109.79 10.9699 109.105 10.6018 108.625C11.1805 107.186 11.6833 105.948 12.255 104.528L15.2257 102.425C15.368 102.465 15.7569 102.578 16.151 102.686C19.8249 103.717 20.0786 103.545 21.5412 100.605C21.9928 99.7 23.0541 98.7229 24.1426 98.2555C26.0115 97.4542 28.1234 97.0239 30.3521 96.3769C30.7508 97.4697 31.0635 98.3202 31.3754 99.1784C29.5929 101.11 28.2372 98.7063 26.1777 99.4169C25.65 100.08 24.8888 101.042 23.7989 102.413L23.8193 102.405Z" fill="white"/>
<path d="M139.663 108.485C137.63 108.289 135.541 108.245 133.588 107.85C132.066 107.538 130.724 106.796 128.931 106.097C129.384 105.721 129.882 105.015 130.287 105.025C132.858 105.095 134.508 103.525 136.678 102.877C135.963 101.958 132.241 100.938 125.511 99.8169C125.645 98.5017 127.018 98.1645 128.239 97.7793C129.283 97.4491 130.38 97.223 131.455 96.9621C133.179 96.5456 134.201 95.8858 134.674 94.2957C135.258 92.3166 136.698 90.4718 139.935 90.5853C140.248 88.4455 139.348 87.0981 137.237 86.5432C136.451 87.1986 135.611 87.8915 134.874 88.5055C134.577 88.532 134.42 88.5796 134.37 88.5445C132.857 87.4018 129.506 88.7301 128.959 86.1419C128.611 84.4984 127.673 82.9693 127.007 81.4095C132.992 77.0735 135.239 76.6182 139.475 79.0772C139.672 77.4642 140.098 75.9844 139.955 74.5696C139.795 72.9976 139.741 71.7525 141.352 70.3159C142.469 69.3205 140.708 67.267 143.291 66.0161C143.62 66.6792 143.895 67.2458 144.236 67.9282C145.045 68.0887 145.979 68.2738 146.999 68.4755C147.151 68.2057 147.428 67.953 147.375 67.7724C146.73 65.5351 143.601 64.753 141.133 66.1548C140.491 66.5174 139.737 66.7482 138.302 67.341C139.013 65.5475 139.317 64.38 139.933 63.3088C140.703 61.9602 142.642 61.5887 143.627 62.7318C144.912 64.2198 147.068 64.1882 148.645 64.9833C152.749 62.4439 154.318 62.3277 158.376 64.1793C157.078 67.1786 153.98 68.3075 149.992 68.8039L151.465 70.0877C148.91 71.5726 146.852 69.8136 144.043 69.9548C144.477 71.1707 144.467 72.8208 145.254 73.0537C148.292 73.9494 147.746 76.7407 149.889 78.0299C150.321 78.2886 150.694 78.9408 150.581 79.3451C150.073 81.1721 150.92 82.5047 152.384 83.7386C152.747 84.0461 152.721 84.6354 152.837 85.0045C154.157 84.7471 155.407 84.5039 157.333 84.1208C156.755 85.0164 156.604 85.6308 156.235 85.7444C154.639 86.2393 152.976 86.5916 151.086 87.0556C150.832 86.4242 150.527 85.681 150.153 84.7684C148.076 85.6319 146.153 86.3023 145.357 88.2555C144.997 89.1235 143.79 89.8229 142.759 90.7927C144.208 92.5318 147.192 90.7925 149.227 91.9117C148.274 93.9049 145.589 93.5004 143.448 94.5927C143.868 96.8766 144.315 99.3103 144.794 101.905C146.792 101.443 147.109 100.597 146.741 99.4968C146.639 99.1815 146.222 98.9192 146.207 98.6127C146.194 98.3253 146.503 97.7897 146.721 97.7621C147.183 97.6957 147.934 97.7635 148.133 98.0036C149.359 99.5406 150.522 101.115 151.582 102.734C152.349 103.905 151.711 104.815 149.978 104.906C148.379 104.987 146.778 104.773 144.633 104.663C145.235 105.104 145.559 105.277 145.778 105.51C146.896 106.686 146.603 107.352 144.777 107.671C143.031 107.976 141.273 108.22 139.516 108.491L139.662 108.493L139.663 108.485Z" fill="white"/>
<path d="M85.075 139.558C85.919 139.313 86.6801 138.887 87.2367 138.987C87.9374 139.112 88.8632 139.591 88.9826 140.064C89.1993 140.898 88.4754 141.566 87.2052 141.548C86.5506 141.539 85.8845 141.277 85.2759 141.384C84.5724 141.508 83.5529 141.793 83.3166 142.207C82.3208 143.969 80.4474 145.035 78.6142 146.135C77.6348 146.723 77.3332 147.331 77.7958 148.153C78.0132 148.535 78.4353 148.97 78.3193 149.313C78.1154 149.923 77.7403 150.71 77.1258 151.004C76.1085 151.492 75.375 150.819 75.2905 150.117C75.1579 148.963 74.2742 148.411 73.2769 147.735C71.8737 146.789 72.2381 145.431 74.1016 144.901C76.3037 144.273 77.5849 142.407 80.1766 142.286C81.2536 142.236 81.3626 141.644 81.1952 139.781C78.4947 139.556 76.0145 140.176 73.7089 141.435C71.0237 142.899 67.0585 142.695 65.2407 141.069C64.2733 140.21 64.2467 139.248 64.4353 138.198C64.6841 136.823 64.4992 135.699 62.7236 134.981C61.5429 134.506 60.6305 133.501 61.5179 132.415C62.756 130.896 62.3928 129.658 61.0252 128.166C63.9571 127.62 66.5185 127.062 69.1097 126.722C69.8099 126.629 70.693 127.097 71.3172 127.473C71.9779 127.872 72.3208 128.582 72.9921 128.974C74.0771 129.609 75.2642 130.383 76.7626 129.301C77.8465 128.52 78.7973 128.728 79.7131 129.3C81.105 130.169 82.5089 130.395 84.2458 129.504C84.7902 129.224 85.7055 129.31 86.4182 129.369C87.4996 129.457 88.5414 129.728 89.622 129.823C91.1194 129.955 91.7351 130.541 91.4496 131.717C91.2825 132.392 91.1297 133.072 90.9464 133.85C95.0359 134.481 96.7529 136.714 98.3653 139.14C96.4562 140.443 94.5068 140.462 92.4026 140.019C91.6108 138.986 92.9886 136.953 90.242 136.88C87.7396 136.812 85.8847 137.709 85.0803 139.555L85.075 139.558Z" fill="white"/>
<path d="M123.56 136.829C120.292 139.227 117.499 141.275 114.715 143.324C113.699 144.072 112.616 144.126 111.82 143.357C109.958 141.558 107.131 140.428 106.06 138.062C105.753 137.384 105.036 136.743 104.29 136.311C100.604 134.189 101.669 130.861 101.452 127.891C101.409 127.343 102.354 126.54 103.09 126.16C103.36 126.018 104.508 126.658 104.961 127.127C107.502 129.743 110.505 131.446 115.253 130.623C116.126 130.471 117.454 130.899 118.062 131.42C119.909 133.004 121.501 134.768 123.56 136.829Z" fill="white"/>
<path d="M65.2573 124.379C64.4441 124.031 63.5989 123.797 62.986 123.364C62.4319 122.973 61.7146 122.332 61.8199 121.862C61.9381 121.32 62.8059 120.769 63.481 120.369C63.8836 120.133 64.5518 120.196 65.0929 120.081C67.3564 119.607 68.1156 118.886 67.8295 117.079C67.5981 115.621 67.7698 114.413 69.3079 113.282C71.0591 111.993 75.191 111.881 76.7414 113.223C78.14 114.433 78.0416 115.286 76.313 116.503C75.7242 116.919 75.0692 117.27 74.4924 117.622C74.4086 117.851 74.2925 118.018 74.2944 118.179C74.2813 119.189 74.7752 120.44 74.1615 121.129C73.5812 121.779 71.8066 121.766 70.6351 122.187C68.9028 122.814 67.2406 123.56 65.2626 124.376L65.2573 124.379Z" fill="white"/>
<path d="M44.8973 131.898C44.5355 132.965 44.2537 133.75 44.0056 134.539C43.3578 136.563 44.2295 137.314 46.8808 136.784C48.5617 136.447 50.1642 135.8 52.3119 135.132C51.7219 135.783 51.4881 136.308 51.0479 136.486C49.1494 137.244 47.2384 138.118 45.2239 138.507C43.9794 138.747 42.4025 138.403 41.2396 137.943C39.6262 137.308 38.2716 136.321 36.8391 135.509C37.9489 135.026 39.577 134.635 40.5743 133.795C41.706 132.846 42.7577 132.179 44.8875 131.898L44.8973 131.898Z" fill="white"/>
<path d="M129.556 115.808C133.457 115.211 135.032 116.156 135.9 119.702C132.373 119.385 129.339 118.409 126.362 117.399C125.556 117.124 125.142 116.218 124.377 115.427C128.03 114.103 128.399 117.121 130.736 117.18C130.47 117.015 130.147 116.885 129.94 116.679C129.768 116.504 129.733 116.24 129.55 115.812L129.556 115.808Z" fill="white"/>
<path d="M87.0126 144.704C87.7268 144.439 88.1503 144.146 88.4942 144.177C90.1764 144.319 91.7544 144.697 93.5722 144.094C94.6889 143.727 95.9642 144.678 95.739 145.437C95.4521 146.402 94.4558 146.564 93.4033 146.569C92.4494 146.567 91.4797 146.443 90.5489 146.587C88.6324 146.886 87.6798 146.249 87.0073 144.708L87.0126 144.704Z" fill="white"/>
<path d="M139.513 108.484C140.388 109.162 141.268 109.836 142.35 110.671C141.327 111.396 140.66 111.987 139.851 112.405C139.073 112.808 137.939 113.42 137.346 113.247C136.593 113.026 136.223 112.11 135.867 111.707C137.377 110.426 138.525 109.458 139.664 108.49L139.517 108.488L139.513 108.484Z" fill="white"/>
<path d="M141.139 114.363C144.27 113.162 146.15 114.046 147.73 115.649C145.855 117.667 144.405 117.418 141.139 114.363Z" fill="white"/>
<path d="M128.273 107.578C127.502 108.766 126.492 108.656 125.565 108.452C124.352 108.183 123.052 107.939 122.054 107.404C121.195 106.941 121.555 106.073 122.56 105.784C123.313 105.568 124.367 105.548 125.033 105.803C126.231 106.26 127.232 106.989 128.278 107.582L128.273 107.578Z" fill="white"/>
<path d="M147.83 56.8363C147.722 55.9963 147.476 55.3382 147.623 54.7123C147.719 54.2848 148.294 53.6801 148.781 53.5681C149.243 53.4596 149.916 53.8364 150.395 54.1034C150.723 54.2879 150.909 54.6351 151.097 54.9325C151.616 55.7781 152.278 56.8325 150.863 57.4256C150.201 57.7036 148.972 57.0856 147.826 56.8324L147.83 56.8363Z" fill="white"/>
<path d="M100.662 130.527C98.6807 132.981 95.7592 132.228 92.7678 133.316C93.4768 132.25 93.7458 131.404 94.1238 131.348C96.1053 131.081 97.8972 129.643 100.668 130.523L100.662 130.527Z" fill="white"/>
<path d="M140.631 118.855C141.347 119.336 141.807 119.645 142.245 119.934C141.692 120.735 139.663 120.14 137.609 118.668C139.244 116.692 139.61 116.567 142.45 117.131C142.23 117.442 142.078 117.753 141.821 117.999C141.542 118.267 141.167 118.476 140.631 118.855Z" fill="white"/>
<path d="M155.274 76.5077C154.316 76.6362 153.367 76.7648 152.37 76.8927C152.348 75.4413 152.329 74.3269 152.311 73.1971C153.847 72.9324 154.836 74.0347 155.28 76.504L155.274 76.5077Z" fill="white"/>
<path d="M83.0342 127.979C81.7164 127.325 80.8106 126.662 82.0769 125.511C83.0279 124.648 84.8785 124.459 85.653 125.025C86.5311 125.672 85.9855 126.32 83.0342 127.979Z" fill="white"/>
<path d="M149.656 95.3028C149.696 94.9435 149.518 94.1523 149.926 93.6027C150.442 92.913 152.477 93.2282 153.268 94.1772C153.558 94.5219 153.477 95.3478 153.122 95.6914C152.265 96.5372 150.911 96.4381 149.646 95.3027L149.656 95.3028Z" fill="white"/>
<path d="M84.6959 148.662C84.8425 148.53 84.9584 148.321 85.1295 148.277C87.3515 147.692 88.6763 147.924 88.8779 149.03C88.9479 149.417 88.613 150.106 88.211 150.292C87.0563 150.827 85.5211 150.059 84.6959 148.662Z" fill="white"/>
<path d="M47.5252 103.153C45.4041 102.998 43.7736 102.876 41.9192 102.743C44.3828 101.203 45.201 101.238 47.5252 103.153Z" fill="white"/>
<path d="M53.2012 128.881C54.0212 128.498 54.8102 127.995 55.6846 127.785C56.0916 127.688 56.6747 128.17 57.1788 128.392C56.842 128.785 56.5753 129.432 56.1487 129.53C55.2858 129.725 54.3383 129.62 53.421 129.642C53.351 129.388 53.2757 129.138 53.2012 128.881Z" fill="white"/>
<path d="M130.971 77.1146C130.574 76.6343 130.005 76.1977 129.824 75.663C129.619 75.0399 129.593 74.1551 130.841 74.111C131.239 74.0973 131.83 74.8138 131.946 75.2749C132.073 75.7705 131.744 76.3633 131.615 76.9129C131.402 76.9789 131.18 77.0447 130.967 77.1107L130.971 77.1146Z" fill="white"/>
<path d="M147.254 123.652C146.263 123.416 145.473 123.39 145.058 123.07C144.774 122.848 144.787 122.014 145.075 121.803C145.946 121.172 146.718 121.627 147.188 122.204C147.4 122.463 147.236 122.924 147.254 123.652Z" fill="white"/>
<path d="M131.045 47.4008C130.25 48.6687 129.269 48.9615 127.771 48.1674C128.763 47.4511 129.854 47.1955 131.045 47.4008Z" fill="white"/>
<path d="M80.0592 118.419C80.4795 117.755 80.6289 117.24 81.0349 116.974C81.3091 116.794 81.9505 116.967 82.4231 116.985C82.2564 117.435 82.2323 117.966 81.8782 118.295C81.6655 118.495 80.9497 118.374 80.0592 118.419Z" fill="white"/>
<path d="M154.945 70.9513C156.064 70.7868 156.779 71.0915 156.804 72.0605C156.808 72.206 156.221 72.5579 156.147 72.5262C155.512 72.2418 154.936 71.8816 154.341 71.548C154.539 71.3516 154.742 71.1515 154.939 70.9551L154.945 70.9513Z" fill="white"/>
<path d="M154.612 78.8875C154.364 79.5426 154.274 80.0085 153.987 80.3951C153.912 80.4975 153.256 80.3697 152.868 80.3414C152.96 79.9023 152.972 79.4354 153.192 79.0325C153.26 78.9071 153.906 78.9505 154.608 78.8836L154.612 78.8875Z" fill="white"/>
<path d="M115.332 62.2764C115.859 62.0234 116.391 61.7666 116.918 61.5136C117.028 61.6682 117.138 61.8228 117.248 61.9774C116.708 62.2188 116.168 62.4601 115.633 62.6977C115.531 62.5585 115.435 62.4156 115.328 62.2725L115.332 62.2764Z" fill="white"/>
<path d="M98.1254 127.103C97.9098 126.571 97.6941 126.04 97.4784 125.509C97.723 125.42 97.9675 125.332 98.2174 125.239C98.5467 125.761 98.8813 126.278 99.2106 126.8C98.8471 126.902 98.4889 127 98.121 127.099L98.1254 127.103Z" fill="white"/>
<path d="M85.2639 145.588C84.4762 145.455 83.931 145.474 83.6491 145.278C83.4403 145.13 83.5663 144.695 83.5457 144.393C84.0108 144.345 84.609 144.155 84.9058 144.304C85.1748 144.438 85.1089 144.95 85.2631 145.596L85.2639 145.588Z" fill="white"/>
<path d="M139.91 70.369L138.597 69.2252L139.137 68.8076C139.637 69.1591 140.131 69.5144 140.635 69.8697C140.396 70.0387 140.158 70.2077 139.919 70.3767L139.91 70.369Z" fill="white"/>
<path d="M140.26 121.974C139.718 122.146 139.181 122.322 138.634 122.498C138.572 122.344 138.511 122.191 138.45 122.037C138.995 121.876 139.536 121.711 140.082 121.55C140.14 121.693 140.203 121.831 140.26 121.974Z" fill="white"/>
<path d="M115.735 66.724C114.955 66.9162 114.181 67.1046 113.15 67.3623C113.809 66.5571 114.671 66.3724 115.735 66.8083L115.74 66.7203L115.735 66.724Z" fill="white"/>
<path d="M134.016 73.8296C133.464 73.7761 132.958 73.838 132.742 73.6742C132.566 73.5378 132.737 73.1343 132.754 72.8474C133.141 72.891 133.573 72.874 133.896 73.0048C134.042 73.0642 133.968 73.4193 134.015 73.8373L134.016 73.8296Z" fill="white"/>
<path d="M156.798 60.0683C156.583 60.467 156.441 60.7366 156.294 61.0023C156.066 60.9036 155.719 60.8529 155.639 60.6988C155.541 60.5215 155.582 60.1893 155.748 60.0577C155.877 59.9524 156.277 60.0497 156.798 60.0683Z" fill="white"/>
<path d="M43.9432 119.694C43.5268 119.657 43.1544 119.709 43.0304 119.593C42.8876 119.469 42.9825 119.183 42.9723 118.965C43.2367 118.961 43.5982 118.874 43.739 118.972C43.9029 119.081 43.8621 119.363 43.9432 119.694Z" fill="white"/>
<path d="M39.5524 102.162C39.1459 102.168 38.6403 102.23 38.6177 102.168C38.5327 101.918 38.6036 101.628 38.6143 101.353C38.9002 101.376 39.2834 101.316 39.4457 101.441C39.5991 101.558 39.5221 101.859 39.5622 102.162L39.5524 102.162Z" fill="white"/>
<path d="M145.423 51.3967C145.624 51.0778 145.694 50.7954 145.896 50.6948C146.061 50.6129 146.394 50.7515 146.649 50.7895C146.557 51.0027 146.539 51.2973 146.351 51.4095C146.184 51.5068 145.822 51.4099 145.418 51.3928L145.423 51.3967Z" fill="white"/>
<path d="M151.279 61.6912C151.484 61.2503 151.543 60.9336 151.772 60.7225C151.876 60.6207 152.3 60.7221 152.578 60.7297C152.516 61.0196 152.526 61.3372 152.36 61.595C152.301 61.6937 151.836 61.6491 151.274 61.6949L151.279 61.6912Z" fill="white"/>
</svg>
