<svg width="221" height="222" viewBox="0 0 221 222" fill="none" xmlns="http://www.w3.org/2000/svg">
<path d="M31.2649 118.717C30.1423 119.14 28.8166 119.354 27.9411 120.033C24.624 122.606 20.7385 122.437 17.0253 122.287C15.2585 122.212 13.6384 120.958 11.6609 120.109C13.3151 118.274 15.0451 116.85 13.4905 114.864C14.4981 114.044 15.3727 113.342 16.229 112.644C15.8112 112.055 15.4518 111.548 14.9868 110.897C18.5695 110.083 20.7761 113.566 24.842 111.893C21.7023 110.462 17.9189 110.702 16.5084 107.467C17.7217 106.926 18.9661 106.368 20.3691 105.744C20.1026 103.886 19.9751 102.072 19.5596 100.328C18.7175 96.8221 20.7048 93.7092 22.8843 91.2216C24.9801 88.831 24.6427 86.266 26.4977 83.5747C22.5848 85.5299 22.5608 85.525 21.4863 81.9484C21.9728 81.8204 22.6156 81.6333 23.2624 81.4851C29.3733 80.1275 33.009 76.525 35.0329 71.4643C35.7726 69.6082 37.0179 69.4312 38.9461 70.3764C38.5155 71.2311 38.1316 71.9965 37.7375 72.7673C39.1766 73.6954 40.281 73.3524 40.468 71.9759C40.7885 69.6378 41.8449 68.06 44.488 67.1212C45.2543 66.8454 45.7153 65.6699 46.1924 64.8553C47.4778 62.6172 49.1978 60.9175 52.1604 60.4782C54.6946 60.0951 57.2222 59.6042 59.1655 57.8745C59.8942 57.2258 60.6108 56.4605 61.0272 55.6486C63.1672 51.5172 65.2666 50.8011 69.6994 52.7798C70.0349 52.925 70.4475 52.9416 70.8546 53.0255C73.7911 50.8005 76.3498 48.0717 80.3408 47.1596C81.7811 46.8326 82.6932 46.8608 82.7841 48.6826C81.5924 48.8783 80.4294 49.0646 79.2561 49.2565C79.2009 50.6982 80.3756 50.7577 81.3945 50.7471C83.6542 50.7259 85.9573 50.805 88.166 50.4005C90.9648 49.8894 93.4453 50.4843 95.9426 51.1055C98.3864 51.7081 98.727 53.4978 96.6475 54.9712C93.7625 57.0166 90.9988 59.0565 89.2042 62.0266C88.7089 62.8451 87.0111 63.3549 85.7876 63.6201C82.1619 64.4096 80.7736 67.083 79.0153 69.4595C78.8315 69.7031 78.8398 70.2146 79.0047 70.4616C80.4671 72.5965 81.9167 74.7441 83.5497 76.7772C83.8041 77.0884 84.9765 76.7974 86.0034 76.7884C85.5992 77.717 85.2236 78.5602 84.7805 79.5796C86.4501 81.9627 89.025 83.0412 92.2923 83.6309C97.0563 84.491 101.181 83.6901 104.959 80.7333C106.553 79.487 108.25 79.5401 109.647 80.6724C111.903 82.4993 114.644 83.4902 117.579 84.1028C119.759 84.552 120.64 86.103 121.751 87.4505C123.216 89.2207 124.606 90.6788 127.571 90.8715C130.67 91.069 133.586 92.4307 136.685 92.6814C139.752 92.9255 142.95 92.8773 145.463 90.1845C146.886 88.6594 148.913 89.4349 150.577 90.2267C157.154 93.3473 163.683 96.5341 170.342 99.5119C172.259 100.363 174.528 100.953 176.71 101.037C185.548 101.375 194.416 101.468 203.27 101.657C203.915 101.669 204.545 101.723 205.575 101.783C204.92 102.591 204.488 103.118 203.847 103.914C205.668 103.902 207.287 103.885 208.905 103.869C208.965 104.071 209.036 104.269 209.096 104.471C207.698 105.028 206.27 105.547 204.898 106.155C202.066 107.405 201.872 107.859 202.223 110.587C202.385 111.837 202.354 113.132 202.287 114.404C202.259 114.946 202.031 115.858 201.669 115.973C198.848 116.906 199.698 118.755 199.789 120.424C200.078 125.406 200.377 130.383 200.656 135.37C200.758 137.21 200.165 138.373 197.714 138.941C196.198 139.29 194.76 140.553 193.591 141.652C191.171 143.915 188.904 146.308 186.658 148.713C185.116 150.366 183.521 152.023 182.307 153.842C180.335 156.806 177.912 159.129 173.876 159.309C172.194 159.389 170.975 161.557 169.14 160.281C167.823 159.37 166.675 158.259 165.291 157.449C160.249 154.507 155.13 151.672 150.076 148.744C148.926 148.073 147.928 147.205 146.913 146.464C145.248 146.288 143.423 146.414 141.945 145.881C135.495 143.555 128.613 142.623 121.723 141.667C117.693 141.111 113.833 140.33 110.222 138.521C107.995 137.4 104.981 137.327 102.283 136.976C99.6879 136.647 96.9791 136.735 94.4057 136.342C91.394 135.881 90.832 134.601 92.2 132.167C94.4353 128.184 92.9574 122.546 89.2353 120.075C87.7194 119.07 86.2892 118.958 84.4629 119.418C81.7107 120.122 79.5219 121.565 77.8743 123.508C75.3918 126.443 72.3944 128.876 69.0594 130.965C66.3804 132.65 66.7983 135.178 66.0808 137.351C65.793 138.212 66.745 139.321 67.0692 140.164C67.8687 140.146 68.2311 140.236 68.3801 140.122C70.9275 138.091 73.2019 138.179 75.7104 139.967C76.95 140.854 78.8025 141.106 80.4027 141.604C81.8878 142.062 82.9482 142.745 82.5436 144.594C76.4418 145.771 73.2919 149.298 73.2022 154.75C71.4867 155.134 70.0492 155.325 68.7112 155.78C66.7553 156.449 65.0955 156.411 63.5617 155.205C62.6777 154.506 61.5346 153.943 60.3556 154.841C58.0437 156.601 55.7571 156.754 53.6322 155.274C50.978 156.867 48.6971 156.841 46.7897 155.195C45.7209 154.282 44.6138 153.407 43.0943 152.158C46.309 151.322 48.6657 149.274 51.6555 151.077C52.9762 151.875 54.3183 151.101 55.1612 150.111C56.4801 148.565 57.8442 147.674 60.1889 149.314C60.8192 147.427 61.5083 146.132 61.6395 144.82C61.9561 141.727 61.803 141.802 58.6167 140.613C57.0235 140.019 55.6211 139.083 53.9276 138.201L52.6931 141.895C54.4757 141.898 56.013 141.766 57.4777 141.953C58.4115 142.07 59.6915 142.478 59.9865 143.102C60.3039 143.761 59.9527 145.195 59.324 145.621C58.5408 146.151 57.1808 146.008 56.0623 146.112C55.8333 146.134 55.6062 145.919 55.3754 145.819C52.4282 144.526 49.9083 145.156 47.8157 147.707C46.8028 147.163 45.7763 146.609 44.8144 146.092C44.498 146.247 44.1494 146.32 44.0708 146.479C41.7084 151.097 40.6683 151.324 37.1656 147.711C36.2132 146.731 35.71 145.402 35.0484 144.216C34.8305 143.821 34.9336 143.18 34.6075 142.931C30.9221 140.094 31.3132 136.013 31.1223 132.192C31.0141 130.116 29.4328 129.486 27.9206 128.725C24.9747 127.251 24.9317 127.303 25.116 123.559C26.7338 124.106 28.2014 124.591 29.6883 125.095C32.2191 123.114 30.2454 120.721 31.217 118.708C34.5731 119.057 35.152 118.857 37.7579 116.191C35.288 117.173 33.2917 117.964 31.285 118.76L31.2649 118.717ZM49.3864 128.478C55.1292 131.822 62.7313 129.654 65.459 124.198C66.3099 122.494 67.1184 121.07 69.2688 120.304C70.0637 120.019 70.9089 118.945 71.07 118.157C71.7679 114.664 67.0209 110.97 63.1096 111.822C62.7324 111.904 62.2643 112.028 62.0382 112.271C60.8712 113.567 58.9629 114.886 58.815 116.247C58.4927 119.255 56.3042 120.493 53.6097 121.687C53.8483 122.786 54.069 123.76 54.285 124.748C52.7259 125.94 51.1948 127.101 49.384 128.485L49.3864 128.478ZM36.124 104.023C37.6528 104.377 39.0133 105.106 40.2042 104.887C44.3806 104.135 48.5824 103.282 52.6213 102.022C56.2503 100.891 56.7448 97.8276 53.9602 95.7169C51.5641 93.8992 46.8739 93.9673 44.4535 96.078C41.7058 98.4788 39.1819 101.078 36.1185 104.015L36.124 104.023ZM40.4694 115.456C41.7948 116.954 42.7362 117.993 43.6441 119.055C44.6097 120.174 45.6089 120.631 47.3153 119.713C49.8427 118.354 52.5237 117.226 55.1319 115.983C55.4691 115.816 55.7358 115.529 56.1469 115.218C56.0301 114.342 55.9069 113.434 55.7709 112.539C55.7596 112.445 55.6117 112.377 55.3431 112.108C50.1395 111.287 45.5116 113.62 40.4614 115.455L40.4694 115.456ZM43.5522 140.574C42.7119 139.055 42.0695 137.887 41.419 136.719C40.9408 135.852 40.1944 134.945 39.0733 135.695C38.4885 136.092 38.1117 137.551 38.4592 138.094C39.4616 139.64 40.9483 140.859 43.5498 140.582L43.5522 140.574ZM177.302 105.062C175.562 103.578 174.285 103.185 172.514 103.71C172.885 106.609 174.849 105.432 177.302 105.062ZM25.0069 116.583C27.9325 116.714 28.0242 115.623 26.9044 113.611C26.1155 114.849 25.5612 115.716 25.0069 116.583ZM65.0354 79.5804C65.9041 79.0747 66.9088 78.7492 66.9384 78.4054C66.9851 77.8824 66.4952 77.1271 65.9641 76.9036C65.6127 76.755 64.4248 77.271 64.3011 77.6412C64.1442 78.1109 64.6737 78.7222 65.0378 79.5733L65.0354 79.5804Z" fill="#FAAB28"/>
<path d="M119.453 55.5168C118.295 54.1825 117.622 53.4124 116.679 52.3279C114.533 55.7354 111.832 56.1599 108.765 54.0518C105.497 57.6008 109.487 59.0395 110.313 61.8801C112.278 60.7483 113.687 59.8518 115.169 59.0922C116.455 58.4366 117.786 57.798 119.171 57.4064C120.745 56.9623 122.286 57.2267 122.398 58.9084C122.483 60.1887 125.183 60.7377 123.176 62.6826C122.317 62.2163 121.436 61.738 120.223 61.0772C118.634 63.3059 117.021 65.4766 115.529 67.6949C114.697 68.9311 113.95 70.2226 113.362 71.547C112.468 73.5843 111.179 75.3498 108.548 75.3326C106.096 75.3143 105.179 73.4133 104.435 71.7079C104.028 70.7796 103.996 69.7003 103.895 68.6752C103.785 67.5493 103.79 66.4092 103.746 65.4948C101.975 64.3612 99.1006 65.4807 98.7587 62.7246C103.043 60.0165 100.965 56.606 100.18 53.2638C101.597 52.8788 102.84 52.3743 104.116 52.234C106.341 51.985 108.064 51.2217 109.682 49.6989C112.408 47.1338 115.511 48.8005 118.322 49.2504C120.434 49.5944 120.153 51.7885 120.661 53.2551C120.809 53.6812 120.098 54.3791 119.466 55.5042L119.453 55.5168Z" fill="#FAAB28"/>
<path d="M100.392 40.4729C100.419 39.5502 100.205 38.5552 100.547 37.7125C100.934 36.7577 101.619 35.6283 102.538 35.1253C105.289 33.6078 108.211 34.5144 109.517 37.1952C110.329 37.0887 111.204 36.9724 112.326 36.8309C113.088 37.9466 114.011 38.8367 115.746 39.415C117.329 39.939 118.506 41.9314 119.167 43.5284C119.729 44.8844 118.03 45.7819 116.672 46.3997C115.485 46.9387 113.776 47.9408 113.085 46.7408C111.698 44.355 109.047 44.6001 106.774 43.9718C106.291 43.8342 105.854 43.5844 105.092 43.26C105.241 42.408 105.514 41.5133 105.5 40.6355C105.49 40.0019 105.103 39.3973 104.893 38.7757C104.117 39.0799 103.31 39.3244 102.579 39.6988C102.157 39.916 101.847 40.3315 101.484 40.6523C101.12 40.5925 100.758 40.5256 100.394 40.4658L100.392 40.4729ZM110.731 39.3323C110.402 39.3711 110.084 39.4044 109.755 39.4432C109.758 39.9458 109.761 40.4485 109.763 40.9512C110.102 40.907 110.73 40.8688 110.733 40.8086C110.802 40.3207 110.744 39.8295 110.729 39.3394L110.731 39.3323Z" fill="#FAAB28"/>
<path d="M121.977 48.064C123.602 47.3642 125.227 46.6644 127.239 45.8009C127.499 48.6999 132.588 48.2044 131.55 51.8707C128.24 54.3458 127.074 54.3109 125.913 51.0206C125.264 49.1827 123.688 48.9719 121.977 48.064Z" fill="#FAAB28"/>
<path d="M80.5878 133.342C77.8055 136.024 74.9953 135.727 72.0618 135.236C73.0629 131.73 75.6341 131.058 80.5878 133.342Z" fill="#FAAB28"/>
<path d="M91.3632 44.1808C93.3513 44.7428 94.1971 45.4801 93.7093 46.8631C93.2001 48.3102 91.847 48.427 90.5188 48.2141C89.2065 48.0045 88.3457 46.5717 89.1072 45.5951C89.6618 44.8801 90.8101 44.5081 91.3632 44.1808Z" fill="#FAAB28"/>
<path d="M7.66087 109.516C8.36575 107.789 9.36149 107.721 10.472 107.972C11.5529 108.21 12.5607 108.616 12.1564 109.826C11.7639 111 10.5554 111.17 9.53975 110.839C8.74842 110.577 8.16038 109.885 7.66087 109.516Z" fill="#FAAB28"/>
<path d="M84.2471 42.1366C85.8254 41.7544 86.8242 41.2679 87.632 41.4039C88.1556 41.4966 88.4068 42.507 88.7775 43.1084C87.8862 43.5029 86.9939 44.1559 86.1027 44.1928C85.6176 44.2146 85.1574 43.1916 84.2471 42.1366Z" fill="#FAAB28"/>
<path d="M94.2014 57.6461C95.1524 57.2258 95.9244 56.6774 96.1697 56.8116C96.7985 57.1771 97.2028 57.831 97.6955 58.3738C97.129 58.7668 96.269 59.5786 96.0485 59.4723C95.3816 59.1446 94.9628 58.4573 94.2014 57.6461Z" fill="#FAAB28"/>
<path d="M212.513 100.837C212.711 101.342 212.989 101.811 212.902 101.869C212.438 102.184 211.878 102.403 211.359 102.654C211.197 102.324 210.807 101.779 210.902 101.7C211.314 101.359 211.867 101.161 212.513 100.837Z" fill="#FAAB28"/>
<path d="M106.996 46.483C106.048 46.4093 105.097 46.3427 103.466 46.2195C105.299 44.7181 106.301 44.8334 107.274 45.6502C107.181 45.9278 107.088 46.2054 106.998 46.4759L106.996 46.483Z" fill="#FAAB28"/>
<path d="M85.108 151.042C85.4479 151.378 85.6726 151.599 85.8949 151.828C85.6114 152.013 85.2994 152.359 85.0528 152.331C84.7719 152.303 84.4536 151.979 84.3701 151.719C84.3259 151.596 84.7935 151.319 85.108 151.042Z" fill="#FAAB28"/>
</svg>
