<svg width="238" height="185" viewBox="0 0 238 185" fill="none" xmlns="http://www.w3.org/2000/svg">
<path d="M193.132 114.597C194.376 114.639 195.673 114.941 196.853 114.665C201.322 113.623 204.648 115.209 207.834 116.714C209.348 117.434 210.025 119.139 211.26 120.62C208.701 121.627 206.321 122.243 206.501 124.57C205.121 124.92 203.928 125.216 202.754 125.516C202.77 126.189 202.782 126.77 202.802 127.517C199.154 126.909 199.296 123.021 194.706 122.993C196.618 125.416 200.099 126.604 199.403 129.979C198.008 130.008 196.576 130.04 194.964 130.071C194.085 131.809 193.11 133.456 192.431 135.149C191.071 138.553 187.451 140.564 184.037 141.952C180.755 143.286 179.514 145.674 176.264 147.362C180.888 147.084 180.906 147.097 179.71 150.65C179.204 150.583 178.524 150.51 177.865 150.402C171.66 149.339 166.292 151.173 161.472 154.889C159.707 156.252 158.502 155.948 157.368 154.401C158.26 153.806 159.058 153.273 159.868 152.739C159.155 151.388 157.975 151.282 156.984 152.427C155.3 154.371 153.422 155.372 150.527 155.223C149.686 155.183 148.574 156.049 147.665 156.592C145.189 158.091 142.652 158.954 139.775 158.246C137.31 157.646 134.786 157.145 132.034 157.952C131.002 158.254 129.911 158.665 129.057 159.227C124.692 162.08 122.41 161.935 119.686 158.55C119.478 158.298 119.123 158.131 118.815 157.906C114.89 158.783 110.996 160.244 106.929 159.573C105.462 159.328 104.674 158.966 105.687 157.325C106.855 157.593 107.993 157.859 109.143 158.124C110.056 156.872 109.056 156.386 108.15 156.018C106.144 155.201 104.16 154.279 101.969 153.819C99.1934 153.235 97.362 151.793 95.5315 150.321C93.737 148.886 94.5097 147.181 97.2277 146.65C100.999 145.913 104.661 145.136 108.025 143.179C108.953 142.64 110.756 142.819 111.994 143.037C115.666 143.682 118.494 141.837 121.47 140.39C121.779 140.244 122.078 139.789 122.081 139.51C122.071 137.086 122.08 134.656 121.858 132.258C121.82 131.889 120.612 131.713 119.7 131.341C120.614 130.671 121.451 130.066 122.453 129.331C122.409 126.611 120.784 124.707 118.256 122.979C114.569 120.458 110.45 119.639 105.344 120.85C103.19 121.36 101.725 120.685 101.172 119.17C100.277 116.724 98.4534 114.836 96.2312 113.21C94.578 112.008 94.7309 110.314 94.5585 108.714C94.3279 106.61 93.9761 104.81 91.4762 103.544C88.8602 102.223 87.1049 99.9435 84.5214 98.5763C81.9622 97.2266 79.1113 96.0861 75.2801 97.5323C73.1105 98.3516 71.7868 96.9175 70.7939 95.6037C66.8632 90.4183 63.0143 85.1922 58.9257 80.1026C57.7453 78.6425 56.0971 77.2834 54.2231 76.4019C46.6292 72.8351 38.8615 69.4729 31.1645 66.0317C30.6024 65.7834 30.0785 65.5027 29.2064 65.069C30.2683 64.5977 30.9657 64.2924 32.0089 63.8275C30.3943 63.1648 28.9569 62.5809 27.5195 61.9969C27.5879 61.7959 27.6438 61.5958 27.7121 61.3947C29.2787 61.4208 30.8501 61.4904 32.4246 61.462C35.6727 61.4071 36.1168 61.0781 37.4425 58.5419C38.0493 57.3785 38.8534 56.2483 39.675 55.1508C40.0244 54.6828 40.7721 53.9628 41.1614 53.9952C44.2087 54.2154 44.5677 52.2701 45.4891 50.7637C48.2215 46.2618 50.9415 41.7609 53.6863 37.2579C54.6992 35.5976 55.9205 34.7907 58.4229 35.1965C59.9699 35.449 61.9957 34.8661 63.6855 34.3298C67.1774 33.2286 70.6128 31.9559 74.0364 30.6645C76.3878 29.7769 78.7883 28.905 80.9499 27.749C84.4667 25.8635 87.9974 24.7103 91.6661 26.0444C93.1975 26.5964 95.5733 25.1348 96.4268 26.9389C97.0426 28.2292 97.3883 29.634 98.1238 30.861C100.808 35.32 103.623 39.7146 106.326 44.1672C106.938 45.184 107.298 46.3188 107.749 47.3485C109.112 48.1193 110.798 48.6833 111.782 49.6997C116.077 54.1371 121.59 57.504 127.095 60.896C130.316 62.8771 133.253 64.9934 135.353 67.9248C136.647 69.7378 139.261 70.9168 141.431 72.2243C143.523 73.4746 145.965 74.3984 147.999 75.6973C150.38 77.2177 150.108 78.5547 147.442 80.196C143.082 82.8825 141.005 88.4026 142.806 91.9594C143.541 93.4064 144.735 94.0343 146.623 94.3035C149.472 94.701 152.269 94.2373 154.887 93.1327C158.837 91.4619 162.94 90.4241 167.135 89.8141C170.509 89.3188 171.656 86.9338 173.592 85.2826C174.362 84.6293 174.188 83.2987 174.407 82.4353C173.691 82.1553 173.425 81.942 173.226 81.9873C169.76 82.8371 167.807 81.918 166.666 79.4132C166.104 78.1724 164.621 77.2645 163.508 76.2341C162.473 75.2806 161.947 74.2862 163.412 72.8047C169.501 74.023 174.395 72.0761 177.743 67.2999C179.487 67.5953 180.87 67.9587 182.322 68.0525C184.449 68.1852 185.891 68.8324 186.521 70.4638C186.881 71.4079 187.552 72.3271 189.131 71.9707C192.226 71.2729 194.334 71.984 195.321 74.0757C198.618 73.6518 200.615 74.5185 201.31 76.6759C201.706 77.8763 202.158 79.0575 202.749 80.7213C199.412 80.2701 196.105 81.2049 194.549 78.5086C193.862 77.3169 192.214 77.5027 190.877 78.0646C188.786 78.9411 187.048 79.2221 185.963 76.9085C184.276 78.3393 182.891 79.2277 181.989 80.3365C179.855 82.9472 180.035 82.9377 182.133 85.1653C183.182 86.2791 183.858 87.6232 184.823 89.0273L188.127 86.225C186.556 85.5637 185.121 85.1116 183.941 84.4043C183.187 83.9563 182.303 83.1226 182.417 82.4632C182.532 81.7646 183.702 80.6295 184.512 80.4864C185.521 80.3077 186.635 80.9371 187.684 81.2588C187.899 81.3248 187.971 81.5977 188.114 81.772C189.939 84.0019 192.539 84.3786 195.915 82.902C196.483 83.7562 197.056 84.6245 197.594 85.437C197.966 85.4169 198.318 85.4817 198.482 85.3707C203.335 82.1705 204.389 82.3549 205.312 86.8377C205.565 88.0544 205.212 89.4125 205.084 90.7037C205.04 91.1327 204.565 91.6597 204.703 92.0006C206.253 95.866 203.461 99.3215 201.338 102.763C200.188 104.634 201.205 105.775 202.083 107.005C203.798 109.396 203.867 109.366 201.46 112.6C200.36 111.519 199.356 110.548 198.347 109.554C194.926 110.366 195.233 113.206 193.168 114.623C190.417 113.074 189.786 113.036 185.889 114.424C188.657 114.472 190.892 114.512 193.139 114.552L193.132 114.597ZM182.999 99.2844C179.938 94.2102 171.931 93.3118 166.253 97.1159C164.481 98.3042 162.914 99.2609 160.557 99.1418C159.685 99.0992 158.296 99.7337 157.681 100.37C154.971 103.193 156.943 108.208 160.905 108.902C161.287 108.969 161.774 109.033 162.119 108.903C163.926 108.191 166.4 107.733 167.347 106.587C169.435 104.053 172.107 103.77 175.201 103.713C175.649 102.655 176.039 101.715 176.44 100.763C178.531 100.288 180.578 99.8304 183.005 99.279L182.999 99.2844ZM180.034 125.762C178.897 124.885 178.134 123.739 176.953 123.491C172.817 122.61 168.599 121.809 164.28 121.427C160.401 121.082 158.128 123.602 159.318 126.494C160.342 128.983 164.521 130.658 167.921 129.691C171.785 128.589 175.57 127.23 180.034 125.772L180.034 125.762ZM183.056 114.07C182.786 112.258 182.578 110.994 182.414 109.721C182.233 108.376 181.626 107.603 179.57 107.783C176.525 108.046 173.483 108.051 170.437 108.182C170.04 108.204 169.633 108.359 169.083 108.481C168.661 109.298 168.225 110.144 167.808 110.984C167.762 111.071 167.852 111.186 167.928 111.522C172.026 114.171 177.507 113.825 183.062 114.074L183.056 114.07ZM195.399 90.771C195.229 92.4225 195.096 93.6897 194.969 94.9613C194.871 95.903 194.985 96.9792 196.424 96.7319C197.178 96.5981 198.386 95.4502 198.405 94.8424C198.447 93.1082 197.867 91.4826 195.405 90.7656L195.399 90.771ZM56.1145 72.6323C56.7588 74.5853 57.6498 75.4037 59.5271 75.5955C60.9383 72.9009 58.4998 73.2136 56.1145 72.6323ZM197.373 118.794C194.871 117.596 194.135 118.526 193.917 120.714C195.355 119.914 196.364 119.354 197.373 118.794ZM139.872 136.633C138.802 136.757 137.721 136.673 137.489 136.965C137.134 137.409 137.113 138.257 137.447 138.651C137.668 138.911 139.026 138.896 139.357 138.615C139.777 138.258 139.676 137.523 139.866 136.638L139.872 136.633Z" fill="#FAAB28"/>
<path d="M77.4384 137.734C77.6601 139.34 77.7917 140.268 77.9734 141.573C81.9094 139.361 84.5474 139.985 85.9889 142.979C90.9999 141.057 88.3425 138.312 89.3175 135.501C86.9051 135.773 85.1247 136.042 83.3614 136.164C81.834 136.267 80.2768 136.338 78.82 136.171C77.1657 135.981 75.9644 135.178 76.8739 133.653C77.5675 132.492 75.5143 131.009 78.4507 130.036C78.9294 130.765 79.4199 131.513 80.0935 132.544C82.8322 131.166 85.5566 129.847 88.2032 128.442C89.6777 127.659 91.1114 126.796 92.424 125.845C94.4344 124.379 96.6309 123.298 98.9414 124.287C101.093 125.209 100.763 127.226 100.396 129.005C100.198 129.975 99.5792 130.939 99.0537 131.88C98.4757 132.914 97.7872 133.918 97.2779 134.741C98.1609 136.396 101.368 136.472 100.016 139.029C94.6134 139.834 94.4008 143.611 93.09 146.85C91.6089 146.665 90.2093 146.65 88.9998 146.302C86.8877 145.699 84.9103 145.735 82.5696 146.48C78.6268 147.735 76.8883 145.117 74.6788 143.681C73.0219 142.596 74.5854 140.764 75.0165 139.282C75.1417 138.852 76.1874 138.499 77.4196 137.74L77.4384 137.734Z" fill="#FAAB28"/>
<path d="M85.2317 158.056C84.6549 158.86 84.2466 159.816 83.4402 160.433C82.5259 161.133 81.2447 161.876 80.1324 161.98C76.7954 162.301 74.761 160.42 75.2168 157.572C74.4365 157.366 73.5948 157.145 72.5198 156.855C72.5166 155.588 72.2364 154.462 71.0524 153.31C69.9705 152.263 70.1267 150.069 70.5013 148.416C70.8184 147.012 72.8557 146.849 74.4244 146.806C75.7948 146.77 77.903 146.518 77.7932 147.832C77.5862 150.449 80.0711 151.214 81.6996 152.608C82.0433 152.908 82.279 153.29 82.7566 153.858C82.115 154.555 81.3373 155.243 80.8231 156.023C80.4522 156.586 80.4307 157.262 80.2436 157.888C81.1103 157.907 81.9689 157.989 82.8381 157.93C83.3411 157.894 83.8633 157.642 84.376 157.493C84.6612 157.681 84.9401 157.874 85.2254 158.061L85.2317 158.056ZM75.4271 155.238C75.7403 155.325 76.0411 155.414 76.3543 155.501C76.6534 155.057 76.9524 154.612 77.2515 154.168C76.9259 154.081 76.3498 153.883 76.311 153.935C75.9574 154.34 75.7138 154.794 75.4335 155.233L75.4271 155.238Z" fill="#FAAB28"/>
<path d="M70.7425 143.375C68.8896 143.392 67.0366 143.408 64.7438 143.426C66.2529 140.772 61.4663 139.327 64.58 136.477C68.9844 135.518 69.992 135.98 69.0437 139.312C68.5139 141.173 69.7781 141.942 70.7425 143.375Z" fill="#FAAB28"/>
<path d="M158.391 83.4545C162.455 82.1168 164.755 83.4188 167.049 84.9364C164.063 87.6594 161.392 87.3014 158.391 83.4545Z" fill="#FAAB28"/>
<path d="M95.4216 158.124C94.0047 156.893 93.7007 155.93 94.9603 154.89C96.2773 153.802 97.5409 154.199 98.585 154.878C99.617 155.549 99.5172 157.131 98.2598 157.711C97.3417 158.136 96.1057 158.04 95.4216 158.124Z" fill="#FAAB28"/>
<path d="M208.439 131.445C206.782 132.707 205.862 132.399 205.033 131.766C204.223 131.157 203.577 130.426 204.659 129.508C205.709 128.617 206.877 128.915 207.575 129.583C208.116 130.106 208.219 130.934 208.439 131.445Z" fill="#FAAB28"/>
<path d="M100.472 162.559C98.85 162.312 97.6772 162.372 97.0461 161.953C96.6398 161.678 97.0241 160.694 97.0577 160.026C98.0805 160.008 99.2592 159.762 100.068 160.059C100.509 160.219 100.301 161.291 100.472 162.559Z" fill="#FAAB28"/>
<path d="M100.991 145.195C99.9003 145.214 98.8904 145.413 98.7545 145.203C98.419 144.649 98.4544 143.922 98.3453 143.261C99.0807 143.124 100.326 142.726 100.457 142.901C100.849 143.437 100.806 144.198 100.991 145.195Z" fill="#FAAB28"/>
<path d="M22.5198 63.3364C22.6477 62.8176 22.6827 62.3015 22.7948 62.2827C23.3929 62.1761 24.0182 62.1895 24.6263 62.1604C24.5718 62.5119 24.5891 63.1363 24.4579 63.1712C23.8895 63.3195 23.2833 63.2898 22.5198 63.3364Z" fill="#FAAB28"/>
<path d="M83.0101 150.312C83.8023 150.727 84.6009 151.138 85.966 151.85C83.4488 152.496 82.6336 152.024 82.2652 150.944C82.5135 150.733 82.7618 150.522 83.0037 150.317L83.0101 150.312Z" fill="#FAAB28"/>
<path d="M165.016 66.1681C164.918 65.7459 164.852 65.4677 164.793 65.1842C165.154 65.1259 165.637 64.9358 165.837 65.0516C166.069 65.1797 166.155 65.5832 166.072 65.844C166.037 65.9689 165.459 66.0397 165.016 66.1681Z" fill="#FAAB28"/>
</svg>
