<svg width="188" height="137" viewBox="0 0 188 137" fill="none" xmlns="http://www.w3.org/2000/svg">
<path d="M131.927 47.2026C132.245 46.6785 132.403 45.9971 132.923 45.6675C133.475 45.3161 134.38 45.1503 135.113 45.1768C136.303 45.2188 137.475 45.4819 138.512 45.6356C139.93 46.3967 141.286 47.1593 142.693 47.8615C143.506 48.2681 144.398 48.5362 144.312 49.5038C144.172 51.1159 145.638 52.0195 146.863 53.1145C148.801 52.7564 148.915 50.0473 151.695 50.8985C152.369 52.5202 150.18 53.1137 149.605 54.3891C150.327 55.074 151.053 55.7544 151.761 56.4269C150.546 57.2675 149.017 57.2922 147.177 56.5011C145.538 57.0982 145.341 58.1118 145.73 59.3925C146.121 60.6802 147.163 61.1612 148.721 61.1722C149.869 61.1771 151.008 61.1722 152.13 61.1712C153.017 62.9926 152.917 63.6885 151.278 63.9235C149.463 64.1872 148.449 64.8524 147.82 66.1392C147.66 66.4701 147.093 66.6759 146.469 67.1149C150.699 68.4647 155.65 68.787 157.617 72.8971C156.131 73.8591 154.869 75.213 155.042 76.962C154.02 77.8463 151.668 77.2684 151.861 79.0744C151.583 79.0865 151.234 79.018 151.038 79.1275C150.603 79.3631 150.241 79.6865 149.843 79.9753C150.295 80.2779 150.692 80.7178 151.213 80.8532C152.189 81.1113 153.298 81.0863 154.256 81.3786C155.447 81.7407 156.045 82.4172 155.659 83.5617C155.382 84.3938 155.802 85.4353 155.329 86.148C154.606 87.2293 153.377 88.1034 152.212 89.2121C153.21 89.8965 155.805 89.5542 155.656 91.6144C154.823 93.5197 152.535 93.6036 150.282 93.7642C152.876 96.828 152.103 97.4583 156.343 96.3649C156.956 97.412 156.837 98.4349 155.986 99.4336C156.962 99.5048 157.837 99.5664 159.092 99.656C158.753 100.768 158.604 101.749 158.156 102.635C157.686 103.561 156.53 104.294 155.379 103.775C152.799 102.623 150.234 103.455 147.663 103.434C146.985 103.426 146.285 103.324 145.634 103.166C141.502 102.162 138.278 99.9084 134.65 98.2119C134.119 97.9639 133.582 97.725 132.864 97.3977C132.565 97.9064 132.294 98.3253 132.075 98.7561C131.002 100.871 130.07 100.959 128.204 99.1012C127.349 98.2533 126.526 97.3836 125.656 96.5349C125.339 96.2273 124.934 95.9645 124.284 95.463C124.055 96.1363 123.891 96.5558 123.771 96.9774C123.242 98.8765 121.95 99.2641 119.933 98.0671C118.754 97.3668 117.686 96.5482 116.507 95.8479C116.05 95.5731 115.424 95.4747 114.583 95.1998C114.783 97.8168 114.964 100.178 115.156 102.659C113.411 103.057 112.487 102.377 111.574 101.327C110.508 100.1 109.238 98.9723 107.979 97.8616C107.158 97.1439 106.054 96.7065 104.828 97.1183C101.952 98.0916 100.211 96.8218 98.5537 95.2944C98.2792 95.0426 97.9785 94.7849 97.8057 94.4891C95.2372 90.1649 90.0135 88.8925 84.8832 87.4938C80.8389 86.3913 77.0749 89.2087 77.8214 92.1656C78.0658 93.1331 78.0584 94.1607 78.0209 95.1564C77.8813 98.7824 74.3311 100.407 70.4582 98.5328C69.0635 97.8546 67.8303 96.8643 66.8265 95.8338C65.4791 94.4478 64.6068 92.772 63.2022 91.4322C61.4684 89.7796 59.6389 88.0592 57.4094 86.8798C53.3332 84.7198 50.5556 81.904 49.123 78.2967C48.4832 76.6907 47.2566 75.8058 45.4627 75.0964C41.0124 73.3386 36.5231 71.6232 32.2204 69.6553C27.556 67.5225 23.0167 65.1997 18.5705 62.7925C17.0559 61.9753 16.0644 60.5647 13.8227 60.7725C13.709 60.7809 13.1189 59.71 13.3398 59.4008C13.7008 58.9022 14.5506 58.6145 15.2964 58.1768C13.1812 55.2229 13.84 52.2134 15.4788 49.1867C15.9049 48.3922 16.2097 47.44 16.0952 46.598C15.8095 44.6169 16.7697 43.2038 18.7409 42.095C21.5901 40.4943 24.4393 38.8936 27.2747 37.2805C27.9599 36.8936 28.6862 36.5133 29.2513 36.0294C31.3163 34.2641 32.9978 32.3841 31.9659 29.7614C31.6566 28.9752 31.6171 28.1252 31.4142 27.3093C30.659 24.3123 32.7501 22.2935 36.6362 22.2809C38.5878 22.2785 39.5937 23.1712 39.267 24.8489C38.9628 26.3923 39.6096 27.5734 40.8909 28.7063C42.4974 30.126 43.9216 31.6677 45.4776 33.1247C48.0496 35.5333 50.3846 38.1173 54.5067 39.1768C56.3956 39.6643 58.0132 40.7575 59.8798 41.3374C62.5275 42.1587 65.2841 42.7705 67.9931 43.4571C71.2123 44.2738 74.4187 45.1389 77.6774 45.8711C82.0406 46.8537 85.5358 49.0623 89.3371 50.8257C93.8265 52.9149 98.3105 53.838 103.593 52.7678C106.165 52.2469 108.716 52.0052 110.876 50.6626C112.131 49.8785 112.695 48.8759 112.989 47.6895C113.251 46.6394 112.743 45.7384 111.719 45.326C110.927 45.0068 109.749 45.157 108.783 45.2895C108.212 45.3666 107.772 45.8894 107.195 46.0667C106.68 46.2236 106.059 46.1815 105.487 46.2282C105.434 45.6976 105.104 45.053 105.374 44.6574C106.003 43.7444 106.925 42.9533 108.129 41.6994C106.489 41.9647 105.537 42.1212 104.271 42.3278C104.858 41.0764 105.332 40.0623 105.937 38.7767C107.483 39.3432 108.969 39.8879 111.093 40.6696C110.624 39.6117 110.41 39.1223 110.17 38.5849C110.401 38.449 110.614 38.2445 110.884 38.169C112.043 37.859 113.448 38.0237 114.19 36.9271C114.375 36.6558 115.179 36.3892 115.528 36.4881C118.062 37.2034 119.486 35.9416 121.037 34.7678C121.493 34.4211 122.192 34.2754 123.289 33.8293C123.036 35.2513 122.865 36.2101 122.694 37.1689C122.277 39.487 122.175 41.629 125.606 42.8136C127.167 43.3503 127.321 44.512 125.978 45.4367C124.697 46.3177 124.206 47.2514 124.484 48.5056C124.67 49.3441 124.191 49.7949 123.398 50.3797C120.005 52.8719 116.762 55.493 113.472 58.0743C113.253 58.2458 113.056 58.4814 112.978 58.7112C111.976 61.6664 109.353 63.5213 105.828 64.9463C106.393 67.7845 108.075 69.9859 110.828 71.6816C111.994 72.3999 113.36 72.9085 114.538 73.6204C115.356 74.1137 116.315 74.6957 116.651 75.4037C117.601 77.38 119.679 78.0263 121.89 78.6908C123.035 79.0319 124.299 79.4514 125.074 80.1365C126.272 81.1952 127.426 81.2751 129.029 80.9145C131.104 80.4439 133.254 80.1826 135.423 80.1045C136.558 79.3798 137.765 78.7124 138.805 77.9084C139.34 77.4954 139.987 76.7656 139.85 76.3173C139.585 75.4306 138.477 75.1122 137.307 75.2721C136.579 75.3742 135.885 75.6065 135.158 75.739C134.228 75.9061 133.255 76.2158 132.37 76.114C131.557 76.0203 130.555 75.5997 130.126 75.0788C129.5 74.3168 130.267 73.6839 131.166 73.2678C132.719 72.5473 134.26 71.8029 135.837 71.1233C137.22 70.53 137.664 69.7318 136.776 68.6696C135.364 66.9767 136.082 65.5378 137.424 64.0757C138.195 63.2398 138.77 62.2961 139.463 61.3582C136.594 62.0515 134.008 62.705 131.394 63.2917C130.924 63.3971 130.331 63.3377 129.844 63.218C126.494 62.4323 123.412 58.73 123.786 55.9823C123.984 54.4992 124.374 54.1585 127.072 53.1881C127.085 52.9412 127.125 52.6277 127.126 52.3147C127.132 52.016 127.106 51.7087 127.098 51.4396C130.789 50.7874 132.848 50.1408 133.276 49.4999C132.837 48.7331 132.393 47.9637 131.95 47.2014L131.93 47.2285L131.927 47.2026ZM151.462 86.8508C151.521 86.5944 151.584 86.3334 151.637 86.0744C150.442 85.656 149.291 85.0108 148.042 84.8631C144.157 84.4063 143.955 84.2234 145.433 81.3103C145.49 81.1916 145.332 81.0109 145.21 80.7083C142.908 80.3641 140.854 81.1698 139.102 82.1375C136.286 83.6932 133.342 84.051 130.068 83.5891C129.121 83.4585 127.994 83.1556 127.095 84.1324C128.454 85.1499 129.915 85.9972 130.961 87.0952C132.018 88.21 132.66 89.5638 133.486 90.8144C133.534 90.8845 133.606 90.9534 133.675 91.0153C136.004 93.1083 138.871 94.5782 142.188 95.5118C142.59 95.6227 143.102 95.4702 143.954 95.4185C142.931 94.0601 142.105 92.966 141.172 91.7147L140.482 92.6481C139.189 91.8954 137.996 91.1828 136.771 90.5036C136.252 90.2189 135.467 90.1079 135.172 89.7383C134.852 89.3395 134.696 88.388 134.941 88.2646C137.071 87.2103 138.515 85.1434 141.726 85.3173C141.89 85.6874 142.099 86.0481 142.209 86.4296C142.562 87.6338 143.688 88.1048 145.051 87.9427C147.213 87.6867 149.33 87.2228 151.471 86.8489L151.462 86.8508ZM145.279 91.8087C146.677 93.8631 147.873 93.7511 151.107 91.3189C149.029 91.4926 147.202 91.6483 145.279 91.8087Z" fill="white"/>
<path d="M55.8641 97.6942C55.9094 98.9206 56.1696 100.136 55.9519 101.303C55.5792 103.334 55.9641 104.516 58.1514 105.441C59.9186 106.187 61.2429 106.929 61.5171 108.718C61.8044 110.603 63.9589 110.109 65.6542 110.038C66.6244 111.716 64.1475 112.076 63.8312 113.21C63.4922 114.405 62.9887 115.575 62.4663 117.018C63.2987 117.886 64.2874 118.958 65.3323 119.995C67.0754 121.718 66.1169 124.531 63.479 125.233C62.5884 125.472 61.629 125.565 60.5552 125.751C60.4114 126.101 60.2647 126.487 60.0893 126.859C59.6236 127.852 58.6499 128.089 57.5325 127.701C56.5769 127.373 55.618 126.936 54.8529 126.382C50.8982 123.518 46.0409 122.539 40.8873 122.107C39.7822 122.013 38.693 121.793 37.4931 121.62C37.5367 120.959 37.5715 120.559 37.5824 120.16C37.6316 118.307 37.1826 118.042 34.8056 118.381C33.6653 118.542 32.4849 118.685 31.3416 118.622C30.7318 118.585 29.9728 118.179 29.6577 117.764C29.4688 117.521 29.947 116.895 30.2518 116.504C30.5142 116.159 31.067 115.941 31.2974 115.588C32.1913 114.223 30.7529 112.783 28.6644 112.898C27.1227 112.983 26.1987 112.419 25.8926 111.206C26.8428 110.928 27.8625 110.712 28.7781 110.346C30.5201 109.651 31.0512 108.621 30.0705 107.299C28.2548 104.844 28.7875 102.597 30.4334 100.267C31.1681 99.2209 31.4884 97.9984 31.9958 96.8552C32.464 96.9903 32.7397 97.0015 32.8294 97.1087C33.4617 97.8733 33.9251 98.7417 35.4789 98.4675C36.8126 98.2316 36.9127 97.4211 37.2236 96.6164C37.8013 95.1495 38.6755 93.3958 40.9046 93.6827C43.6314 94.0337 46.2434 93.8441 48.9153 93.8747C49.8993 93.8833 50.8656 95.1618 52.197 96.1126C52.7098 95.7616 53.8881 95.3101 53.8678 94.8909C53.8284 94.0409 53.3484 93.0806 52.6618 92.3998C52.0112 91.7534 50.8753 91.4104 49.8236 90.8705C51.0486 89.4938 52.3609 90.0862 52.9255 90.8801C53.9121 92.2765 55.1122 92.3354 56.8789 92.116C59.6974 91.7613 62.0952 92.6195 63.7558 94.4437C64.2893 95.0306 64.3775 95.8666 64.8483 97.0158C62.021 96.5827 59.9693 94.6645 57.5627 96.4972C57.4215 97.2005 56.8575 97.5965 55.8708 97.6851L55.8641 97.6942ZM40.9573 97.734C42.2751 98.5579 43.0129 98.7436 43.5825 98.0146C43.7059 97.8478 43.3162 97.2119 43.256 97.2206C42.6369 97.3 42.04 97.474 40.9573 97.734ZM46.8594 96.9465C46.6351 96.6995 46.4756 96.3856 46.3356 96.3881C46.0704 96.3938 45.701 96.5509 45.5982 96.7211C45.523 96.8435 45.7716 97.2342 45.9532 97.2688C46.1703 97.3075 46.4603 97.1021 46.8685 96.9446L46.8594 96.9465Z" fill="white"/>
<path d="M120.589 107.938C119.37 108.944 118.156 109.952 116.816 111.059C117.375 112.972 118.393 113.37 120.922 112.576C121.4 113.445 121.75 114.364 122.365 115.151C123.459 116.548 123.389 116.986 121.594 117.627C121.304 117.729 120.954 117.745 120.697 117.875C120.03 118.216 118.952 118.532 118.842 118.982C118.586 119.993 119.791 120.326 120.812 120.616C121.211 120.732 121.732 120.722 122.007 120.932C122.507 121.305 123.245 121.822 123.195 122.221C123.13 122.777 122.468 123.704 121.983 123.737C118.673 123.957 117.848 125.498 117.867 127.798C117.882 128.92 117.146 129.905 115.585 130.242C114.153 130.548 113.118 129.913 112.202 129.2C111.115 128.355 111.285 127.419 112.03 126.463C112.229 126.204 112.276 125.87 112.443 125.458C111.287 125.298 110.283 125.16 108.906 124.966C108.784 126.544 108.572 128.088 108.565 129.634C108.564 130.725 108.266 131.638 107.004 132.171C105.754 132.699 104.566 132.531 103.474 131.786C101.924 130.736 99.2761 130.776 98.8547 128.595C94.735 130.086 93.5073 127.344 91.6652 125.744C90.0477 124.35 90.2085 124.236 87.5366 124.019C89.5055 121.293 87.9473 118.967 86.2777 116.656C86.176 116.514 86.124 116.345 86.0562 116.188C84.2012 111.833 86.0856 108.972 91.8053 108.048C92.9383 107.865 94.4513 108.778 95.6542 109.362C96.1954 109.627 96.3893 110.331 96.8301 110.96C99.0018 110.473 100.433 109.274 101.895 108.127C102.413 107.717 102.774 107.177 103.324 106.807C104.44 106.055 105.648 105.907 106.627 106.95C107.587 107.967 108.871 108.317 110.39 108.588C111.766 108.835 113.017 109.52 114.491 110.071C115.218 109.004 115.087 107.208 117.167 107.095C118.293 107.036 119.473 107.683 120.628 108.01L120.596 107.929L120.589 107.938ZM114.554 115.478C112.97 116.323 113.364 117.275 113.745 118.256C114.043 119.025 114.09 120.011 112.828 120.014C110.257 120.024 110.822 121.783 109.842 122.517C111.269 122.643 112.486 122.752 113.762 122.864C117.19 119.67 117.302 118.853 114.554 115.478ZM104.427 122.677C103.027 122.702 102.126 122.851 102.057 124.159C103.368 124.129 104.111 123.811 104.427 122.677Z" fill="white"/>
<path d="M120.621 108.021C120.102 106.729 119.554 105.497 117.523 105.149C117.101 105.077 116.83 104.447 116.829 103.669C117.675 103.958 118.526 104.25 119.586 104.613L121.386 102.178C123.149 103.084 124.755 103.841 126.259 104.713C127.3 105.32 128.172 105.531 129.438 105.023C131.137 104.345 133.413 104.539 134.307 102.872C136.906 103.334 139.474 103.287 141.455 104.781C142.864 105.845 144.192 106.873 144.347 108.511C144.381 108.84 144.404 109.182 144.546 109.488C145.819 112.336 145.705 112.615 142.506 114.304C142.242 114.443 141.896 114.538 141.726 114.726C138.612 118.201 134.522 116.246 130.739 115.944C130.443 115.917 130.088 115.786 129.9 115.603C127.029 112.872 122.755 111.188 120.592 107.935L120.624 108.016L120.621 108.021Z" fill="white"/>
<path d="M85.1017 97.6249C87.7901 99.0557 88.0977 101.36 89.0714 103.293C89.6387 104.426 87.4281 106.077 85.5291 106.278C82.7778 106.573 80.366 104.768 81.0127 102.657C81.5984 100.754 82.2837 98.7576 85.105 97.6204L85.1017 97.6249Z" fill="white"/>
<path d="M135.418 44.4653C133.922 43.2285 133.472 41.9986 134.351 40.8619C135.372 39.543 137.147 38.845 139.161 38.799C139.552 38.7901 140.261 39.1917 140.294 39.4479C140.352 39.8783 140.095 40.6717 139.778 40.7379C137.432 41.242 136.897 43.0356 135.418 44.4653Z" fill="white"/>
<path d="M136.623 34.1629C137.74 33.2131 140.512 34.9353 140.371 32.3633C141.315 32.6245 141.869 32.6844 142.274 32.9051C143.298 33.4623 143.422 34.4356 142.255 34.6026C140.504 34.8531 140.824 36.1024 140.007 36.7188C137.113 36.5325 136.826 36.3175 136.62 34.1674L136.623 34.1629Z" fill="white"/>
<path d="M77.7745 110.507C79.5044 112.508 79.6644 113.901 78.4032 114.984C77.9784 115.351 76.9083 115.49 76.249 115.364C75.8684 115.287 75.3642 114.37 75.5295 114.011C76.0366 112.91 76.8458 111.898 77.7655 110.509L77.7745 110.507Z" fill="white"/>
<path d="M133.75 36.5852C133.537 37.6518 133.395 38.6845 133.081 39.6806C132.986 39.9867 132.417 40.3606 132.025 40.3928C131.615 40.4287 130.818 40.1256 130.776 39.9017C130.611 39.0549 130.407 38.1057 130.728 37.3295C131.119 36.3744 132.261 36.1174 133.75 36.5852Z" fill="white"/>
<path d="M114.177 33.3396C115.003 32.6372 115.419 32.0852 116.037 31.8001C117.096 31.3124 118.24 30.8032 119.418 30.653C120.44 30.5279 121.208 31.2641 121.02 32.089C120.94 32.4681 119.981 33.0799 119.591 33.0047C118.231 32.7465 117.198 33.0228 116.116 33.6146C115.845 33.7625 115.217 33.5004 114.171 33.337L114.177 33.3396Z" fill="white"/>
<path d="M147.181 45.4884C146.188 46.5727 144.429 46.8439 143.652 46.1399C143.274 45.799 143.089 45.0634 143.283 44.6454C143.68 43.8074 145.517 43.6382 146.514 44.3343C146.934 44.6282 147.028 45.2075 147.181 45.4884Z" fill="white"/>
<path d="M135.437 33.8563C134.498 34.4715 134.022 35.0018 133.405 35.1304C132.688 35.2798 131.827 35.1464 131.081 34.9814C130.909 34.9449 130.747 34.0936 130.959 33.9427C131.59 33.4831 132.369 33.0003 133.172 32.8902C133.696 32.8154 134.365 33.3739 135.433 33.8608L135.437 33.8563Z" fill="white"/>
<path d="M104.576 103.816C103.372 103.929 102.559 104.198 101.942 104.025C100.979 103.749 100.428 102.895 101.147 102.276C101.569 101.913 102.817 101.958 103.59 102.118C103.967 102.199 104.115 102.966 104.576 103.816Z" fill="white"/>
<path d="M113.15 32.341C112.1 32.3806 111.289 32.5838 111.067 32.386C110.614 31.9807 110.48 31.3527 110.207 30.8183C110.827 30.6968 111.713 30.3175 112.011 30.5073C112.523 30.8315 112.677 31.5165 113.147 32.3455L113.15 32.341Z" fill="white"/>
<path d="M148.543 48.2248C149.337 49.3828 149.477 50.2003 148.116 50.7129C147.809 50.8264 146.964 50.6097 146.851 50.3892C146.288 49.3127 147.07 48.753 148.539 48.2293L148.543 48.2248Z" fill="white"/>
<path d="M130.858 64.2158C131.619 64.141 132.386 64.0688 133.736 63.9364C133.261 65.0345 133.01 65.6133 132.632 66.4778C131.886 65.8665 131.37 65.444 130.859 65.0241C130.859 64.7532 130.86 64.4822 130.861 64.2112L130.858 64.2158Z" fill="white"/>
<path d="M126.569 37.4755C126.465 36.5779 126.957 36.1816 127.953 36.2982C128.18 36.3233 128.558 36.8091 128.482 36.9853C128.14 37.7698 127.408 37.7736 126.565 37.48L126.569 37.4755Z" fill="white"/>
<path d="M152.533 66.1409C152.74 66.6393 153.116 67.0759 152.963 67.3137C152.8 67.5651 151.892 67.8383 151.761 67.736C151.376 67.4462 151.22 66.9713 150.973 66.569C151.423 66.4485 151.876 66.3236 152.53 66.1454L152.533 66.1409Z" fill="white"/>
<path d="M119.068 100.132C117.094 100.04 116.889 99.3316 117.446 98.1207C119.133 98.2689 119.187 99.0472 119.068 100.132Z" fill="white"/>
<path d="M129.768 49.3109C129.73 49.6735 129.857 50.1773 129.611 50.3545C129.333 50.5535 128.711 50.4505 128.244 50.4791C128.222 50.1252 128.041 49.7051 128.223 49.4384C128.442 49.1104 128.964 48.914 129.359 48.6601C129.496 48.8794 129.633 49.0987 129.774 49.3135L129.768 49.3109Z" fill="white"/>
<path d="M150.354 44.7462C150.084 45.1115 149.811 45.4812 149.518 45.8359C149.508 45.8495 149.04 45.6723 149.051 45.6472C149.211 45.2438 149.415 44.8543 149.612 44.4622C149.858 44.556 150.103 44.6498 150.352 44.7391L150.354 44.7462Z" fill="white"/>
<path d="M123.033 118.308C123.167 118.863 123.252 119.215 123.332 119.565C122.859 119.591 122.349 119.72 121.933 119.609C121.703 119.546 121.443 118.921 121.541 118.851C121.868 118.627 122.352 118.533 123.024 118.309L123.033 118.308Z" fill="white"/>
<path d="M131.04 41.9549C130.441 42.0072 129.95 42.1629 129.746 42.0338C129.502 41.8864 129.516 41.4831 129.42 41.1982C129.792 41.1208 130.236 40.9138 130.52 41.0071C130.761 41.0867 130.817 41.5097 131.046 41.9576L131.04 41.9549Z" fill="white"/>
<path d="M158.117 93.1154C157.629 93.2362 157.202 93.409 157.138 93.3498C156.857 93.0652 156.673 92.7222 156.452 92.3985C156.712 92.3062 157.128 92.0862 157.201 92.1435C157.526 92.3883 157.753 92.7146 158.111 93.1128L158.117 93.1154Z" fill="white"/>
<path d="M159.81 89.3902C159.098 89.4813 158.577 89.6659 158.406 89.5454C158.105 89.3298 158.017 88.9286 157.835 88.6044C158.185 88.5049 158.66 88.2457 158.867 88.3399C159.211 88.497 159.386 88.8838 159.804 89.3876L159.81 89.3902Z" fill="white"/>
<path d="M146.474 42.7239C146.094 42.7192 145.691 42.7764 145.334 42.6982C145.092 42.6419 144.918 42.3999 144.118 41.7698C145.435 41.9606 146.04 42.0441 146.643 42.1321C146.589 42.3302 146.534 42.5283 146.474 42.7239Z" fill="white"/>
<path d="M148.928 59.8015C148.416 59.9654 148.022 60.1655 147.935 60.1075C147.673 59.9219 147.532 59.6348 147.341 59.3849C147.583 59.2964 147.9 59.0855 148.059 59.14C148.351 59.2431 148.56 59.5008 148.928 59.8015Z" fill="white"/>
<path d="M122.409 29.5267C121.728 29.6076 121.245 29.773 121.09 29.6603C120.88 29.4982 120.853 29.1303 120.889 28.8636C120.902 28.7732 121.456 28.6159 121.611 28.6866C121.88 28.8096 122.021 29.0967 122.409 29.5267Z" fill="white"/>
<path d="M131.948 47.1749C131.382 46.8925 130.812 46.6147 130.252 46.335L130.824 45.8728C131.196 46.3137 131.566 46.7475 131.941 47.1955C131.938 47.2 131.958 47.173 131.958 47.173L131.948 47.1749Z" fill="white"/>
</svg>
