<svg width="211" height="312" viewBox="0 0 211 312" fill="none" xmlns="http://www.w3.org/2000/svg">
<path d="M132.003 133.988C132.631 132.986 132.951 131.899 134.964 131.877C136.939 131.855 136.496 130.137 137.389 129.223C138.916 128.811 140.5 128.381 142.028 127.97C144.228 126.243 140.88 124.826 142.266 122.984C138.949 122.498 139.9 119.85 138.635 118.136C140.562 119.078 142.499 120.02 144.426 120.961C144.564 120.822 144.711 120.682 144.849 120.542L142.982 118.916C144.761 115.992 145.459 115.956 148.256 118.518C150.663 118.386 150.924 116.989 151.014 115.543C152.28 115.238 153.446 114.956 154.677 114.663C154.96 115.034 155.211 115.371 155.386 115.607C156.595 115.294 157.772 114.996 158.95 114.691C159.099 114.854 159.253 115.013 159.401 115.176C158.558 116.259 157.711 117.339 156.886 118.43C156.544 118.877 156.122 119.331 155.976 119.815C155.696 120.719 156.562 121.339 157.677 121.079C158.089 120.985 158.426 120.626 158.836 120.547C159.421 120.437 160.038 120.472 160.643 120.446C160.635 120.917 160.695 121.396 160.585 121.862C160.512 122.175 160.191 122.465 159.854 122.951C161.41 124.071 162.934 125.164 164.757 126.476C164.685 126.681 164.609 127.285 164.269 127.801C163.269 129.327 162.731 129.285 161.073 128.293C159.907 127.596 158.429 127.154 157.002 126.782C152.907 125.711 152.889 125.745 152.812 122.746C151.713 123.038 150.589 123.34 149.258 123.697C150.777 124.744 150.463 125.919 149.237 127.188C148.244 128.216 147.705 129.288 148.524 130.563C149.101 131.459 148.574 132.383 147.536 133.146C146.999 133.54 146.622 134.075 145.92 134.812C147.323 134.996 148.351 135.129 149.397 135.269C150.329 136.902 151.516 138.346 154.2 138.23C154.557 140.568 154.003 141.834 152.54 142.028C152.834 139.528 151.091 138.739 148.13 138.48C146.802 138.362 145.746 137.065 144.151 136.036C144.361 137.248 144.531 138.242 144.748 139.513C142.498 140.09 140.298 140.746 138.06 141.209C135.837 141.668 133.921 142.411 132.052 143.565C130.012 144.819 127.601 145.701 125.348 146.746C124.461 147.155 123.576 147.556 122.699 147.965C120.879 148.817 119.983 149.888 120.217 151.634C120.738 155.623 121.739 159.393 125.376 162.318C126.019 162.836 126.676 163.535 126.805 164.233C127.383 167.434 130.014 169.408 132.957 171.26C133.891 171.847 134.676 172.581 135.709 173.38C134.432 174.136 133.564 174.645 132.392 175.333C132.932 175.988 133.377 176.618 133.927 177.181C135.216 178.497 135.943 179.85 135.272 181.687C134.976 182.51 135.176 183.63 135.714 184.342C136.857 185.832 138.251 187.222 139.764 188.499C141.282 189.779 143.018 190.906 144.745 192.025C145.365 192.432 146.183 192.692 146.973 192.894C149.309 193.504 151.675 194.058 154.457 194.739C153.213 195.649 153.066 196.359 153.648 197.343C154.955 199.57 153.503 201.473 150.31 201.949C149.807 202.023 148.765 201.625 148.765 201.4C148.746 198.987 146.11 198.886 144.207 198.082C143.333 197.714 142.07 197.092 142.047 196.502C141.985 194.839 140.469 194.298 139.263 193.381C137.439 191.985 135.916 190.349 134.238 188.836C133.583 188.249 132.844 187.714 132.048 187.079C130.514 188.398 131.839 190.273 129.414 191.017C127.064 189.606 127.509 186.527 124.606 185.028C124.248 185.613 124.002 185.9 123.904 186.209C123.643 187.029 123.208 187.915 122.019 187.741C121.21 187.623 120.327 187.013 119.942 186.419C118.993 184.947 118.291 183.363 116.591 182.275C115.186 183.481 113.986 184.522 112.767 185.554C111.407 186.707 111.316 187.984 111.482 189.461C110.267 187.514 108.97 185.597 107.857 183.614C106.977 182.043 105.912 180.647 104.129 179.604C103.379 179.168 102.559 178.571 102.315 177.898C101.495 175.65 99.6121 174.17 97.3042 172.863C94.5409 171.293 92.0112 169.466 89.1694 167.988C86.3971 166.544 85.2145 166.754 82.9283 168.951C81.5777 170.245 80.5688 171.771 79.532 173.238C77.7197 175.798 75.5622 176.867 72.212 176.721C70.0354 176.626 68.8999 176.005 68.7213 174.334C68.57 172.903 68.7247 171.405 69.0299 169.961C69.9117 165.804 68.0697 162.616 64.4146 159.943C63.35 159.166 62.2953 158.256 61.7238 157.222C60.295 154.637 59.1569 151.945 57.7056 148.896C59.7619 150.311 61.4684 151.479 63.1705 152.643C63.7352 153.026 64.2277 153.531 64.8935 153.751C65.5165 153.958 66.4087 154.032 67.0229 153.83C67.404 153.701 67.709 152.928 67.6697 152.483C67.5959 151.64 67.5249 150.682 66.9701 150.031C64.664 147.327 62.1808 144.719 59.7552 142.079C58.7239 140.954 57.6248 141.295 56.233 142.252C56.9084 142.74 57.4795 143.154 58.0238 143.544C57.6456 144.538 55.8452 145.34 54.7029 144.781C52.7811 143.836 50.2783 143.28 49.7564 141.125C49.4273 139.8 48.2455 139.022 46.8498 138.275C43.0604 136.247 39.1059 134.385 35.9773 131.685C34.9985 130.841 33.5802 130.3 32.3177 129.678C29.1716 128.118 29.4384 126.935 30.1062 124.149C30.1668 123.909 30.3741 123.537 30.6002 123.482C34.0561 122.665 35.0788 120.121 36.9795 118.183C38.7804 116.351 40.517 114.437 43.5639 113.691C44.0312 113.578 44.388 113.135 45.0724 112.651C44.0769 112.404 43.3386 112.221 42.5006 112.011C42.887 110.362 44.3617 109.586 46.032 108.988C46.7498 108.734 47.5348 108.58 48.3034 108.488C54.0196 107.804 58.7747 105.312 63.6 102.94C64.7323 102.385 65.1049 101.62 65.3201 100.551C65.7289 98.52 66.533 96.498 67.3907 94.5227C67.8091 93.5636 68.9546 92.8442 70.3099 93.1118C71.5024 93.3465 72.2686 93.9888 72.1271 95.1891C72.03 95.9841 72.2984 96.8378 72.6417 97.5892C74.2442 101.088 76.0044 104.531 77.567 108.037C79.0863 111.446 81.0174 114.536 85.0618 116.56C86.3608 117.206 87.0143 118.562 88.2414 119.33C93.3332 122.509 98.5936 125.533 103.669 128.731C106.314 130.399 109.147 132.046 111.121 134.16C113.582 136.79 117.1 138.178 120.504 139.661C122.017 140.318 124.344 140.024 126.304 139.948C127.489 139.899 128.69 139.471 129.865 139.154C134.119 138.019 134.77 136.408 132.029 133.885L132.024 133.973L132.003 133.988ZM77.1247 115.367C77.1907 111.688 72.8377 106.815 68.7674 105.875C68.977 107.532 68.5624 109.349 69.4949 110.437C71.2247 112.464 73.7792 114.019 77.13 115.363L77.1247 115.367ZM115.133 157.617C115.184 157.242 115.393 156.805 115.276 156.444C115.068 155.801 114.602 155.228 114.344 154.593C113.837 153.33 112.573 153.393 111.186 153.5C109.726 153.61 108.336 153.698 107.592 154.994C107.059 155.928 107.156 156.649 108.196 157.211C109.946 158.158 111.915 158.407 114.07 157.981C114.38 157.924 114.67 157.775 115.124 157.609L115.133 157.617ZM43.8505 132.881C43.623 133.127 43.3954 133.372 43.1678 133.618C43.9974 134.039 44.8225 134.456 45.6521 134.877C45.8057 134.726 45.9495 134.575 46.103 134.424C45.3519 133.912 44.6017 133.393 43.8505 132.881ZM104.877 173.051C106.386 173.612 107.214 173.914 108.29 174.316C108.11 172.897 106.972 172.475 104.877 173.051ZM91.7748 126.99C91.9141 125.587 90.876 125.327 89.4221 125.468L91.7748 126.99ZM122.376 142.708C122.393 142.815 122.412 142.915 122.429 143.023C122.992 142.977 123.55 142.935 124.113 142.889C123.802 142.551 123.49 142.455 123.18 142.47C122.914 142.482 122.644 142.623 122.371 142.712L122.376 142.708Z" fill="#FAAB28"/>
<path d="M40.0863 169.585C41.5884 170.03 42.6203 170.435 43.7327 170.642C44.7731 170.836 45.8895 170.829 47.2339 170.927C47.4721 170.272 47.728 169.59 47.9777 168.92C48.3873 168.933 48.7306 168.881 48.7862 168.954C49.7138 170.265 51.3746 170.246 53.0509 170.307C55.8483 170.407 57.5603 172.015 57.2801 174.703C55.7112 173.529 54.4225 172.566 52.8036 171.356C52.6377 172.066 52.3098 172.602 52.5027 172.761C54.0512 174.077 53.3274 175.189 51.9174 176.356C51.4871 176.71 51.3058 177.248 50.8177 177.995C53.5661 177.65 54.9508 178.63 55.8063 180.464C55.0037 180.779 54.1806 181.101 53.1326 181.511C55.3881 183.25 54.6435 185.131 53.7226 186.524C54.6039 188.925 55.3316 190.899 56.0388 192.881C56.0957 193.031 56.1141 193.265 56.0039 193.378C54.3844 195.117 54.3359 197.119 53.8875 199.065C53.605 200.302 52.6836 201.074 50.8685 201.118C49.9219 201.139 48.9098 201.757 48.0062 201.699C45.903 201.559 43.9565 201.061 42.8734 199.472C41.42 197.335 39.8948 195.227 38.2438 192.884C36.5487 194.197 35.0227 193.613 33.4129 193.258C31.8555 192.915 31.7535 191.838 31.2602 190.939C30.9214 190.325 30.739 189.58 30.1827 189.121C28.0388 187.345 27.5315 185.37 28.882 182.961C29.0708 182.623 28.4917 181.658 28.0998 181.618C26.7213 181.473 25.2727 181.61 23.3315 181.644C23.2188 181.245 22.9928 180.495 22.7766 179.745C24.8294 179.096 26.5472 178.557 28.5087 177.937C27.7635 176.969 27.2368 176.284 26.8687 175.804C27.4474 174.365 27.9502 173.128 28.522 171.707L31.4926 169.604C31.635 169.644 32.0238 169.757 32.418 169.866C36.0918 170.896 36.3456 170.724 37.8082 167.784C38.2597 166.879 39.321 165.902 40.4096 165.435C42.2784 164.634 44.3904 164.203 46.619 163.556C47.0177 164.649 47.3305 165.5 47.6424 166.358C45.8598 168.29 44.5042 165.886 42.4447 166.596C41.9169 167.259 41.1557 168.221 40.0659 169.592L40.0863 169.585Z" fill="#FAAB28"/>
<path d="M155.93 175.664C153.897 175.468 151.808 175.424 149.855 175.029C148.333 174.717 146.991 173.975 145.198 173.277C145.651 172.9 146.149 172.195 146.554 172.204C149.125 172.274 150.775 170.704 152.945 170.056C152.23 169.138 148.508 168.118 141.778 166.996C141.912 165.681 143.285 165.344 144.506 164.959C145.55 164.628 146.647 164.402 147.722 164.141C149.446 163.725 150.468 163.065 150.941 161.475C151.525 159.496 152.965 157.651 156.202 157.765C156.515 155.625 155.615 154.277 153.504 153.723C152.718 154.378 151.878 155.071 151.141 155.685C150.844 155.711 150.687 155.759 150.637 155.724C149.124 154.581 145.773 155.909 145.226 153.321C144.878 151.678 143.94 150.149 143.274 148.589C149.259 144.253 151.506 143.797 155.742 146.257C155.939 144.643 156.365 143.164 156.222 141.749C156.062 140.177 156.008 138.932 157.618 137.495C158.736 136.5 156.975 134.446 159.558 133.195C159.887 133.858 160.162 134.425 160.503 135.108C161.312 135.268 162.246 135.453 163.266 135.655C163.418 135.385 163.695 135.132 163.642 134.952C162.997 132.714 159.868 131.932 157.4 133.334C156.758 133.697 156.004 133.928 154.569 134.52C155.28 132.727 155.584 131.559 156.2 130.488C156.97 129.139 158.909 128.768 159.894 129.911C161.179 131.399 163.335 131.368 164.912 132.163C169.016 129.623 170.585 129.507 174.643 131.359C173.345 134.358 170.247 135.487 166.259 135.983L167.732 137.267C165.177 138.752 163.119 136.993 160.31 137.134C160.744 138.35 160.734 140 161.521 140.233C164.559 141.129 164.013 143.92 166.156 145.209C166.588 145.468 166.961 146.12 166.848 146.524C166.34 148.351 167.187 149.684 168.651 150.918C169.014 151.225 168.988 151.815 169.104 152.184C170.424 151.926 171.674 151.683 173.6 151.3C173.022 152.196 172.871 152.81 172.502 152.924C170.906 153.419 169.243 153.771 167.353 154.235C167.099 153.604 166.794 152.86 166.42 151.948C164.343 152.811 162.42 153.482 161.624 155.435C161.264 156.303 160.057 157.002 159.026 157.972C160.474 159.711 163.459 157.972 165.494 159.091C164.541 161.084 161.856 160.68 159.715 161.772C160.135 164.056 160.582 166.49 161.06 169.084C163.059 168.622 163.376 167.776 163.008 166.676C162.905 166.361 162.489 166.099 162.474 165.792C162.461 165.505 162.769 164.969 162.988 164.941C163.45 164.875 164.201 164.943 164.4 165.183C165.625 166.72 166.788 168.294 167.849 169.913C168.616 171.084 167.977 171.994 166.245 172.085C164.646 172.166 163.045 171.953 160.9 171.843C161.502 172.284 161.826 172.457 162.045 172.689C163.163 173.865 162.87 174.531 161.044 174.85C159.298 175.156 157.54 175.399 155.783 175.67L155.929 175.672L155.93 175.664Z" fill="#FAAB28"/>
<path d="M101.342 206.738C102.186 206.493 102.947 206.067 103.504 206.166C104.204 206.291 105.13 206.771 105.25 207.243C105.466 208.077 104.742 208.745 103.472 208.727C102.818 208.718 102.151 208.457 101.543 208.563C100.839 208.687 99.8198 208.972 99.5836 209.386C98.5877 211.149 96.7143 212.214 94.8811 213.315C93.9017 213.902 93.6001 214.511 94.0628 215.333C94.2802 215.715 94.7022 216.149 94.5863 216.492C94.3824 217.102 94.0073 217.889 93.3928 218.184C92.3754 218.671 91.6419 217.999 91.5575 217.297C91.4248 216.142 90.5411 215.59 89.5438 214.914C88.1407 213.968 88.505 212.61 90.3685 212.081C92.5706 211.453 93.8518 209.586 96.4436 209.465C97.5206 209.415 97.6296 208.823 97.4622 206.96C94.7616 206.735 92.2814 207.356 89.9759 208.614C87.2906 210.078 83.3255 209.874 81.5077 208.249C80.5403 207.389 80.5136 206.428 80.7023 205.377C80.951 204.002 80.7662 202.878 78.9906 202.161C77.8098 201.685 76.8975 200.681 77.7849 199.594C79.023 198.076 78.6598 196.838 77.2922 195.345C80.224 194.799 82.7854 194.241 85.3767 193.902C86.0768 193.808 86.96 194.276 87.5841 194.652C88.2448 195.052 88.5878 195.761 89.2591 196.153C90.344 196.788 91.5311 197.563 93.0296 196.481C94.1134 195.699 95.0642 195.908 95.98 196.479C97.372 197.348 98.7759 197.574 100.513 196.683C101.057 196.404 101.972 196.489 102.685 196.549C103.767 196.636 104.808 196.907 105.889 197.002C107.386 197.134 108.002 197.721 107.717 198.896C107.549 199.571 107.397 200.251 107.213 201.029C111.303 201.66 113.02 203.893 114.632 206.32C112.723 207.622 110.774 207.641 108.67 207.199C107.878 206.165 109.256 204.132 106.509 204.06C104.007 203.991 102.152 204.888 101.347 206.734L101.342 206.738Z" fill="#FAAB28"/>
<path d="M139.826 204.009C136.559 206.407 133.766 208.455 130.982 210.503C129.966 211.251 128.883 211.305 128.087 210.536C126.225 208.738 123.398 207.607 122.327 205.242C122.02 204.564 121.303 203.922 120.557 203.491C116.871 201.368 117.936 198.041 117.719 195.07C117.676 194.522 118.621 193.72 119.357 193.339C119.627 193.197 120.775 193.837 121.228 194.307C123.768 196.922 126.772 198.626 131.52 197.803C132.393 197.65 133.721 198.078 134.329 198.6C136.176 200.183 137.768 201.947 139.826 204.009Z" fill="#FAAB28"/>
<path d="M81.5242 191.559C80.7111 191.21 79.8659 190.977 79.2529 190.543C78.6989 190.153 77.9815 189.511 78.0869 189.042C78.2051 188.5 79.0728 187.949 79.7479 187.548C80.1505 187.313 80.8188 187.375 81.3598 187.26C83.6233 186.786 84.3825 186.065 84.0965 184.258C83.8651 182.8 84.0367 181.592 85.5749 180.461C87.326 179.172 91.4579 179.06 93.0084 180.403C94.407 181.613 94.3085 182.465 92.58 183.682C91.9912 184.099 91.3362 184.45 90.7594 184.802C90.6756 185.03 90.5594 185.197 90.5613 185.358C90.5483 186.369 91.0422 187.62 90.4284 188.308C89.8482 188.959 88.0735 188.946 86.9021 189.366C85.1698 189.993 83.5075 190.74 81.5295 191.555L81.5242 191.559Z" fill="#FAAB28"/>
<path d="M61.1642 199.077C60.8025 200.145 60.5206 200.929 60.2726 201.719C59.6248 203.743 60.4965 204.494 63.1478 203.964C64.8287 203.627 66.4312 202.979 68.5789 202.312C67.9889 202.962 67.7551 203.487 67.3148 203.665C65.4164 204.424 63.5053 205.297 61.4909 205.687C60.2463 205.926 58.6694 205.583 57.5065 205.123C55.8931 204.488 54.5385 203.5 53.1061 202.688C54.2158 202.206 55.844 201.815 56.8413 200.974C57.9729 200.025 59.0247 199.358 61.1544 199.077L61.1642 199.077Z" fill="#FAAB28"/>
<path d="M145.823 182.988C149.724 182.39 151.299 183.335 152.167 186.881C148.64 186.564 145.606 185.588 142.629 184.579C141.823 184.303 141.409 183.398 140.644 182.606C144.297 181.282 144.666 184.3 147.003 184.359C146.737 184.195 146.414 184.064 146.207 183.858C146.035 183.684 146 183.419 145.817 182.991L145.823 182.988Z" fill="#FAAB28"/>
<path d="M103.28 211.884C103.994 211.618 104.417 211.325 104.761 211.357C106.443 211.499 108.021 211.876 109.839 211.273C110.956 210.906 112.231 211.858 112.006 212.617C111.719 213.581 110.723 213.744 109.67 213.748C108.716 213.747 107.747 213.622 106.816 213.766C104.899 214.066 103.947 213.428 103.274 211.888L103.28 211.884Z" fill="#FAAB28"/>
<path d="M155.78 175.663C156.655 176.341 157.535 177.016 158.617 177.85C157.594 178.575 156.927 179.167 156.118 179.584C155.34 179.987 154.206 180.6 153.613 180.427C152.86 180.206 152.49 179.289 152.133 178.886C153.644 177.605 154.792 176.637 155.931 175.669L155.784 175.667L155.78 175.663Z" fill="#FAAB28"/>
<path d="M157.406 181.543C160.537 180.341 162.417 181.225 163.997 182.828C162.122 184.847 160.672 184.597 157.406 181.543Z" fill="#FAAB28"/>
<path d="M144.54 174.757C143.769 175.945 142.758 175.835 141.832 175.631C140.619 175.362 139.319 175.118 138.321 174.584C137.462 174.12 137.821 173.252 138.827 172.963C139.579 172.748 140.634 172.728 141.3 172.982C142.498 173.439 143.499 174.169 144.545 174.761L144.54 174.757Z" fill="#FAAB28"/>
<path d="M164.097 124.016C163.989 123.176 163.743 122.518 163.89 121.892C163.986 121.464 164.561 120.859 165.048 120.747C165.51 120.639 166.183 121.016 166.662 121.283C166.989 121.467 167.176 121.814 167.364 122.112C167.883 122.957 168.545 124.012 167.13 124.605C166.468 124.883 165.239 124.265 164.093 124.012L164.097 124.016Z" fill="#FAAB28"/>
<path d="M116.929 197.706C114.948 200.16 112.026 199.408 109.035 200.496C109.744 199.43 110.013 198.583 110.391 198.527C112.372 198.26 114.164 196.822 116.935 197.702L116.929 197.706Z" fill="#FAAB28"/>
<path d="M156.898 186.035C157.614 186.516 158.074 186.824 158.512 187.114C157.959 187.914 155.93 187.319 153.876 185.848C155.511 183.871 155.877 183.746 158.717 184.31C158.497 184.621 158.345 184.933 158.088 185.178C157.809 185.446 157.434 185.655 156.898 186.035Z" fill="#FAAB28"/>
<path d="M171.541 143.687C170.583 143.816 169.634 143.944 168.637 144.072C168.615 142.621 168.595 141.506 168.578 140.376C170.114 140.112 171.103 141.214 171.547 143.683L171.541 143.687Z" fill="#FAAB28"/>
<path d="M99.3011 195.158C97.9833 194.504 97.0776 193.841 98.3438 192.691C99.2948 191.827 101.145 191.638 101.92 192.204C102.798 192.852 102.252 193.499 99.3011 195.158Z" fill="#FAAB28"/>
<path d="M165.923 162.482C165.963 162.123 165.785 161.332 166.193 160.782C166.709 160.092 168.744 160.408 169.535 161.356C169.825 161.701 169.744 162.527 169.389 162.871C168.532 163.717 167.178 163.617 165.913 162.482L165.923 162.482Z" fill="#FAAB28"/>
<path d="M100.963 215.841C101.109 215.709 101.225 215.5 101.396 215.457C103.618 214.871 104.943 215.104 105.145 216.209C105.215 216.597 104.88 217.285 104.478 217.471C103.323 218.006 101.788 217.239 100.963 215.841Z" fill="#FAAB28"/>
<path d="M63.7921 170.333C61.6711 170.177 60.0406 170.055 58.1862 169.922C60.6498 168.383 61.468 168.417 63.7921 170.333Z" fill="#FAAB28"/>
<path d="M69.4681 196.06C70.2881 195.677 71.0771 195.175 71.9515 194.965C72.3585 194.867 72.9416 195.35 73.4457 195.571C73.109 195.965 72.8422 196.612 72.4157 196.709C71.5527 196.904 70.6053 196.799 69.688 196.821C69.6179 196.567 69.5426 196.318 69.4681 196.06Z" fill="#FAAB28"/>
<path d="M147.238 144.294C146.841 143.814 146.272 143.377 146.091 142.842C145.886 142.219 145.86 141.334 147.108 141.29C147.506 141.277 148.097 141.993 148.213 142.454C148.34 142.95 148.011 143.543 147.882 144.092C147.669 144.158 147.447 144.224 147.234 144.29L147.238 144.294Z" fill="#FAAB28"/>
<path d="M163.521 190.831C162.53 190.595 161.74 190.569 161.325 190.25C161.041 190.027 161.054 189.193 161.342 188.982C162.213 188.351 162.985 188.806 163.455 189.383C163.666 189.642 163.503 190.103 163.521 190.831Z" fill="#FAAB28"/>
<path d="M147.312 114.58C146.517 115.848 145.536 116.141 144.038 115.347C145.03 114.63 146.121 114.375 147.312 114.58Z" fill="#FAAB28"/>
<path d="M96.3261 185.598C96.7464 184.934 96.8959 184.419 97.3018 184.153C97.576 183.973 98.2175 184.146 98.6901 184.164C98.5233 184.614 98.4992 185.146 98.1452 185.474C97.9324 185.674 97.2167 185.553 96.3261 185.598Z" fill="#FAAB28"/>
<path d="M171.212 138.131C172.331 137.966 173.046 138.271 173.071 139.24C173.075 139.385 172.488 139.737 172.414 139.706C171.779 139.421 171.202 139.061 170.608 138.727C170.806 138.531 171.009 138.331 171.206 138.134L171.212 138.131Z" fill="#FAAB28"/>
<path d="M170.879 146.067C170.631 146.722 170.541 147.188 170.254 147.574C170.179 147.677 169.523 147.549 169.135 147.521C169.227 147.082 169.239 146.615 169.459 146.212C169.527 146.086 170.173 146.13 170.875 146.063L170.879 146.067Z" fill="#FAAB28"/>
<path d="M131.599 129.456C132.126 129.203 132.658 128.946 133.185 128.693C133.295 128.848 133.405 129.002 133.515 129.157C132.975 129.398 132.435 129.639 131.9 129.877C131.798 129.738 131.701 129.595 131.595 129.452L131.599 129.456Z" fill="#FAAB28"/>
<path d="M114.392 194.282C114.177 193.751 113.961 193.219 113.745 192.688C113.99 192.599 114.234 192.511 114.484 192.419C114.814 192.94 115.148 193.458 115.478 193.979C115.114 194.081 114.756 194.18 114.388 194.278L114.392 194.282Z" fill="#FAAB28"/>
<path d="M101.531 212.767C100.743 212.634 100.198 212.653 99.916 212.458C99.7072 212.309 99.8332 211.875 99.8126 211.572C100.278 211.525 100.876 211.334 101.173 211.483C101.442 211.617 101.376 212.129 101.53 212.775L101.531 212.767Z" fill="#FAAB28"/>
<path d="M156.177 137.548L154.864 136.405L155.404 135.987C155.904 136.338 156.398 136.694 156.902 137.049C156.663 137.218 156.425 137.387 156.186 137.556L156.177 137.548Z" fill="#FAAB28"/>
<path d="M156.527 189.153C155.985 189.325 155.448 189.502 154.901 189.678C154.839 189.524 154.778 189.37 154.717 189.216C155.262 189.055 155.803 188.891 156.349 188.73C156.407 188.872 156.47 189.011 156.527 189.153Z" fill="#FAAB28"/>
<path d="M132.002 133.903C131.222 134.096 130.448 134.284 129.417 134.542C130.076 133.736 130.938 133.552 132.002 133.988L132.007 133.9L132.002 133.903Z" fill="#FAAB28"/>
<path d="M150.283 141.009C149.731 140.955 149.225 141.017 149.009 140.854C148.833 140.717 149.004 140.314 149.021 140.027C149.408 140.07 149.84 140.053 150.163 140.184C150.308 140.244 150.235 140.599 150.282 141.017L150.283 141.009Z" fill="#FAAB28"/>
<path d="M173.065 127.248C172.85 127.646 172.708 127.916 172.561 128.182C172.333 128.083 171.986 128.032 171.906 127.878C171.808 127.701 171.849 127.369 172.015 127.237C172.144 127.132 172.544 127.229 173.065 127.248Z" fill="#FAAB28"/>
<path d="M60.2101 186.873C59.7937 186.837 59.4214 186.889 59.2973 186.772C59.1546 186.648 59.2495 186.362 59.2392 186.144C59.5036 186.14 59.8651 186.053 60.0059 186.151C60.1699 186.26 60.1291 186.543 60.2101 186.873Z" fill="#FAAB28"/>
<path d="M55.8193 169.341C55.4128 169.347 54.9073 169.409 54.8847 169.348C54.7996 169.098 54.8705 168.808 54.8812 168.532C55.1672 168.555 55.5503 168.496 55.7127 168.62C55.8661 168.737 55.789 169.039 55.8291 169.341L55.8193 169.341Z" fill="#FAAB28"/>
<path d="M161.689 118.576C161.891 118.257 161.961 117.975 162.163 117.874C162.328 117.792 162.661 117.931 162.916 117.969C162.824 118.182 162.806 118.477 162.618 118.589C162.451 118.686 162.089 118.589 161.685 118.572L161.689 118.576Z" fill="#FAAB28"/>
<path d="M167.546 128.871C167.751 128.43 167.81 128.113 168.039 127.902C168.143 127.8 168.567 127.901 168.845 127.909C168.783 128.199 168.792 128.517 168.627 128.774C168.568 128.873 168.103 128.828 167.541 128.874L167.546 128.871Z" fill="#FAAB28"/>
</svg>
