<svg width="170" height="161" viewBox="0 0 170 161" fill="none" xmlns="http://www.w3.org/2000/svg">
<path d="M93.9035 7.88644C97.5366 9.34533 100.824 10.6488 104.843 10.7336C107.254 10.7832 109.681 11.1734 112.056 11.5458C113.883 11.8359 115.78 13.9198 115.195 15.1323C114.823 15.8879 113.649 16.9945 112.854 16.981C109.453 16.9393 108.457 18.9235 106.268 20.2968C108.399 21.6386 110.13 22.9834 113.193 22.231C113.403 20.9844 113.071 19.5125 113.94 18.7107C114.981 17.7485 117.04 17.3615 119.002 16.5809C120.306 19.0611 122.182 20.8365 126.033 19.9796C126.917 21.2994 127.584 22.5541 128.547 23.6723C129.783 25.1026 131.254 26.2735 134.087 26.0744C135.051 26.0054 136.702 26.7491 137.038 27.3865C137.362 27.9965 136.672 29.1864 135.894 29.7159C134.514 30.6473 134.187 31.5114 135.11 32.861C135.782 32.6937 136.55 32.6526 136.981 32.3525C137.463 32.0244 137.648 31.4607 137.953 30.999C138.66 29.9216 139.537 28.801 141.469 29.4398C142.988 29.9432 142.899 31.0115 142.482 32.1414C141.325 35.246 142.798 37.2066 147.131 38.7031C148.811 38.9536 149.35 36.0212 151.856 38.043C149.878 39.3442 147.95 40.6238 145.545 42.2057C146.929 44.1582 148.584 46.4877 150.262 48.8518C152.689 48.4853 154.256 46.2856 156.36 47.997C156.894 48.4304 156.75 49.6112 156.341 50.2591C155.217 52.0358 153.376 50.4854 151.581 50.544C150.563 52.226 148.85 52.2855 146.399 51.717C143.05 50.9364 142.354 51.4667 141.841 54.2385C141.807 54.4441 141.839 54.7342 141.67 54.8232C140.843 55.2699 139.953 55.6587 139.085 56.0756C138.881 55.4046 138.669 54.7265 138.32 53.5661C137.606 53.3446 136.377 53.0503 135.642 51.6069C134.118 48.5979 130.825 46.25 127.1 44.4239C126.305 44.032 124.65 44.2273 123.593 44.5292C122.594 44.8103 121.833 45.5631 121.029 46.1424C118.575 47.9027 115.912 49.3502 112.63 50.3241C108.243 51.6215 107.162 53.3565 107.51 56.6697C107.679 58.303 107.58 59.9706 107.331 61.6051C107.056 63.4003 107.348 64.8425 109.8 65.8352C111.014 66.3239 111.951 67.1594 112.868 67.7451C118.555 66.5332 123.997 65.3773 129.432 64.2077C129.968 64.0933 130.7 64.049 130.982 63.7745C134.501 60.4214 140.207 60.3398 144.62 58.9404C145.057 57.4209 145.455 56.0283 145.892 54.5089C145.708 54.4203 145.157 54.1419 144.505 53.8151C145.297 52.8238 146.19 52.5787 147.288 53.3244C148.403 54.0781 149.415 54.9008 150.645 55.8282C150.381 56.2673 150.052 56.8246 149.721 57.3882C148.485 59.507 148.635 61.5235 150.148 63.6247C151.316 65.2445 151.99 67.0542 152.869 68.7781C153.011 69.065 152.994 69.4875 153.27 69.6235C156.309 71.1654 154.201 72.4352 152.967 73.6278C153.474 75.1939 154.021 76.6267 154.336 78.0906C154.382 78.3035 153.338 78.6392 152.545 79.0433C152.079 78.1464 151.689 77.5042 151.421 76.834C150.473 74.5035 150.057 72.1302 147.558 70.122C146.2 69.0395 146.215 67.0642 145.587 65.4152C141.418 63.5879 140.114 66.8097 136.903 67.8487C138.45 68.8309 139.562 69.6039 140.768 70.2942C144.754 72.568 144.893 73.4614 141.521 76.7496C140.925 76.6302 140.071 76.6438 139.623 76.3422C137.798 75.1259 135.467 74.2747 133.817 73.094C131.972 71.7781 130.112 71.3611 127.857 71.0321C123.752 70.4371 119.669 70.5162 115.538 70.78C112.772 70.9526 111.352 72.2262 110.795 73.8653C110.137 75.7822 108.31 77.0514 106.994 78.6215C105.092 80.8755 103.855 83.4313 102.479 85.8963C101.737 87.2315 101.263 88.6498 100.747 90.0447C99.4447 93.5797 101.32 96.2749 106.018 97.7067C109.431 98.7476 110.01 99.296 109.275 101.989C108.781 103.79 108.062 105.643 106.884 107.252C102.977 112.585 100.206 118.225 98.043 124.017C97.1508 126.408 96.7171 128.822 98.9107 131.187C99.8841 132.241 100.068 133.732 100.327 135.048C100.734 137.094 100.902 139.164 101.149 141.033C100.322 141.643 99.0695 142.136 99.0543 142.656C98.9796 144.607 99.1348 146.591 99.5339 148.526C99.972 150.66 100.853 152.749 101.373 154.878C101.545 155.578 101.171 156.347 101.047 157.086C100.733 157.116 100.429 157.147 100.115 157.184C98.5526 155.267 96.9892 153.357 95.3821 151.384C95.1806 151.451 95.843 151.231 96.5054 151.01C96.4843 150.813 96.5712 150.566 96.4422 150.417C93.3912 147.009 93.398 147.022 88.1788 148.577C85.8415 149.271 83.7712 148.757 81.6955 147.844C80.8606 147.474 79.4651 147.204 78.6712 147.452C75.7028 148.395 72.5646 148.41 69.4556 148.682C66.0523 148.979 62.6937 149.496 59.3031 149.879C56.19 150.229 55.223 149.782 55.2729 147.549C55.3106 145.765 54.463 144.879 52.0832 144.48C45.6919 143.416 40.4302 140.596 34.898 138.306C32.4415 137.286 30.6317 135.387 26.7613 135.283C27.7011 133.254 28.2484 131.673 29.1554 130.216C30.1498 128.617 31.4368 127.109 32.6871 125.605C38.0893 119.089 40.4691 111.901 41.7513 104.45C42.3221 101.168 43.2054 97.9143 43.8388 94.6381C44.1136 93.2213 44.1854 91.773 44.2271 90.3415C44.2715 89.0016 44.0371 87.6494 44.1629 86.3104C44.256 85.3272 44.3965 84.2244 46.3724 83.7386C48.1102 85.9581 44.4442 88.0844 46.4194 90.5082C47.2117 90.1627 48.2601 89.9644 48.6391 89.49C49.5588 88.334 50.2337 87.071 50.8708 85.8176C52.3491 82.9053 53.7315 79.9713 55.1752 77.0493C55.6808 76.0384 56.1896 75.0082 54.5489 74.311C53.3474 73.8038 51.6357 74.4963 50.931 75.8284C50.3202 76.9798 50.012 78.2175 49.4605 79.3938C49.0798 80.2008 48.5083 80.9578 47.6611 82.3292C47.1169 81.2554 46.7961 80.9001 46.7764 80.5329C46.5999 77.4376 46.4602 74.3391 46.3473 71.243C46.2603 68.8538 47.3168 68.0691 50.6425 68.0713C53.6603 68.0716 56.6708 68.1691 59.683 68.1494C63.2036 68.1236 65.26 66.7839 65.9912 64.3256C66.3748 63.0166 66.8198 61.7196 67.3203 60.1472C62.02 56.9645 56.7443 53.7971 51.4596 50.6288C50.9081 50.2982 50.1418 50.0589 49.804 49.6433C46.6197 45.6808 41.7477 46.4123 36.871 47.1172C35.9427 47.2481 34.9973 47.3188 33.789 47.4438C33.1398 43.2812 36.4509 40.2485 38.5636 36.6371C35.9596 37.0854 33.8325 37.4466 31.1438 37.9133C31.5127 39.1668 32.0355 40.4212 32.2104 41.6963C32.2972 42.3109 31.9888 43.281 31.3946 43.5271C30.5087 43.8902 29.113 43.9982 28.1582 43.7483C27.5942 43.5992 27.0622 42.507 27.2199 41.9472C27.521 40.859 28.3434 39.8507 28.919 38.8005C29.8052 37.1979 29.5145 36.6104 27.4515 35.7836C24.2687 34.5026 24.2766 34.5098 25.5715 32.1485C25.9372 31.4836 26.208 30.7906 26.5908 29.9708C24.4648 29.2491 21.3192 30.2223 20.2498 27.8548C22.4027 25.7801 24.6181 23.9264 28.5859 23.452C30.2967 23.2487 31.7336 22.0354 33.4513 21.6305C36.6403 20.8831 39.95 20.388 43.4196 19.7509C43.4383 19.048 43.0686 17.8531 43.6172 16.9636C44.2123 16.013 45.6205 15.2929 46.8159 14.5991C47.2673 14.34 48.2649 14.2284 48.722 14.42C49.111 14.5859 49.0955 15.2695 49.2261 15.7315C49.2488 15.8118 49.1469 15.9331 49.0614 16.0101C48.116 16.9419 46.9547 17.9715 48.3598 19.0452C49.821 20.1631 51.495 21.2548 53.9638 20.9638C54.2502 20.9311 54.5264 20.8518 54.8074 20.8512C57.5853 20.8232 58.5084 21.6378 57.414 23.5086C56.1658 25.6459 57.1192 27.7876 57.3896 29.8411C57.5489 31.1017 58.605 32.8482 61.2764 33.1302C61.9258 33.2023 62.6269 33.5596 63.0916 33.9215C64.2774 34.8447 63.9882 35.8623 62.9744 36.7161C62.0228 37.5234 60.3487 37.2929 59.3152 36.2726C58.9812 35.9421 58.863 35.5138 58.5901 35.1433C58.3902 34.8772 58.1124 34.6432 57.6875 34.2066C56.2206 34.7909 54.7816 35.3712 53.1489 36.0252C50.7321 34.9313 49.7355 32.1855 46.6904 32.5089C45.1293 33.6522 43.9305 34.5284 42.4738 35.5898C45.1057 36.4293 46.3534 37.8997 46.4885 40.1105C46.592 41.8096 48.3607 43.0925 50.4918 43.9451C56.1566 46.202 61.8302 48.4596 67.5049 50.7108C68.8214 51.2349 70.3843 51.3183 70.5899 50.0974C71.3578 45.4308 72.4656 40.7364 70.9346 35.7826C68.6351 36.2521 68.918 38.7699 66.2399 38.259C65.4034 35.6387 65.7302 35.2052 69.886 33.7758C68.4472 29.4044 68.0733 24.7906 64.4904 20.7202C63.3427 19.409 62.9317 17.7602 61.8882 15.669C64.4468 16.1364 66.0464 16.4319 67.8481 16.7653C69.6645 14.9667 71.0165 13.0737 71.0258 10.3279C68.5559 11.4865 67.291 13.6158 63.9078 13.0408C68.019 10.7462 66.8902 7.00978 68.7951 3.9862C71.9124 4.90239 72.1135 8.013 75.9951 7.88958C77.0665 7.178 76.8155 5.22408 79.3376 5.31633C82.3191 5.42425 85.3161 5.49447 88.2488 5.83933C88.8793 5.91621 89.675 7.11061 89.6874 7.79022C89.739 10.4436 87.9028 11.8751 83.6545 12.6698C84.3439 14.8723 85.0468 17.1021 85.7564 19.3456C81.9258 19.8129 81.3994 19.602 79.7568 17.6782C79.3024 17.1476 78.3103 16.3659 77.8066 16.4506C77.0233 16.5816 76.0644 17.2708 75.8566 17.8586C75.4322 19.0335 75.1132 20.3354 75.3869 21.5085C75.8134 23.3348 76.6924 25.1109 77.5189 26.8757C78.713 29.4177 80.0207 31.9309 81.2805 34.4592C81.6941 35.2862 82.1365 36.1028 82.7808 37.3356C84.6224 35.6568 85.706 34.0656 87.4715 33.2149C89.345 32.3152 90.6063 31.2295 91.8501 29.979C93.5299 28.292 94.9237 28.249 96.5373 29.968C98.2732 31.822 100.216 32.9837 103.531 32.998C106.175 33.01 107.373 34.3976 106.978 36.4754C106.788 37.4955 106.269 38.4791 106.026 39.4942C105.311 42.5542 105.664 43.3105 109.21 46.2554C110.197 45.3992 111.501 44.7023 111.984 43.7741C114.05 39.8453 115.883 35.8496 117.874 31.7248C115.804 29.9709 111.664 29.0466 113.61 25.5113C113.211 25.5664 112.813 25.615 112.405 25.6693C111.622 26.3353 110.856 27.0094 110.049 27.6602C107.561 29.6783 104.711 29.5432 102.675 27.2117C101.923 26.3475 101.544 25.3149 101.036 24.3488C99.4844 21.4025 95.5397 20.2871 91.7363 21.7224C89.4323 22.5959 87.2957 22.206 86.4072 20.7552C85.5547 19.3599 86.6686 17.1582 88.5826 16.5559C89.2329 16.354 89.9832 16.3113 90.6424 16.1102C91.2537 15.9244 91.802 15.6285 92.5453 15.3046C92.2126 14.8047 92.0823 14.3949 91.7385 14.1222C89.4137 12.2669 89.4662 12.2782 91.7465 10.4696C92.6462 9.75544 93.1531 8.79028 93.9078 7.86072L93.9035 7.88644ZM32.4294 32.8632C32.6791 32.8337 32.8576 32.8499 32.9387 32.7986C35.6367 31.0932 35.8069 27.9837 39.6774 26.7958C40.9869 26.3929 40.2585 24.8523 38.7249 24.3802C36.6987 23.7654 35.3099 24.1546 34.0935 25.5119C32.0975 27.7313 31.2218 30.0786 32.4216 32.8559L32.4294 32.8632ZM94.0158 122.046C94.3726 122.026 94.7383 122.007 95.095 121.988C96.8276 119.718 97.7671 117.207 98.441 114.659C98.6894 113.722 96.8203 113.089 96.1384 113.856C94.6325 115.532 93.2757 117.347 92.4579 119.243C92.1417 119.99 93.45 121.101 94.0158 122.046Z" fill="white"/>
<path d="M163.666 56.6056C164.141 55.2395 164.438 54.3922 164.735 53.5386C166.201 53.9848 167.676 54.4254 169.781 55.0601C168.313 56.5643 167.294 57.6135 166.111 58.8239C166.504 59.5055 166.989 60.3389 167.558 61.317C166.67 61.8561 165.832 62.3671 164.843 62.9624C165.392 64.604 165.708 66.3876 163.261 67.5159C162.288 67.969 160.555 68.5163 159.945 68.2129C158.807 67.6465 157.657 66.5112 157.581 65.5649C157.435 63.8489 157.89 62.0635 158.455 60.3729C158.73 59.5498 159.686 58.7689 160.594 58.1664C161.728 57.4081 163.125 56.8566 163.658 56.5983L163.666 56.6056Z" fill="white"/>
<path d="M30.6502 50.8214C32.7738 51.7188 34.4941 52.0512 35.1941 52.8455C36.2049 54.0007 35.1005 55.2313 33.9658 56.2112C32.5347 57.4447 31.4868 57.5322 29.5423 56.5402C27.7644 55.635 26.2848 54.6264 25.783 52.9238C25.4425 51.7708 24.3297 50.7368 23.304 49.2932C24.7095 48.4814 26.1084 47.4928 27.7497 46.7872C29.1373 46.1891 30.1473 46.757 30.2874 47.9701C30.4202 49.0652 30.5631 50.1546 30.648 50.8343L30.6502 50.8214Z" fill="white"/>
<path d="M57.1246 9.52213C56.803 10.7325 56.5403 11.7002 56.2744 12.6873C53.0294 11.8838 52.7237 11.4384 52.12 7.05826C53.4624 5.92105 54.5357 4.929 55.7467 4.03429C56.2744 3.6451 57.061 3.27943 57.7656 3.23903C58.1402 3.22086 58.9893 3.93734 58.9487 4.28595C58.7291 6.45152 61.0261 7.23418 62.969 8.12824C61.6455 10.7677 61.5887 10.7821 57.1167 9.51489L57.1246 9.52213Z" fill="white"/>
<path d="M13.7239 41.111C13.1364 39.6484 12.642 38.4945 12.2311 37.3285C11.7399 35.94 12.8192 34.5897 14.6587 34.698C17.5559 34.8763 20.4158 35.3839 23.9646 35.8366C22.1393 37.8499 20.6368 39.5075 19.0355 41.2671C17.1873 41.2102 15.3837 41.1573 13.725 41.1045L13.7239 41.111Z" fill="white"/>
<path d="M133.073 55.9474C133.416 56.4353 134.284 57.1469 134.342 57.8828C134.421 59.0252 133.342 59.7818 131.657 59.7789C130.172 59.7744 129.228 59.2451 129.326 58.0667C129.424 56.8947 130.903 55.8613 133.082 55.9482L133.073 55.9474Z" fill="white"/>
<path d="M23.9343 52.9133C21.6517 52.5299 20.2324 52.401 18.9368 52.0224C18.289 51.8331 17.4334 51.1552 17.4972 50.7761C17.5979 50.1785 18.2386 49.4408 18.9497 49.1465C19.3982 48.9589 20.6614 49.315 21.1128 49.7018C22.0852 50.5469 22.7753 51.562 23.9343 52.9133Z" fill="white"/>
<path d="M15.7518 45.2092C16.2003 45.0215 16.91 44.4662 17.6671 44.4371C19.1713 44.3845 21.0217 45.7203 20.6338 46.6245C20.3782 47.2276 19.28 47.9369 18.4307 48.0294C17.081 48.1873 15.665 46.7474 15.7518 45.2092Z" fill="white"/>
<path d="M48.1366 54.7724C47.449 54.8731 46.5953 55.2066 46.1093 55.0254C45.2131 54.6962 44.5407 54.061 43.7742 53.5543C44.2919 53.1707 45.0484 52.3913 45.2807 52.4646C46.1834 52.7553 46.9223 53.3182 47.7243 53.776C47.8588 54.1079 48.0021 54.4405 48.1366 54.7724Z" fill="white"/>
<path d="M157.213 81.7434C157.077 80.7199 156.989 80.0595 156.876 79.2794C157.65 79.415 158.043 79.3984 158.158 79.5198C158.86 80.249 158.991 80.9263 157.213 81.7434Z" fill="white"/>
<path d="M57.0631 18.3315C55.8598 18.5352 55.2688 18.7618 54.7844 18.6787C54.3703 18.6085 53.7825 18.1705 53.8057 17.9249C53.8354 17.6408 54.4053 17.2167 54.8131 17.1624C55.1463 17.121 55.5924 17.5396 57.0541 18.3307L57.0631 18.3315Z" fill="white"/>
<path d="M157.365 62.8579C156.8 63.0412 156.407 63.2729 156.202 63.2021C155.909 63.1103 155.6 62.7954 155.592 62.573C155.582 62.3635 155.962 62.1503 156.17 61.941C156.516 62.2006 156.851 62.4657 157.365 62.8579Z" fill="white"/>
</svg>
