<svg width="221" height="151" viewBox="0 0 221 151" fill="none" xmlns="http://www.w3.org/2000/svg">
<path d="M31.2646 85.1094C30.142 85.5323 28.8163 85.746 27.9408 86.4252C24.6237 88.9978 20.7382 88.8285 17.0251 88.6794C15.2583 88.6044 13.6381 87.3499 11.6606 86.501C13.3148 84.6661 15.0448 83.2424 13.4902 81.2558C14.4978 80.4364 15.3724 79.7341 16.2287 79.0356C15.8109 78.4474 15.4516 77.9397 14.9866 77.2885C18.5692 76.4748 20.7758 79.9576 24.8418 78.2849C21.702 76.8542 17.9186 77.0939 16.5081 73.8589C17.7214 73.3177 18.9658 72.7601 20.3689 72.1363C20.1024 70.2783 19.9748 68.4641 19.5594 66.7199C18.7172 63.214 20.7045 60.1011 22.884 57.6136C24.9799 55.2229 24.6424 52.6579 26.4974 49.9666C22.5845 51.9219 22.5606 51.9169 21.4861 48.3403C21.9725 48.2123 22.6153 48.0252 23.2621 47.8771C29.373 46.5194 33.0087 42.9169 35.0326 37.8562C35.7723 36.0002 37.0176 35.8232 38.9458 36.7684C38.5152 37.623 38.1313 38.3884 37.7372 39.1593C39.1763 40.0873 40.2807 39.7443 40.4677 38.3678C40.7882 36.0297 41.8446 34.4519 44.4877 33.5131C45.254 33.2374 45.7151 32.0618 46.1921 31.2472C47.4776 29.0091 49.1975 27.3094 52.1601 26.8701C54.6944 26.4871 57.2219 25.9961 59.1652 24.2664C59.894 23.6177 60.6105 22.8524 61.0269 22.0405C63.1669 17.9091 65.2663 17.193 69.6992 19.1717C70.0346 19.317 70.4472 19.3335 70.8543 19.4174C73.7908 17.1925 76.3495 14.4636 80.3405 13.5515C81.7809 13.2245 82.6929 13.2527 82.7838 15.0746C81.5921 15.2702 80.4291 15.4566 79.2558 15.6484C79.2006 17.0902 80.3753 17.1497 81.3942 17.139C83.654 17.1179 85.957 17.1969 88.1657 16.7924C90.9646 16.2813 93.445 16.8762 95.9423 17.4975C98.3861 18.1 98.7267 19.8897 96.6472 21.3631C93.7623 23.4085 90.9985 25.4485 89.2039 28.4185C88.7086 29.237 87.0108 29.7468 85.7874 30.012C82.1616 30.8015 80.7734 33.475 79.015 35.8514C78.8312 36.0951 78.8395 36.6065 79.0044 36.8535C80.4668 38.9885 81.9165 41.136 83.5494 43.1692C83.8038 43.4803 84.9762 43.1893 86.0031 43.1804C85.599 44.1089 85.2233 44.9521 84.7803 45.9716C86.4499 48.3546 89.0248 49.4331 92.292 50.0228C97.056 50.883 101.18 50.0821 104.959 47.1252C106.553 45.8789 108.25 45.932 109.647 47.0643C111.903 48.8912 114.644 49.8822 117.579 50.4948C119.758 50.9439 120.639 52.495 121.751 53.8424C123.216 55.6126 124.605 57.0708 127.57 57.2634C130.67 57.461 133.585 58.8226 136.684 59.0733C139.751 59.3175 142.95 59.2692 145.463 56.5764C146.885 55.0513 148.913 55.8268 150.577 56.6186C157.154 59.7392 163.683 62.9261 170.342 65.9038C172.259 66.7553 174.528 67.3447 176.709 67.4292C185.547 67.7672 194.416 67.8604 203.27 68.0494C203.914 68.0606 204.545 68.1144 205.574 68.1745C204.92 68.983 204.488 69.5102 203.846 70.3062C205.668 70.2936 207.286 70.2772 208.905 70.2607C208.965 70.4633 209.035 70.6605 209.096 70.8631C207.698 71.4196 206.27 71.9393 204.898 72.5467C202.066 73.7965 201.871 74.2509 202.223 76.9785C202.385 78.2293 202.353 79.5238 202.287 80.7958C202.259 81.3379 202.031 82.2495 201.668 82.3649C198.848 83.2977 199.698 85.1466 199.788 86.8162C200.078 91.7982 200.377 96.7748 200.656 101.762C200.758 103.602 200.164 104.765 197.714 105.333C196.197 105.682 194.76 106.945 193.591 108.044C191.171 110.306 188.903 112.7 186.657 115.105C185.115 116.758 183.521 118.415 182.307 120.234C180.335 123.198 177.912 125.521 173.876 125.701C172.194 125.781 170.974 127.949 169.139 126.673C167.822 125.762 166.675 124.651 165.29 123.84C160.249 120.899 155.13 118.064 150.076 115.136C148.926 114.465 147.928 113.597 146.913 112.855C145.248 112.68 143.422 112.806 141.945 112.273C135.495 109.947 128.613 109.015 121.722 108.059C117.693 107.503 113.833 106.722 110.222 104.913C107.994 103.792 104.981 103.719 102.282 103.368C99.6876 103.038 96.9788 103.127 94.4054 102.733C91.3938 102.272 90.8317 100.993 92.1997 98.5585C94.435 94.5761 92.9571 88.9382 89.235 86.4669C87.7191 85.4621 86.2889 85.3499 84.4626 85.8104C81.7104 86.5137 79.5216 87.957 77.874 89.8998C75.3915 92.8346 72.3941 95.2677 69.0592 97.3573C66.3801 99.0419 66.798 101.57 66.0806 103.743C65.7928 104.604 66.7447 105.713 67.0689 106.556C67.8684 106.538 68.2308 106.628 68.3798 106.514C70.9272 104.483 73.2016 104.571 75.7102 106.359C76.9497 107.246 78.8023 107.498 80.4024 107.996C81.8876 108.454 82.9479 109.136 82.5433 110.986C76.4416 112.163 73.2916 115.69 73.202 121.142C71.4864 121.526 70.0489 121.717 68.711 122.172C66.755 122.841 65.0952 122.803 63.5614 121.597C62.6774 120.898 61.5343 120.335 60.3553 121.233C58.0434 122.993 55.7568 123.146 53.6319 121.666C50.9777 123.259 48.6968 123.233 46.7894 121.587C45.7206 120.674 44.6136 119.799 43.094 118.55C46.3087 117.714 48.6654 115.666 51.6552 117.469C52.9759 118.267 54.318 117.493 55.1609 116.503C56.4798 114.956 57.8439 114.066 60.1886 115.706C60.8189 113.819 61.508 112.523 61.6392 111.212C61.9558 108.119 61.8027 108.194 58.6164 107.005C57.0232 106.41 55.6208 105.475 53.9273 104.593L52.6928 108.287C54.4754 108.29 56.0128 108.157 57.4774 108.345C58.4112 108.462 59.6912 108.87 59.9862 109.494C60.3036 110.153 59.9524 111.587 59.3238 112.012C58.5405 112.543 57.1805 112.4 56.062 112.504C55.833 112.526 55.6059 112.311 55.3751 112.211C52.4279 110.918 49.908 111.548 47.8155 114.099C46.8025 113.555 45.776 113.001 44.8141 112.484C44.4977 112.639 44.1491 112.712 44.0705 112.871C41.7081 117.489 40.6681 117.716 37.1653 114.103C36.2129 113.123 35.7097 111.794 35.0481 110.608C34.8302 110.213 34.9334 109.572 34.6073 109.322C30.9219 106.486 31.3129 102.405 31.122 98.5843C31.0138 96.5078 29.4325 95.8776 27.9203 95.117C24.9744 93.6425 24.9314 93.6946 25.1157 89.9513C26.7335 90.4978 28.2012 90.9829 29.688 91.4871C32.2188 89.5057 30.2452 87.1132 31.2167 85.0995C34.5728 85.4488 35.1517 85.2486 37.7577 82.5827C35.2877 83.5648 33.2914 84.3554 31.2847 85.1515L31.2646 85.1094ZM49.3861 94.8699C55.1289 98.2142 62.7311 96.0454 65.4587 90.5896C66.3097 88.8858 67.1181 87.4624 69.2685 86.6959C70.0635 86.4109 70.9086 85.3373 71.0697 84.5488C71.7676 81.056 67.0206 77.3616 63.1093 78.214C62.7321 78.296 62.264 78.4202 62.0379 78.6627C60.8709 79.959 58.9626 81.2775 58.8147 82.6393C58.4924 85.6466 56.3039 86.8845 53.6095 88.079C53.848 89.1781 54.0687 90.1517 54.2847 91.1397C52.7257 92.3323 51.1945 93.4927 49.3837 94.877L49.3861 94.8699ZM36.1237 70.4154C37.6526 70.7685 39.013 71.4978 40.2039 71.2792C44.3803 70.527 48.5821 69.6736 52.621 68.4138C56.25 67.2826 56.7445 64.2196 53.96 62.1088C51.5638 60.2912 46.8737 60.3592 44.4532 62.4699C41.7055 64.8707 39.1816 67.4698 36.1182 70.4066L36.1237 70.4154ZM40.4691 81.8482C41.7945 83.3462 42.7359 84.3848 43.6439 85.4468C44.6094 86.5664 45.6086 87.0234 47.315 86.1046C49.8424 84.7463 52.5235 83.6175 55.1317 82.3747C55.4688 82.2084 55.7355 81.921 56.1466 81.6101C56.0298 80.7339 55.9066 79.826 55.7706 78.9306C55.7593 78.837 55.6115 78.7685 55.3428 78.5001C50.1392 77.6787 45.5114 80.0116 40.4611 81.8465L40.4691 81.8482ZM43.5519 106.966C42.7116 105.446 42.0692 104.279 41.4187 103.111C40.9405 102.244 40.1941 101.337 39.073 102.087C38.4882 102.484 38.1115 103.943 38.4589 104.486C39.4613 106.032 40.9481 107.251 43.5496 106.973L43.5519 106.966ZM177.301 71.4542C175.562 69.9696 174.285 69.5771 172.514 70.1023C172.885 73.0013 174.849 71.8235 177.301 71.4542ZM25.0066 82.9751C27.9322 83.1063 28.0239 82.0145 26.9041 80.0034C26.1152 81.2407 25.5609 82.1079 25.0066 82.9751ZM65.0351 45.9723C65.9038 45.4666 66.9085 45.1412 66.9381 44.7973C66.9849 44.2744 66.4949 43.5191 65.9638 43.2955C65.6124 43.147 64.4245 43.663 64.3009 44.0331C64.1439 44.5029 64.6734 45.1141 65.0375 45.9652L65.0351 45.9723Z" fill="white"/>
<path d="M119.453 21.9087C118.295 20.5744 117.622 19.8043 116.679 18.7198C114.533 22.1273 111.831 22.5519 108.764 20.4438C105.496 23.9927 109.487 25.4314 110.312 28.272C112.278 27.1402 113.687 26.2437 115.169 25.4842C116.455 24.8286 117.786 24.19 119.171 23.7983C120.745 23.3542 122.286 23.6186 122.398 25.3003C122.482 26.5806 125.183 27.1296 123.176 29.0745C122.317 28.6082 121.435 28.1299 120.223 27.4691C118.633 29.6978 117.02 31.8685 115.528 34.0868C114.697 35.323 113.95 36.6145 113.362 37.9389C112.468 39.9762 111.178 41.7418 108.547 41.7245C106.096 41.7062 105.178 39.8052 104.434 38.0998C104.028 37.1715 103.996 36.0922 103.895 35.0671C103.785 33.9412 103.79 32.8012 103.746 31.8867C101.974 30.7532 99.1003 31.8726 98.7584 29.1165C103.042 26.4084 100.965 22.9979 100.179 19.6558C101.596 19.2707 102.84 18.7663 104.116 18.626C106.341 18.377 108.063 17.6136 109.681 16.0908C112.407 13.5257 115.511 15.1924 118.321 15.6423C120.434 15.9863 120.153 18.1804 120.661 19.647C120.809 20.0731 120.098 20.771 119.466 21.8961L119.453 21.9087Z" fill="white"/>
<path d="M100.392 6.8648C100.419 5.94213 100.205 4.9471 100.546 4.10447C100.934 3.14961 101.618 2.02018 102.537 1.51725C105.288 -0.000317412 108.211 0.906317 109.517 3.58716C110.329 3.48065 111.204 3.3643 112.326 3.22284C113.088 4.33851 114.011 5.22863 115.746 5.80689C117.329 6.33089 118.506 8.32337 119.167 9.92034C119.729 11.2763 118.03 12.1738 116.671 12.7916C115.484 13.3306 113.776 14.3327 113.085 13.1327C111.697 10.747 109.047 10.992 106.774 10.3637C106.291 10.2261 105.854 9.97631 105.092 9.65189C105.24 8.7999 105.514 7.90521 105.5 7.02743C105.49 6.39387 105.103 5.78922 104.893 5.16764C104.117 5.47185 103.31 5.71637 102.579 6.09068C102.156 6.30794 101.847 6.72345 101.484 7.04422C101.12 6.98442 100.758 6.91748 100.394 6.85767L100.392 6.8648ZM110.731 5.72424C110.402 5.76301 110.084 5.79631 109.755 5.83508C109.758 6.33776 109.76 6.84044 109.763 7.34312C110.102 7.29888 110.729 7.26075 110.732 7.20052C110.801 6.71265 110.744 6.22143 110.728 5.73134L110.731 5.72424Z" fill="white"/>
<path d="M121.977 14.456C123.602 13.7561 125.226 13.0563 127.239 12.1929C127.499 15.0919 132.588 14.5963 131.55 18.2626C128.24 20.7377 127.074 20.7028 125.912 17.4126C125.264 15.5747 123.687 15.3639 121.977 14.456Z" fill="white"/>
<path d="M80.5875 99.7336C77.8053 102.416 74.9951 102.119 72.0616 101.628C73.0626 98.1218 75.6338 97.4496 80.5875 99.7336Z" fill="white"/>
<path d="M91.3629 10.5728C93.351 11.1347 94.1968 11.872 93.709 13.255C93.1998 14.7021 91.8468 14.8189 90.5185 14.606C89.2062 14.3964 88.3454 12.9636 89.1069 11.987C89.6616 11.272 90.8098 10.9 91.3629 10.5728Z" fill="white"/>
<path d="M7.6606 75.9075C8.36547 74.1812 9.36121 74.1125 10.4717 74.3642C11.5526 74.6022 12.5604 75.0078 12.1561 76.2178C11.7636 77.3923 10.5552 77.5616 9.53947 77.2306C8.74814 76.9686 8.1601 76.2768 7.6606 75.9075Z" fill="white"/>
<path d="M84.2468 8.52854C85.8251 8.14628 86.8239 7.6598 87.6317 7.79586C88.1554 7.88857 88.4065 8.89896 88.7772 9.50033C87.886 9.89485 86.9937 10.5478 86.1024 10.5848C85.6173 10.6065 85.1571 9.58348 84.2468 8.52854Z" fill="white"/>
<path d="M94.2011 24.038C95.1521 23.6177 95.9242 23.0693 96.1694 23.2035C96.7982 23.569 97.2026 24.2229 97.6953 24.7658C97.1288 25.1587 96.2687 25.9705 96.0483 25.8642C95.3813 25.5365 94.9625 24.8492 94.2011 24.038Z" fill="white"/>
<path d="M212.512 67.2293C212.71 67.7342 212.989 68.2025 212.901 68.2605C212.438 68.5757 211.878 68.7951 211.359 69.0458C211.196 68.7155 210.807 68.1711 210.901 68.0917C211.314 67.7507 211.867 67.5527 212.512 67.2293Z" fill="white"/>
<path d="M106.995 12.8749C106.047 12.8012 105.097 12.7347 103.466 12.6115C105.298 11.11 106.301 11.2253 107.274 12.0421C107.181 12.3197 107.088 12.5973 106.998 12.8678L106.995 12.8749Z" fill="white"/>
<path d="M85.1077 117.434C85.4476 117.77 85.6723 117.991 85.8947 118.22C85.6111 118.405 85.2991 118.751 85.0525 118.723C84.7716 118.695 84.4534 118.371 84.3698 118.111C84.3256 117.988 84.7933 117.711 85.1077 117.434Z" fill="white"/>
</svg>
