<svg width="197" height="153" viewBox="0 0 197 153" fill="none" xmlns="http://www.w3.org/2000/svg">
<path d="M88.9971 54.9884C87.8848 54.2919 86.6012 53.8142 87.0037 52.2649C87.3972 50.7454 85.1661 50.7179 84.2195 49.8374C84.0337 48.5774 83.837 47.2706 83.6512 46.0106C81.9727 43.9532 79.4954 46.2187 77.5005 44.7616C76.1874 47.2031 73.0967 45.9074 70.695 46.5116C72.2778 45.2344 73.8629 43.9497 75.4458 42.6725C75.3013 42.537 75.1591 42.3941 75.0146 42.2586L72.5932 43.3431C69.3362 41.3534 69.4402 40.8096 73.224 39.2118C73.5744 37.3371 71.8915 36.838 70.112 36.4597C70.004 35.4231 69.9015 34.4681 69.7997 33.4611C70.322 33.324 70.7944 33.2028 71.1252 33.1192C70.9944 32.1252 70.8755 31.1582 70.7473 30.1888C70.9816 30.1097 71.2123 30.0257 71.4466 29.9466C72.6143 30.825 73.7762 31.7059 74.9577 32.5716C75.4407 32.93 75.9149 33.3505 76.4861 33.5661C77.5502 33.9742 78.5074 33.4422 78.4216 32.5313C78.3927 32.1955 78.0182 31.8596 78.0079 31.5283C77.9952 31.0562 78.171 30.59 78.2676 30.1205C78.8516 30.227 79.4608 30.2835 80.0165 30.4673C80.3901 30.5906 80.6829 30.8986 81.2148 31.2609C82.9405 30.3072 84.6256 29.3716 86.6464 28.2534C86.8871 28.3523 87.6221 28.5398 88.1913 28.9112C89.8754 30.0038 89.7083 30.408 88.121 31.4677C87.0042 32.2132 86.1393 33.2528 85.372 34.2681C83.1652 37.1809 83.2038 37.2024 79.4568 36.6204C79.5844 37.5255 79.7204 38.4526 79.8801 39.5499C81.507 38.6081 82.9013 39.1008 84.2189 40.3124C85.2852 41.2943 86.5041 41.9366 88.2647 41.5807C89.5028 41.3298 90.5385 41.9314 91.266 42.8907C91.6421 43.3874 92.2267 43.7907 92.9935 44.487C93.5221 43.4495 93.9068 42.6895 94.3053 41.9169C96.5348 41.5512 98.5851 40.9493 99.0138 38.8652C101.998 39.0913 103.455 39.7864 103.384 40.9503C100.337 40.1905 98.9825 41.359 98.0279 43.5753C97.5978 44.5687 95.7587 45.1019 94.1382 46.1053C95.6915 46.2039 96.9642 46.2861 98.5909 46.3906C98.8291 48.2407 99.1741 50.0687 99.2722 51.8846C99.3691 53.6881 99.8844 55.3172 100.92 56.9972C102.045 58.8312 102.627 60.8694 103.446 62.8211C103.765 63.5885 104.075 64.3537 104.397 65.1138C105.068 66.6926 106.209 67.6086 108.43 67.8021C113.504 68.2549 118.407 68.2933 122.822 66.1282C123.604 65.7458 124.613 65.3908 125.51 65.4413C129.615 65.6819 132.632 64.0854 135.564 62.2234C136.493 61.6326 137.575 61.187 138.789 60.5655C139.457 61.7066 139.904 62.4814 140.511 63.5273C141.44 63.2531 142.319 63.0467 143.136 62.7452C145.048 62.0374 146.888 61.7688 149.029 62.6763C149.989 63.0792 151.426 63.1654 152.426 62.9045C154.524 62.3462 156.55 61.5742 158.462 60.6858C160.379 59.7949 162.151 58.7041 163.911 57.6186C164.55 57.2293 165.048 56.6574 165.468 56.0946C166.726 54.4334 167.92 52.7364 169.362 50.7473C170.227 51.8966 171.079 52.1608 172.428 51.9248C175.478 51.3985 177.534 52.9187 177.445 55.4706C177.429 55.8716 176.712 56.5865 176.431 56.538C173.426 56.0369 172.737 58.0375 171.331 59.3258C170.687 59.9181 169.643 60.7537 168.904 60.6455C166.823 60.3378 165.825 61.3851 164.428 62.1143C162.302 63.2149 159.941 64.0335 157.701 64.9979C156.831 65.3748 156.008 65.8273 155.048 66.3025C156.361 67.7615 158.977 67.1453 159.384 69.165C157.127 70.6665 153.391 69.6663 150.907 71.5733C151.558 71.9728 151.863 72.2236 152.226 72.3644C153.19 72.74 154.199 73.263 153.73 74.1385C153.41 74.7339 152.463 75.2805 151.641 75.4486C149.607 75.8621 147.488 76.0623 145.772 77.1345C146.972 78.4698 148.009 79.613 149.033 80.7689C150.177 82.0584 151.747 82.4015 153.619 82.5899C150.938 83.106 148.276 83.691 145.572 84.121C143.43 84.4602 141.465 84.9786 139.787 86.1243C139.085 86.6064 138.167 87.1079 137.278 87.1513C134.307 87.3 132.063 88.4278 129.944 89.919C127.402 91.7036 124.589 93.2539 122.143 95.118C119.755 96.9364 119.764 97.8885 122.008 100.112C123.33 101.425 125.012 102.525 126.616 103.634C129.413 105.572 130.282 107.456 129.386 109.995C128.802 111.644 127.788 112.383 125.67 112.162C123.859 111.973 122.028 111.534 120.298 110.991C115.314 109.426 110.955 110.158 106.85 112.39C105.656 113.041 104.299 113.656 102.89 113.873C99.3697 114.417 95.778 114.714 91.6759 115.176C93.8743 113.901 95.6921 112.841 97.504 111.785C98.101 111.433 98.8338 111.163 99.2493 110.699C99.6407 110.266 99.9228 109.597 99.8025 109.083C99.7237 108.763 98.8272 108.363 98.2657 108.298C97.2008 108.175 95.9938 108.024 95.0656 108.311C91.2092 109.502 87.4358 110.85 83.6328 112.146C82.0138 112.697 82.2031 113.613 83.0966 114.886C83.8477 114.472 84.4843 114.122 85.0862 113.788C86.242 114.291 86.8554 115.843 85.9156 116.6C84.3292 117.873 83.1042 119.674 80.3119 119.614C78.5928 119.583 77.3724 120.323 76.1455 121.234C72.8137 123.708 69.6535 126.344 65.6264 128.167C64.3671 128.738 63.3922 129.71 62.3484 130.546C59.7366 132.626 58.3217 132.169 54.9989 131.061C54.7129 130.963 54.294 130.724 54.2747 130.539C53.9955 127.713 51.0499 126.385 49.0451 124.512C47.1506 122.739 45.1412 120.997 44.863 118.5C44.8231 118.118 44.3482 117.749 43.8917 117.121C43.3715 117.831 42.9869 118.359 42.5459 118.957C40.5775 118.308 39.9271 117.011 39.5408 115.601C39.3778 114.996 39.354 114.361 39.4027 113.752C39.7736 109.22 37.689 105.039 35.7683 100.83C35.3198 99.8429 34.4484 99.3937 33.1645 99.0001C30.725 98.2522 28.3815 97.203 26.1075 96.1227C25.0038 95.5967 24.3536 94.5641 24.9758 93.5815C25.5224 92.7168 26.485 92.2663 27.9478 92.6315C28.9161 92.8759 30.0353 92.8524 31.0433 92.7497C35.7375 92.2681 40.3967 91.6537 45.0913 91.2043C49.6568 90.7675 53.9125 89.9464 57.2935 87.2761C58.3743 86.4175 60.2015 86.2062 61.4181 85.4288C66.46 82.2019 71.3456 78.8126 76.4075 75.6027C79.0466 73.9299 81.7005 72.1084 84.7517 71.0453C88.5486 69.7193 91.0269 67.3177 93.5982 65.0231C94.7379 64.0025 94.8698 62.1546 95.1935 60.6341C95.3858 59.7149 95.1105 58.7016 94.9671 57.7326C94.4625 54.226 92.5981 53.3821 88.8745 54.9464L88.983 54.9689L88.9971 54.9884ZM54.1147 93.1105C49.5529 92.2735 42.562 94.5716 40.5228 97.4932C42.6287 97.6866 44.8001 98.3931 46.3535 97.9104C49.2435 97.0164 51.7236 95.389 54.1111 93.1056L54.1147 93.1105ZM114.787 72.9819C114.332 72.8628 113.833 72.6086 113.358 72.621C112.515 72.6436 111.702 72.8782 110.857 72.9404C109.178 73.0596 108.986 74.0431 108.823 75.1298C108.648 76.2737 108.461 77.3585 109.914 78.2061C110.962 78.8149 111.88 78.8947 112.801 78.2175C114.353 77.077 115.083 75.6197 115.013 73.875C115.009 73.6253 114.885 73.3706 114.775 72.9871L114.787 72.9819ZM68.7953 122.382C69.0524 122.61 69.3094 122.837 69.5665 123.064C70.2675 122.517 70.9627 121.974 71.6637 121.427C71.5086 121.277 71.3512 121.134 71.1961 120.984C70.399 121.451 69.5925 121.916 68.7953 122.382ZM131.796 84.1495C132.816 83.1116 133.369 82.5411 134.098 81.8011C132.294 81.636 131.527 82.4188 131.796 84.1495ZM71.7015 84.3554C69.9857 83.9486 69.4415 84.6896 69.3061 85.8351L71.7015 84.3554ZM97.7879 64.2379C97.9253 64.2474 98.0534 64.2547 98.1908 64.2641C98.2539 63.8226 98.3206 63.3858 98.3838 62.9443C97.8978 63.1102 97.7115 63.3293 97.6638 63.5702C97.6216 63.7764 97.7403 64.0139 97.7914 64.2428L97.7879 64.2379Z" fill="white"/>
<path d="M113.662 133.087C114.537 132.03 115.261 131.324 115.756 130.515C116.219 129.758 116.448 128.9 116.858 127.89C116.094 127.567 115.3 127.225 114.52 126.89C114.624 126.579 114.631 126.304 114.735 126.277C116.563 125.846 116.894 124.567 117.328 123.294C118.049 121.169 120.416 120.199 123.7 120.988C121.904 121.941 120.431 122.724 118.581 123.708C119.428 123.987 120.024 124.353 120.264 124.239C122.231 123.331 123.46 124.124 124.611 125.455C124.96 125.861 125.589 126.115 126.415 126.649C126.573 124.466 128.087 123.613 130.552 123.348C130.772 124.031 130.996 124.731 131.283 125.623C133.928 124.264 136.109 125.236 137.645 126.24C140.82 126.077 143.431 125.94 146.047 125.82C146.246 125.808 146.541 125.844 146.658 125.953C148.476 127.567 150.956 128.031 153.281 128.791C154.759 129.271 155.523 130.143 155.191 131.545C155.015 132.276 155.568 133.184 155.302 133.865C154.679 135.449 153.644 136.836 151.437 137.328C148.468 137.987 145.52 138.707 142.253 139.474C143.525 141.055 142.473 142.101 141.687 143.26C140.928 144.382 139.566 144.23 138.342 144.417C137.507 144.546 136.541 144.527 135.851 144.855C133.184 146.121 130.619 146.089 127.911 144.539C127.531 144.322 126.206 144.56 126.073 144.852C125.598 145.879 125.459 147.019 125.088 148.516C124.566 148.517 123.586 148.531 122.607 148.536C122.237 146.823 121.933 145.39 121.581 143.753C120.218 144.118 119.253 144.376 118.578 144.556C116.911 143.804 115.479 143.155 113.834 142.413L111.852 139.685C111.932 139.584 112.155 139.31 112.375 139.03C114.441 136.432 114.281 136.2 110.936 134.451C109.907 133.911 108.918 132.888 108.569 131.953C107.971 130.348 107.886 128.636 107.557 126.788C109.002 126.715 110.127 126.657 111.261 126.601C113.283 128.381 110.004 128.908 110.448 130.64C111.16 131.186 112.194 131.975 113.667 133.104L113.662 133.087Z" fill="white"/>
<path d="M145.951 45.5053C145.272 47.0234 144.771 48.617 143.864 50.0311C143.151 51.132 141.941 52.0035 140.69 53.2295C140.318 52.8021 139.547 52.2693 139.645 51.9606C140.28 50.0031 138.679 48.4021 138.337 46.5989C137.042 46.9511 134.978 49.5893 132.147 54.5134C130.539 54.1295 130.413 53.0043 130.194 51.985C130.006 51.1134 129.959 50.224 129.864 49.343C129.714 47.9314 129.111 47.0068 127.234 46.3046C124.897 45.434 122.909 43.9351 123.741 41.4764C121.146 40.7794 119.278 41.1817 118.137 42.6833C118.785 43.4264 119.468 44.2182 120.074 44.9152C120.044 45.1484 120.069 45.2789 120.015 45.3097C118.27 46.2272 119.208 49.0813 115.871 48.9491C113.752 48.8654 111.65 49.2586 109.567 49.4362C105.451 43.9188 105.364 42.0978 109.327 39.3724C107.363 38.8773 105.613 38.2341 103.823 38.042C101.833 37.8294 100.272 37.6052 98.829 36.0627C97.8292 34.9931 94.8987 35.906 93.8941 33.6567C94.7891 33.5463 95.5527 33.4559 96.4744 33.34C96.8468 32.7533 97.2764 32.0764 97.745 31.3369C97.4419 31.1627 97.1867 30.8961 96.9505 30.8986C94.0297 30.9159 92.389 33.1494 93.606 35.3422C93.9201 35.9119 94.0462 36.5399 94.4774 37.7674C92.3979 36.8394 91.0105 36.3568 89.8095 35.6551C88.2961 34.7769 88.2479 33.2099 89.8802 32.698C92.0054 32.0297 92.4264 30.3686 93.752 29.3289C91.4692 25.6376 91.6594 24.4093 94.8291 21.6908C98.2831 23.3267 99.0261 25.9451 98.7923 29.111L100.704 28.2543C102.006 30.5319 99.3782 31.7351 98.9543 33.9206C100.559 33.8471 102.61 34.2068 103.068 33.653C104.83 31.5134 108.186 32.5282 110.247 31.1588C110.661 30.883 111.552 30.7355 112.031 30.9084C114.195 31.6886 116.034 31.3232 117.882 30.463C118.341 30.2504 119.069 30.3958 119.553 30.3856C119.515 29.3179 119.479 28.3071 119.413 26.7478C120.404 27.3823 121.136 27.6289 121.199 27.9368C121.474 29.2666 121.557 30.6177 121.731 32.1673C120.891 32.2271 119.902 32.3024 118.686 32.3949C119.317 34.1723 119.741 35.7908 122.001 36.8188C123.004 37.2799 123.616 38.3552 124.602 39.3533C127.075 38.6134 125.548 35.9523 127.375 34.6299C129.651 35.7863 128.575 37.7605 129.477 39.636C132.407 39.8015 135.53 39.9778 138.86 40.1646C138.711 38.5329 137.727 38.1085 136.28 38.1564C135.866 38.1676 135.451 38.4312 135.066 38.3775C134.706 38.3258 134.106 37.9749 134.118 37.8015C134.134 37.4326 134.378 36.871 134.72 36.7698C136.893 36.1574 139.1 35.6011 141.34 35.1333C142.96 34.7948 143.956 35.4786 143.7 36.827C143.459 38.0713 142.852 39.254 142.257 40.8767C142.934 40.5087 143.219 40.2974 143.555 40.179C145.256 39.5716 146.022 39.9388 146.03 41.4078C146.037 42.8125 145.964 44.2139 145.926 45.6196L145.96 45.5076L145.951 45.5053Z" fill="white"/>
<path d="M172.953 94.0196C172.828 93.3198 172.461 92.6449 172.703 92.2391C173.008 91.7281 173.802 91.1202 174.416 91.1294C175.499 91.1411 176.175 91.8391 175.883 92.8099C175.732 93.3103 175.264 93.7654 175.266 94.2551C175.271 94.8214 175.407 95.6643 175.872 95.934C177.852 97.0743 178.778 98.7391 179.755 100.38C180.277 101.257 180.97 101.619 182.091 101.439C182.613 101.354 183.243 101.123 183.645 101.285C184.36 101.572 185.26 102.027 185.494 102.562C185.884 103.446 184.891 103.866 184 103.78C182.535 103.636 181.66 104.196 180.606 104.817C179.13 105.692 177.518 105.122 177.257 103.579C176.946 101.756 174.898 100.374 175.3 98.36C175.468 97.523 174.754 97.313 172.401 97.0438C171.545 99.0677 171.787 101.103 172.861 103.141C174.109 105.513 173.009 108.512 170.599 109.56C169.323 110.119 168.121 109.934 166.855 109.565C165.198 109.081 163.759 108.982 162.488 110.192C161.644 110.996 160.2 111.482 159.038 110.569C157.413 109.295 155.796 109.309 153.647 110.04C153.594 107.674 153.446 105.59 153.577 103.529C153.61 102.972 154.38 102.394 154.982 101.996C155.62 101.574 156.575 101.462 157.206 101.031C158.228 100.334 159.445 99.5885 158.419 98.2079C157.678 97.2095 158.14 96.5245 159.047 95.9438C160.425 95.0614 161.006 94.0325 160.268 92.5097C160.036 92.0323 160.338 91.3483 160.564 90.8142C160.904 90.0032 161.463 89.2617 161.813 88.453C162.296 87.3322 163.157 86.985 164.558 87.455C165.363 87.7273 166.176 87.9896 167.105 88.2964C168.762 85.2934 171.906 84.4527 175.269 83.7335C176.482 85.4762 176.09 86.9759 175.09 88.4959C173.636 88.8829 171.4 87.3918 170.724 89.4837C170.104 91.3889 170.825 93.0036 172.949 94.0147L172.953 94.0196Z" fill="white"/>
<path d="M177.774 63.9083C180.06 66.9268 182.011 69.5072 183.965 72.0802C184.679 73.0198 184.515 73.8617 183.388 74.3085C180.753 75.3536 178.744 77.2808 175.573 77.5977C174.664 77.6887 173.712 78.1021 173.017 78.5818C169.59 80.957 165.677 79.4297 161.936 78.9622C161.245 78.8779 160.448 77.9822 160.132 77.3359C160.013 77.0985 161.055 76.3542 161.735 76.1073C165.531 74.7161 168.291 72.7755 168.281 68.9569C168.277 68.2546 169.093 67.3271 169.872 66.9718C172.236 65.8928 174.77 65.0478 177.774 63.9083Z" fill="white"/>
<path d="M149.841 105.985C149.234 106.534 148.763 107.133 148.093 107.511C147.489 107.853 146.538 108.266 145.976 108.085C145.327 107.878 144.827 107.095 144.473 106.492C144.266 106.133 144.486 105.633 144.459 105.194C144.352 103.356 143.617 102.619 141.308 102.453C139.445 102.319 137.979 101.93 136.9 100.508C135.67 98.8895 136.414 95.6956 138.414 94.7925C140.218 93.9777 141.258 94.2352 142.402 95.8211C142.795 96.3619 143.092 96.9393 143.406 97.457C143.673 97.5701 143.856 97.6948 144.056 97.7276C145.311 97.9534 146.972 97.8415 147.698 98.4593C148.383 99.0434 147.988 100.402 148.261 101.391C148.671 102.854 149.246 104.288 149.837 105.98L149.841 105.985Z" fill="white"/>
<path d="M154.849 123.212C156.099 123.717 157.015 124.101 157.944 124.459C160.324 125.388 161.444 124.88 161.351 122.733C161.29 121.371 160.826 120.003 160.455 118.213C161.138 118.805 161.741 119.096 161.868 119.472C162.407 121.09 163.086 122.743 163.14 124.372C163.173 125.378 162.409 126.514 161.588 127.308C160.454 128.411 158.937 129.239 157.62 130.165C157.257 129.21 157.118 127.878 156.286 126.933C155.347 125.862 154.741 124.913 154.847 123.219L154.849 123.212Z" fill="white"/>
<path d="M152.903 54.8212C152.993 51.7004 154.504 50.694 159.1 50.7846C157.954 53.4232 156.092 55.5427 154.201 57.6108C153.686 58.1708 152.471 58.2955 151.323 58.713C150.456 55.6274 154.289 55.9889 154.861 54.2084C154.6 54.3772 154.368 54.5973 154.068 54.7124C153.814 54.8069 153.478 54.7769 152.907 54.8261L152.903 54.8212Z" fill="white"/>
<path d="M179.769 93.6328C179.591 93.0281 179.317 92.6406 179.43 92.3835C179.965 91.1231 180.772 89.9931 180.41 88.4697C180.191 87.5345 181.648 86.7592 182.544 87.0939C183.682 87.52 183.672 88.3191 183.453 89.1275C183.247 89.8591 182.885 90.5766 182.866 91.3214C182.829 92.8557 181.833 93.4506 179.773 93.6376L179.769 93.6328Z" fill="white"/>
<path d="M145.917 45.617C146.948 45.0907 147.975 44.5594 149.244 43.9068C149.927 44.8471 150.521 45.485 150.868 46.1949C151.203 46.8779 151.722 47.8785 151.381 48.2963C150.945 48.8273 149.726 48.915 149.149 49.1028C147.878 47.6705 146.918 46.5827 145.957 45.5025L145.923 45.6144L145.917 45.617Z" fill="white"/>
<path d="M153.578 45.6263C152.752 42.9676 154.252 41.7141 156.584 40.8436C158.695 42.7133 158.075 43.7726 153.578 45.6263Z" fill="white"/>
<path d="M142.392 54.0492C143.705 54.8945 143.352 55.6464 142.901 56.3139C142.307 57.1872 141.726 58.1319 140.848 58.7836C140.088 59.3438 139.085 58.8828 138.94 58.0499C138.833 57.4264 139.033 56.6134 139.492 56.156C140.316 55.3347 141.437 54.7223 142.397 54.0466L142.392 54.0492Z" fill="white"/>
<path d="M83.4428 28.2142C82.3747 28.118 81.5035 28.1662 80.7563 27.9198C80.2449 27.755 79.6155 27.1846 79.5801 26.7872C79.5437 26.4095 80.1562 25.9736 80.5906 25.6627C80.8899 25.4511 81.3617 25.3817 81.7717 25.3013C82.9344 25.0838 84.3874 24.8008 84.8231 26.0134C85.0277 26.5804 83.9966 27.3912 83.437 28.2168L83.4428 28.2142Z" fill="white"/>
<path d="M165.046 80.1333C167.675 82.1775 166.116 84.2584 166.831 86.7858C165.656 86.0143 164.661 85.6272 164.672 85.3253C164.762 83.7479 163.356 82.0661 165.042 80.1284L165.046 80.1333Z" fill="white"/>
<path d="M159.059 46.9737C159.81 46.5274 160.292 46.2402 160.745 45.9659C161.623 46.5607 160.45 47.9904 158.181 49.2529C156.072 47.5761 155.994 47.2685 157.301 45.2103C157.641 45.4455 157.997 45.6284 158.247 45.8778C158.521 46.1491 158.701 46.4816 159.059 46.9737Z" fill="white"/>
<path d="M109.503 26.6999C109.459 27.4627 109.416 28.2179 109.362 29.0105C107.552 28.7174 106.162 28.4946 104.752 28.2672C104.751 27.0322 106.333 26.5082 109.5 26.6951L109.503 26.6999Z" fill="white"/>
<path d="M158.114 93.1144C157.019 93.9859 156.001 94.5392 154.84 93.3222C153.968 92.4082 154.128 90.948 154.998 90.4745C155.991 89.9391 156.679 90.4958 158.114 93.1144Z" fill="white"/>
<path d="M131.686 35.0234C131.247 34.9164 130.225 34.8837 129.628 34.4536C128.88 33.9104 129.707 32.4163 131.056 32.0118C131.547 31.8629 132.557 32.1013 132.909 32.4475C133.778 33.2849 133.366 34.3027 131.683 35.0309L131.686 35.0234Z" fill="white"/>
<path d="M184.198 96.2522C184.065 96.1116 183.83 95.978 183.812 95.8374C183.558 94.0076 184.13 93.0408 185.548 93.1221C186.045 93.1511 186.83 93.555 186.976 93.9031C187.395 94.9034 186.112 95.9174 184.198 96.2522Z" fill="white"/>
<path d="M119.652 115.059C119.006 116.653 118.506 117.878 117.945 119.272C116.555 117.053 116.773 116.433 119.652 115.059Z" fill="white"/>
<path d="M152.868 116.195C152.567 115.484 152.11 114.772 152.036 114.056C152.001 113.723 152.726 113.379 153.109 113.039C153.527 113.381 154.275 113.724 154.305 114.072C154.363 114.776 154.03 115.481 153.862 116.189C153.531 116.189 153.204 116.193 152.868 116.195Z" fill="white"/>
<path d="M105.07 45.4782C104.388 45.6807 103.723 46.0237 103.019 46.0485C102.2 46.0732 101.094 45.9037 101.306 44.9371C101.374 44.629 102.391 44.328 102.99 44.3376C103.633 44.3462 104.3 44.7253 104.956 44.9415C104.993 45.1188 105.028 45.3035 105.064 45.4808L105.07 45.4782Z" fill="white"/>
<path d="M166.439 42.9183C165.934 43.6289 165.733 44.2293 165.247 44.4795C164.91 44.6498 163.875 44.4615 163.674 44.1961C163.075 43.3926 163.806 42.8973 164.624 42.6599C164.992 42.5532 165.53 42.7767 166.439 42.9183Z" fill="white"/>
<path d="M68.1243 39.0772C69.5318 39.9576 69.6866 40.773 68.379 41.7529C67.6996 40.839 67.6147 39.9471 68.1243 39.0772Z" fill="white"/>
<path d="M145.587 93.3548C144.85 92.8905 144.242 92.666 143.997 92.2977C143.832 92.0489 144.184 91.5938 144.308 91.235C144.831 91.4589 145.488 91.5909 145.82 91.9326C146.024 92.1386 145.721 92.6619 145.587 93.3548Z" fill="white"/>
<path d="M102.522 25.7675C102.556 24.8739 103.087 24.3902 104.298 24.5773C104.48 24.6056 104.793 25.1307 104.737 25.1814C104.248 25.6072 103.677 25.973 103.135 26.358C102.933 26.1644 102.727 25.9659 102.525 25.7723L102.522 25.7675Z" fill="white"/>
<path d="M112.323 27.716C113.085 28.0461 113.645 28.2148 114.065 28.5176C114.176 28.5968 113.877 29.0731 113.759 29.365C113.232 29.2005 112.654 29.0915 112.2 28.8365C112.058 28.7579 112.25 28.2715 112.317 27.7186L112.323 27.716Z" fill="white"/>
<path d="M83.2753 54.3085C83.0729 53.8503 82.8669 53.3872 82.6645 52.929C82.8805 52.8774 83.0964 52.8258 83.3123 52.7743C83.4973 53.2403 83.6824 53.7063 83.8638 54.1675C83.6688 54.2161 83.4703 54.2599 83.2695 54.3111L83.2753 54.3085Z" fill="white"/>
<path d="M160.245 81.348C159.538 81.4 158.831 81.4521 158.124 81.5042C158.066 81.2976 158.008 81.0911 157.947 80.8797C158.666 80.7383 159.381 80.5921 160.1 80.4508C160.15 80.7515 160.196 81.0473 160.239 81.3506L160.245 81.348Z" fill="white"/>
<path d="M180.496 95.1604C180.162 95.7363 180.07 96.1587 179.767 96.3333C179.538 96.4619 179.024 96.2724 178.643 96.2236C178.683 95.8567 178.573 95.3569 178.823 95.1612C179.047 94.9833 179.67 95.1433 180.506 95.1627L180.496 95.1604Z" fill="white"/>
<path d="M98.5879 37.1787L96.8854 37.9416L96.4815 37.4385C97.0252 37.1304 97.5724 36.827 98.1219 36.5163C98.2811 36.7353 98.4403 36.9544 98.5995 37.1735L98.5879 37.1787Z" fill="white"/>
<path d="M162.86 47.9243C162.958 48.3773 163.063 48.8277 163.165 49.2856C162.961 49.2998 162.756 49.3141 162.551 49.3283C162.468 48.875 162.378 48.4242 162.294 47.9709C162.484 47.957 162.67 47.9382 162.86 47.9243Z" fill="white"/>
<path d="M88.8933 54.9491C88.966 55.5881 89.0352 56.2223 89.1355 57.0685C88.2746 56.3909 88.2288 55.6903 88.9982 54.9667L88.8897 54.9442L88.8933 54.9491Z" fill="white"/>
<path d="M101.635 42.4391C101.45 42.8509 101.419 43.252 101.169 43.3834C100.962 43.4891 100.497 43.2716 100.144 43.1975C100.281 42.9104 100.352 42.5751 100.583 42.3552C100.688 42.2565 101.114 42.3884 101.644 42.4414L101.635 42.4391Z" fill="white"/>
<path d="M89.3797 22.022C89.83 22.272 90.1352 22.4385 90.4346 22.6076C90.2628 22.7621 90.1257 23.0171 89.9166 23.0463C89.6751 23.0835 89.2704 22.9809 89.1421 22.8254C89.0385 22.7041 89.2451 22.4179 89.3797 22.022Z" fill="white"/>
<path d="M139.463 121.336C139.329 121.648 139.315 121.945 139.143 122.015C138.958 122.099 138.623 121.965 138.349 121.926C138.4 121.722 138.37 121.426 138.521 121.339C138.692 121.237 139.035 121.328 139.463 121.336Z" fill="white"/>
<path d="M116.716 120.964C116.637 121.278 116.606 121.679 116.524 121.683C116.195 121.695 115.85 121.579 115.509 121.512C115.599 121.297 115.607 120.991 115.796 120.893C115.975 120.8 116.333 120.923 116.718 120.957L116.716 120.964Z" fill="white"/>
<path d="M76.1631 28.8989C75.8096 28.6766 75.4735 28.5626 75.3915 28.3863C75.325 28.2419 75.5682 28.0168 75.6699 27.8292C75.9153 27.9451 76.2778 28.0214 76.3772 28.1899C76.4624 28.3389 76.2648 28.5952 76.1573 28.9015L76.1631 28.8989Z" fill="white"/>
<path d="M90.222 26.604C89.7168 26.3525 89.3351 26.2394 89.1211 26.0188C89.0166 25.9172 89.2334 25.6133 89.3023 25.4016C89.6502 25.5105 90.0476 25.5713 90.3334 25.7533C90.4434 25.8202 90.2887 26.1672 90.2256 26.6088L90.222 26.604Z" fill="white"/>
</svg>
