<svg width="204" height="181" viewBox="0 0 204 181" fill="none" xmlns="http://www.w3.org/2000/svg">
<path d="M88.9971 113.844C87.8848 113.148 86.6012 112.67 87.0037 111.12C87.3972 109.601 85.1661 109.573 84.2195 108.693C84.0337 107.433 83.837 106.126 83.6512 104.866C81.9727 102.809 79.4954 105.074 77.5005 103.617C76.1874 106.059 73.0967 104.763 70.695 105.367C72.2778 104.09 73.8629 102.805 75.4457 101.528C75.3013 101.393 75.1591 101.25 75.0146 101.114L72.5932 102.199C69.3362 100.209 69.4402 99.6652 73.224 98.0674C73.5744 96.1927 71.8915 95.6936 70.112 95.3153C70.004 94.2787 69.9015 93.3237 69.7997 92.3167C70.322 92.1796 70.7944 92.0585 71.1252 91.9749C70.9944 90.9808 70.8755 90.0138 70.7473 89.0444C70.9816 88.9653 71.2123 88.8813 71.4466 88.8022C72.6143 89.6806 73.7762 90.5615 74.9577 91.4272C75.4407 91.7856 75.9149 92.2061 76.4861 92.4217C77.5502 92.8298 78.5074 92.2978 78.4216 91.3869C78.3927 91.0511 78.0182 90.7152 78.0079 90.384C77.9952 89.9118 78.171 89.4456 78.2676 88.9761C78.8516 89.0826 79.4608 89.1391 80.0165 89.3229C80.3901 89.4462 80.6829 89.7542 81.2148 90.1165C82.9405 89.1628 84.6256 88.2272 86.6464 87.1091C86.8871 87.2079 87.6221 87.3954 88.1913 87.7668C89.8754 88.8595 89.7083 89.2636 88.121 90.3233C87.0042 91.0689 86.1393 92.1085 85.372 93.1237C83.1652 96.0365 83.2038 96.058 79.4568 95.476C79.5844 96.3811 79.7204 97.3082 79.8801 98.4055C81.507 97.4637 82.9013 97.9564 84.2189 99.168C85.2852 100.15 86.5041 100.792 88.2647 100.436C89.5028 100.185 90.5385 100.787 91.266 101.746C91.6421 102.243 92.2268 102.646 92.9935 103.343C93.5221 102.305 93.9068 101.545 94.3053 100.773C96.5348 100.407 98.5851 99.8049 99.0138 97.7208C101.998 97.9469 103.455 98.642 103.384 99.806C100.337 99.0461 98.9825 100.215 98.0279 102.431C97.5978 103.424 95.7587 103.957 94.1382 104.961C95.6915 105.06 96.9642 105.142 98.5909 105.246C98.8291 107.096 99.1741 108.924 99.2722 110.74C99.3691 112.544 99.8844 114.173 100.92 115.853C102.045 117.687 102.627 119.725 103.446 121.677C103.765 122.444 104.075 123.209 104.397 123.969C105.068 125.548 106.209 126.464 108.43 126.658C113.504 127.111 118.407 127.149 122.822 124.984C123.604 124.601 124.613 124.246 125.51 124.297C129.615 124.538 132.632 122.941 135.564 121.079C136.493 120.488 137.575 120.043 138.789 119.421C139.457 120.562 139.904 121.337 140.511 122.383C141.44 122.109 142.319 121.902 143.136 121.601C145.048 120.893 146.888 120.624 149.029 121.532C149.989 121.935 151.426 122.021 152.426 121.76C154.524 121.202 156.55 120.43 158.462 119.541C160.379 118.65 162.151 117.56 163.911 116.474C164.55 116.085 165.048 115.513 165.468 114.95C166.726 113.289 167.92 111.592 169.362 109.603C170.227 110.752 171.079 111.016 172.428 110.78C175.478 110.254 177.534 111.774 177.445 114.326C177.429 114.727 176.712 115.442 176.431 115.394C173.426 114.893 172.737 116.893 171.331 118.181C170.687 118.774 169.643 119.609 168.904 119.501C166.823 119.193 165.825 120.241 164.428 120.97C162.302 122.07 159.941 122.889 157.701 123.854C156.831 124.23 156.008 124.683 155.048 125.158C156.361 126.617 158.977 126.001 159.384 128.021C157.127 129.522 153.391 128.522 150.907 130.429C151.558 130.828 151.863 131.079 152.226 131.22C153.19 131.596 154.199 132.119 153.73 132.994C153.41 133.589 152.463 134.136 151.641 134.304C149.607 134.718 147.488 134.918 145.772 135.99C146.972 137.325 148.009 138.469 149.033 139.625C150.177 140.914 151.747 141.257 153.619 141.445C150.938 141.962 148.276 142.547 145.572 142.977C143.43 143.316 141.465 143.834 139.787 144.98C139.085 145.462 138.167 145.964 137.278 146.007C134.307 146.156 132.063 147.283 129.944 148.775C127.402 150.559 124.589 152.109 122.143 153.974C119.756 155.792 119.764 156.744 122.008 158.968C123.33 160.281 125.012 161.381 126.616 162.49C129.413 164.427 130.282 166.311 129.386 168.85C128.802 170.5 127.788 171.238 125.67 171.018C123.859 170.828 122.028 170.389 120.298 169.847C115.314 168.281 110.955 169.013 106.85 171.246C105.656 171.897 104.299 172.511 102.89 172.729C99.3697 173.272 95.778 173.57 91.6759 174.032C93.8743 172.757 95.6921 171.697 97.504 170.64C98.101 170.289 98.8338 170.019 99.2493 169.555C99.6407 169.121 99.9227 168.453 99.8025 167.938C99.7237 167.618 98.8272 167.219 98.2657 167.154C97.2008 167.03 95.9938 166.88 95.0656 167.167C91.2092 168.358 87.4358 169.706 83.6328 171.002C82.0138 171.553 82.2031 172.469 83.0966 173.741C83.8477 173.327 84.4843 172.978 85.0862 172.644C86.242 173.146 86.8554 174.699 85.9156 175.456C84.3292 176.728 83.1042 178.53 80.3119 178.469C78.5928 178.439 77.3724 179.179 76.1455 180.09C72.8137 182.564 69.6535 185.2 65.6264 187.023C64.3671 187.593 63.3922 188.566 62.3484 189.401C59.7366 191.482 58.3217 191.024 54.9989 189.916C54.7129 189.818 54.294 189.58 54.2747 189.395C53.9955 186.569 51.0499 185.24 49.0451 183.368C47.1506 181.594 45.1412 179.853 44.863 177.356C44.8231 176.973 44.3482 176.605 43.8917 175.976C43.3715 176.687 42.9869 177.215 42.5459 177.812C40.5775 177.164 39.9271 175.866 39.5408 174.457C39.3778 173.852 39.354 173.217 39.4027 172.607C39.7736 168.076 37.689 163.895 35.7683 159.686C35.3198 158.699 34.4484 158.249 33.1645 157.856C30.725 157.108 28.3815 156.059 26.1075 154.978C25.0038 154.452 24.3536 153.42 24.9758 152.437C25.5224 151.572 26.485 151.122 27.9478 151.487C28.9161 151.731 30.0353 151.708 31.0433 151.605C35.7375 151.124 40.3967 150.509 45.0913 150.06C49.6568 149.623 53.9125 148.802 57.2935 146.132C58.3743 145.273 60.2015 145.062 61.4181 144.284C66.46 141.058 71.3456 137.668 76.4075 134.458C79.0466 132.785 81.7005 130.964 84.7517 129.901C88.5486 128.575 91.0269 126.173 93.5982 123.879C94.7379 122.858 94.8698 121.01 95.1935 119.49C95.3858 118.571 95.1105 117.557 94.9671 116.588C94.4625 113.082 92.5981 112.238 88.8745 113.802L88.9829 113.825L88.9971 113.844ZM54.1147 151.966C49.5529 151.129 42.562 153.427 40.5228 156.349C42.6287 156.542 44.8001 157.249 46.3535 156.766C49.2435 155.872 51.7236 154.245 54.1111 151.961L54.1147 151.966ZM114.787 131.837C114.332 131.718 113.833 131.464 113.358 131.477C112.515 131.499 111.702 131.734 110.857 131.796C109.178 131.915 108.986 132.899 108.823 133.985C108.648 135.129 108.461 136.214 109.914 137.062C110.962 137.671 111.88 137.75 112.801 137.073C114.353 135.933 115.083 134.475 115.013 132.731C115.009 132.481 114.885 132.226 114.775 131.843L114.787 131.837ZM68.7953 181.238C69.0524 181.465 69.3094 181.692 69.5665 181.919C70.2675 181.373 70.9627 180.829 71.6637 180.283C71.5086 180.133 71.3512 179.99 71.1961 179.84C70.399 180.307 69.5925 180.771 68.7953 181.238ZM131.796 143.005C132.816 141.967 133.369 141.397 134.098 140.657C132.294 140.492 131.527 141.274 131.796 143.005ZM71.7015 143.211C69.9857 142.804 69.4415 143.545 69.3061 144.691L71.7015 143.211ZM97.7879 123.094C97.9253 123.103 98.0534 123.11 98.1908 123.12C98.2539 122.678 98.3206 122.241 98.3838 121.8C97.8978 121.966 97.7115 122.185 97.6638 122.426C97.6216 122.632 97.7403 122.869 97.7914 123.098L97.7879 123.094Z" fill="white"/>
<path d="M113.662 191.943C114.537 190.885 115.261 190.18 115.756 189.371C116.219 188.614 116.448 187.756 116.858 186.745C116.094 186.423 115.3 186.081 114.52 185.746C114.624 185.435 114.631 185.16 114.735 185.133C116.563 184.701 116.894 183.423 117.328 182.15C118.049 180.025 120.416 179.055 123.7 179.843C121.904 180.797 120.431 181.58 118.581 182.564C119.428 182.842 120.024 183.208 120.264 183.094C122.231 182.187 123.46 182.98 124.611 184.311C124.96 184.716 125.589 184.97 126.415 185.504C126.573 183.322 128.087 182.469 130.552 182.204C130.772 182.887 130.996 183.587 131.283 184.479C133.928 183.119 136.109 184.092 137.645 185.096C140.82 184.932 143.431 184.795 146.047 184.676C146.246 184.664 146.541 184.7 146.658 184.809C148.476 186.422 150.956 186.887 153.281 187.646C154.759 188.127 155.523 188.999 155.191 190.401C155.015 191.132 155.568 192.04 155.302 192.721C154.679 194.305 153.644 195.692 151.437 196.184C148.468 196.843 145.52 197.563 142.253 198.33C143.525 199.91 142.473 200.957 141.687 202.116C140.928 203.237 139.566 203.086 138.342 203.272C137.507 203.401 136.541 203.382 135.851 203.711C133.184 204.977 130.619 204.945 127.911 203.394C127.531 203.177 126.206 203.415 126.073 203.708C125.598 204.734 125.459 205.875 125.088 207.372C124.566 207.373 123.586 207.386 122.607 207.392C122.237 205.678 121.933 204.245 121.581 202.608C120.218 202.973 119.253 203.231 118.578 203.411C116.911 202.66 115.479 202.01 113.834 201.268L111.852 198.54C111.932 198.44 112.155 198.165 112.375 197.886C114.441 195.287 114.281 195.056 110.936 193.306C109.907 192.767 108.918 191.744 108.569 190.809C107.971 189.204 107.886 187.492 107.557 185.644C109.002 185.571 110.127 185.513 111.261 185.456C113.283 187.236 110.004 187.763 110.448 189.495C111.16 190.042 112.194 190.831 113.667 191.96L113.662 191.943Z" fill="white"/>
<path d="M145.951 104.361C145.272 105.879 144.771 107.473 143.864 108.887C143.151 109.988 141.941 110.859 140.69 112.085C140.318 111.658 139.547 111.125 139.645 110.816C140.28 108.859 138.679 107.258 138.337 105.454C137.042 105.807 134.978 108.445 132.147 113.369C130.539 112.985 130.413 111.86 130.194 110.841C130.006 109.969 129.959 109.08 129.864 108.199C129.714 106.787 129.111 105.862 127.234 105.16C124.897 104.29 122.909 102.791 123.741 100.332C121.146 99.635 119.278 100.037 118.137 101.539C118.785 102.282 119.468 103.074 120.074 103.771C120.044 104.004 120.069 104.135 120.015 104.165C118.27 105.083 119.208 107.937 115.871 107.805C113.752 107.721 111.65 108.114 109.567 108.292C105.451 102.774 105.364 100.953 109.327 98.228C107.363 97.7329 105.613 97.0898 103.823 96.8976C101.833 96.685 100.272 96.4608 98.829 94.9183C97.8292 93.8488 94.8987 94.7616 93.8941 92.5123C94.7891 92.4019 95.5527 92.3115 96.4744 92.1956C96.8468 91.6089 97.2764 90.932 97.745 90.1925C97.4419 90.0184 97.1867 89.7517 96.9505 89.7542C94.0297 89.7715 92.389 92.005 93.606 94.1978C93.9201 94.7675 94.0462 95.3955 94.4774 96.623C92.3979 95.695 91.0105 95.2124 89.8095 94.5107C88.2961 93.6325 88.2479 92.0655 89.8802 91.5536C92.0054 90.8853 92.4264 89.2242 93.752 88.1846C91.4692 84.4932 91.6594 83.2649 94.8291 80.5464C98.2831 82.1824 99.0261 84.8007 98.7923 87.9666L100.704 87.1099C102.006 89.3875 99.3782 90.5908 98.9543 92.7763C100.559 92.7027 102.61 93.0625 103.068 92.5086C104.83 90.369 108.186 91.3838 110.247 90.0144C110.661 89.7386 111.552 89.5911 112.031 89.764C114.195 90.5443 116.034 90.1789 117.882 89.3186C118.341 89.1061 119.069 89.2514 119.553 89.2412C119.515 88.1735 119.479 87.1627 119.413 85.6034C120.404 86.2379 121.136 86.4846 121.199 86.7924C121.474 88.1222 121.557 89.4733 121.731 91.0229C120.891 91.0827 119.902 91.1581 118.686 91.2506C119.317 93.0279 119.741 94.6464 122.001 95.6744C123.004 96.1355 123.616 97.2108 124.602 98.2089C127.075 97.469 125.548 94.8079 127.375 93.4856C129.651 94.6419 128.575 96.6161 129.477 98.4916C132.407 98.6571 135.53 98.8334 138.86 99.0202C138.711 97.3885 137.727 96.9641 136.28 97.012C135.866 97.0233 135.451 97.2868 135.066 97.2331C134.706 97.1814 134.106 96.8305 134.118 96.6571C134.134 96.2883 134.378 95.7266 134.72 95.6254C136.893 95.013 139.1 94.4568 141.34 93.9889C142.96 93.6504 143.956 94.3342 143.7 95.6826C143.459 96.9269 142.852 98.1096 142.257 99.7323C142.934 99.3643 143.219 99.153 143.555 99.0346C145.256 98.4272 146.022 98.7944 146.03 100.263C146.037 101.668 145.964 103.07 145.926 104.475L145.96 104.363L145.951 104.361Z" fill="white"/>
<path d="M172.953 152.875C172.828 152.175 172.461 151.501 172.703 151.095C173.008 150.584 173.802 149.976 174.416 149.985C175.499 149.997 176.175 150.695 175.883 151.666C175.732 152.166 175.264 152.621 175.266 153.111C175.271 153.677 175.407 154.52 175.872 154.79C177.852 155.93 178.778 157.595 179.755 159.236C180.277 160.113 180.97 160.474 182.091 160.295C182.613 160.209 183.243 159.978 183.645 160.141C184.36 160.427 185.26 160.883 185.494 161.417C185.884 162.302 184.891 162.721 184 162.636C182.535 162.491 181.66 163.052 180.606 163.673C179.13 164.547 177.518 163.978 177.257 162.435C176.946 160.611 174.898 159.23 175.3 157.216C175.468 156.379 174.754 156.169 172.401 155.899C171.545 157.923 171.787 159.959 172.861 161.996C174.109 164.369 173.009 167.368 170.599 168.415C169.323 168.974 168.121 168.789 166.855 168.42C165.198 167.936 163.759 167.838 162.488 169.047C161.644 169.852 160.2 170.337 159.038 169.424C157.413 168.15 155.796 168.165 153.647 168.895C153.594 166.53 153.446 164.445 153.577 162.385C153.61 161.827 154.38 161.25 154.982 160.851C155.62 160.43 156.575 160.318 157.206 159.886C158.228 159.19 159.445 158.444 158.419 157.063C157.678 156.065 158.14 155.38 159.047 154.799C160.425 153.917 161.006 152.888 160.268 151.365C160.036 150.888 160.338 150.204 160.564 149.67C160.904 148.859 161.463 148.117 161.813 147.309C162.296 146.188 163.157 145.841 164.558 146.311C165.363 146.583 166.176 146.845 167.105 147.152C168.762 144.149 171.906 143.308 175.269 142.589C176.482 144.332 176.09 145.832 175.09 147.352C173.636 147.738 171.4 146.247 170.724 148.339C170.104 150.245 170.825 151.859 172.949 152.87L172.953 152.875Z" fill="white"/>
<path d="M177.774 122.764C180.06 125.782 182.011 128.363 183.965 130.936C184.679 131.875 184.515 132.717 183.388 133.164C180.753 134.209 178.744 136.136 175.573 136.453C174.664 136.544 173.712 136.958 173.017 137.437C169.59 139.813 165.677 138.285 161.936 137.818C161.245 137.734 160.448 136.838 160.132 136.192C160.013 135.954 161.055 135.21 161.735 134.963C165.531 133.572 168.291 131.631 168.281 127.813C168.277 127.11 169.093 126.183 169.872 125.827C172.236 124.748 174.77 123.903 177.774 122.764Z" fill="white"/>
<path d="M149.841 164.84C149.234 165.39 148.763 165.989 148.093 166.366C147.489 166.708 146.538 167.122 145.976 166.94C145.327 166.734 144.827 165.951 144.473 165.347C144.266 164.988 144.486 164.489 144.459 164.049C144.352 162.211 143.617 161.475 141.308 161.309C139.445 161.175 137.979 160.785 136.9 159.364C135.67 157.745 136.414 154.551 138.414 153.648C140.218 152.833 141.258 153.091 142.402 154.677C142.795 155.217 143.092 155.795 143.406 156.313C143.673 156.426 143.856 156.55 144.056 156.583C145.311 156.809 146.972 156.697 147.698 157.315C148.383 157.899 147.988 159.258 148.261 160.246C148.671 161.709 149.246 163.144 149.837 164.836L149.841 164.84Z" fill="white"/>
<path d="M154.849 182.067C156.099 182.572 157.015 182.956 157.944 183.315C160.324 184.244 161.444 183.736 161.351 181.588C161.29 180.227 160.826 178.859 160.455 177.069C161.138 177.66 161.741 177.952 161.868 178.327C162.407 179.946 163.086 181.599 163.14 183.227C163.173 184.233 162.409 185.37 161.588 186.164C160.454 187.266 158.937 188.095 157.62 189.02C157.257 188.066 157.118 186.733 156.286 185.789C155.347 184.718 154.741 183.769 154.847 182.075L154.849 182.067Z" fill="white"/>
<path d="M152.903 113.677C152.993 110.556 154.504 109.55 159.1 109.64C157.954 112.279 156.092 114.398 154.201 116.466C153.686 117.026 152.471 117.151 151.323 117.569C150.456 114.483 154.289 114.845 154.861 113.064C154.6 113.233 154.368 113.453 154.068 113.568C153.814 113.662 153.478 113.632 152.907 113.682L152.903 113.677Z" fill="white"/>
<path d="M179.769 152.488C179.591 151.884 179.317 151.496 179.43 151.239C179.965 149.979 180.772 148.849 180.41 147.325C180.191 146.39 181.648 145.615 182.544 145.95C183.682 146.376 183.672 147.175 183.453 147.983C183.247 148.715 182.885 149.432 182.866 150.177C182.829 151.711 181.833 152.306 179.773 152.493L179.769 152.488Z" fill="white"/>
<path d="M145.917 104.473C146.948 103.946 147.975 103.415 149.244 102.762C149.927 103.703 150.521 104.341 150.868 105.051C151.203 105.733 151.722 106.734 151.381 107.152C150.945 107.683 149.726 107.771 149.149 107.958C147.878 106.526 146.918 105.438 145.957 104.358L145.923 104.47L145.917 104.473Z" fill="white"/>
<path d="M153.578 104.482C152.752 101.823 154.252 100.57 156.584 99.6992C158.695 101.569 158.075 102.628 153.578 104.482Z" fill="white"/>
<path d="M142.392 112.905C143.705 113.75 143.352 114.502 142.901 115.169C142.307 116.043 141.726 116.987 140.848 117.639C140.088 118.199 139.085 117.738 138.94 116.905C138.833 116.282 139.033 115.469 139.492 115.012C140.316 114.19 141.437 113.578 142.397 112.902L142.392 112.905Z" fill="white"/>
<path d="M83.4428 87.0698C82.3747 86.9737 81.5035 87.0218 80.7563 86.7754C80.2449 86.6106 79.6155 86.0403 79.5801 85.6428C79.5437 85.2651 80.1562 84.8293 80.5906 84.5183C80.8899 84.3067 81.3617 84.2374 81.7717 84.1569C82.9344 83.9394 84.3874 83.6564 84.8231 84.869C85.0277 85.436 83.9966 86.2468 83.437 87.0724L83.4428 87.0698Z" fill="white"/>
<path d="M165.046 138.989C167.675 141.033 166.116 143.114 166.831 145.641C165.656 144.87 164.661 144.483 164.672 144.181C164.762 142.603 163.356 140.922 165.042 138.984L165.046 138.989Z" fill="white"/>
<path d="M159.059 105.829C159.81 105.383 160.292 105.096 160.745 104.822C161.623 105.416 160.45 106.846 158.181 108.108C156.072 106.432 155.994 106.124 157.301 104.066C157.641 104.301 157.997 104.484 158.247 104.733C158.521 105.005 158.701 105.337 159.059 105.829Z" fill="white"/>
<path d="M109.503 85.5555C109.459 86.3183 109.416 87.0736 109.362 87.8662C107.552 87.5731 106.162 87.3502 104.752 87.1228C104.751 85.8878 106.333 85.3638 109.5 85.5507L109.503 85.5555Z" fill="white"/>
<path d="M158.114 151.97C157.019 152.842 156.001 153.395 154.84 152.178C153.968 151.264 154.128 149.804 154.998 149.33C155.991 148.795 156.679 149.351 158.114 151.97Z" fill="white"/>
<path d="M131.686 93.879C131.247 93.7721 130.225 93.7393 129.628 93.3092C128.88 92.766 129.707 91.2719 131.056 90.8674C131.547 90.7185 132.557 90.9569 132.909 91.3031C133.778 92.1405 133.366 93.1584 131.683 93.8865L131.686 93.879Z" fill="white"/>
<path d="M184.198 155.108C184.065 154.967 183.83 154.834 183.812 154.693C183.558 152.863 184.13 151.896 185.548 151.978C186.045 152.007 186.83 152.411 186.976 152.759C187.395 153.759 186.112 154.773 184.198 155.108Z" fill="white"/>
<path d="M119.652 173.914C119.006 175.508 118.506 176.733 117.945 178.128C116.555 175.909 116.773 175.288 119.652 173.914Z" fill="white"/>
<path d="M152.868 175.051C152.567 174.34 152.11 173.627 152.036 172.912C152.001 172.579 152.726 172.234 153.109 171.895C153.527 172.237 154.275 172.58 154.305 172.928C154.363 173.632 154.03 174.336 153.862 175.045C153.531 175.044 153.204 175.049 152.868 175.051Z" fill="white"/>
<path d="M105.07 104.334C104.388 104.536 103.723 104.879 103.019 104.904C102.2 104.929 101.094 104.759 101.306 103.793C101.374 103.485 102.391 103.184 102.99 103.193C103.633 103.202 104.3 103.581 104.956 103.797C104.993 103.974 105.028 104.159 105.064 104.336L105.07 104.334Z" fill="white"/>
<path d="M166.439 101.774C165.934 102.485 165.733 103.085 165.247 103.335C164.91 103.505 163.875 103.317 163.674 103.052C163.075 102.248 163.806 101.753 164.624 101.516C164.992 101.409 165.53 101.632 166.439 101.774Z" fill="white"/>
<path d="M68.1243 97.9328C69.5318 98.8132 69.6866 99.6286 68.379 100.609C67.6996 99.6946 67.6147 98.8027 68.1243 97.9328Z" fill="white"/>
<path d="M145.587 152.21C144.85 151.746 144.242 151.522 143.997 151.153C143.832 150.905 144.184 150.449 144.308 150.091C144.831 150.315 145.488 150.447 145.82 150.788C146.024 150.994 145.721 151.518 145.587 152.21Z" fill="white"/>
<path d="M102.522 84.6231C102.556 83.7295 103.087 83.2458 104.298 83.4329C104.48 83.4612 104.793 83.9863 104.737 84.037C104.248 84.4629 103.677 84.8286 103.135 85.2136C102.933 85.02 102.727 84.8215 102.525 84.6279L102.522 84.6231Z" fill="white"/>
<path d="M112.323 86.5716C113.085 86.9017 113.645 87.0704 114.065 87.3732C114.176 87.4525 113.877 87.9287 113.759 88.2206C113.232 88.0561 112.654 87.9472 112.2 87.6921C112.058 87.6135 112.25 87.1272 112.317 86.5742L112.323 86.5716Z" fill="white"/>
<path d="M83.2753 113.164C83.0729 112.706 82.8669 112.243 82.6645 111.785C82.8805 111.733 83.0964 111.681 83.3123 111.63C83.4973 112.096 83.6824 112.562 83.8638 113.023C83.6688 113.072 83.4703 113.115 83.2695 113.167L83.2753 113.164Z" fill="white"/>
<path d="M160.245 140.204C159.538 140.256 158.831 140.308 158.124 140.36C158.066 140.153 158.008 139.947 157.947 139.735C158.666 139.594 159.381 139.448 160.1 139.306C160.15 139.607 160.196 139.903 160.239 140.206L160.245 140.204Z" fill="white"/>
<path d="M180.496 154.016C180.162 154.592 180.07 155.014 179.767 155.189C179.538 155.317 179.024 155.128 178.643 155.079C178.683 154.712 178.573 154.213 178.823 154.017C179.047 153.839 179.67 153.999 180.506 154.018L180.496 154.016Z" fill="white"/>
<path d="M98.5879 96.0343L96.8854 96.7972L96.4815 96.2942C97.0252 95.986 97.5724 95.6827 98.1219 95.3719C98.2811 95.591 98.4403 95.81 98.5995 96.0291L98.5879 96.0343Z" fill="white"/>
<path d="M162.86 106.78C162.958 107.233 163.063 107.683 163.165 108.141C162.961 108.155 162.756 108.17 162.551 108.184C162.468 107.731 162.378 107.28 162.294 106.827C162.484 106.813 162.67 106.794 162.86 106.78Z" fill="white"/>
<path d="M88.8933 113.805C88.966 114.444 89.0352 115.078 89.1355 115.924C88.2746 115.247 88.2288 114.546 88.9982 113.822L88.8897 113.8L88.8933 113.805Z" fill="white"/>
<path d="M101.635 101.295C101.45 101.706 101.419 102.108 101.169 102.239C100.962 102.345 100.497 102.127 100.144 102.053C100.281 101.766 100.352 101.431 100.583 101.211C100.688 101.112 101.114 101.244 101.644 101.297L101.635 101.295Z" fill="white"/>
<path d="M89.3797 80.8776C89.83 81.1276 90.1352 81.2941 90.4346 81.4632C90.2628 81.6177 90.1257 81.8727 89.9166 81.9019C89.6751 81.9392 89.2704 81.8365 89.1421 81.6811C89.0385 81.5597 89.2451 81.2735 89.3797 80.8776Z" fill="white"/>
<path d="M139.463 180.192C139.329 180.504 139.315 180.801 139.143 180.871C138.958 180.954 138.623 180.82 138.349 180.782C138.4 180.578 138.37 180.282 138.521 180.195C138.692 180.092 139.035 180.184 139.463 180.192Z" fill="white"/>
<path d="M116.716 179.82C116.637 180.133 116.606 180.534 116.524 180.539C116.195 180.55 115.85 180.434 115.509 180.367C115.599 180.153 115.607 179.846 115.796 179.748C115.975 179.655 116.333 179.779 116.718 179.813L116.716 179.82Z" fill="white"/>
<path d="M76.1631 87.7545C75.8096 87.5322 75.4735 87.4182 75.3915 87.242C75.325 87.0975 75.5682 86.8724 75.6699 86.6848C75.9153 86.8007 76.2778 86.8771 76.3772 87.0455C76.4624 87.1945 76.2648 87.4508 76.1573 87.7571L76.1631 87.7545Z" fill="white"/>
<path d="M90.222 85.4596C89.7168 85.2081 89.3351 85.095 89.1211 84.8744C89.0166 84.7728 89.2334 84.4689 89.3023 84.2572C89.6502 84.3661 90.0476 84.427 90.3334 84.6089C90.4434 84.6758 90.2887 85.0229 90.2256 85.4645L90.222 85.4596Z" fill="white"/>
</svg>
