<svg width="197" height="266" viewBox="0 0 197 266" fill="none" xmlns="http://www.w3.org/2000/svg">
<path d="M140.786 103.686C141.104 103.162 141.262 102.481 141.782 102.151C142.334 101.8 143.24 101.634 143.972 101.661C145.162 101.703 146.334 101.966 147.372 102.119C148.79 102.88 150.145 103.643 151.553 104.345C152.365 104.752 153.257 105.02 153.171 105.988C153.031 107.6 154.497 108.503 155.722 109.598C157.66 109.24 157.775 106.531 160.554 107.382C161.228 109.004 159.039 109.597 158.465 110.873C159.187 111.558 159.912 112.238 160.62 112.911C159.405 113.751 157.877 113.776 156.036 112.985C154.397 113.582 154.2 114.596 154.589 115.876C154.981 117.164 156.022 117.645 157.58 117.656C158.728 117.661 159.868 117.656 160.989 117.655C161.877 119.476 161.777 120.172 160.137 120.407C158.322 120.671 157.308 121.336 156.679 122.623C156.519 122.954 155.953 123.16 155.329 123.599C159.558 124.949 164.51 125.271 166.476 129.381C164.99 130.343 163.728 131.697 163.901 133.446C162.879 134.33 160.527 133.752 160.72 135.558C160.442 135.57 160.094 135.502 159.897 135.611C159.462 135.847 159.1 136.17 158.703 136.459C159.155 136.762 159.551 137.202 160.073 137.337C161.049 137.595 162.157 137.57 163.116 137.862C164.307 138.224 164.904 138.901 164.519 140.045C164.241 140.878 164.661 141.919 164.188 142.632C163.465 143.713 162.236 144.587 161.071 145.696C162.069 146.38 164.664 146.038 164.515 148.098C163.682 150.003 161.394 150.087 159.141 150.248C161.735 153.312 160.962 153.942 165.202 152.849C165.815 153.896 165.696 154.919 164.845 155.917C165.821 155.989 166.697 156.05 167.951 156.14C167.613 157.252 167.463 158.232 167.015 159.119C166.546 160.045 165.39 160.778 164.238 160.259C161.658 159.106 159.093 159.939 156.522 159.918C155.844 159.91 155.144 159.808 154.493 159.65C150.361 158.646 147.137 156.392 143.509 154.696C142.978 154.448 142.441 154.209 141.723 153.881C141.424 154.39 141.153 154.809 140.934 155.24C139.862 157.355 138.929 157.443 137.063 155.585C136.208 154.737 135.385 153.867 134.516 153.019C134.198 152.711 133.794 152.448 133.143 151.947C132.914 152.62 132.75 153.04 132.63 153.461C132.101 155.36 130.809 155.748 128.792 154.551C127.613 153.851 126.545 153.032 125.366 152.332C124.909 152.057 124.283 151.958 123.443 151.684C123.642 154.301 123.823 156.662 124.016 159.143C122.27 159.541 121.346 158.86 120.433 157.811C119.367 156.584 118.097 155.456 116.838 154.345C116.018 153.628 114.913 153.19 113.687 153.602C110.811 154.575 109.07 153.306 107.413 151.778C107.138 151.526 106.838 151.269 106.665 150.973C104.096 146.649 98.8728 145.376 93.7425 143.978C89.6982 142.875 85.9341 145.692 86.6807 148.649C86.925 149.617 86.9177 150.644 86.8801 151.64C86.7405 155.266 83.1903 156.891 79.3175 155.017C77.9227 154.338 76.6896 153.348 75.6857 152.318C74.3383 150.932 73.4661 149.256 72.0614 147.916C70.3277 146.263 68.4982 144.543 66.2687 143.364C62.1924 141.204 59.4148 138.388 57.9823 134.78C57.3425 133.174 56.1159 132.29 54.322 131.58C49.8717 129.822 45.3823 128.107 41.0796 126.139C36.4152 124.006 31.876 121.683 27.4297 119.276C25.9151 118.459 24.9236 117.048 22.682 117.256C22.5683 117.265 21.9782 116.194 22.1991 115.885C22.56 115.386 23.4099 115.098 24.1556 114.661C22.0405 111.707 22.6993 108.697 24.3381 105.67C24.7642 104.876 25.069 103.924 24.9545 103.082C24.6688 101.101 25.629 99.6876 27.6002 98.5788C30.4494 96.9781 33.2986 95.3773 36.1339 93.7642C36.8191 93.3773 37.5455 92.9971 38.1105 92.5132C40.1756 90.7478 41.8571 88.8679 40.8252 86.2451C40.5158 85.459 40.4763 84.609 40.2735 83.7931C39.5182 80.796 41.6094 78.7773 45.4955 78.7647C47.4471 78.7623 48.453 79.655 48.1262 81.3327C47.822 82.876 48.4688 84.0572 49.7501 85.19C51.3566 86.6098 52.7809 88.1515 54.3369 89.6085C56.9089 92.0171 59.2439 94.601 63.3659 95.6606C65.2548 96.148 66.8724 97.2413 68.7391 97.8211C71.3868 98.6425 74.1434 99.2543 76.8523 99.9409C80.0715 100.758 83.278 101.623 86.5366 102.355C90.8998 103.338 94.395 105.546 98.1964 107.31C102.686 109.399 107.17 110.322 112.452 109.252C115.025 108.731 117.575 108.489 119.735 107.146C120.99 106.362 121.555 105.36 121.848 104.173C122.11 103.123 121.602 102.222 120.579 101.81C119.786 101.491 118.608 101.641 117.642 101.773C117.071 101.85 116.631 102.373 116.055 102.55C115.539 102.707 114.918 102.665 114.346 102.712C114.293 102.181 113.964 101.537 114.233 101.141C114.862 100.228 115.785 99.437 116.988 98.1831C115.349 98.4485 114.396 98.605 113.13 98.8116C113.718 97.5602 114.191 96.5461 114.796 95.2605C116.342 95.8269 117.828 96.3717 119.952 97.1534C119.483 96.0954 119.269 95.606 119.029 95.0686C119.26 94.9328 119.473 94.7283 119.744 94.6528C120.902 94.3428 122.308 94.5075 123.049 93.4108C123.234 93.1396 124.038 92.8729 124.387 92.9718C126.921 93.6872 128.345 92.4254 129.896 91.2516C130.352 90.9048 131.051 90.7592 132.149 90.3131C131.896 91.7351 131.724 92.6939 131.553 93.6527C131.136 95.9708 131.035 98.1128 134.465 99.2973C136.026 99.8341 136.181 100.996 134.837 101.92C133.556 102.801 133.065 103.735 133.343 104.989C133.53 105.828 133.051 106.279 132.257 106.863C128.864 109.356 125.622 111.977 122.331 114.558C122.113 114.73 121.915 114.965 121.838 115.195C120.835 118.15 118.213 120.005 114.687 121.43C115.253 124.268 116.934 126.47 119.688 128.165C120.853 128.884 122.22 129.392 123.398 130.104C124.215 130.597 125.174 131.179 125.511 131.888C126.46 133.864 128.539 134.51 130.75 135.175C131.895 135.516 133.158 135.935 133.934 136.62C135.132 137.679 136.285 137.759 137.888 137.398C139.963 136.928 142.114 136.666 144.283 136.588C145.417 135.864 146.624 135.196 147.664 134.392C148.2 133.979 148.847 133.249 148.71 132.801C148.444 131.914 147.336 131.596 146.166 131.756C145.438 131.858 144.744 132.09 144.017 132.223C143.087 132.39 142.114 132.7 141.229 132.598C140.416 132.504 139.414 132.083 138.985 131.563C138.359 130.801 139.126 130.168 140.025 129.752C141.579 129.031 143.119 128.287 144.696 127.607C146.079 127.014 146.523 126.216 145.635 125.153C144.223 123.46 144.941 122.022 146.283 120.559C147.055 119.724 147.629 118.78 148.323 117.842C145.453 118.535 142.867 119.189 140.253 119.775C139.784 119.881 139.19 119.821 138.703 119.702C135.354 118.916 132.272 115.214 132.645 112.466C132.843 110.983 133.233 110.642 135.931 109.672C135.945 109.425 135.984 109.112 135.986 108.799C135.991 108.5 135.965 108.192 135.957 107.923C139.648 107.271 141.707 106.625 142.135 105.984C141.696 105.217 141.252 104.447 140.81 103.685L140.79 103.712L140.786 103.686ZM160.321 143.335C160.381 143.078 160.443 142.817 160.496 142.558C159.301 142.14 158.15 141.495 156.901 141.347C153.016 140.89 152.814 140.707 154.292 137.794C154.349 137.675 154.191 137.495 154.069 137.192C151.767 136.848 149.713 137.654 147.961 138.621C145.145 140.177 142.202 140.535 138.927 140.073C137.98 139.942 136.853 139.639 135.954 140.616C137.313 141.634 138.775 142.481 139.821 143.579C140.877 144.694 141.519 146.048 142.345 147.298C142.393 147.368 142.465 147.437 142.534 147.499C144.864 149.592 147.731 151.062 151.048 151.996C151.449 152.106 151.961 151.954 152.813 151.902C151.791 150.544 150.964 149.45 150.032 148.198L149.342 149.132C148.048 148.379 146.855 147.667 145.63 146.987C145.111 146.703 144.326 146.592 144.031 146.222C143.712 145.823 143.555 144.872 143.8 144.748C145.931 143.694 147.374 141.627 150.585 141.801C150.749 142.171 150.958 142.532 151.068 142.913C151.421 144.118 152.547 144.589 153.91 144.427C156.072 144.17 158.189 143.707 160.331 143.333L160.321 143.335ZM154.138 148.292C155.537 150.347 156.733 150.235 159.966 147.803C157.888 147.976 156.061 148.132 154.138 148.292Z" fill="white"/>
<path d="M64.7234 154.178C64.7686 155.404 65.0289 156.62 64.8111 157.787C64.4385 159.818 64.8234 161 67.0107 161.925C68.7779 162.67 70.1021 163.413 70.3763 165.202C70.6637 167.087 72.8181 166.593 74.5134 166.522C75.4836 168.2 73.0068 168.56 72.6905 169.693C72.3515 170.889 71.8479 172.058 71.3256 173.502C72.1579 174.37 73.1466 175.442 74.1916 176.479C75.9346 178.202 74.9762 181.015 72.3382 181.717C71.4476 181.956 70.4883 182.049 69.4145 182.235C69.2706 182.585 69.1239 182.97 68.9486 183.343C68.4828 184.336 67.5091 184.573 66.3918 184.184C65.4361 183.857 64.4773 183.42 63.7122 182.866C59.7574 180.002 54.9001 179.023 49.7465 178.59C48.6414 178.497 47.5522 178.277 46.3523 178.104C46.396 177.443 46.4308 177.042 46.4417 176.644C46.4908 174.791 46.0419 174.526 43.6649 174.865C42.5246 175.026 41.3441 175.169 40.2009 175.106C39.591 175.069 38.8321 174.663 38.517 174.248C38.3281 174.005 38.8062 173.379 39.111 172.988C39.3735 172.643 39.9263 172.425 40.1566 172.072C41.0505 170.707 39.6121 169.267 37.5236 169.382C35.9819 169.467 35.058 168.903 34.7518 167.69C35.7021 167.412 36.7218 167.196 37.6374 166.829C39.3793 166.135 39.9104 165.105 38.9297 163.783C37.1141 161.328 37.6468 159.081 39.2927 156.75C40.0273 155.705 40.3476 154.482 40.855 153.339C41.3232 153.474 41.599 153.485 41.6886 153.593C42.3209 154.357 42.7844 155.226 44.3382 154.951C45.6718 154.715 45.7719 153.905 46.0828 153.1C46.6606 151.633 47.5348 149.88 49.7639 150.167C52.4906 150.518 55.1027 150.328 57.7746 150.359C58.7585 150.367 59.7248 151.646 61.0563 152.596C61.5691 152.245 62.7473 151.794 62.7271 151.375C62.6876 150.525 62.2077 149.564 61.5211 148.884C60.8704 148.237 59.7346 147.894 58.6828 147.354C59.9078 145.978 61.2202 146.57 61.7847 147.364C62.7714 148.76 63.9715 148.819 65.7381 148.6C68.5567 148.245 70.9545 149.103 72.6151 150.928C73.1485 151.514 73.2367 152.35 73.7076 153.5C70.8803 153.067 68.8285 151.148 66.4219 152.981C66.2807 153.684 65.7168 154.08 64.73 154.169L64.7234 154.178ZM49.8166 154.218C51.1343 155.042 51.8722 155.227 52.4418 154.498C52.5651 154.332 52.1754 153.696 52.1152 153.704C51.4961 153.784 50.8992 153.958 49.8166 154.218ZM55.7187 153.43C55.4944 153.183 55.3349 152.87 55.1949 152.872C54.9297 152.878 54.5602 153.035 54.4574 153.205C54.3823 153.327 54.6308 153.718 54.8125 153.753C55.0296 153.791 55.3196 153.586 55.7277 153.428L55.7187 153.43Z" fill="white"/>
<path d="M129.448 164.422C128.229 165.428 127.015 166.436 125.675 167.543C126.234 169.456 127.252 169.854 129.781 169.06C130.26 169.929 130.609 170.848 131.225 171.635C132.318 173.032 132.248 173.47 130.454 174.111C130.163 174.213 129.814 174.229 129.556 174.359C128.89 174.7 127.811 175.016 127.701 175.466C127.445 176.477 128.651 176.809 129.672 177.1C130.07 177.215 130.591 177.206 130.866 177.416C131.366 177.788 132.104 178.306 132.055 178.705C131.99 179.26 131.327 180.188 130.842 180.22C127.532 180.441 126.707 181.982 126.727 184.282C126.741 185.404 126.006 186.389 124.444 186.726C123.013 187.032 121.977 186.397 121.061 185.684C119.974 184.839 120.144 183.903 120.889 182.947C121.088 182.688 121.136 182.354 121.302 181.941C120.146 181.782 119.142 181.644 117.766 181.45C117.643 183.028 117.431 184.571 117.424 186.118C117.424 187.209 117.125 188.121 115.863 188.655C114.613 189.183 113.425 189.015 112.333 188.269C110.783 187.219 108.135 187.26 107.714 185.078C103.594 186.57 102.367 183.828 100.524 182.228C98.907 180.834 99.0677 180.72 96.3958 180.503C98.3647 177.777 96.8065 175.451 95.137 173.14C95.0353 172.997 94.9833 172.829 94.9155 172.671C93.0604 168.317 94.9448 165.456 100.665 164.531C101.798 164.349 103.311 165.261 104.513 165.846C105.055 166.111 105.249 166.814 105.689 167.443C107.861 166.956 109.292 165.758 110.755 164.61C111.272 164.201 111.633 163.661 112.183 163.29C113.299 162.539 114.507 162.39 115.486 163.434C116.446 164.45 117.73 164.801 119.25 165.071C120.625 165.319 121.877 166.004 123.35 166.555C124.077 165.488 123.946 163.692 126.026 163.579C127.152 163.52 128.332 164.167 129.487 164.494L129.455 164.413L129.448 164.422ZM123.414 171.962C121.829 172.807 122.224 173.758 122.604 174.74C122.903 175.509 122.949 176.495 121.688 176.498C119.117 176.508 119.682 178.266 118.701 179.001C120.128 179.127 121.345 179.236 122.621 179.347C126.049 176.154 126.162 175.337 123.414 171.962ZM113.286 179.161C111.886 179.185 110.985 179.335 110.917 180.642C112.228 180.613 112.97 180.295 113.286 179.161Z" fill="white"/>
<path d="M129.48 164.504C128.961 163.213 128.414 161.98 126.383 161.633C125.96 161.561 125.689 160.931 125.688 160.153C126.534 160.442 127.385 160.734 128.445 161.096L130.245 158.661C132.009 159.568 133.614 160.324 135.119 161.197C136.159 161.804 137.032 162.015 138.298 161.507C139.997 160.829 142.272 161.022 143.166 159.356C145.765 159.817 148.333 159.771 150.314 161.265C151.723 162.329 153.051 163.357 153.207 164.995C153.24 165.324 153.263 165.666 153.406 165.972C154.678 168.819 154.564 169.099 151.366 170.787C151.102 170.926 150.755 171.021 150.585 171.209C147.471 174.685 143.382 172.73 139.598 172.427C139.303 172.401 138.947 172.269 138.759 172.087C135.889 169.355 131.614 167.672 129.451 164.419L129.483 164.5L129.48 164.504Z" fill="white"/>
<path d="M93.9609 154.109C96.6494 155.54 96.9569 157.844 97.9307 159.777C98.498 160.91 96.2874 162.561 94.3883 162.762C91.637 163.057 89.2252 161.252 89.872 159.141C90.4577 157.238 91.143 155.241 93.9642 154.104L93.9609 154.109Z" fill="white"/>
<path d="M144.277 100.949C142.781 99.7122 142.331 98.4823 143.21 97.3457C144.231 96.0267 146.006 95.3288 148.021 95.2828C148.411 95.2739 149.12 95.6754 149.153 95.9317C149.211 96.3621 148.955 97.1555 148.637 97.2217C146.291 97.7257 145.756 99.5194 144.277 100.949Z" fill="white"/>
<path d="M145.482 90.6465C146.599 89.6967 149.371 91.419 149.231 88.8469C150.174 89.1081 150.728 89.168 151.133 89.3888C152.157 89.9459 152.282 90.9193 151.114 91.0863C149.363 91.3368 149.683 92.586 148.867 93.2025C145.972 93.0161 145.686 92.8011 145.479 90.651L145.482 90.6465Z" fill="white"/>
<path d="M86.6338 166.991C88.3637 168.991 88.5236 170.385 87.2625 171.468C86.8376 171.835 85.7675 171.974 85.1082 171.848C84.7276 171.771 84.2234 170.854 84.3888 170.495C84.8958 169.394 85.7051 168.382 86.6247 166.993L86.6338 166.991Z" fill="white"/>
<path d="M142.609 93.0689C142.396 94.1354 142.255 95.1681 141.941 96.1643C141.845 96.4703 141.277 96.8443 140.884 96.8764C140.474 96.9124 139.677 96.6093 139.635 96.3853C139.471 95.5385 139.267 94.5894 139.587 93.8131C139.978 92.8581 141.12 92.601 142.609 93.0689Z" fill="white"/>
<path d="M123.036 89.8232C123.863 89.1209 124.278 88.5689 124.896 88.2838C125.955 87.7961 127.099 87.2868 128.277 87.1367C129.299 87.0115 130.067 87.7478 129.88 88.5726C129.799 88.9518 128.84 89.5636 128.45 89.4884C127.091 89.2301 126.057 89.5065 124.975 90.0982C124.704 90.2461 124.077 89.9841 123.031 89.8206L123.036 89.8232Z" fill="white"/>
<path d="M156.04 101.972C155.047 103.057 153.288 103.328 152.511 102.624C152.133 102.283 151.948 101.547 152.142 101.129C152.539 100.291 154.376 100.122 155.374 100.818C155.793 101.112 155.887 101.691 156.04 101.972Z" fill="white"/>
<path d="M144.296 90.34C143.358 90.9551 142.881 91.4854 142.264 91.614C141.547 91.7634 140.686 91.6301 139.941 91.465C139.768 91.4285 139.607 90.5772 139.818 90.4264C140.449 89.9668 141.229 89.484 142.032 89.3739C142.555 89.2991 143.225 89.8576 144.293 90.3445L144.296 90.34Z" fill="white"/>
<path d="M113.436 160.3C112.231 160.413 111.418 160.682 110.801 160.509C109.839 160.233 109.288 159.379 110.006 158.76C110.428 158.397 111.677 158.442 112.449 158.602C112.827 158.683 112.974 159.45 113.436 160.3Z" fill="white"/>
<path d="M122.009 88.8247C120.959 88.8643 120.149 89.0675 119.926 88.8697C119.474 88.4643 119.339 87.8363 119.066 87.302C119.686 87.1805 120.573 86.8011 120.87 86.9909C121.383 87.3151 121.536 88.0001 122.006 88.8292L122.009 88.8247Z" fill="white"/>
<path d="M157.402 104.708C158.196 105.866 158.337 106.684 156.975 107.197C156.669 107.31 155.823 107.093 155.71 106.873C155.147 105.796 155.929 105.237 157.399 104.713L157.402 104.708Z" fill="white"/>
<path d="M139.717 120.699C140.478 120.625 141.246 120.552 142.595 120.42C142.121 121.518 141.869 122.097 141.491 122.961C140.746 122.35 140.229 121.928 139.718 121.508C139.719 121.237 139.719 120.966 139.72 120.695L139.717 120.699Z" fill="white"/>
<path d="M135.428 93.9593C135.324 93.0617 135.816 92.6653 136.813 92.782C137.04 92.8071 137.418 93.2929 137.341 93.469C136.999 94.2536 136.267 94.2574 135.425 93.9638L135.428 93.9593Z" fill="white"/>
<path d="M161.392 122.625C161.599 123.123 161.975 123.56 161.822 123.798C161.66 124.049 160.751 124.322 160.62 124.22C160.235 123.93 160.08 123.455 159.832 123.053C160.282 122.932 160.735 122.807 161.389 122.629L161.392 122.625Z" fill="white"/>
<path d="M127.927 156.616C125.953 156.524 125.748 155.815 126.305 154.604C127.992 154.753 128.046 155.531 127.927 156.616Z" fill="white"/>
<path d="M138.627 105.795C138.589 106.157 138.716 106.661 138.47 106.838C138.192 107.037 137.57 106.934 137.103 106.963C137.081 106.609 136.9 106.189 137.082 105.922C137.302 105.594 137.823 105.398 138.218 105.144C138.355 105.363 138.492 105.582 138.633 105.797L138.627 105.795Z" fill="white"/>
<path d="M159.214 101.23C158.944 101.595 158.67 101.965 158.377 102.32C158.367 102.333 157.899 102.156 157.91 102.131C158.07 101.728 158.274 101.338 158.472 100.946C158.717 101.04 158.962 101.134 159.211 101.223L159.214 101.23Z" fill="white"/>
<path d="M131.892 174.792C132.026 175.347 132.112 175.699 132.191 176.049C131.719 176.075 131.209 176.204 130.792 176.093C130.562 176.03 130.302 175.405 130.4 175.335C130.727 175.111 131.211 175.017 131.883 174.793L131.892 174.792Z" fill="white"/>
<path d="M139.899 98.4387C139.3 98.491 138.809 98.6466 138.605 98.5176C138.361 98.3701 138.376 97.9669 138.279 97.682C138.651 97.6045 139.096 97.3976 139.38 97.4909C139.62 97.5704 139.676 97.9935 139.905 98.4413L139.899 98.4387Z" fill="white"/>
<path d="M166.976 149.599C166.488 149.72 166.061 149.893 165.997 149.833C165.716 149.549 165.532 149.206 165.311 148.882C165.571 148.79 165.987 148.57 166.06 148.627C166.386 148.872 166.612 149.198 166.97 149.596L166.976 149.599Z" fill="white"/>
<path d="M168.669 145.874C167.957 145.965 167.437 146.15 167.265 146.029C166.964 145.814 166.877 145.412 166.694 145.088C167.044 144.989 167.52 144.73 167.726 144.824C168.071 144.981 168.245 145.368 168.663 145.871L168.669 145.874Z" fill="white"/>
<path d="M155.333 99.2076C154.953 99.2029 154.55 99.2602 154.194 99.182C153.951 99.1257 153.777 98.8837 152.977 98.2536C154.294 98.4444 154.9 98.5279 155.502 98.6159C155.448 98.814 155.394 99.0121 155.333 99.2076Z" fill="white"/>
<path d="M157.788 116.285C157.275 116.449 156.882 116.649 156.794 116.591C156.532 116.405 156.391 116.118 156.2 115.868C156.442 115.78 156.759 115.569 156.918 115.624C157.211 115.727 157.419 115.984 157.788 116.285Z" fill="white"/>
<path d="M131.268 86.0103C130.587 86.0912 130.104 86.2566 129.95 86.144C129.739 85.9819 129.712 85.6139 129.748 85.3472C129.761 85.2568 130.315 85.0996 130.47 85.1702C130.74 85.2932 130.88 85.5803 131.268 86.0103Z" fill="white"/>
<path d="M140.808 103.659C140.241 103.376 139.672 103.099 139.111 102.819L139.683 102.357C140.055 102.798 140.425 103.231 140.8 103.679C140.797 103.684 140.817 103.657 140.817 103.657L140.808 103.659Z" fill="white"/>
</svg>
