<svg width="255" height="222" viewBox="0 0 255 222" fill="none" xmlns="http://www.w3.org/2000/svg">
<path d="M127.907 4.7551C127.424 4.08708 126.602 3.43622 126.54 2.7436C126.472 2.00764 126.929 1.11049 127.52 0.506418C128.478 -0.475254 129.729 -1.27454 130.727 -2.04241C132.851 -2.67418 134.931 -3.25142 136.966 -3.91912C138.143 -4.30344 139.189 -4.86041 140.46 -4.05454C142.582 -2.71446 144.94 -3.27934 147.379 -3.49369C148.352 -5.41627 144.696 -7.56496 147.975 -9.28822C150.726 -8.6347 149.889 -6.3203 151.216 -4.86514C152.709 -4.96164 154.198 -5.06439 155.663 -5.15842C155.904 -3.48664 154.782 -2.16606 152.295 -1.19668C151.88 0.651835 153.131 1.58686 155.195 2.22514C157.27 2.86678 158.723 2.34353 159.917 1.02455C160.793 0.0503055 161.649 -0.924377 162.496 -1.88074C165.684 -1.25763 166.57 -0.64547 165.653 0.929633C164.644 2.67549 164.796 4.04285 166.098 5.55298C166.433 5.94 166.289 6.57868 166.423 7.44263C171.49 4.861 175.682 0.886717 182.849 2.32329C183.053 4.31826 183.968 6.41849 186.516 7.5952C186.963 9.13577 184.385 10.7018 187.026 11.9052C186.832 12.1509 186.474 12.396 186.477 12.6461C186.473 13.1953 186.646 13.7484 186.744 14.306C187.504 14.1501 188.411 14.1455 188.993 13.8036C190.089 13.1675 190.893 12.204 192.023 11.6088C193.424 10.8684 194.811 10.8714 196.1 12.0664C197.04 12.9328 198.797 13.3637 199.423 14.3065C200.37 15.7409 200.647 17.4505 201.297 19.2825C202.998 18.9499 204.489 16.4803 207.222 18.1672C209.224 20.3194 207.608 22.3326 206.125 24.3734C212.321 24.4831 212.607 25.6189 214.305 21.1789C216.216 21.4496 217.539 22.3256 218.274 23.8067C219.112 23.0291 219.86 22.3297 220.933 21.329C222.213 22.4591 223.455 23.3291 224.34 24.3825C225.264 25.4831 225.401 27.023 223.813 27.6111C220.268 28.9365 219.476 31.7519 217.501 33.9269C216.978 34.4985 216.307 35.0175 215.596 35.4523C211.081 38.2128 205.527 39.253 200.437 41.0595C199.693 41.3238 198.956 41.6007 197.961 41.9643C198.437 42.6044 198.811 43.1527 199.24 43.6653C201.351 46.1809 200.766 47.0412 196.787 47.2245C194.969 47.3107 193.144 47.3535 191.313 47.4518C190.648 47.4895 189.979 47.6351 188.794 47.8094C189.551 48.5144 190.006 48.9719 190.498 49.3933C192.721 51.2818 192.278 52.6761 189.098 53.4881C187.238 53.9622 185.299 54.2525 183.439 54.7266C182.714 54.908 182.104 55.3666 181.088 55.8749C184.854 57.6865 188.253 59.3204 191.827 61.0352C191.056 62.8234 189.415 63.0956 187.275 63.0789C184.772 63.0574 182.254 63.2854 179.766 63.5172C178.153 63.6728 176.713 64.2827 176.354 65.6387C175.522 68.8265 172.45 69.3478 169.085 69.6034C168.53 69.6466 167.946 69.7077 167.407 69.6309C159.489 68.5449 153.777 72.0319 147.961 75.3437C143.377 77.9545 144.42 83.2948 149.07 84.8977C150.592 85.4221 152.006 86.2065 153.353 86.9924C158.257 89.8569 157.814 94.1119 152.293 95.9922C150.301 96.667 147.999 96.9678 145.816 97.0428C142.881 97.1412 139.906 96.6154 136.992 96.7976C133.396 97.0234 129.635 97.2794 126.318 98.2859C120.249 100.123 114.256 100.357 108.188 98.8465C105.485 98.1755 103.335 98.5506 100.997 99.5418C95.1997 102.002 89.4319 104.528 83.4565 106.704C76.9795 109.063 70.3347 111.171 63.6438 113.137C61.3684 113.808 58.6692 113.585 57.2595 115.652C57.1851 115.755 55.2589 115.447 54.999 115.025C54.5833 114.34 54.8291 113.398 54.789 112.431C49.1071 111.997 45.4482 109.157 42.5071 105.468C41.7321 104.504 40.6473 103.523 39.3974 102.983C36.4443 101.726 35.2189 99.8384 35.1791 97.3194C35.1243 93.6798 35.0695 90.0403 34.9871 86.4032C34.9712 85.5265 34.9957 84.6197 34.7549 83.7719C33.8791 80.6758 32.5547 77.8197 28.1503 76.7129C26.8301 76.3811 25.6259 75.7712 24.3452 75.3262C19.6331 73.7003 18.427 70.3901 21.351 67.0696C22.8249 65.4051 24.8195 65.224 26.89 66.7728C28.7919 68.2006 30.9132 68.5439 33.448 68.3101C36.6254 68.0164 39.8333 67.9703 43.0239 67.7479C48.2982 67.3805 53.6353 67.3476 58.2191 64.638C60.3222 63.3978 63.0569 62.8475 65.2709 61.6962C68.4097 60.0624 71.3414 58.1771 74.3403 56.389C77.9052 54.2647 81.5274 52.188 85.0054 49.9661C89.6654 46.9928 95.3622 45.6873 100.676 43.7839C106.96 41.5409 111.629 38.4197 114.149 33.1091C115.376 30.5226 116.973 28.1664 116.753 25.31C116.62 23.6468 115.662 22.4066 114.245 21.2581C112.993 20.2397 111.363 19.9907 110.019 20.5503C108.978 20.9839 108.294 22.1012 107.746 23.0241C107.42 23.5693 107.809 24.3402 107.618 24.9654C107.445 25.5233 106.916 26.0207 106.548 26.5433C105.775 26.1867 104.635 25.9793 104.292 25.4502C103.507 24.2231 103.112 22.838 102.291 20.8633C101.417 22.4609 100.912 23.391 100.239 24.6258C98.955 23.1778 97.9124 22.0067 96.5942 20.5178C98.5473 19.6292 100.424 18.7759 103.112 17.558C101.296 17.1566 100.458 16.9683 99.5335 16.7657C99.5207 16.4661 99.399 16.1301 99.4997 15.8423C99.948 14.6209 101.24 13.5479 100.286 12.0856C100.051 11.7224 100.291 10.8359 100.692 10.6133C103.598 8.99597 102.933 6.82721 102.486 4.617C102.352 3.96598 102.679 3.2604 102.894 1.98757C104.667 3.2798 105.862 4.15186 107.056 5.02392C109.944 7.13396 112.826 8.84269 117.059 6.81656C118.982 5.89332 120.704 6.64128 120.964 8.48628C121.212 10.2446 122.13 11.3698 124.073 12.0825C125.373 12.5588 125.633 13.3083 125.841 14.4269C126.715 19.2049 127.882 23.9522 128.958 28.7099C129.029 29.0263 129.205 29.3728 129.464 29.613C132.787 32.7048 133.365 36.3436 132.665 40.4262C137.014 42.0935 141.328 42.328 145.755 41.2659C147.629 40.8169 149.366 40.0376 151.242 39.5731C152.542 39.2502 154.072 38.8737 155.305 39.1232C158.754 39.8108 161.22 38.5292 163.811 37.1487C165.149 36.4316 166.685 35.6725 168.219 35.5307C170.588 35.3117 171.572 34.3892 172.286 32.751C173.207 30.6267 174.474 28.5964 176.007 26.6894C175.865 25.1741 175.857 23.6402 175.533 22.1456C175.368 21.3766 174.849 20.2727 174.126 20.0499C172.7 19.6047 171.422 20.3077 170.757 21.4255C170.347 22.1231 170.143 22.8901 169.775 23.6102C169.303 24.5286 168.994 25.5926 168.184 26.2689C167.438 26.8912 166.099 27.4262 165.055 27.3969C163.528 27.3538 163.234 26.2209 163.34 25.14C163.52 23.2709 163.658 21.3946 163.913 19.5363C164.14 17.9089 163.374 16.926 161.234 16.8785C157.826 16.7998 156.382 15.0983 155.378 12.848C154.807 11.5577 153.938 10.3534 153.167 9.05258C151.953 12.0221 150.898 14.7205 149.73 17.3917C149.521 17.8716 148.99 18.3319 148.455 18.6565C144.835 20.9153 137.387 20.7377 133.874 18.3391C131.975 17.0472 131.799 16.457 132.501 13.4236C132.17 13.225 131.767 12.9537 131.336 12.7158C130.927 12.4845 130.483 12.2741 130.105 12.0774C131.998 8.43893 132.663 6.19477 132.102 5.34499C130.71 5.13822 129.311 4.93436 127.923 4.73385L127.945 4.77137L127.907 4.7551ZM197.467 18.1329C197.158 17.8884 196.845 17.6377 196.527 17.3961C195.044 18.0976 193.282 18.5894 192.132 19.5421C188.561 22.5056 188.155 22.5398 185.249 19.0746C185.129 18.9362 184.759 18.9342 184.249 18.8086C182.031 20.5092 181.59 22.8694 181.6 25.0946C181.618 28.6716 179.884 31.4506 176.768 33.8904C175.87 34.5987 174.599 35.3297 175.268 36.835C177.702 36.4478 179.979 35.844 182.288 35.7842C184.628 35.7281 186.984 36.2062 189.337 36.4497C189.47 36.4619 189.619 36.4529 189.757 36.4405C194.412 36.0408 198.613 34.7113 202.413 32.5923C202.87 32.334 203.047 31.7824 203.621 31.0175C200.97 30.8599 198.833 30.7354 196.399 30.5826L197.166 31.8772C195.147 32.4095 193.259 32.8861 191.394 33.4156C190.608 33.6419 189.86 34.2271 189.126 34.1985C188.334 34.1686 186.901 33.5813 186.915 33.2792C187.072 30.6658 185.309 27.8709 187.979 25.267C188.615 25.4076 189.271 25.5024 189.881 25.698C191.812 26.3086 193.315 25.7063 194.123 24.4219C195.406 22.3859 196.367 20.2316 197.472 18.1237L197.467 18.1329ZM199.637 27.155C203.533 27.5192 204.284 26.4156 203.371 21.8189C202.038 23.7211 200.87 25.3956 199.637 27.155Z" fill="white"/>
<path d="M140.105 107.752C141.834 108.642 143.711 109.34 145.158 110.409C147.682 112.263 149.607 112.83 152.54 111.666C154.907 110.724 156.935 110.157 159.615 111.278C162.437 112.46 163.384 110.249 164.569 108.751C167.622 109.194 166.245 111.577 167.572 112.705C168.968 113.899 170.202 115.213 171.802 116.75C173.631 116.698 175.86 116.666 178.083 116.561C181.783 116.38 184.944 119.325 183.918 122.104C183.574 123.044 182.977 123.932 182.421 124.988C182.796 125.376 183.217 125.792 183.599 126.223C184.619 127.372 184.21 128.381 182.827 129.039C181.652 129.606 180.322 130.092 178.978 130.325C172.027 131.527 166.999 134.926 162.501 138.99C161.535 139.861 160.407 140.623 159.26 141.514C158.379 140.977 157.853 140.644 157.31 140.333C154.787 138.889 154.081 139.071 152.751 141.353C152.111 142.447 151.415 143.561 150.463 144.488C149.95 144.979 148.814 145.319 148.002 145.273C147.524 145.25 147.021 144.369 146.71 143.813C146.433 143.329 146.55 142.692 146.236 142.229C145.027 140.434 141.949 140.57 140.527 142.437C139.478 143.815 137.999 144.176 136.092 143.519C136.427 142.498 136.9 141.466 137.087 140.408C137.445 138.398 136.424 137.166 133.856 137.002C129.089 136.691 126.387 134.536 124.413 131.37C123.525 129.953 122.078 128.754 120.882 127.457C121.423 127.16 121.648 126.934 121.864 126.938C123.398 126.978 124.949 127.24 125.746 125.709C126.429 124.394 125.385 123.695 124.509 122.821C122.919 121.219 121.158 119.147 123.241 117.464C125.79 115.406 127.505 113.037 129.569 110.783C130.325 109.951 132.823 110.095 135.145 109.68C135.048 108.977 135.316 107.632 134.721 107.332C133.517 106.722 131.827 106.404 130.366 106.474C128.981 106.539 127.647 107.248 126.106 107.735C125.13 105.65 126.942 104.98 128.466 105.099C131.142 105.315 132.132 104.337 133.166 102.666C134.809 99.9955 137.809 98.6016 141.586 98.5671C142.801 98.5566 144.023 99.1142 145.967 99.5826C143.229 101.664 139.026 101.961 139.737 105.399C140.602 106.051 140.722 106.832 140.098 107.74L140.105 107.752ZM128.879 120.485C131.014 119.986 131.829 119.498 131.253 118.46C131.116 118.229 129.942 118.08 129.909 118.138C129.55 118.726 129.339 119.366 128.879 120.485ZM132.257 114.86C131.746 114.864 131.192 114.762 131.089 114.883C130.897 115.114 130.834 115.547 130.991 115.764C131.104 115.921 131.832 116.004 132.017 115.876C132.235 115.72 132.17 115.318 132.262 114.851L132.257 114.86Z" fill="white"/>
<path d="M203.245 60.3478C203.711 62.1478 204.186 63.9449 204.701 65.925C207.767 66.8963 209.087 66.3297 209.904 63.5734C211.467 63.8236 213.001 64.2214 214.555 64.2924C217.312 64.4176 217.864 64.8093 217.392 66.8233C217.314 67.1486 217.071 67.4581 217.056 67.7756C217.022 68.6019 216.643 69.76 217.182 70.1946C218.385 71.1775 219.756 70.4022 220.93 69.7521C221.391 69.4999 221.773 69.0485 222.271 68.973C223.164 68.829 224.437 68.5915 224.952 68.936C225.67 69.4116 226.45 70.6784 226.128 71.1157C223.927 74.104 225.433 75.973 228.625 77.697C230.186 78.5335 230.99 79.9058 230.274 81.4917C229.613 82.943 227.953 83.3448 226.274 83.5858C224.284 83.8724 223.119 83.0198 222.362 81.6609C222.155 81.2953 221.729 81.0021 221.286 80.548C220.19 81.4127 219.24 82.1634 217.931 83.1901C220.018 84.4887 221.99 85.8372 224.121 87.0133C225.628 87.8394 226.663 88.7847 226.446 90.2642C226.229 91.7283 225.097 92.6139 223.241 92.9806C220.617 93.5063 218.67 95.7935 215.336 94.5015C214.28 99.1411 209.562 98.112 205.957 98.4712C202.806 98.7941 202.771 98.5712 200.449 100.683C198.173 96.9429 193.779 96.5103 189.323 96.1844C189.049 96.1629 188.777 96.0798 188.508 96.0184C181.088 94.3037 178.561 90.533 181.612 84.9589C182.217 83.855 184.623 83.2566 186.342 82.674C187.117 82.4133 188.236 82.7803 189.438 82.8807C190.409 80.6616 189.836 78.5353 189.357 76.4202C189.184 75.6697 188.71 74.9526 188.615 74.2038C188.421 72.6844 189.13 71.5427 191.312 71.4979C193.444 71.4489 194.899 70.6199 196.423 69.53C197.806 68.5451 199.7 67.9972 201.576 67.1588C200.653 65.7314 198.072 64.4837 199.49 62.6263C200.26 61.6217 202.047 61.1054 203.374 60.3692L203.237 60.3353L203.245 60.3478ZM209.095 71.1962C209.064 73.1859 210.677 73.57 212.32 73.9886C213.609 74.3162 215.006 75.0226 214.057 76.1003C212.124 78.2983 214.982 79.1478 215.255 80.5393C216.508 79.4189 217.58 78.4641 218.7 77.4611C216.882 72.1228 215.838 71.4088 209.095 71.1962ZM211.377 85.2745C210.352 86.4864 209.876 87.3678 211.631 88.4153C212.583 87.2759 212.704 86.4021 211.377 85.2745Z" fill="white"/>
<path d="M203.381 60.3826C201.203 59.8474 199.086 59.3813 197.069 60.8492C196.65 61.1548 195.574 60.909 194.499 60.3208C195.538 59.8189 196.586 59.3142 197.889 58.6855L195.887 55.3089C198.474 54.4923 200.734 53.6963 203.078 53.0749C204.705 52.6476 205.657 52.0637 205.913 50.6004C206.262 48.6393 208.251 46.8468 206.625 44.8239C209.23 42.9584 211.108 40.7346 214.672 40.177C217.209 39.782 219.634 39.4278 222.015 40.5353C222.495 40.7557 222.985 40.9947 223.516 41.1051C228.413 42.1752 228.712 42.4841 228.625 46.4877C228.617 46.8177 228.486 47.1851 228.618 47.4719C231.063 52.756 225.266 54.7613 221.985 57.7568C221.725 57.9887 221.274 58.1917 220.88 58.214C214.934 58.5929 209.372 60.9613 203.241 60.3425L203.377 60.3764L203.381 60.3826Z" fill="white"/>
<path d="M162.134 82.7837C166.146 81.5755 169.563 83.0575 172.971 83.6907C174.965 84.0646 175.573 87.1977 174.414 88.9683C172.739 91.5361 168.42 92.2252 165.993 90.0768C163.807 88.1373 161.567 86.0423 162.131 82.7775L162.134 82.7837Z" fill="white"/>
<path d="M126.765 -0.325232C123.924 0.0136924 121.884 -0.533986 120.979 -2.14304C119.929 -4.01137 120.308 -6.05206 121.769 -7.80368C122.052 -8.14309 123.144 -8.44321 123.523 -8.27753C124.161 -8.00124 125.063 -7.18223 124.915 -6.86148C123.836 -4.48123 125.909 -2.66763 126.765 -0.325232Z" fill="white"/>
<path d="M174.389 98.7765C178.462 98.8164 180.508 99.7345 181.05 101.629C181.235 102.268 180.618 103.286 179.945 103.752C179.55 104.018 177.902 103.754 177.531 103.341C176.393 102.076 175.608 100.621 174.385 98.7857L174.389 98.7765Z" fill="white"/>
<path d="M114.616 -4.86833C115.928 -3.87988 117.248 -2.97767 118.386 -1.956C118.737 -1.64283 118.824 -0.875633 118.571 -0.517032C118.31 -0.140102 117.288 0.30964 116.947 0.175649C115.653 -0.324845 114.187 -0.869213 113.357 -1.72983C112.333 -2.78601 112.842 -3.95365 114.616 -4.86833Z" fill="white"/>
<path d="M95.3205 9.35444C94.9754 8.11871 94.5274 7.34669 94.6009 6.60461C94.7286 5.33294 94.8908 3.97256 95.5749 2.85503C96.175 1.88996 97.7738 1.79229 98.7715 2.57635C99.2343 2.9321 99.3539 4.21228 98.9551 4.48744C97.5692 5.45073 97.169 6.54052 97.1675 7.91061C97.1671 8.25313 96.33 8.58966 95.3125 9.35735L95.3205 9.35444Z" fill="white"/>
<path d="M185.427 70.8729C184.672 71.9858 184.428 72.8815 183.722 73.2765C182.612 73.8879 181.015 73.7109 180.704 72.6302C180.522 71.9967 181.529 70.9665 182.334 70.4287C182.732 70.169 183.903 70.6235 185.427 70.8729Z" fill="white"/>
<path d="M93.1625 9.47398C92.4224 10.3989 92.0898 11.2434 91.6483 11.2831C90.7457 11.362 89.7762 11.0014 88.8314 10.8295C89.1324 10.2096 89.2795 9.16673 89.7667 9.05706C90.6026 8.86553 91.6654 9.25295 93.1662 9.48023L93.1625 9.47398Z" fill="white"/>
<path d="M150.602 18.5077C151.075 17.8021 151.556 17.0937 152.394 15.8438C153.552 17.0788 154.162 17.7309 155.07 18.7074C153.661 18.8802 152.686 19.0008 151.72 19.1185C151.346 18.9128 150.972 18.7071 150.598 18.5015L150.602 18.5077Z" fill="white"/>
<path d="M110.412 1.9269C109.093 1.33638 108.918 0.616642 109.833 -0.144034C110.04 -0.318488 110.997 -0.272846 111.182 -0.0743745C112.007 0.810825 111.459 1.43758 110.415 1.93316L110.412 1.9269Z" fill="white"/>
<path d="M169.667 1.49417C170.512 1.69476 171.4 1.70494 171.613 2.01511C171.837 2.34403 171.527 3.32471 171.286 3.35955C170.595 3.46783 169.821 3.24105 169.078 3.14762C169.252 2.67313 169.422 2.19238 169.671 1.50042L169.667 1.49417Z" fill="white"/>
<path d="M191.304 55.7361C189.683 57.3485 188.549 56.9873 187.298 55.5959C188.779 54.2706 189.895 54.8135 191.304 55.7361Z" fill="white"/>
<path d="M129.186 8.15555C129.658 8.46214 130.45 8.73562 130.509 9.07943C130.573 9.46658 129.96 9.9191 129.647 10.3381C129.141 10.0894 128.424 9.92557 128.193 9.56872C127.906 9.1335 128.029 8.54064 127.977 8.01182C128.384 8.06085 128.791 8.10986 129.194 8.15264L129.186 8.15555Z" fill="white"/>
<path d="M219.42 66.1128C220.289 66.4188 220.84 66.6129 221.383 66.81C221.062 67.2319 220.854 67.7643 220.385 68.0348C220.124 68.1834 219.065 67.9318 219.042 67.7955C218.979 67.3467 219.216 66.8643 219.416 66.1219L219.42 66.1128Z" fill="white"/>
<path d="M119.985 1.50678C119.604 2.05697 119.447 2.59356 119.114 2.66959C118.726 2.766 118.179 2.44854 117.712 2.31488C117.887 1.93914 117.937 1.4033 118.281 1.23186C118.573 1.08705 119.2 1.35998 119.993 1.50386L119.985 1.50678Z" fill="white"/>
<path d="M211.164 17.1499C210.961 17.6577 210.877 18.1527 210.747 18.1622C210.141 18.1859 209.527 18.083 208.913 18.0263C208.982 17.7347 208.993 17.2134 209.127 17.1947C209.712 17.1026 210.335 17.1564 211.156 17.1528L211.164 17.1499Z" fill="white"/>
<path d="M207.299 12.8874C206.886 13.5634 206.747 14.1467 206.451 14.2019C205.925 14.2953 205.304 14.0657 204.718 13.9757C204.845 13.6021 204.847 13.0003 205.134 12.8955C205.611 12.7208 206.278 12.865 207.291 12.8903L207.299 12.8874Z" fill="white"/>
<path d="M158.18 -0.232089C158.019 0.328759 157.997 0.815561 157.851 0.846296C157.396 0.928914 156.893 0.831614 156.403 0.805523C156.464 0.532375 156.412 0.102584 156.608 0.00816256C156.972 -0.16279 157.486 -0.14544 158.18 -0.232089Z" fill="white"/>
<path d="M96.2821 -0.546047C95.8781 0.0962188 95.7412 0.633234 95.4684 0.679718C95.0853 0.736128 94.556 0.480762 94.2145 0.248015C94.0995 0.168349 94.3013 -0.42281 94.5162 -0.501419C94.8904 -0.638256 95.3939 -0.540817 96.2821 -0.546047Z" fill="white"/>
<path d="M127.883 4.68249C127.065 4.95146 126.249 5.22668 125.439 5.49275L125.233 4.6556C126.124 4.67192 127.003 4.68491 127.906 4.70457C127.91 4.71082 127.888 4.67333 127.888 4.67333L127.883 4.68249Z" fill="white"/>
</svg>
