<svg width="424" height="464" viewBox="0 0 424 464" fill="none" xmlns="http://www.w3.org/2000/svg">
<path d="M211.253 32.1472C312.369 32.1472 394.339 121.245 394.339 231.153C394.339 341.061 312.369 430.16 211.253 430.16C110.138 430.16 28.1675 341.061 28.1675 231.153C28.1677 121.245 110.138 32.1474 211.253 32.1472ZM210.549 111.75C150.269 111.75 101.402 164.866 101.402 230.388C101.402 295.91 150.269 349.026 210.549 349.026C270.829 349.026 319.696 295.91 319.696 230.388C319.696 164.866 270.829 111.75 210.549 111.75Z" fill="#949494"/>
<path d="M167.594 0L157.735 44.3937H264.77L251.391 0H167.594Z" fill="#949494"/>
<path d="M424 195.495L382 184.783V301.087L424 286.549V195.495Z" fill="#949494"/>
<path d="M341.979 40.4111L304.205 60.4082L372.344 150.131L395.324 110.654L341.979 40.4111Z" fill="#949494"/>
<path d="M80.1704 40.4111L117.944 60.4082L49.8053 150.131L26.8253 110.654L80.1704 40.4111Z" fill="#949494"/>
<path d="M86.878 427.754L123.622 405.606L51.1982 319.94L30.1782 360.687L86.878 427.754Z" fill="#949494"/>
<path d="M335.314 427.754L298.571 405.606L370.994 319.94L392.014 360.687L335.314 427.754Z" fill="#949494"/>
<path d="M0 195.945L40.8422 185.229L40.8422 301.571L0 287.028L0 195.945Z" fill="#949494"/>
<path d="M167.594 463.838L157.735 419.444H264.77L251.391 463.838H167.594Z" fill="#949494"/>
<path d="M220.688 73.986L225.51 74.7299L224.736 80.6465L250.55 78.5554L249.927 83.3184L228.548 84.7653L248.749 92.3236L248.116 97.1611L223.835 87.5307L223.076 93.3357L218.254 92.5917L220.688 73.986Z" fill="black"/>
<path d="M273.648 88.744C276.094 89.9487 278.172 91.4866 279.88 93.3577C281.62 95.2168 282.803 97.1489 283.427 99.1541C284.051 101.159 284.025 102.97 283.351 104.586C282.666 106.225 281.419 107.462 279.609 108.297C277.809 109.108 275.687 109.427 273.243 109.254C270.831 109.068 268.402 108.373 265.955 107.168C264.182 106.295 262.59 105.246 261.18 104.023C259.77 102.8 258.616 101.48 257.719 100.064L254.017 108.93L249.741 106.824L259.862 82.5821L263.802 84.5219L263.218 86.6978C264.812 86.5086 266.498 86.5871 268.275 86.9332C270.083 87.2672 271.874 87.8708 273.648 88.744ZM260.543 93.3967C260.157 94.3202 260.227 95.3845 260.752 96.5895C261.287 97.7714 262.165 98.9413 263.386 100.099C264.608 101.257 266.038 102.24 267.676 103.047C269.292 103.843 270.904 104.358 272.51 104.592C274.14 104.838 275.54 104.79 276.711 104.448C277.892 104.083 278.675 103.439 279.06 102.515C279.436 101.615 279.362 100.562 278.836 99.3571C278.311 98.1521 277.427 96.965 276.183 95.7959C274.962 94.6378 273.543 93.6609 271.927 92.8651C270.311 92.0693 268.688 91.5486 267.059 91.303C265.452 91.0685 264.058 91.1337 262.878 91.4986C261.697 91.8636 260.919 92.4963 260.543 93.3967Z" fill="black"/>
<path d="M295.952 102.3L299.509 105.639L296.283 109.691C295.457 110.728 295.078 111.946 295.145 113.343C295.246 114.737 295.715 116.17 296.552 117.64C297.389 119.111 298.483 120.48 299.832 121.747C301.875 123.665 303.925 124.854 305.981 125.314C308.055 125.791 309.829 125.285 311.302 123.795L314.528 119.743L318.085 123.083L308.197 135.502C306.838 137.168 305.147 138.111 303.123 138.331C301.084 138.571 298.959 138.218 296.748 137.271C294.556 136.341 292.53 135.003 290.669 133.256C288.9 131.595 287.414 129.618 286.211 127.325C284.993 125.052 284.342 122.748 284.258 120.411C284.176 118.111 284.88 116.087 286.368 114.337L289.925 117.677C289.099 118.714 288.718 119.913 288.783 121.273C288.85 122.671 289.293 124.096 290.112 125.549C290.931 127.002 292.006 128.354 293.338 129.604C295.417 131.557 297.503 132.78 299.595 133.274C301.688 133.768 303.471 133.271 304.944 131.781L306.23 130.166C304.749 129.904 303.196 129.352 301.571 128.511C299.98 127.667 298.473 126.577 297.051 125.241C295.391 123.682 293.946 121.795 292.714 119.578C291.517 117.359 290.849 115.055 290.71 112.667C290.605 110.277 291.324 108.113 292.867 106.175L295.952 102.3Z" fill="black"/>
<path d="M325.499 132.652L335.758 148.632L332.198 151.328L324.513 139.359L313.114 147.991L310.539 143.98L325.499 132.652Z" fill="black"/>
<path d="M327.703 165.097C327.521 165.873 327.52 166.52 327.699 167.041C328.091 168.176 329.252 168.594 331.184 168.294C333.138 167.984 335.541 167.25 338.391 166.09C340.06 165.411 341.577 164.754 342.943 164.117L352.937 192.982L335.521 200.066L333.931 195.454L347.21 190.053L340.432 170.398C340.208 170.516 339.784 170.702 339.158 170.957C337.35 171.692 335.431 172.257 333.4 172.651C331.377 173.069 329.492 173.081 327.744 172.686C326.027 172.306 324.883 171.288 324.312 169.632C324.035 168.828 323.925 167.821 323.983 166.61L327.703 165.097Z" fill="black"/>
<path d="M336.954 217.977C336.918 215.626 337.335 213.504 338.207 211.611L337.419 211.625L337.346 206.897L356.108 206.557L356.18 211.285L349.877 211.399C350.806 213.259 351.289 215.365 351.325 217.716C351.356 219.718 351.046 221.562 350.397 223.251C349.773 224.964 348.905 226.318 347.794 227.314C346.709 228.335 345.541 228.856 344.29 228.879C343.04 228.902 341.856 228.423 340.74 227.442C339.625 226.487 338.716 225.164 338.014 223.476C337.338 221.811 336.985 219.978 336.954 217.977ZM344.062 211.617C343.587 211.626 343.141 211.922 342.725 212.505C342.308 213.088 341.982 213.857 341.747 214.812C341.511 215.768 341.402 216.795 341.419 217.896C341.436 218.997 341.577 220.02 341.842 220.966C342.107 221.937 342.456 222.707 342.891 223.274C343.325 223.842 343.779 224.122 344.255 224.113C344.73 224.104 345.163 223.809 345.555 223.226C345.971 222.643 346.297 221.861 346.532 220.881C346.767 219.926 346.877 218.898 346.86 217.797C346.843 216.697 346.702 215.673 346.437 214.727C346.172 213.781 345.823 213.024 345.389 212.457C344.98 211.889 344.538 211.609 344.062 211.617ZM356.474 230.347L356.547 235.113L337.786 235.453L337.712 230.688L356.474 230.347Z" fill="black"/>
<path d="M336.344 242.197L354.564 246.684L353.566 251.46L337.314 247.458L351.67 260.533L350.812 264.455L350.849 264.464L349.851 269.24L331.631 264.753L332.629 259.977L348.99 264.006L334.511 250.784L336.344 242.197ZM363.818 257.036C362.577 256.988 361.586 257.207 360.846 257.695C360.105 258.182 359.633 258.915 359.428 259.895C359.223 260.874 359.358 261.757 359.832 262.544C360.302 263.354 361.106 264.029 362.245 264.567L361.308 269.049C359.397 268.295 358.021 267.054 357.181 265.328C356.342 263.602 356.167 261.564 356.659 259.213C357.145 256.886 358.11 255.141 359.553 253.977C360.997 252.813 362.733 252.327 364.763 252.518L363.818 257.036Z" fill="black"/>
<path d="M317.548 333.503L305.197 347.928L302.055 344.754L311.305 333.95L301.244 323.79L304.344 320.17L317.548 333.503Z" fill="black"/>
<path d="M278.182 345.128C280.702 343.361 283.267 342.11 285.878 341.376C288.481 340.677 290.798 340.545 292.827 340.981C294.857 341.416 296.319 342.386 297.214 343.891C298.123 345.418 298.342 347.275 297.873 349.464C297.416 351.673 296.353 353.912 294.683 356.181C293.006 358.485 290.907 360.521 288.388 362.288C285.869 364.055 283.307 365.288 280.704 365.987C278.114 366.707 275.797 366.838 273.755 366.382C271.725 365.946 270.256 364.965 269.348 363.439C268.453 361.933 268.24 360.087 268.709 357.899C269.179 355.71 270.252 353.464 271.93 351.16C273.599 348.892 275.684 346.881 278.182 345.128ZM293.278 346.79C292.702 345.822 291.696 345.325 290.257 345.298C288.819 345.271 287.216 345.602 285.45 346.293C283.663 346.998 282.001 347.889 280.465 348.966C278.97 350.015 277.563 351.261 276.244 352.704C274.918 354.183 273.964 355.63 273.382 357.043C272.793 358.493 272.786 359.701 273.362 360.669C273.924 361.615 274.929 362.084 276.375 362.075C277.813 362.102 279.426 361.763 281.213 361.059C282.979 360.368 284.61 359.498 286.105 358.449C287.621 357.386 289.042 356.115 290.368 354.636C291.687 353.193 292.648 351.757 293.25 350.329C293.831 348.916 293.841 347.736 293.278 346.79Z" fill="black"/>
<path d="M264.509 359.412L260.829 360.593C260.692 362.947 260.928 365.246 261.539 367.491C262.156 369.761 263.193 372.053 264.651 374.367L242.281 381.541L238.529 367.744L235.063 368.855L231.922 357.303L236.425 355.859L238.394 363.102L258.871 356.535L256.866 349.304L261.369 347.86L264.509 359.412ZM243.032 366.3L245.612 375.788L257.798 371.88C257.433 370.921 257.107 369.91 256.818 368.848C256.161 366.433 255.938 364.182 256.147 362.094L243.032 366.3Z" fill="black"/>
<path d="M204.188 384.715L199.372 383.935L200.184 378.024L174.361 379.921L175.014 375.162L196.398 373.876L176.25 366.165L176.914 361.332L201.128 371.145L201.925 365.345L206.741 366.126L204.188 384.715Z" fill="black"/>
<path d="M151.323 369.547C148.885 368.324 146.819 366.771 145.124 364.887C143.397 363.014 142.228 361.073 141.618 359.063C141.008 357.053 141.045 355.242 141.731 353.63C142.426 351.996 143.681 350.768 145.496 349.946C147.301 349.147 149.425 348.844 151.867 349.036C154.277 349.239 156.7 349.952 159.138 351.175C160.904 352.061 162.489 353.122 163.89 354.356C165.292 355.59 166.436 356.918 167.323 358.341L171.084 349.5L175.344 351.638L165.061 375.811L161.136 373.842L161.735 371.67C160.14 371.848 158.455 371.757 156.681 371.398C154.875 371.05 153.089 370.433 151.323 369.547ZM164.455 364.989C164.846 364.068 164.784 363.003 164.267 361.794C163.74 360.608 162.871 359.431 161.658 358.264C160.445 357.097 159.022 356.104 157.39 355.285C155.78 354.477 154.172 353.95 152.567 353.703C150.94 353.446 149.54 353.484 148.367 353.817C147.185 354.173 146.397 354.812 146.006 355.733C145.624 356.631 145.691 357.684 146.208 358.893C146.725 360.103 147.601 361.296 148.836 362.475C150.049 363.642 151.461 364.63 153.071 365.438C154.681 366.245 156.299 366.778 157.926 367.036C159.531 367.282 160.925 367.227 162.108 366.871C163.29 366.514 164.073 365.887 164.455 364.989Z" fill="black"/>
<path d="M129.112 355.821L125.579 352.457L128.832 348.427C129.665 347.396 130.053 346.181 129.996 344.784C129.905 343.388 129.445 341.952 128.618 340.476C127.791 339 126.707 337.623 125.367 336.346C123.338 334.414 121.297 333.211 119.244 332.736C117.173 332.245 115.396 332.739 113.912 334.219L110.659 338.248L107.126 334.884L117.099 322.533C118.469 320.876 120.166 319.944 122.191 319.738C124.232 319.513 126.355 319.881 128.558 320.843C130.744 321.788 132.761 323.141 134.609 324.901C136.366 326.574 137.838 328.562 139.025 330.863C140.227 333.144 140.863 335.453 140.93 337.791C140.996 340.091 140.278 342.111 138.778 343.85L135.245 340.485C136.078 339.454 136.467 338.258 136.412 336.897C136.355 335.499 135.922 334.071 135.113 332.612C134.304 331.153 133.238 329.793 131.915 328.534C129.85 326.567 127.773 325.329 125.684 324.82C123.595 324.311 121.808 324.797 120.325 326.277L119.028 327.883C120.507 328.155 122.056 328.717 123.675 329.57C125.26 330.425 126.759 331.526 128.172 332.872C129.821 334.442 131.253 336.34 132.469 338.565C133.651 340.792 134.303 343.101 134.425 345.49C134.514 347.881 133.78 350.04 132.224 351.967L129.112 355.821Z" fill="black"/>
<path d="M99.7603 325.247L89.6097 309.198L93.1894 306.528L100.792 318.548L112.253 309.999L114.801 314.027L99.7603 325.247Z" fill="black"/>
<path d="M97.7711 292.793C97.9582 292.02 97.9638 291.372 97.7877 290.85C97.4037 289.713 96.2447 289.287 94.3109 289.572C92.3537 289.867 89.9456 290.584 87.0865 291.722C85.4128 292.388 83.8907 293.035 82.52 293.661L72.716 264.731L90.1846 257.777L91.7447 262.399L78.4254 267.702L85.0742 287.401C85.2986 287.284 85.7246 287.101 86.3522 286.852C88.1654 286.13 90.089 285.579 92.1231 285.2C94.1492 284.797 96.0352 284.799 97.7812 285.206C99.4959 285.599 100.633 286.625 101.193 288.285C101.465 289.091 101.568 290.098 101.502 291.308L97.7711 292.793Z" fill="black"/>
<path d="M88.8455 239.832C88.8665 242.183 88.4351 244.302 87.5512 246.188L88.3393 246.18L88.3816 250.908L69.6183 251.106L69.576 246.378L75.8805 246.311C74.9631 244.444 74.4938 242.335 74.4728 239.983C74.4549 237.982 74.7762 236.14 75.4367 234.456C76.0719 232.748 76.9481 231.4 78.0652 230.413C79.157 229.4 80.3284 228.888 81.5792 228.874C82.8301 228.861 84.0104 229.349 85.1202 230.338C86.2297 231.302 87.1298 232.631 87.8204 234.326C88.4859 235.995 88.8276 237.83 88.8455 239.832ZM81.6961 246.137C82.1714 246.132 82.6192 245.84 83.0393 245.26C83.4595 244.68 83.7904 243.913 84.0321 242.96C84.2737 242.007 84.3897 240.98 84.3798 239.879C84.37 238.778 84.2357 237.754 83.977 236.806C83.7181 235.833 83.3735 235.061 82.943 234.49C82.5126 233.919 82.0597 233.636 81.5843 233.641C81.109 233.646 80.6738 233.938 80.2786 234.518C79.8585 235.098 79.5277 235.877 79.2862 236.855C79.0445 237.808 78.9286 238.835 78.9385 239.936C78.9483 241.037 79.0826 242.061 79.3413 243.01C79.5999 243.958 79.9445 244.717 80.3749 245.288C80.7804 245.859 81.2207 246.142 81.6961 246.137ZM69.4055 227.314L69.3629 222.548L88.1262 222.35L88.1688 227.116L69.4055 227.314Z" fill="black"/>
<path d="M88.7963 214.74L70.4715 210.702L71.3683 205.907L87.714 209.508L73.0722 196.795L73.847 192.856L73.8103 192.848L74.7071 188.052L93.0319 192.09L92.1351 196.885L75.6795 193.26L90.4472 206.116L88.7963 214.74ZM60.9917 200.586C62.2349 200.604 63.2217 200.361 63.9521 199.856C64.6825 199.351 65.1397 198.607 65.3236 197.623C65.5076 196.639 65.3539 195.76 64.8627 194.986C64.376 194.188 63.5571 193.534 62.4059 193.024L63.2475 188.523C65.176 189.23 66.5787 190.435 67.4557 192.139C68.3327 193.843 68.5505 195.876 68.109 198.237C67.6721 200.573 66.7438 202.34 65.3241 203.538C63.9044 204.736 62.1774 205.264 60.1432 205.124L60.9917 200.586Z" fill="black"/>
<path d="M110.425 122.041L122.875 107.701L125.995 110.897L116.67 121.637L126.66 131.866L123.535 135.465L110.425 122.041Z" fill="black"/>
<path d="M148.702 112.913C146.17 114.662 143.596 115.894 140.979 116.61C138.37 117.29 136.052 117.406 134.025 116.956C131.998 116.507 130.542 115.526 129.657 114.015C128.76 112.482 128.553 110.624 129.037 108.439C129.509 106.234 130.588 104.003 132.273 101.747C133.967 99.4546 136.08 97.4342 138.612 95.6851C141.144 93.9361 143.714 92.7215 146.323 92.0414C148.919 91.3397 151.237 91.2245 153.276 91.6955C155.303 92.145 156.766 93.1362 157.663 94.669C158.548 96.1802 158.749 98.028 158.264 100.212C157.78 102.397 156.691 104.635 154.997 106.927C153.312 109.183 151.213 111.178 148.702 112.913ZM133.614 111.145C134.183 112.117 135.187 112.621 136.626 112.658C138.064 112.696 139.669 112.375 141.441 111.697C143.233 111.005 144.901 110.126 146.445 109.059C147.948 108.021 149.363 106.786 150.692 105.352C152.029 103.883 152.993 102.443 153.585 101.034C154.184 99.5892 154.199 98.381 153.63 97.4095C153.074 96.4596 152.072 95.9839 150.626 95.9825C149.187 95.9452 147.572 96.2727 145.78 96.9648C144.008 97.6427 142.371 98.5007 140.869 99.5387C139.345 100.591 137.915 101.852 136.578 103.321C135.249 104.755 134.279 106.183 133.667 107.606C133.076 109.016 133.058 110.195 133.614 111.145Z" fill="black"/>
<path d="M162.199 98.9516L165.889 97.7991C166.041 95.4471 165.82 93.1464 165.224 90.8972C164.622 88.6237 163.6 86.3245 162.157 83.9996L184.581 76.9956L188.242 90.8175L191.716 89.7322L194.781 101.305L190.267 102.715L188.346 95.4591L167.82 101.87L169.777 109.115L165.264 110.524L162.199 98.9516ZM183.728 92.2273L181.211 82.7224L168.996 86.5377C169.354 87.4995 169.674 88.5124 169.956 89.5766C170.596 91.9951 170.805 94.2474 170.581 96.3334L183.728 92.2273Z" fill="black"/>
</svg>
