<svg width="532" height="360" viewBox="0 0 532 360" fill="none" xmlns="http://www.w3.org/2000/svg">
<g clip-path="url(#clip0_318_5150)">
<rect width="532" height="360" fill="#FAAB28"/>
<g clip-path="url(#clip1_318_5150)">
<path d="M-279.895 410.242C-281.555 501.758 -284.679 593.316 -284.513 684.811C-284.264 815.026 -282.521 945.325 -279.604 1075.39C-277.84 1153.74 -273.2 1231.96 -261.005 1306.74C-259.199 1317.81 -256.521 1328.42 -253.584 1338.31C-252.172 1343.07 -249.224 1345.67 -246.962 1349.26C-246.422 1342.9 -244.948 1336.14 -245.509 1330.28C-248.602 1297.67 -253.646 1265.65 -255.317 1232.76C-260.33 1134.11 -265.945 1035.32 -267.886 936.279C-270.325 812.088 -270.585 687.537 -269.453 563.241C-268.592 468.216 -264.108 373.34 -261.191 278.4C-261.067 274.258 -260.787 270.052 -260.226 266.099C-259.801 263.098 -258.825 260.456 -258.098 257.666C-257.289 260.52 -255.763 263.415 -255.784 266.247C-255.857 279.837 -255.369 293.956 -256.853 306.933C-264.305 372.41 -258.545 435.732 -251.176 498.968C-248.757 519.744 -246.339 540.499 -243.786 561.191C-243.474 563.685 -242.343 565.692 -241.596 567.933C-241.533 565.101 -241.201 562.163 -241.45 559.479C-246.194 508.162 -252.058 457.184 -255.379 405.423C-257.227 376.595 -254.912 346.498 -254.289 316.972C-254.227 314.246 -252.784 311.646 -251.975 308.983C-251.477 311.583 -250.688 314.098 -250.511 316.803C-248.197 352.099 -246.245 387.522 -243.557 422.691C-242.841 432.054 -239.945 440.635 -238.046 449.596C-238.191 440.106 -237.932 430.49 -238.565 421.169C-239.997 400.013 -242.509 379.089 -243.287 357.848C-243.692 346.752 -241.357 335.191 -240.226 323.841C-240.132 322.869 -239.727 322.045 -239.468 321.157C-238.939 323.08 -238.139 324.898 -237.932 326.969C-236.448 341.489 -235.129 356.094 -233.666 370.635C-221.647 490.408 -209.451 610.098 -197.858 730.062C-196.685 742.257 -197.412 758.32 -200.224 768.824C-215.264 825.044 -224.2 886.019 -231.787 948.263C-232.14 951.137 -232.67 954.054 -232.659 956.949C-232.659 960.098 -232.13 963.248 -231.829 966.397C-230.677 964.156 -229.058 962.402 -228.466 959.612C-224.927 942.873 -221.782 925.732 -218.222 909.035C-211.548 877.755 -204.76 846.581 -197.806 815.575C-196.602 810.228 -194.381 805.959 -192.627 801.182C-191.776 807.269 -190.613 813.25 -190.115 819.464C-187.136 856.387 -184.521 893.438 -181.293 930.255C-180.483 939.491 -177.857 947.967 -176.062 956.801C-175.044 947.079 -172.678 936.976 -173.239 927.698C-176.29 877.607 -180.213 827.77 -183.431 777.722C-183.96 769.5 -183.555 759.419 -181.77 752.359C-168.07 698.147 -153.944 644.443 -139.89 590.653C-139.174 587.927 -137.877 585.94 -136.849 583.615C-136.507 588.815 -135.666 594.098 -135.884 599.171C-138.697 664.817 -141.105 730.59 -144.789 796.025C-146.782 831.363 -151.027 866.089 -154.172 901.131C-154.743 907.514 -155.179 914.108 -155.148 920.575C-155.127 924.802 -154.182 929.029 -153.643 933.235C-153.061 929.051 -152.325 924.95 -151.94 920.702C-147.955 877.544 -142.848 834.681 -140.357 791.122C-136.164 717.486 -133.704 643.386 -130.331 569.518C-129.885 559.69 -129.262 549.122 -127.238 540.563C-113.237 481.299 -98.8823 422.416 -84.4138 363.681C-83.9156 361.652 -83.0229 341.13 -79.2761 361.103C-77.9164 358.609 -75.7368 356.622 -75.3216 353.515C-72.4051 331.83 -69.9141 309.892 -67.1532 288.123C-66.6758 284.36 -65.5445 281 -64.7142 277.449C-64.7142 281.317 -64.3924 285.333 -64.7764 289.01C-68.1081 321.432 -71.5748 353.769 -74.948 386.169C-75.1971 388.536 -74.9791 391.115 -74.9688 393.588C-74.3045 391.791 -73.2977 390.206 -73.0382 388.156C-66.9145 340.834 -60.8012 293.512 -54.8851 246.063C-53.3178 233.509 -52.6328 220.447 -51.0967 207.872C-50.5985 203.814 -48.668 200.58 -47.3914 196.987C-46.3327 200.855 -44.89 204.469 -44.2776 208.654C-38.0501 251.157 -32.3312 294.04 -25.7301 336.269C-18.3194 383.675 -6.74658 426.136 10.0573 460.713C17.8209 476.692 14.759 495.946 15.5582 514.228C15.6827 517.166 16.2328 520.019 16.5753 522.915C16.7622 520.04 16.9801 517.166 17.1358 514.27C17.717 503.449 18.2671 492.628 18.838 481.828C22.917 487.428 27.1309 492.628 31.0646 498.672C52.4145 531.474 76.0998 553.561 100.667 571.927C104.29 574.633 108.794 579.473 110.392 586.173C131.005 672.13 151.359 758.404 171.277 845.122C175.522 863.595 177.701 884.307 181.012 903.836C181.894 909.035 183.399 913.706 184.614 918.631C184.479 912.819 184.946 906.542 184.116 901.237C178.158 863.616 173.124 825.001 165.516 788.987C152.386 726.849 137.565 666.402 123.564 605.131C122.173 599.044 121.55 592.112 120.564 585.581C123.501 585.623 126.449 585.56 129.386 585.708C147.674 586.638 165.962 587.652 184.25 588.476C185.87 588.54 187.624 588.223 189.077 586.849C190.333 585.665 191.256 582.77 192.325 580.614C191.07 579.98 189.824 578.86 188.558 578.775C167.893 577.169 147.218 575.753 126.553 574.168C118.706 573.576 113.423 565.925 110.455 549.186C107.808 534.264 104.674 519.322 100.553 506.154C92.7894 481.299 93.381 458.41 99.1622 431.462C109.406 383.696 109.095 383.105 124.342 422.606C134.534 449.004 145.412 474.155 156.102 499.602C157.451 502.815 159.59 504.442 161.364 506.809C161.084 502.075 161.562 496.009 160.399 492.776C150.778 466.124 141.8 437.908 130.777 414.258C118.125 387.141 114.503 362.646 123.667 326.06C132.915 289.095 131.192 287.51 146.823 314.119C163.399 342.335 180.628 368.796 196.737 398.195C204.147 411.722 209.627 430.3 215.845 446.827C219.477 456.507 222.757 466.8 226.348 476.523C226.992 478.256 228.435 478.594 229.514 479.587C229.275 477.389 229.296 474.832 228.756 473.056C225.456 462.129 221.948 451.477 218.668 440.508C216.924 434.675 215.502 428.355 213.935 422.268C216.903 424.487 219.986 426.136 222.809 429.01C228.995 435.309 234.994 442.474 241.19 448.73C242.446 449.998 244.221 448.878 245.757 448.856C244.823 445.792 244.221 441.375 242.903 439.874C233.468 429.095 223.878 418.992 214.392 408.467C213.271 407.22 212.451 404.747 211.485 402.845C212.762 403.12 214.101 402.887 215.295 403.712C226.224 411.32 237.08 419.478 248.072 426.559C250.739 428.271 253.874 426.559 256.79 426.39C254.279 423.431 251.871 419.859 249.234 417.597C234.008 404.557 218.554 392.658 203.576 378.412C199.57 374.608 195.73 365.076 193.913 356.136C187.167 322.954 181.251 288.968 175.138 255.194C174.494 251.622 174.536 247.479 174.255 243.59C175.968 244.668 177.815 245.197 179.383 246.93C208.091 278.802 236.852 310.526 265.353 343.286C268.218 346.583 270.937 356.094 271.228 363.216C272.089 383.887 271.549 404.811 271.892 425.608C271.965 429.814 273.532 433.893 274.414 438.014C275.514 433.808 277.466 429.687 277.569 425.354C278.047 406.945 278.14 388.494 278.036 370.043C277.974 359.116 279.126 354.128 284.658 358.883C319.906 389.086 356.295 409.714 393.66 423.515C401.393 426.369 408.284 441.015 415.352 450.949C422.234 460.65 428.825 471.302 435.54 481.532V470.816C428.96 460.185 422.358 449.617 415.82 438.838C414.802 437.148 414.117 434.484 413.287 432.286C414.47 431.779 415.674 430.638 416.816 430.849C423.064 432.075 429.302 433.639 435.54 435.097V420.81C429.562 419.415 423.573 418.231 417.615 416.583C407.921 413.878 398.673 411.574 390.256 396.673C358.288 340.073 329.372 277.217 304.016 206.561C300.289 196.163 297.196 184.686 293.802 173.717C299.085 179.741 304.316 185.976 309.672 191.703C312.474 194.704 315.464 196.881 318.38 199.418C316.003 195.169 313.803 190.308 311.229 186.758C297.736 168.158 282.157 155.435 274.632 120.731C272.452 110.67 272.546 105.661 278.026 106.887C289.339 109.423 300.767 111.241 311.852 116.377C322.771 121.449 333.305 130.474 344.069 137.216C346.061 138.463 348.397 137.174 350.576 137.068C348.988 134.257 347.587 130.263 345.771 128.826C337.031 121.936 328.168 115.87 319.387 109.233C317.685 107.944 316.201 105.344 314.613 103.358C316.118 101.307 317.55 98.8558 319.148 97.2495C325.832 90.4651 332.33 82.1378 339.346 77.805C346.331 73.4934 350.773 64.8702 355.029 52.9076C356.627 48.4269 361.412 47.4547 364.65 47.9197C375.818 49.5471 386.934 52.7174 398.092 54.8098C399.701 55.1057 401.413 52.8019 403.084 51.7029C401.673 48.7862 400.427 43.9251 398.829 43.3122C391.844 40.628 384.744 39.3599 377.697 37.2675C368.833 34.6327 366.695 25.0161 371.283 8.4178C396.338 -81.999 388.481 -205.45 351.801 -287.963C322.034 -354.94 284.98 -376.266 243.162 -368.213C236.925 -367.009 230.303 -375.336 223.857 -379.246H200.878C203.213 -366.945 205.725 -354.792 207.822 -342.323C209.129 -334.566 210.136 -326.429 210.738 -318.292C211.724 -304.871 212.274 -291.302 213.011 -277.775C209.181 -284.56 204.905 -290.457 201.719 -298.446C199.996 -302.757 199.643 -310.577 199.549 -316.876C199.228 -337.652 199.311 -358.47 199.238 -379.267H181.189C181.853 -373.708 182.704 -363.225 183.14 -363.289C192.938 -365.149 187.935 -346.719 190.312 -338.793C190.8 -337.165 189.897 -333.572 189.637 -330.867C188.537 -332.262 186.918 -333.065 186.42 -335.137C182.912 -349.699 179.621 -364.515 176.269 -379.246H130.32C130.279 -361.492 130.362 -343.717 130.134 -325.964C130.061 -320.532 129.158 -315.143 128.639 -309.711C127.736 -315.777 126.086 -321.821 126.075 -327.887C126.034 -345.007 126.667 -362.126 127.03 -379.246H122.11C121.602 -366.861 121.301 -354.412 120.481 -342.111C120.107 -336.489 118.696 -331.205 117.751 -325.774C115.53 -331.269 112.188 -336.066 111.347 -342.407C109.79 -354.201 109.697 -366.903 108.991 -379.225H71.2527L72.1142 -353.355C69.7062 -361.408 67.3086 -369.439 64.911 -377.513C64.7657 -377.978 64.7553 -378.654 64.693 -379.225H-316.024C-319.398 -365.846 -322.729 -352.404 -326.175 -339.11C-326.933 -336.193 -328.106 -333.805 -329.092 -331.184C-328.978 -335.01 -329.32 -339.237 -328.666 -342.555C-326.269 -354.94 -323.549 -367.03 -320.944 -379.225H-401.351C-404.486 -358.406 -407.517 -337.504 -410.879 -316.854C-411.378 -313.79 -413.474 -311.972 -414.824 -309.584C-415.623 -312.966 -417.138 -316.411 -417.097 -319.729C-416.868 -334.481 -416.204 -349.213 -415.467 -370.242C-414.367 -354.37 -413.775 -344.563 -412.966 -334.862C-412.779 -332.621 -411.814 -330.698 -411.201 -328.648C-410.879 -330.825 -410.174 -333.108 -410.288 -335.179C-411.046 -349.889 -411.98 -364.557 -412.852 -379.246H-448.95C-449.116 -376.308 -448.774 -372.039 -449.531 -370.686C-454.596 -361.661 -459.9 -353.271 -465.121 -344.669C-463.367 -353.376 -461.571 -362.063 -459.89 -370.834C-459.381 -373.497 -459.153 -376.435 -458.8 -379.225H-468.65C-471.649 -364.007 -474.587 -348.748 -477.7 -333.636C-478.167 -331.396 -479.382 -329.874 -480.254 -328.035C-480.14 -330.867 -480.316 -333.953 -479.859 -336.489C-477.296 -350.798 -474.587 -365.001 -471.93 -379.225H-503.109C-513.114 -340.547 -521.397 -299.249 -538.73 -272.005C-543.795 -264.059 -548.465 -254.865 -553.146 -245.819C-553.935 -244.297 -553.873 -240.662 -554.205 -238.02C-553.074 -239.119 -551.766 -239.753 -550.842 -241.38C-547.23 -247.721 -543.774 -254.484 -540.183 -260.846C-539.498 -262.072 -538.408 -262.199 -537.505 -262.854C-537.785 -261.247 -537.931 -259.493 -538.346 -258.077C-550.251 -217.413 -561.647 -175.206 -582.862 -153.922C-598.431 -138.282 -614.456 -124.692 -630.471 -111.229C-635.567 -106.939 -641.255 -105.945 -646.663 -103.43C-642.926 -111.863 -639.314 -120.529 -635.443 -128.645C-623.278 -154.197 -612.629 -185.668 -598.4 -203.506C-577.745 -229.418 -559.104 -259.366 -542.747 -296.121C-531.049 -322.413 -520.649 -351.432 -509.679 -379.225H-529.368C-543.971 -350.671 -558.897 -322.878 -573.116 -293.437C-601.005 -235.695 -629.506 -179.073 -655.682 -117.823C-667.213 -90.8335 -679.533 -80.8366 -694.946 -79.8432C-703.416 -79.2937 -711.906 -80.0334 -720.365 -79.2937C-722.617 -79.1035 -724.807 -75.6584 -727.028 -73.6928C-724.994 -70.4802 -723.063 -64.9005 -720.894 -64.4355C-711.408 -62.4065 -701.828 -62.3432 -692.341 -60.3987C-689.912 -59.8915 -687.785 -53.5297 -685.304 -52.6631C-682.242 -51.5852 -678.724 -51.9657 -675.838 -54.2483C-667.525 -60.8636 -659.491 -69.191 -651.219 -76.1023C-613.979 -107.15 -575.482 -133.759 -548.59 -203.654C-536.841 -234.173 -526.285 -266.848 -515.18 -298.53C-514.017 -301.848 -513.052 -305.589 -511.661 -308.358C-509.772 -312.141 -507.572 -315.164 -505.506 -318.503C-506.492 -313.832 -507.457 -309.119 -508.495 -304.49C-509.336 -300.749 -510.758 -297.283 -511.018 -293.394C-511.256 -289.886 -510.27 -285.997 -509.824 -282.277C-507.831 -284.095 -504.966 -284.687 -503.991 -287.941C-500.773 -298.805 -498.594 -311.148 -495.262 -321.779C-494.037 -325.689 -490.674 -326.408 -488.277 -328.606C-488.152 -323.639 -487.197 -317.848 -488.038 -313.811C-495.314 -278.895 -502.6 -243.938 -510.467 -209.656C-525.6 -143.714 -540.847 -77.8565 -556.821 -12.8866C-559 -4.03093 -565.404 3.40877 -570.303 5.01505C-593.521 12.5392 -616.937 17.1679 -640.196 24.2059C-649.33 26.9747 -658.246 33.1039 -667.213 38.1975C-668.469 38.9161 -669.393 42.4034 -670.472 44.6014C-669.206 45.003 -667.909 45.9964 -666.663 45.7217C-634.353 38.5779 -602.063 31.2439 -569.753 24.227C-567.625 23.762 -565.394 25.5374 -563.214 26.2772C-564.397 30.6944 -565.124 36.4221 -566.847 39.3176C-580.869 62.9469 -595.068 86.0478 -609.215 109.276C-611.581 113.164 -613.979 117.011 -616.355 120.879C-612.152 116.715 -607.762 113.249 -603.786 108.219C-595.286 97.482 -587.097 85.5405 -578.513 75.1208C-577.07 73.3666 -572.545 76.1354 -572.441 77.6994C-571.009 100.652 -569.805 123.711 -569.328 146.833C-569.255 150.384 -573.469 158.225 -575.005 157.464C-588.581 150.764 -602.001 142.521 -615.473 134.807C-621.192 131.531 -619.137 126.268 -616.272 120.752C-630.845 133.475 -642.449 111.812 -655.308 104.774C-659.086 102.702 -662.896 100.991 -666.694 99.1095C-663.29 104.457 -660.052 110.417 -656.44 114.982C-653.388 118.829 -649.88 120.879 -646.631 124.007C-644.431 126.12 -642.334 128.762 -640.196 131.172C-641.961 133.222 -643.808 135.018 -645.469 137.407C-646.247 138.527 -646.673 140.788 -647.265 142.521C-646.133 143.642 -644.774 146.283 -643.902 145.67C-618.649 128.192 -598.026 168.454 -574.465 172.491C-572.327 172.85 -569.878 183.524 -568.809 190.329C-567.179 200.686 -567.594 212.923 -565.352 222.37C-562.996 232.262 -558.897 233.657 -557.008 219.813C-556.312 214.72 -555.326 209.14 -555.669 204.173C-557.236 181.241 -551.911 179.36 -543.307 181.622C-532.492 184.475 -521.5 184.348 -510.602 185.806C-508.859 186.039 -507.146 187.793 -505.423 188.85C-506.139 191.915 -506.596 195.508 -507.624 197.98C-519.061 225.794 -530.042 252.235 -548.351 262.697C-580.444 281.042 -610.688 310.695 -638.121 352.374C-639.584 354.593 -640.705 357.869 -641.982 360.638C-640.259 359.623 -638.453 359.01 -636.823 357.51C-608.415 331.45 -580.039 305.221 -551.59 279.33C-549.576 277.491 -547.075 278.147 -544.802 277.661C-546.037 281.423 -547.345 285.058 -548.455 288.968C-549.078 291.166 -549.389 293.787 -549.836 296.217C-548.632 295.118 -547.345 294.315 -546.234 292.857C-537.214 281.063 -528.382 268.509 -519.165 257.518C-514.422 251.854 -512.761 254.834 -512.253 268.615C-510.633 311.752 -519.726 343.92 -530.862 376.891C-563.619 473.817 -600.901 559.563 -649.538 619.397C-651.416 621.722 -652.776 626.076 -654.374 629.479C-652.371 627.915 -650.306 626.689 -648.386 624.723C-608.405 583.742 -576.811 520.484 -549.296 446.743C-538.616 418.126 -528.776 388.05 -518.47 358.778C-517.401 355.734 -515.782 353.6 -514.411 351.063C-513.903 354.825 -512.72 358.862 -513 362.329C-514.598 381.984 -516.114 401.767 -518.501 421.021C-521.345 443.911 -521.822 470.098 -533.779 482.567C-534.578 483.392 -534.91 486.35 -535.46 488.316C-534.288 488.189 -532.866 488.95 -531.973 487.788C-526.067 480.221 -526.316 488.612 -526.451 497.383C-526.638 508.965 -526.69 520.569 -526.804 532.172C-525.019 520.843 -522.632 509.768 -521.583 498.123C-519.58 475.952 -515.761 457.966 -507.447 442.178C-472.833 376.447 -438.623 309.554 -412.852 225.393C-412.052 222.772 -410.485 221.271 -409.281 219.242C-408.824 222.455 -407.994 225.646 -407.973 228.859C-407.87 247.31 -407.236 265.973 -408.295 284.128C-408.814 292.941 -411.938 302.389 -415.052 308.92C-434.731 350.324 -455.043 390.65 -468.359 443.636C-475.407 471.683 -480.991 501.462 -487.011 530.671C-487.789 534.454 -487.27 539.485 -487.353 543.944C-486.087 540.351 -484.333 537.181 -483.637 533.123C-474.514 480.158 -461.831 431.758 -444.228 390.058C-435.748 369.958 -426.427 351.507 -417.408 332.486C-416.111 329.738 -414.336 328.068 -412.779 325.891C-412.831 330.266 -412.519 334.832 -412.997 338.953C-421.342 411.088 -430.714 482.715 -437.959 555.378C-445.203 627.999 -451.41 701.297 -455.956 774.911C-458.219 811.538 -455.769 849.54 -455.364 886.907C-455.344 888.577 -454.482 890.204 -454.015 891.852C-453.683 890.267 -453.174 888.724 -453.06 887.055C-452.863 884.138 -452.718 881.095 -452.863 878.199C-456.786 802.535 -451.991 728.667 -443.47 655.475C-433.143 566.707 -423.033 477.812 -412.748 389.001C-412.115 383.548 -410.682 378.518 -409.624 373.277C-409.177 379.321 -408.067 385.556 -408.388 391.39C-413.329 479.904 -418.487 568.356 -423.49 656.849C-423.833 662.894 -423.428 669.15 -423.366 675.3C-422.214 669.615 -420.584 664.141 -420.003 658.181C-417.699 634.319 -415.747 610.288 -413.578 586.363C-413.329 583.657 -412.54 581.185 -411.99 578.606C-411.689 581.227 -411.129 583.848 -411.108 586.49C-410.568 650.72 -411.575 715.225 -409.074 779.074C-407.34 823.437 -415.301 856.261 -425.94 890.077C-444.778 949.953 -462.91 1010.89 -481.25 1071.5C-482.33 1075.07 -482.672 1079.7 -483.357 1083.85C-482.132 1080.8 -480.814 1077.89 -479.693 1074.65C-454.939 1003.49 -430.216 932.284 -405.43 861.206C-404.538 858.649 -403.033 857.106 -401.818 855.077C-401.216 858.226 -400.365 861.27 -400.064 864.546C-398.57 881.264 -396.909 897.961 -395.985 914.827C-395.653 920.829 -396.992 927.487 -397.947 933.574C-410.184 1011.99 -429.666 1082.32 -449.241 1152.6C-453.05 1166.25 -456.143 1180.94 -459.059 1195.61C-459.869 1199.69 -458.873 1205.46 -458.707 1210.45C-456.745 1207.8 -454.046 1206.18 -452.946 1202.37C-442.484 1166.13 -431.544 1130.39 -422.193 1092.81C-401.663 1010.29 -388.211 921.505 -374.573 832.8C-360.188 739.213 -345.73 645.499 -328.708 554.11C-317.768 495.375 -302.168 440.719 -288.592 384.33C-287.907 381.477 -286.568 379.385 -285.531 376.933C-284.908 380.124 -284.212 383.253 -283.673 386.507C-282.365 394.412 -281.13 402.38 -279.874 410.327C-280.289 396.843 -280.933 383.379 -281.057 369.895C-281.14 361.23 -280.58 352.501 -280.071 343.877C-279.957 341.912 -278.888 340.2 -278.265 338.361C-277.808 340.686 -276.874 343.095 -276.968 345.294C-277.86 366.957 -278.929 388.579 -279.947 410.2L-279.895 410.242ZM-99.339 -64.7738C-101.986 -74.2847 -104.778 -83.6475 -107.175 -93.4754C-107.622 -95.3142 -106.48 -98.9707 -106.075 -101.782C-102.245 -95.5679 -97.9585 -90.1996 -94.9071 -82.5063C-94.2117 -80.7521 -97.7925 -70.9875 -99.4116 -64.9006C-101.353 -54.5654 -102.868 -43.723 -105.411 -34.1487C-106.615 -29.6046 -110.279 -24.0249 -111.929 -25.1451C-114.565 -26.9416 -117.762 -33.2399 -118.405 -38.9042C-119.765 -50.8456 -120.398 -63.7804 -119.807 -75.9543C-119.506 -82.1892 -116.215 -88.4664 -113.61 -92.8837C-113.019 -93.8982 -109.479 -87.7478 -107.663 -84.028C-104.726 -77.9833 -102.1 -71.2412 -99.339 -64.7738ZM8.96739 385.26C8.35503 376.51 7.50394 367.781 7.22371 358.968C7.04726 353.325 7.71153 347.534 8.00214 341.806C10.4101 347.365 14.157 352.184 14.8835 358.63C15.7969 366.682 14.3542 376.13 13.6484 384.859C13.3993 387.881 12.3199 390.587 11.6141 393.419C10.7008 390.608 9.78739 387.776 8.88441 384.965C8.94668 394.37 9.01934 403.775 9.08161 413.201C9.09199 415.399 9.08161 417.619 9.08161 419.817C10.1091 418.401 11.7802 417.449 12.0708 415.505C14.292 400.9 16.5753 386.296 18.153 371.332C19.2532 360.87 20.8931 358.376 25.9892 360.828C35.7664 365.541 45.8653 367.084 55.6943 371.417C58.8081 372.791 62.5757 377.398 64.1637 383.041C69.4363 401.704 73.1728 422.501 78.7776 440.635C87.5064 468.893 86.0845 495.396 78.9955 523.57C76.2243 534.581 74.1173 537.329 68.3154 532.996C40.4162 512.199 19.2739 471.64 0.767906 424.107C-17.5513 377.039 -20.8415 315.937 -29.4043 259.865C-29.6222 258.406 -29.2797 256.546 -29.2071 254.877C-28.3871 256.102 -27.3596 256.969 -26.7887 258.618C-23.9967 266.691 -21.7341 275.801 -18.5373 283.008C-5.56341 312.322 6.01977 343.201 8.95707 385.218L8.96739 385.26ZM-137.327 491.888C-136.195 492.205 -135.054 492.501 -133.922 492.818C-135.946 510.889 -136.289 530.967 -140.285 546.671C-154.037 600.735 -169.056 653.277 -183.659 706.327C-184.728 710.195 -186.368 713.344 -187.738 716.81C-188.766 712.266 -190.229 707.975 -190.759 703.178C-204.947 574.231 -219.135 445.285 -233.074 316.211C-235.503 293.766 -237.288 270.855 -238.337 247.923C-238.617 241.752 -235.856 232.072 -233.209 228.584C-221.304 212.881 -209.047 198.424 -196.643 184.665C-194.848 182.678 -190.146 185.194 -189.222 188.681C-181.345 218.545 -173.872 248.959 -166.669 279.626C-165.267 285.586 -164.852 293.575 -165.174 300.36C-166.98 338.763 -169.191 377.06 -171.152 415.42C-171.599 424.17 -171.64 433.005 -171.858 441.797C-170.685 432.751 -168.973 423.875 -168.423 414.638C-165.589 366.936 -163.088 319.128 -160.358 271.383C-160.182 268.361 -159.164 265.592 -158.531 262.697C-157.649 264.874 -156.528 266.797 -155.916 269.291C-151.702 286.643 -147.996 304.629 -143.336 321.389C-137.794 341.32 -136.226 359.792 -144.385 378.096C-144.997 379.448 -145.007 382.069 -145.298 384.098C-144.592 383.485 -143.772 383.21 -143.201 382.217C-137.493 372.178 -137.41 382.555 -137.368 390.354C-137.213 424.192 -137.306 458.05 -137.306 491.909L-137.327 491.888ZM381.589 -103.409C382.264 -68.7049 377.801 -33.578 368.833 -1.17758C359.284 33.3575 359.191 33.2307 340.789 25.4107C337.301 23.9312 333.378 24.0791 330.441 20.465C326.102 15.1177 321.048 8.7348 318.816 -0.205436C312.713 -24.7224 307.835 -50.7187 302.656 -76.3136C300.871 -85.127 299.604 -94.4266 298.099 -103.494C301.732 -98.4635 305.271 -93.0528 309.029 -88.5087C317.28 -78.5117 326.621 -71.4736 333.71 -58.5388C342.366 -42.7296 349.154 -22.0593 356.814 -3.62935C357.738 -1.41014 359.098 -0.0996413 360.26 1.63345C360.26 -1.7482 360.862 -5.95419 360.167 -8.34248C357.105 -18.8045 354.396 -30.5134 350.234 -38.5448C334.084 -69.6559 317.384 -99.4145 300.974 -129.913C294.986 -141.051 287.865 -150.858 283.651 -164.723C269.785 -210.311 256.998 -257.443 243.848 -304.046C236.084 -331.551 239.606 -347.36 254.414 -351.474C321.691 -370.031 381.734 -254.484 381.589 -103.451V-103.409ZM-404.424 728.836C-403.842 728.836 -403.251 728.836 -402.67 728.836C-402.67 674.159 -402.815 619.482 -402.638 564.805C-402.379 481.299 -398.767 398.66 -388.274 317.966C-387.713 313.675 -386.675 309.681 -385.866 305.559C-385.046 309.807 -383.811 313.908 -383.489 318.325C-381.154 350.408 -379.005 382.555 -376.784 414.681C-376.545 418.062 -376.182 421.402 -375.871 424.783C-375.071 421.529 -373.774 418.422 -373.577 414.998C-372.819 402.042 -372.632 388.917 -371.719 376.024C-371.542 373.509 -369.186 370.656 -367.64 369.916C-365.709 369.007 -363.571 370.127 -361.516 370.381C-361.558 365.816 -361.143 360.976 -361.724 356.749C-363.27 345.357 -365.107 334.134 -367.059 323.017C-374.386 281.254 -374.366 281.507 -356.15 260.837C-353.036 257.307 -350.618 250.903 -347.878 245.831C-350.753 248.684 -353.638 251.537 -356.503 254.433C-357.738 255.68 -358.89 257.603 -360.177 258.322C-364.848 260.9 -369.56 263.119 -374.262 265.465C-371.522 255.912 -369.342 245.281 -365.938 237.017C-351.044 200.813 -335.807 165.263 -320.674 129.544C-318.91 125.381 -316.948 121.597 -315.08 117.645C-314.499 123.521 -313.17 129.587 -313.471 135.251C-315.412 172.449 -317.716 209.562 -319.834 246.718C-319.989 249.466 -319.626 252.361 -319.512 255.172C-318.671 252.657 -317.311 250.354 -317.083 247.606C-314.997 222.455 -313.118 197.241 -311.167 172.026C-310.991 169.744 -310.721 167.503 -310.503 165.242C-310.16 167.609 -309.382 170.124 -309.537 172.301C-311.416 198.636 -312.848 225.245 -315.765 251.051C-316.678 259.125 -321.131 267.452 -324.909 271.362C-332.496 279.225 -340.799 283.705 -348.636 290.532C-350.244 291.927 -351.106 297.443 -352.31 301.057C-350.442 302.938 -348.532 306.616 -346.726 306.362C-340.488 305.453 -334.198 304.037 -328.085 301.205C-321.422 298.12 -319.719 302.664 -321.006 316.74C-324.784 358.144 -328.334 399.654 -331.811 441.206C-335.932 490.43 -340.602 539.168 -351.666 583.911C-361.236 622.61 -370.619 661.562 -379.514 701.022C-386.239 730.886 -391.989 761.765 -398.383 791.988C-399.151 795.623 -401.217 797.948 -402.68 800.886C-403.272 797.082 -404.33 793.299 -404.361 789.494C-404.527 769.268 -404.444 749.041 -404.444 728.836H-404.424ZM271.145 322.615C269.287 323.144 266.547 325.955 264.959 324.095C233.209 286.96 201.459 249.804 170.156 210.936C167.177 207.238 164.758 190.203 166.128 182.995C174.556 138.527 184.053 94.988 193.54 51.5127C194.183 48.596 198.21 46.1655 199.809 47.7084C213.053 60.4107 226.141 73.8316 239.135 87.6963C241.377 90.0846 243.702 94.8612 244.667 99.7435C258.378 169.088 267.356 241.223 271.145 322.594V322.615ZM385.398 403.056C382.15 403.056 380.395 403.902 378.891 402.93C346.943 382.513 314.965 362.286 283.184 340.686C280.278 338.72 277.497 328.512 276.614 321.051C273.314 292.857 271.238 263.986 267.938 235.77C262.945 193.162 257.309 150.891 251.974 108.472C251.705 106.295 251.684 103.992 251.538 101.73C252.182 102.343 252.96 102.66 253.448 103.632C262.623 122.21 273.054 138.654 280.673 159.873C310.824 243.907 341.027 327.561 380.198 393.292C381.485 395.448 382.669 397.92 385.388 403.035L385.398 403.056ZM310.949 12.3701C295.878 1.21065 282.655 -10.4561 268.965 -18.2973C247.428 -30.6403 232.763 -57.2706 224.003 -102.458C218.948 -128.539 213.136 -152.422 217.059 -182.138C218.834 -195.622 218.471 -210.417 219.239 -224.578C219.446 -228.424 220.277 -232.123 220.816 -235.885C222.415 -234.025 224.189 -232.63 225.591 -230.2C236.468 -211.284 247.293 -192.199 258.108 -173.113C267.211 -157.029 278.991 -144.496 284.793 -123.974C295.889 -84.7255 303.621 -40.9754 312.547 1.1261C313.045 3.47212 311.665 7.67804 310.959 12.3489L310.949 12.3701ZM-67.7449 41.5791C-68.7309 47.8563 -69.5404 54.7464 -70.8586 61.1716C-77.0861 91.5641 -83.2409 122.041 -89.8213 152.075C-101.913 207.301 -114.264 262.253 -126.605 317.226C-127.394 320.734 -128.992 323.376 -130.207 326.399C-130.798 322.89 -131.836 319.424 -131.898 315.894C-133.113 247.627 -134.441 179.381 -135.022 111.093C-135.095 102.618 -131.878 91.9868 -128.743 85.8153C-118.063 64.7856 -106.843 45.0242 -95.5921 25.3895C-92.8832 20.6552 -89.209 18.6473 -86.1367 14.7796C-85.2338 13.6382 -84.7874 10.468 -84.3307 8.05854C-82.203 -3.33339 -80.148 -14.7888 -78.0721 -26.223C-77.2107 -24.5533 -75.8406 -23.2006 -75.5811 -21.1716C-72.9033 -0.628106 -70.4019 20.0212 -67.7345 41.6426L-67.7449 41.5791ZM-28.2522 102.956C-24.7544 86.6818 -22.087 73.7259 -19.1808 61.0236C-17.7797 54.8944 -15.9425 49.2513 -14.3026 43.3757C-12.2372 49.3781 -9.73579 54.8733 -8.17891 61.4463C4.32796 114.137 16.8452 166.827 28.9784 219.919C38.465 261.407 47.308 303.615 56.67 345.251C59.9498 359.813 57.957 365.668 51.0133 363.153C43.2601 360.342 35.5692 356.432 27.9405 352.205C22.3046 349.077 21.4224 340.961 24.1936 330.435C28.2623 314.985 32.4035 299.62 36.3476 284.022C37.0119 281.38 36.8251 277.682 37.0327 274.49C35.7041 275.822 33.784 276.371 33.1301 278.633C29.4974 291.166 25.9165 303.847 22.782 317.014C16.8659 341.87 14.925 342.863 5.5319 322.806C3.65327 318.79 1.93037 313.506 1.15193 308.116C-6.35219 255.933 -13.6488 203.624 -20.9245 151.293C-21.2774 148.756 -20.8623 145.692 -20.8104 142.881C-19.6064 143.599 -18.3816 144.149 -17.2088 145.058C-15.1433 146.664 -13.109 148.481 -11.054 150.193C-12.3825 145.945 -13.5761 141.465 -15.0603 137.491C-19.4299 125.782 -23.9033 114.263 -28.221 102.977L-28.2522 102.956ZM-66.9041 100.082C-66.956 100.082 -67.008 100.082 -67.0599 100.082C-67.4231 117.878 -68.1704 135.695 -68.077 153.469C-67.7449 217.446 -72.7164 277.724 -88.0257 334.261C-101.155 382.766 -111.69 434.611 -123.533 484.808C-124.913 490.662 -127.342 495.354 -129.283 500.596C-129.625 494.297 -130.207 488.02 -130.269 481.722C-130.435 465.68 -129.771 449.49 -130.497 433.597C-132.988 379.025 -130.321 327.836 -113.839 282.923C-109.345 270.665 -107.02 254.581 -103.844 240.103C-92.8832 190.266 -81.9954 140.323 -71.0039 90.5074C-70.2462 87.0835 -68.8554 84.3358 -67.7656 81.2923C-67.475 85.1812 -67.1221 89.049 -66.9145 92.959C-66.79 95.305 -66.8938 97.7145 -66.8938 100.082H-66.9041ZM-515.906 174.224C-515.916 174.457 -515.927 174.689 -515.937 174.943C-522.445 173.654 -528.953 172.259 -535.471 171.096C-553.852 167.841 -553.78 167.863 -556.509 129.481C-557.796 111.347 -559.924 93.4241 -560.754 75.2054C-561.979 48.3002 -554.755 30.9269 -545.123 17.4215C-542.518 13.7651 -539.56 11.3557 -536.758 8.35446C-537.038 14.7796 -537.246 21.2047 -537.63 27.6087C-537.765 29.8913 -538.709 32.1105 -538.657 34.2874C-538.574 37.9649 -537.993 41.6002 -537.609 45.2355C-536.478 43.0797 -534.983 41.3466 -534.267 38.6624C-531.278 27.3339 -529.264 14.3568 -525.434 4.71913C-522.995 -1.41011 -518.003 -2.72044 -514.152 -6.18663C-513.114 0.0271449 -511.651 6.05072 -511.101 12.4547C-507.198 57.7477 -503.731 103.252 -499.6 148.439C-497.867 167.334 -499.549 173.717 -508.537 174.182C-510.986 174.309 -513.446 174.182 -515.906 174.182V174.224ZM-411.014 185.933C-412.737 191.407 -413.755 194.937 -414.907 198.255C-424.435 225.773 -433.215 254.75 -443.688 280.472C-464.498 331.577 -486.201 380.949 -507.644 430.828C-508.962 433.893 -511.184 435.14 -512.979 437.253C-512.626 433.301 -512.471 429.222 -511.879 425.46C-503.098 369.789 -494.307 314.119 -485.402 258.554C-480.617 228.69 -480.067 228.457 -468.017 245.915C-466.937 247.479 -465.702 248.515 -464.54 249.783C-465.266 247.014 -466.055 244.288 -466.719 241.435C-467.996 236.003 -474.504 230.127 -467.778 224.632C-450.393 210.429 -432.696 198.044 -415.093 185.151C-414.087 184.411 -412.789 185.574 -411.014 185.976V185.933ZM-504.281 20.317C-502.88 -21.0025 -504.25 -13.7531 -488.298 -26.4131C-482.911 -30.6825 -477.638 -35.7127 -472.251 -40.0243C-469.044 -42.5816 -465.723 -44.4415 -462.453 -46.6185C-463.564 -40.1088 -464.727 -33.6202 -465.764 -27.0472C-466.19 -24.3841 -466.346 -21.5309 -466.626 -18.7622C-465.515 -20.6009 -464.125 -21.9959 -463.336 -24.3631C-459.547 -35.8395 -456.018 -47.7175 -452.157 -59.0672C-451.503 -60.9905 -449.708 -61.0751 -448.452 -62.005C-448.12 -59.4477 -447.238 -56.5098 -447.549 -54.3963C-452.24 -23.0103 -455.479 10.0664 -462.319 39.0852C-469.875 71.1051 -480.752 99.4053 -490.228 129.269C-491.121 132.08 -492.294 134.49 -493.331 137.09C-494.307 133.877 -495.895 130.876 -496.165 127.41C-498.988 91.7543 -501.604 56.0357 -504.271 20.317H-504.281ZM257.06 1.23188C276.843 11.1021 296.875 19.8943 316.543 31.5398C323.964 35.936 330.669 46.546 337.405 55.3805C338.412 56.712 338.433 67.3008 337.862 67.7869C326.331 77.6571 314 96.9747 303.123 93.741C278.898 86.5339 253.718 73.5146 244.263 12.032C243.889 9.58029 243.837 6.87501 243.64 4.27537C244.418 5.79711 245.238 7.23429 245.965 8.88285C250.013 18.2035 249.816 18.0133 252.078 8.05854C252.711 5.28981 254.839 4.12737 257.071 1.18957L257.06 1.23188ZM-406.603 103.062C-407.081 103.273 -407.558 103.484 -408.046 103.675C-408.046 110.797 -408.326 117.983 -407.984 125.021C-407.278 139.457 -409.925 147.002 -416.598 149.602C-429.199 154.526 -441.706 160.613 -454.275 165.812C-455.987 166.531 -457.897 165.009 -459.713 164.523C-459.226 160.719 -459.039 156.555 -458.198 153.173C-451.192 125 -444.165 96.8691 -436.942 68.9705C-431.596 48.3213 -426.033 27.9468 -420.356 7.7203C-419.505 4.69795 -417.46 3.28201 -415.965 1.10507C-415.415 4.27537 -414.637 7.36103 -414.357 10.6581C-411.731 41.4311 -409.177 72.2465 -406.614 103.062H-406.603ZM-488.443 -172.522C-488.806 -174.72 -490.768 -180.299 -490.311 -184.653C-488.173 -204.88 -484.976 -222.189 -477.68 -239.182C-466.719 -264.671 -459.796 -298.34 -451.036 -328.373C-449.967 -332.03 -448.193 -334.714 -446.739 -337.842C-446.21 -332.389 -445.349 -326.957 -445.214 -321.462C-444.819 -304.554 -444.736 -287.624 -444.404 -270.695C-444.383 -269.723 -443.366 -268.56 -442.712 -267.99C-436.807 -262.896 -434.814 -245.65 -439.287 -234.786C-444.01 -223.31 -449.749 -213.672 -454.046 -201.54C-462.173 -178.608 -472.978 -171.148 -488.453 -172.522H-488.443ZM161.167 173.506C159.953 166.446 159.112 161.733 158.323 156.978C149.117 100.821 153.331 43.0798 154.244 -14.218C154.286 -16.5852 158.23 -21.552 158.894 -20.5586C166.315 -9.69507 174.868 -0.268734 180.099 14.5682C182.901 22.5363 179.673 40.2475 179.528 53.5628C179.435 61.5097 180.13 69.4777 180.306 77.4668C180.421 82.497 180.929 88.2248 180.057 92.4729C175.169 116.335 169.958 139.879 164.758 163.424C164.115 166.341 162.911 168.666 161.157 173.506H161.167ZM-439.09 -156.902C-439.453 -108.439 -448.442 -78.7653 -466.273 -62.2587C-474.296 -54.8402 -482.381 -47.6964 -490.581 -41.2078C-493.965 -38.5237 -497.701 -37.9319 -501.282 -36.3891C-500.773 -47.316 -500.483 -58.3063 -499.632 -69.0853C-499.403 -71.9597 -497.535 -74.3268 -496.331 -76.7151C-486.284 -96.7303 -476.652 -117.929 -465.982 -136.211C-459.828 -146.758 -452.085 -153.14 -444.788 -160.136C-443.2 -161.658 -440.512 -157.79 -439.1 -156.902H-439.09ZM139.018 145.734C138.468 150.024 137.741 155.773 137.015 161.522C135.292 156.576 133.548 151.673 131.867 146.685C131.556 145.776 131.472 144.487 131.306 143.346C123.449 87.6964 115.364 32.1739 107.943 -23.7501C106.604 -33.8527 107.85 -45.6463 108.109 -56.6156C108.171 -59.4054 109.033 -62.1107 109.521 -64.8583C110.455 -62.5122 111.378 -60.1452 112.323 -57.7991C113.008 -56.1083 113.714 -54.4808 114.409 -52.8323C114.482 -55.0303 114.16 -58.1373 114.7 -59.2575C116.08 -62.0896 117.98 -66.2954 119.433 -65.8939C126.075 -64.0762 129.231 -54.037 129.916 -40.3414C132.977 21.0144 135.936 82.3914 139.028 145.734H139.018ZM194.308 -122.05C194.681 -102.078 193.426 -94.025 186.212 -103.853C177.66 -115.498 168.505 -125.242 160.368 -138.092C156.943 -143.503 154.089 -154.282 153.393 -163.476C151.286 -191.543 150.311 -220.013 149.044 -248.355C148.878 -252.138 149.584 -256.112 149.885 -260.001C151.888 -258.669 154.452 -258.563 155.749 -255.71C157.545 -251.737 158.624 -245.924 159.569 -240.535C161.883 -227.22 163.824 -213.63 166.191 -200.357C166.647 -197.799 168.329 -196.278 169.45 -194.27C169.772 -196.933 170.498 -199.701 170.353 -202.238C169.803 -212.235 168.91 -222.147 168.287 -232.144C168.1 -235.188 168.37 -238.358 168.422 -241.465C169.18 -239.119 170.104 -236.963 170.654 -234.427C177.245 -204.415 183.846 -174.424 190.281 -144.264C192.201 -135.239 193.633 -125.728 194.297 -122.029L194.308 -122.05ZM91.1288 -79.3149C90.7863 -71.9175 90.8174 -69.508 90.5475 -67.2254C87.33 -39.2423 59.3063 -8.82854 46.9343 -20.7066C45.201 -22.3763 43.4885 -30.8727 43.8933 -35.3111C46.2389 -61.4978 49.3008 -87.3885 51.9475 -113.448C53.0269 -124.1 54.6772 -129.828 60.2196 -123.319C68.3776 -113.723 76.9924 -105.882 84.9532 -95.5889C88.0046 -91.6578 89.7795 -83.0347 91.1392 -79.2937L91.1288 -79.3149ZM13.4616 -1.2622C14.1777 -1.9174 14.8939 -2.59373 15.6101 -3.24893C15.6101 -8.59616 15.2675 -14.0913 15.7865 -19.1849C15.9941 -21.1716 18.5785 -24.1728 19.3465 -23.3696C27.0064 -15.3594 28.5633 -1.85388 24.8268 15.4982C23.8304 20.1268 24.6295 26.5942 24.6088 32.2373C27.2658 30.1027 31.2514 29.6377 32.3309 25.5375C36.1712 10.9541 39.8765 15.6672 42.7412 25.3472C52.4768 58.276 62.0464 91.5008 70.9413 125.529C72.2387 130.474 69.8411 140.661 68.3569 147.636C68.1389 148.693 63.1673 146.706 61.0499 143.832C43.6337 120.202 31.4175 86.8087 23.1453 46.2289C19.9174 30.3986 16.6895 14.5893 13.4616 -1.24105V-1.2622ZM125.722 279.436C125.006 282.226 124.695 284.762 123.948 286.178C117.357 298.606 110.839 311.287 103.874 322.679C102.816 324.412 98.4668 321.368 97.5431 318.029C86.51 278.379 75.7365 238.391 65.2639 198.023C64.3194 194.366 65.9593 187.54 66.3952 182.192C68.2842 183.397 70.5469 183.545 71.9896 185.976C88.3368 213.768 104.559 241.878 120.803 269.967C122.463 272.842 123.999 276.075 125.733 279.436H125.722ZM57.7909 220.024C59.2544 224.252 60.8216 228.225 62.1086 232.579C69.3429 257.117 76.3489 281.972 83.7492 306.257C94.6265 341.996 94.5954 341.722 75.4251 355.777C68.8655 360.574 65.3885 357.32 62.5965 343.73C58.2476 322.573 53.1618 302.114 48.4185 281.317C44.5679 264.43 48.1072 234.249 55.1962 223.216C55.8397 222.223 56.5766 221.504 57.7909 220.003V220.024ZM134.804 215.607C133.393 227.739 132.469 233.974 131.971 240.378C130.601 257.983 127.694 257.836 122.775 245.239C113.423 221.335 103.625 198.234 94.3671 174.161C89.4889 161.48 84.5588 148.312 81.2686 133.644C79.8259 127.198 82.4206 116.44 83.1887 107.627C85.9807 109.783 89.1982 110.67 91.492 114.327C100.501 128.657 110.278 141.739 117.741 159.366C125.037 176.613 129.864 198.847 134.804 215.607ZM54.2412 207.301C51.3766 217.171 48.3044 226.915 45.6473 237.165C42.5647 249.064 40.8003 246.613 38.4442 235.813C29.1756 193.542 19.6579 151.525 10.2233 109.402C6.76704 93.9524 3.24854 78.5448 -0.124685 62.9892C-0.664401 60.5163 -0.612561 57.4095 -0.830523 54.5985C0.124359 54.5985 1.4529 53.7107 1.97186 54.7464C11.3754 73.4511 22.0867 90.1058 29.6323 111.917C38.4027 137.259 44.4018 167.144 51.5635 195.106C52.4768 198.657 53.1826 202.461 54.2412 207.301ZM55.8604 -8.1522C68.1908 -6.56705 77.9576 -19.3117 86.6865 -36.2623C91.409 -45.435 92.9244 -43.3425 94.5124 -30.767C99.0065 4.76144 89.987 33.8859 85.3372 65.0182C85.14 66.3075 80.5628 66.9627 79.2758 64.6378C70.2252 48.4059 61.4132 31.4976 52.7051 14.3991C49.3734 7.86832 46.4984 0.217285 43.4158 -6.92645C47.5674 -7.32802 51.7191 -7.75063 55.8708 -8.1522H55.8604ZM-322.511 12.3701C-325.812 32.2161 -328.251 55.4227 -333.534 74.994C-336.056 84.3358 -343.975 86.7664 -349.445 92.325C-352.123 75.9663 -358.444 57.3884 -356.69 43.7561C-353.472 18.7319 -345.75 -3.75607 -339.253 -26.392C-337.883 -31.1686 -333.69 -34.0218 -330.784 -34.0429C-329.299 -34.0429 -327.224 -26.2652 -326.435 -21.2561C-324.857 -11.1957 -323.975 -0.606961 -322.511 12.3913V12.3701ZM-159.652 174.161C-158.988 152.603 -163.949 127.093 -152.21 111.6C-150.477 109.318 -148.495 107.902 -146.626 106.084C-145.786 110.227 -144.343 114.285 -144.198 118.533C-143.554 137.449 -143.284 156.428 -142.869 175.387C-142.028 213.895 -141.146 252.404 -140.409 290.933C-140.347 293.914 -141.25 296.999 -141.696 300.043C-142.361 298.31 -143.274 296.788 -143.648 294.78C-150.965 255.87 -165.247 221.462 -159.663 174.161H-159.652ZM-164.977 81.546C-162.486 101.836 -167.364 112.784 -178.065 113.946C-179.684 114.115 -181.438 116.694 -182.85 115.849C-186.96 113.418 -193 112.171 -194.443 106.126C-196.54 97.334 -196.851 83.3848 -195.149 74.0219C-190.426 47.962 -177.857 32.3852 -174.308 3.91597C-173.799 -0.142005 -171.069 -2.86843 -169.377 -6.22895C-168.63 -1.28329 -167.416 3.5779 -167.219 8.62923C-166.347 31.7301 -165.766 54.8733 -164.977 81.546ZM-549.047 -4.24222C-548.621 -11.5339 -548.943 -17.4306 -547.915 -21.7845C-533.302 -83.4996 -518.522 -145.046 -503.711 -206.528C-503.14 -208.895 -501.905 -210.523 -500.981 -212.509C-500.97 -209.233 -500.586 -205.725 -501.002 -202.724C-506.731 -160.601 -510.748 -116.724 -519.041 -77.0956C-524.5 -50.9723 -536.145 -30.9784 -545.071 -8.34248C-545.549 -7.11663 -546.514 -6.79959 -549.067 -4.24222H-549.047ZM-145.495 39.5712C-144.654 40.4166 -143.803 41.2621 -142.963 42.1075C-146.128 58.7198 -149.003 75.6281 -152.667 91.691C-153.591 95.7489 -157.037 97.0593 -159.32 99.6378C-160.088 94.8613 -161.365 90.1691 -161.541 85.2657C-162.506 58.6987 -162.257 31.7511 -164.271 5.60677C-166.243 -19.9247 -162.59 -39.6862 -155.283 -57.778C-154.037 -60.8637 -151.826 -62.0684 -150.062 -64.1608C-149.159 -60.1451 -147.093 -55.2839 -147.561 -52.2827C-149.47 -40.1511 -149.273 -29.9216 -147.467 -16.8811C-145.018 0.766886 -145.993 20.6551 -145.505 39.5712H-145.495ZM-375.321 21.4583C-374.916 57.5573 -378.528 90.8878 -389.519 119.019C-390.692 122.02 -392.135 124.556 -393.453 127.304C-394.47 123.5 -396.017 119.949 -396.432 115.849C-398.113 99.0672 -399.639 82.2012 -400.895 65.2295C-404.008 22.9378 -403.936 22.8955 -385.907 6.28312C-376.275 -2.61485 -374.978 -0.776091 -375.331 21.4583H-375.321ZM-41.8282 164.883C-39.6797 154.209 -37.3651 142.225 -34.8429 130.453C-34.1994 127.452 -32.8917 125.127 -31.8953 122.506C-30.93 125.761 -29.6015 128.741 -29.0514 132.292C-20.8727 185.236 -12.7873 238.222 -4.74342 291.272C-4.26598 294.442 -4.34901 297.993 -4.16219 301.374C-5.4492 299.557 -7.23444 298.373 -7.9506 295.816C-18.7968 256.948 -29.5288 217.932 -40.1675 178.789C-41.0912 175.366 -41.1431 170.822 -41.8178 164.904L-41.8282 164.883ZM-262.146 48.2579C-263.049 64.046 -264.108 84.0822 -265.436 104.055C-265.686 107.733 -267.326 114.306 -267.824 114.073C-273.615 111.558 -279.76 109.804 -284.825 103.886C-287.202 101.117 -288.81 89.366 -288.395 82.3491C-287.503 67.1739 -286.475 50.5193 -282.884 38.0284C-279.262 25.4106 -272.494 17.0622 -267.097 6.85381C-265.447 18.6262 -263.797 30.4196 -262.157 42.192C-262.084 42.7415 -262.157 43.3757 -262.157 48.2579H-262.146ZM46.1663 -112.751C43.8829 -90.897 41.6929 -69.0007 39.2019 -47.2525C38.8074 -43.8497 37.043 -41.2079 35.9013 -38.2067C35.0502 -41.1233 34.0019 -43.8709 33.3896 -47.0201C29.3728 -67.6904 24.4323 -87.8958 21.8687 -109.412C20.1665 -123.72 21.6507 -140.037 22.3254 -155.317C22.4291 -157.706 26.1553 -161.89 27.7121 -161.024C40.0841 -154.218 45.0246 -139.846 46.1559 -112.751H46.1663ZM106.49 379.723C106.293 380.97 106.116 382.745 105.753 384.288C101.02 404.303 96.3391 424.382 91.3156 444.017C91.0146 445.221 86.8422 444.333 86.2713 442.178C82.4622 427.763 79.3899 412.419 75.6015 397.963C67.2671 366.175 68.9796 368.141 81.6318 359.01C83.9567 357.341 86.1364 354.741 88.3679 352.501C95.2285 345.653 106.718 362.582 106.479 379.702L106.49 379.723ZM153.642 -119.345C154.265 -120.212 157.337 -126.848 158.406 -125.58C168.91 -113.047 179.331 -99.964 189.149 -85.0848C191.163 -82.0413 191.236 -70.7128 190.935 -63.4422C190.748 -58.877 188.464 -51.6698 186.679 -50.9723C169.855 -44.3359 154.442 -73.566 153.642 -119.366V-119.345ZM-376.888 203.011C-373.919 180.628 -379.182 145.353 -361.329 133.412C-358.039 131.214 -354.49 130.791 -351.054 129.544C-350.784 140.048 -348.636 152.814 -350.618 160.634C-356.109 182.34 -363.25 202.102 -369.923 222.328C-371.096 225.879 -373.193 228.014 -374.864 230.782C-375.538 226.027 -376.338 221.314 -376.825 216.474C-377.106 213.642 -376.877 210.556 -376.877 203.032L-376.888 203.011ZM82.8565 -213.799C81.5592 -210.967 79.4522 -204.288 76.5357 -200.589C73.069 -196.172 68.9173 -194.375 65.0771 -191.374C60.1262 -187.485 58.3306 -191.036 58.1023 -202.618C57.5522 -230.369 56.3794 -258.077 55.5698 -285.807C55.4764 -288.935 56.0784 -292.168 56.3586 -295.36C57.6975 -293.606 59.0883 -291.999 60.365 -290.055C69.4467 -276.232 71.3772 -254.611 73.4842 -233.138C73.6918 -231.003 74.1069 -228.974 74.4287 -226.882C74.9476 -228.594 75.643 -230.179 75.9752 -232.06C77.0027 -237.935 77.9057 -243.938 78.8502 -249.877C79.8155 -243.409 80.8742 -237.005 81.7253 -230.453C82.1612 -227.072 82.2234 -223.436 82.8669 -213.778L82.8565 -213.799ZM271.373 -183.364C270.024 -183.702 268.934 -183.258 268.332 -184.23C262.437 -193.699 254.964 -201.012 251.092 -213.545C240.786 -246.939 231.891 -282.425 222.84 -317.594C221.74 -321.842 223.172 -329.176 223.421 -335.073C225.715 -332.452 228.922 -331.121 230.147 -326.999C243.121 -283.144 255.784 -238.844 268.519 -194.65C269.38 -191.649 270.096 -188.415 271.373 -183.364ZM169.377 271.7C168.37 261.196 167.353 251.347 166.523 241.435C166.326 239.046 166.72 236.447 166.834 233.932C167.447 235.791 168.246 237.461 168.63 239.511C175.605 276.266 182.538 313.041 189.44 349.859C189.71 351.317 189.596 353.135 189.658 354.783C188.641 353.388 187.375 352.437 186.638 350.514C178.604 329.548 170.54 308.645 162.734 287.298C158.334 275.251 152.978 263.436 150.819 249.487C149.636 241.815 154.182 229.958 156.144 219.982C158.188 225.773 160.929 230.973 162.112 237.503C164.105 248.473 165.039 260.33 166.585 271.7C166.814 273.412 167.934 274.554 168.64 275.97C168.91 274.406 169.18 272.842 169.377 271.7ZM-391.751 894.854C-392.633 892.613 -393.474 891.472 -393.536 890.162C-394.439 870.485 -398.611 847.489 -395.373 831.744C-387.641 794.038 -376.4 759.736 -366.561 724.08C-366.156 722.622 -365.523 721.481 -365.004 720.192C-364.921 722.178 -364.526 724.397 -364.786 726.131C-373.079 779.624 -381.423 833.054 -389.799 886.484C-390.215 889.105 -390.952 891.493 -391.74 894.875L-391.751 894.854ZM-294.685 205.695H-294.156C-294.156 195.571 -294.446 185.405 -294.073 175.366C-293.678 164.819 -292.64 154.399 -291.883 143.916C-287.575 146.135 -283.206 147.869 -279.002 150.785C-276.895 152.244 -273.283 157.274 -273.449 158.309C-278.172 187.455 -283.216 216.347 -288.457 245.07C-288.893 247.479 -291.208 250.015 -292.381 249.508C-293.346 249.086 -294.508 244.33 -294.571 241.392C-294.82 229.514 -294.675 217.594 -294.675 205.695H-294.685ZM-136.787 4.04278C-136.963 4.04278 -137.14 4.04278 -137.327 4.04278C-137.327 -7.83526 -137.472 -19.7132 -137.233 -31.5702C-137.171 -34.8039 -135.905 -37.9107 -135.199 -41.0599C-128.172 -30.9783 -121.094 -21.0448 -114.233 -10.4772C-113.724 -9.69516 -114.295 -3.58707 -115.105 -1.11424C-120.191 14.3145 -125.432 29.5109 -130.777 44.5169C-131.68 47.032 -133.341 48.2791 -134.649 50.0967C-135.365 46.6094 -136.621 43.1854 -136.704 39.6347C-136.963 27.7778 -136.808 15.8997 -136.808 4.02162L-136.787 4.04278ZM-469.947 211.697C-470.591 210.049 -472.179 206.561 -472.044 206.202C-468.536 197.029 -465.505 182.784 -461.083 180.248C-445.556 171.308 -429.541 166.341 -413.682 160.127C-412.26 159.578 -410.682 160.803 -409.177 161.205C-410.226 164.164 -410.994 168.75 -412.353 169.828C-424.424 179.381 -436.568 188.47 -448.743 197.367C-455.468 202.292 -462.308 206.561 -469.947 211.697ZM-456.579 87.2948C-457.15 86.7664 -457.721 86.2169 -458.291 85.6885C-457.586 80.7428 -457.191 75.459 -456.122 70.9361C-446.511 30.3986 -436.817 -10.0122 -427.019 -50.3383C-426.407 -52.8746 -424.819 -54.3117 -423.698 -56.2562C-422.66 -51.8812 -420.304 -46.555 -420.802 -43.2791C-424.009 -22.1226 -426.562 0.301867 -431.814 19.0066C-438.146 41.558 -446.947 60.8333 -454.669 81.5671C-455.354 83.4058 -455.946 85.3926 -456.589 87.3159L-456.579 87.2948ZM98.7367 21.2469C99.5774 25.0936 100.138 27.038 100.449 29.1515C104.518 56.8388 108.576 84.5261 112.531 112.298C112.873 114.686 112.416 117.603 112.333 120.266C111.109 119.315 109.749 118.786 108.669 117.328C88.4405 89.979 86.4893 75.9239 96.4844 29.9124C97.0137 27.4818 97.7092 25.1993 98.7367 21.2681V21.2469ZM-164.188 -103.642C-166.43 -113.195 -167.769 -116.45 -167.935 -119.979C-169.045 -144.137 -169.948 -168.358 -170.779 -192.579C-170.862 -195.094 -170.052 -197.757 -169.658 -200.357C-168.267 -198.919 -166.233 -198.285 -165.579 -195.897C-161.292 -180.172 -154.992 -164.723 -154.006 -147.878C-153.29 -135.725 -159.766 -121.585 -164.198 -103.642H-164.188ZM205.248 -14.3238C218.284 -13.5418 228.85 7.46675 229.815 30.9058C229.867 32.1105 226.992 35.8092 226.12 35.0061C218.595 28.1371 211.008 21.2893 203.94 12.5604C202.051 10.2355 200.878 1.10501 201.21 -4.36903C201.49 -8.87085 204.49 -12.5696 205.258 -14.3238H205.248ZM-214.558 72.183C-219.82 97.1226 -225.155 122.506 -230.604 147.784C-230.936 149.327 -232.171 149.919 -232.991 150.954C-233.199 148.693 -233.739 146.305 -233.562 144.212C-230.926 113.439 -228.258 82.6662 -225.29 52.0411C-225.145 50.5828 -221.149 48.6595 -220.682 49.9487C-218.564 55.7609 -217.08 62.6721 -214.568 72.183H-214.558ZM104.829 558.866C102.67 559.521 101.269 560.895 100.159 560.134C95.7475 557.175 91.1807 554.554 87.1743 549.799C84.5069 546.628 80.459 538.724 80.8949 535.279C82.4622 523.063 85.6693 511.84 88.3887 500.384C88.4509 500.131 90.5787 501.103 90.9212 502.477C95.3738 520.061 99.6708 537.836 104.808 558.845L104.829 558.866ZM-369.425 -145.933C-372.383 -137.796 -376.12 -126.573 -380.375 -116.323C-381.901 -112.645 -384.662 -111.377 -386.862 -108.989C-387.62 -115.012 -389.55 -121.754 -388.886 -126.911C-387.589 -137.014 -385.44 -147.244 -382.534 -155.571C-379.555 -164.131 -375.248 -170.514 -371.522 -177.826C-370.93 -168.759 -370.328 -159.671 -369.425 -145.912V-145.933ZM-41.9008 -11.1324C-40.4581 -9.67402 -39.9806 -9.08216 -39.4721 -8.68059C-24.4119 3.13405 -20.9972 20.1902 -27.4738 51.1323C-28.0343 53.8165 -28.3975 56.7966 -29.1344 59.2272C-29.7883 61.4041 -30.8366 63.0315 -31.7085 64.8914C-32.269 62.9892 -33.0681 61.2349 -33.3691 59.1425C-36.2649 38.7681 -39.1088 18.3726 -41.8593 -2.08638C-42.2018 -4.60148 -41.9008 -7.53939 -41.9008 -11.1747V-11.1324ZM-199.155 152.222C-199.84 151.314 -197.567 152.772 -196.747 156.006C-196.218 158.077 -197.391 164.629 -198.553 165.897C-207.677 175.852 -216.966 185.088 -226.255 194.324C-227.054 195.127 -228.206 194.261 -229.203 194.176C-228.881 191.999 -228.59 189.78 -228.217 187.624C-223.629 161.374 -214.247 151.335 -199.155 152.244V152.222ZM85.8873 -155.148C85.7212 -153.331 85.2853 -148.829 84.8597 -144.327C82.7009 -145.933 80.2618 -146.631 78.435 -149.294C73.9305 -155.846 69.5193 -162.82 65.5337 -170.725C64.7034 -172.374 65.212 -181.356 66.2292 -182.603C81.0506 -200.822 83.8011 -197.672 85.607 -161.51C85.6693 -160.348 85.7109 -159.164 85.8873 -155.127V-155.148ZM-34.6665 -99.0975C-33.8154 -103.726 -32.8086 -110.532 -31.2621 -116.703C-30.93 -118.035 -27.7229 -118.183 -27.4011 -116.957C-22.5333 -98.4634 -17.873 -79.6952 -13.3685 -60.758C-12.9948 -59.194 -13.9809 -53.9524 -14.4687 -53.8679C-22.0558 -52.4307 -35.0194 -80.2659 -34.6769 -99.0975H-34.6665ZM-3.02051 -14.197C-2.07601 -12.8021 -1.45328 -12.3793 -1.22494 -11.4916C4.95066 13.0042 11.0951 37.5212 17.2084 62.1015C17.416 62.9258 17.1981 64.2361 17.1773 65.3352C16.4923 64.7434 15.662 64.4897 15.143 63.4752C7.8257 49.1878 0.0205823 35.788 -6.39373 19.7675C-8.1997 15.2656 -6.05123 2.88044 -5.36621 -5.7639C-5.12748 -8.76512 -3.84045 -11.3649 -3.01012 -14.197H-3.02051ZM-29.6534 -170.028C-33.6597 -171.401 -38.6521 -210.586 -35.8498 -218.681C-31.3141 -231.785 -22.6578 -231.468 -22.3465 -217.455C-22.004 -202.195 -26.0518 -186.471 -28.2626 -171C-28.3456 -170.408 -29.1656 -170.302 -29.6534 -170.028ZM-385.17 -19.2905C-391.813 -25.927 -397.47 -31.5701 -403.116 -37.2132C-398.943 -47.802 -394.771 -58.412 -390.599 -69.0008C-387.433 -56.5733 -384.07 -44.3359 -381.309 -31.4857C-380.905 -29.6258 -383.344 -24.8703 -385.17 -19.2905ZM147.145 -178.778C146.74 -174.72 146.045 -167.83 145.349 -160.939C142.173 -168.294 138.945 -175.586 135.873 -183.131C135.448 -184.167 135.552 -186.661 135.707 -188.331C137.181 -203.781 138.645 -219.231 140.316 -234.596C140.575 -236.984 141.852 -238.844 142.651 -240.958C143.18 -238.337 144.021 -235.822 144.187 -233.116C145.204 -216.102 146.055 -199.046 147.145 -178.778ZM-298.318 302.283C-303.331 330.562 -308.282 358.566 -313.305 386.486C-313.523 387.733 -314.436 388.388 -315.018 389.318C-315.132 387.628 -315.464 385.873 -315.339 384.267C-313.025 355.777 -310.845 327.202 -308.084 298.923C-307.69 294.844 -304.4 292.117 -302.449 288.757C-301.276 292.624 -300.092 296.471 -298.318 302.283ZM-317.685 89.0279C-318.09 94.1638 -318.017 95.5587 -318.297 96.4464C-324.691 116.842 -331.095 137.238 -337.623 157.443C-338.059 158.796 -339.481 158.626 -340.447 159.176C-340.654 155.942 -341.443 152.201 -340.955 149.581C-339.004 139.224 -337.032 128.72 -334.333 119.251C-331.157 108.092 -327.421 97.6088 -323.446 87.7387C-322.719 85.921 -319.709 88.4784 -317.685 89.0279ZM130.653 -255.858C131.047 -255.604 131.441 -255.351 131.825 -255.097C130.082 -238.633 128.473 -222.084 126.48 -205.767C126.075 -202.47 124.217 -200.04 123.024 -197.208C122.287 -200.737 120.813 -204.394 120.938 -207.754C121.924 -233.666 123.169 -259.514 124.487 -285.363C124.612 -287.857 125.816 -290.097 126.522 -292.443C127.622 -290.266 129.542 -288.322 129.687 -285.87C130.3 -275.958 130.372 -265.876 130.642 -255.858H130.653ZM172.771 334.261C172.065 334.641 171.277 335.55 171.027 335.106C160.358 315.07 149.646 295.139 139.361 274.215C138.696 272.863 141.416 263.648 142.557 258.089C143.844 261.09 145.215 263.944 146.408 267.114C147.238 269.312 147.674 272.229 148.546 274.342C156.216 293.026 163.938 311.604 171.629 330.245C171.982 331.112 172.2 332.232 172.771 334.282V334.261ZM-32.6841 -142.044C-34.9779 -132.217 -36.5348 -125.517 -38.102 -118.838C-39.1814 -120.212 -40.7591 -120.994 -41.2469 -123.044C-45.0146 -138.853 -48.7199 -154.747 -52.0516 -170.979C-52.6328 -173.79 -51.7195 -178.841 -50.8372 -181.948C-50.3909 -183.512 -47.7027 -184.4 -47.3083 -183.343C-42.2848 -169.774 -37.5001 -155.803 -32.6841 -142.023V-142.044ZM-369.955 -106.474C-370.878 -85.8034 -371.605 -68.1343 -372.508 -50.5286C-372.643 -47.8655 -373.546 -45.3927 -374.096 -42.8353C-374.646 -44.04 -375.269 -45.1178 -375.736 -46.4494C-382.866 -67.014 -383.25 -90.3474 -376.628 -108.989C-375.009 -113.554 -372.996 -117.464 -371.158 -121.691C-370.691 -115.689 -370.214 -109.686 -369.965 -106.495L-369.955 -106.474ZM90.0908 -362.232C94.3878 -347.564 98.5706 -338.582 99.8161 -327.972C103.241 -298.763 105.452 -268.856 108.088 -239.203C108.265 -237.174 107.984 -234.955 107.912 -232.821C107.486 -234.258 106.895 -235.589 106.646 -237.174C100.833 -274.816 95.0417 -312.458 89.3228 -350.164C89.0633 -351.876 89.5407 -354.137 90.0805 -362.232H90.0908ZM-53.7745 8.84054C-53.0168 7.91058 -52.2591 6.95946 -51.5015 6.0295C-51.2627 0.19616 -51.1694 -5.67945 -50.7127 -11.4071C-50.5674 -13.267 -49.4776 -14.7888 -48.8237 -16.4585C-48.2217 -14.7254 -47.3083 -13.1825 -47.0696 -11.238C-43.904 14.4203 -40.8006 40.1207 -37.7803 65.8635C-37.5415 67.8925 -38.0086 70.302 -38.1539 72.5212C-39.1711 70.9149 -40.6449 69.7736 -41.1223 67.5967C-45.44 48.1099 -49.5917 28.4541 -53.7849 8.84054H-53.7745ZM-163.42 174.055C-163.264 174.076 -163.119 174.119 -162.963 174.14C-163.43 183.82 -163.897 193.5 -164.364 203.18C-166.98 195.254 -169.595 187.349 -172.19 179.402C-172.813 177.479 -173.664 175.577 -173.882 173.4C-174.546 166.785 -176.415 157.844 -175.138 153.829C-173.021 147.15 -168.817 143.62 -165.496 138.759C-164.8 146.389 -163.991 153.998 -163.472 161.691C-163.191 165.728 -163.42 169.934 -163.42 174.055ZM220.827 -275.049C220.827 -279.17 220.733 -283.313 220.868 -287.413C220.941 -289.611 221.377 -291.746 221.657 -293.902C222.498 -292.803 223.639 -292.168 224.127 -290.562C229.991 -271.456 235.793 -252.265 241.46 -232.884C241.772 -231.806 240.588 -226.924 240.277 -227.008C233.012 -228.889 220.66 -259.514 220.827 -275.028V-275.049ZM-172.865 -145.363C-173.104 -140.945 -173.498 -133.802 -173.892 -126.679C-176.767 -131.921 -181.563 -136.359 -182.113 -142.573C-183.171 -154.599 -182.227 -167.766 -181.303 -180.194C-180.981 -184.548 -178.324 -188.077 -176.726 -192.008C-175.916 -187.401 -174.712 -182.941 -174.38 -178.186C-173.674 -168.273 -173.425 -158.234 -172.865 -145.363ZM45.9795 -217.814C45.7926 -215.997 45.4605 -212.742 45.1388 -209.466C43.5196 -211.178 41.5579 -212.108 40.3228 -214.708C34.3237 -227.368 34.2199 -266.362 40.0011 -283.545C40.354 -284.602 41.0493 -285.13 41.589 -285.912C41.9938 -283.757 42.6477 -281.664 42.7723 -279.445C43.8621 -259.472 44.8689 -239.457 45.9795 -217.814ZM-204.947 30.5254C-204.781 27.2917 -204.718 25.2415 -204.563 23.2125C-202.726 0.386388 -200.899 -22.4398 -198.989 -45.2448C-198.813 -47.4006 -198.086 -49.3238 -197.619 -51.3739C-196.758 -49.4929 -195.689 -47.8655 -195.066 -45.6463C-189.793 -26.688 -194.101 12.7506 -203.006 27.6299C-203.411 28.3062 -203.847 28.898 -204.936 30.5254H-204.947ZM76.1828 144.445C77.4283 146.791 78.3313 148.08 78.9851 149.834C86.4996 170.061 93.983 190.329 101.446 210.64C101.923 211.93 102.151 213.663 102.494 215.185C101.56 214.72 100.387 214.889 99.7227 213.705C91.1287 198.297 82.4725 182.995 74.19 166.827C72.9237 164.354 73.0587 157.464 73.2974 152.793C73.4427 150.003 75.0307 147.573 76.1724 144.445H76.1828ZM34.1472 -315.037C33.0263 -303.666 32.3828 -294.832 31.2307 -286.293C30.5041 -280.925 29.0303 -276.063 27.8886 -270.97C27.1309 -276.761 25.8854 -282.488 25.7194 -288.364C25.3976 -299.946 27.2451 -313.769 18.1322 -312.501C17.7586 -312.458 17.0943 -322.117 16.5753 -327.253C21.5988 -325.626 26.6639 -324.463 31.594 -322.011C32.8395 -321.399 33.6282 -316.537 34.1368 -315.058L34.1472 -315.037ZM-16.1813 -158.044C-15.4755 -158.615 -14.7697 -159.164 -14.0535 -159.735C-14.0535 -167.407 -14.2092 -175.079 -13.9809 -182.709C-13.8875 -185.837 -12.9637 -188.859 -12.424 -191.924C-11.5003 -189.387 -9.96415 -187.063 -9.75656 -184.273C-8.04401 -162.229 -6.54944 -140.121 -5.11712 -117.992C-5.00295 -116.175 -5.75018 -114.082 -6.09269 -112.117C-6.97492 -113.216 -8.36578 -113.892 -8.67716 -115.52C-11.2927 -129.596 -13.7214 -143.841 -16.202 -158.044H-16.1813ZM-245.944 60.2416C-244.554 47.9831 -242.644 30.2928 -240.475 12.7505C-240.122 9.91838 -238.638 7.76267 -237.672 5.31098C-237.029 8.3756 -235.659 11.6938 -235.866 14.4836C-237.184 32.4909 -238.679 50.4771 -240.464 68.2942C-241.263 76.241 -242.872 83.8286 -244.118 91.5641C-244.606 83.2368 -245.093 74.9095 -245.944 60.2628V60.2416ZM-58.4971 -118.605C-57.7913 -119.472 -57.0751 -120.338 -56.3693 -121.226C-56.3693 -123.593 -56.5561 -126.045 -56.3278 -128.285C-55.8815 -132.681 -55.1964 -136.951 -54.6152 -141.284C-53.3178 -137.881 -51.678 -134.837 -50.775 -130.991C-48.1906 -119.958 -45.7203 -108.777 -43.6133 -97.2799C-43.0425 -94.1518 -43.302 -88.1071 -44.288 -86.374C-45.3467 -84.5141 -48.6991 -84.5775 -49.3219 -86.4796C-52.6743 -96.7303 -55.4871 -107.805 -58.4867 -118.584L-58.4971 -118.605ZM151.971 -11.6607C151.255 -10.5194 150.549 -9.37813 149.833 -8.23683C149.314 4.1696 148.806 16.576 148.256 28.9824C148.183 30.7155 147.944 32.4275 147.788 34.1606C147.238 32.4275 146.377 30.8424 146.18 28.9402C143.917 7.5513 141.686 -13.8799 139.724 -35.4168C139.61 -36.6426 141.872 -38.8829 143.024 -40.6583C146.003 -30.9783 148.982 -21.3195 151.961 -11.6396L151.971 -11.6607ZM-91.3678 -182.455C-91.482 -178.08 -91.3367 -173.219 -91.8764 -168.759C-92.0632 -167.174 -93.9211 -166.519 -95.0109 -165.462C-96.9829 -184.125 -99.1522 -202.703 -100.699 -221.534C-100.917 -224.134 -98.0831 -227.917 -96.6715 -231.172C-95.4987 -227.41 -93.6097 -223.901 -93.2879 -219.822C-92.3227 -207.627 -91.9698 -195.2 -91.3678 -182.476V-182.455ZM-507.167 292.688C-506.731 281.571 -506.295 274.554 -506.212 267.516C-506.056 253.651 -502.963 245.408 -496.684 243.337C-494.961 242.766 -493.145 243.59 -491.38 243.781C-491.795 247.099 -491.878 250.819 -492.667 253.63C-496.321 266.691 -500.109 279.584 -503.98 292.35C-504.614 294.442 -505.921 295.541 -506.918 297.105C-507.084 294.273 -507.239 291.462 -507.167 292.688ZM-49.9654 94.0581C-50.173 93.9736 -50.3806 93.889 -50.5882 93.8045C-49.8616 86.6608 -49.1454 79.517 -48.4189 72.3733C-46.094 77.9318 -43.7275 83.4059 -41.4648 89.0702C-40.7694 90.8244 -39.7108 93.3817 -39.8769 95.0725C-41.0186 106.126 -42.3782 117.074 -43.8728 127.938C-44.0181 128.995 -46.3431 129.713 -46.3534 129.65C-47.6301 121.407 -48.9171 113.143 -49.8927 104.689C-50.2767 101.35 -49.955 97.63 -49.955 94.0793L-49.9654 94.0581ZM-181.583 -94.638C-184.624 -98.4634 -189.638 -101.148 -190.385 -106.622C-191.371 -113.765 -188.984 -123.128 -188.06 -131.519C-184.874 -127.081 -181.687 -122.663 -178.521 -118.183C-178.075 -117.549 -177.629 -116.767 -177.318 -115.858C-175.771 -111.356 -174.276 -106.77 -172.761 -102.225C-175.314 -100.027 -177.868 -97.8294 -181.594 -94.638H-181.583ZM-448.494 83.7229C-447.705 84.0611 -447.269 84.2513 -446.822 84.4204C-447.082 86.0901 -447.217 87.8865 -447.611 89.3871C-453.745 113.016 -459.869 136.646 -466.107 160.148C-466.699 162.389 -468.006 163.741 -468.982 165.517C-469.086 162.811 -469.574 159.852 -469.231 157.443C-467.643 146.178 -466.75 133.729 -463.875 124.176C-459.454 109.529 -453.621 96.9113 -448.494 83.7017V83.7229ZM-478.385 -265.749C-478.759 -267.778 -479.133 -269.025 -479.205 -270.336C-480.119 -286.039 -469.262 -327.845 -462.609 -334.249C-461.634 -335.179 -460.606 -335.855 -459.61 -336.637C-459.838 -333.995 -459.745 -330.931 -460.336 -328.754C-465.661 -309.351 -471.11 -290.118 -476.538 -270.864C-476.953 -269.385 -477.524 -268.116 -478.385 -265.749ZM212.419 -200.357C212.212 -196.425 211.932 -188.796 211.33 -181.272C211.143 -178.904 210.095 -176.854 209.441 -174.656C208.776 -176.389 207.79 -177.911 207.521 -179.898C205.922 -191.543 204.012 -203.147 203.296 -215.088C203.068 -218.914 206.15 -223.69 207.718 -228.044C209.285 -224.155 211.299 -220.731 212.274 -216.25C213.011 -212.89 212.419 -208.177 212.419 -200.357ZM-220.63 -171.317C-222.249 -158.678 -223.391 -147.096 -225.29 -136.127C-226.131 -131.287 -228.507 -127.736 -230.189 -123.593C-231.268 -130.483 -233.801 -138.198 -233.095 -144.073C-231.818 -154.62 -228.674 -164.131 -226.141 -173.853C-225.414 -176.622 -224.086 -178.608 -223.027 -180.976C-222.187 -177.594 -221.346 -174.212 -220.63 -171.338V-171.317ZM128.961 144.191C128.847 145.036 128.639 146.537 128.442 148.038C127.404 146.305 125.754 145.036 125.411 142.796C119.443 104.034 113.631 65.1661 107.839 26.2772C107.621 24.7977 107.985 22.9166 108.078 21.2046C108.763 23.2759 109.718 25.157 110.081 27.4607C114.357 54.3871 118.488 81.4192 122.764 108.324C124.643 120.097 126.781 131.679 128.95 144.17L128.961 144.191ZM-123.72 67.7235C-124.311 67.3642 -124.768 67.0894 -125.214 66.8147C-124.851 65.2929 -124.602 63.5809 -124.124 62.2917C-117.627 44.8973 -111.213 27.3128 -104.446 10.4468C-103.242 7.44563 -100.46 7.44561 -98.4152 6.07182C-98.9342 10.6793 -98.7889 16.7029 -100.097 19.683C-106.459 34.1395 -113.174 47.8352 -119.838 61.6576C-121 64.0671 -122.474 65.8001 -123.72 67.7235ZM-365.959 114.01C-367.484 112.594 -369.218 111.368 -369.186 110.987C-367.754 96.9114 -366.177 82.9198 -364.474 68.9917C-364.443 68.6958 -362.004 68.8014 -361.817 69.7525C-359.907 79.4113 -356.856 89.3871 -357.032 99.0248C-357.126 104.266 -362.803 109.022 -365.969 113.989L-365.959 114.01ZM-485.122 210.197C-484.25 212.479 -483.367 214.762 -482.496 217.044C-485.205 219.729 -487.81 223.279 -490.643 224.843C-494.151 226.809 -497.857 227.126 -501.479 228.162C-501.168 221.948 -501.022 215.65 -500.483 209.52C-500.078 204.934 -499.414 200.221 -498.376 196.184C-497.504 192.845 -495.905 190.393 -494.629 187.561C-494.868 191.048 -495.096 194.514 -495.335 198.002C-495.625 202.44 -495.916 206.899 -496.206 211.338C-494.567 209.034 -492.989 206.498 -491.276 204.49C-490.041 203.032 -488.163 200.58 -487.415 201.573C-486.274 203.095 -485.858 207.195 -485.132 210.218L-485.122 210.197ZM144.602 163.889C146.159 152.518 147.664 141.549 149.169 130.58C150.83 140.471 152.542 150.32 154.109 160.296C154.639 163.635 154.95 167.25 155.054 170.779C155.22 176.359 155.127 182.002 155.137 187.603C152.594 184.602 149.667 182.488 147.643 178.303C146.076 175.049 145.661 169.194 144.602 163.889ZM-359.212 -133.231C-361.423 -101.845 -363.457 -72.4247 -365.616 -43.0466C-365.803 -40.5738 -366.82 -38.3757 -367.443 -36.072C-367.692 -37.636 -368.242 -39.2635 -368.159 -40.7429C-366.55 -71.4103 -364.941 -102.099 -363.094 -132.703C-362.917 -135.556 -361.215 -137.986 -360.219 -140.607C-359.804 -137.585 -359.389 -134.541 -359.212 -133.231ZM-182.632 -84.176C-178.719 -78.5328 -176.788 -75.743 -174.847 -72.9531C-178.366 -62.1318 -181.884 -51.2894 -185.403 -40.4682C-186.711 -48.9223 -189.098 -57.4398 -188.953 -65.7671C-188.849 -71.5159 -185.258 -76.9688 -182.632 -84.176ZM-216.001 -35.4803C-214.973 -41.9688 -213.51 -51.2048 -212.036 -60.4621C-211.06 -59.7223 -209.306 -59.2786 -209.223 -58.2007C-208.496 -48.9223 -208.019 -39.5382 -207.614 -30.1541C-207.521 -27.8926 -207.853 -25.4198 -208.185 -23.1795C-209.078 -17.2193 -210.064 -11.3437 -211.019 -5.44695C-212.472 -11.4282 -214.049 -17.2827 -215.305 -23.4331C-215.835 -26.0116 -215.668 -29.2453 -216.001 -35.4803ZM80.2099 95.7912C78.1133 103.506 76.9819 108.05 75.5808 112.171C75.4666 112.509 73.1106 110.522 72.519 108.578C68.7617 96.2773 65.1186 83.7863 61.6831 71.0629C61.2264 69.3721 62.1917 65.8847 62.4927 63.2216C68.3257 73.9584 74.1692 84.6952 80.2099 95.7912ZM237.963 65.7367C237.755 67.1739 237.558 68.6112 237.35 70.0484C235.658 69.6046 233.707 70.1963 232.327 68.5266C222.591 56.6908 212.97 44.4324 203.369 32.1317C202.705 31.2863 202.435 28.919 201.988 27.2705C202.756 27.6509 203.576 27.7567 204.282 28.433C213.758 37.4578 223.266 46.3346 232.628 55.8666C234.672 57.9378 236.198 62.3974 237.963 65.7579V65.7367ZM121.208 309.469C118.8 322.362 116.942 333.437 114.648 344.089C113.714 348.4 111.846 351.761 110.392 355.544C108.971 352.12 106.947 349.14 106.293 345.124C105.618 340.961 105.39 333.944 106.511 331.408C110.05 323.418 114.285 316.845 118.332 309.998C118.862 309.089 119.92 309.659 121.187 309.49L121.208 309.469ZM-487.166 143.155C-486.492 137.914 -486.409 134.828 -485.744 132.545C-478.977 109.592 -472.148 86.7031 -465.214 63.9826C-464.488 61.6154 -462.962 60.3895 -461.81 58.6353C-462.007 61.4674 -461.81 64.8702 -462.474 67.0471C-469.636 90.7398 -476.932 114.263 -484.229 137.766C-484.654 139.14 -485.433 140.027 -487.166 143.134V143.155ZM93.163 -192.854C93.163 -192.854 93.464 -195.538 93.765 -198.264C94.5746 -195.559 95.8201 -193.065 96.1107 -190.127C98.0205 -171.021 99.8576 -151.851 101.373 -132.576C101.726 -128.137 100.75 -123.213 100.377 -118.5C98.965 -122.896 96.6297 -126.975 96.3079 -131.73C94.969 -151.048 94.2425 -170.577 93.1527 -192.854H93.163ZM-162.32 247.627C-163.7 256.462 -164.354 260.562 -164.997 264.683C-165.465 263.394 -166.087 262.253 -166.378 260.773C-171.495 234.692 -176.581 208.59 -181.646 182.467C-181.936 180.988 -181.915 179.212 -182.04 177.585C-181.614 177.902 -180.971 177.923 -180.805 178.557C-174.432 202.271 -168.09 226.048 -162.33 247.627H-162.32ZM-266.111 -26.4978C-268.664 -19.8401 -271.218 -12.8232 -273.999 -6.27126C-274.529 -5.02428 -275.94 -5.57375 -276.947 -5.29899C-276.542 -12.1046 -276.189 -18.9312 -275.722 -25.7156C-275.567 -28.0405 -275.234 -30.3444 -274.85 -32.5424C-273.522 -40.0877 -272.131 -47.5907 -270.771 -55.1149C-269.37 -46.534 -267.979 -37.9531 -266.111 -26.4978ZM118.582 -286.314C118.582 -283.376 118.737 -280.375 118.55 -277.501C117.98 -268.814 117.263 -260.17 116.599 -251.504C115.665 -259.683 114.617 -267.799 113.818 -276.042C113.039 -284.095 112.313 -292.232 111.939 -300.411C111.7 -305.758 112.126 -311.254 112.25 -316.664C114.347 -311.824 117.035 -307.639 118.353 -301.954C119.329 -297.748 118.55 -291.598 118.571 -286.293L118.582 -286.314ZM-57.9988 125.994C-58.2272 126.078 -58.4555 126.163 -58.6839 126.247C-59.2651 150.532 -59.7737 174.816 -60.5002 199.079C-60.6144 202.757 -61.725 206.308 -62.3685 209.901C-62.6487 206.033 -63.2299 202.123 -63.1573 198.297C-62.6902 174.013 -62.1194 149.728 -61.4759 125.465C-61.2268 115.933 -60.7078 106.443 -60.303 96.9325C-59.535 106.612 -58.7669 116.314 -57.9884 125.994H-57.9988ZM-81.3519 -51.3739C-85.0469 -35.8395 -88.5758 -20.6432 -92.3746 -5.7639C-92.7067 -4.45351 -95.3118 -4.05201 -95.8723 -5.29899C-96.713 -7.20117 -97.3773 -11.7664 -96.8791 -13.732C-93.4955 -27.174 -89.8317 -40.2567 -86.1367 -53.3183C-85.6489 -55.0303 -84.4968 -56.848 -83.6768 -56.7846C-83.0126 -56.7423 -82.3898 -53.9313 -81.3519 -51.3528V-51.3739ZM-340.166 -96.4767C-343.612 -86.6911 -346.819 -77.4127 -350.13 -68.3245C-350.525 -67.2254 -351.511 -67.162 -352.227 -66.6125C-351.511 -75.2146 -350.815 -83.8377 -350.058 -92.4398C-349.798 -95.3565 -349.58 -98.4 -349.02 -101.042C-347.878 -106.389 -346.518 -111.504 -345.242 -116.724C-343.716 -110.658 -342.201 -104.593 -340.166 -96.4979V-96.4767ZM-41.5998 -62.7024C-38.2473 -59.0883 -36.4829 -58.4966 -35.9535 -56.4253C-32.9332 -44.6318 -30.1931 -32.479 -27.4219 -20.3896C-27.3596 -20.136 -28.3041 -18.4029 -28.356 -18.4874C-32.9851 -26.6245 -37.9464 -34.1276 -41.9631 -43.5328C-43.1878 -46.4072 -41.8489 -54.5019 -41.6102 -62.7024H-41.5998ZM-429.614 -81.4496C-433.184 -65.8094 -435.852 -53.4875 -438.799 -41.4826C-440.273 -35.4802 -442.245 -30.0696 -443.999 -24.3842C-443.501 -31.2743 -443.553 -38.6505 -442.391 -44.9488C-440.18 -56.9537 -437.398 -68.4724 -434.544 -79.8221C-434.16 -81.3438 -432.001 -80.7521 -429.624 -81.4284L-429.614 -81.4496ZM-237.184 121.048C-237.018 121.132 -236.852 121.217 -236.697 121.302C-238.648 139.224 -240.527 157.189 -242.633 175.027C-242.986 178.05 -244.325 180.544 -245.197 183.291C-245.799 179.698 -247.273 175.577 -246.879 172.618C-244.087 151.504 -240.931 130.622 -237.818 109.719C-237.651 108.641 -236.852 107.986 -236.354 107.141C-236.302 108.282 -236.147 109.466 -236.23 110.565C-236.499 114.073 -236.863 117.56 -237.195 121.069L-237.184 121.048ZM148.515 -122.748C148.214 -120.973 147.519 -116.872 146.823 -112.772C145.464 -115.393 144 -117.802 142.765 -120.677C141.654 -123.255 140.399 -126.024 139.869 -129.236C138.644 -136.761 137.814 -144.602 136.932 -152.358C136.932 -152.422 138.644 -154.092 138.935 -153.521C142.028 -147.307 145.121 -141.051 147.903 -134.203C148.629 -132.386 148.266 -128.476 148.525 -122.748H148.515ZM-284.513 320.269C-285.313 317.564 -286.174 315.958 -286.049 314.88C-284.41 300.994 -282.739 287.108 -280.704 273.476C-280.486 272.039 -277.881 272.313 -276.387 271.785C-276.335 275.061 -275.805 278.717 -276.303 281.507C-278.161 291.906 -280.32 302.029 -282.427 312.196C-282.936 314.647 -283.642 316.888 -284.513 320.248V320.269ZM-265.135 -61.392C-264.886 -63.421 -264.419 -67.2254 -263.952 -71.0297C-262.281 -68.578 -260.382 -66.5913 -259.001 -63.5267C-257.714 -60.6735 -255.908 -56.1928 -256.178 -53.255C-256.832 -46.4072 -258.597 -40.0455 -259.904 -33.4935C-261.254 -38.0165 -262.852 -42.3069 -263.859 -47.168C-264.617 -50.8244 -264.627 -55.2417 -265.135 -61.392ZM200.909 -248.905C202.653 -257.38 203.41 -261.036 204.168 -264.714C207.282 -257.929 210.51 -251.335 213.333 -244.001C213.582 -243.367 210.416 -234.913 210.178 -235.209C207.022 -239.119 204.106 -243.959 200.909 -248.905ZM-235.918 -185.647C-234.123 -191.247 -231.86 -198.285 -229.608 -205.324C-228.445 -202.09 -226.006 -197.926 -226.338 -195.813C-228.03 -185.076 -230.438 -174.889 -232.597 -164.511C-233.489 -170.218 -234.392 -175.924 -235.918 -185.668V-185.647ZM16.5234 -238.062C14.4684 -233.243 12.787 -229.058 12.7039 -229.185C8.86364 -235.949 5.14791 -243.092 1.4218 -250.194C2.84374 -253.195 5.30356 -259.155 5.5319 -258.775C9.19574 -252.688 12.569 -245.776 16.5131 -238.062H16.5234ZM11.8839 -13.3092C11.6141 -11.3859 11.2612 -8.82861 10.9083 -6.2501C10.2855 -7.13779 9.39298 -7.68724 9.07122 -8.95535C6.71516 -18.1915 4.06843 -27.2375 2.40777 -37.0654C1.82653 -40.4893 3.74672 -45.921 4.52515 -50.444C5.97823 -47.5484 8.16824 -45.2024 8.74947 -41.6094C10.161 -32.7749 10.8356 -23.3908 11.8943 -13.3092H11.8839ZM149.127 -346.042C147.238 -337.736 145.744 -331.205 144.26 -324.653C143.014 -335.432 141.499 -346.106 140.689 -357.033C140.44 -360.414 142.132 -364.451 142.941 -368.192C144.965 -360.943 146.989 -353.693 149.127 -346.042ZM-121.364 -52.621C-122.796 -47.4851 -123.657 -44.3993 -124.508 -41.3347C-127.757 -47.1046 -131.006 -52.8534 -134.254 -58.6233C-131.826 -62.8927 -129.397 -67.1621 -126.968 -71.4103C-125.131 -65.2599 -123.294 -59.1095 -121.364 -52.621ZM-17.2503 -159.122C-17.0323 -155.571 -16.3473 -150.773 -16.6379 -146.293C-16.7833 -144.116 -18.7449 -142.488 -19.8866 -140.607C-20.7481 -149.695 -22.5852 -158.995 -22.1804 -167.808C-21.7756 -176.706 -19.16 -185.118 -17.5098 -193.741C-17.4267 -184.357 -17.3333 -174.973 -17.2503 -165.568C-17.2399 -163.793 -17.2503 -162.038 -17.2503 -159.122ZM-9.61124 -32.6904C-12.6523 -23.4965 -14.4272 -18.107 -16.2124 -12.7175C-18.4024 -21.9114 -20.582 -31.1052 -22.772 -40.299C-21.5888 -41.5038 -20.1046 -44.3571 -19.2846 -43.6385C-16.2539 -40.9965 -13.4308 -37.1499 -9.62163 -32.6904H-9.61124ZM-483.305 -138.536C-487.716 -129.68 -491.826 -121.437 -495.926 -113.195C-496.476 -114.653 -497.618 -116.428 -497.493 -117.527C-496.746 -124.227 -496.559 -132.724 -494.546 -136.866C-492.553 -140.988 -488.65 -140.819 -485.557 -142.15C-485.101 -142.34 -484.457 -140.459 -483.305 -138.536ZM-406.365 -6.3346C-403.573 -10.4771 -401.663 -15.613 -400.075 -15.1903C-397.003 -14.366 -394.107 -10.3926 -391.138 -7.70844C-394.522 -2.99527 -397.823 2.14059 -401.414 5.88154C-401.891 6.36765 -403.925 -0.205359 -406.354 -6.3346H-406.365ZM-180.732 -4.60149C-181.708 -12.8865 -182.549 -15.9512 -182.154 -17.3673C-179.227 -27.8715 -176.103 -38.1433 -172.823 -48.1403C-172.616 -48.7955 -170.581 -46.6185 -169.398 -45.752C-172.73 -33.6203 -176.072 -21.5097 -180.732 -4.58033V-4.60149ZM-194.007 -224.409C-192.668 -231.109 -191.506 -236.879 -190.354 -242.67C-188.299 -237.682 -184.334 -231.996 -184.645 -227.833C-185.123 -221.407 -188.537 -216.039 -190.696 -210.206C-191.734 -214.665 -192.782 -219.146 -194.007 -224.409ZM249.079 52.8019C246.972 52.8019 245.311 53.6262 245.062 52.6751C241.408 38.7047 237.931 24.5229 234.486 10.2989C234.486 10.2566 235.959 8.39673 235.98 8.48127C240.142 22.346 244.232 36.2953 249.079 52.8231V52.8019ZM-307.42 80.0877C-305.241 72.9017 -303.569 67.4276 -301.898 61.9324C-300.653 68.1673 -298.536 74.3176 -298.442 80.6371C-298.37 85.4982 -300.819 90.5496 -302.158 95.4953C-303.767 90.7821 -305.375 86.069 -307.42 80.0665V80.0877ZM78.7361 -132.111C76.4007 -132.449 75.6535 -132.111 75.1137 -132.703C69.3118 -139.043 63.4683 -145.257 57.8324 -152.253C56.9087 -153.394 56.9606 -158.234 56.5662 -161.362C58.1127 -161.024 60.0225 -161.848 61.1538 -160.157C66.0631 -152.845 70.7441 -144.792 75.5082 -137.014C76.1413 -135.979 76.8055 -135.027 78.7361 -132.111ZM103.719 -158.509C103.719 -157.642 103.719 -162.144 103.719 -166.667C105.338 -163.137 106.998 -159.692 108.566 -156.057C109.095 -154.81 109.728 -153.035 109.707 -151.534C109.593 -144.137 109.344 -136.739 108.96 -129.384C108.908 -128.433 107.798 -127.736 107.175 -126.911C106.199 -133.337 105.161 -139.719 104.269 -146.208C103.968 -148.406 104.04 -150.837 103.708 -158.53L103.719 -158.509ZM-290.056 -8.32132C-288.239 -23.2428 -286.548 -38.101 -284.544 -52.7689C-284.181 -55.4531 -282.572 -57.3552 -281.545 -59.5956C-281.576 -56.8057 -281.358 -53.8891 -281.669 -51.2683C-283.434 -36.4313 -285.302 -21.6366 -287.212 -6.88414C-287.492 -4.74947 -288.188 -2.88953 -288.696 -0.902809C-289.132 -3.24883 -289.558 -5.59485 -290.056 -8.30017V-8.32132ZM36.2127 -178.82C33.5452 -187.443 31.3137 -193.593 29.788 -200.462C29.4558 -201.942 31.6459 -206.084 32.6838 -209.022C35.0814 -202.343 37.5931 -195.834 39.7416 -188.796C39.9803 -188.014 38.2055 -184.336 36.223 -178.841L36.2127 -178.82ZM-136.278 -67.4368C-137.233 -71.7062 -138.593 -75.5316 -138.24 -76.5461C-136.403 -81.83 -134.337 -87.0714 -131.857 -90.7279C-131.193 -91.7001 -128.774 -87.0715 -127.165 -85.0003C-129.947 -79.653 -132.729 -74.2847 -136.289 -67.4368H-136.278ZM349.902 46.2922C349.237 48.5537 348.978 50.3502 348.656 50.3925C345.771 50.7941 342.532 52.7174 340.052 50.5828C336.99 47.962 334.551 41.8751 331.852 37.2887C334.758 38.0707 337.665 38.7258 340.56 39.698C342.709 40.4166 344.857 41.2833 346.944 42.5725C347.992 43.2277 348.905 44.9818 349.902 46.2922ZM-404.019 -242.458C-405.244 -235.505 -406.655 -227.537 -408.067 -219.59C-409.655 -225.952 -411.461 -232.123 -412.706 -238.781C-413.225 -241.549 -412.519 -245.375 -412.374 -248.735C-411.305 -246.643 -410.361 -243.853 -409.105 -242.712C-408.326 -242.014 -406.977 -243.494 -406.043 -244.614C-405.462 -245.311 -405.181 -247.15 -404.766 -248.482C-404.579 -247.002 -404.403 -245.544 -404.019 -242.458ZM-206.223 127.283C-203.712 130.918 -202.144 133.18 -200.577 135.441C-203.452 138.717 -206.213 142.775 -209.254 144.931C-210.552 145.84 -212.441 142.775 -214.06 141.528C-211.631 137.111 -209.202 132.715 -206.223 127.304V127.283ZM121.965 -102.5C120.969 -98.6325 120.19 -95.6313 119.412 -92.6301C117.295 -95.589 113.537 -98.252 113.423 -101.57C113.226 -106.896 115.416 -112.666 116.599 -118.225C118.249 -113.406 119.9 -108.566 121.965 -102.5ZM-246.962 -81.3016C-244.616 -86.3529 -243.111 -91.0872 -241.035 -93.2641C-240.309 -94.025 -238.191 -88.4241 -236.707 -85.7188C-238.7 -80.5195 -240.703 -75.3414 -242.696 -70.1421C-243.796 -73.0165 -244.886 -75.8909 -246.962 -81.3016ZM-305.531 -123.361C-306.922 -115.541 -307.929 -109.876 -308.935 -104.191C-310.015 -111.842 -311.395 -119.387 -312.039 -127.229C-312.288 -130.272 -310.866 -133.95 -310.212 -137.331C-308.655 -132.66 -307.088 -128.011 -305.531 -123.361ZM-157.026 -73.566C-159.891 -66.6336 -162.32 -60.7791 -164.738 -54.9246C-165.288 -57.8836 -166.679 -61.8359 -166.233 -63.6324C-164.717 -69.7616 -162.558 -75.1511 -160.638 -80.8154C-159.621 -78.7864 -158.614 -76.7574 -157.026 -73.5871V-73.566ZM-198.896 -214.137C-199.757 -208.388 -200.826 -201.265 -201.895 -194.143C-202.186 -201.118 -202.477 -208.113 -202.757 -215.088C-202.778 -215.659 -202.778 -216.272 -202.715 -216.842C-202.134 -222.633 -201.553 -228.424 -200.961 -234.215C-200.349 -228.276 -199.736 -222.316 -198.896 -214.137ZM-147.851 -229.46C-149.346 -224.979 -150.415 -221.788 -151.484 -218.575C-153.279 -222.528 -155.085 -226.48 -156.881 -230.432C-155.127 -233.603 -153.383 -236.773 -151.629 -239.922C-150.508 -236.815 -149.387 -233.708 -147.851 -229.439V-229.46ZM-508.495 -36.0931C-511.619 -31.1898 -514.048 -27.0472 -516.685 -23.6233C-517.048 -23.1583 -518.397 -26.2652 -519.29 -27.7235C-516.902 -33.6625 -514.515 -39.6227 -512.118 -45.5617C-511.287 -43.3848 -510.447 -41.2079 -508.495 -36.1143V-36.0931ZM-226.234 -260.888C-228.113 -269.173 -230.251 -274.542 -229.691 -276.951C-228.508 -282.024 -225.923 -285.553 -223.91 -289.717C-223.308 -287.603 -222.01 -285.067 -222.218 -283.461C-223.058 -277.12 -224.356 -271.054 -226.234 -260.888ZM-359.887 13.0464C-360.894 10.003 -361.641 8.65033 -361.527 7.93173C-360.125 -0.712607 -358.693 -9.33578 -356.97 -17.6631C-356.794 -18.5508 -354.697 -17.5574 -353.493 -17.4306C-355.486 -7.91975 -357.489 1.59109 -359.887 13.0253V13.0464ZM18.3086 -275.112C17.0528 -270.357 16.0771 -266.7 15.1015 -263.044C13.7315 -267.588 11.5103 -271.942 11.2716 -276.761C11.1055 -280.248 13.5654 -284.348 14.8524 -288.174C15.963 -283.947 17.0839 -279.741 18.2983 -275.112H18.3086ZM58.0815 -333.974C60.8735 -322.455 63.0013 -313.748 65.0356 -304.934C65.0459 -304.871 63.2919 -302.609 63.2504 -302.757C60.8632 -309.943 58.4552 -317.15 56.369 -324.759C56.0369 -325.964 57.1267 -329.05 58.0919 -333.974H58.0815ZM-145.142 -355.109C-148.339 -352.827 -150.487 -349.699 -152.304 -350.438C-153.996 -351.115 -155.345 -355.891 -156.839 -358.85C-155.148 -362.105 -153.601 -365.91 -151.671 -368.213C-151.255 -368.721 -149.501 -363.986 -145.132 -355.088L-145.142 -355.109ZM-288.717 340.39C-290.045 348.126 -291.166 355.375 -292.526 362.434C-293.772 368.923 -295.256 375.179 -296.636 381.541C-296.065 375.221 -295.64 368.817 -294.903 362.603C-294.021 355.164 -292.952 347.809 -291.758 340.559C-291.467 338.784 -290.357 337.664 -289.63 336.227C-289.298 337.748 -288.976 339.27 -288.727 340.39H-288.717ZM177.753 -330.339C177.151 -330.994 176.809 -331.1 176.694 -331.522C173.778 -342.196 170.882 -352.911 168.038 -363.69C167.976 -363.923 168.671 -365.085 169.014 -365.825C172.096 -355.405 175.21 -345.007 178.22 -334.46C178.449 -333.657 177.94 -331.861 177.753 -330.339ZM143.118 218.122C144.488 213.134 145.765 208.485 147.041 203.856C148.235 206.582 150.684 210.535 150.414 211.845C149.293 217.34 147.353 222.053 145.723 227.041C144.965 224.442 144.197 221.821 143.118 218.122ZM-162.361 -329.895C-164.728 -325.118 -166.253 -321.758 -167.987 -319.01C-168.122 -318.799 -170.613 -323.491 -170.426 -324.928C-169.834 -329.493 -168.485 -333.572 -167.437 -337.863C-166.087 -335.749 -164.748 -333.636 -162.361 -329.895Z" fill="#004520"/>
</g>
</g>
<defs>
<clipPath id="clip0_318_5150">
<rect width="532" height="360" fill="white"/>
</clipPath>
<clipPath id="clip1_318_5150">
<rect width="1216" height="1986" fill="white" transform="matrix(1 0 0 -1 -781 1605)"/>
</clipPath>
</defs>
</svg>
