<svg width="532" height="360" viewBox="0 0 532 360" fill="none" xmlns="http://www.w3.org/2000/svg">
<g clip-path="url(#clip0_338_10)">
<rect width="532" height="360" fill="#FAAB28"/>
<g clip-path="url(#clip1_338_10)">
<path d="M-270.895 782.242C-272.555 873.758 -275.679 965.316 -275.513 1056.81C-275.264 1187.03 -273.521 1317.32 -270.604 1447.39C-268.84 1525.74 -264.2 1603.96 -252.005 1678.74C-250.199 1689.81 -247.521 1700.42 -244.584 1710.31C-243.172 1715.07 -240.224 1717.67 -237.962 1721.26C-237.422 1714.9 -235.948 1708.14 -236.509 1702.28C-239.602 1669.67 -244.646 1637.65 -246.317 1604.77C-251.33 1506.11 -256.945 1407.32 -258.886 1308.28C-261.325 1184.09 -261.585 1059.54 -260.453 935.241C-259.592 840.217 -255.108 745.34 -252.191 650.4C-252.067 646.258 -251.787 642.052 -251.226 638.1C-250.801 635.098 -249.825 632.456 -249.098 629.667C-248.289 632.52 -246.763 635.415 -246.784 638.247C-246.857 651.837 -246.369 665.956 -247.853 678.933C-255.305 744.41 -249.545 807.732 -242.176 870.968C-239.757 891.744 -237.339 912.499 -234.786 933.191C-234.474 935.685 -233.343 937.693 -232.596 939.933C-232.533 937.101 -232.201 934.163 -232.45 931.479C-237.194 880.162 -243.058 829.184 -246.379 777.424C-248.227 748.595 -245.912 718.498 -245.289 688.972C-245.227 686.246 -243.784 683.646 -242.975 680.983C-242.477 683.583 -241.688 686.098 -241.511 688.803C-239.197 724.099 -237.245 759.522 -234.557 794.691C-233.841 804.054 -230.945 812.635 -229.046 821.596C-229.191 812.107 -228.932 802.49 -229.565 793.169C-230.997 772.013 -233.509 751.089 -234.287 729.848C-234.692 718.752 -232.357 707.191 -231.226 695.841C-231.132 694.869 -230.727 694.045 -230.468 693.157C-229.939 695.08 -229.139 696.898 -228.932 698.969C-227.448 713.489 -226.129 728.094 -224.666 742.635C-212.647 862.409 -200.451 982.098 -188.858 1102.06C-187.685 1114.26 -188.412 1130.32 -191.224 1140.82C-206.264 1197.04 -215.2 1258.02 -222.787 1320.26C-223.14 1323.14 -223.67 1326.05 -223.659 1328.95C-223.659 1332.1 -223.13 1335.25 -222.829 1338.4C-221.677 1336.16 -220.058 1334.4 -219.466 1331.61C-215.927 1314.87 -212.782 1297.73 -209.222 1281.04C-202.548 1249.76 -195.76 1218.58 -188.806 1187.58C-187.602 1182.23 -185.381 1177.96 -183.627 1173.18C-182.776 1179.27 -181.613 1185.25 -181.115 1191.46C-178.136 1228.39 -175.521 1265.44 -172.293 1302.26C-171.483 1311.49 -168.857 1319.97 -167.062 1328.8C-166.044 1319.08 -163.678 1308.98 -164.239 1299.7C-167.29 1249.61 -171.213 1199.77 -174.431 1149.72C-174.96 1141.5 -174.555 1131.42 -172.77 1124.36C-159.07 1070.15 -144.944 1016.44 -130.89 962.653C-130.174 959.927 -128.877 957.94 -127.849 955.615C-127.507 960.815 -126.666 966.098 -126.884 971.171C-129.697 1036.82 -132.105 1102.59 -135.789 1168.03C-137.782 1203.36 -142.027 1238.09 -145.172 1273.13C-145.743 1279.51 -146.179 1286.11 -146.148 1292.58C-146.127 1296.8 -145.182 1301.03 -144.643 1305.24C-144.061 1301.05 -143.325 1296.95 -142.94 1292.7C-138.955 1249.54 -133.848 1206.68 -131.357 1163.12C-127.164 1089.49 -124.704 1015.39 -121.331 941.518C-120.885 931.69 -120.262 921.122 -118.238 912.563C-104.237 853.299 -89.8823 794.416 -75.4138 735.681C-74.9156 733.652 -74.0229 713.13 -70.2761 733.103C-68.9164 730.609 -66.7368 728.622 -66.3216 725.515C-63.4051 703.83 -60.9141 681.892 -58.1532 660.123C-57.6758 656.361 -56.5445 653 -55.7142 649.449C-55.7142 653.317 -55.3924 657.333 -55.7764 661.01C-59.1081 693.432 -62.5748 725.769 -65.948 758.169C-66.1971 760.536 -65.9791 763.115 -65.9688 765.588C-65.3045 763.791 -64.2977 762.206 -64.0382 760.156C-57.9145 712.834 -51.8012 665.512 -45.8851 618.063C-44.3178 605.509 -43.6328 592.447 -42.0967 579.872C-41.5985 575.814 -39.668 572.58 -38.3914 568.987C-37.3327 572.855 -35.89 576.469 -35.2776 580.654C-29.0501 623.157 -23.3312 666.04 -16.7301 708.269C-9.31938 755.675 2.25342 798.136 19.0573 832.713C26.8209 848.692 23.759 867.946 24.5582 886.228C24.6827 889.166 25.2328 892.019 25.5753 894.915C25.7622 892.04 25.9801 889.166 26.1358 886.27C26.717 875.449 27.2671 864.628 27.838 853.828C31.917 859.428 36.1309 864.628 40.0646 870.673C61.4145 903.475 85.0998 925.561 109.667 943.927C113.29 946.633 117.794 951.473 119.392 958.173C140.005 1044.13 160.359 1130.4 180.277 1217.12C184.522 1235.59 186.701 1256.31 190.012 1275.84C190.894 1281.04 192.399 1285.71 193.614 1290.63C193.479 1284.82 193.946 1278.54 193.116 1273.24C187.158 1235.62 182.124 1197 174.516 1160.99C161.386 1098.85 146.565 1038.4 132.564 977.131C131.173 971.044 130.55 964.112 129.564 957.581C132.501 957.623 135.449 957.56 138.386 957.708C156.674 958.638 174.962 959.652 193.25 960.476C194.87 960.54 196.624 960.223 198.077 958.849C199.333 957.665 200.256 954.77 201.325 952.614C200.07 951.98 198.824 950.86 197.558 950.775C176.893 949.169 156.218 947.753 135.553 946.168C127.706 945.576 122.423 937.925 119.455 921.186C116.808 906.264 113.674 891.322 109.553 878.154C101.789 853.299 102.381 830.41 108.162 803.462C118.406 755.697 118.095 755.105 133.342 794.607C143.534 821.005 154.412 846.156 165.102 871.603C166.451 874.815 168.59 876.442 170.364 878.81C170.084 874.075 170.562 868.009 169.399 864.776C159.778 838.124 150.8 809.909 139.777 786.258C127.125 759.142 123.503 734.646 132.667 698.061C141.915 661.095 140.192 659.51 155.823 686.119C172.399 714.335 189.628 740.796 205.737 770.195C213.147 783.722 218.627 802.3 224.845 818.828C228.477 828.508 231.757 838.8 235.348 848.523C235.992 850.256 237.435 850.594 238.514 851.587C238.275 849.389 238.296 846.832 237.756 845.057C234.456 834.13 230.948 823.477 227.668 812.508C225.924 806.675 224.502 800.355 222.935 794.268C225.903 796.488 228.986 798.136 231.809 801.011C237.995 807.309 243.994 814.474 250.19 820.73C251.446 821.998 253.221 820.878 254.757 820.857C253.823 817.792 253.221 813.375 251.903 811.874C242.468 801.095 232.878 790.992 223.392 780.467C222.271 779.22 221.451 776.747 220.485 774.845C221.762 775.12 223.101 774.887 224.295 775.712C235.224 783.32 246.08 791.479 257.072 798.559C259.739 800.271 262.874 798.559 265.79 798.39C263.279 795.431 260.871 791.859 258.234 789.598C243.008 776.557 227.554 764.658 212.576 750.413C208.57 746.608 204.73 737.076 202.913 728.136C196.167 694.954 190.251 660.968 184.138 627.194C183.494 623.622 183.536 619.479 183.255 615.59C184.968 616.668 186.815 617.197 188.383 618.93C217.091 650.802 245.852 682.526 274.353 715.286C277.218 718.583 279.937 728.094 280.228 735.216C281.089 755.887 280.549 776.811 280.892 797.608C280.965 801.814 282.532 805.893 283.414 810.014C284.514 805.808 286.466 801.687 286.569 797.354C287.047 778.945 287.14 760.494 287.036 742.043C286.974 731.116 288.126 726.128 293.658 730.884C328.906 761.086 365.295 781.714 402.66 795.515C410.393 798.369 417.284 813.015 424.352 822.949C431.234 832.65 437.825 843.302 444.54 853.532V842.816C437.96 832.185 431.358 821.618 424.82 810.839C423.802 809.148 423.117 806.485 422.287 804.286C423.47 803.779 424.674 802.638 425.816 802.849C432.064 804.075 438.302 805.639 444.54 807.098V792.81C438.562 791.415 432.573 790.232 426.615 788.583C416.921 785.878 407.673 783.574 399.256 768.674C367.288 712.073 338.372 649.217 313.016 578.561C309.289 568.163 306.196 556.686 302.802 545.717C308.085 551.741 313.316 557.976 318.672 563.703C321.474 566.705 324.464 568.881 327.38 571.418C325.003 567.169 322.803 562.308 320.229 558.758C306.736 540.159 291.157 527.435 283.632 492.731C281.452 482.671 281.546 477.662 287.026 478.887C298.339 481.424 309.767 483.241 320.852 488.377C331.771 493.45 342.305 502.474 353.069 509.216C355.061 510.463 357.397 509.174 359.576 509.069C357.988 506.258 356.587 502.263 354.771 500.826C346.031 493.936 337.168 487.87 328.387 481.233C326.685 479.944 325.201 477.344 323.613 475.358C325.118 473.308 326.55 470.856 328.148 469.25C334.832 462.465 341.33 454.138 348.346 449.805C355.331 445.494 359.773 436.87 364.029 424.908C365.627 420.427 370.412 419.455 373.65 419.92C384.818 421.547 395.934 424.718 407.092 426.81C408.701 427.106 410.413 424.802 412.084 423.703C410.673 420.786 409.427 415.925 407.829 415.312C400.844 412.628 393.744 411.36 386.697 409.268C377.833 406.633 375.695 397.016 380.283 380.418C405.338 290.001 397.481 166.55 360.801 84.0376C331.034 17.0598 293.98 -4.26577 252.162 3.78678C245.925 4.9915 239.303 -3.33575 232.857 -7.24578H209.878C212.213 5.05496 214.725 17.2077 216.822 29.6775C218.129 37.4342 219.136 45.5713 219.738 53.7084C220.724 67.1293 221.274 80.6982 222.011 94.2248C218.181 87.4404 213.905 81.5436 210.719 73.5544C208.996 69.2428 208.643 61.4228 208.549 55.1245C208.228 34.3485 208.311 13.5302 208.238 -7.26694H190.189C190.853 -1.70835 191.704 8.77475 192.14 8.71135C201.938 6.85144 196.935 25.2815 199.312 33.2072C199.8 34.8346 198.897 38.4276 198.637 41.133C197.537 39.738 195.918 38.9348 195.42 36.8636C191.912 22.3014 188.621 7.48552 185.269 -7.24578H139.32C139.279 10.5079 139.362 28.2827 139.134 46.0364C139.061 51.4681 138.158 56.8575 137.639 62.2893C136.736 56.2235 135.086 50.1788 135.075 44.113C135.034 26.9934 135.667 9.87381 136.03 -7.24578H131.11C130.602 5.1395 130.301 17.5882 129.481 29.889C129.107 35.511 127.696 40.7947 126.751 46.2265C124.53 40.7313 121.188 35.9336 120.347 29.593C118.79 17.7995 118.697 5.09725 117.991 -7.22463H80.2527L81.1142 18.645C78.7062 10.5924 76.3086 2.56101 73.911 -5.51267C73.7657 -5.97765 73.7553 -6.65397 73.693 -7.22463H-307.024C-310.398 6.15402 -313.729 19.596 -317.175 32.8901C-317.933 35.8068 -319.106 38.1951 -320.092 40.8159C-319.978 36.9904 -320.32 32.7633 -319.666 29.4451C-317.269 17.0598 -314.549 4.97044 -311.944 -7.22463H-392.351C-395.486 13.5936 -398.517 34.4965 -401.879 55.1457C-402.378 58.2103 -404.474 60.0279 -405.824 62.4162C-406.623 59.0346 -408.138 55.5894 -408.097 52.2712C-407.868 37.5187 -407.204 22.7875 -406.467 1.75788C-405.367 17.6305 -404.775 27.4372 -403.966 37.1384C-403.779 39.3787 -402.814 41.302 -402.201 43.3521C-401.879 41.1752 -401.174 38.8925 -401.288 36.8213C-402.046 22.1111 -402.98 7.44325 -403.852 -7.24578H-439.95C-440.116 -4.30798 -439.774 -0.0386708 -440.531 1.31399C-445.596 10.3388 -450.9 18.7295 -456.121 27.3315C-454.367 18.6238 -452.571 9.93718 -450.89 1.16603C-450.381 -1.49702 -450.153 -4.43477 -449.8 -7.22463H-459.65C-462.649 7.99279 -465.587 23.2525 -468.7 38.3642C-469.167 40.6046 -470.382 42.1262 -471.254 43.965C-471.14 41.1329 -471.316 38.0471 -470.859 35.5109C-468.296 21.2023 -465.587 6.99943 -462.93 -7.22463H-494.109C-504.114 31.453 -512.397 72.7513 -529.73 99.9947C-534.795 107.942 -539.465 117.135 -544.146 126.181C-544.935 127.703 -544.873 131.338 -545.205 133.98C-544.074 132.881 -542.766 132.247 -541.842 130.62C-538.23 124.279 -534.774 117.516 -531.183 111.154C-530.498 109.928 -529.408 109.802 -528.505 109.146C-528.785 110.753 -528.931 112.507 -529.346 113.923C-541.251 154.587 -552.647 196.794 -573.862 218.078C-589.431 233.718 -605.456 247.308 -621.471 260.771C-626.567 265.061 -632.255 266.055 -637.663 268.57C-633.926 260.137 -630.314 251.471 -626.443 243.356C-614.278 217.803 -603.629 186.332 -589.4 168.494C-568.745 142.582 -550.104 112.634 -533.747 75.8794C-522.049 49.5871 -511.649 20.5683 -500.679 -7.22463H-520.368C-534.971 21.3292 -549.897 49.122 -564.116 78.5635C-592.005 136.305 -620.506 192.927 -646.682 254.177C-658.213 281.167 -670.533 291.164 -685.946 292.157C-694.416 292.706 -702.906 291.967 -711.365 292.706C-713.617 292.897 -715.807 296.342 -718.028 298.307C-715.994 301.52 -714.063 307.1 -711.894 307.565C-702.408 309.594 -692.828 309.657 -683.341 311.601C-680.912 312.109 -678.785 318.47 -676.304 319.337C-673.242 320.415 -669.724 320.034 -666.838 317.752C-658.525 311.136 -650.491 302.809 -642.219 295.898C-604.979 264.85 -566.482 238.241 -539.59 168.346C-527.841 137.827 -517.285 105.152 -506.18 73.4699C-505.017 70.1517 -504.052 66.4107 -502.661 63.642C-500.772 59.8588 -498.572 56.8364 -496.506 53.4971C-497.492 58.168 -498.457 62.8811 -499.495 67.5098C-500.336 71.2507 -501.758 74.7169 -502.018 78.6058C-502.256 82.1143 -501.27 86.0032 -500.824 89.723C-498.831 87.9054 -495.966 87.3136 -494.991 84.0588C-491.773 73.1952 -489.594 60.8522 -486.262 50.2211C-485.037 46.3111 -481.674 45.5925 -479.277 43.3945C-479.152 48.3612 -478.197 54.1523 -479.038 58.1892C-486.314 93.1047 -493.6 128.062 -501.467 162.344C-516.6 228.286 -531.847 294.144 -547.821 359.114C-550 367.969 -556.404 375.409 -561.303 377.015C-584.521 384.539 -607.937 389.168 -631.196 396.206C-640.33 398.975 -649.246 405.104 -658.213 410.198C-659.469 410.916 -660.393 414.403 -661.472 416.602C-660.206 417.003 -658.909 417.997 -657.663 417.722C-625.353 410.578 -593.063 403.244 -560.753 396.227C-558.625 395.762 -556.394 397.538 -554.214 398.277C-555.397 402.695 -556.124 408.422 -557.847 411.318C-571.869 434.947 -586.068 458.048 -600.215 481.276C-602.581 485.165 -604.979 489.011 -607.355 492.879C-603.152 488.715 -598.762 485.249 -594.786 480.219C-586.286 469.482 -578.097 457.541 -569.513 447.121C-568.07 445.367 -563.545 448.136 -563.441 449.7C-562.009 472.652 -560.805 495.711 -560.328 518.833C-560.255 522.384 -564.469 530.225 -566.005 529.464C-579.581 522.764 -593.001 514.521 -606.473 506.807C-612.192 503.531 -610.137 498.268 -607.272 492.752C-621.845 505.476 -633.449 483.812 -646.308 476.774C-650.086 474.703 -653.896 472.991 -657.694 471.11C-654.29 476.457 -651.052 482.417 -647.44 486.982C-644.388 490.829 -640.88 492.879 -637.631 496.007C-635.431 498.12 -633.334 500.762 -631.196 503.172C-632.961 505.222 -634.808 507.018 -636.469 509.407C-637.247 510.527 -637.673 512.788 -638.265 514.521C-637.133 515.642 -635.774 518.284 -634.902 517.671C-609.649 500.192 -589.026 540.454 -565.465 544.491C-563.327 544.851 -560.878 555.524 -559.809 562.33C-558.179 572.686 -558.594 584.923 -556.352 594.371C-553.996 604.262 -549.897 605.657 -548.008 591.813C-547.312 586.72 -546.326 581.14 -546.669 576.173C-548.236 553.241 -542.911 551.36 -534.307 553.622C-523.492 556.475 -512.5 556.348 -501.602 557.807C-499.859 558.039 -498.146 559.793 -496.423 560.85C-497.139 563.915 -497.596 567.508 -498.624 569.98C-510.061 597.795 -521.042 624.235 -539.351 634.697C-571.444 653.042 -601.688 682.695 -629.121 724.374C-630.584 726.593 -631.705 729.869 -632.982 732.638C-631.259 731.623 -629.453 731.01 -627.823 729.51C-599.415 703.45 -571.039 677.221 -542.59 651.33C-540.576 649.492 -538.075 650.147 -535.802 649.661C-537.037 653.423 -538.345 657.058 -539.455 660.968C-540.078 663.166 -540.389 665.787 -540.836 668.217C-539.632 667.118 -538.345 666.315 -537.234 664.857C-528.214 653.063 -519.382 640.509 -510.165 629.519C-505.422 623.854 -503.761 626.834 -503.253 640.615C-501.633 683.752 -510.726 715.92 -521.862 748.891C-554.619 845.817 -591.901 931.563 -640.538 991.397C-642.416 993.722 -643.776 998.076 -645.374 1001.48C-643.371 999.915 -641.306 998.689 -639.386 996.723C-599.405 955.742 -567.811 892.484 -540.296 818.743C-529.616 790.126 -519.776 760.05 -509.47 730.778C-508.401 727.734 -506.782 725.6 -505.411 723.064C-504.903 726.826 -503.72 730.862 -504 734.329C-505.598 753.985 -507.114 773.767 -509.501 793.021C-512.345 815.911 -512.822 842.098 -524.779 854.567C-525.578 855.392 -525.91 858.351 -526.46 860.316C-525.288 860.189 -523.866 860.95 -522.973 859.788C-517.067 852.221 -517.316 860.612 -517.451 869.383C-517.638 880.965 -517.69 892.569 -517.804 904.172C-516.019 892.843 -513.632 881.769 -512.583 870.123C-510.58 847.952 -506.761 829.966 -498.447 814.178C-463.833 748.447 -429.623 681.554 -403.852 597.393C-403.052 594.772 -401.485 593.272 -400.281 591.243C-399.824 594.455 -398.994 597.647 -398.973 600.859C-398.87 619.31 -398.236 637.973 -399.295 656.128C-399.814 664.941 -402.938 674.389 -406.052 680.92C-425.731 722.324 -446.043 762.65 -459.359 815.636C-466.407 843.683 -471.991 873.462 -478.011 902.671C-478.789 906.455 -478.27 911.485 -478.353 915.944C-477.087 912.351 -475.333 909.181 -474.637 905.123C-465.514 852.158 -452.831 803.758 -435.228 762.058C-426.748 741.959 -417.427 723.507 -408.408 704.486C-407.111 701.738 -405.336 700.068 -403.779 697.891C-403.831 702.266 -403.519 706.832 -403.997 710.953C-412.342 783.088 -421.714 854.715 -428.959 927.379C-436.203 999.999 -442.41 1073.3 -446.956 1146.91C-449.219 1183.54 -446.769 1221.54 -446.364 1258.91C-446.344 1260.58 -445.482 1262.2 -445.015 1263.85C-444.683 1262.27 -444.174 1260.72 -444.06 1259.05C-443.863 1256.14 -443.718 1253.09 -443.863 1250.2C-447.786 1174.53 -442.991 1100.67 -434.47 1027.48C-424.143 938.707 -414.033 849.812 -403.748 761.001C-403.115 755.549 -401.682 750.518 -400.624 745.277C-400.177 751.321 -399.067 757.556 -399.388 763.39C-404.329 851.904 -409.487 940.356 -414.49 1028.85C-414.833 1034.89 -414.428 1041.15 -414.366 1047.3C-413.214 1041.61 -411.584 1036.14 -411.003 1030.18C-408.699 1006.32 -406.747 982.288 -404.578 958.363C-404.329 955.658 -403.54 953.185 -402.99 950.606C-402.689 953.227 -402.129 955.848 -402.108 958.49C-401.568 1022.72 -402.575 1087.22 -400.074 1151.07C-398.34 1195.44 -406.301 1228.26 -416.94 1262.08C-435.778 1321.95 -453.91 1382.89 -472.25 1443.5C-473.33 1447.07 -473.672 1451.7 -474.357 1455.85C-473.132 1452.8 -471.814 1449.89 -470.693 1446.65C-445.939 1375.49 -421.216 1304.28 -396.43 1233.21C-395.538 1230.65 -394.033 1229.11 -392.818 1227.08C-392.216 1230.23 -391.365 1233.27 -391.064 1236.55C-389.57 1253.26 -387.909 1269.96 -386.985 1286.83C-386.653 1292.83 -387.992 1299.49 -388.947 1305.57C-401.184 1383.99 -420.666 1454.32 -440.241 1524.6C-444.05 1538.25 -447.143 1552.94 -450.059 1567.61C-450.869 1571.69 -449.873 1577.46 -449.707 1582.45C-447.745 1579.8 -445.046 1578.18 -443.946 1574.37C-433.484 1538.13 -422.544 1502.39 -413.193 1464.81C-392.663 1382.29 -379.211 1293.51 -365.573 1204.8C-351.188 1111.21 -336.73 1017.5 -319.708 926.11C-308.768 867.375 -293.168 812.719 -279.592 756.33C-278.907 753.477 -277.568 751.385 -276.531 748.933C-275.908 752.125 -275.212 755.253 -274.673 758.507C-273.365 766.412 -272.13 774.38 -270.874 782.327C-271.289 768.843 -271.933 755.379 -272.057 741.895C-272.14 733.23 -271.58 724.501 -271.071 715.878C-270.957 713.912 -269.888 712.2 -269.265 710.361C-268.808 712.686 -267.874 715.096 -267.968 717.294C-268.86 738.957 -269.929 760.579 -270.947 782.2L-270.895 782.242ZM-90.339 307.226C-92.9857 297.715 -95.7776 288.353 -98.1752 278.525C-98.6215 276.686 -97.4798 273.029 -97.075 270.218C-93.2451 276.432 -88.9585 281.801 -85.9071 289.494C-85.2117 291.248 -88.7925 301.013 -90.4116 307.1C-92.3525 317.435 -93.8679 328.277 -96.4108 337.851C-97.6147 342.395 -101.279 347.975 -102.929 346.855C-105.565 345.059 -108.762 338.76 -109.405 333.096C-110.765 321.155 -111.398 308.22 -110.807 296.046C-110.506 289.811 -107.215 283.534 -104.61 279.116C-104.019 278.102 -100.479 284.252 -98.6631 287.972C-95.7258 294.017 -93.0998 300.759 -90.339 307.226ZM17.9674 757.26C17.355 748.51 16.5039 739.782 16.2237 730.968C16.0473 725.325 16.7115 719.534 17.0021 713.806C19.4101 719.365 23.157 724.184 23.8835 730.63C24.7969 738.683 23.3542 748.13 22.6484 756.859C22.3993 759.881 21.3199 762.587 20.6141 765.419C19.7008 762.608 18.7874 759.776 17.8844 756.965C17.9467 766.37 18.0193 775.775 18.0816 785.201C18.092 787.399 18.0816 789.619 18.0816 791.817C19.1091 790.401 20.7802 789.449 21.0708 787.505C23.292 772.901 25.5753 758.296 27.153 743.332C28.2532 732.87 29.8931 730.376 34.9892 732.828C44.7664 737.541 54.8653 739.084 64.6943 743.417C67.8081 744.791 71.5757 749.398 73.1637 755.041C78.4363 773.704 82.1728 794.501 87.7776 812.635C96.5064 840.893 95.0845 867.397 87.9955 895.57C85.2243 906.581 83.1173 909.329 77.3154 904.996C49.4162 884.199 28.2739 843.64 9.76791 796.107C-8.55129 749.039 -11.8415 687.937 -20.4043 631.865C-20.6222 630.406 -20.2797 628.546 -20.2071 626.877C-19.3871 628.103 -18.3596 628.969 -17.7887 630.618C-14.9967 638.691 -12.7341 647.801 -9.53735 655.008C3.43659 684.322 15.0198 715.201 17.9571 757.218L17.9674 757.26ZM-128.327 863.888C-127.195 864.205 -126.054 864.501 -124.922 864.818C-126.946 882.889 -127.289 902.967 -131.285 918.671C-145.037 972.735 -160.056 1025.28 -174.659 1078.33C-175.728 1082.19 -177.368 1085.34 -178.738 1088.81C-179.766 1084.27 -181.229 1079.98 -181.759 1075.18C-195.947 946.231 -210.135 817.285 -224.074 688.211C-226.503 665.766 -228.288 642.855 -229.337 619.923C-229.617 613.752 -226.856 604.072 -224.209 600.584C-212.304 584.881 -200.047 570.424 -187.643 556.665C-185.848 554.679 -181.146 557.194 -180.222 560.681C-172.345 590.545 -164.872 620.959 -157.669 651.626C-156.267 657.586 -155.852 665.576 -156.174 672.36C-157.98 710.763 -160.191 749.06 -162.152 787.421C-162.599 796.171 -162.64 805.005 -162.858 813.797C-161.685 804.751 -159.973 795.875 -159.423 786.639C-156.589 738.936 -154.088 691.128 -151.358 643.383C-151.182 640.361 -150.164 637.592 -149.531 634.697C-148.649 636.874 -147.528 638.797 -146.916 641.291C-142.702 658.643 -138.996 676.629 -134.336 693.39C-128.794 713.32 -127.226 731.792 -135.385 750.096C-135.997 751.448 -136.007 754.069 -136.298 756.098C-135.592 755.485 -134.772 755.21 -134.201 754.217C-128.493 744.178 -128.41 754.555 -128.368 762.354C-128.213 796.192 -128.306 830.05 -128.306 863.909L-128.327 863.888ZM390.589 268.591C391.264 303.295 386.801 338.422 377.833 370.823C368.284 405.358 368.191 405.231 349.789 397.411C346.301 395.931 342.378 396.079 339.441 392.465C335.102 387.118 330.048 380.735 327.816 371.795C321.713 347.278 316.835 321.281 311.656 295.687C309.871 286.873 308.604 277.574 307.099 268.506C310.732 273.537 314.271 278.947 318.029 283.491C326.28 293.488 335.621 300.526 342.71 313.461C351.366 329.271 358.154 349.941 365.814 368.371C366.738 370.59 368.098 371.9 369.26 373.634C369.26 370.252 369.862 366.046 369.167 363.658C366.105 353.196 363.396 341.487 359.234 333.455C343.084 302.344 326.384 272.586 309.974 242.087C303.986 230.949 296.865 221.142 292.651 207.278C278.785 161.689 265.998 114.557 252.848 67.9537C245.084 40.4496 248.606 24.6404 263.414 20.526C330.691 1.96924 390.734 117.516 390.589 268.549V268.591ZM-395.424 1100.84C-394.842 1100.84 -394.251 1100.84 -393.67 1100.84C-393.67 1046.16 -393.815 991.482 -393.638 936.805C-393.379 853.299 -389.767 770.66 -379.274 689.966C-378.713 685.675 -377.675 681.681 -376.866 677.559C-376.046 681.807 -374.811 685.908 -374.489 690.325C-372.154 722.408 -370.005 754.555 -367.784 786.681C-367.545 790.063 -367.182 793.402 -366.871 796.783C-366.071 793.529 -364.774 790.422 -364.577 786.998C-363.819 774.042 -363.632 760.917 -362.719 748.024C-362.542 745.509 -360.186 742.656 -358.64 741.916C-356.709 741.007 -354.571 742.128 -352.516 742.381C-352.558 737.816 -352.143 732.976 -352.724 728.749C-354.27 717.357 -356.107 706.134 -358.059 695.017C-365.386 653.254 -365.366 653.507 -347.15 632.837C-344.036 629.307 -341.618 622.903 -338.878 617.831C-341.753 620.684 -344.638 623.537 -347.503 626.433C-348.738 627.68 -349.89 629.603 -351.177 630.322C-355.848 632.9 -360.56 635.119 -365.262 637.465C-362.522 627.912 -360.342 617.281 -356.938 609.017C-342.044 572.813 -326.807 537.263 -311.674 501.544C-309.91 497.381 -307.948 493.597 -306.08 489.645C-305.499 495.521 -304.17 501.587 -304.471 507.251C-306.412 544.449 -308.716 581.563 -310.834 618.718C-310.989 621.466 -310.626 624.362 -310.512 627.173C-309.671 624.657 -308.311 622.354 -308.083 619.606C-305.997 594.455 -304.118 569.241 -302.167 544.026C-301.991 541.744 -301.721 539.503 -301.503 537.242C-301.16 539.609 -300.382 542.124 -300.537 544.301C-302.416 570.636 -303.848 597.245 -306.765 623.051C-307.678 631.125 -312.131 639.452 -315.909 643.362C-323.496 651.225 -331.799 655.705 -339.636 662.532C-341.244 663.927 -342.106 669.443 -343.31 673.057C-341.442 674.938 -339.532 678.616 -337.726 678.362C-331.488 677.454 -325.198 676.038 -319.085 673.205C-312.422 670.12 -310.719 674.664 -312.006 688.74C-315.784 730.144 -319.334 771.654 -322.811 813.206C-326.932 862.43 -331.602 911.168 -342.666 955.911C-352.236 994.61 -361.619 1033.56 -370.514 1073.02C-377.239 1102.89 -382.989 1133.76 -389.383 1163.99C-390.151 1167.62 -392.217 1169.95 -393.68 1172.89C-394.272 1169.08 -395.33 1165.3 -395.361 1161.49C-395.527 1141.27 -395.444 1121.04 -395.444 1100.84H-395.424ZM280.145 694.615C278.287 695.144 275.547 697.955 273.959 696.095C242.209 658.96 210.459 621.804 179.156 582.936C176.177 579.238 173.758 562.203 175.128 554.996C183.556 510.527 193.053 466.988 202.54 423.513C203.183 420.596 207.21 418.166 208.809 419.709C222.053 432.411 235.141 445.832 248.135 459.696C250.377 462.085 252.702 466.861 253.667 471.744C267.378 541.089 276.356 613.223 280.145 694.594V694.615ZM394.398 775.056C391.15 775.056 389.395 775.902 387.891 774.93C355.943 754.513 323.965 734.286 292.184 712.686C289.278 710.721 286.497 700.512 285.614 693.051C282.314 664.857 280.238 635.986 276.938 607.77C271.945 565.162 266.309 522.891 260.974 480.473C260.705 478.296 260.684 475.992 260.538 473.73C261.182 474.343 261.96 474.66 262.448 475.632C271.623 494.21 282.054 510.654 289.673 531.874C319.824 615.908 350.027 699.561 389.198 765.292C390.485 767.448 391.669 769.921 394.388 775.035L394.398 775.056ZM319.949 384.37C304.878 373.211 291.655 361.544 277.965 353.703C256.428 341.36 241.763 314.729 233.003 269.542C227.948 243.461 222.136 219.578 226.059 189.862C227.834 176.378 227.471 161.583 228.239 147.422C228.446 143.576 229.277 139.877 229.816 136.115C231.415 137.975 233.189 139.37 234.591 141.8C245.468 160.717 256.293 179.802 267.108 198.887C276.211 214.971 287.991 227.504 293.793 248.026C304.889 287.275 312.621 331.025 321.547 373.126C322.045 375.472 320.665 379.678 319.959 384.349L319.949 384.37ZM-58.7449 413.579C-59.7309 419.856 -60.5404 426.747 -61.8586 433.172C-68.0861 463.564 -74.2409 494.041 -80.8213 524.075C-92.913 579.301 -105.264 634.253 -117.605 689.226C-118.394 692.734 -119.992 695.376 -121.207 698.399C-121.798 694.89 -122.836 691.424 -122.898 687.894C-124.113 619.627 -125.441 551.381 -126.022 483.093C-126.095 474.618 -122.878 463.987 -119.743 457.815C-109.063 436.786 -97.8431 417.024 -86.5921 397.39C-83.8832 392.655 -80.209 390.647 -77.1367 386.78C-76.2338 385.638 -75.7874 382.468 -75.3307 380.059C-73.203 368.667 -71.148 357.211 -69.0721 345.777C-68.2107 347.447 -66.8406 348.8 -66.5811 350.829C-63.9033 371.372 -61.4019 392.021 -58.7345 413.643L-58.7449 413.579ZM-19.2522 474.956C-15.7544 458.682 -13.087 445.726 -10.1808 433.024C-8.77966 426.894 -6.94254 421.251 -5.30264 415.376C-3.23719 421.378 -0.735786 426.873 0.821086 433.446C13.328 486.137 25.8452 538.827 37.9784 591.919C47.465 633.408 56.308 675.615 65.67 717.251C68.9498 731.814 66.957 737.668 60.0133 735.153C52.2601 732.342 44.5692 728.432 36.9405 724.205C31.3046 721.077 30.4224 712.961 33.1936 702.435C37.2623 686.986 41.4035 671.62 45.3476 656.022C46.0119 653.38 45.8251 649.682 46.0327 646.49C44.7041 647.822 42.784 648.371 42.1301 650.633C38.4974 663.166 34.9165 675.847 31.782 689.015C25.8659 713.87 23.925 714.863 14.5319 694.806C12.6533 690.79 10.9304 685.506 10.1519 680.117C2.64781 627.934 -4.64875 575.624 -11.9245 523.293C-12.2774 520.756 -11.8623 517.692 -11.8104 514.881C-10.6064 515.599 -9.38163 516.149 -8.20878 517.058C-6.14333 518.664 -4.10903 520.482 -2.05396 522.194C-3.38249 517.945 -4.57608 513.465 -6.06029 509.491C-10.4299 497.782 -14.9033 486.264 -19.221 474.977L-19.2522 474.956ZM-57.9041 472.082C-57.956 472.082 -58.008 472.082 -58.0599 472.082C-58.4231 489.878 -59.1704 507.695 -59.077 525.47C-58.7449 589.446 -63.7164 649.724 -79.0257 706.261C-92.1553 754.766 -102.69 806.611 -114.533 856.808C-115.913 862.662 -118.342 867.354 -120.283 872.596C-120.625 866.297 -121.207 860.02 -121.269 853.722C-121.435 837.68 -120.771 821.491 -121.497 805.597C-123.988 751.026 -121.321 699.836 -104.839 654.923C-100.345 642.665 -98.0196 626.581 -94.8436 612.103C-83.8832 562.266 -72.9954 512.323 -62.0039 462.508C-61.2462 459.084 -59.8554 456.336 -58.7656 453.292C-58.475 457.181 -58.1221 461.049 -57.9145 464.959C-57.79 467.305 -57.8938 469.715 -57.8938 472.082H-57.9041ZM-506.906 546.224C-506.916 546.457 -506.927 546.689 -506.937 546.943C-513.445 545.654 -519.953 544.259 -526.471 543.096C-544.852 539.842 -544.78 539.863 -547.509 501.481C-548.796 483.347 -550.924 465.424 -551.754 447.206C-552.979 420.3 -545.755 402.927 -536.123 389.422C-533.518 385.765 -530.56 383.356 -527.758 380.355C-528.038 386.78 -528.246 393.205 -528.63 399.609C-528.765 401.891 -529.709 404.111 -529.657 406.288C-529.574 409.965 -528.993 413.6 -528.609 417.236C-527.478 415.08 -525.983 413.347 -525.267 410.663C-522.278 399.334 -520.264 386.357 -516.434 376.719C-513.995 370.59 -509.003 369.28 -505.152 365.813C-504.114 372.027 -502.651 378.051 -502.101 384.455C-498.198 429.748 -494.731 475.252 -490.6 520.439C-488.867 539.334 -490.549 545.717 -499.537 546.182C-501.986 546.309 -504.446 546.182 -506.906 546.182V546.224ZM-402.014 557.933C-403.737 563.407 -404.755 566.937 -405.907 570.255C-415.435 597.773 -424.215 626.75 -434.688 652.472C-455.498 703.577 -477.201 752.949 -498.644 802.828C-499.962 805.893 -502.184 807.14 -503.979 809.253C-503.626 805.301 -503.471 801.222 -502.879 797.46C-494.098 741.789 -485.307 686.119 -476.402 630.554C-471.617 600.69 -471.067 600.458 -459.017 617.915C-457.937 619.479 -456.702 620.515 -455.54 621.783C-456.266 619.014 -457.055 616.288 -457.719 613.435C-458.996 608.003 -465.504 602.127 -458.778 596.632C-441.393 582.429 -423.696 570.044 -406.093 557.151C-405.087 556.412 -403.789 557.574 -402.014 557.976V557.933ZM-495.281 392.317C-493.88 350.998 -495.25 358.247 -479.298 345.587C-473.911 341.318 -468.638 336.287 -463.251 331.976C-460.044 329.418 -456.723 327.559 -453.453 325.382C-454.564 331.891 -455.727 338.38 -456.764 344.953C-457.19 347.616 -457.346 350.469 -457.626 353.238C-456.515 351.399 -455.125 350.004 -454.336 347.637C-450.547 336.161 -447.018 324.283 -443.157 312.933C-442.503 311.01 -440.708 310.925 -439.452 309.995C-439.12 312.552 -438.238 315.49 -438.549 317.604C-443.24 348.99 -446.479 382.067 -453.319 411.085C-460.875 443.105 -471.752 471.405 -481.228 501.27C-482.121 504.081 -483.294 506.49 -484.331 509.09C-485.307 505.877 -486.895 502.876 -487.165 499.41C-489.988 463.754 -492.604 428.036 -495.271 392.317H-495.281ZM266.06 373.232C285.843 383.102 305.875 391.894 325.543 403.54C332.964 407.936 339.669 418.546 346.405 427.381C347.412 428.712 347.433 439.301 346.862 439.787C335.331 449.657 323 468.975 312.123 465.741C287.898 458.534 262.718 445.515 253.263 384.032C252.889 381.58 252.837 378.875 252.64 376.275C253.418 377.797 254.238 379.234 254.965 380.883C259.013 390.204 258.816 390.013 261.078 380.059C261.711 377.29 263.839 376.127 266.071 373.19L266.06 373.232ZM-397.603 475.062C-398.081 475.273 -398.558 475.485 -399.046 475.675C-399.046 482.797 -399.326 489.983 -398.984 497.021C-398.278 511.457 -400.925 519.002 -407.598 521.602C-420.199 526.526 -432.706 532.613 -445.275 537.813C-446.987 538.531 -448.897 537.009 -450.713 536.523C-450.226 532.719 -450.039 528.555 -449.198 525.174C-442.192 497 -435.165 468.869 -427.942 440.971C-422.596 420.321 -417.033 399.947 -411.356 379.72C-410.505 376.698 -408.46 375.282 -406.965 373.105C-406.415 376.275 -405.637 379.361 -405.357 382.658C-402.731 413.431 -400.177 444.247 -397.614 475.062H-397.603ZM-479.443 199.479C-479.806 197.281 -481.768 191.701 -481.311 187.347C-479.173 167.12 -475.976 149.811 -468.68 132.818C-457.719 107.329 -450.796 73.6602 -442.036 43.6269C-440.967 39.9705 -439.193 37.2862 -437.739 34.1582C-437.21 39.6111 -436.349 45.0429 -436.214 50.5381C-435.819 67.4463 -435.736 84.3757 -435.404 101.305C-435.383 102.277 -434.366 103.44 -433.712 104.01C-427.807 109.104 -425.814 126.35 -430.287 137.214C-435.01 148.69 -440.749 158.328 -445.046 170.46C-453.173 193.392 -463.978 200.852 -479.453 199.479H-479.443ZM170.167 545.506C168.953 538.447 168.112 533.734 167.323 528.978C158.117 472.822 162.331 415.08 163.244 357.782C163.286 355.415 167.23 350.448 167.894 351.442C175.315 362.305 183.868 371.731 189.099 386.568C191.901 394.536 188.673 412.248 188.528 425.563C188.435 433.51 189.13 441.478 189.306 449.467C189.421 454.497 189.929 460.225 189.057 464.473C184.169 488.335 178.958 511.88 173.758 535.424C173.115 538.341 171.911 540.666 170.157 545.506H170.167ZM-430.09 215.098C-430.453 263.561 -439.442 293.235 -457.273 309.741C-465.296 317.16 -473.381 324.304 -481.581 330.792C-484.965 333.476 -488.701 334.068 -492.282 335.611C-491.773 324.684 -491.483 313.694 -490.632 302.915C-490.403 300.04 -488.535 297.673 -487.331 295.285C-477.284 275.27 -467.652 254.071 -456.982 235.789C-450.828 225.243 -443.085 218.86 -435.788 211.864C-434.2 210.342 -431.512 214.21 -430.1 215.098H-430.09ZM148.018 517.734C147.468 522.025 146.741 527.773 146.015 533.522C144.292 528.576 142.548 523.673 140.867 518.685C140.556 517.776 140.472 516.487 140.306 515.346C132.449 459.697 124.364 404.174 116.943 348.25C115.604 338.147 116.85 326.354 117.109 315.385C117.171 312.595 118.033 309.889 118.521 307.142C119.455 309.488 120.378 311.855 121.323 314.201C122.008 315.892 122.714 317.519 123.409 319.168C123.482 316.97 123.16 313.863 123.7 312.743C125.08 309.911 126.98 305.705 128.433 306.106C135.075 307.924 138.231 317.963 138.916 331.659C141.977 393.015 144.936 454.392 148.028 517.734H148.018ZM203.308 249.95C203.681 269.923 202.426 277.975 195.212 268.147C186.66 256.502 177.505 246.758 169.368 233.908C165.943 228.497 163.089 217.718 162.393 208.524C160.286 180.457 159.311 151.988 158.044 123.645C157.878 119.862 158.584 115.888 158.885 112C160.888 113.331 163.452 113.437 164.749 116.29C166.545 120.264 167.624 126.076 168.569 131.465C170.883 144.78 172.824 158.37 175.191 171.643C175.647 174.201 177.329 175.723 178.45 177.73C178.772 175.067 179.498 172.299 179.353 169.762C178.803 159.765 177.91 149.853 177.287 139.856C177.1 136.812 177.37 133.642 177.422 130.535C178.18 132.881 179.104 135.037 179.654 137.573C186.245 167.585 192.846 197.576 199.281 227.737C201.201 236.761 202.633 246.272 203.297 249.971L203.308 249.95ZM100.129 292.685C99.7863 300.083 99.8174 302.492 99.5475 304.775C96.33 332.758 68.3063 363.172 55.9343 351.294C54.201 349.624 52.4885 341.127 52.8933 336.689C55.2389 310.502 58.3008 284.612 60.9475 258.552C62.0269 247.9 63.6772 242.172 69.2196 248.682C77.3776 258.277 85.9924 266.118 93.9532 276.411C97.0046 280.342 98.7795 288.965 100.139 292.706L100.129 292.685ZM22.4616 370.738C23.1777 370.083 23.8939 369.406 24.6101 368.751C24.6101 363.404 24.2675 357.909 24.7865 352.815C24.9941 350.829 27.5785 347.827 28.3465 348.63C36.0064 356.641 37.5633 370.146 33.8268 387.498C32.8304 392.127 33.6295 398.594 33.6088 404.237C36.2658 402.103 40.2514 401.638 41.3309 397.538C45.1712 382.954 48.8765 387.667 51.7412 397.347C61.4768 430.276 71.0464 463.501 79.9413 497.529C81.2387 502.474 78.8411 512.662 77.3569 519.636C77.1389 520.693 72.1673 518.706 70.0499 515.832C52.6337 492.203 40.4175 458.809 32.1453 418.229C28.9174 402.399 25.6895 386.589 22.4616 370.759V370.738ZM134.722 651.436C134.006 654.226 133.695 656.762 132.948 658.178C126.357 670.606 119.839 683.287 112.874 694.679C111.816 696.412 107.467 693.368 106.543 690.029C95.51 650.379 84.7365 610.391 74.2639 570.023C73.3194 566.366 74.9593 559.54 75.3952 554.192C77.2842 555.397 79.5469 555.545 80.9896 557.976C97.3368 585.769 113.559 613.879 129.803 641.967C131.463 644.842 132.999 648.075 134.733 651.436H134.722ZM66.7909 592.025C68.2544 596.252 69.8216 600.225 71.1086 604.579C78.3429 629.117 85.3489 653.972 92.7492 678.257C103.627 713.996 103.595 713.722 84.4251 727.777C77.8655 732.575 74.3885 729.32 71.5965 715.73C67.2476 694.573 62.1618 674.114 57.4185 653.317C53.5679 636.43 57.1072 606.249 64.1962 595.216C64.8397 594.223 65.5766 593.504 66.7909 592.003V592.025ZM143.804 587.607C142.393 599.739 141.469 605.974 140.971 612.378C139.601 629.984 136.694 629.836 131.775 617.239C122.423 593.335 112.625 570.234 103.367 546.161C98.4889 533.48 93.5588 520.313 90.2686 505.645C88.8259 499.198 91.4206 488.44 92.1887 479.627C94.9807 481.783 98.1982 482.67 100.492 486.327C109.501 500.657 119.278 513.739 126.741 531.366C134.037 548.613 138.864 570.847 143.804 587.607ZM63.2412 579.301C60.3766 589.171 57.3044 598.915 54.6473 609.165C51.5647 621.064 49.8003 618.613 47.4442 607.813C38.1756 565.542 28.6579 523.525 19.2233 481.402C15.767 465.953 12.2485 450.545 8.87531 434.989C8.3356 432.516 8.38744 429.41 8.16948 426.599C9.12436 426.599 10.4529 425.711 10.9719 426.746C20.3754 445.451 31.0867 462.106 38.6323 483.918C47.4027 509.259 53.4018 539.144 60.5635 567.106C61.4768 570.657 62.1826 574.461 63.2412 579.301ZM64.8604 363.848C77.1908 365.433 86.9576 352.688 95.6865 335.738C100.409 326.565 101.924 328.658 103.512 341.233C108.007 376.762 98.987 405.886 94.3372 437.018C94.14 438.308 89.5628 438.963 88.2758 436.638C79.2252 420.406 70.4132 403.498 61.7051 386.399C58.3734 379.868 55.4984 372.217 52.4158 365.074C56.5674 364.672 60.7191 364.249 64.8708 363.848H64.8604ZM-313.511 384.37C-316.812 404.216 -319.251 427.423 -324.534 446.994C-327.056 456.336 -334.975 458.767 -340.445 464.325C-343.123 447.966 -349.444 429.388 -347.69 415.756C-344.472 390.732 -336.75 368.244 -330.253 345.608C-328.883 340.832 -324.69 337.978 -321.784 337.957C-320.299 337.957 -318.224 345.735 -317.435 350.744C-315.857 360.804 -314.975 371.393 -313.511 384.391V384.37ZM-150.652 546.161C-149.988 524.603 -154.949 499.093 -143.21 483.6C-141.477 481.318 -139.495 479.902 -137.626 478.084C-136.786 482.227 -135.343 486.285 -135.198 490.533C-134.554 509.449 -134.284 528.428 -133.869 547.387C-133.028 585.895 -132.146 624.404 -131.409 662.934C-131.347 665.914 -132.25 668.999 -132.696 672.043C-133.361 670.31 -134.274 668.788 -134.648 666.78C-141.965 627.87 -156.247 593.462 -150.663 546.161H-150.652ZM-155.977 453.546C-153.486 473.836 -158.364 484.784 -169.065 485.946C-170.684 486.116 -172.438 488.694 -173.85 487.849C-177.96 485.418 -184 484.171 -185.443 478.126C-187.54 469.334 -187.851 455.385 -186.149 446.022C-181.426 419.962 -168.857 404.385 -165.308 375.916C-164.799 371.858 -162.069 369.132 -160.377 365.771C-159.63 370.717 -158.416 375.578 -158.219 380.629C-157.347 403.73 -156.766 426.873 -155.977 453.546ZM-540.047 367.758C-539.621 360.466 -539.943 354.569 -538.915 350.216C-524.302 288.501 -509.522 226.954 -494.711 165.472C-494.14 163.105 -492.905 161.477 -491.981 159.491C-491.97 162.767 -491.586 166.275 -492.002 169.276C-497.731 211.399 -501.748 255.276 -510.041 294.905C-515.5 321.028 -527.145 341.022 -536.071 363.658C-536.549 364.883 -537.514 365.201 -540.067 367.758H-540.047ZM-136.495 411.571C-135.654 412.417 -134.803 413.262 -133.963 414.108C-137.128 430.72 -140.003 447.628 -143.667 463.691C-144.591 467.749 -148.037 469.059 -150.32 471.638C-151.088 466.861 -152.365 462.169 -152.541 457.266C-153.506 430.699 -153.257 403.751 -155.271 377.607C-157.243 352.075 -153.59 332.314 -146.283 314.222C-145.037 311.136 -142.826 309.932 -141.062 307.839C-140.159 311.855 -138.093 316.716 -138.561 319.717C-140.47 331.849 -140.273 342.079 -138.467 355.119C-136.018 372.767 -136.993 392.655 -136.505 411.571H-136.495ZM-366.321 393.458C-365.916 429.557 -369.528 462.888 -380.519 491.019C-381.692 494.02 -383.135 496.556 -384.453 499.304C-385.47 495.5 -387.017 491.949 -387.432 487.849C-389.113 471.067 -390.639 454.201 -391.895 437.23C-395.008 394.938 -394.936 394.896 -376.907 378.283C-367.275 369.385 -365.978 371.224 -366.331 393.458H-366.321ZM-32.8282 536.883C-30.6797 526.209 -28.3651 514.226 -25.8429 502.453C-25.1994 499.452 -23.8917 497.127 -22.8953 494.506C-21.93 497.761 -20.6015 500.741 -20.0514 504.292C-11.8727 557.236 -3.78726 610.222 4.25658 663.272C4.73402 666.442 4.65099 669.993 4.83781 673.374C3.5508 671.557 1.76556 670.373 1.0494 667.816C-9.79681 628.948 -20.5288 589.932 -31.1675 550.79C-32.0912 547.366 -32.1431 542.822 -32.8178 536.904L-32.8282 536.883ZM-253.146 420.258C-254.049 436.046 -255.108 456.082 -256.436 476.055C-256.686 479.733 -258.326 486.306 -258.824 486.073C-264.615 483.558 -270.76 481.804 -275.825 475.886C-278.202 473.117 -279.81 461.366 -279.395 454.349C-278.503 439.174 -277.475 422.519 -273.884 410.029C-270.262 397.411 -263.494 389.062 -258.097 378.854C-256.447 390.626 -254.797 402.42 -253.157 414.192C-253.084 414.742 -253.157 415.376 -253.157 420.258H-253.146ZM55.1663 259.249C52.8829 281.103 50.6929 302.999 48.2019 324.748C47.8074 328.15 46.043 330.792 44.9013 333.793C44.0502 330.877 43.0019 328.129 42.3896 324.98C38.3728 304.31 33.4323 284.104 30.8687 262.589C29.1665 248.28 30.6507 231.964 31.3254 216.683C31.4291 214.294 35.1553 210.11 36.7121 210.976C49.0841 217.782 54.0246 232.154 55.1559 259.249H55.1663ZM115.49 751.723C115.293 752.97 115.116 754.745 114.753 756.288C110.02 776.303 105.339 796.382 100.316 816.017C100.015 817.221 95.8422 816.334 95.2713 814.178C91.4622 799.764 88.3899 784.419 84.6015 769.963C76.2671 738.175 77.9796 740.141 90.6318 731.01C92.9567 729.341 95.1364 726.741 97.3679 724.501C104.228 717.653 115.718 734.582 115.479 751.702L115.49 751.723ZM162.642 252.655C163.265 251.788 166.337 245.152 167.406 246.42C177.91 258.953 188.331 272.036 198.149 286.915C200.163 289.959 200.236 301.287 199.935 308.558C199.748 313.123 197.464 320.33 195.679 321.028C178.855 327.664 163.442 298.434 162.642 252.634V252.655ZM-367.888 575.011C-364.919 552.628 -370.182 517.354 -352.329 505.412C-349.039 503.214 -345.49 502.791 -342.054 501.544C-341.784 512.049 -339.636 524.814 -341.618 532.634C-347.109 554.34 -354.25 574.102 -360.923 594.328C-362.096 597.879 -364.193 600.014 -365.864 602.783C-366.538 598.027 -367.338 593.314 -367.825 588.474C-368.106 585.642 -367.877 582.556 -367.877 575.032L-367.888 575.011ZM91.8565 158.201C90.5592 161.033 88.4522 167.712 85.5357 171.411C82.069 175.828 77.9173 177.625 74.0771 180.626C69.1262 184.515 67.3306 180.964 67.1023 169.382C66.5522 141.631 65.3794 113.923 64.5698 86.1934C64.4764 83.0654 65.0784 79.8317 65.3586 76.6402C66.6975 78.3945 68.0883 80.0008 69.365 81.9452C78.4467 95.7677 80.3772 117.389 82.4842 138.863C82.6918 140.997 83.1069 143.026 83.4287 145.119C83.9476 143.407 84.643 141.822 84.9752 139.941C86.0027 134.065 86.9057 128.062 87.8502 122.123C88.8155 128.591 89.8742 134.995 90.7253 141.547C91.1612 144.928 91.2234 148.564 91.8669 158.222L91.8565 158.201ZM280.373 188.636C279.024 188.298 277.934 188.742 277.332 187.77C271.437 178.301 263.964 170.988 260.092 158.455C249.786 125.061 240.891 89.575 231.84 54.4059C230.74 50.1577 232.172 42.8237 232.421 36.9269C234.715 39.5477 237.922 40.8792 239.147 45.0006C252.121 88.8564 264.784 133.156 277.519 177.35C278.38 180.351 279.096 183.585 280.373 188.636ZM178.377 643.7C177.37 633.196 176.353 623.347 175.523 613.435C175.326 611.046 175.72 608.447 175.834 605.932C176.447 607.792 177.246 609.461 177.63 611.511C184.605 648.266 191.538 685.041 198.44 721.859C198.71 723.317 198.596 725.135 198.658 726.783C197.641 725.388 196.375 724.437 195.638 722.514C187.604 701.548 179.54 680.645 171.734 659.298C167.334 647.251 161.978 635.436 159.819 621.487C158.636 613.815 163.182 601.958 165.144 591.982C167.188 597.773 169.929 602.973 171.112 609.504C173.105 620.473 174.039 632.33 175.585 643.7C175.814 645.412 176.934 646.554 177.64 647.97C177.91 646.406 178.18 644.842 178.377 643.7ZM-382.751 1266.85C-383.633 1264.61 -384.474 1263.47 -384.536 1262.16C-385.439 1242.48 -389.611 1219.49 -386.373 1203.74C-378.641 1166.04 -367.4 1131.74 -357.561 1096.08C-357.156 1094.62 -356.523 1093.48 -356.004 1092.19C-355.921 1094.18 -355.526 1096.4 -355.786 1098.13C-364.079 1151.62 -372.423 1205.05 -380.799 1258.48C-381.215 1261.1 -381.952 1263.49 -382.74 1266.87L-382.751 1266.85ZM-285.685 577.695H-285.156C-285.156 567.571 -285.446 557.405 -285.073 547.366C-284.678 536.819 -283.64 526.399 -282.883 515.916C-278.575 518.136 -274.206 519.869 -270.002 522.785C-267.895 524.244 -264.283 529.274 -264.449 530.309C-269.172 559.455 -274.216 588.347 -279.457 617.07C-279.893 619.479 -282.208 622.016 -283.381 621.508C-284.346 621.086 -285.508 616.33 -285.571 613.392C-285.82 601.514 -285.675 589.594 -285.675 577.695H-285.685ZM-127.787 376.043C-127.963 376.043 -128.14 376.043 -128.327 376.043C-128.327 364.165 -128.472 352.287 -128.233 340.43C-128.171 337.196 -126.905 334.089 -126.199 330.94C-119.172 341.022 -112.094 350.955 -105.233 361.523C-104.724 362.305 -105.295 368.413 -106.105 370.886C-111.191 386.315 -116.432 401.511 -121.777 416.517C-122.68 419.032 -124.341 420.279 -125.649 422.097C-126.365 418.609 -127.621 415.186 -127.704 411.635C-127.963 399.778 -127.808 387.9 -127.808 376.022L-127.787 376.043ZM-460.947 583.697C-461.591 582.049 -463.179 578.561 -463.044 578.202C-459.536 569.029 -456.505 554.784 -452.083 552.248C-436.556 543.308 -420.541 538.341 -404.682 532.127C-403.26 531.578 -401.682 532.804 -400.177 533.205C-401.226 536.164 -401.994 540.75 -403.353 541.828C-415.424 551.381 -427.568 560.47 -439.743 569.368C-446.468 574.292 -453.308 578.561 -460.947 583.697ZM-447.579 459.295C-448.15 458.767 -448.721 458.217 -449.291 457.689C-448.586 452.743 -448.191 447.459 -447.122 442.936C-437.511 402.399 -427.817 361.988 -418.019 321.662C-417.407 319.126 -415.819 317.688 -414.698 315.744C-413.66 320.119 -411.304 325.445 -411.802 328.721C-415.009 349.877 -417.562 372.302 -422.814 391.007C-429.146 413.558 -437.947 432.833 -445.669 453.567C-446.354 455.406 -446.946 457.393 -447.589 459.316L-447.579 459.295ZM107.737 393.247C108.577 397.094 109.138 399.038 109.449 401.152C113.518 428.839 117.576 456.526 121.531 484.298C121.873 486.686 121.416 489.603 121.333 492.266C120.109 491.315 118.749 490.787 117.669 489.328C97.4405 461.979 95.4893 447.924 105.484 401.912C106.014 399.482 106.709 397.199 107.737 393.268V393.247ZM-155.188 268.359C-157.43 258.805 -158.769 255.551 -158.935 252.021C-160.045 227.863 -160.948 203.642 -161.779 179.421C-161.862 176.906 -161.052 174.243 -160.658 171.643C-159.267 173.081 -157.233 173.715 -156.579 176.103C-152.292 191.828 -145.992 207.277 -145.006 224.122C-144.29 236.275 -150.766 250.415 -155.198 268.359H-155.188ZM214.248 357.676C227.284 358.458 237.85 379.467 238.815 402.906C238.867 404.111 235.992 407.809 235.12 407.006C227.595 400.137 220.008 393.289 212.94 384.56C211.051 382.236 209.878 373.105 210.21 367.631C210.49 363.129 213.49 359.431 214.258 357.676H214.248ZM-205.558 444.183C-210.82 469.123 -216.155 494.506 -221.604 519.784C-221.936 521.327 -223.171 521.919 -223.991 522.954C-224.199 520.693 -224.739 518.305 -224.562 516.212C-221.926 485.439 -219.258 454.666 -216.29 424.041C-216.145 422.583 -212.149 420.66 -211.682 421.949C-209.564 427.761 -208.08 434.672 -205.568 444.183H-205.558ZM113.829 930.866C111.67 931.521 110.269 932.895 109.159 932.134C104.747 929.175 100.181 926.554 96.1743 921.799C93.5069 918.629 89.459 910.724 89.8949 907.279C91.4622 895.063 94.6693 883.84 97.3887 872.385C97.4509 872.131 99.5787 873.103 99.9212 874.477C104.374 892.061 108.671 909.836 113.808 930.845L113.829 930.866ZM-360.425 226.067C-363.383 234.204 -367.12 245.427 -371.375 255.677C-372.901 259.355 -375.662 260.623 -377.862 263.011C-378.62 256.988 -380.55 250.246 -379.886 245.089C-378.589 234.986 -376.44 224.756 -373.534 216.429C-370.555 207.869 -366.248 201.486 -362.522 194.174C-361.93 203.241 -361.328 212.329 -360.425 226.088V226.067ZM-32.9008 360.868C-31.4581 362.326 -30.9806 362.918 -30.4721 363.32C-15.4119 375.134 -11.9972 392.19 -18.4738 423.132C-19.0343 425.817 -19.3975 428.797 -20.1344 431.227C-20.7883 433.404 -21.8366 435.032 -22.7085 436.892C-23.269 434.989 -24.0681 433.235 -24.3691 431.143C-27.2649 410.768 -30.1088 390.373 -32.8593 369.914C-33.2018 367.399 -32.9008 364.461 -32.9008 360.825V360.868ZM-190.155 524.223C-190.84 523.314 -188.567 524.772 -187.747 528.006C-187.218 530.077 -188.391 536.629 -189.553 537.897C-198.677 547.852 -207.966 557.088 -217.255 566.324C-218.054 567.127 -219.206 566.261 -220.203 566.176C-219.881 563.999 -219.59 561.78 -219.217 559.624C-214.629 533.374 -205.247 523.335 -190.155 524.244V524.223ZM94.8873 216.852C94.7212 218.669 94.2853 223.171 93.8597 227.673C91.7009 226.067 89.2618 225.369 87.435 222.706C82.9305 216.154 78.5193 209.18 74.5337 201.275C73.7034 199.627 74.212 190.644 75.2292 189.397C90.0506 171.178 92.8011 174.328 94.607 210.49C94.6693 211.653 94.7109 212.836 94.8873 216.873V216.852ZM-25.6665 272.903C-24.8154 268.274 -23.8086 261.468 -22.2621 255.297C-21.93 253.965 -18.7229 253.817 -18.4011 255.043C-13.5333 273.537 -8.87304 292.305 -4.36849 311.242C-3.99484 312.806 -4.98085 318.048 -5.46867 318.132C-13.0558 319.569 -26.0194 291.734 -25.6769 272.903H-25.6665ZM5.97949 357.803C6.92399 359.198 7.54672 359.621 7.77506 360.509C13.9507 385.004 20.0951 409.521 26.2084 434.102C26.416 434.926 26.1981 436.236 26.1773 437.335C25.4923 436.743 24.662 436.49 24.143 435.475C16.8257 421.188 9.02058 407.788 2.60627 391.768C0.800298 387.266 2.94877 374.881 3.63379 366.236C3.87252 363.235 5.15955 360.635 5.98988 357.803H5.97949ZM-20.6534 201.973C-24.6597 200.599 -29.6521 161.414 -26.8498 153.319C-22.3141 140.215 -13.6578 140.532 -13.3465 154.545C-13.004 169.805 -17.0518 185.529 -19.2626 201C-19.3456 201.592 -20.1656 201.698 -20.6534 201.973ZM-376.17 352.71C-382.813 346.073 -388.47 340.43 -394.116 334.787C-389.943 324.198 -385.771 313.588 -381.599 302.999C-378.433 315.427 -375.07 327.664 -372.309 340.514C-371.905 342.374 -374.344 347.13 -376.17 352.71ZM156.145 193.223C155.74 197.281 155.045 204.171 154.349 211.061C151.173 203.706 147.945 196.414 144.873 188.869C144.448 187.833 144.552 185.339 144.707 183.669C146.181 168.22 147.645 152.77 149.316 137.404C149.575 135.016 150.852 133.156 151.651 131.042C152.18 133.663 153.021 136.178 153.187 138.884C154.204 155.898 155.055 172.954 156.145 193.223ZM-289.318 674.283C-294.331 702.562 -299.282 730.567 -304.305 758.486C-304.523 759.733 -305.436 760.389 -306.018 761.319C-306.132 759.628 -306.464 757.873 -306.339 756.267C-304.025 727.777 -301.845 699.202 -299.084 670.923C-298.69 666.844 -295.4 664.117 -293.449 660.757C-292.276 664.624 -291.092 668.471 -289.318 674.283ZM-308.685 461.028C-309.09 466.164 -309.017 467.559 -309.297 468.447C-315.691 488.842 -322.095 509.238 -328.623 529.443C-329.059 530.796 -330.481 530.627 -331.447 531.176C-331.654 527.942 -332.443 524.201 -331.955 521.581C-330.004 511.224 -328.032 500.72 -325.333 491.251C-322.157 480.092 -318.421 469.609 -314.446 459.739C-313.719 457.921 -310.709 460.478 -308.685 461.028ZM139.653 116.142C140.047 116.396 140.441 116.649 140.825 116.903C139.082 133.367 137.473 149.916 135.48 166.233C135.075 169.53 133.217 171.96 132.024 174.793C131.287 171.263 129.813 167.607 129.938 164.246C130.924 138.334 132.169 112.486 133.487 86.6372C133.612 84.1432 134.816 81.9029 135.522 79.5569C136.622 81.7339 138.542 83.6783 138.687 86.13C139.3 96.0424 139.372 106.124 139.642 116.142H139.653ZM181.771 706.261C181.065 706.641 180.277 707.55 180.027 707.106C169.358 687.07 158.646 667.14 148.361 646.216C147.696 644.863 150.416 635.648 151.557 630.089C152.844 633.09 154.215 635.944 155.408 639.114C156.238 641.312 156.674 644.229 157.546 646.342C165.216 665.026 172.938 683.604 180.629 702.245C180.982 703.112 181.2 704.232 181.771 706.282V706.261ZM-23.6841 229.956C-25.9779 239.784 -27.5348 246.484 -29.102 253.162C-30.1814 251.789 -31.7591 251.006 -32.2469 248.956C-36.0146 233.147 -39.7199 217.253 -43.0516 201.021C-43.6328 198.21 -42.7195 193.159 -41.8372 190.052C-41.3909 188.488 -38.7027 187.601 -38.3083 188.657C-33.2848 202.226 -28.5001 216.197 -23.6841 229.977V229.956ZM-360.955 265.526C-361.878 286.197 -362.605 303.866 -363.508 321.472C-363.643 324.135 -364.546 326.607 -365.096 329.165C-365.646 327.96 -366.269 326.882 -366.736 325.551C-373.866 304.986 -374.25 281.653 -367.628 263.011C-366.009 258.446 -363.996 254.536 -362.158 250.309C-361.691 256.311 -361.214 262.314 -360.965 265.505L-360.955 265.526ZM99.0908 9.76811C103.388 24.436 107.571 33.4186 108.816 44.0285C112.241 73.2375 114.452 103.144 117.088 132.797C117.265 134.826 116.984 137.045 116.912 139.18C116.486 137.742 115.895 136.411 115.646 134.826C109.833 97.1837 104.042 59.5418 98.3228 21.8364C98.0633 20.1245 98.5407 17.8629 99.0805 9.76811H99.0908ZM-44.7745 380.841C-44.0168 379.911 -43.2591 378.96 -42.5015 378.03C-42.2627 372.196 -42.1694 366.321 -41.7127 360.593C-41.5674 358.733 -40.4776 357.211 -39.8237 355.542C-39.2217 357.275 -38.3083 358.818 -38.0696 360.762C-34.904 386.42 -31.8006 412.121 -28.7803 437.864C-28.5415 439.893 -29.0086 442.302 -29.1539 444.521C-30.1711 442.915 -31.6449 441.774 -32.1223 439.597C-36.44 420.11 -40.5917 400.454 -44.7849 380.841H-44.7745ZM-154.42 546.055C-154.264 546.076 -154.119 546.119 -153.963 546.14C-154.43 555.82 -154.897 565.5 -155.364 575.18C-157.98 567.254 -160.595 559.349 -163.19 551.403C-163.813 549.479 -164.664 547.577 -164.882 545.4C-165.546 538.785 -167.415 529.844 -166.138 525.829C-164.021 519.15 -159.817 515.62 -156.496 510.759C-155.8 518.389 -154.991 525.998 -154.472 533.691C-154.191 537.728 -154.42 541.934 -154.42 546.055ZM229.827 96.9512C229.827 92.8299 229.733 88.6874 229.868 84.5871C229.941 82.3891 230.377 80.2544 230.657 78.0986C231.498 79.1976 232.639 79.8317 233.127 81.438C238.991 100.544 244.793 119.735 250.46 139.116C250.772 140.194 249.588 145.076 249.277 144.992C242.012 143.111 229.66 112.486 229.827 96.9724V96.9512ZM-163.865 226.637C-164.104 231.055 -164.498 238.199 -164.892 245.321C-167.767 240.08 -172.563 235.641 -173.113 229.427C-174.171 217.401 -173.227 204.234 -172.303 191.806C-171.981 187.453 -169.324 183.923 -167.726 179.992C-166.916 184.599 -165.712 189.059 -165.38 193.814C-164.674 203.727 -164.425 213.766 -163.865 226.637ZM54.9795 154.186C54.7926 156.003 54.4605 159.258 54.1388 162.534C52.5196 160.822 50.5579 159.892 49.3228 157.293C43.3237 144.632 43.2199 105.638 49.0011 88.4548C49.354 87.398 50.0493 86.8697 50.589 86.0877C50.9938 88.2435 51.6477 90.3359 51.7723 92.5551C52.8621 112.528 53.8689 132.543 54.9795 154.186ZM-195.947 402.526C-195.781 399.292 -195.718 397.242 -195.563 395.213C-193.726 372.387 -191.899 349.56 -189.989 326.755C-189.813 324.6 -189.086 322.676 -188.619 320.626C-187.758 322.507 -186.689 324.135 -186.066 326.354C-180.793 345.312 -185.101 384.751 -194.006 399.63C-194.411 400.306 -194.847 400.898 -195.936 402.526H-195.947ZM85.1828 516.445C86.4283 518.791 87.3313 520.08 87.9851 521.834C95.4996 542.061 102.983 562.329 110.446 582.64C110.923 583.93 111.151 585.663 111.494 587.185C110.56 586.72 109.387 586.889 108.723 585.705C100.129 570.298 91.4725 554.996 83.19 538.827C81.9237 536.354 82.0587 529.464 82.2974 524.793C82.4427 522.003 84.0307 519.573 85.1724 516.445H85.1828ZM43.1472 56.9633C42.0263 68.3341 41.3828 77.1686 40.2307 85.7072C39.5041 91.0756 38.0303 95.9367 36.8886 101.03C36.1309 95.2393 34.8854 89.5116 34.7194 83.636C34.3976 72.0539 36.2451 58.2314 27.1322 59.4995C26.7586 59.5418 26.0943 49.8829 25.5753 44.747C30.5988 46.3744 35.6639 47.537 40.594 49.9887C41.8395 50.6016 42.6282 55.4627 43.1368 56.9421L43.1472 56.9633ZM-7.18126 213.956C-6.47548 213.386 -5.76971 212.836 -5.05355 212.265C-5.05355 204.593 -5.20923 196.921 -4.98089 189.291C-4.88747 186.163 -3.96373 183.141 -3.42401 180.076C-2.50027 182.613 -0.964147 184.938 -0.756564 187.727C0.955995 209.772 2.45056 231.879 3.88288 254.008C3.99705 255.825 3.24982 257.918 2.90731 259.883C2.02508 258.784 0.634219 258.108 0.322844 256.48C-2.2927 242.404 -4.72142 228.159 -7.20204 213.956H-7.18126ZM-236.944 432.242C-235.554 419.983 -233.644 402.293 -231.475 384.751C-231.122 381.919 -229.638 379.763 -228.672 377.311C-228.029 380.376 -226.659 383.694 -226.866 386.484C-228.184 404.491 -229.679 422.477 -231.464 440.294C-232.263 448.241 -233.872 455.829 -235.118 463.564C-235.606 455.237 -236.093 446.91 -236.944 432.263V432.242ZM-49.4971 253.395C-48.7913 252.528 -48.0751 251.662 -47.3693 250.774C-47.3693 248.407 -47.5561 245.955 -47.3278 243.715C-46.8815 239.319 -46.1964 235.049 -45.6152 230.717C-44.3178 234.119 -42.678 237.163 -41.775 241.01C-39.1906 252.042 -36.7203 263.223 -34.6133 274.72C-34.0425 277.848 -34.302 283.893 -35.288 285.626C-36.3467 287.486 -39.6991 287.423 -40.3219 285.52C-43.6743 275.27 -46.4871 264.195 -49.4867 253.416L-49.4971 253.395ZM160.971 360.339C160.255 361.481 159.549 362.622 158.833 363.763C158.314 376.17 157.806 388.576 157.256 400.983C157.183 402.716 156.944 404.428 156.788 406.161C156.238 404.428 155.377 402.843 155.18 400.94C152.917 379.551 150.686 358.12 148.724 336.583C148.61 335.357 150.872 333.117 152.024 331.342C155.003 341.022 157.982 350.681 160.961 360.361L160.971 360.339ZM-82.3678 189.545C-82.482 193.92 -82.3367 198.781 -82.8764 203.241C-83.0632 204.826 -84.9211 205.481 -86.0109 206.538C-87.9829 187.875 -90.1522 169.297 -91.6986 150.466C-91.9166 147.866 -89.0831 144.083 -87.6715 140.828C-86.4987 144.59 -84.6097 148.099 -84.2879 152.178C-83.3227 164.373 -82.9698 176.8 -82.3678 189.524V189.545ZM-498.167 664.688C-497.731 653.571 -497.295 646.554 -497.212 639.516C-497.056 625.651 -493.963 617.408 -487.684 615.337C-485.961 614.766 -484.145 615.59 -482.38 615.781C-482.795 619.099 -482.878 622.819 -483.667 625.63C-487.321 638.691 -491.109 651.584 -494.98 664.35C-495.614 666.442 -496.921 667.541 -497.918 669.105C-498.084 666.273 -498.239 663.462 -498.167 664.688ZM-40.9654 466.058C-41.173 465.974 -41.3806 465.889 -41.5882 465.805C-40.8616 458.661 -40.1454 451.517 -39.4189 444.373C-37.094 449.932 -34.7275 455.406 -32.4648 461.07C-31.7694 462.825 -30.7108 465.382 -30.8769 467.073C-32.0186 478.126 -33.3782 489.074 -34.8728 499.938C-35.0181 500.995 -37.3431 501.713 -37.3534 501.65C-38.6301 493.407 -39.9171 485.143 -40.8927 476.689C-41.2767 473.35 -40.955 469.63 -40.955 466.079L-40.9654 466.058ZM-172.583 277.362C-175.624 273.537 -180.638 270.853 -181.385 265.378C-182.371 258.235 -179.984 248.872 -179.06 240.481C-175.874 244.92 -172.687 249.337 -169.521 253.818C-169.075 254.452 -168.629 255.234 -168.318 256.142C-166.771 260.644 -165.276 265.231 -163.761 269.775C-166.314 271.973 -168.868 274.171 -172.594 277.362H-172.583ZM-439.494 455.723C-438.705 456.061 -438.269 456.251 -437.822 456.421C-438.082 458.09 -438.217 459.887 -438.611 461.387C-444.745 485.017 -450.869 508.646 -457.107 532.148C-457.699 534.389 -459.006 535.741 -459.982 537.517C-460.086 534.811 -460.574 531.852 -460.231 529.443C-458.643 518.178 -457.75 505.729 -454.875 496.176C-450.454 481.529 -444.621 468.911 -439.494 455.702V455.723ZM-469.385 106.251C-469.759 104.222 -470.133 102.975 -470.205 101.664C-471.119 85.9608 -460.262 44.1552 -453.609 37.7512C-452.634 36.8213 -451.606 36.1449 -450.61 35.3629C-450.838 38.0048 -450.745 41.0696 -451.336 43.2465C-456.661 62.6487 -462.11 81.8817 -467.538 101.136C-467.953 102.615 -468.524 103.884 -469.385 106.251ZM221.419 171.643C221.212 175.575 220.932 183.204 220.33 190.729C220.143 193.096 219.095 195.146 218.441 197.344C217.776 195.611 216.79 194.089 216.521 192.102C214.922 180.457 213.012 168.854 212.296 156.912C212.068 153.087 215.15 148.31 216.718 143.956C218.285 147.845 220.299 151.269 221.274 155.75C222.011 159.11 221.419 163.823 221.419 171.643ZM-211.63 200.683C-213.249 213.322 -214.391 224.904 -216.29 235.874C-217.131 240.714 -219.507 244.264 -221.189 248.407C-222.268 241.517 -224.801 233.802 -224.095 227.927C-222.818 217.38 -219.674 207.869 -217.141 198.147C-216.414 195.378 -215.086 193.392 -214.027 191.024C-213.187 194.406 -212.346 197.788 -211.63 200.662V200.683ZM137.961 516.191C137.847 517.037 137.639 518.537 137.442 520.038C136.404 518.305 134.754 517.037 134.411 514.796C128.443 476.034 122.631 437.166 116.839 398.277C116.621 396.798 116.985 394.917 117.078 393.205C117.763 395.276 118.718 397.157 119.081 399.461C123.357 426.387 127.488 453.419 131.764 480.325C133.643 492.097 135.781 503.679 137.95 516.17L137.961 516.191ZM-114.72 439.724C-115.311 439.364 -115.768 439.09 -116.214 438.815C-115.851 437.293 -115.602 435.581 -115.124 434.292C-108.627 416.897 -102.213 399.313 -95.4455 382.447C-94.2415 379.446 -91.4599 379.446 -89.4152 378.072C-89.9342 382.679 -89.7889 388.703 -91.0966 391.683C-97.4591 406.14 -104.174 419.835 -110.838 433.658C-112 436.067 -113.474 437.8 -114.72 439.724ZM-356.959 486.01C-358.484 484.594 -360.218 483.368 -360.186 482.988C-358.754 468.912 -357.177 454.92 -355.474 440.992C-355.443 440.696 -353.004 440.802 -352.817 441.753C-350.907 451.411 -347.856 461.387 -348.032 471.025C-348.126 476.267 -353.803 481.022 -356.969 485.989L-356.959 486.01ZM-476.122 582.197C-475.25 584.479 -474.367 586.762 -473.496 589.045C-476.205 591.729 -478.81 595.279 -481.643 596.843C-485.151 598.809 -488.857 599.126 -492.479 600.162C-492.168 593.948 -492.022 587.65 -491.483 581.52C-491.078 576.934 -490.414 572.221 -489.376 568.184C-488.504 564.845 -486.905 562.393 -485.629 559.561C-485.868 563.048 -486.096 566.514 -486.335 570.002C-486.625 574.44 -486.916 578.9 -487.206 583.338C-485.567 581.034 -483.989 578.498 -482.276 576.49C-481.041 575.032 -479.163 572.58 -478.415 573.573C-477.274 575.095 -476.858 579.195 -476.132 582.218L-476.122 582.197ZM153.602 535.889C155.159 524.518 156.664 513.549 158.169 502.58C159.83 512.471 161.542 522.32 163.109 532.296C163.639 535.636 163.95 539.25 164.054 542.779C164.22 548.359 164.127 554.002 164.137 559.603C161.594 556.602 158.667 554.488 156.643 550.304C155.076 547.049 154.661 541.194 153.602 535.889ZM-350.212 238.769C-352.423 270.155 -354.457 299.575 -356.616 328.954C-356.803 331.426 -357.82 333.624 -358.443 335.928C-358.692 334.364 -359.242 332.737 -359.159 331.257C-357.55 300.59 -355.941 269.901 -354.094 239.297C-353.917 236.444 -352.215 234.014 -351.219 231.393C-350.804 234.415 -350.389 237.459 -350.212 238.769ZM-173.632 287.824C-169.719 293.467 -167.788 296.257 -165.847 299.047C-169.366 309.868 -172.884 320.711 -176.403 331.532C-177.711 323.078 -180.098 314.56 -179.953 306.233C-179.849 300.484 -176.258 295.031 -173.632 287.824ZM-207.001 336.52C-205.973 330.031 -204.51 320.795 -203.036 311.538C-202.06 312.278 -200.306 312.722 -200.223 313.799C-199.496 323.078 -199.019 332.462 -198.614 341.846C-198.521 344.107 -198.853 346.58 -199.185 348.821C-200.078 354.781 -201.064 360.656 -202.019 366.553C-203.472 360.572 -205.049 354.717 -206.305 348.567C-206.835 345.989 -206.668 342.755 -207.001 336.52ZM89.2099 467.791C87.1133 475.506 85.9819 480.05 84.5808 484.171C84.4666 484.509 82.1106 482.523 81.519 480.578C77.7617 468.277 74.1186 455.786 70.6831 443.063C70.2264 441.372 71.1917 437.885 71.4927 435.222C77.3257 445.958 83.1692 456.695 89.2099 467.791ZM246.963 437.737C246.755 439.174 246.558 440.611 246.35 442.049C244.658 441.605 242.707 442.196 241.327 440.527C231.591 428.691 221.97 416.433 212.369 404.132C211.705 403.286 211.435 400.919 210.988 399.271C211.756 399.651 212.576 399.757 213.282 400.433C222.758 409.458 232.266 418.335 241.628 427.867C243.672 429.938 245.198 434.398 246.963 437.758V437.737ZM130.208 681.469C127.8 694.362 125.942 705.437 123.648 716.089C122.714 720.401 120.846 723.761 119.392 727.544C117.971 724.12 115.947 721.14 115.293 717.125C114.618 712.961 114.39 705.944 115.511 703.408C119.05 695.419 123.285 688.845 127.332 681.998C127.862 681.089 128.92 681.66 130.187 681.49L130.208 681.469ZM-478.166 515.155C-477.492 509.914 -477.409 506.828 -476.744 504.546C-469.977 481.593 -463.148 458.703 -456.214 435.983C-455.488 433.616 -453.962 432.39 -452.81 430.635C-453.007 433.468 -452.81 436.87 -453.474 439.047C-460.636 462.74 -467.932 486.264 -475.229 509.766C-475.654 511.14 -476.433 512.027 -478.166 515.134V515.155ZM102.163 179.146C102.163 179.146 102.464 176.462 102.765 173.736C103.575 176.441 104.82 178.935 105.111 181.873C107.021 200.979 108.858 220.149 110.373 239.424C110.726 243.863 109.75 248.787 109.377 253.5C107.965 249.104 105.63 245.025 105.308 240.27C103.969 220.952 103.243 201.423 102.153 179.146H102.163ZM-153.32 619.627C-154.7 628.462 -155.354 632.562 -155.997 636.683C-156.465 635.394 -157.087 634.253 -157.378 632.774C-162.495 606.693 -167.581 580.59 -172.646 554.467C-172.936 552.988 -172.915 551.212 -173.04 549.585C-172.614 549.902 -171.971 549.923 -171.805 550.557C-165.432 574.271 -159.09 598.048 -153.33 619.627H-153.32ZM-257.111 345.502C-259.664 352.16 -262.218 359.177 -264.999 365.729C-265.529 366.976 -266.94 366.426 -267.947 366.701C-267.542 359.896 -267.189 353.069 -266.722 346.284C-266.567 343.96 -266.234 341.656 -265.85 339.458C-264.522 331.912 -263.131 324.409 -261.771 316.885C-260.37 325.466 -258.979 334.047 -257.111 345.502ZM127.582 85.6861C127.582 88.6239 127.737 91.6252 127.55 94.4996C126.98 103.186 126.263 111.831 125.599 120.496C124.665 112.317 123.617 104.201 122.818 95.9579C122.039 87.9054 121.313 79.7682 120.939 71.5889C120.7 66.2416 121.126 60.7465 121.25 55.3358C123.347 60.1758 126.035 64.3606 127.353 70.046C128.329 74.252 127.55 80.4023 127.571 85.7072L127.582 85.6861ZM-48.9988 497.994C-49.2272 498.078 -49.4555 498.163 -49.6839 498.247C-50.2651 522.532 -50.7737 546.816 -51.5002 571.08C-51.6144 574.757 -52.725 578.308 -53.3685 581.901C-53.6487 578.033 -54.2299 574.123 -54.1573 570.298C-53.6902 546.013 -53.1194 521.729 -52.4759 497.465C-52.2268 487.933 -51.7078 478.443 -51.303 468.933C-50.535 478.613 -49.7669 488.314 -48.9884 497.994H-48.9988ZM-72.3519 320.626C-76.0469 336.161 -79.5758 351.357 -83.3746 366.236C-83.7067 367.547 -86.3118 367.948 -86.8723 366.701C-87.713 364.799 -88.3773 360.234 -87.8791 358.268C-84.4955 344.826 -80.8317 331.743 -77.1367 318.682C-76.6489 316.97 -75.4968 315.152 -74.6768 315.216C-74.0126 315.258 -73.3898 318.069 -72.3519 320.647V320.626ZM-331.166 275.523C-334.612 285.309 -337.819 294.587 -341.13 303.676C-341.525 304.775 -342.511 304.838 -343.227 305.388C-342.511 296.786 -341.815 288.162 -341.058 279.56C-340.798 276.644 -340.58 273.6 -340.02 270.958C-338.878 265.611 -337.518 260.496 -336.242 255.276C-334.716 261.342 -333.201 267.407 -331.166 275.502V275.523ZM-32.5998 309.298C-29.2473 312.912 -27.4829 313.504 -26.9535 315.575C-23.9332 327.368 -21.1931 339.521 -18.4219 351.61C-18.3596 351.864 -19.3041 353.597 -19.356 353.513C-23.9851 345.376 -28.9464 337.873 -32.9631 328.467C-34.1878 325.593 -32.8489 317.498 -32.6102 309.298H-32.5998ZM-420.614 290.551C-424.184 306.191 -426.852 318.513 -429.799 330.518C-431.273 336.52 -433.245 341.93 -434.999 347.616C-434.501 340.726 -434.553 333.35 -433.391 327.051C-431.18 315.046 -428.398 303.528 -425.544 292.178C-425.16 290.656 -423.001 291.248 -420.624 290.572L-420.614 290.551ZM-228.184 493.048C-228.018 493.133 -227.852 493.217 -227.697 493.302C-229.648 511.224 -231.527 529.189 -233.633 547.028C-233.986 550.05 -235.325 552.544 -236.197 555.291C-236.799 551.698 -238.273 547.577 -237.879 544.618C-235.087 523.504 -231.931 502.622 -228.818 481.719C-228.651 480.642 -227.852 479.986 -227.354 479.141C-227.302 480.282 -227.147 481.466 -227.23 482.565C-227.499 486.073 -227.863 489.561 -228.195 493.069L-228.184 493.048ZM157.515 249.252C157.214 251.028 156.519 255.128 155.823 259.228C154.464 256.607 153 254.198 151.765 251.323C150.654 248.745 149.399 245.976 148.869 242.764C147.644 235.24 146.814 227.398 145.932 219.642C145.932 219.578 147.644 217.909 147.935 218.479C151.028 224.693 154.121 230.949 156.903 237.797C157.629 239.615 157.266 243.525 157.525 249.252H157.515ZM-275.513 692.269C-276.313 689.564 -277.174 687.958 -277.049 686.88C-275.41 672.994 -273.739 659.108 -271.704 645.476C-271.486 644.039 -268.881 644.313 -267.387 643.785C-267.335 647.061 -266.805 650.717 -267.303 653.507C-269.161 663.906 -271.32 674.03 -273.427 684.196C-273.936 686.647 -274.642 688.888 -275.513 692.248V692.269ZM-256.135 310.608C-255.886 308.579 -255.419 304.775 -254.952 300.97C-253.281 303.422 -251.382 305.409 -250.001 308.473C-248.714 311.327 -246.908 315.807 -247.178 318.745C-247.832 325.593 -249.597 331.955 -250.904 338.507C-252.254 333.984 -253.852 329.693 -254.859 324.832C-255.617 321.176 -255.627 316.758 -256.135 310.608ZM209.909 123.096C211.653 114.62 212.41 110.964 213.168 107.286C216.282 114.071 219.51 120.665 222.333 127.999C222.582 128.633 219.416 137.087 219.178 136.791C216.022 132.881 213.106 128.041 209.909 123.096ZM-226.918 186.354C-225.123 180.753 -222.86 173.715 -220.608 166.677C-219.445 169.91 -217.006 174.074 -217.338 176.187C-219.03 186.924 -221.438 197.111 -223.597 207.489C-224.489 201.782 -225.392 196.076 -226.918 186.332V186.354ZM25.5234 133.938C23.4684 138.757 21.787 142.942 21.7039 142.815C17.8636 136.052 14.1479 128.908 10.4218 121.806C11.8437 118.805 14.3036 112.845 14.5319 113.225C18.1957 119.312 21.569 126.224 25.5131 133.938H25.5234ZM20.8839 358.691C20.6141 360.614 20.2612 363.172 19.9083 365.75C19.2855 364.862 18.393 364.313 18.0712 363.045C15.7152 353.809 13.0684 344.763 11.4078 334.935C10.8265 331.511 12.7467 326.079 13.5252 321.556C14.9782 324.452 17.1682 326.798 17.7495 330.391C19.161 339.225 19.8356 348.609 20.8943 358.691H20.8839ZM158.127 25.9578C156.238 34.264 154.744 40.7948 153.26 47.3467C152.014 36.5677 150.499 25.8944 149.689 14.9674C149.44 11.5858 151.132 7.54889 151.941 3.80794C153.965 11.0573 155.989 18.3068 158.127 25.9578ZM-112.364 319.379C-113.796 324.515 -114.657 327.601 -115.508 330.665C-118.757 324.896 -122.006 319.147 -125.254 313.377C-122.826 309.107 -120.397 304.838 -117.968 300.59C-116.131 306.74 -114.294 312.891 -112.364 319.379ZM-8.25028 212.878C-8.03232 216.429 -7.34733 221.227 -7.63794 225.707C-7.78325 227.884 -9.74492 229.512 -10.8866 231.393C-11.7481 222.305 -13.5852 213.005 -13.1804 204.192C-12.7756 195.294 -10.16 186.882 -8.50976 178.259C-8.42672 187.643 -8.33331 197.027 -8.25028 206.432C-8.2399 208.207 -8.25028 209.962 -8.25028 212.878ZM-0.611241 339.31C-3.65233 348.504 -5.42715 353.893 -7.21236 359.283C-9.40236 350.089 -11.582 340.895 -13.772 331.701C-12.5888 330.496 -11.1046 327.643 -10.2846 328.362C-7.2539 331.004 -4.43078 334.85 -0.62163 339.31H-0.611241ZM-474.305 233.464C-478.716 242.32 -482.826 250.563 -486.926 258.805C-487.476 257.347 -488.618 255.572 -488.493 254.473C-487.746 247.773 -487.559 239.276 -485.546 235.134C-483.553 231.012 -479.65 231.182 -476.557 229.85C-476.101 229.66 -475.457 231.541 -474.305 233.464ZM-397.365 365.666C-394.573 361.523 -392.663 356.387 -391.075 356.81C-388.003 357.634 -385.107 361.607 -382.138 364.292C-385.522 369.005 -388.823 374.141 -392.414 377.882C-392.891 378.368 -394.925 371.795 -397.354 365.666H-397.365ZM-171.732 367.399C-172.708 359.114 -173.549 356.049 -173.154 354.633C-170.227 344.129 -167.103 333.857 -163.823 323.86C-163.616 323.205 -161.581 325.382 -160.398 326.248C-163.73 338.38 -167.072 350.49 -171.732 367.42V367.399ZM-185.007 147.591C-183.668 140.892 -182.506 135.122 -181.354 129.331C-179.299 134.318 -175.334 140.004 -175.645 144.168C-176.123 150.593 -179.537 155.961 -181.696 161.794C-182.734 157.335 -183.782 152.854 -185.007 147.591ZM258.079 424.802C255.972 424.802 254.311 425.626 254.062 424.675C250.408 410.705 246.931 396.523 243.486 382.299C243.486 382.257 244.959 380.397 244.98 380.481C249.142 394.346 253.232 408.295 258.079 424.823V424.802ZM-298.42 452.088C-296.241 444.902 -294.569 439.428 -292.898 433.933C-291.653 440.167 -289.536 446.318 -289.442 452.637C-289.37 457.498 -291.819 462.55 -293.158 467.495C-294.767 462.782 -296.375 458.069 -298.42 452.067V452.088ZM87.7361 239.889C85.4007 239.551 84.6535 239.889 84.1137 239.297C78.3118 232.957 72.4683 226.743 66.8324 219.747C65.9087 218.606 65.9606 213.766 65.5662 210.638C67.1127 210.976 69.0225 210.152 70.1538 211.843C75.0631 219.156 79.7441 227.208 84.5082 234.986C85.1413 236.022 85.8055 236.973 87.7361 239.889ZM112.719 213.491C112.719 214.358 112.719 209.856 112.719 205.333C114.338 208.863 115.998 212.308 117.566 215.943C118.095 217.19 118.728 218.965 118.707 220.466C118.593 227.863 118.344 235.261 117.96 242.616C117.908 243.567 116.798 244.264 116.175 245.089C115.199 238.664 114.161 232.281 113.269 225.792C112.968 223.594 113.04 221.163 112.708 213.47L112.719 213.491ZM-281.056 363.679C-279.239 348.757 -277.548 333.899 -275.544 319.231C-275.181 316.547 -273.572 314.645 -272.545 312.405C-272.576 315.194 -272.358 318.111 -272.669 320.732C-274.434 335.569 -276.302 350.364 -278.212 365.116C-278.492 367.251 -279.188 369.111 -279.696 371.097C-280.132 368.751 -280.558 366.405 -281.056 363.7V363.679ZM45.2127 193.18C42.5452 184.557 40.3137 178.407 38.788 171.538C38.4558 170.058 40.6459 165.916 41.6838 162.978C44.0814 169.657 46.5931 176.166 48.7416 183.204C48.9803 183.986 47.2055 187.664 45.223 193.159L45.2127 193.18ZM-127.278 304.563C-128.233 300.294 -129.593 296.468 -129.24 295.454C-127.403 290.17 -125.337 284.929 -122.857 281.272C-122.193 280.3 -119.774 284.929 -118.165 287C-120.947 292.347 -123.729 297.715 -127.289 304.563H-127.278ZM358.902 418.292C358.237 420.554 357.978 422.35 357.656 422.393C354.771 422.794 351.532 424.718 349.052 422.583C345.99 419.962 343.551 413.875 340.852 409.289C343.758 410.071 346.665 410.726 349.56 411.698C351.709 412.417 353.857 413.283 355.944 414.573C356.992 415.228 357.905 416.982 358.902 418.292ZM-395.019 129.542C-396.244 136.495 -397.655 144.463 -399.067 152.41C-400.655 146.049 -402.461 139.877 -403.706 133.219C-404.225 130.451 -403.519 126.625 -403.374 123.265C-402.305 125.357 -401.361 128.147 -400.105 129.288C-399.326 129.986 -397.977 128.506 -397.043 127.386C-396.462 126.689 -396.181 124.85 -395.766 123.518C-395.579 124.998 -395.403 126.456 -395.019 129.542ZM-197.223 499.283C-194.712 502.918 -193.144 505.18 -191.577 507.441C-194.452 510.717 -197.213 514.775 -200.254 516.931C-201.552 517.84 -203.441 514.775 -205.06 513.528C-202.631 509.111 -200.202 504.715 -197.223 499.304V499.283ZM130.965 269.5C129.969 273.368 129.19 276.369 128.412 279.37C126.295 276.411 122.537 273.748 122.423 270.43C122.226 265.104 124.416 259.334 125.599 253.775C127.249 258.594 128.9 263.434 130.965 269.5ZM-237.962 290.699C-235.616 285.647 -234.111 280.913 -232.035 278.736C-231.309 277.975 -229.191 283.576 -227.707 286.281C-229.7 291.481 -231.703 296.659 -233.696 301.858C-234.796 298.984 -235.886 296.109 -237.962 290.699ZM-296.531 248.639C-297.922 256.459 -298.929 262.124 -299.935 267.809C-301.015 260.158 -302.395 252.613 -303.039 244.772C-303.288 241.728 -301.866 238.051 -301.212 234.669C-299.655 239.34 -298.088 243.99 -296.531 248.639ZM-148.026 298.434C-150.891 305.367 -153.32 311.221 -155.738 317.075C-156.288 314.117 -157.679 310.164 -157.233 308.368C-155.717 302.239 -153.558 296.849 -151.638 291.185C-150.621 293.214 -149.614 295.243 -148.026 298.413V298.434ZM-189.896 157.863C-190.757 163.612 -191.826 170.735 -192.895 177.857C-193.186 170.883 -193.477 163.887 -193.757 156.912C-193.778 156.341 -193.778 155.728 -193.715 155.158C-193.134 149.367 -192.553 143.576 -191.961 137.785C-191.349 143.724 -190.736 149.684 -189.896 157.863ZM-138.851 142.54C-140.346 147.021 -141.415 150.212 -142.484 153.425C-144.279 149.473 -146.085 145.52 -147.881 141.568C-146.127 138.398 -144.383 135.227 -142.629 132.078C-141.508 135.185 -140.387 138.292 -138.851 142.561V142.54ZM-499.495 335.907C-502.619 340.81 -505.048 344.953 -507.685 348.377C-508.048 348.842 -509.397 345.735 -510.29 344.277C-507.902 338.338 -505.515 332.377 -503.118 326.438C-502.287 328.615 -501.447 330.792 -499.495 335.886V335.907ZM-217.234 111.112C-219.113 102.827 -221.251 97.4584 -220.691 95.049C-219.508 89.9765 -216.923 86.447 -214.91 82.2833C-214.308 84.3969 -213.01 86.9331 -213.218 88.5394C-214.058 94.88 -215.356 100.946 -217.234 111.112ZM-350.887 385.047C-351.894 382.003 -352.641 380.65 -352.527 379.932C-351.125 371.288 -349.693 362.664 -347.97 354.337C-347.794 353.449 -345.697 354.443 -344.493 354.569C-346.486 364.08 -348.489 373.591 -350.887 385.025V385.047ZM27.3086 96.8879C26.0528 101.643 25.0771 105.3 24.1015 108.956C22.7315 104.412 20.5103 100.058 20.2716 95.2393C20.1055 91.752 22.5654 87.6517 23.8524 83.8262C24.963 88.0532 26.0839 92.2593 27.2983 96.8879H27.3086ZM67.0815 38.026C69.8735 49.5447 72.0013 58.2525 74.0356 67.0659C74.0459 67.1293 72.2919 69.3908 72.2504 69.2429C69.8632 62.0569 67.4552 54.8497 65.369 47.241C65.0369 46.0363 66.1267 42.9505 67.0919 38.026H67.0815ZM-136.142 16.8907C-139.339 19.1733 -141.487 22.3014 -143.304 21.5616C-144.996 20.8853 -146.345 16.1086 -147.839 13.1497C-146.148 9.89487 -144.601 6.09053 -142.671 3.78678C-142.255 3.27954 -140.501 8.01389 -136.132 16.9119L-136.142 16.8907ZM-279.717 712.39C-281.045 720.126 -282.166 727.375 -283.526 734.434C-284.772 740.923 -286.256 747.179 -287.636 753.541C-287.065 747.221 -286.64 740.817 -285.903 734.603C-285.021 727.164 -283.952 719.809 -282.758 712.559C-282.467 710.784 -281.357 709.664 -280.63 708.227C-280.298 709.748 -279.976 711.27 -279.727 712.39H-279.717ZM186.753 41.6613C186.151 41.0061 185.809 40.9005 185.694 40.4778C182.778 29.8044 179.882 19.0888 177.038 8.30977C176.976 8.07728 177.671 6.91482 178.014 6.17508C181.096 16.5948 184.21 26.9934 187.22 37.5399C187.449 38.3431 186.94 40.1396 186.753 41.6613ZM152.118 590.122C153.488 585.135 154.765 580.485 156.041 575.856C157.235 578.583 159.684 582.535 159.414 583.845C158.293 589.34 156.353 594.054 154.723 599.042C153.965 596.442 153.197 593.821 152.118 590.122ZM-153.361 42.1051C-155.728 46.8817 -157.253 50.2422 -158.987 52.9898C-159.122 53.2012 -161.613 48.5092 -161.426 47.072C-160.834 42.5067 -159.485 38.4276 -158.437 34.1372C-157.087 36.2507 -155.748 38.3642 -153.361 42.1051Z" fill="#004520"/>
</g>
</g>
<defs>
<clipPath id="clip0_338_10">
<rect width="532" height="360" fill="white"/>
</clipPath>
<clipPath id="clip1_338_10">
<rect width="1216" height="1986" fill="white" transform="matrix(1 0 0 -1 -772 1977)"/>
</clipPath>
</defs>
</svg>
