<svg width="532" height="360" viewBox="0 0 532 360" fill="none" xmlns="http://www.w3.org/2000/svg">
<g clip-path="url(#clip0_338_18)">
<rect width="532" height="360" fill="#FAAB28"/>
<g clip-path="url(#clip1_338_18)">
<path d="M-270.895 59.2424C-272.555 150.758 -275.679 242.316 -275.513 333.811C-275.264 464.026 -273.521 594.325 -270.604 724.392C-268.84 802.74 -264.2 880.962 -252.005 955.739C-250.199 966.813 -247.521 977.423 -244.584 987.315C-243.172 992.07 -240.224 994.67 -237.962 998.263C-237.422 991.901 -235.948 985.138 -236.509 979.283C-239.602 946.672 -244.646 914.652 -246.317 881.765C-251.33 783.105 -256.945 684.319 -258.886 585.279C-261.325 461.088 -261.585 336.538 -260.453 212.241C-259.592 117.217 -255.108 22.3401 -252.191 -72.5997C-252.067 -76.7422 -251.787 -80.9482 -251.226 -84.9005C-250.801 -87.9017 -249.825 -90.5436 -249.098 -93.3334C-248.289 -90.4802 -246.763 -87.5847 -246.784 -84.7525C-246.857 -71.1625 -246.369 -57.0441 -247.853 -44.067C-255.305 21.4102 -249.545 84.7316 -242.176 147.968C-239.757 168.744 -237.339 189.499 -234.786 210.191C-234.474 212.685 -233.343 214.693 -232.596 216.933C-232.533 214.101 -232.201 211.163 -232.45 208.479C-237.194 157.162 -243.058 106.184 -246.379 54.4236C-248.227 25.595 -245.912 -4.50171 -245.289 -34.0277C-245.227 -36.7542 -243.784 -39.3538 -242.975 -42.0168C-242.477 -39.4172 -241.688 -36.902 -241.511 -34.1967C-239.197 1.09924 -237.245 36.522 -234.557 71.6911C-233.841 81.054 -230.945 89.6349 -229.046 98.5963C-229.191 89.1066 -228.932 79.4901 -229.565 70.1694C-230.997 49.013 -233.509 28.089 -234.287 6.84801C-234.692 -4.24803 -232.357 -15.8091 -231.226 -27.1588C-231.132 -28.131 -230.727 -28.9552 -230.468 -29.8428C-229.939 -27.9195 -229.139 -26.1019 -228.932 -24.0306C-227.448 -9.51069 -226.129 5.09375 -224.666 19.6348C-212.647 139.409 -200.451 259.098 -188.858 379.062C-187.685 391.257 -188.412 407.32 -191.224 417.824C-206.264 474.044 -215.2 535.019 -222.787 597.263C-223.14 600.137 -223.67 603.054 -223.659 605.949C-223.659 609.098 -223.13 612.248 -222.829 615.397C-221.677 613.156 -220.058 611.402 -219.466 608.612C-215.927 591.873 -212.782 574.732 -209.222 558.036C-202.548 526.755 -195.76 495.581 -188.806 464.575C-187.602 459.228 -185.381 454.959 -183.627 450.182C-182.776 456.269 -181.613 462.25 -181.115 468.464C-178.136 505.388 -175.521 542.438 -172.293 579.255C-171.483 588.492 -168.857 596.967 -167.062 605.801C-166.044 596.079 -163.678 585.976 -164.239 576.698C-167.29 526.607 -171.213 476.77 -174.431 426.722C-174.96 418.5 -174.555 408.419 -172.77 401.36C-159.07 347.148 -144.944 293.443 -130.89 239.653C-130.174 236.927 -128.877 234.94 -127.849 232.615C-127.507 237.815 -126.666 243.098 -126.884 248.171C-129.697 313.817 -132.105 379.59 -135.789 445.025C-137.782 480.363 -142.027 515.089 -145.172 550.131C-145.743 556.514 -146.179 563.108 -146.148 569.575C-146.127 573.803 -145.182 578.03 -144.643 582.236C-144.061 578.051 -143.325 573.95 -142.94 569.702C-138.955 526.544 -133.848 483.682 -131.357 440.122C-127.164 366.486 -124.704 292.386 -121.331 218.518C-120.885 208.69 -120.262 198.122 -118.238 189.563C-104.237 130.299 -89.8823 71.4164 -75.4138 12.6814C-74.9156 10.6524 -74.0229 -9.87006 -70.2761 10.1028C-68.9164 7.60883 -66.7368 5.62219 -66.3216 2.5153C-63.4051 -19.1695 -60.9141 -41.108 -58.1532 -62.8773C-57.6758 -66.6394 -56.5445 -69.9999 -55.7142 -73.5506C-55.7142 -69.6829 -55.3924 -65.6672 -55.7764 -61.9897C-59.1081 -29.5681 -62.5748 2.76882 -65.948 35.1692C-66.1971 37.5364 -65.9791 40.1149 -65.9688 42.5877C-65.3045 40.7912 -64.2977 39.2061 -64.0382 37.156C-57.9145 -10.166 -51.8012 -57.488 -45.8851 -104.937C-44.3178 -117.491 -43.6328 -130.553 -42.0967 -143.128C-41.5985 -147.186 -39.668 -150.42 -38.3914 -154.013C-37.3327 -150.145 -35.89 -146.531 -35.2776 -142.346C-29.0501 -99.8431 -23.3312 -56.9595 -16.7301 -14.7312C-9.31938 32.6753 2.25342 75.1361 19.0573 109.713C26.8209 125.692 23.759 144.946 24.5582 163.228C24.6827 166.166 25.2328 169.019 25.5753 171.915C25.7622 169.04 25.9801 166.166 26.1358 163.27C26.717 152.449 27.2671 141.628 27.838 130.828C31.917 136.428 36.1309 141.628 40.0646 147.673C61.4145 180.475 85.0998 202.561 109.667 220.927C113.29 223.633 117.794 228.473 119.392 235.173C140.005 321.13 160.359 407.404 180.277 494.122C184.522 512.595 186.701 533.307 190.012 552.836C190.894 558.036 192.399 562.706 193.614 567.631C193.479 561.819 193.946 555.542 193.116 550.237C187.158 512.616 182.124 474.002 174.516 437.987C161.386 375.849 146.565 315.402 132.564 254.131C131.173 248.044 130.55 241.112 129.564 234.581C132.501 234.623 135.449 234.56 138.386 234.708C156.674 235.638 174.962 236.652 193.25 237.476C194.87 237.54 196.624 237.223 198.077 235.849C199.333 234.665 200.256 231.77 201.325 229.614C200.07 228.98 198.824 227.86 197.558 227.775C176.893 226.169 156.218 224.753 135.553 223.168C127.706 222.576 122.423 214.925 119.455 198.186C116.808 183.264 113.674 168.322 109.553 155.154C101.789 130.299 102.381 107.41 108.162 80.4623C118.406 32.6965 118.095 32.1047 133.342 71.6066C143.534 98.0046 154.412 123.156 165.102 148.603C166.451 151.815 168.59 153.442 170.364 155.81C170.084 151.075 170.562 145.009 169.399 141.776C159.778 115.124 150.8 86.9085 139.777 63.2581C127.125 36.1415 123.503 11.6458 132.667 -24.9394C141.915 -61.9051 140.192 -63.4903 155.823 -36.8809C172.399 -8.66531 189.628 17.796 205.737 47.1952C213.147 60.7218 218.627 79.2998 224.845 95.8276C228.477 105.508 231.757 115.8 235.348 125.523C235.992 127.256 237.435 127.594 238.514 128.587C238.275 126.389 238.296 123.832 237.756 122.057C234.456 111.13 230.948 100.477 227.668 89.5081C225.924 83.6748 224.502 77.3553 222.935 71.2684C225.903 73.4876 228.986 75.1361 231.809 78.0105C237.995 84.3089 243.994 91.4738 250.19 97.7298C251.446 98.9979 253.221 97.8778 254.757 97.8566C253.823 94.792 253.221 90.3747 251.903 88.8741C242.468 78.0951 232.878 67.9925 223.392 57.4671C222.271 56.2201 221.451 53.7472 220.485 51.845C221.762 52.1198 223.101 51.8874 224.295 52.7116C235.224 60.3204 246.08 68.4786 257.072 75.5589C259.739 77.2709 262.874 75.5589 265.79 75.3898C263.279 72.4308 260.871 68.859 258.234 66.5976C243.008 53.5571 227.554 41.6578 212.576 27.4126C208.57 23.6083 204.73 14.0763 202.913 5.13605C196.167 -28.0464 190.251 -62.032 184.138 -95.8062C183.494 -99.3781 183.536 -103.521 183.255 -107.41C184.968 -106.332 186.815 -105.803 188.383 -104.07C217.091 -72.1981 245.852 -40.474 274.353 -7.71425C277.218 -4.41714 279.937 5.09373 280.228 12.2163C281.089 32.8867 280.549 53.8106 280.892 74.6078C280.965 78.8137 282.532 82.8928 283.414 87.0142C284.514 82.8083 286.466 78.6869 286.569 74.3542C287.047 55.9453 287.14 37.4942 287.036 19.0431C286.974 8.11617 288.126 3.12817 293.658 7.88362C328.906 38.086 365.295 58.7141 402.66 72.5154C410.393 75.3687 417.284 90.0154 424.352 99.949C431.234 109.65 437.825 120.302 444.54 130.532V119.816C437.96 109.185 431.358 98.6175 424.82 87.8385C423.802 86.1477 423.117 83.4846 422.287 81.2865C423.47 80.7792 424.674 79.6379 425.816 79.8493C432.064 81.0751 438.302 82.6392 444.54 84.0975V69.81C438.562 68.4151 432.573 67.2315 426.615 65.583C416.921 62.8777 407.673 60.5739 399.256 45.6736C367.288 -10.9268 338.372 -73.7833 313.016 -144.439C309.289 -154.837 306.196 -166.314 302.802 -177.283C308.085 -171.259 313.316 -165.024 318.672 -159.297C321.474 -156.295 324.464 -154.119 327.38 -151.582C325.003 -155.831 322.803 -160.692 320.229 -164.242C306.736 -182.841 291.157 -195.565 283.632 -230.269C281.452 -240.329 281.546 -245.338 287.026 -244.113C298.339 -241.576 309.767 -239.759 320.852 -234.623C331.771 -229.55 342.305 -220.526 353.069 -213.784C355.061 -212.537 357.397 -213.826 359.576 -213.931C357.988 -216.742 356.587 -220.737 354.771 -222.174C346.031 -229.064 337.168 -235.13 328.387 -241.767C326.685 -243.056 325.201 -245.656 323.613 -247.642C325.118 -249.692 326.55 -252.144 328.148 -253.75C334.832 -260.535 341.33 -268.862 348.346 -273.195C355.331 -277.506 359.773 -286.13 364.029 -298.092C365.627 -302.573 370.412 -303.545 373.65 -303.08C384.818 -301.453 395.934 -298.282 407.092 -296.19C408.701 -295.894 410.413 -298.198 412.084 -299.297C410.673 -302.214 409.427 -307.075 407.829 -307.688C400.844 -310.372 393.744 -311.64 386.697 -313.732C377.833 -316.367 375.695 -325.984 380.283 -342.582C405.338 -432.999 397.481 -556.45 360.801 -638.962C331.034 -705.94 293.98 -727.266 252.162 -719.213C245.925 -718.009 239.303 -726.336 232.857 -730.246H209.878C212.213 -717.945 214.725 -705.792 216.822 -693.322C218.129 -685.566 219.136 -677.429 219.738 -669.292C220.724 -655.871 221.274 -642.302 222.011 -628.775C218.181 -635.56 213.905 -641.456 210.719 -649.446C208.996 -653.757 208.643 -661.577 208.549 -667.875C208.228 -688.651 208.311 -709.47 208.238 -730.267H190.189C190.853 -724.708 191.704 -714.225 192.14 -714.289C201.938 -716.149 196.935 -697.719 199.312 -689.793C199.8 -688.165 198.897 -684.572 198.637 -681.867C197.537 -683.262 195.918 -684.065 195.42 -686.136C191.912 -700.699 188.621 -715.514 185.269 -730.246H139.32C139.279 -712.492 139.362 -694.717 139.134 -676.964C139.061 -671.532 138.158 -666.142 137.639 -660.711C136.736 -666.777 135.086 -672.821 135.075 -678.887C135.034 -696.007 135.667 -713.126 136.03 -730.246H131.11C130.602 -717.86 130.301 -705.412 129.481 -693.111C129.107 -687.489 127.696 -682.205 126.751 -676.773C124.53 -682.269 121.188 -687.066 120.347 -693.407C118.79 -705.2 118.697 -717.903 117.991 -730.225H80.2527L81.1142 -704.355C78.7062 -712.408 76.3086 -720.439 73.911 -728.513C73.7657 -728.978 73.7553 -729.654 73.693 -730.225H-307.024C-310.398 -716.846 -313.729 -703.404 -317.175 -690.11C-317.933 -687.193 -319.106 -684.805 -320.092 -682.184C-319.978 -686.01 -320.32 -690.237 -319.666 -693.555C-317.269 -705.94 -314.549 -718.03 -311.944 -730.225H-392.351C-395.486 -709.406 -398.517 -688.504 -401.879 -667.854C-402.378 -664.79 -404.474 -662.972 -405.824 -660.584C-406.623 -663.965 -408.138 -667.411 -408.097 -670.729C-407.868 -685.481 -407.204 -700.212 -406.467 -721.242C-405.367 -705.37 -404.775 -695.563 -403.966 -685.862C-403.779 -683.621 -402.814 -681.698 -402.201 -679.648C-401.879 -681.825 -401.174 -684.107 -401.288 -686.179C-402.046 -700.889 -402.98 -715.557 -403.852 -730.246H-439.95C-440.116 -727.308 -439.774 -723.039 -440.531 -721.686C-445.596 -712.661 -450.9 -704.271 -456.121 -695.668C-454.367 -704.376 -452.571 -713.063 -450.89 -721.834C-450.381 -724.497 -450.153 -727.435 -449.8 -730.225H-459.65C-462.649 -715.007 -465.587 -699.748 -468.7 -684.636C-469.167 -682.395 -470.382 -680.874 -471.254 -679.035C-471.14 -681.867 -471.316 -684.953 -470.859 -687.489C-468.296 -701.798 -465.587 -716.001 -462.93 -730.225H-494.109C-504.114 -691.547 -512.397 -650.249 -529.73 -623.005C-534.795 -615.058 -539.465 -605.865 -544.146 -596.819C-544.935 -595.297 -544.873 -591.662 -545.205 -589.02C-544.074 -590.119 -542.766 -590.753 -541.842 -592.38C-538.23 -598.721 -534.774 -605.484 -531.183 -611.846C-530.498 -613.072 -529.408 -613.198 -528.505 -613.854C-528.785 -612.247 -528.931 -610.493 -529.346 -609.077C-541.251 -568.413 -552.647 -526.206 -573.862 -504.922C-589.431 -489.282 -605.456 -475.692 -621.471 -462.229C-626.567 -457.939 -632.255 -456.945 -637.663 -454.43C-633.926 -462.863 -630.314 -471.529 -626.443 -479.644C-614.278 -505.197 -603.629 -536.668 -589.4 -554.506C-568.745 -580.418 -550.104 -610.366 -533.747 -647.121C-522.049 -673.413 -511.649 -702.432 -500.679 -730.225H-520.368C-534.971 -701.671 -549.897 -673.878 -564.116 -644.437C-592.005 -586.695 -620.506 -530.073 -646.682 -468.823C-658.213 -441.833 -670.533 -431.836 -685.946 -430.843C-694.416 -430.294 -702.906 -431.033 -711.365 -430.294C-713.617 -430.103 -715.807 -426.658 -718.028 -424.693C-715.994 -421.48 -714.063 -415.9 -711.894 -415.435C-702.408 -413.406 -692.828 -413.343 -683.341 -411.399C-680.912 -410.891 -678.785 -404.53 -676.304 -403.663C-673.242 -402.585 -669.724 -402.966 -666.838 -405.248C-658.525 -411.864 -650.491 -420.191 -642.219 -427.102C-604.979 -458.15 -566.482 -484.759 -539.59 -554.654C-527.841 -585.173 -517.285 -617.848 -506.18 -649.53C-505.017 -652.848 -504.052 -656.589 -502.661 -659.358C-500.772 -663.141 -498.572 -666.164 -496.506 -669.503C-497.492 -664.832 -498.457 -660.119 -499.495 -655.49C-500.336 -651.749 -501.758 -648.283 -502.018 -644.394C-502.256 -640.886 -501.27 -636.997 -500.824 -633.277C-498.831 -635.095 -495.966 -635.686 -494.991 -638.941C-491.773 -649.805 -489.594 -662.148 -486.262 -672.779C-485.037 -676.689 -481.674 -677.407 -479.277 -679.606C-479.152 -674.639 -478.197 -668.848 -479.038 -664.811C-486.314 -629.895 -493.6 -594.938 -501.467 -560.656C-516.6 -494.714 -531.847 -428.856 -547.821 -363.886C-550 -355.031 -556.404 -347.591 -561.303 -345.985C-584.521 -338.461 -607.937 -333.832 -631.196 -326.794C-640.33 -324.025 -649.246 -317.896 -658.213 -312.802C-659.469 -312.084 -660.393 -308.597 -661.472 -306.398C-660.206 -305.997 -658.909 -305.003 -657.663 -305.278C-625.353 -312.422 -593.063 -319.756 -560.753 -326.773C-558.625 -327.238 -556.394 -325.462 -554.214 -324.723C-555.397 -320.305 -556.124 -314.578 -557.847 -311.682C-571.869 -288.053 -586.068 -264.952 -600.215 -241.724C-602.581 -237.835 -604.979 -233.989 -607.355 -230.121C-603.152 -234.285 -598.762 -237.751 -594.786 -242.781C-586.286 -253.518 -578.097 -265.459 -569.513 -275.879C-568.07 -277.633 -563.545 -274.864 -563.441 -273.3C-562.009 -250.348 -560.805 -227.289 -560.328 -204.167C-560.255 -200.616 -564.469 -192.775 -566.005 -193.536C-579.581 -200.236 -593.001 -208.479 -606.473 -216.193C-612.192 -219.469 -610.137 -224.732 -607.272 -230.248C-621.845 -217.524 -633.449 -239.188 -646.308 -246.226C-650.086 -248.297 -653.896 -250.009 -657.694 -251.89C-654.29 -246.543 -651.052 -240.583 -647.44 -236.018C-644.388 -232.171 -640.88 -230.121 -637.631 -226.993C-635.431 -224.88 -633.334 -222.238 -631.196 -219.828C-632.961 -217.778 -634.808 -215.982 -636.469 -213.593C-637.247 -212.473 -637.673 -210.212 -638.265 -208.479C-637.133 -207.358 -635.774 -204.716 -634.902 -205.329C-609.649 -222.808 -589.026 -182.546 -565.465 -178.509C-563.327 -178.149 -560.878 -167.476 -559.809 -160.67C-558.179 -150.314 -558.594 -138.077 -556.352 -128.629C-553.996 -118.738 -549.897 -117.343 -548.008 -131.187C-547.312 -136.28 -546.326 -141.86 -546.669 -146.827C-548.236 -169.759 -542.911 -171.64 -534.307 -169.378C-523.492 -166.525 -512.5 -166.652 -501.602 -165.193C-499.859 -164.961 -498.146 -163.207 -496.423 -162.15C-497.139 -159.085 -497.596 -155.492 -498.624 -153.02C-510.061 -125.205 -521.042 -98.7652 -539.351 -88.3032C-571.444 -69.9578 -601.688 -40.3049 -629.121 1.37391C-630.584 3.59311 -631.705 6.86916 -632.982 9.63788C-631.259 8.62339 -629.453 8.01038 -627.823 6.50977C-599.415 -19.5501 -571.039 -45.779 -542.59 -71.6697C-540.576 -73.5085 -538.075 -72.8532 -535.802 -73.3393C-537.037 -69.5773 -538.345 -65.942 -539.455 -62.032C-540.078 -59.8339 -540.389 -57.2132 -540.836 -54.7826C-539.632 -55.8816 -538.345 -56.6847 -537.234 -58.1431C-528.214 -69.9366 -519.382 -82.4911 -510.165 -93.4814C-505.422 -99.1457 -503.761 -96.1655 -503.253 -82.3853C-501.633 -39.2482 -510.726 -7.08014 -521.862 25.8909C-554.619 122.817 -591.901 208.563 -640.538 268.397C-642.416 270.722 -643.776 275.076 -645.374 278.479C-643.371 276.915 -641.306 275.689 -639.386 273.723C-599.405 232.742 -567.811 169.484 -540.296 95.7431C-529.616 67.1259 -519.776 37.0504 -509.47 7.77797C-508.401 4.73448 -506.782 2.59976 -505.411 0.0635279C-504.903 3.82561 -503.72 7.86249 -504 11.3287C-505.598 30.9845 -507.114 50.7672 -509.501 70.0215C-512.345 92.911 -512.822 119.098 -524.779 131.567C-525.578 132.392 -525.91 135.351 -526.46 137.316C-525.288 137.189 -523.866 137.95 -522.973 136.788C-517.067 129.221 -517.316 137.612 -517.451 146.383C-517.638 157.965 -517.69 169.569 -517.804 181.172C-516.019 169.843 -513.632 158.769 -512.583 147.123C-510.58 124.952 -506.761 106.966 -498.447 91.1778C-463.833 25.447 -429.623 -41.4462 -403.852 -125.607C-403.052 -128.228 -401.485 -129.728 -400.281 -131.757C-399.824 -128.545 -398.994 -125.353 -398.973 -122.141C-398.87 -103.69 -398.236 -85.0272 -399.295 -66.8719C-399.814 -58.0585 -402.938 -48.6111 -406.052 -42.0803C-425.731 -0.676213 -446.043 39.6499 -459.359 92.6361C-466.407 120.683 -471.991 150.462 -478.011 179.671C-478.789 183.455 -478.27 188.485 -478.353 192.944C-477.087 189.351 -475.333 186.181 -474.637 182.123C-465.514 129.158 -452.831 80.7581 -435.228 39.0582C-426.748 18.9585 -417.427 0.507416 -408.408 -18.5144C-407.111 -21.2619 -405.336 -22.9316 -403.779 -25.1086C-403.831 -20.7336 -403.519 -16.1683 -403.997 -12.047C-412.342 60.0878 -421.714 131.715 -428.959 204.379C-436.203 276.999 -442.41 350.297 -446.956 423.911C-449.219 460.538 -446.769 498.54 -446.364 535.907C-446.344 537.577 -445.482 539.204 -445.015 540.853C-444.683 539.267 -444.174 537.725 -444.06 536.055C-443.863 533.138 -443.718 530.095 -443.863 527.199C-447.786 451.535 -442.991 377.667 -434.47 304.475C-424.143 215.707 -414.033 126.812 -403.748 38.0014C-403.115 32.5485 -401.682 27.5183 -400.624 22.2768C-400.177 28.3214 -399.067 34.5564 -399.388 40.3897C-404.329 128.904 -409.487 217.356 -414.49 305.849C-414.833 311.894 -414.428 318.15 -414.366 324.3C-413.214 318.615 -411.584 313.141 -411.003 307.181C-408.699 283.319 -406.747 259.288 -404.578 235.363C-404.329 232.658 -403.54 230.185 -402.99 227.606C-402.689 230.227 -402.129 232.848 -402.108 235.49C-401.568 299.72 -402.575 364.225 -400.074 428.075C-398.34 472.438 -406.301 505.261 -416.94 539.077C-435.778 598.954 -453.91 659.887 -472.25 720.503C-473.33 724.074 -473.672 728.703 -474.357 732.846C-473.132 729.802 -471.814 726.886 -470.693 723.652C-445.939 652.489 -421.216 581.284 -396.43 510.206C-395.538 507.649 -394.033 506.106 -392.818 504.077C-392.216 507.226 -391.365 510.27 -391.064 513.546C-389.57 530.264 -387.909 546.961 -386.985 563.827C-386.653 569.829 -387.992 576.487 -388.947 582.574C-401.184 660.986 -420.666 731.324 -440.241 801.599C-444.05 815.252 -447.143 829.941 -450.059 844.609C-450.869 848.688 -449.873 854.458 -449.707 859.446C-447.745 856.804 -445.046 855.177 -443.946 851.372C-433.484 815.125 -422.544 779.386 -413.193 741.807C-392.663 659.295 -379.211 570.505 -365.573 481.801C-351.188 388.213 -336.73 294.499 -319.708 203.11C-308.768 144.375 -293.168 89.7195 -279.592 33.3305C-278.907 30.4772 -277.568 28.3848 -276.531 25.9331C-275.908 29.1246 -275.212 32.2526 -274.673 35.5075C-273.365 43.4121 -272.13 51.3801 -270.874 59.327C-271.289 45.8427 -271.933 32.3795 -272.057 18.8952C-272.14 10.2297 -271.58 1.50081 -271.071 -7.1224C-270.957 -9.08798 -269.888 -10.8 -269.265 -12.6388C-268.808 -10.3139 -267.874 -7.90444 -267.968 -5.70637C-268.86 15.9573 -269.929 37.5788 -270.947 59.2002L-270.895 59.2424ZM-90.339 -415.774C-92.9857 -425.285 -95.7776 -434.647 -98.1752 -444.475C-98.6215 -446.314 -97.4798 -449.971 -97.075 -452.782C-93.2451 -446.568 -88.9585 -441.199 -85.9071 -433.506C-85.2117 -431.752 -88.7925 -421.987 -90.4116 -415.9C-92.3525 -405.565 -93.8679 -394.723 -96.4108 -385.149C-97.6147 -380.605 -101.279 -375.025 -102.929 -376.145C-105.565 -377.941 -108.762 -384.24 -109.405 -389.904C-110.765 -401.845 -111.398 -414.78 -110.807 -426.954C-110.506 -433.189 -107.215 -439.466 -104.61 -443.884C-104.019 -444.898 -100.479 -438.748 -98.6631 -435.028C-95.7258 -428.983 -93.0998 -422.241 -90.339 -415.774ZM17.9674 34.2604C17.355 25.5104 16.5039 16.7815 16.2237 7.96811C16.0473 2.32498 16.7115 -3.46608 17.0021 -9.19375C19.4101 -3.63516 23.157 1.18374 23.8835 7.63C24.7969 15.6826 23.3542 25.13 22.6484 33.8589C22.3993 36.8812 21.3199 39.5866 20.6141 42.4188C19.7008 39.6078 18.7874 36.7756 17.8844 33.9646C17.9467 43.3698 18.0193 52.775 18.0816 62.2014C18.092 64.3994 18.0816 66.6187 18.0816 68.8167C19.1091 67.4007 20.7802 66.4495 21.0708 64.505C23.292 49.9006 25.5753 35.2961 27.153 20.3323C28.2532 9.87037 29.8931 7.37633 34.9892 9.82803C44.7664 14.5412 54.8653 16.0841 64.6943 20.4168C67.8081 21.7906 71.5757 26.3981 73.1637 32.0413C78.4363 50.7037 82.1728 71.5009 87.7776 89.635C96.5064 117.893 95.0845 144.397 87.9955 172.57C85.2243 183.581 83.1173 186.329 77.3154 181.996C49.4162 161.199 28.2739 120.64 9.76791 73.1071C-8.55129 26.0388 -11.8415 -35.0633 -20.4043 -91.1353C-20.6222 -92.5936 -20.2797 -94.4536 -20.2071 -96.1233C-19.3871 -94.8975 -18.3596 -94.0309 -17.7887 -92.3823C-14.9967 -84.3086 -12.7341 -75.1993 -9.53735 -67.9922C3.43659 -38.6775 15.0198 -7.79873 17.9571 34.2183L17.9674 34.2604ZM-128.327 140.888C-127.195 141.205 -126.054 141.501 -124.922 141.818C-126.946 159.889 -127.289 179.967 -131.285 195.671C-145.037 249.735 -160.056 302.277 -174.659 355.327C-175.728 359.195 -177.368 362.344 -178.738 365.81C-179.766 361.266 -181.229 356.975 -181.759 352.178C-195.947 223.231 -210.135 94.2847 -224.074 -34.7886C-226.503 -57.2343 -228.288 -80.145 -229.337 -103.077C-229.617 -109.248 -226.856 -118.928 -224.209 -122.416C-212.304 -138.119 -200.047 -152.576 -187.643 -166.335C-185.848 -168.321 -181.146 -165.806 -180.222 -162.319C-172.345 -132.455 -164.872 -102.041 -157.669 -71.3738C-156.267 -65.4136 -155.852 -57.4245 -156.174 -50.64C-157.98 -12.2372 -160.191 26.06 -162.152 64.4206C-162.599 73.1706 -162.64 82.0051 -162.858 90.7974C-161.685 81.7515 -159.973 72.8747 -159.423 63.6386C-156.589 15.9362 -154.088 -31.8719 -151.358 -79.6166C-151.182 -82.6389 -150.164 -85.4077 -149.531 -88.3032C-148.649 -86.1263 -147.528 -84.2029 -146.916 -81.709C-142.702 -64.3569 -138.996 -46.3707 -134.336 -29.6104C-128.794 -9.6798 -127.226 8.79249 -135.385 27.0957C-135.997 28.4483 -136.007 31.069 -136.298 33.098C-135.592 32.4851 -134.772 32.2103 -134.201 31.2169C-128.493 21.1777 -128.41 31.5552 -128.368 39.3541C-128.213 73.1917 -128.306 107.05 -128.306 140.909L-128.327 140.888ZM390.589 -454.409C391.264 -419.705 386.801 -384.578 377.833 -352.177C368.284 -317.642 368.191 -317.769 349.789 -325.589C346.301 -327.069 342.378 -326.921 339.441 -330.535C335.102 -335.882 330.048 -342.265 327.816 -351.205C321.713 -375.722 316.835 -401.719 311.656 -427.313C309.871 -436.127 308.604 -445.426 307.099 -454.494C310.732 -449.463 314.271 -444.053 318.029 -439.509C326.28 -429.512 335.621 -422.474 342.71 -409.539C351.366 -393.729 358.154 -373.059 365.814 -354.629C366.738 -352.41 368.098 -351.1 369.26 -349.366C369.26 -352.748 369.862 -356.954 369.167 -359.342C366.105 -369.804 363.396 -381.513 359.234 -389.545C343.084 -420.656 326.384 -450.414 309.974 -480.913C303.986 -492.051 296.865 -501.858 292.651 -515.722C278.785 -561.311 265.998 -608.443 252.848 -655.046C245.084 -682.55 248.606 -698.36 263.414 -702.474C330.691 -721.031 390.734 -605.484 390.589 -454.451V-454.409ZM-395.424 377.836C-394.842 377.836 -394.251 377.836 -393.67 377.836C-393.67 323.159 -393.815 268.482 -393.638 213.805C-393.379 130.299 -389.767 47.6603 -379.274 -33.0343C-378.713 -37.3248 -377.675 -41.3193 -376.866 -45.4407C-376.046 -41.1925 -374.811 -37.0923 -374.489 -32.675C-372.154 -0.591645 -370.005 31.5552 -367.784 63.6809C-367.545 67.0625 -367.182 70.4018 -366.871 73.7835C-366.071 70.5286 -364.774 67.4217 -364.577 63.9978C-363.819 51.0419 -363.632 37.9169 -362.719 25.0243C-362.542 22.5092 -360.186 19.656 -358.64 18.9163C-356.709 18.0075 -354.571 19.1276 -352.516 19.3812C-352.558 14.816 -352.143 9.97599 -352.724 5.74893C-354.27 -5.643 -356.107 -16.8658 -358.059 -27.9829C-365.386 -69.7463 -365.366 -69.4928 -347.15 -90.1632C-344.036 -93.6928 -341.618 -100.097 -338.878 -105.169C-341.753 -102.316 -344.638 -99.4626 -347.503 -96.5671C-348.738 -95.3201 -349.89 -93.3969 -351.177 -92.6783C-355.848 -90.0998 -360.56 -87.8805 -365.262 -85.5345C-362.522 -95.0877 -360.342 -105.719 -356.938 -113.983C-342.044 -150.187 -326.807 -185.737 -311.674 -221.456C-309.91 -225.619 -307.948 -229.403 -306.08 -233.355C-305.499 -227.479 -304.17 -221.413 -304.471 -215.749C-306.412 -178.551 -308.716 -141.437 -310.834 -104.282C-310.989 -101.534 -310.626 -98.6384 -310.512 -95.8274C-309.671 -98.3425 -308.311 -100.646 -308.083 -103.394C-305.997 -128.545 -304.118 -153.759 -302.167 -178.974C-301.991 -181.256 -301.721 -183.497 -301.503 -185.758C-301.16 -183.391 -300.382 -180.876 -300.537 -178.699C-302.416 -152.364 -303.848 -125.755 -306.765 -99.9488C-307.678 -91.8751 -312.131 -83.5477 -315.909 -79.6376C-323.496 -71.7753 -331.799 -67.2947 -339.636 -60.468C-341.244 -59.0731 -342.106 -53.5567 -343.31 -49.9425C-341.442 -48.0615 -339.532 -44.3839 -337.726 -44.6376C-331.488 -45.5464 -325.198 -46.9625 -319.085 -49.7946C-312.422 -52.8803 -310.719 -48.3363 -312.006 -34.2602C-315.784 7.14388 -319.334 48.6536 -322.811 90.2057C-326.932 139.43 -331.602 188.168 -342.666 232.911C-352.236 271.61 -361.619 310.562 -370.514 350.022C-377.239 379.886 -382.989 410.765 -389.383 440.988C-390.151 444.624 -392.217 446.948 -393.68 449.886C-394.272 446.082 -395.33 442.299 -395.361 438.494C-395.527 418.268 -395.444 398.041 -395.444 377.836H-395.424ZM280.145 -28.3845C278.287 -27.8561 275.547 -25.0452 273.959 -26.9051C242.209 -64.0399 210.459 -101.196 179.156 -140.064C176.177 -143.762 173.758 -160.797 175.128 -168.004C183.556 -212.473 193.053 -256.012 202.54 -299.487C203.183 -302.404 207.21 -304.834 208.809 -303.291C222.053 -290.589 235.141 -277.168 248.135 -263.304C250.377 -260.915 252.702 -256.139 253.667 -251.256C267.378 -181.911 276.356 -109.777 280.145 -28.4057V-28.3845ZM394.398 52.0565C391.15 52.0565 389.395 52.9019 387.891 51.9296C355.943 31.5129 323.965 11.2864 292.184 -10.3138C289.278 -12.2794 286.497 -22.4879 285.614 -29.9486C282.314 -58.1431 280.238 -87.014 276.938 -115.23C271.945 -157.838 266.309 -200.109 260.974 -242.527C260.705 -244.704 260.684 -247.008 260.538 -249.27C261.182 -248.657 261.96 -248.34 262.448 -247.368C271.623 -228.79 282.054 -212.346 289.673 -191.126C319.824 -107.092 350.027 -23.4388 389.198 42.292C390.485 44.4478 391.669 46.9206 394.388 52.0353L394.398 52.0565ZM319.949 -338.63C304.878 -349.789 291.655 -361.456 277.965 -369.297C256.428 -381.64 241.763 -408.271 233.003 -453.458C227.948 -479.539 222.136 -503.422 226.059 -533.138C227.834 -546.622 227.471 -561.417 228.239 -575.578C228.446 -579.424 229.277 -583.123 229.816 -586.885C231.415 -585.025 233.189 -583.63 234.591 -581.2C245.468 -562.283 256.293 -543.198 267.108 -524.113C276.211 -508.029 287.991 -495.496 293.793 -474.974C304.889 -435.725 312.621 -391.975 321.547 -349.874C322.045 -347.528 320.665 -343.322 319.959 -338.651L319.949 -338.63ZM-58.7449 -309.421C-59.7309 -303.144 -60.5404 -296.253 -61.8586 -289.828C-68.0861 -259.436 -74.2409 -228.959 -80.8213 -198.925C-92.913 -143.699 -105.264 -88.747 -117.605 -33.7741C-118.394 -30.2657 -119.992 -27.6237 -121.207 -24.6013C-121.798 -28.1098 -122.836 -31.5761 -122.898 -35.1056C-124.113 -103.373 -125.441 -171.619 -126.022 -239.907C-126.095 -248.382 -122.878 -259.013 -119.743 -265.185C-109.063 -286.214 -97.8431 -305.976 -86.5921 -325.61C-83.8832 -330.345 -80.209 -332.353 -77.1367 -336.22C-76.2338 -337.362 -75.7874 -340.532 -75.3307 -342.941C-73.203 -354.333 -71.148 -365.789 -69.0721 -377.223C-68.2107 -375.553 -66.8406 -374.2 -66.5811 -372.171C-63.9033 -351.628 -61.4019 -330.979 -58.7345 -309.357L-58.7449 -309.421ZM-19.2522 -248.044C-15.7544 -264.318 -13.087 -277.274 -10.1808 -289.976C-8.77966 -296.106 -6.94254 -301.749 -5.30264 -307.624C-3.23719 -301.622 -0.735786 -296.127 0.821086 -289.554C13.328 -236.863 25.8452 -184.173 37.9784 -131.081C47.465 -89.5925 56.308 -47.3852 65.67 -5.74868C68.9498 8.81354 66.957 14.6681 60.0133 12.153C52.2601 9.34199 44.5692 5.43198 36.9405 1.20492C31.3046 -1.92311 30.4224 -10.0392 33.1936 -20.5645C37.2623 -36.0145 41.4035 -51.3797 45.3476 -66.9776C46.0119 -69.6195 45.8251 -73.3182 46.0327 -76.5096C44.7041 -75.1781 42.784 -74.6285 42.1301 -72.3671C38.4974 -59.8338 34.9165 -47.1527 31.782 -33.9854C25.8659 -9.1303 23.925 -8.13696 14.5319 -28.1944C12.6533 -32.2101 10.9304 -37.4939 10.1519 -42.8834C2.64781 -95.0665 -4.64875 -147.376 -11.9245 -199.707C-12.2774 -202.244 -11.8623 -205.308 -11.8104 -208.119C-10.6064 -207.401 -9.38163 -206.851 -8.20878 -205.942C-6.14333 -204.336 -4.10903 -202.518 -2.05396 -200.806C-3.38249 -205.055 -4.57608 -209.535 -6.06029 -213.509C-10.4299 -225.218 -14.9033 -236.736 -19.221 -248.023L-19.2522 -248.044ZM-57.9041 -250.918C-57.956 -250.918 -58.008 -250.918 -58.0599 -250.918C-58.4231 -233.122 -59.1704 -215.305 -59.077 -197.53C-58.7449 -133.554 -63.7164 -73.276 -79.0257 -16.7391C-92.1553 31.7665 -102.69 83.6114 -114.533 133.808C-115.913 139.662 -118.342 144.354 -120.283 149.596C-120.625 143.297 -121.207 137.02 -121.269 130.722C-121.435 114.68 -120.771 98.4906 -121.497 82.5969C-123.988 28.0255 -121.321 -23.1642 -104.839 -68.0767C-100.345 -80.3351 -98.0196 -96.4192 -94.8436 -110.897C-83.8832 -160.734 -72.9954 -210.677 -62.0039 -260.492C-61.2462 -263.916 -59.8554 -266.664 -58.7656 -269.708C-58.475 -265.819 -58.1221 -261.951 -57.9145 -258.041C-57.79 -255.695 -57.8938 -253.285 -57.8938 -250.918H-57.9041ZM-506.906 -176.776C-506.916 -176.543 -506.927 -176.311 -506.937 -176.057C-513.445 -177.346 -519.953 -178.741 -526.471 -179.904C-544.852 -183.158 -544.78 -183.137 -547.509 -221.519C-548.796 -239.653 -550.924 -257.576 -551.754 -275.794C-552.979 -302.7 -545.755 -320.073 -536.123 -333.578C-533.518 -337.235 -530.56 -339.644 -527.758 -342.645C-528.038 -336.22 -528.246 -329.795 -528.63 -323.391C-528.765 -321.109 -529.709 -318.889 -529.657 -316.712C-529.574 -313.035 -528.993 -309.4 -528.609 -305.764C-527.478 -307.92 -525.983 -309.653 -525.267 -312.337C-522.278 -323.666 -520.264 -336.643 -516.434 -346.281C-513.995 -352.41 -509.003 -353.72 -505.152 -357.187C-504.114 -350.973 -502.651 -344.949 -502.101 -338.545C-498.198 -293.252 -494.731 -247.748 -490.6 -202.561C-488.867 -183.666 -490.549 -177.283 -499.537 -176.818C-501.986 -176.691 -504.446 -176.818 -506.906 -176.818V-176.776ZM-402.014 -165.067C-403.737 -159.593 -404.755 -156.063 -405.907 -152.745C-415.435 -125.227 -424.215 -96.25 -434.688 -70.5283C-455.498 -19.4231 -477.201 29.9488 -498.644 79.8281C-499.962 82.8928 -502.184 84.1398 -503.979 86.2534C-503.626 82.3011 -503.471 78.2219 -502.879 74.4598C-494.098 18.7894 -485.307 -36.881 -476.402 -92.4457C-471.617 -122.31 -471.067 -122.542 -459.017 -105.085C-457.937 -103.521 -456.702 -102.485 -455.54 -101.217C-456.266 -103.986 -457.055 -106.712 -457.719 -109.565C-458.996 -114.997 -465.504 -120.873 -458.778 -126.368C-441.393 -140.571 -423.696 -152.956 -406.093 -165.849C-405.087 -166.588 -403.789 -165.426 -402.014 -165.024V-165.067ZM-495.281 -330.683C-493.88 -372.002 -495.25 -364.753 -479.298 -377.413C-473.911 -381.682 -468.638 -386.713 -463.251 -391.024C-460.044 -393.582 -456.723 -395.441 -453.453 -397.618C-454.564 -391.109 -455.727 -384.62 -456.764 -378.047C-457.19 -375.384 -457.346 -372.531 -457.626 -369.762C-456.515 -371.601 -455.125 -372.996 -454.336 -375.363C-450.547 -386.839 -447.018 -398.717 -443.157 -410.067C-442.503 -411.99 -440.708 -412.075 -439.452 -413.005C-439.12 -410.448 -438.238 -407.51 -438.549 -405.396C-443.24 -374.01 -446.479 -340.933 -453.319 -311.915C-460.875 -279.895 -471.752 -251.595 -481.228 -221.73C-482.121 -218.919 -483.294 -216.51 -484.331 -213.91C-485.307 -217.123 -486.895 -220.124 -487.165 -223.59C-489.988 -259.246 -492.604 -294.964 -495.271 -330.683H-495.281ZM266.06 -349.768C285.843 -339.898 305.875 -331.106 325.543 -319.46C332.964 -315.064 339.669 -304.454 346.405 -295.619C347.412 -294.288 347.433 -283.699 346.862 -283.213C335.331 -273.343 323 -254.025 312.123 -257.259C287.898 -264.466 262.718 -277.485 253.263 -338.968C252.889 -341.42 252.837 -344.125 252.64 -346.725C253.418 -345.203 254.238 -343.766 254.965 -342.117C259.013 -332.796 258.816 -332.987 261.078 -342.941C261.711 -345.71 263.839 -346.873 266.071 -349.81L266.06 -349.768ZM-397.603 -247.938C-398.081 -247.727 -398.558 -247.515 -399.046 -247.325C-399.046 -240.203 -399.326 -233.017 -398.984 -225.979C-398.278 -211.543 -400.925 -203.998 -407.598 -201.398C-420.199 -196.474 -432.706 -190.387 -445.275 -185.187C-446.987 -184.469 -448.897 -185.991 -450.713 -186.477C-450.226 -190.281 -450.039 -194.445 -449.198 -197.826C-442.192 -226 -435.165 -254.131 -427.942 -282.029C-422.596 -302.679 -417.033 -323.053 -411.356 -343.28C-410.505 -346.302 -408.46 -347.718 -406.965 -349.895C-406.415 -346.725 -405.637 -343.639 -405.357 -340.342C-402.731 -309.569 -400.177 -278.753 -397.614 -247.938H-397.603ZM-479.443 -523.521C-479.806 -525.719 -481.768 -531.299 -481.311 -535.653C-479.173 -555.88 -475.976 -573.189 -468.68 -590.182C-457.719 -615.671 -450.796 -649.34 -442.036 -679.373C-440.967 -683.029 -439.193 -685.714 -437.739 -688.842C-437.21 -683.389 -436.349 -677.957 -436.214 -672.462C-435.819 -655.554 -435.736 -638.624 -435.404 -621.695C-435.383 -620.723 -434.366 -619.56 -433.712 -618.99C-427.807 -613.896 -425.814 -596.65 -430.287 -585.786C-435.01 -574.31 -440.749 -564.672 -445.046 -552.54C-453.173 -529.608 -463.978 -522.148 -479.453 -523.521H-479.443ZM170.167 -177.494C168.953 -184.553 168.112 -189.266 167.323 -194.022C158.117 -250.178 162.331 -307.92 163.244 -365.218C163.286 -367.585 167.23 -372.552 167.894 -371.558C175.315 -360.695 183.868 -351.269 189.099 -336.432C191.901 -328.464 188.673 -310.752 188.528 -297.437C188.435 -289.49 189.13 -281.522 189.306 -273.533C189.421 -268.503 189.929 -262.775 189.057 -258.527C184.169 -234.665 178.958 -211.12 173.758 -187.576C173.115 -184.659 171.911 -182.334 170.157 -177.494H170.167ZM-430.09 -507.902C-430.453 -459.439 -439.442 -429.765 -457.273 -413.259C-465.296 -405.84 -473.381 -398.696 -481.581 -392.208C-484.965 -389.524 -488.701 -388.932 -492.282 -387.389C-491.773 -398.316 -491.483 -409.306 -490.632 -420.085C-490.403 -422.96 -488.535 -425.327 -487.331 -427.715C-477.284 -447.73 -467.652 -468.929 -456.982 -487.211C-450.828 -497.757 -443.085 -504.14 -435.788 -511.136C-434.2 -512.658 -431.512 -508.79 -430.1 -507.902H-430.09ZM148.018 -205.266C147.468 -200.975 146.741 -195.227 146.015 -189.478C144.292 -194.424 142.548 -199.327 140.867 -204.315C140.556 -205.224 140.472 -206.513 140.306 -207.654C132.449 -263.303 124.364 -318.826 116.943 -374.75C115.604 -384.853 116.85 -396.646 117.109 -407.615C117.171 -410.405 118.033 -413.111 118.521 -415.858C119.455 -413.512 120.378 -411.145 121.323 -408.799C122.008 -407.108 122.714 -405.481 123.409 -403.832C123.482 -406.03 123.16 -409.137 123.7 -410.257C125.08 -413.089 126.98 -417.295 128.433 -416.894C135.075 -415.076 138.231 -405.037 138.916 -391.341C141.977 -329.985 144.936 -268.608 148.028 -205.266H148.018ZM203.308 -473.05C203.681 -453.077 202.426 -445.025 195.212 -454.853C186.66 -466.498 177.505 -476.242 169.368 -489.092C165.943 -494.503 163.089 -505.282 162.393 -514.476C160.286 -542.543 159.311 -571.012 158.044 -599.355C157.878 -603.138 158.584 -607.112 158.885 -611C160.888 -609.669 163.452 -609.563 164.749 -606.71C166.545 -602.736 167.624 -596.924 168.569 -591.535C170.883 -578.22 172.824 -564.63 175.191 -551.357C175.647 -548.799 177.329 -547.277 178.45 -545.27C178.772 -547.933 179.498 -550.701 179.353 -553.238C178.803 -563.235 177.91 -573.147 177.287 -583.144C177.1 -586.188 177.37 -589.358 177.422 -592.465C178.18 -590.119 179.104 -587.963 179.654 -585.427C186.245 -555.415 192.846 -525.424 199.281 -495.263C201.201 -486.239 202.633 -476.728 203.297 -473.029L203.308 -473.05ZM100.129 -430.315C99.7863 -422.917 99.8174 -420.508 99.5475 -418.225C96.33 -390.242 68.3063 -359.828 55.9343 -371.706C54.201 -373.376 52.4885 -381.873 52.8933 -386.311C55.2389 -412.498 58.3008 -438.388 60.9475 -464.448C62.0269 -475.1 63.6772 -480.828 69.2196 -474.318C77.3776 -464.723 85.9924 -456.882 93.9532 -446.589C97.0046 -442.658 98.7795 -434.035 100.139 -430.294L100.129 -430.315ZM22.4616 -352.262C23.1777 -352.917 23.8939 -353.594 24.6101 -354.249C24.6101 -359.596 24.2675 -365.091 24.7865 -370.185C24.9941 -372.171 27.5785 -375.173 28.3465 -374.37C36.0064 -366.359 37.5633 -352.854 33.8268 -335.502C32.8304 -330.873 33.6295 -324.406 33.6088 -318.763C36.2658 -320.897 40.2514 -321.362 41.3309 -325.462C45.1712 -340.046 48.8765 -335.333 51.7412 -325.653C61.4768 -292.724 71.0464 -259.499 79.9413 -225.471C81.2387 -220.526 78.8411 -210.338 77.3569 -203.364C77.1389 -202.307 72.1673 -204.294 70.0499 -207.168C52.6337 -230.797 40.4175 -264.191 32.1453 -304.771C28.9174 -320.601 25.6895 -336.411 22.4616 -352.241V-352.262ZM134.722 -71.564C134.006 -68.7742 133.695 -66.2379 132.948 -64.8219C126.357 -52.3943 119.839 -39.7131 112.874 -28.3212C111.816 -26.5881 107.467 -29.6316 106.543 -32.971C95.51 -72.6208 84.7365 -112.609 74.2639 -152.977C73.3194 -156.634 74.9593 -163.46 75.3952 -168.808C77.2842 -167.603 79.5469 -167.455 80.9896 -165.024C97.3368 -137.231 113.559 -109.121 129.803 -81.0326C131.463 -78.1582 132.999 -74.9246 134.733 -71.564H134.722ZM66.7909 -130.975C68.2544 -126.748 69.8216 -122.775 71.1086 -118.421C78.3429 -93.883 85.3489 -69.0278 92.7492 -44.7433C103.627 -9.00354 103.595 -9.27819 84.4251 4.77679C77.8655 9.5745 74.3885 6.31964 71.5965 -7.27036C67.2476 -28.4268 62.1618 -48.8858 57.4185 -69.683C53.5679 -86.5701 57.1072 -116.751 64.1962 -127.784C64.8397 -128.777 65.5766 -129.496 66.7909 -130.997V-130.975ZM143.804 -135.393C142.393 -123.261 141.469 -117.026 140.971 -110.622C139.601 -93.0164 136.694 -93.1644 131.775 -105.761C122.423 -129.665 112.625 -152.766 103.367 -176.839C98.4889 -189.52 93.5588 -202.687 90.2686 -217.355C88.8259 -223.802 91.4206 -234.56 92.1887 -243.373C94.9807 -241.217 98.1982 -240.33 100.492 -236.673C109.501 -222.343 119.278 -209.261 126.741 -191.634C134.037 -174.387 138.864 -152.153 143.804 -135.393ZM63.2412 -143.699C60.3766 -133.829 57.3044 -124.085 54.6473 -113.835C51.5647 -101.936 49.8003 -104.387 47.4442 -115.187C38.1756 -157.458 28.6579 -199.475 19.2233 -241.598C15.767 -257.047 12.2485 -272.455 8.87531 -288.011C8.3356 -290.484 8.38744 -293.59 8.16948 -296.401C9.12436 -296.401 10.4529 -297.289 10.9719 -296.254C20.3754 -277.549 31.0867 -260.894 38.6323 -239.082C47.4027 -213.741 53.4018 -183.856 60.5635 -155.894C61.4768 -152.343 62.1826 -148.539 63.2412 -143.699ZM64.8604 -359.152C77.1908 -357.567 86.9576 -370.312 95.6865 -387.262C100.409 -396.435 101.924 -394.342 103.512 -381.767C108.007 -346.238 98.987 -317.114 94.3372 -285.982C94.14 -284.692 89.5628 -284.037 88.2758 -286.362C79.2252 -302.594 70.4132 -319.502 61.7051 -336.601C58.3734 -343.132 55.4984 -350.783 52.4158 -357.926C56.5674 -358.328 60.7191 -358.751 64.8708 -359.152H64.8604ZM-313.511 -338.63C-316.812 -318.784 -319.251 -295.577 -324.534 -276.006C-327.056 -266.664 -334.975 -264.233 -340.445 -258.675C-343.123 -275.034 -349.444 -293.612 -347.69 -307.244C-344.472 -332.268 -336.75 -354.756 -330.253 -377.392C-328.883 -382.168 -324.69 -385.022 -321.784 -385.043C-320.299 -385.043 -318.224 -377.265 -317.435 -372.256C-315.857 -362.196 -314.975 -351.607 -313.511 -338.609V-338.63ZM-150.652 -176.839C-149.988 -198.397 -154.949 -223.907 -143.21 -239.4C-141.477 -241.682 -139.495 -243.098 -137.626 -244.916C-136.786 -240.773 -135.343 -236.715 -135.198 -232.467C-134.554 -213.551 -134.284 -194.572 -133.869 -175.613C-133.028 -137.105 -132.146 -98.5961 -131.409 -60.0664C-131.347 -57.0864 -132.25 -54.0006 -132.696 -50.9571C-133.361 -52.6902 -134.274 -54.2119 -134.648 -56.2198C-141.965 -95.1299 -156.247 -129.538 -150.663 -176.839H-150.652ZM-155.977 -269.454C-153.486 -249.164 -158.364 -238.216 -169.065 -237.054C-170.684 -236.884 -172.438 -234.306 -173.85 -235.151C-177.96 -237.582 -184 -238.829 -185.443 -244.874C-187.54 -253.666 -187.851 -267.615 -186.149 -276.978C-181.426 -303.038 -168.857 -318.615 -165.308 -347.084C-164.799 -351.142 -162.069 -353.868 -160.377 -357.229C-159.63 -352.283 -158.416 -347.422 -158.219 -342.371C-157.347 -319.27 -156.766 -296.127 -155.977 -269.454ZM-540.047 -355.242C-539.621 -362.534 -539.943 -368.431 -538.915 -372.784C-524.302 -434.499 -509.522 -496.046 -494.711 -557.528C-494.14 -559.895 -492.905 -561.523 -491.981 -563.509C-491.97 -560.233 -491.586 -556.725 -492.002 -553.724C-497.731 -511.601 -501.748 -467.724 -510.041 -428.095C-515.5 -401.972 -527.145 -381.978 -536.071 -359.342C-536.549 -358.117 -537.514 -357.799 -540.067 -355.242H-540.047ZM-136.495 -311.429C-135.654 -310.583 -134.803 -309.738 -133.963 -308.892C-137.128 -292.28 -140.003 -275.372 -143.667 -259.309C-144.591 -255.251 -148.037 -253.941 -150.32 -251.362C-151.088 -256.139 -152.365 -260.831 -152.541 -265.734C-153.506 -292.301 -153.257 -319.249 -155.271 -345.393C-157.243 -370.925 -153.59 -390.686 -146.283 -408.778C-145.037 -411.864 -142.826 -413.068 -141.062 -415.161C-140.159 -411.145 -138.093 -406.284 -138.561 -403.283C-140.47 -391.151 -140.273 -380.921 -138.467 -367.881C-136.018 -350.233 -136.993 -330.345 -136.505 -311.429H-136.495ZM-366.321 -329.542C-365.916 -293.443 -369.528 -260.112 -380.519 -231.981C-381.692 -228.98 -383.135 -226.444 -384.453 -223.696C-385.47 -227.5 -387.017 -231.051 -387.432 -235.151C-389.113 -251.933 -390.639 -268.799 -391.895 -285.77C-395.008 -328.062 -394.936 -328.104 -376.907 -344.717C-367.275 -353.615 -365.978 -351.776 -366.331 -329.542H-366.321ZM-32.8282 -186.117C-30.6797 -196.791 -28.3651 -208.774 -25.8429 -220.547C-25.1994 -223.548 -23.8917 -225.873 -22.8953 -228.494C-21.93 -225.239 -20.6015 -222.259 -20.0514 -218.708C-11.8727 -165.764 -3.78726 -112.778 4.25658 -59.7282C4.73402 -56.5579 4.65099 -53.0072 4.83781 -49.6256C3.5508 -51.4432 1.76556 -52.6268 1.0494 -55.1842C-9.79681 -94.052 -20.5288 -133.068 -31.1675 -172.21C-32.0912 -175.634 -32.1431 -180.178 -32.8178 -186.096L-32.8282 -186.117ZM-253.146 -302.742C-254.049 -286.954 -255.108 -266.918 -256.436 -246.945C-256.686 -243.267 -258.326 -236.694 -258.824 -236.927C-264.615 -239.442 -270.76 -241.196 -275.825 -247.114C-278.202 -249.883 -279.81 -261.634 -279.395 -268.651C-278.503 -283.826 -277.475 -300.481 -273.884 -312.971C-270.262 -325.589 -263.494 -333.938 -258.097 -344.146C-256.447 -332.374 -254.797 -320.58 -253.157 -308.808C-253.084 -308.258 -253.157 -307.624 -253.157 -302.742H-253.146ZM55.1663 -463.751C52.8829 -441.897 50.6929 -420.001 48.2019 -398.252C47.8074 -394.85 46.043 -392.208 44.9013 -389.207C44.0502 -392.123 43.0019 -394.871 42.3896 -398.02C38.3728 -418.69 33.4323 -438.896 30.8687 -460.411C29.1665 -474.72 30.6507 -491.036 31.3254 -506.317C31.4291 -508.706 35.1553 -512.89 36.7121 -512.024C49.0841 -505.218 54.0246 -490.846 55.1559 -463.751H55.1663ZM115.49 28.723C115.293 29.97 115.116 31.7454 114.753 33.2883C110.02 53.3034 105.339 73.382 100.316 93.0167C100.015 94.2214 95.8422 93.3336 95.2713 91.1778C91.4622 76.7635 88.3899 61.4193 84.6015 46.9628C76.2671 15.1753 77.9796 17.1409 90.6318 8.01042C92.9567 6.34073 95.1364 3.74106 97.3679 1.50071C104.228 -5.34713 115.718 11.5822 115.479 28.7018L115.49 28.723ZM162.642 -470.345C163.265 -471.212 166.337 -477.848 167.406 -476.58C177.91 -464.047 188.331 -450.964 198.149 -436.085C200.163 -433.041 200.236 -421.713 199.935 -414.442C199.748 -409.877 197.464 -402.67 195.679 -401.972C178.855 -395.336 163.442 -424.566 162.642 -470.366V-470.345ZM-367.888 -147.989C-364.919 -170.372 -370.182 -205.646 -352.329 -217.588C-349.039 -219.786 -345.49 -220.209 -342.054 -221.456C-341.784 -210.951 -339.636 -198.186 -341.618 -190.366C-347.109 -168.66 -354.25 -148.898 -360.923 -128.672C-362.096 -125.121 -364.193 -122.986 -365.864 -120.217C-366.538 -124.973 -367.338 -129.686 -367.825 -134.526C-368.106 -137.358 -367.877 -140.444 -367.877 -147.968L-367.888 -147.989ZM91.8565 -564.799C90.5592 -561.967 88.4522 -555.288 85.5357 -551.589C82.069 -547.172 77.9173 -545.375 74.0771 -542.374C69.1262 -538.485 67.3306 -542.036 67.1023 -553.618C66.5522 -581.369 65.3794 -609.077 64.5698 -636.807C64.4764 -639.935 65.0784 -643.168 65.3586 -646.36C66.6975 -644.606 68.0883 -642.999 69.365 -641.055C78.4467 -627.232 80.3772 -605.611 82.4842 -584.137C82.6918 -582.003 83.1069 -579.974 83.4287 -577.881C83.9476 -579.593 84.643 -581.178 84.9752 -583.059C86.0027 -588.935 86.9057 -594.938 87.8502 -600.877C88.8155 -594.409 89.8742 -588.005 90.7253 -581.453C91.1612 -578.072 91.2234 -574.436 91.8669 -564.778L91.8565 -564.799ZM280.373 -534.364C279.024 -534.702 277.934 -534.258 277.332 -535.23C271.437 -544.699 263.964 -552.012 260.092 -564.545C249.786 -597.939 240.891 -633.425 231.84 -668.594C230.74 -672.842 232.172 -680.176 232.421 -686.073C234.715 -683.452 237.922 -682.121 239.147 -677.999C252.121 -634.144 264.784 -589.844 277.519 -545.65C278.38 -542.649 279.096 -539.415 280.373 -534.364ZM178.377 -79.2995C177.37 -89.8038 176.353 -99.6529 175.523 -109.565C175.326 -111.954 175.72 -114.553 175.834 -117.068C176.447 -115.208 177.246 -113.539 177.63 -111.489C184.605 -74.7343 191.538 -37.9589 198.44 -1.1412C198.71 0.317136 198.596 2.13481 198.658 3.78336C197.641 2.38843 196.375 1.4373 195.638 -0.486011C187.604 -21.4522 179.54 -42.355 171.734 -63.7016C167.334 -75.7488 161.978 -87.5635 159.819 -101.513C158.636 -109.185 163.182 -121.042 165.144 -131.018C167.188 -125.227 169.929 -120.027 171.112 -113.496C173.105 -102.527 174.039 -90.6703 175.585 -79.2995C175.814 -77.5876 176.934 -76.4462 177.64 -75.0301C177.91 -76.5942 178.18 -78.1582 178.377 -79.2995ZM-382.751 543.854C-383.633 541.613 -384.474 540.472 -384.536 539.162C-385.439 519.485 -389.611 496.49 -386.373 480.744C-378.641 443.038 -367.4 408.736 -357.561 373.081C-357.156 371.622 -356.523 370.481 -356.004 369.192C-355.921 371.178 -355.526 373.398 -355.786 375.131C-364.079 428.624 -372.423 482.054 -380.799 535.484C-381.215 538.105 -381.952 540.493 -382.74 543.875L-382.751 543.854ZM-285.685 -145.305H-285.156C-285.156 -155.429 -285.446 -165.595 -285.073 -175.634C-284.678 -186.181 -283.64 -196.601 -282.883 -207.084C-278.575 -204.864 -274.206 -203.131 -270.002 -200.215C-267.895 -198.756 -264.283 -193.726 -264.449 -192.691C-269.172 -163.545 -274.216 -134.653 -279.457 -105.93C-279.893 -103.521 -282.208 -100.984 -283.381 -101.492C-284.346 -101.914 -285.508 -106.67 -285.571 -109.608C-285.82 -121.486 -285.675 -133.406 -285.675 -145.305H-285.685ZM-127.787 -346.957C-127.963 -346.957 -128.14 -346.957 -128.327 -346.957C-128.327 -358.835 -128.472 -370.713 -128.233 -382.57C-128.171 -385.804 -126.905 -388.911 -126.199 -392.06C-119.172 -381.978 -112.094 -372.045 -105.233 -361.477C-104.724 -360.695 -105.295 -354.587 -106.105 -352.114C-111.191 -336.685 -116.432 -321.489 -121.777 -306.483C-122.68 -303.968 -124.341 -302.721 -125.649 -300.903C-126.365 -304.391 -127.621 -307.814 -127.704 -311.365C-127.963 -323.222 -127.808 -335.1 -127.808 -346.978L-127.787 -346.957ZM-460.947 -139.303C-461.591 -140.951 -463.179 -144.439 -463.044 -144.798C-459.536 -153.971 -456.505 -168.216 -452.083 -170.752C-436.556 -179.692 -420.541 -184.659 -404.682 -190.873C-403.26 -191.422 -401.682 -190.196 -400.177 -189.795C-401.226 -186.836 -401.994 -182.25 -403.353 -181.172C-415.424 -171.619 -427.568 -162.53 -439.743 -153.632C-446.468 -148.708 -453.308 -144.439 -460.947 -139.303ZM-447.579 -263.705C-448.15 -264.233 -448.721 -264.783 -449.291 -265.311C-448.586 -270.257 -448.191 -275.541 -447.122 -280.064C-437.511 -320.601 -427.817 -361.012 -418.019 -401.338C-417.407 -403.874 -415.819 -405.312 -414.698 -407.256C-413.66 -402.881 -411.304 -397.555 -411.802 -394.279C-415.009 -373.123 -417.562 -350.698 -422.814 -331.993C-429.146 -309.442 -437.947 -290.167 -445.669 -269.433C-446.354 -267.594 -446.946 -265.607 -447.589 -263.684L-447.579 -263.705ZM107.737 -329.753C108.577 -325.906 109.138 -323.962 109.449 -321.848C113.518 -294.161 117.576 -266.474 121.531 -238.702C121.873 -236.314 121.416 -233.397 121.333 -230.734C120.109 -231.685 118.749 -232.213 117.669 -233.672C97.4405 -261.021 95.4893 -275.076 105.484 -321.088C106.014 -323.518 106.709 -325.801 107.737 -329.732V-329.753ZM-155.188 -454.641C-157.43 -464.195 -158.769 -467.449 -158.935 -470.979C-160.045 -495.137 -160.948 -519.358 -161.779 -543.579C-161.862 -546.094 -161.052 -548.757 -160.658 -551.357C-159.267 -549.919 -157.233 -549.285 -156.579 -546.897C-152.292 -531.172 -145.992 -515.723 -145.006 -498.878C-144.29 -486.725 -150.766 -472.585 -155.198 -454.641H-155.188ZM214.248 -365.324C227.284 -364.542 237.85 -343.533 238.815 -320.094C238.867 -318.889 235.992 -315.191 235.12 -315.994C227.595 -322.863 220.008 -329.711 212.94 -338.44C211.051 -340.764 209.878 -349.895 210.21 -355.369C210.49 -359.871 213.49 -363.569 214.258 -365.324H214.248ZM-205.558 -278.817C-210.82 -253.877 -216.155 -228.494 -221.604 -203.216C-221.936 -201.673 -223.171 -201.081 -223.991 -200.046C-224.199 -202.307 -224.739 -204.695 -224.562 -206.788C-221.926 -237.561 -219.258 -268.334 -216.29 -298.959C-216.145 -300.417 -212.149 -302.34 -211.682 -301.051C-209.564 -295.239 -208.08 -288.328 -205.568 -278.817H-205.558ZM113.829 207.866C111.67 208.521 110.269 209.895 109.159 209.134C104.747 206.175 100.181 203.554 96.1743 198.799C93.5069 195.629 89.459 187.724 89.8949 184.279C91.4622 172.063 94.6693 160.84 97.3887 149.385C97.4509 149.131 99.5787 150.103 99.9212 151.477C104.374 169.061 108.671 186.836 113.808 207.845L113.829 207.866ZM-360.425 -496.933C-363.383 -488.796 -367.12 -477.573 -371.375 -467.323C-372.901 -463.645 -375.662 -462.377 -377.862 -459.989C-378.62 -466.012 -380.55 -472.754 -379.886 -477.911C-378.589 -488.014 -376.44 -498.244 -373.534 -506.571C-370.555 -515.131 -366.248 -521.514 -362.522 -528.826C-361.93 -519.759 -361.328 -510.671 -360.425 -496.912V-496.933ZM-32.9008 -362.132C-31.4581 -360.674 -30.9806 -360.082 -30.4721 -359.68C-15.4119 -347.866 -11.9972 -330.81 -18.4738 -299.868C-19.0343 -297.183 -19.3975 -294.203 -20.1344 -291.773C-20.7883 -289.596 -21.8366 -287.968 -22.7085 -286.108C-23.269 -288.011 -24.0681 -289.765 -24.3691 -291.857C-27.2649 -312.232 -30.1088 -332.627 -32.8593 -353.086C-33.2018 -355.601 -32.9008 -358.539 -32.9008 -362.175V-362.132ZM-190.155 -198.777C-190.84 -199.686 -188.567 -198.228 -187.747 -194.994C-187.218 -192.923 -188.391 -186.371 -189.553 -185.103C-198.677 -175.148 -207.966 -165.912 -217.255 -156.676C-218.054 -155.873 -219.206 -156.739 -220.203 -156.824C-219.881 -159.001 -219.59 -161.22 -219.217 -163.376C-214.629 -189.626 -205.247 -199.665 -190.155 -198.756V-198.777ZM94.8873 -506.148C94.7212 -504.331 94.2853 -499.829 93.8597 -495.327C91.7009 -496.933 89.2618 -497.631 87.435 -500.294C82.9305 -506.846 78.5193 -513.82 74.5337 -521.725C73.7034 -523.373 74.212 -532.356 75.2292 -533.603C90.0506 -551.822 92.8011 -548.672 94.607 -512.51C94.6693 -511.347 94.7109 -510.164 94.8873 -506.127V-506.148ZM-25.6665 -450.097C-24.8154 -454.726 -23.8086 -461.532 -22.2621 -467.703C-21.93 -469.035 -18.7229 -469.183 -18.4011 -467.957C-13.5333 -449.463 -8.87304 -430.695 -4.36849 -411.758C-3.99484 -410.194 -4.98085 -404.952 -5.46867 -404.868C-13.0558 -403.431 -26.0194 -431.266 -25.6769 -450.097H-25.6665ZM5.97949 -365.197C6.92399 -363.802 7.54672 -363.379 7.77506 -362.491C13.9507 -337.996 20.0951 -313.479 26.2084 -288.898C26.416 -288.074 26.1981 -286.764 26.1773 -285.665C25.4923 -286.257 24.662 -286.51 24.143 -287.525C16.8257 -301.812 9.02058 -315.212 2.60627 -331.232C0.800298 -335.734 2.94877 -348.119 3.63379 -356.764C3.87252 -359.765 5.15955 -362.365 5.98988 -365.197H5.97949ZM-20.6534 -521.027C-24.6597 -522.401 -29.6521 -561.586 -26.8498 -569.681C-22.3141 -582.785 -13.6578 -582.468 -13.3465 -568.455C-13.004 -553.195 -17.0518 -537.471 -19.2626 -522C-19.3456 -521.408 -20.1656 -521.302 -20.6534 -521.027ZM-376.17 -370.29C-382.813 -376.927 -388.47 -382.57 -394.116 -388.213C-389.943 -398.802 -385.771 -409.412 -381.599 -420.001C-378.433 -407.573 -375.07 -395.336 -372.309 -382.486C-371.905 -380.626 -374.344 -375.87 -376.17 -370.29ZM156.145 -529.777C155.74 -525.719 155.045 -518.829 154.349 -511.939C151.173 -519.294 147.945 -526.586 144.873 -534.131C144.448 -535.167 144.552 -537.661 144.707 -539.331C146.181 -554.78 147.645 -570.23 149.316 -585.596C149.575 -587.984 150.852 -589.844 151.651 -591.958C152.18 -589.337 153.021 -586.822 153.187 -584.116C154.204 -567.102 155.055 -550.046 156.145 -529.777ZM-289.318 -48.7167C-294.331 -20.4376 -299.282 7.56658 -304.305 35.4863C-304.523 36.7333 -305.436 37.3886 -306.018 38.3185C-306.132 36.6277 -306.464 34.8734 -306.339 33.2671C-304.025 4.77675 -301.845 -23.7982 -299.084 -52.0772C-298.69 -56.1563 -295.4 -58.8828 -293.449 -62.2433C-292.276 -58.3755 -291.092 -54.5289 -289.318 -48.7167ZM-308.685 -261.972C-309.09 -256.836 -309.017 -255.441 -309.297 -254.553C-315.691 -234.158 -322.095 -213.762 -328.623 -193.557C-329.059 -192.204 -330.481 -192.373 -331.447 -191.824C-331.654 -195.058 -332.443 -198.799 -331.955 -201.419C-330.004 -211.776 -328.032 -222.28 -325.333 -231.749C-322.157 -242.908 -318.421 -253.391 -314.446 -263.261C-313.719 -265.079 -310.709 -262.522 -308.685 -261.972ZM139.653 -606.858C140.047 -606.604 140.441 -606.351 140.825 -606.097C139.082 -589.633 137.473 -573.084 135.48 -556.767C135.075 -553.47 133.217 -551.04 132.024 -548.207C131.287 -551.737 129.813 -555.393 129.938 -558.754C130.924 -584.666 132.169 -610.514 133.487 -636.363C133.612 -638.857 134.816 -641.097 135.522 -643.443C136.622 -641.266 138.542 -639.322 138.687 -636.87C139.3 -626.958 139.372 -616.876 139.642 -606.858H139.653ZM181.771 -16.7391C181.065 -16.3586 180.277 -15.4498 180.027 -15.8936C169.358 -35.9299 158.646 -55.8605 148.361 -76.7844C147.696 -78.1371 150.416 -87.3521 151.557 -92.9107C152.844 -89.9095 154.215 -87.0562 155.408 -83.8859C156.238 -81.6878 156.674 -78.7711 157.546 -76.6576C165.216 -57.974 172.938 -39.396 180.629 -20.7547C180.982 -19.8881 181.2 -18.768 181.771 -16.7179V-16.7391ZM-23.6841 -493.044C-25.9779 -483.216 -27.5348 -476.516 -29.102 -469.838C-30.1814 -471.211 -31.7591 -471.994 -32.2469 -474.044C-36.0146 -489.853 -39.7199 -505.747 -43.0516 -521.979C-43.6328 -524.79 -42.7195 -529.841 -41.8372 -532.948C-41.3909 -534.512 -38.7027 -535.399 -38.3083 -534.343C-33.2848 -520.774 -28.5001 -506.803 -23.6841 -493.023V-493.044ZM-360.955 -457.474C-361.878 -436.803 -362.605 -419.134 -363.508 -401.528C-363.643 -398.865 -364.546 -396.393 -365.096 -393.835C-365.646 -395.04 -366.269 -396.118 -366.736 -397.449C-373.866 -418.014 -374.25 -441.347 -367.628 -459.989C-366.009 -464.554 -363.996 -468.464 -362.158 -472.691C-361.691 -466.689 -361.214 -460.686 -360.965 -457.495L-360.955 -457.474ZM99.0908 -713.232C103.388 -698.564 107.571 -689.581 108.816 -678.972C112.241 -649.763 114.452 -619.856 117.088 -590.203C117.265 -588.174 116.984 -585.955 116.912 -583.82C116.486 -585.258 115.895 -586.589 115.646 -588.174C109.833 -625.816 104.042 -663.458 98.3228 -701.164C98.0633 -702.876 98.5407 -705.137 99.0805 -713.232H99.0908ZM-44.7745 -342.159C-44.0168 -343.089 -43.2591 -344.04 -42.5015 -344.97C-42.2627 -350.804 -42.1694 -356.679 -41.7127 -362.407C-41.5674 -364.267 -40.4776 -365.789 -39.8237 -367.458C-39.2217 -365.725 -38.3083 -364.182 -38.0696 -362.238C-34.904 -336.58 -31.8006 -310.879 -28.7803 -285.136C-28.5415 -283.107 -29.0086 -280.698 -29.1539 -278.479C-30.1711 -280.085 -31.6449 -281.226 -32.1223 -283.403C-36.44 -302.89 -40.5917 -322.546 -44.7849 -342.159H-44.7745ZM-154.42 -176.945C-154.264 -176.924 -154.119 -176.881 -153.963 -176.86C-154.43 -167.18 -154.897 -157.5 -155.364 -147.82C-157.98 -155.746 -160.595 -163.651 -163.19 -171.597C-163.813 -173.521 -164.664 -175.423 -164.882 -177.6C-165.546 -184.215 -167.415 -193.156 -166.138 -197.171C-164.021 -203.85 -159.817 -207.38 -156.496 -212.241C-155.8 -204.611 -154.991 -197.002 -154.472 -189.309C-154.191 -185.272 -154.42 -181.066 -154.42 -176.945ZM229.827 -626.049C229.827 -630.17 229.733 -634.313 229.868 -638.413C229.941 -640.611 230.377 -642.746 230.657 -644.901C231.498 -643.802 232.639 -643.168 233.127 -641.562C238.991 -622.456 244.793 -603.265 250.46 -583.884C250.772 -582.806 249.588 -577.924 249.277 -578.008C242.012 -579.889 229.66 -610.514 229.827 -626.028V-626.049ZM-163.865 -496.363C-164.104 -491.945 -164.498 -484.801 -164.892 -477.679C-167.767 -482.92 -172.563 -487.359 -173.113 -493.573C-174.171 -505.599 -173.227 -518.766 -172.303 -531.194C-171.981 -535.547 -169.324 -539.077 -167.726 -543.008C-166.916 -538.401 -165.712 -533.941 -165.38 -529.186C-164.674 -519.273 -164.425 -509.234 -163.865 -496.363ZM54.9795 -568.814C54.7926 -566.997 54.4605 -563.742 54.1388 -560.466C52.5196 -562.178 50.5579 -563.108 49.3228 -565.707C43.3237 -578.368 43.2199 -617.362 49.0011 -634.545C49.354 -635.602 50.0493 -636.13 50.589 -636.912C50.9938 -634.757 51.6477 -632.664 51.7723 -630.445C52.8621 -610.472 53.8689 -590.457 54.9795 -568.814ZM-195.947 -320.474C-195.781 -323.708 -195.718 -325.758 -195.563 -327.787C-193.726 -350.613 -191.899 -373.44 -189.989 -396.245C-189.813 -398.4 -189.086 -400.324 -188.619 -402.374C-187.758 -400.493 -186.689 -398.865 -186.066 -396.646C-180.793 -377.688 -185.101 -338.249 -194.006 -323.37C-194.411 -322.694 -194.847 -322.102 -195.936 -320.474H-195.947ZM85.1828 -206.555C86.4283 -204.209 87.3313 -202.92 87.9851 -201.166C95.4996 -180.939 102.983 -160.671 110.446 -140.36C110.923 -139.07 111.151 -137.337 111.494 -135.815C110.56 -136.28 109.387 -136.111 108.723 -137.295C100.129 -152.702 91.4725 -168.004 83.19 -184.173C81.9237 -186.646 82.0587 -193.536 82.2974 -198.207C82.4427 -200.997 84.0307 -203.427 85.1724 -206.555H85.1828ZM43.1472 -666.037C42.0263 -654.666 41.3828 -645.831 40.2307 -637.293C39.5041 -631.924 38.0303 -627.063 36.8886 -621.97C36.1309 -627.761 34.8854 -633.488 34.7194 -639.364C34.3976 -650.946 36.2451 -664.769 27.1322 -663.5C26.7586 -663.458 26.0943 -673.117 25.5753 -678.253C30.5988 -676.626 35.6639 -675.463 40.594 -673.011C41.8395 -672.398 42.6282 -667.537 43.1368 -666.058L43.1472 -666.037ZM-7.18126 -509.044C-6.47548 -509.614 -5.76971 -510.164 -5.05355 -510.735C-5.05355 -518.407 -5.20923 -526.079 -4.98089 -533.709C-4.88747 -536.837 -3.96373 -539.859 -3.42401 -542.924C-2.50027 -540.387 -0.964147 -538.062 -0.756564 -535.273C0.955995 -513.228 2.45056 -491.121 3.88288 -468.992C3.99705 -467.175 3.24982 -465.082 2.90731 -463.117C2.02508 -464.216 0.634219 -464.892 0.322844 -466.52C-2.2927 -480.596 -4.72142 -494.841 -7.20204 -509.044H-7.18126ZM-236.944 -290.758C-235.554 -303.017 -233.644 -320.707 -231.475 -338.249C-231.122 -341.081 -229.638 -343.237 -228.672 -345.689C-228.029 -342.624 -226.659 -339.306 -226.866 -336.516C-228.184 -318.509 -229.679 -300.523 -231.464 -282.706C-232.263 -274.759 -233.872 -267.171 -235.118 -259.436C-235.606 -267.763 -236.093 -276.09 -236.944 -290.737V-290.758ZM-49.4971 -469.605C-48.7913 -470.472 -48.0751 -471.338 -47.3693 -472.226C-47.3693 -474.593 -47.5561 -477.045 -47.3278 -479.285C-46.8815 -483.681 -46.1964 -487.951 -45.6152 -492.283C-44.3178 -488.881 -42.678 -485.837 -41.775 -481.99C-39.1906 -470.958 -36.7203 -459.777 -34.6133 -448.28C-34.0425 -445.152 -34.302 -439.107 -35.288 -437.374C-36.3467 -435.514 -39.6991 -435.577 -40.3219 -437.48C-43.6743 -447.73 -46.4871 -458.805 -49.4867 -469.584L-49.4971 -469.605ZM160.971 -362.661C160.255 -361.519 159.549 -360.378 158.833 -359.237C158.314 -346.83 157.806 -334.424 157.256 -322.017C157.183 -320.284 156.944 -318.572 156.788 -316.839C156.238 -318.572 155.377 -320.157 155.18 -322.06C152.917 -343.449 150.686 -364.88 148.724 -386.417C148.61 -387.643 150.872 -389.883 152.024 -391.658C155.003 -381.978 157.982 -372.319 160.961 -362.639L160.971 -362.661ZM-82.3678 -533.455C-82.482 -529.08 -82.3367 -524.219 -82.8764 -519.759C-83.0632 -518.174 -84.9211 -517.519 -86.0109 -516.462C-87.9829 -535.125 -90.1522 -553.703 -91.6986 -572.534C-91.9166 -575.134 -89.0831 -578.917 -87.6715 -582.172C-86.4987 -578.41 -84.6097 -574.901 -84.2879 -570.822C-83.3227 -558.627 -82.9698 -546.2 -82.3678 -533.476V-533.455ZM-498.167 -58.3122C-497.731 -69.4293 -497.295 -76.4462 -497.212 -83.4843C-497.056 -97.349 -493.963 -105.592 -487.684 -107.663C-485.961 -108.234 -484.145 -107.41 -482.38 -107.219C-482.795 -103.901 -482.878 -100.181 -483.667 -97.3702C-487.321 -84.3086 -491.109 -71.416 -494.98 -58.6503C-495.614 -56.5579 -496.921 -55.4588 -497.918 -53.8948C-498.084 -56.727 -498.239 -59.538 -498.167 -58.3122ZM-40.9654 -256.942C-41.173 -257.026 -41.3806 -257.111 -41.5882 -257.195C-40.8616 -264.339 -40.1454 -271.483 -39.4189 -278.627C-37.094 -273.068 -34.7275 -267.594 -32.4648 -261.93C-31.7694 -260.175 -30.7108 -257.618 -30.8769 -255.927C-32.0186 -244.874 -33.3782 -233.926 -34.8728 -223.062C-35.0181 -222.005 -37.3431 -221.287 -37.3534 -221.35C-38.6301 -229.593 -39.9171 -237.857 -40.8927 -246.311C-41.2767 -249.65 -40.955 -253.37 -40.955 -256.921L-40.9654 -256.942ZM-172.583 -445.638C-175.624 -449.463 -180.638 -452.147 -181.385 -457.622C-182.371 -464.765 -179.984 -474.128 -179.06 -482.519C-175.874 -478.08 -172.687 -473.663 -169.521 -469.182C-169.075 -468.548 -168.629 -467.766 -168.318 -466.858C-166.771 -462.356 -165.276 -457.769 -163.761 -453.225C-166.314 -451.027 -168.868 -448.829 -172.594 -445.638H-172.583ZM-439.494 -267.277C-438.705 -266.939 -438.269 -266.749 -437.822 -266.579C-438.082 -264.91 -438.217 -263.113 -438.611 -261.613C-444.745 -237.983 -450.869 -214.354 -457.107 -190.852C-457.699 -188.611 -459.006 -187.259 -459.982 -185.483C-460.086 -188.189 -460.574 -191.148 -460.231 -193.557C-458.643 -204.822 -457.75 -217.271 -454.875 -226.824C-450.454 -241.471 -444.621 -254.089 -439.494 -267.298V-267.277ZM-469.385 -616.749C-469.759 -618.778 -470.133 -620.025 -470.205 -621.336C-471.119 -637.039 -460.262 -678.845 -453.609 -685.249C-452.634 -686.179 -451.606 -686.855 -450.61 -687.637C-450.838 -684.995 -450.745 -681.93 -451.336 -679.754C-456.661 -660.351 -462.11 -641.118 -467.538 -621.864C-467.953 -620.385 -468.524 -619.116 -469.385 -616.749ZM221.419 -551.357C221.212 -547.425 220.932 -539.796 220.33 -532.271C220.143 -529.904 219.095 -527.854 218.441 -525.656C217.776 -527.389 216.79 -528.911 216.521 -530.898C214.922 -542.543 213.012 -554.146 212.296 -566.088C212.068 -569.913 215.15 -574.69 216.718 -579.044C218.285 -575.155 220.299 -571.731 221.274 -567.25C222.011 -563.89 221.419 -559.177 221.419 -551.357ZM-211.63 -522.317C-213.249 -509.678 -214.391 -498.096 -216.29 -487.126C-217.131 -482.286 -219.507 -478.736 -221.189 -474.593C-222.268 -481.483 -224.801 -489.198 -224.095 -495.073C-222.818 -505.62 -219.674 -515.131 -217.141 -524.853C-216.414 -527.622 -215.086 -529.608 -214.027 -531.976C-213.187 -528.594 -212.346 -525.212 -211.63 -522.338V-522.317ZM137.961 -206.809C137.847 -205.963 137.639 -204.463 137.442 -202.962C136.404 -204.695 134.754 -205.963 134.411 -208.204C128.443 -246.966 122.631 -285.834 116.839 -324.723C116.621 -326.202 116.985 -328.083 117.078 -329.795C117.763 -327.724 118.718 -325.843 119.081 -323.539C123.357 -296.613 127.488 -269.581 131.764 -242.675C133.643 -230.903 135.781 -219.321 137.95 -206.83L137.961 -206.809ZM-114.72 -283.276C-115.311 -283.636 -115.768 -283.91 -116.214 -284.185C-115.851 -285.707 -115.602 -287.419 -115.124 -288.708C-108.627 -306.103 -102.213 -323.687 -95.4455 -340.553C-94.2415 -343.554 -91.4599 -343.554 -89.4152 -344.928C-89.9342 -340.321 -89.7889 -334.297 -91.0966 -331.317C-97.4591 -316.86 -104.174 -303.165 -110.838 -289.342C-112 -286.933 -113.474 -285.2 -114.72 -283.276ZM-356.959 -236.99C-358.484 -238.406 -360.218 -239.632 -360.186 -240.012C-358.754 -254.088 -357.177 -268.08 -355.474 -282.008C-355.443 -282.304 -353.004 -282.198 -352.817 -281.247C-350.907 -271.589 -347.856 -261.613 -348.032 -251.975C-348.126 -246.733 -353.803 -241.978 -356.969 -237.011L-356.959 -236.99ZM-476.122 -140.803C-475.25 -138.521 -474.367 -136.238 -473.496 -133.955C-476.205 -131.271 -478.81 -127.721 -481.643 -126.157C-485.151 -124.191 -488.857 -123.874 -492.479 -122.838C-492.168 -129.052 -492.022 -135.35 -491.483 -141.48C-491.078 -146.066 -490.414 -150.779 -489.376 -154.816C-488.504 -158.155 -486.905 -160.607 -485.629 -163.439C-485.868 -159.952 -486.096 -156.486 -486.335 -152.998C-486.625 -148.56 -486.916 -144.1 -487.206 -139.662C-485.567 -141.966 -483.989 -144.502 -482.276 -146.51C-481.041 -147.968 -479.163 -150.42 -478.415 -149.427C-477.274 -147.905 -476.858 -143.805 -476.132 -140.782L-476.122 -140.803ZM153.602 -187.111C155.159 -198.482 156.664 -209.451 158.169 -220.42C159.83 -210.529 161.542 -200.68 163.109 -190.704C163.639 -187.364 163.95 -183.75 164.054 -180.221C164.22 -174.641 164.127 -168.998 164.137 -163.397C161.594 -166.398 158.667 -168.512 156.643 -172.696C155.076 -175.951 154.661 -181.806 153.602 -187.111ZM-350.212 -484.231C-352.423 -452.845 -354.457 -423.425 -356.616 -394.046C-356.803 -391.574 -357.82 -389.376 -358.443 -387.072C-358.692 -388.636 -359.242 -390.263 -359.159 -391.743C-357.55 -422.41 -355.941 -453.099 -354.094 -483.703C-353.917 -486.556 -352.215 -488.986 -351.219 -491.607C-350.804 -488.585 -350.389 -485.541 -350.212 -484.231ZM-173.632 -435.176C-169.719 -429.533 -167.788 -426.743 -165.847 -423.953C-169.366 -413.132 -172.884 -402.289 -176.403 -391.468C-177.711 -399.922 -180.098 -408.44 -179.953 -416.767C-179.849 -422.516 -176.258 -427.969 -173.632 -435.176ZM-207.001 -386.48C-205.973 -392.969 -204.51 -402.205 -203.036 -411.462C-202.06 -410.722 -200.306 -410.278 -200.223 -409.201C-199.496 -399.922 -199.019 -390.538 -198.614 -381.154C-198.521 -378.893 -198.853 -376.42 -199.185 -374.179C-200.078 -368.219 -201.064 -362.344 -202.019 -356.447C-203.472 -362.428 -205.049 -368.283 -206.305 -374.433C-206.835 -377.011 -206.668 -380.245 -207.001 -386.48ZM89.2099 -255.209C87.1133 -247.494 85.9819 -242.95 84.5808 -238.829C84.4666 -238.491 82.1106 -240.477 81.519 -242.422C77.7617 -254.723 74.1186 -267.214 70.6831 -279.937C70.2264 -281.628 71.1917 -285.115 71.4927 -287.778C77.3257 -277.042 83.1692 -266.305 89.2099 -255.209ZM246.963 -285.263C246.755 -283.826 246.558 -282.389 246.35 -280.951C244.658 -281.395 242.707 -280.804 241.327 -282.473C231.591 -294.309 221.97 -306.567 212.369 -318.868C211.705 -319.714 211.435 -322.081 210.988 -323.729C211.756 -323.349 212.576 -323.243 213.282 -322.567C222.758 -313.542 232.266 -304.665 241.628 -295.133C243.672 -293.062 245.198 -288.602 246.963 -285.242V-285.263ZM130.208 -41.5307C127.8 -28.6382 125.942 -17.5633 123.648 -6.9111C122.714 -2.59949 120.846 0.760983 119.392 4.5442C117.971 1.12028 115.947 -1.85978 115.293 -5.87549C114.618 -10.0391 114.39 -17.056 115.511 -19.5923C119.05 -27.5814 123.285 -34.1545 127.332 -41.0024C127.862 -41.9112 128.92 -41.3405 130.187 -41.5096L130.208 -41.5307ZM-478.166 -207.845C-477.492 -213.086 -477.409 -216.172 -476.744 -218.454C-469.977 -241.407 -463.148 -264.297 -456.214 -287.017C-455.488 -289.384 -453.962 -290.61 -452.81 -292.365C-453.007 -289.532 -452.81 -286.13 -453.474 -283.953C-460.636 -260.26 -467.932 -236.736 -475.229 -213.234C-475.654 -211.86 -476.433 -210.973 -478.166 -207.866V-207.845ZM102.163 -543.854C102.163 -543.854 102.464 -546.538 102.765 -549.264C103.575 -546.559 104.82 -544.065 105.111 -541.127C107.021 -522.021 108.858 -502.851 110.373 -483.576C110.726 -479.137 109.75 -474.213 109.377 -469.5C107.965 -473.896 105.63 -477.975 105.308 -482.73C103.969 -502.048 103.243 -521.577 102.153 -543.854H102.163ZM-153.32 -103.373C-154.7 -94.5382 -155.354 -90.4379 -155.997 -86.3165C-156.465 -87.6058 -157.087 -88.747 -157.378 -90.2265C-162.495 -116.307 -167.581 -142.41 -172.646 -168.533C-172.936 -170.012 -172.915 -171.788 -173.04 -173.415C-172.614 -173.098 -171.971 -173.077 -171.805 -172.443C-165.432 -148.729 -159.09 -124.952 -153.33 -103.373H-153.32ZM-257.111 -377.498C-259.664 -370.84 -262.218 -363.823 -264.999 -357.271C-265.529 -356.024 -266.94 -356.574 -267.947 -356.299C-267.542 -363.104 -267.189 -369.931 -266.722 -376.716C-266.567 -379.04 -266.234 -381.344 -265.85 -383.542C-264.522 -391.088 -263.131 -398.591 -261.771 -406.115C-260.37 -397.534 -258.979 -388.953 -257.111 -377.498ZM127.582 -637.314C127.582 -634.376 127.737 -631.375 127.55 -628.5C126.98 -619.814 126.263 -611.169 125.599 -602.504C124.665 -610.683 123.617 -618.799 122.818 -627.042C122.039 -635.095 121.313 -643.232 120.939 -651.411C120.7 -656.758 121.126 -662.254 121.25 -667.664C123.347 -662.824 126.035 -658.639 127.353 -652.954C128.329 -648.748 127.55 -642.598 127.571 -637.293L127.582 -637.314ZM-48.9988 -225.006C-49.2272 -224.922 -49.4555 -224.837 -49.6839 -224.753C-50.2651 -200.468 -50.7737 -176.184 -51.5002 -151.92C-51.6144 -148.243 -52.725 -144.692 -53.3685 -141.099C-53.6487 -144.967 -54.2299 -148.877 -54.1573 -152.702C-53.6902 -176.987 -53.1194 -201.271 -52.4759 -225.535C-52.2268 -235.067 -51.7078 -244.557 -51.303 -254.067C-50.535 -244.387 -49.7669 -234.686 -48.9884 -225.006H-48.9988ZM-72.3519 -402.374C-76.0469 -386.839 -79.5758 -371.643 -83.3746 -356.764C-83.7067 -355.453 -86.3118 -355.052 -86.8723 -356.299C-87.713 -358.201 -88.3773 -362.766 -87.8791 -364.732C-84.4955 -378.174 -80.8317 -391.257 -77.1367 -404.318C-76.6489 -406.03 -75.4968 -407.848 -74.6768 -407.784C-74.0126 -407.742 -73.3898 -404.931 -72.3519 -402.353V-402.374ZM-331.166 -447.477C-334.612 -437.691 -337.819 -428.413 -341.13 -419.324C-341.525 -418.225 -342.511 -418.162 -343.227 -417.612C-342.511 -426.214 -341.815 -434.838 -341.058 -443.44C-340.798 -446.356 -340.58 -449.4 -340.02 -452.042C-338.878 -457.389 -337.518 -462.504 -336.242 -467.724C-334.716 -461.658 -333.201 -455.593 -331.166 -447.498V-447.477ZM-32.5998 -413.702C-29.2473 -410.088 -27.4829 -409.496 -26.9535 -407.425C-23.9332 -395.632 -21.1931 -383.479 -18.4219 -371.39C-18.3596 -371.136 -19.3041 -369.403 -19.356 -369.487C-23.9851 -377.624 -28.9464 -385.127 -32.9631 -394.533C-34.1878 -397.407 -32.8489 -405.502 -32.6102 -413.702H-32.5998ZM-420.614 -432.449C-424.184 -416.809 -426.852 -404.487 -429.799 -392.482C-431.273 -386.48 -433.245 -381.07 -434.999 -375.384C-434.501 -382.274 -434.553 -389.65 -433.391 -395.949C-431.18 -407.954 -428.398 -419.472 -425.544 -430.822C-425.16 -432.344 -423.001 -431.752 -420.624 -432.428L-420.614 -432.449ZM-228.184 -229.952C-228.018 -229.867 -227.852 -229.783 -227.697 -229.698C-229.648 -211.776 -231.527 -193.811 -233.633 -175.972C-233.986 -172.95 -235.325 -170.456 -236.197 -167.709C-236.799 -171.302 -238.273 -175.423 -237.879 -178.382C-235.087 -199.496 -231.931 -220.378 -228.818 -241.281C-228.651 -242.358 -227.852 -243.014 -227.354 -243.859C-227.302 -242.718 -227.147 -241.534 -227.23 -240.435C-227.499 -236.927 -227.863 -233.439 -228.195 -229.931L-228.184 -229.952ZM157.515 -473.748C157.214 -471.972 156.519 -467.872 155.823 -463.772C154.464 -466.393 153 -468.802 151.765 -471.677C150.654 -474.255 149.399 -477.024 148.869 -480.236C147.644 -487.76 146.814 -495.602 145.932 -503.358C145.932 -503.422 147.644 -505.091 147.935 -504.521C151.028 -498.307 154.121 -492.051 156.903 -485.203C157.629 -483.385 157.266 -479.475 157.525 -473.748H157.515ZM-275.513 -30.7306C-276.313 -33.4359 -277.174 -35.0422 -277.049 -36.1201C-275.41 -50.006 -273.739 -63.8918 -271.704 -77.5241C-271.486 -78.9613 -268.881 -78.6866 -267.387 -79.215C-267.335 -75.939 -266.805 -72.2826 -267.303 -69.4927C-269.161 -59.0941 -271.32 -48.9704 -273.427 -38.8043C-273.936 -36.3526 -274.642 -34.1122 -275.513 -30.7517V-30.7306ZM-256.135 -412.392C-255.886 -414.421 -255.419 -418.225 -254.952 -422.03C-253.281 -419.578 -251.382 -417.591 -250.001 -414.527C-248.714 -411.673 -246.908 -407.193 -247.178 -404.255C-247.832 -397.407 -249.597 -391.045 -250.904 -384.493C-252.254 -389.016 -253.852 -393.307 -254.859 -398.168C-255.617 -401.824 -255.627 -406.242 -256.135 -412.392ZM209.909 -599.904C211.653 -608.38 212.41 -612.036 213.168 -615.714C216.282 -608.929 219.51 -602.335 222.333 -595.001C222.582 -594.367 219.416 -585.913 219.178 -586.209C216.022 -590.119 213.106 -594.959 209.909 -599.904ZM-226.918 -536.646C-225.123 -542.247 -222.86 -549.285 -220.608 -556.323C-219.445 -553.09 -217.006 -548.926 -217.338 -546.813C-219.03 -536.076 -221.438 -525.889 -223.597 -515.511C-224.489 -521.218 -225.392 -526.924 -226.918 -536.668V-536.646ZM25.5234 -589.062C23.4684 -584.243 21.787 -580.058 21.7039 -580.185C17.8636 -586.948 14.1479 -594.092 10.4218 -601.194C11.8437 -604.195 14.3036 -610.155 14.5319 -609.775C18.1957 -603.688 21.569 -596.776 25.5131 -589.062H25.5234ZM20.8839 -364.309C20.6141 -362.386 20.2612 -359.828 19.9083 -357.25C19.2855 -358.138 18.393 -358.687 18.0712 -359.955C15.7152 -369.191 13.0684 -378.237 11.4078 -388.065C10.8265 -391.489 12.7467 -396.921 13.5252 -401.444C14.9782 -398.548 17.1682 -396.202 17.7495 -392.609C19.161 -383.775 19.8356 -374.391 20.8943 -364.309H20.8839ZM158.127 -697.042C156.238 -688.736 154.744 -682.205 153.26 -675.653C152.014 -686.432 150.499 -697.106 149.689 -708.033C149.44 -711.414 151.132 -715.451 151.941 -719.192C153.965 -711.943 155.989 -704.693 158.127 -697.042ZM-112.364 -403.621C-113.796 -398.485 -114.657 -395.399 -115.508 -392.335C-118.757 -398.104 -122.006 -403.853 -125.254 -409.623C-122.826 -413.893 -120.397 -418.162 -117.968 -422.41C-116.131 -416.26 -114.294 -410.109 -112.364 -403.621ZM-8.25028 -510.122C-8.03232 -506.571 -7.34733 -501.773 -7.63794 -497.293C-7.78325 -495.116 -9.74492 -493.488 -10.8866 -491.607C-11.7481 -500.695 -13.5852 -509.995 -13.1804 -518.808C-12.7756 -527.706 -10.16 -536.118 -8.50976 -544.741C-8.42672 -535.357 -8.33331 -525.973 -8.25028 -516.568C-8.2399 -514.793 -8.25028 -513.038 -8.25028 -510.122ZM-0.611241 -383.69C-3.65233 -374.496 -5.42715 -369.107 -7.21236 -363.717C-9.40236 -372.911 -11.582 -382.105 -13.772 -391.299C-12.5888 -392.504 -11.1046 -395.357 -10.2846 -394.638C-7.2539 -391.996 -4.43078 -388.15 -0.62163 -383.69H-0.611241ZM-474.305 -489.536C-478.716 -480.68 -482.826 -472.437 -486.926 -464.195C-487.476 -465.653 -488.618 -467.428 -488.493 -468.527C-487.746 -475.227 -487.559 -483.724 -485.546 -487.866C-483.553 -491.988 -479.65 -491.818 -476.557 -493.15C-476.101 -493.34 -475.457 -491.459 -474.305 -489.536ZM-397.365 -357.334C-394.573 -361.477 -392.663 -366.613 -391.075 -366.19C-388.003 -365.366 -385.107 -361.393 -382.138 -358.708C-385.522 -353.995 -388.823 -348.859 -392.414 -345.118C-392.891 -344.632 -394.925 -351.205 -397.354 -357.334H-397.365ZM-171.732 -355.601C-172.708 -363.886 -173.549 -366.951 -173.154 -368.367C-170.227 -378.871 -167.103 -389.143 -163.823 -399.14C-163.616 -399.795 -161.581 -397.618 -160.398 -396.752C-163.73 -384.62 -167.072 -372.51 -171.732 -355.58V-355.601ZM-185.007 -575.409C-183.668 -582.108 -182.506 -587.878 -181.354 -593.669C-179.299 -588.682 -175.334 -582.996 -175.645 -578.832C-176.123 -572.407 -179.537 -567.039 -181.696 -561.206C-182.734 -565.665 -183.782 -570.146 -185.007 -575.409ZM258.079 -298.198C255.972 -298.198 254.311 -297.374 254.062 -298.325C250.408 -312.295 246.931 -326.477 243.486 -340.701C243.486 -340.743 244.959 -342.603 244.98 -342.519C249.142 -328.654 253.232 -314.705 258.079 -298.177V-298.198ZM-298.42 -270.912C-296.241 -278.098 -294.569 -283.572 -292.898 -289.067C-291.653 -282.833 -289.536 -276.682 -289.442 -270.363C-289.37 -265.502 -291.819 -260.45 -293.158 -255.505C-294.767 -260.218 -296.375 -264.931 -298.42 -270.933V-270.912ZM87.7361 -483.111C85.4007 -483.449 84.6535 -483.111 84.1137 -483.703C78.3118 -490.043 72.4683 -496.257 66.8324 -503.253C65.9087 -504.394 65.9606 -509.234 65.5662 -512.362C67.1127 -512.024 69.0225 -512.848 70.1538 -511.157C75.0631 -503.844 79.7441 -495.792 84.5082 -488.014C85.1413 -486.978 85.8055 -486.027 87.7361 -483.111ZM112.719 -509.509C112.719 -508.642 112.719 -513.144 112.719 -517.667C114.338 -514.137 115.998 -510.692 117.566 -507.057C118.095 -505.81 118.728 -504.035 118.707 -502.534C118.593 -495.137 118.344 -487.739 117.96 -480.384C117.908 -479.433 116.798 -478.736 116.175 -477.911C115.199 -484.336 114.161 -490.719 113.269 -497.208C112.968 -499.406 113.04 -501.837 112.708 -509.53L112.719 -509.509ZM-281.056 -359.321C-279.239 -374.243 -277.548 -389.101 -275.544 -403.769C-275.181 -406.453 -273.572 -408.355 -272.545 -410.595C-272.576 -407.806 -272.358 -404.889 -272.669 -402.268C-274.434 -387.431 -276.302 -372.636 -278.212 -357.884C-278.492 -355.749 -279.188 -353.889 -279.696 -351.903C-280.132 -354.249 -280.558 -356.595 -281.056 -359.3V-359.321ZM45.2127 -529.82C42.5452 -538.443 40.3137 -544.593 38.788 -551.462C38.4558 -552.942 40.6459 -557.084 41.6838 -560.022C44.0814 -553.343 46.5931 -546.834 48.7416 -539.796C48.9803 -539.014 47.2055 -535.336 45.223 -529.841L45.2127 -529.82ZM-127.278 -418.437C-128.233 -422.706 -129.593 -426.532 -129.24 -427.546C-127.403 -432.83 -125.337 -438.071 -122.857 -441.728C-122.193 -442.7 -119.774 -438.071 -118.165 -436C-120.947 -430.653 -123.729 -425.285 -127.289 -418.437H-127.278ZM358.902 -304.708C358.237 -302.446 357.978 -300.65 357.656 -300.607C354.771 -300.206 351.532 -298.282 349.052 -300.417C345.99 -303.038 343.551 -309.125 340.852 -313.711C343.758 -312.929 346.665 -312.274 349.56 -311.302C351.709 -310.583 353.857 -309.717 355.944 -308.427C356.992 -307.772 357.905 -306.018 358.902 -304.708ZM-395.019 -593.458C-396.244 -586.505 -397.655 -578.537 -399.067 -570.59C-400.655 -576.951 -402.461 -583.123 -403.706 -589.781C-404.225 -592.549 -403.519 -596.375 -403.374 -599.735C-402.305 -597.643 -401.361 -594.853 -400.105 -593.712C-399.326 -593.014 -397.977 -594.494 -397.043 -595.614C-396.462 -596.311 -396.181 -598.15 -395.766 -599.482C-395.579 -598.002 -395.403 -596.544 -395.019 -593.458ZM-197.223 -223.717C-194.712 -220.082 -193.144 -217.82 -191.577 -215.559C-194.452 -212.283 -197.213 -208.225 -200.254 -206.069C-201.552 -205.16 -203.441 -208.225 -205.06 -209.472C-202.631 -213.889 -200.202 -218.285 -197.223 -223.696V-223.717ZM130.965 -453.5C129.969 -449.632 129.19 -446.631 128.412 -443.63C126.295 -446.589 122.537 -449.252 122.423 -452.57C122.226 -457.896 124.416 -463.666 125.599 -469.225C127.249 -464.406 128.9 -459.566 130.965 -453.5ZM-237.962 -432.301C-235.616 -437.353 -234.111 -442.087 -232.035 -444.264C-231.309 -445.025 -229.191 -439.424 -227.707 -436.719C-229.7 -431.519 -231.703 -426.341 -233.696 -421.142C-234.796 -424.016 -235.886 -426.891 -237.962 -432.301ZM-296.531 -474.361C-297.922 -466.541 -298.929 -460.876 -299.935 -455.191C-301.015 -462.842 -302.395 -470.387 -303.039 -478.228C-303.288 -481.272 -301.866 -484.949 -301.212 -488.331C-299.655 -483.66 -298.088 -479.01 -296.531 -474.361ZM-148.026 -424.566C-150.891 -417.633 -153.32 -411.779 -155.738 -405.925C-156.288 -408.883 -157.679 -412.836 -157.233 -414.632C-155.717 -420.761 -153.558 -426.151 -151.638 -431.815C-150.621 -429.786 -149.614 -427.757 -148.026 -424.587V-424.566ZM-189.896 -565.137C-190.757 -559.388 -191.826 -552.265 -192.895 -545.143C-193.186 -552.117 -193.477 -559.113 -193.757 -566.088C-193.778 -566.659 -193.778 -567.272 -193.715 -567.842C-193.134 -573.633 -192.553 -579.424 -191.961 -585.215C-191.349 -579.276 -190.736 -573.316 -189.896 -565.137ZM-138.851 -580.46C-140.346 -575.979 -141.415 -572.788 -142.484 -569.575C-144.279 -573.527 -146.085 -577.48 -147.881 -581.432C-146.127 -584.602 -144.383 -587.773 -142.629 -590.922C-141.508 -587.815 -140.387 -584.708 -138.851 -580.439V-580.46ZM-499.495 -387.093C-502.619 -382.19 -505.048 -378.047 -507.685 -374.623C-508.048 -374.158 -509.397 -377.265 -510.29 -378.723C-507.902 -384.662 -505.515 -390.623 -503.118 -396.562C-502.287 -394.385 -501.447 -392.208 -499.495 -387.114V-387.093ZM-217.234 -611.888C-219.113 -620.173 -221.251 -625.542 -220.691 -627.951C-219.508 -633.023 -216.923 -636.553 -214.91 -640.717C-214.308 -638.603 -213.01 -636.067 -213.218 -634.461C-214.058 -628.12 -215.356 -622.054 -217.234 -611.888ZM-350.887 -337.953C-351.894 -340.997 -352.641 -342.35 -352.527 -343.068C-351.125 -351.712 -349.693 -360.336 -347.97 -368.663C-347.794 -369.551 -345.697 -368.557 -344.493 -368.431C-346.486 -358.92 -348.489 -349.409 -350.887 -337.975V-337.953ZM27.3086 -626.112C26.0528 -621.357 25.0771 -617.7 24.1015 -614.044C22.7315 -618.588 20.5103 -622.942 20.2716 -627.761C20.1055 -631.248 22.5654 -635.348 23.8524 -639.174C24.963 -634.947 26.0839 -630.741 27.2983 -626.112H27.3086ZM67.0815 -684.974C69.8735 -673.455 72.0013 -664.748 74.0356 -655.934C74.0459 -655.871 72.2919 -653.609 72.2504 -653.757C69.8632 -660.943 67.4552 -668.15 65.369 -675.759C65.0369 -676.964 66.1267 -680.049 67.0919 -684.974H67.0815ZM-136.142 -706.109C-139.339 -703.827 -141.487 -700.699 -143.304 -701.438C-144.996 -702.115 -146.345 -706.891 -147.839 -709.85C-146.148 -713.105 -144.601 -716.909 -142.671 -719.213C-142.255 -719.72 -140.501 -714.986 -136.132 -706.088L-136.142 -706.109ZM-279.717 -10.6098C-281.045 -2.87425 -282.166 4.37514 -283.526 11.4343C-284.772 17.9229 -286.256 24.179 -287.636 30.5407C-287.065 24.2213 -286.64 17.8172 -285.903 11.6035C-285.021 4.16382 -283.952 -3.19125 -282.758 -10.4407C-282.467 -12.216 -281.357 -13.3362 -280.63 -14.7734C-280.298 -13.2516 -279.976 -11.7299 -279.727 -10.6098H-279.717ZM186.753 -681.339C186.151 -681.994 185.809 -682.1 185.694 -682.522C182.778 -693.196 179.882 -703.911 177.038 -714.69C176.976 -714.923 177.671 -716.085 178.014 -716.825C181.096 -706.405 184.21 -696.007 187.22 -685.46C187.449 -684.657 186.94 -682.86 186.753 -681.339ZM152.118 -132.878C153.488 -137.865 154.765 -142.515 156.041 -147.144C157.235 -144.417 159.684 -140.465 159.414 -139.155C158.293 -133.66 156.353 -128.946 154.723 -123.958C153.965 -126.558 153.197 -129.179 152.118 -132.878ZM-153.361 -680.895C-155.728 -676.118 -157.253 -672.758 -158.987 -670.01C-159.122 -669.799 -161.613 -674.491 -161.426 -675.928C-160.834 -680.493 -159.485 -684.572 -158.437 -688.863C-157.087 -686.749 -155.748 -684.636 -153.361 -680.895Z" fill="#004520"/>
</g>
</g>
<defs>
<clipPath id="clip0_338_18">
<rect width="532" height="360" fill="white"/>
</clipPath>
<clipPath id="clip1_338_18">
<rect width="1216" height="1986" fill="white" transform="matrix(1 0 0 -1 -772 1254)"/>
</clipPath>
</defs>
</svg>
