<svg width="430" height="360" viewBox="0 0 430 360" fill="none" xmlns="http://www.w3.org/2000/svg">
<g clip-path="url(#clip0_338_2)">
<rect width="430" height="360" fill="#FAAB28"/>
<g clip-path="url(#clip1_338_2)">
<path d="M148.105 420.242C146.445 511.758 143.321 603.316 143.487 694.811C143.736 825.026 145.479 955.325 148.396 1085.39C150.16 1163.74 154.8 1241.96 166.995 1316.74C168.801 1327.81 171.479 1338.42 174.416 1348.31C175.828 1353.07 178.776 1355.67 181.038 1359.26C181.578 1352.9 183.052 1346.14 182.491 1340.28C179.398 1307.67 174.354 1275.65 172.683 1242.77C167.67 1144.11 162.055 1045.32 160.114 946.279C157.675 822.088 157.415 697.538 158.547 573.241C159.408 478.217 163.892 383.34 166.809 288.4C166.933 284.258 167.213 280.052 167.774 276.1C168.199 273.098 169.175 270.456 169.902 267.667C170.711 270.52 172.237 273.415 172.216 276.247C172.143 289.837 172.631 303.956 171.147 316.933C163.695 382.41 169.455 445.732 176.824 508.968C179.243 529.744 181.661 550.499 184.214 571.191C184.526 573.685 185.657 575.693 186.404 577.933C186.467 575.101 186.799 572.163 186.55 569.479C181.806 518.162 175.942 467.184 172.621 415.424C170.773 386.595 173.088 356.498 173.711 326.972C173.773 324.246 175.216 321.646 176.025 318.983C176.523 321.583 177.312 324.098 177.489 326.803C179.803 362.099 181.755 397.522 184.443 432.691C185.159 442.054 188.055 450.635 189.954 459.596C189.809 450.107 190.068 440.49 189.435 431.169C188.003 410.013 185.491 389.089 184.713 367.848C184.308 356.752 186.643 345.191 187.774 333.841C187.868 332.869 188.273 332.045 188.532 331.157C189.061 333.08 189.861 334.898 190.068 336.969C191.552 351.489 192.871 366.094 194.334 380.635C206.353 500.409 218.549 620.098 230.142 740.062C231.315 752.257 230.588 768.32 227.776 778.824C212.736 835.044 203.8 896.019 196.213 958.263C195.86 961.137 195.33 964.054 195.341 966.949C195.341 970.098 195.87 973.248 196.171 976.397C197.323 974.156 198.942 972.402 199.534 969.612C203.073 952.873 206.218 935.732 209.778 919.036C216.452 887.755 223.24 856.581 230.194 825.575C231.398 820.228 233.619 815.959 235.373 811.182C236.224 817.269 237.387 823.25 237.885 829.464C240.864 866.388 243.479 903.438 246.707 940.255C247.517 949.492 250.143 957.967 251.938 966.801C252.956 957.079 255.322 946.976 254.761 937.698C251.71 887.607 247.787 837.77 244.569 787.722C244.04 779.5 244.445 769.419 246.23 762.36C259.93 708.148 274.056 654.443 288.11 600.653C288.826 597.927 290.123 595.94 291.151 593.615C291.493 598.815 292.334 604.098 292.116 609.171C289.303 674.817 286.895 740.59 283.211 806.025C281.218 841.363 276.973 876.089 273.828 911.131C273.257 917.514 272.821 924.108 272.852 930.575C272.873 934.803 273.818 939.03 274.357 943.236C274.939 939.051 275.675 934.95 276.06 930.702C280.045 887.544 285.152 844.682 287.643 801.122C291.836 727.486 294.296 653.386 297.669 579.518C298.115 569.69 298.738 559.122 300.762 550.563C314.763 491.299 329.118 432.416 343.586 373.681C344.084 371.652 344.977 351.13 348.724 371.103C350.084 368.609 352.263 366.622 352.678 363.515C355.595 341.83 358.086 319.892 360.847 298.123C361.324 294.361 362.456 291 363.286 287.449C363.286 291.317 363.608 295.333 363.224 299.01C359.892 331.432 356.425 363.769 353.052 396.169C352.803 398.536 353.021 401.115 353.031 403.588C353.695 401.791 354.702 400.206 354.962 398.156C361.086 350.834 367.199 303.512 373.115 256.063C374.682 243.509 375.367 230.447 376.903 217.872C377.401 213.814 379.332 210.58 380.609 206.987C381.667 210.855 383.11 214.469 383.722 218.654C389.95 261.157 395.669 304.04 402.27 346.269C409.681 393.675 421.253 436.136 438.057 470.713C445.821 486.692 442.759 505.946 443.558 524.228C443.683 527.166 444.233 530.019 444.575 532.915C444.762 530.04 444.98 527.166 445.136 524.27C445.717 513.449 446.267 502.628 446.838 491.828C450.917 497.428 455.131 502.628 459.065 508.673C480.415 541.475 504.1 563.561 528.667 581.927C532.29 584.633 536.794 589.473 538.392 596.173C559.005 682.13 579.359 768.404 599.277 855.122C603.522 873.595 605.701 894.307 609.012 913.836C609.894 919.036 611.399 923.706 612.614 928.631C612.479 922.819 612.946 916.542 612.116 911.237C606.158 873.616 601.124 835.002 593.516 798.987C580.386 736.849 565.565 676.402 551.564 615.131C550.173 609.044 549.55 602.112 548.564 595.581C551.501 595.623 554.449 595.56 557.386 595.708C575.674 596.638 593.962 597.652 612.25 598.476C613.87 598.54 615.624 598.223 617.077 596.849C618.333 595.665 619.256 592.77 620.325 590.614C619.07 589.98 617.824 588.86 616.558 588.775C595.893 587.169 575.218 585.753 554.553 584.168C546.706 583.576 541.423 575.925 538.455 559.186C535.808 544.264 532.674 529.322 528.553 516.154C520.789 491.299 521.381 468.41 527.162 441.462C537.406 393.697 537.095 393.105 552.342 432.607C562.534 459.005 573.412 484.156 584.102 509.603C585.451 512.815 587.59 514.442 589.364 516.81C589.084 512.075 589.562 506.009 588.399 502.776C578.778 476.124 569.8 447.909 558.777 424.258C546.125 397.142 542.503 372.646 551.667 336.061C560.915 299.095 559.192 297.51 574.823 324.119C591.399 352.335 608.628 378.796 624.737 408.195C632.147 421.722 637.627 440.3 643.845 456.828C647.477 466.508 650.757 476.8 654.348 486.523C654.992 488.256 656.435 488.594 657.514 489.587C657.275 487.389 657.296 484.832 656.756 483.057C653.456 472.13 649.948 461.477 646.668 450.508C644.924 444.675 643.502 438.355 641.935 432.268C644.903 434.488 647.986 436.136 650.809 439.011C656.995 445.309 662.994 452.474 669.19 458.73C670.446 459.998 672.221 458.878 673.757 458.857C672.823 455.792 672.221 451.375 670.903 449.874C661.468 439.095 651.878 428.992 642.392 418.467C641.271 417.22 640.451 414.747 639.485 412.845C640.762 413.12 642.101 412.887 643.295 413.712C654.224 421.32 665.08 429.479 676.072 436.559C678.739 438.271 681.874 436.559 684.79 436.39C682.279 433.431 679.871 429.859 677.234 427.598C662.008 414.557 646.554 402.658 631.576 388.413C627.57 384.608 623.73 375.076 621.913 366.136C615.167 332.954 609.251 298.968 603.138 265.194C602.494 261.622 602.536 257.479 602.255 253.59C603.968 254.668 605.815 255.197 607.383 256.93C636.091 288.802 664.852 320.526 693.353 353.286C696.218 356.583 698.937 366.094 699.228 373.216C700.089 393.887 699.549 414.811 699.892 435.608C699.965 439.814 701.532 443.893 702.414 448.014C703.514 443.808 705.466 439.687 705.569 435.354C706.047 416.945 706.14 398.494 706.036 380.043C705.974 369.116 707.126 364.128 712.658 368.884C747.906 399.086 784.295 419.714 821.66 433.515C829.393 436.369 836.284 451.015 843.352 460.949C850.234 470.65 856.825 481.302 863.54 491.532V480.816C856.96 470.185 850.358 459.618 843.82 448.839C842.802 447.148 842.117 444.485 841.287 442.286C842.47 441.779 843.674 440.638 844.816 440.849C851.064 442.075 857.302 443.639 863.54 445.098V430.81C857.562 429.415 851.573 428.232 845.615 426.583C835.921 423.878 826.673 421.574 818.256 406.674C786.288 350.073 757.372 287.217 732.016 216.561C728.289 206.163 725.196 194.686 721.802 183.717C727.085 189.741 732.316 195.976 737.672 201.703C740.474 204.705 743.464 206.881 746.38 209.418C744.003 205.169 741.803 200.308 739.229 196.758C725.736 178.159 710.157 165.435 702.632 130.731C700.452 120.671 700.546 115.662 706.026 116.887C717.339 119.424 728.767 121.241 739.852 126.377C750.771 131.45 761.305 140.474 772.069 147.216C774.061 148.463 776.397 147.174 778.576 147.069C776.988 144.258 775.587 140.263 773.771 138.826C765.031 131.936 756.168 125.87 747.387 119.233C745.685 117.944 744.201 115.344 742.613 113.358C744.118 111.308 745.55 108.856 747.148 107.25C753.832 100.465 760.33 92.1379 767.346 87.8052C774.331 83.4936 778.773 74.8703 783.029 62.9077C784.627 58.427 789.412 57.4548 792.65 57.9198C803.818 59.5472 814.934 62.7175 826.092 64.8099C827.701 65.1058 829.413 62.802 831.084 61.703C829.673 58.7863 828.427 53.9253 826.829 53.3123C819.844 50.6281 812.744 49.3601 805.697 47.2677C796.833 44.6328 794.695 35.0162 799.283 18.4179C824.338 -71.9989 816.481 -195.45 779.801 -277.962C750.034 -344.94 712.98 -366.266 671.162 -358.213C664.925 -357.009 658.303 -365.336 651.857 -369.246H628.878C631.213 -356.945 633.725 -344.792 635.822 -332.322C637.129 -324.566 638.136 -316.429 638.738 -308.292C639.724 -294.871 640.274 -281.302 641.011 -267.775C637.181 -274.56 632.905 -280.456 629.719 -288.446C627.996 -292.757 627.643 -300.577 627.549 -306.875C627.228 -327.651 627.311 -348.47 627.238 -369.267H609.189C609.853 -363.708 610.704 -353.225 611.14 -353.289C620.938 -355.149 615.935 -336.719 618.312 -328.793C618.8 -327.165 617.897 -323.572 617.637 -320.867C616.537 -322.262 614.918 -323.065 614.42 -325.136C610.912 -339.699 607.621 -354.514 604.269 -369.246H558.32C558.279 -351.492 558.362 -333.717 558.134 -315.964C558.061 -310.532 557.158 -305.142 556.639 -299.711C555.736 -305.777 554.086 -311.821 554.075 -317.887C554.034 -335.007 554.667 -352.126 555.03 -369.246H550.11C549.602 -356.86 549.301 -344.412 548.481 -332.111C548.107 -326.489 546.696 -321.205 545.751 -315.773C543.53 -321.269 540.188 -326.066 539.347 -332.407C537.79 -344.2 537.697 -356.903 536.991 -369.225H499.253L500.114 -343.355C497.706 -351.408 495.309 -359.439 492.911 -367.513C492.766 -367.978 492.755 -368.654 492.693 -369.225H111.976C108.602 -355.846 105.271 -342.404 101.825 -329.11C101.067 -326.193 99.8942 -323.805 98.9082 -321.184C99.0224 -325.01 98.6799 -329.237 99.3337 -332.555C101.731 -344.94 104.451 -357.03 107.056 -369.225H26.6486C23.5141 -348.406 20.4834 -327.504 17.1205 -306.854C16.6223 -303.79 14.5257 -301.972 13.1765 -299.584C12.3773 -302.965 10.8619 -306.411 10.9034 -309.729C11.1318 -324.481 11.796 -339.212 12.5329 -360.242C13.6331 -344.37 14.2247 -334.563 15.0343 -324.862C15.2211 -322.621 16.1864 -320.698 16.7988 -318.648C17.1205 -320.825 17.8263 -323.107 17.7121 -325.179C16.9545 -339.889 16.0203 -354.557 15.1485 -369.246H-20.9502C-21.1163 -366.308 -20.7737 -362.039 -21.5314 -360.686C-26.5964 -351.661 -31.9002 -343.271 -37.1209 -334.668C-35.3668 -343.376 -33.5712 -352.063 -31.8898 -360.834C-31.3812 -363.497 -31.1529 -366.435 -30.8 -369.225H-40.6498C-43.6494 -354.007 -46.5867 -338.748 -49.7004 -323.636C-50.1675 -321.395 -51.3819 -319.874 -52.2537 -318.035C-52.1395 -320.867 -52.316 -323.953 -51.8593 -326.489C-49.2956 -340.798 -46.5867 -355.001 -43.9296 -369.225H-75.1086C-85.1141 -330.547 -93.3966 -289.249 -110.73 -262.005C-115.795 -254.058 -120.465 -244.865 -125.146 -235.819C-125.935 -234.297 -125.873 -230.662 -126.205 -228.02C-125.074 -229.119 -123.766 -229.753 -122.842 -231.38C-119.23 -237.721 -115.774 -244.484 -112.183 -250.846C-111.498 -252.072 -110.408 -252.198 -109.505 -252.854C-109.785 -251.247 -109.931 -249.493 -110.346 -248.077C-122.251 -207.413 -133.647 -165.206 -154.862 -143.922C-170.431 -128.282 -186.456 -114.692 -202.471 -101.229C-207.567 -96.9385 -213.255 -95.9452 -218.663 -93.4301C-214.926 -101.863 -211.314 -110.529 -207.443 -118.644C-195.278 -144.197 -184.629 -175.668 -170.4 -193.506C-149.745 -219.418 -131.104 -249.366 -114.747 -286.121C-103.049 -312.413 -92.6493 -341.432 -81.6786 -369.225H-101.368C-115.971 -340.671 -130.897 -312.878 -145.116 -283.437C-173.005 -225.695 -201.506 -169.073 -227.682 -107.823C-239.213 -80.8334 -251.533 -70.8365 -266.946 -69.8431C-275.416 -69.2936 -283.906 -70.0333 -292.365 -69.2936C-294.617 -69.1034 -296.807 -65.6583 -299.028 -63.6927C-296.994 -60.4801 -295.063 -54.9004 -292.894 -54.4354C-283.408 -52.4064 -273.828 -52.3431 -264.341 -50.3986C-261.912 -49.8914 -259.785 -43.5296 -257.304 -42.663C-254.242 -41.5851 -250.724 -41.9656 -247.838 -44.2482C-239.525 -50.8635 -231.491 -59.1909 -223.219 -66.1021C-185.979 -97.1499 -147.482 -123.759 -120.59 -193.654C-108.841 -224.173 -98.2852 -256.848 -87.1796 -288.53C-86.0171 -291.848 -85.0518 -295.589 -83.661 -298.358C-81.772 -302.141 -79.5716 -305.164 -77.5062 -308.503C-78.4922 -303.832 -79.4574 -299.119 -80.4954 -294.49C-81.3361 -290.749 -82.758 -287.283 -83.0175 -283.394C-83.2562 -279.886 -82.2702 -275.997 -81.8239 -272.277C-79.8311 -274.095 -76.9664 -274.686 -75.9908 -277.941C-72.7733 -288.805 -70.5936 -301.148 -67.2619 -311.779C-66.0372 -315.689 -62.6744 -316.407 -60.2768 -318.606C-60.1522 -313.639 -59.1973 -307.848 -60.0381 -303.811C-67.3138 -268.895 -74.6 -233.938 -82.4674 -199.656C-97.6002 -133.714 -112.847 -67.8564 -128.821 -2.8865C-131 5.9692 -137.404 13.4089 -142.303 15.0152C-165.521 22.5393 -188.937 27.168 -212.196 34.2061C-221.33 36.9748 -230.246 43.104 -239.213 48.1976C-240.469 48.9162 -241.393 52.4035 -242.472 54.6016C-241.206 55.0031 -239.909 55.9965 -238.663 55.7218C-206.353 48.5781 -174.063 41.244 -141.753 34.2271C-139.625 33.7621 -137.394 35.5375 -135.214 36.2773C-136.397 40.6946 -137.124 46.4222 -138.847 49.3177C-152.869 72.947 -167.068 96.048 -181.215 119.276C-183.581 123.165 -185.979 127.011 -188.355 130.879C-184.152 126.715 -179.762 123.249 -175.786 118.219C-167.286 107.482 -159.097 95.5406 -150.513 85.1209C-149.07 83.3667 -144.545 86.1355 -144.441 87.6995C-143.009 110.652 -141.805 133.711 -141.328 156.833C-141.255 160.384 -145.469 168.225 -147.005 167.464C-160.581 160.764 -174.001 152.521 -187.473 144.807C-193.192 141.531 -191.137 136.268 -188.272 130.752C-202.845 143.476 -214.449 121.812 -227.308 114.774C-231.086 112.703 -234.896 110.991 -238.694 109.11C-235.29 114.457 -232.052 120.417 -228.44 124.982C-225.388 128.829 -221.88 130.879 -218.631 134.007C-216.431 136.12 -214.334 138.762 -212.196 141.172C-213.961 143.222 -215.808 145.018 -217.469 147.407C-218.247 148.527 -218.673 150.788 -219.265 152.521C-218.133 153.642 -216.774 156.284 -215.902 155.671C-190.649 138.192 -170.026 178.454 -146.465 182.491C-144.327 182.851 -141.878 193.524 -140.809 200.33C-139.179 210.686 -139.594 222.923 -137.352 232.371C-134.996 242.262 -130.897 243.657 -129.008 229.813C-128.312 224.72 -127.326 219.14 -127.669 214.173C-129.236 191.241 -123.911 189.36 -115.307 191.622C-104.492 194.475 -93.5004 194.348 -82.6023 195.807C-80.8586 196.039 -79.1461 197.793 -77.4231 198.85C-78.1393 201.915 -78.596 205.508 -79.6235 207.98C-91.0613 235.795 -102.042 262.235 -120.351 272.697C-152.444 291.042 -182.688 320.695 -210.121 362.374C-211.584 364.593 -212.705 367.869 -213.982 370.638C-212.259 369.623 -210.453 369.01 -208.823 367.51C-180.415 341.45 -152.039 315.221 -123.59 289.33C-121.576 287.492 -119.075 288.147 -116.802 287.661C-118.037 291.423 -119.345 295.058 -120.455 298.968C-121.078 301.166 -121.389 303.787 -121.836 306.217C-120.632 305.118 -119.345 304.315 -118.234 302.857C-109.214 291.063 -100.382 278.509 -91.1651 267.519C-86.4219 261.854 -84.7612 264.834 -84.2526 278.615C-82.6335 321.752 -91.7256 353.92 -102.862 386.891C-135.619 483.817 -172.901 569.563 -221.538 629.397C-223.416 631.722 -224.776 636.076 -226.374 639.479C-224.371 637.915 -222.306 636.689 -220.386 634.723C-180.405 593.742 -148.811 530.484 -121.296 456.743C-110.616 428.126 -100.776 398.05 -90.4697 368.778C-89.4007 365.734 -87.7815 363.6 -86.4115 361.064C-85.9029 364.826 -84.7197 368.862 -84.9999 372.329C-86.5983 391.985 -88.1137 411.767 -90.5009 431.021C-93.3447 453.911 -93.8222 480.098 -105.779 492.567C-106.578 493.392 -106.91 496.351 -107.46 498.316C-106.288 498.189 -104.866 498.95 -103.973 497.788C-98.0673 490.221 -98.3164 498.612 -98.4513 507.383C-98.6381 518.965 -98.69 530.569 -98.8042 542.172C-97.019 530.843 -94.6318 519.769 -93.5835 508.123C-91.5803 485.952 -87.7608 467.966 -79.4471 452.178C-44.8326 386.447 -10.6229 319.554 15.1485 235.393C15.9477 232.772 17.5149 231.272 18.7189 229.243C19.1756 232.455 20.0059 235.647 20.0267 238.859C20.1305 257.31 20.7636 275.973 19.7049 294.128C19.186 302.941 16.0619 312.389 12.9481 318.92C-6.73075 360.324 -27.0428 400.65 -40.3592 453.636C-47.4066 481.683 -52.9906 511.462 -59.0105 540.671C-59.789 544.455 -59.27 549.485 -59.353 553.944C-58.0868 550.351 -56.3327 547.181 -55.6373 543.123C-46.514 490.158 -33.8307 441.758 -16.2277 400.058C-7.74792 379.959 1.57255 361.507 10.592 342.486C11.8894 339.738 13.6643 338.068 15.2211 335.891C15.1693 340.266 15.4806 344.832 15.0032 348.953C6.65833 421.088 -2.71403 492.715 -9.95867 565.379C-17.2033 637.999 -23.41 711.297 -27.9561 784.911C-30.2188 821.538 -27.7693 859.54 -27.3645 896.907C-27.3437 898.577 -26.4823 900.204 -26.0152 901.853C-25.6831 900.267 -25.1745 898.725 -25.0603 897.055C-24.8631 894.138 -24.7178 891.095 -24.8631 888.199C-28.7865 812.535 -23.9913 738.667 -15.47 665.475C-5.14275 576.707 4.96655 487.812 15.2523 399.001C15.8854 393.549 17.3177 388.518 18.3764 383.277C18.8227 389.321 19.9333 395.556 19.6115 401.39C14.671 489.904 9.51261 578.356 4.50986 666.849C4.16735 672.894 4.57213 679.15 4.63441 685.3C5.78649 679.615 7.41601 674.141 7.99724 668.181C10.3014 644.319 12.2527 620.288 14.4219 596.363C14.671 593.658 15.4598 591.185 16.0099 588.606C16.3109 591.227 16.8714 593.848 16.8922 596.49C17.4319 660.72 16.4251 725.225 18.9265 789.075C20.6598 833.438 12.699 866.261 2.06037 900.077C-16.7778 959.954 -34.9101 1020.89 -53.2501 1081.5C-54.3295 1085.07 -54.672 1089.7 -55.3571 1093.85C-54.1323 1090.8 -52.8142 1087.89 -51.6932 1084.65C-26.9389 1013.49 -2.21583 942.284 22.5696 871.206C23.4622 868.649 24.9672 867.106 26.1815 865.077C26.7835 868.226 27.6346 871.27 27.9356 874.546C29.4302 891.264 31.0909 907.961 32.0146 924.827C32.3467 930.829 31.0078 937.487 30.0529 943.574C17.8159 1021.99 -1.66573 1092.32 -21.2408 1162.6C-25.0499 1176.25 -28.143 1190.94 -31.0595 1205.61C-31.8691 1209.69 -30.8726 1215.46 -30.7066 1220.45C-28.7449 1217.8 -26.0464 1216.18 -24.9462 1212.37C-14.484 1176.13 -3.54436 1140.39 5.80726 1102.81C26.3372 1020.29 39.7886 931.505 53.4268 842.801C67.8123 749.213 82.2704 655.499 99.2922 564.11C110.232 505.375 125.832 450.719 139.408 394.33C140.093 391.477 141.432 389.385 142.469 386.933C143.092 390.125 143.788 393.253 144.327 396.507C145.635 404.412 146.87 412.38 148.126 420.327C147.711 406.843 147.067 393.379 146.943 379.895C146.86 371.23 147.42 362.501 147.929 353.878C148.043 351.912 149.112 350.2 149.735 348.361C150.192 350.686 151.126 353.096 151.032 355.294C150.14 376.957 149.071 398.579 148.053 420.2L148.105 420.242ZM328.661 -54.7736C326.014 -64.2845 323.222 -73.6474 320.825 -83.4753C320.378 -85.3141 321.52 -88.9706 321.925 -91.7816C325.755 -85.5678 330.041 -80.1994 333.093 -72.5062C333.788 -70.752 330.208 -60.9874 328.588 -54.9004C326.647 -44.5653 325.132 -33.7229 322.589 -24.1486C321.385 -19.6045 317.721 -14.0248 316.071 -15.1449C313.435 -16.9414 310.238 -23.2398 309.595 -28.9041C308.235 -40.8455 307.602 -53.7802 308.193 -65.9542C308.494 -72.1891 311.785 -78.4663 314.39 -82.8836C314.981 -83.8981 318.521 -77.7477 320.337 -74.0279C323.274 -67.9832 325.9 -61.241 328.661 -54.7736ZM436.967 395.26C436.355 386.51 435.504 377.782 435.224 368.968C435.047 363.325 435.712 357.534 436.002 351.806C438.41 357.365 442.157 362.184 442.884 368.63C443.797 376.683 442.354 386.13 441.648 394.859C441.399 397.881 440.32 400.587 439.614 403.419C438.701 400.608 437.787 397.776 436.884 394.965C436.947 404.37 437.019 413.775 437.082 423.201C437.092 425.399 437.082 427.619 437.082 429.817C438.109 428.401 439.78 427.449 440.071 425.505C442.292 410.901 444.575 396.296 446.153 381.332C447.253 370.87 448.893 368.376 453.989 370.828C463.766 375.541 473.865 377.084 483.694 381.417C486.808 382.791 490.576 387.398 492.164 393.041C497.436 411.704 501.173 432.501 506.778 450.635C515.506 478.893 514.084 505.397 506.996 533.57C504.224 544.581 502.117 547.329 496.315 542.996C468.416 522.199 447.274 481.64 428.768 434.107C410.449 387.039 407.159 325.937 398.596 269.865C398.378 268.406 398.72 266.546 398.793 264.877C399.613 266.103 400.64 266.969 401.211 268.618C404.003 276.691 406.266 285.801 409.463 293.008C422.437 322.322 434.02 353.201 436.957 395.218L436.967 395.26ZM290.673 501.888C291.805 502.205 292.946 502.501 294.078 502.818C292.054 520.889 291.711 540.967 287.715 556.671C273.963 610.735 258.944 663.277 244.341 716.327C243.272 720.195 241.632 723.344 240.262 726.81C239.234 722.266 237.771 717.975 237.241 713.178C223.053 584.231 208.865 455.285 194.926 326.211C192.497 303.766 190.712 280.855 189.663 257.923C189.383 251.752 192.144 242.072 194.791 238.584C206.696 222.881 218.953 208.424 231.357 194.665C233.152 192.679 237.854 195.194 238.778 198.681C246.655 228.545 254.128 258.959 261.331 289.626C262.733 295.586 263.148 303.576 262.826 310.36C261.02 348.763 258.809 387.06 256.848 425.421C256.401 434.171 256.36 443.005 256.142 451.797C257.315 442.751 259.027 433.875 259.577 424.639C262.411 376.936 264.912 329.128 267.642 281.383C267.818 278.361 268.836 275.592 269.469 272.697C270.351 274.874 271.472 276.797 272.084 279.291C276.298 296.643 280.004 314.629 284.664 331.39C290.206 351.32 291.774 369.792 283.615 388.096C283.003 389.448 282.993 392.069 282.702 394.098C283.408 393.485 284.228 393.21 284.799 392.217C290.507 382.178 290.59 392.555 290.632 400.354C290.787 434.192 290.694 468.05 290.694 501.909L290.673 501.888ZM809.589 -93.4089C810.264 -58.7047 805.801 -23.5779 796.833 8.82254C787.284 43.3576 787.191 43.2309 768.789 35.4108C765.301 33.9313 761.378 34.0792 758.441 30.4651C754.102 25.1178 749.048 18.7349 746.816 9.79469C740.713 -14.7223 735.835 -40.7186 730.656 -66.3134C728.871 -75.1269 727.604 -84.4265 726.099 -93.4935C729.732 -88.4633 733.271 -83.0526 737.029 -78.5085C745.28 -68.5115 754.621 -61.4735 761.71 -48.5387C770.366 -32.7295 777.154 -12.0592 784.814 6.37078C785.738 8.58998 787.098 9.90048 788.26 11.6336C788.26 8.25193 788.862 4.04593 788.167 1.65765C785.105 -8.80433 782.396 -20.5132 778.234 -28.5447C762.084 -59.6558 745.384 -89.4144 728.974 -119.913C722.986 -131.051 715.865 -140.858 711.651 -154.722C697.785 -200.311 684.998 -247.443 671.848 -294.046C664.084 -321.55 667.606 -337.36 682.414 -341.474C749.691 -360.031 809.734 -244.484 809.589 -93.4512V-93.4089ZM23.5764 738.836C24.1576 738.836 24.7492 738.836 25.3304 738.836C25.3304 684.159 25.1851 629.482 25.3616 574.805C25.621 491.299 29.233 408.66 39.7263 327.966C40.2868 323.675 41.3247 319.681 42.1343 315.559C42.9542 319.807 44.1894 323.908 44.5111 328.325C46.8464 360.408 48.9949 392.555 51.216 424.681C51.4547 428.063 51.818 431.402 52.1294 434.783C52.9286 431.529 54.226 428.422 54.4232 424.998C55.1809 412.042 55.3677 398.917 56.2811 386.024C56.4575 383.509 58.8136 380.656 60.3601 379.916C62.2906 379.007 64.4287 380.128 66.4837 380.381C66.4422 375.816 66.8574 370.976 66.2762 366.749C64.7297 355.357 62.8926 344.134 60.9413 333.017C53.6136 291.254 53.6344 291.507 71.8498 270.837C74.9635 267.307 77.3819 260.903 80.122 255.831C77.2469 258.684 74.3615 261.537 71.4969 264.433C70.2618 265.68 69.1097 267.603 67.8227 268.322C63.152 270.9 58.4399 273.119 53.7382 275.465C56.4782 265.912 58.6579 255.281 62.0622 247.017C76.9563 210.813 92.1929 175.263 107.326 139.544C109.09 135.381 111.052 131.597 112.92 127.645C113.501 133.521 114.83 139.587 114.529 145.251C112.588 182.449 110.284 219.563 108.166 256.718C108.011 259.466 108.374 262.362 108.488 265.173C109.329 262.657 110.689 260.354 110.917 257.606C113.003 232.455 114.882 207.241 116.833 182.026C117.009 179.744 117.279 177.503 117.497 175.242C117.84 177.609 118.618 180.124 118.463 182.301C116.584 208.636 115.152 235.245 112.235 261.051C111.322 269.125 106.869 277.452 103.091 281.362C95.5038 289.225 87.2005 293.705 79.3643 300.532C77.7555 301.927 76.894 307.443 75.69 311.057C77.5583 312.938 79.4681 316.616 81.274 316.362C87.5119 315.454 93.8017 314.038 99.915 311.205C106.578 308.12 108.281 312.664 106.994 326.74C103.216 368.144 99.6659 409.654 96.1889 451.206C92.0683 500.43 87.3977 549.168 76.3335 593.911C66.764 632.61 57.3812 671.562 48.4863 711.022C41.7606 740.886 36.0106 771.765 29.617 801.988C28.849 805.624 26.7835 807.948 25.32 810.886C24.7284 807.082 23.6698 803.299 23.6386 799.494C23.4726 779.268 23.5556 759.041 23.5556 738.836H23.5764ZM699.145 332.615C697.287 333.144 694.547 335.955 692.959 334.095C661.209 296.96 629.459 259.804 598.156 220.936C595.177 217.238 592.758 200.203 594.128 192.996C602.556 148.527 612.053 104.988 621.54 61.5128C622.183 58.5962 626.21 56.1656 627.809 57.7085C641.053 70.4108 654.141 83.8317 667.135 97.6965C669.377 100.085 671.702 104.861 672.667 109.744C686.378 179.089 695.356 251.223 699.145 332.594V332.615ZM813.398 413.056C810.15 413.056 808.395 413.902 806.891 412.93C774.943 392.513 742.965 372.286 711.184 350.686C708.278 348.721 705.497 338.512 704.614 331.051C701.314 302.857 699.238 273.986 695.938 245.77C690.945 203.162 685.309 160.891 679.974 118.473C679.705 116.296 679.684 113.992 679.538 111.73C680.182 112.343 680.96 112.66 681.448 113.632C690.623 132.21 701.054 148.654 708.673 169.874C738.824 253.908 769.027 337.561 808.198 403.292C809.485 405.448 810.669 407.921 813.388 413.035L813.398 413.056ZM738.949 22.3702C723.878 11.2108 710.655 -0.455932 696.965 -8.29713C675.428 -20.6401 660.763 -47.2705 652.003 -92.4578C646.948 -118.539 641.136 -142.422 645.059 -172.138C646.834 -185.622 646.471 -200.417 647.239 -214.578C647.446 -218.424 648.277 -222.123 648.816 -225.885C650.415 -224.025 652.189 -222.63 653.591 -220.2C664.468 -201.283 675.293 -182.198 686.108 -163.113C695.211 -147.029 706.991 -134.496 712.793 -113.974C723.889 -74.7254 731.621 -30.9753 740.547 11.1262C741.045 13.4722 739.665 17.6782 738.959 22.3491L738.949 22.3702ZM360.255 51.5792C359.269 57.8564 358.46 64.7466 357.141 71.1717C350.914 101.564 344.759 132.041 338.179 162.075C326.087 217.301 313.736 272.253 301.395 327.226C300.606 330.734 299.008 333.376 297.793 336.399C297.202 332.89 296.164 329.424 296.102 325.894C294.887 257.627 293.559 189.381 292.978 121.093C292.905 112.618 296.122 101.987 299.257 95.8154C309.937 74.7858 321.157 55.0243 332.408 35.3896C335.117 30.6553 338.791 28.6474 341.863 24.7797C342.766 23.6384 343.213 20.4681 343.669 18.0587C345.797 6.66673 347.852 -4.78867 349.928 -16.2229C350.789 -14.5532 352.159 -13.2005 352.419 -11.1715C355.097 9.37202 357.598 30.0213 360.266 51.6427L360.255 51.5792ZM399.748 112.956C403.246 96.6819 405.913 83.726 408.819 71.0237C410.22 64.8945 412.057 59.2514 413.697 53.3758C415.763 59.3782 418.264 64.8734 419.821 71.4465C432.328 124.137 444.845 176.827 456.978 229.919C466.465 271.408 475.308 313.615 484.67 355.251C487.95 369.814 485.957 375.668 479.013 373.153C471.26 370.342 463.569 366.432 455.941 362.205C450.305 359.077 449.422 350.961 452.194 340.435C456.262 324.986 460.404 309.62 464.348 294.022C465.012 291.38 464.825 287.682 465.033 284.49C463.704 285.822 461.784 286.371 461.13 288.633C457.497 301.166 453.917 313.847 450.782 327.015C444.866 351.87 442.925 352.863 433.532 332.806C431.653 328.79 429.93 323.506 429.152 318.117C421.648 265.934 414.351 213.624 407.075 161.293C406.723 158.756 407.138 155.692 407.19 152.881C408.394 153.599 409.618 154.149 410.791 155.058C412.857 156.664 414.891 158.482 416.946 160.194C415.618 155.945 414.424 151.465 412.94 147.491C408.57 135.782 404.097 124.264 399.779 112.977L399.748 112.956ZM361.096 110.082C361.044 110.082 360.992 110.082 360.94 110.082C360.577 127.878 359.83 145.695 359.923 163.47C360.255 227.446 355.284 287.724 339.974 344.261C326.845 392.766 316.31 444.611 304.467 494.808C303.087 500.662 300.658 505.354 298.717 510.596C298.375 504.297 297.793 498.02 297.731 491.722C297.565 475.68 298.229 459.491 297.503 443.597C295.012 389.026 297.679 337.836 314.161 292.923C318.655 280.665 320.98 264.581 324.156 250.103C335.117 200.266 346.005 150.323 356.996 100.508C357.754 97.0836 359.145 94.3359 360.234 91.2924C360.525 95.1813 360.878 99.0491 361.085 102.959C361.21 105.305 361.106 107.715 361.106 110.082H361.096ZM-87.9061 184.224C-87.9165 184.457 -87.9268 184.689 -87.9372 184.943C-94.4449 183.654 -100.953 182.259 -107.471 181.096C-125.852 177.842 -125.78 177.863 -128.509 139.481C-129.796 121.347 -131.924 103.424 -132.754 85.2056C-133.979 58.3003 -126.755 40.927 -117.123 27.4216C-114.518 23.7652 -111.56 21.3558 -108.758 18.3546C-109.038 24.7797 -109.246 31.2048 -109.63 37.6088C-109.765 39.8914 -110.709 42.1106 -110.657 44.2875C-110.574 47.9651 -109.993 51.6003 -109.609 55.2356C-108.478 53.0798 -106.983 51.3467 -106.267 48.6625C-103.278 37.334 -101.264 24.3569 -97.4341 14.7192C-94.995 8.59001 -90.0027 7.27968 -86.152 3.81349C-85.1141 10.0273 -83.6506 16.0508 -83.1005 22.4548C-79.198 67.7478 -75.7313 113.252 -71.6004 158.439C-69.8671 177.334 -71.5485 183.717 -80.5369 184.182C-82.9864 184.309 -85.4462 184.182 -87.9061 184.182V184.224ZM16.9856 195.933C15.2626 201.407 14.2455 204.937 13.0934 208.255C3.56535 235.773 -5.21539 264.75 -15.688 290.472C-36.4981 341.577 -58.201 390.949 -79.6443 440.828C-80.9624 443.893 -83.1836 445.14 -84.9791 447.253C-84.6263 443.301 -84.4706 439.222 -83.879 435.46C-75.0982 379.789 -66.3071 324.119 -57.4017 268.554C-52.617 238.69 -52.0669 238.458 -40.0167 255.915C-38.9372 257.479 -37.7022 258.515 -36.5397 259.783C-37.2662 257.014 -38.055 254.288 -38.7193 251.435C-39.9959 246.003 -46.5037 240.127 -39.778 234.632C-22.3929 220.429 -4.69644 208.044 12.9066 195.151C13.9134 194.412 15.2108 195.574 16.9856 195.976V195.933ZM-76.2814 30.3171C-74.8802 -11.0024 -76.2503 -3.75297 -60.2975 -16.413C-54.9108 -20.6823 -49.6382 -25.7126 -44.2514 -30.0242C-41.0442 -32.5815 -37.7229 -34.4414 -34.4535 -36.6184C-35.564 -30.1087 -36.7265 -23.6201 -37.7644 -17.047C-38.19 -14.384 -38.3456 -11.5308 -38.6259 -8.76204C-37.5153 -10.6008 -36.1245 -11.9958 -35.3357 -14.363C-31.5473 -25.8394 -28.0184 -37.7174 -24.1573 -49.0671C-23.5035 -50.9904 -21.7079 -51.075 -20.452 -52.0049C-20.1199 -49.4476 -19.2376 -46.5097 -19.549 -44.3961C-24.2404 -13.0102 -27.4787 20.0665 -34.3185 49.0853C-41.8746 81.1053 -52.7519 109.405 -62.2281 139.27C-63.1207 142.081 -64.2935 144.49 -65.3314 147.09C-66.3071 143.877 -67.8951 140.876 -68.1649 137.41C-70.9881 101.754 -73.6036 66.0358 -76.2711 30.3171H-76.2814ZM685.06 11.232C704.843 21.1022 724.875 29.8944 744.543 41.54C751.964 45.9361 758.669 56.5461 765.405 65.3806C766.412 66.7122 766.433 77.3009 765.862 77.7871C754.331 87.6572 742 106.975 731.123 103.741C706.898 96.534 681.718 83.5147 672.263 22.0321C671.889 19.5804 671.837 16.8751 671.64 14.2755C672.418 15.7972 673.238 17.2344 673.965 18.883C678.013 28.2036 677.816 28.0134 680.078 18.0587C680.711 15.2899 682.839 14.1275 685.071 11.1897L685.06 11.232ZM21.3967 113.062C20.9193 113.273 20.4419 113.485 19.954 113.675C19.954 120.797 19.6738 127.983 20.0163 135.021C20.7221 149.457 18.0754 157.002 11.4016 159.602C-1.19869 164.526 -13.7055 170.613 -26.2747 175.813C-27.9873 176.531 -29.897 175.009 -31.7134 174.523C-31.2255 170.719 -31.0387 166.555 -30.198 163.174C-23.1921 135 -16.1654 106.869 -8.9415 78.9706C-3.59624 58.3214 1.96696 37.9469 7.64435 17.7204C8.49544 14.6981 10.5401 13.2821 12.0347 11.1052C12.5848 14.2755 13.3633 17.3612 13.6435 20.6583C16.2694 51.4313 18.8227 82.2466 21.3864 113.062H21.3967ZM-60.4429 -162.521C-60.8061 -164.719 -62.7678 -170.299 -62.3111 -174.653C-60.173 -194.88 -56.9762 -212.189 -49.6797 -229.182C-38.7193 -254.671 -31.7964 -288.34 -23.0364 -318.373C-21.9674 -322.029 -20.1925 -324.714 -18.7394 -327.842C-18.2101 -322.389 -17.3486 -316.957 -17.2137 -311.462C-16.8193 -294.554 -16.7362 -277.624 -16.4041 -260.695C-16.3834 -259.723 -15.3662 -258.56 -14.7123 -257.99C-8.8066 -252.896 -6.81379 -235.65 -11.2872 -224.786C-16.0097 -213.31 -21.7494 -203.672 -26.0464 -191.54C-34.1732 -168.608 -44.9779 -161.148 -60.4532 -162.521H-60.4429ZM589.167 183.506C587.953 176.447 587.112 171.734 586.323 166.978C577.117 110.822 581.331 53.0799 582.244 -4.2179C582.286 -6.58506 586.23 -11.5519 586.894 -10.5585C594.315 0.305052 602.868 9.73139 608.099 24.5684C610.901 32.5364 607.673 50.2477 607.528 63.5629C607.435 71.5098 608.13 79.4778 608.306 87.4669C608.421 92.4971 608.929 98.2249 608.057 102.473C603.169 126.335 597.958 149.88 592.758 173.424C592.115 176.341 590.911 178.666 589.157 183.506H589.167ZM-11.09 -146.902C-11.4533 -98.4391 -20.4416 -68.7652 -38.273 -52.2585C-46.2961 -44.84 -54.3814 -37.6963 -62.581 -31.2077C-65.9646 -28.5235 -69.7011 -27.9318 -73.2819 -26.3889C-72.7733 -37.3159 -72.4827 -48.3062 -71.6316 -59.0852C-71.4032 -61.9596 -69.535 -64.3267 -68.331 -66.715C-58.284 -86.7301 -48.6521 -107.929 -37.9824 -126.211C-31.8275 -136.757 -24.0847 -143.14 -16.7882 -150.136C-15.2002 -151.658 -12.5119 -147.79 -11.1004 -146.902H-11.09ZM567.018 155.734C566.468 160.025 565.741 165.773 565.015 171.522C563.292 166.576 561.548 161.673 559.867 156.685C559.556 155.776 559.472 154.487 559.306 153.346C551.449 97.6965 543.364 42.1741 535.943 -13.7499C534.604 -23.8526 535.85 -35.6462 536.109 -46.6154C536.171 -49.4053 537.033 -52.1105 537.521 -54.8581C538.455 -52.5121 539.378 -50.145 540.323 -47.799C541.008 -46.1082 541.714 -44.4807 542.409 -42.8321C542.482 -45.0302 542.16 -48.1372 542.7 -49.2574C544.08 -52.0895 545.98 -56.2953 547.433 -55.8937C554.075 -54.0761 557.231 -44.0369 557.916 -30.3412C560.977 31.0146 563.936 92.3916 567.028 155.734H567.018ZM622.308 -112.05C622.681 -92.0774 621.426 -84.0249 614.212 -93.8528C605.66 -105.498 596.505 -115.242 588.368 -128.092C584.943 -133.503 582.089 -144.282 581.393 -153.476C579.286 -181.543 578.311 -210.012 577.044 -238.355C576.878 -242.138 577.584 -246.112 577.885 -250C579.888 -248.669 582.452 -248.563 583.749 -245.71C585.545 -241.736 586.624 -235.924 587.569 -230.535C589.883 -217.22 591.824 -203.63 594.191 -190.357C594.647 -187.799 596.329 -186.277 597.45 -184.27C597.772 -186.933 598.498 -189.701 598.353 -192.238C597.803 -202.235 596.91 -212.147 596.287 -222.144C596.1 -225.188 596.37 -228.358 596.422 -231.465C597.18 -229.119 598.104 -226.963 598.654 -224.427C605.245 -194.415 611.846 -164.424 618.281 -134.263C620.201 -125.239 621.633 -115.728 622.297 -112.029L622.308 -112.05ZM519.129 -69.3147C518.786 -61.9174 518.817 -59.5079 518.548 -57.2253C515.33 -29.2421 487.306 1.17158 474.934 -10.7065C473.201 -12.3761 471.488 -20.8726 471.893 -25.311C474.239 -51.4977 477.301 -77.3884 479.947 -103.448C481.027 -114.1 482.677 -119.828 488.22 -113.318C496.378 -103.723 504.992 -95.8817 512.953 -85.5888C516.005 -81.6577 517.779 -73.0345 519.139 -69.2936L519.129 -69.3147ZM441.462 8.73792C442.178 8.08273 442.894 7.40639 443.61 6.7512C443.61 1.40396 443.268 -4.09117 443.787 -9.18478C443.994 -11.1715 446.578 -14.1727 447.347 -13.3695C455.006 -5.35924 456.563 8.14625 452.827 25.4983C451.83 30.127 452.63 36.5943 452.609 42.2375C455.266 40.1028 459.251 39.6378 460.331 35.5376C464.171 20.9542 467.877 25.6674 470.741 35.3473C480.477 68.2761 490.046 101.501 498.941 135.529C500.239 140.474 497.841 150.662 496.357 157.636C496.139 158.693 491.167 156.706 489.05 153.832C471.634 130.203 459.418 96.8088 451.145 56.229C447.917 40.3987 444.689 24.5894 441.462 8.75908V8.73792ZM553.722 289.436C553.006 292.226 552.695 294.762 551.948 296.178C545.357 308.606 538.839 321.287 531.874 332.679C530.816 334.412 526.467 331.368 525.543 328.029C514.51 288.379 503.737 248.391 493.264 208.023C492.319 204.366 493.959 197.54 494.395 192.192C496.284 193.397 498.547 193.545 499.99 195.976C516.337 223.769 532.559 251.879 548.803 279.967C550.463 282.842 551.999 286.075 553.733 289.436H553.722ZM485.791 230.025C487.254 234.252 488.822 238.225 490.109 242.579C497.343 267.117 504.349 291.972 511.749 316.257C522.627 351.996 522.595 351.722 503.425 365.777C496.865 370.575 493.388 367.32 490.596 353.73C486.248 332.573 481.162 312.114 476.419 291.317C472.568 274.43 476.107 244.249 483.196 233.216C483.84 232.223 484.577 231.504 485.791 230.003V230.025ZM562.804 225.607C561.393 237.739 560.469 243.974 559.971 250.378C558.601 267.984 555.694 267.836 550.775 255.239C541.423 231.335 531.625 208.234 522.367 184.161C517.489 171.48 512.559 158.313 509.269 143.645C507.826 137.198 510.421 126.44 511.189 117.627C513.981 119.783 517.198 120.67 519.492 124.327C528.501 138.657 538.278 151.739 545.741 169.366C553.037 186.613 557.864 208.847 562.804 225.607ZM482.241 217.301C479.377 227.171 476.304 236.915 473.647 247.165C470.565 259.064 468.8 256.613 466.444 245.813C457.176 203.542 447.658 161.525 438.223 119.402C434.767 103.953 431.249 88.5449 427.875 72.9893C427.336 70.5165 427.387 67.4096 427.169 64.5986C428.124 64.5986 429.453 63.7108 429.972 64.7465C439.375 83.4512 450.087 100.106 457.632 121.918C466.403 147.259 472.402 177.144 479.563 205.106C480.477 208.657 481.183 212.461 482.241 217.301ZM483.86 1.84792C496.191 3.43307 505.958 -9.31162 514.686 -26.2621C519.409 -35.4349 520.924 -33.3424 522.512 -20.7669C527.007 14.7616 517.987 43.886 513.337 75.0183C513.14 76.3076 508.563 76.9628 507.276 74.6379C498.225 58.406 489.413 41.4977 480.705 24.3993C477.373 17.8684 474.498 10.2174 471.416 3.07367C475.567 2.6721 479.719 2.24949 483.871 1.84792H483.86ZM105.489 22.3702C102.188 42.2163 99.7489 65.4228 94.4659 84.9941C91.9438 94.3359 84.0245 96.7665 78.5547 102.325C75.8769 85.9664 69.556 67.3885 71.31 53.7562C74.5276 28.732 82.2497 6.24405 88.747 -16.3919C90.1171 -21.1684 94.3103 -24.0217 97.2164 -24.0428C98.7006 -24.0428 100.776 -16.2651 101.565 -11.256C103.143 -1.19559 104.025 9.39316 105.489 22.3914V22.3702ZM268.348 184.161C269.012 162.603 264.051 137.093 275.79 121.6C277.523 119.318 279.505 117.902 281.374 116.084C282.214 120.227 283.657 124.285 283.802 128.533C284.446 147.449 284.716 166.428 285.131 185.387C285.972 223.895 286.854 262.404 287.591 300.934C287.653 303.914 286.75 306.999 286.304 310.043C285.639 308.31 284.726 306.788 284.352 304.78C277.035 265.87 262.753 231.462 268.337 184.161H268.348ZM263.023 91.5462C265.514 111.836 260.636 122.784 249.935 123.946C248.316 124.116 246.562 126.694 245.15 125.849C241.04 123.418 235 122.171 233.557 116.126C231.46 107.334 231.149 93.3849 232.851 84.022C237.574 57.9622 250.143 42.3854 253.692 13.9161C254.201 9.85812 256.931 7.13169 258.623 3.77118C259.37 8.71684 260.584 13.578 260.781 18.6294C261.653 41.7302 262.234 64.8734 263.023 91.5462ZM-121.047 5.7579C-120.621 -1.53378 -120.943 -7.4305 -119.915 -11.7844C-105.302 -73.4995 -90.5216 -135.046 -75.7106 -196.528C-75.1397 -198.895 -73.9046 -200.523 -72.9809 -202.509C-72.9705 -199.233 -72.5864 -195.725 -73.0016 -192.724C-78.7309 -150.601 -82.7476 -106.724 -91.0406 -67.0954C-96.5 -40.9722 -108.145 -20.9783 -117.071 1.65765C-117.549 2.88349 -118.514 3.20053 -121.067 5.7579H-121.047ZM282.505 49.5713C283.346 50.4168 284.197 51.2622 285.037 52.1076C281.872 68.72 278.997 85.6282 275.333 101.691C274.409 105.749 270.963 107.059 268.68 109.638C267.912 104.861 266.635 100.169 266.459 95.2659C265.494 68.6988 265.743 41.7513 263.729 15.6069C261.757 -9.92455 265.41 -29.686 272.717 -47.7779C273.963 -50.8636 276.174 -52.0682 277.938 -54.1606C278.841 -50.1449 280.907 -45.2838 280.439 -42.2826C278.53 -30.1509 278.727 -19.9215 280.533 -6.88097C282.982 10.767 282.007 30.6552 282.495 49.5713H282.505ZM52.6795 31.4584C53.0843 67.5575 49.4723 100.888 38.4808 129.019C37.3079 132.02 35.8653 134.556 34.5471 137.304C33.53 133.5 31.9835 129.949 31.5683 125.849C29.8869 109.067 28.3611 92.2013 27.1053 75.2296C23.9915 32.9379 24.0642 32.8956 42.0927 16.2832C51.7246 7.38528 53.022 9.22403 52.6691 31.4584H52.6795ZM386.172 174.883C388.32 164.209 390.635 152.226 393.157 140.453C393.801 137.452 395.108 135.127 396.105 132.506C397.07 135.761 398.398 138.741 398.949 142.292C407.127 195.236 415.213 248.222 423.257 301.272C423.734 304.442 423.651 307.993 423.838 311.374C422.551 309.557 420.766 308.373 420.049 305.816C409.203 266.948 398.471 227.932 387.833 188.79C386.909 185.366 386.857 180.822 386.182 174.904L386.172 174.883ZM165.854 58.2581C164.951 74.0461 163.892 94.0823 162.564 114.055C162.314 117.733 160.674 124.306 160.176 124.073C154.385 121.558 148.24 119.804 143.175 113.886C140.798 111.117 139.19 99.3661 139.605 92.3492C140.497 77.174 141.525 60.5195 145.116 48.0285C148.738 35.4107 155.506 27.0623 160.903 16.8539C162.553 28.6263 164.203 40.4197 165.843 52.1921C165.916 52.7416 165.843 53.3758 165.843 58.2581H165.854ZM474.166 -102.751C471.883 -80.8969 469.693 -59.0006 467.202 -37.2524C466.807 -33.8496 465.043 -31.2078 463.901 -28.2065C463.05 -31.1232 462.002 -33.8708 461.39 -37.0199C457.373 -57.6903 452.432 -77.8957 449.869 -99.4114C448.166 -113.72 449.651 -130.036 450.325 -145.317C450.429 -147.706 454.155 -151.89 455.712 -151.024C468.084 -144.218 473.025 -129.846 474.156 -102.751H474.166ZM534.49 389.723C534.293 390.97 534.116 392.745 533.753 394.288C529.02 414.303 524.339 434.382 519.316 454.017C519.015 455.221 514.842 454.334 514.271 452.178C510.462 437.764 507.39 422.419 503.602 407.963C495.267 376.175 496.98 378.141 509.632 369.01C511.957 367.341 514.136 364.741 516.368 362.501C523.228 355.653 534.718 372.582 534.479 389.702L534.49 389.723ZM581.642 -109.345C582.265 -110.212 585.337 -116.848 586.406 -115.58C596.91 -103.047 607.331 -89.9639 617.149 -75.0846C619.163 -72.0412 619.236 -60.7127 618.935 -53.4421C618.748 -48.8769 616.464 -41.6697 614.679 -40.9722C597.855 -34.3357 582.442 -63.5658 581.642 -109.366V-109.345ZM51.1122 213.011C54.0807 190.628 48.8184 155.354 66.6706 143.412C69.9607 141.214 73.5104 140.791 76.9459 139.544C77.2158 150.049 79.3643 162.814 77.3818 170.634C71.8913 192.34 64.7504 212.102 58.0766 232.328C56.9038 235.879 54.8072 238.014 53.1362 240.783C52.4615 236.027 51.6623 231.314 51.1745 226.474C50.8943 223.642 51.1226 220.556 51.1226 213.032L51.1122 213.011ZM510.857 -203.799C509.559 -200.967 507.452 -194.288 504.536 -190.589C501.069 -186.172 496.917 -184.375 493.077 -181.374C488.126 -177.485 486.331 -181.036 486.102 -192.618C485.552 -220.369 484.379 -248.077 483.57 -275.807C483.476 -278.935 484.078 -282.168 484.359 -285.36C485.698 -283.606 487.088 -281.999 488.365 -280.055C497.447 -266.232 499.377 -244.611 501.484 -223.137C501.692 -221.003 502.107 -218.974 502.429 -216.881C502.948 -218.593 503.643 -220.178 503.975 -222.059C505.003 -227.935 505.906 -233.938 506.85 -239.877C507.815 -233.409 508.874 -227.005 509.725 -220.453C510.161 -217.072 510.223 -213.436 510.867 -203.778L510.857 -203.799ZM699.373 -173.364C698.024 -173.702 696.934 -173.258 696.332 -174.23C690.437 -183.699 682.964 -191.012 679.092 -203.545C668.786 -236.939 659.891 -272.425 650.84 -307.594C649.74 -311.842 651.172 -319.176 651.421 -325.073C653.715 -322.452 656.922 -321.121 658.147 -316.999C671.121 -273.144 683.784 -228.844 696.519 -184.65C697.38 -181.649 698.096 -178.415 699.373 -173.364ZM597.377 281.7C596.37 271.196 595.353 261.347 594.523 251.435C594.326 249.046 594.72 246.447 594.834 243.932C595.447 245.792 596.246 247.461 596.63 249.511C603.605 286.266 610.538 323.041 617.44 359.859C617.71 361.317 617.596 363.135 617.658 364.783C616.641 363.388 615.375 362.437 614.638 360.514C606.604 339.548 598.54 318.645 590.734 297.298C586.334 285.251 580.978 273.436 578.819 259.487C577.636 251.815 582.182 239.958 584.144 229.982C586.188 235.773 588.929 240.973 590.112 247.504C592.105 258.473 593.039 270.33 594.585 281.7C594.814 283.412 595.934 284.554 596.64 285.97C596.91 284.406 597.18 282.842 597.377 281.7ZM36.2493 904.854C35.3671 902.613 34.5263 901.472 34.4641 900.162C33.5611 880.485 29.3887 857.49 32.627 841.744C40.3594 804.038 51.6001 769.736 61.4395 734.081C61.8443 732.622 62.4774 731.481 62.9964 730.192C63.0794 732.178 63.4738 734.398 63.2143 736.131C54.9214 789.624 46.5765 843.054 38.2006 896.484C37.7854 899.105 37.0485 901.493 36.2597 904.875L36.2493 904.854ZM133.315 215.695H133.844C133.844 205.571 133.554 195.405 133.927 185.366C134.322 174.819 135.36 164.399 136.117 153.916C140.425 156.136 144.794 157.869 148.998 160.785C151.105 162.244 154.717 167.274 154.551 168.309C149.828 197.455 144.784 226.347 139.543 255.07C139.107 257.479 136.792 260.016 135.619 259.508C134.654 259.086 133.492 254.33 133.429 251.392C133.18 239.514 133.325 227.594 133.325 215.695H133.315ZM291.213 14.0429C291.037 14.0429 290.86 14.0429 290.673 14.0429C290.673 2.16486 290.528 -9.71313 290.767 -21.57C290.829 -24.8037 292.095 -27.9106 292.801 -31.0598C299.828 -20.9782 306.906 -11.0447 313.767 -0.477041C314.276 0.304965 313.705 6.41305 312.895 8.88588C307.809 24.3147 302.568 39.511 297.223 54.5171C296.32 57.0322 294.659 58.2792 293.351 60.0968C292.635 56.6095 291.379 53.1855 291.296 49.6348C291.037 37.7779 291.192 25.8998 291.192 14.0217L291.213 14.0429ZM-41.9472 221.697C-42.5907 220.049 -44.1787 216.561 -44.0438 216.202C-40.5356 207.029 -37.5049 192.784 -33.0834 190.248C-17.5562 181.308 -1.5412 176.341 14.3181 170.127C15.7401 169.578 17.3177 170.804 18.8227 171.205C17.7744 174.164 17.0063 178.75 15.6467 179.828C3.57572 189.381 -8.56788 198.47 -20.7426 207.368C-27.4683 212.292 -34.3082 216.561 -41.9472 221.697ZM-28.5789 97.2949C-29.1497 96.7665 -29.7206 96.217 -30.2914 95.6886C-29.5856 90.7429 -29.1912 85.4591 -28.1222 80.9362C-18.5111 40.3987 -8.81696 -0.0120337 0.980958 -40.3382C1.59333 -42.8744 3.18132 -44.3116 4.30227 -46.2561C5.34018 -41.881 7.69626 -36.5549 7.19806 -33.2789C3.9909 -12.1225 1.43761 10.302 -3.81423 29.0067C-10.1455 51.5581 -18.947 70.8334 -26.6691 91.5672C-27.3541 93.406 -27.9457 95.3927 -28.5893 97.3161L-28.5789 97.2949ZM526.737 31.2471C527.577 35.0937 528.138 37.0381 528.449 39.1517C532.518 66.8389 536.576 94.5262 540.531 122.298C540.873 124.686 540.416 127.603 540.333 130.266C539.109 129.315 537.749 128.787 536.669 127.328C516.441 99.9791 514.489 85.9241 524.484 39.9125C525.014 37.4819 525.709 35.1994 526.737 31.2682V31.2471ZM263.812 -93.6415C261.57 -103.195 260.231 -106.449 260.065 -109.979C258.955 -134.137 258.052 -158.358 257.221 -182.579C257.138 -185.094 257.948 -187.757 258.342 -190.357C259.733 -188.919 261.767 -188.285 262.421 -185.897C266.708 -170.172 273.008 -154.723 273.994 -137.878C274.71 -125.725 268.234 -111.585 263.802 -93.6415H263.812ZM633.248 -4.32368C646.284 -3.54168 656.85 17.4669 657.815 40.9059C657.867 42.1106 654.992 45.8093 654.12 45.0062C646.595 38.1372 639.008 31.2894 631.94 22.5605C630.051 20.2356 628.878 11.1051 629.21 5.63109C629.49 1.12927 632.49 -2.56945 633.258 -4.32368H633.248ZM213.442 82.1831C208.18 107.123 202.845 132.506 197.396 157.784C197.064 159.327 195.829 159.919 195.009 160.954C194.801 158.693 194.261 156.305 194.438 154.212C197.074 123.439 199.742 92.6663 202.71 62.0412C202.855 60.5829 206.851 58.6596 207.318 59.9488C209.436 65.7611 210.92 72.6722 213.432 82.1831H213.442ZM532.829 568.866C530.67 569.521 529.269 570.895 528.159 570.134C523.747 567.175 519.181 564.554 515.174 559.799C512.507 556.629 508.459 548.724 508.895 545.279C510.462 533.063 513.669 521.84 516.389 510.385C516.451 510.131 518.579 511.103 518.921 512.477C523.374 530.061 527.671 547.836 532.808 568.845L532.829 568.866ZM58.5748 -135.933C55.6168 -127.796 51.8803 -116.573 47.6248 -106.323C46.0991 -102.645 43.3383 -101.377 41.1379 -98.9887C40.3802 -105.012 38.4497 -111.754 39.1139 -116.911C40.4113 -127.014 42.5598 -137.244 45.466 -145.571C48.4448 -154.131 52.7521 -160.514 56.4783 -167.826C57.0699 -158.759 57.6719 -149.671 58.5748 -135.912V-135.933ZM386.099 -1.13223C387.542 0.326106 388.019 0.917966 388.528 1.31954C403.588 13.1342 407.003 30.1903 400.526 61.1324C399.966 63.8166 399.603 66.7967 398.866 69.2273C398.212 71.4042 397.163 73.0316 396.292 74.8915C395.731 72.9893 394.932 71.2351 394.631 69.1427C391.735 48.7682 388.891 28.3727 386.141 7.91374C385.798 5.39864 386.099 2.46073 386.099 -1.17454V-1.13223ZM228.845 162.223C228.16 161.314 230.433 162.772 231.253 166.006C231.782 168.077 230.609 174.629 229.447 175.897C220.323 185.852 211.034 195.088 201.745 204.324C200.946 205.127 199.794 204.261 198.797 204.176C199.119 201.999 199.41 199.78 199.783 197.624C204.371 171.374 213.753 161.335 228.845 162.244V162.223ZM513.887 -145.148C513.721 -143.331 513.285 -138.829 512.86 -134.327C510.701 -135.933 508.262 -136.631 506.435 -139.294C501.93 -145.846 497.519 -152.82 493.534 -160.725C492.703 -162.373 493.212 -171.356 494.229 -172.603C509.051 -190.822 511.801 -187.672 513.607 -151.51C513.669 -150.347 513.711 -149.164 513.887 -145.127V-145.148ZM393.333 -89.0974C394.185 -93.726 395.191 -100.532 396.738 -106.703C397.07 -108.035 400.277 -108.183 400.599 -106.957C405.467 -88.4633 410.127 -69.6951 414.632 -50.7579C415.005 -49.1939 414.019 -43.9523 413.531 -43.8678C405.944 -42.4306 392.981 -70.2658 393.323 -89.0974H393.333ZM424.979 -4.19688C425.924 -2.80195 426.547 -2.37918 426.775 -1.49149C432.951 23.0043 439.095 47.5213 445.208 72.1016C445.416 72.9259 445.198 74.2362 445.177 75.3353C444.492 74.7435 443.662 74.4899 443.143 73.4754C435.826 59.1879 428.021 45.7881 421.606 29.7676C419.8 25.2658 421.949 12.8806 422.634 4.23622C422.873 1.23501 424.16 -1.36474 424.99 -4.19688H424.979ZM398.347 -160.027C394.34 -161.401 389.348 -200.586 392.15 -208.681C396.686 -221.785 405.342 -221.468 405.654 -207.455C405.996 -192.195 401.948 -176.471 399.737 -161C399.654 -160.408 398.834 -160.302 398.347 -160.027ZM42.8297 -9.29043C36.187 -15.9269 30.5304 -21.57 24.8841 -27.2131C29.0566 -37.8019 33.229 -48.4119 37.4014 -59.0007C40.567 -46.5731 43.9298 -34.3358 46.6907 -21.4855C47.0955 -19.6256 44.6564 -14.8701 42.8297 -9.29043ZM575.145 -168.777C574.74 -164.719 574.045 -157.829 573.349 -150.939C570.173 -158.294 566.945 -165.586 563.873 -173.131C563.448 -174.167 563.552 -176.661 563.707 -178.331C565.181 -193.78 566.645 -209.23 568.316 -224.596C568.575 -226.984 569.852 -228.844 570.651 -230.958C571.18 -228.337 572.021 -225.822 572.187 -223.116C573.204 -206.102 574.055 -189.046 575.145 -168.777ZM129.682 312.283C124.669 340.562 119.718 368.567 114.695 396.486C114.477 397.733 113.564 398.389 112.982 399.319C112.868 397.628 112.536 395.873 112.661 394.267C114.975 365.777 117.155 337.202 119.916 308.923C120.31 304.844 123.6 302.117 125.551 298.757C126.724 302.624 127.908 306.471 129.682 312.283ZM110.315 99.028C109.91 104.164 109.983 105.559 109.703 106.447C103.309 126.842 96.905 147.238 90.3765 167.443C89.9406 168.796 88.5187 168.627 87.5534 169.176C87.3458 165.942 86.557 162.201 87.0448 159.581C88.9961 149.224 90.9682 138.72 93.6667 129.251C96.8428 118.092 100.579 107.609 104.554 97.7388C105.281 95.9211 108.291 98.4785 110.315 99.028ZM558.653 -245.858C559.047 -245.604 559.441 -245.351 559.825 -245.097C558.082 -228.633 556.473 -212.084 554.48 -195.767C554.075 -192.47 552.217 -190.04 551.024 -187.207C550.287 -190.737 548.813 -194.393 548.938 -197.754C549.924 -223.666 551.169 -249.514 552.487 -275.363C552.612 -277.857 553.816 -280.097 554.522 -282.443C555.622 -280.266 557.542 -278.322 557.687 -275.87C558.3 -265.958 558.372 -255.876 558.642 -245.858H558.653ZM600.771 344.261C600.065 344.641 599.277 345.55 599.027 345.106C588.358 325.07 577.646 305.14 567.361 284.216C566.696 282.863 569.416 273.648 570.557 268.089C571.844 271.09 573.215 273.944 574.408 277.114C575.238 279.312 575.674 282.229 576.546 284.342C584.216 303.026 591.938 321.604 599.629 340.245C599.982 341.112 600.2 342.232 600.771 344.282V344.261ZM395.316 -132.044C393.022 -122.216 391.465 -115.516 389.898 -108.838C388.819 -110.211 387.241 -110.994 386.753 -113.044C382.985 -128.853 379.28 -144.747 375.948 -160.979C375.367 -163.79 376.281 -168.841 377.163 -171.948C377.609 -173.512 380.297 -174.399 380.692 -173.343C385.715 -159.774 390.5 -145.803 395.316 -132.023V-132.044ZM58.0455 -96.4736C57.1217 -75.8032 56.3952 -58.1342 55.4922 -40.5285C55.3573 -37.8654 54.4543 -35.3926 53.9042 -32.8352C53.3541 -34.0399 52.7314 -35.1177 52.2643 -36.4492C45.1339 -57.0139 44.7498 -80.3473 51.3717 -98.9887C52.9909 -103.554 55.0044 -107.464 56.8415 -111.691C57.3086 -105.689 57.786 -99.6861 58.0351 -96.4947L58.0455 -96.4736ZM518.091 -352.232C522.388 -337.564 526.571 -328.581 527.816 -317.972C531.241 -288.763 533.452 -258.856 536.088 -229.203C536.265 -227.174 535.984 -224.955 535.912 -222.82C535.486 -224.258 534.895 -225.589 534.646 -227.174C528.833 -264.816 523.042 -302.458 517.323 -340.164C517.063 -341.876 517.541 -344.137 518.08 -352.232H518.091ZM374.225 18.8407C374.983 17.9107 375.741 16.9596 376.499 16.0296C376.737 10.1963 376.831 4.32067 377.287 -1.407C377.433 -3.26691 378.522 -4.78868 379.176 -6.45837C379.778 -4.72527 380.692 -3.18233 380.93 -1.23788C384.096 24.4204 387.199 50.1209 390.22 75.8637C390.458 77.8927 389.991 80.3021 389.846 82.5213C388.829 80.9151 387.355 79.7737 386.878 77.5968C382.56 58.11 378.408 38.4542 374.215 18.8407H374.225ZM264.58 184.055C264.736 184.076 264.881 184.119 265.037 184.14C264.57 193.82 264.103 203.5 263.636 213.18C261.02 205.254 258.405 197.349 255.81 189.403C255.187 187.479 254.336 185.577 254.118 183.4C253.454 176.785 251.585 167.844 252.862 163.829C254.979 157.15 259.183 153.62 262.504 148.759C263.2 156.389 264.009 163.998 264.528 171.691C264.809 175.728 264.58 179.934 264.58 184.055ZM648.827 -265.049C648.827 -269.17 648.733 -273.313 648.868 -277.413C648.941 -279.611 649.377 -281.746 649.657 -283.901C650.498 -282.802 651.639 -282.168 652.127 -280.562C657.991 -261.456 663.793 -242.265 669.46 -222.884C669.772 -221.806 668.588 -216.924 668.277 -217.008C661.012 -218.889 648.66 -249.514 648.827 -265.028V-265.049ZM255.135 -135.363C254.896 -130.945 254.502 -123.801 254.108 -116.679C251.233 -121.92 246.437 -126.359 245.887 -132.573C244.829 -144.599 245.773 -157.766 246.697 -170.194C247.019 -174.547 249.676 -178.077 251.274 -182.008C252.084 -177.401 253.288 -172.941 253.62 -168.186C254.326 -158.273 254.575 -148.234 255.135 -135.363ZM473.979 -207.814C473.793 -205.997 473.461 -202.742 473.139 -199.466C471.52 -201.178 469.558 -202.108 468.323 -204.707C462.324 -217.368 462.22 -256.362 468.001 -273.545C468.354 -274.602 469.049 -275.13 469.589 -275.912C469.994 -273.757 470.648 -271.664 470.772 -269.445C471.862 -249.472 472.869 -229.457 473.979 -207.814ZM223.053 40.5255C223.219 37.2918 223.282 35.2416 223.437 33.2126C225.274 10.3865 227.101 -12.4396 229.011 -35.2446C229.187 -37.4004 229.914 -39.3237 230.381 -41.3738C231.242 -39.4928 232.311 -37.8654 232.934 -35.6462C238.207 -16.6878 233.899 22.7507 224.994 37.63C224.589 38.3063 224.153 38.8981 223.064 40.5255H223.053ZM504.183 154.445C505.428 156.791 506.331 158.08 506.985 159.834C514.5 180.061 521.983 200.329 529.446 220.64C529.923 221.93 530.151 223.663 530.494 225.185C529.56 224.72 528.387 224.889 527.723 223.705C519.129 208.298 510.473 192.996 502.19 176.827C500.924 174.354 501.059 167.464 501.297 162.793C501.443 160.003 503.031 157.573 504.172 154.445H504.183ZM462.147 -305.037C461.026 -293.666 460.383 -284.831 459.231 -276.293C458.504 -270.924 457.03 -266.063 455.889 -260.97C455.131 -266.761 453.885 -272.488 453.719 -278.364C453.398 -289.946 455.245 -303.769 446.132 -302.5C445.759 -302.458 445.094 -312.117 444.575 -317.253C449.599 -315.626 454.664 -314.463 459.594 -312.011C460.839 -311.398 461.628 -306.537 462.137 -305.058L462.147 -305.037ZM411.819 -148.044C412.525 -148.614 413.23 -149.164 413.946 -149.735C413.946 -157.407 413.791 -165.079 414.019 -172.709C414.113 -175.837 415.036 -178.859 415.576 -181.924C416.5 -179.387 418.036 -177.062 418.243 -174.273C419.956 -152.228 421.451 -130.121 422.883 -107.992C422.997 -106.175 422.25 -104.082 421.907 -102.117C421.025 -103.216 419.634 -103.892 419.323 -105.52C416.707 -119.596 414.279 -133.841 411.798 -148.044H411.819ZM182.056 70.2417C183.446 57.9833 185.356 40.2929 187.525 22.7506C187.878 19.9185 189.362 17.7628 190.328 15.3111C190.971 18.3757 192.341 21.6939 192.134 24.4837C190.816 42.491 189.321 60.4772 187.536 78.2943C186.737 86.2412 185.128 93.8287 183.882 101.564C183.394 93.237 182.907 84.9097 182.056 70.2629V70.2417ZM369.503 -108.605C370.209 -109.472 370.925 -110.338 371.631 -111.226C371.631 -113.593 371.444 -116.045 371.672 -118.285C372.119 -122.681 372.804 -126.951 373.385 -131.283C374.682 -127.881 376.322 -124.837 377.225 -120.99C379.809 -109.958 382.28 -98.7774 384.387 -87.2798C384.958 -84.1517 384.698 -78.107 383.712 -76.3739C382.653 -74.514 379.301 -74.5773 378.678 -76.4795C375.326 -86.7301 372.513 -97.805 369.513 -108.584L369.503 -108.605ZM579.971 -1.66061C579.255 -0.519307 578.549 0.621989 577.833 1.7633C577.314 14.1697 576.806 26.5761 576.256 38.9825C576.183 40.7156 575.944 42.4276 575.788 44.1607C575.238 42.4276 574.377 40.8425 574.18 38.9404C571.917 17.5514 569.686 -3.8798 567.724 -25.4167C567.61 -26.6425 569.872 -28.8828 571.024 -30.6582C574.003 -20.9782 576.982 -11.3194 579.961 -1.63946L579.971 -1.66061ZM336.632 -172.455C336.518 -168.08 336.663 -163.219 336.124 -158.759C335.937 -157.174 334.079 -156.519 332.989 -155.462C331.017 -174.125 328.848 -192.703 327.301 -211.534C327.083 -214.134 329.917 -217.917 331.328 -221.172C332.501 -217.41 334.39 -213.901 334.712 -209.822C335.677 -197.627 336.03 -185.2 336.632 -172.476V-172.455ZM-79.1668 302.688C-78.7309 291.571 -78.295 284.554 -78.212 277.516C-78.0563 263.651 -74.9633 255.408 -68.6839 253.337C-66.961 252.766 -65.1446 253.59 -63.3801 253.781C-63.7953 257.099 -63.8783 260.819 -64.6672 263.63C-68.3206 276.691 -72.109 289.584 -75.9804 302.35C-76.6136 304.442 -77.9213 305.541 -78.9177 307.105C-79.0838 304.273 -79.2395 301.462 -79.1668 302.688ZM378.035 104.058C377.827 103.974 377.619 103.889 377.412 103.805C378.138 96.6609 378.855 89.5171 379.581 82.3734C381.906 87.932 384.272 93.4061 386.535 99.0703C387.231 100.825 388.289 103.382 388.123 105.073C386.981 116.126 385.622 127.074 384.127 137.938C383.982 138.995 381.657 139.713 381.647 139.65C380.37 131.407 379.083 123.143 378.107 114.689C377.723 111.35 378.045 107.63 378.045 104.079L378.035 104.058ZM246.417 -84.6378C243.376 -88.4633 238.362 -91.1475 237.615 -96.6215C236.629 -103.765 239.016 -113.128 239.94 -121.519C243.126 -117.08 246.313 -112.663 249.479 -108.182C249.925 -107.548 250.371 -106.766 250.682 -105.858C252.229 -101.356 253.724 -96.7694 255.239 -92.2253C252.686 -90.0273 250.132 -87.8293 246.406 -84.6378H246.417ZM-20.4935 93.723C-19.7047 94.0612 -19.2688 94.2514 -18.8225 94.4205C-19.082 96.0902 -19.2169 97.8867 -19.6113 99.3873C-25.7453 123.017 -31.869 146.646 -38.1069 170.148C-38.6985 172.389 -40.0063 173.741 -40.982 175.517C-41.0858 172.811 -41.5736 169.852 -41.231 167.443C-39.643 156.178 -38.7504 143.729 -35.8754 134.176C-31.4539 119.529 -25.6208 106.911 -20.4935 93.7019V93.723ZM-50.3855 -255.749C-50.7591 -257.778 -51.1327 -259.025 -51.2054 -260.336C-52.1188 -276.039 -41.2622 -317.845 -34.6091 -324.249C-33.6335 -325.179 -32.606 -325.855 -31.6096 -326.637C-31.8379 -323.995 -31.7445 -320.93 -32.3361 -318.754C-37.6606 -299.351 -43.1097 -280.118 -48.538 -260.864C-48.9531 -259.385 -49.524 -258.116 -50.3855 -255.749ZM640.419 -190.357C640.212 -186.425 639.932 -178.796 639.33 -171.271C639.143 -168.904 638.095 -166.854 637.441 -164.656C636.776 -166.389 635.79 -167.911 635.521 -169.898C633.922 -181.543 632.012 -193.146 631.296 -205.088C631.068 -208.913 634.15 -213.69 635.718 -218.044C637.285 -214.155 639.299 -210.731 640.274 -206.25C641.011 -202.89 640.419 -198.177 640.419 -190.357ZM207.37 -161.317C205.751 -148.678 204.609 -137.096 202.71 -126.126C201.869 -121.286 199.493 -117.736 197.811 -113.593C196.732 -120.483 194.199 -128.198 194.905 -134.073C196.182 -144.62 199.326 -154.131 201.859 -163.853C202.586 -166.622 203.914 -168.608 204.973 -170.976C205.813 -167.594 206.654 -164.212 207.37 -161.338V-161.317ZM556.961 154.191C556.847 155.037 556.639 156.537 556.442 158.038C555.404 156.305 553.754 155.037 553.411 152.796C547.443 114.034 541.631 75.1662 535.839 36.2773C535.621 34.7978 535.985 32.9167 536.078 31.2048C536.763 33.276 537.718 35.1571 538.081 37.4609C542.357 64.3872 546.488 91.4193 550.764 118.325C552.643 130.097 554.781 141.679 556.95 154.17L556.961 154.191ZM304.28 77.7236C303.689 77.3643 303.232 77.0895 302.786 76.8148C303.149 75.293 303.398 73.581 303.876 72.2918C310.373 54.8974 316.787 37.3129 323.554 20.447C324.758 17.4457 327.54 17.4457 329.585 16.0719C329.066 20.6794 329.211 26.703 327.903 29.6831C321.541 44.1396 314.826 57.8353 308.162 71.6578C307 74.0672 305.526 75.8003 304.28 77.7236ZM62.0415 124.01C60.5157 122.594 58.7824 121.368 58.8136 120.988C60.2459 106.912 61.8235 92.9199 63.5257 78.9918C63.5568 78.6959 65.9959 78.8015 66.1827 79.7526C68.0925 89.4115 71.144 99.3873 70.9675 109.025C70.8741 114.267 65.1967 119.022 62.0311 123.989L62.0415 124.01ZM-57.1215 220.197C-56.2497 222.479 -55.3674 224.762 -54.4956 227.045C-57.2046 229.729 -59.8097 233.279 -62.6432 234.843C-66.1514 236.809 -69.8567 237.126 -73.4791 238.162C-73.1677 231.948 -73.0224 225.65 -72.4826 219.52C-72.0779 214.934 -71.4136 210.221 -70.3757 206.184C-69.5038 202.845 -67.9055 200.393 -66.6288 197.561C-66.8675 201.048 -67.0959 204.514 -67.3346 208.002C-67.6252 212.44 -67.9158 216.9 -68.2064 221.338C-66.5665 219.034 -64.9889 216.498 -63.2763 214.49C-62.0412 213.032 -60.1626 210.58 -59.4153 211.573C-58.2736 213.095 -57.8585 217.195 -57.1319 220.218L-57.1215 220.197ZM572.602 173.889C574.159 162.518 575.664 151.549 577.169 140.58C578.83 150.471 580.542 160.32 582.109 170.296C582.639 173.636 582.95 177.25 583.054 180.779C583.22 186.359 583.127 192.002 583.137 197.603C580.594 194.602 577.667 192.488 575.643 188.304C574.076 185.049 573.661 179.194 572.602 173.889ZM68.7879 -123.231C66.5772 -91.845 64.5429 -62.4246 62.384 -33.0465C62.1972 -30.5737 61.18 -28.3756 60.5573 -26.0719C60.3082 -27.6359 59.7581 -29.2633 59.8411 -30.7428C61.4499 -61.4101 63.0586 -92.0986 64.9061 -122.703C65.0826 -125.556 66.7847 -127.986 67.7811 -130.607C68.1963 -127.585 68.6115 -124.541 68.7879 -123.231ZM245.368 -74.1758C249.281 -68.5327 251.212 -65.7429 253.153 -62.953C249.634 -52.1317 246.116 -41.2893 242.597 -30.468C241.289 -38.9222 238.902 -47.4396 239.047 -55.7669C239.151 -61.5157 242.742 -66.9687 245.368 -74.1758ZM211.999 -25.4801C213.027 -31.9687 214.49 -41.2047 215.964 -50.462C216.94 -49.7222 218.694 -49.2785 218.777 -48.2006C219.504 -38.9222 219.981 -29.5381 220.386 -20.154C220.479 -17.8925 220.147 -15.4197 219.815 -13.1794C218.922 -7.21922 217.936 -1.34358 216.981 4.55317C215.528 -1.42812 213.951 -7.28262 212.695 -13.433C212.165 -16.0115 212.332 -19.2452 211.999 -25.4801ZM508.21 105.791C506.113 113.506 504.982 118.05 503.581 122.171C503.467 122.509 501.111 120.523 500.519 118.578C496.762 106.277 493.119 93.7865 489.683 81.063C489.226 79.3722 490.192 75.8848 490.493 73.2218C496.326 83.9585 502.169 94.6953 508.21 105.791ZM665.963 75.7369C665.755 77.1741 665.558 78.6113 665.35 80.0485C663.658 79.6047 661.707 80.1964 660.327 78.5267C650.591 66.691 640.97 54.4326 631.369 42.1318C630.705 41.2864 630.435 38.9191 629.988 37.2706C630.756 37.651 631.576 37.7568 632.282 38.4331C641.758 47.4579 651.266 56.3347 660.628 65.8667C662.672 67.938 664.198 72.3975 665.963 75.758V75.7369ZM549.208 319.469C546.8 332.362 544.942 343.437 542.648 354.089C541.714 358.401 539.846 361.761 538.392 365.544C536.971 362.12 534.947 359.14 534.293 355.125C533.618 350.961 533.39 343.944 534.511 341.408C538.05 333.419 542.285 326.845 546.332 319.998C546.862 319.089 547.92 319.66 549.187 319.49L549.208 319.469ZM-59.1662 153.155C-58.4916 147.914 -58.4085 144.828 -57.7443 142.546C-50.9771 119.593 -44.1476 96.7032 -37.2143 73.9827C-36.4878 71.6156 -34.9621 70.3897 -33.81 68.6354C-34.0072 71.4676 -33.8099 74.8703 -34.4742 77.0472C-41.6358 100.74 -48.9324 124.264 -56.2289 147.766C-56.6545 149.14 -57.4329 150.027 -59.1662 153.134V153.155ZM521.163 -182.854C521.163 -182.854 521.464 -185.538 521.765 -188.264C522.575 -185.559 523.82 -183.065 524.111 -180.127C526.021 -161.021 527.858 -141.851 529.373 -122.576C529.726 -118.137 528.75 -113.213 528.377 -108.5C526.965 -112.896 524.63 -116.975 524.308 -121.73C522.969 -141.048 522.243 -160.577 521.153 -182.854H521.163ZM265.68 257.627C264.3 266.462 263.646 270.562 263.003 274.683C262.535 273.394 261.913 272.253 261.622 270.774C256.505 244.693 251.419 218.59 246.354 192.467C246.064 190.988 246.085 189.212 245.96 187.585C246.386 187.902 247.029 187.923 247.195 188.557C253.568 212.271 259.91 236.048 265.67 257.627H265.68ZM161.889 -16.4976C159.336 -9.84002 156.782 -2.82308 154.001 3.72886C153.471 4.97585 152.06 4.42638 151.053 4.70113C151.458 -2.10443 151.811 -8.93108 152.278 -15.7155C152.433 -18.0404 152.766 -20.3442 153.15 -22.5423C154.478 -30.0876 155.869 -37.5906 157.229 -45.1148C158.63 -36.5339 160.021 -27.953 161.889 -16.4976ZM546.582 -276.314C546.582 -273.376 546.737 -270.375 546.55 -267.5C545.98 -258.814 545.263 -250.169 544.599 -241.504C543.665 -249.683 542.617 -257.799 541.818 -266.042C541.039 -274.095 540.313 -282.232 539.939 -290.411C539.7 -295.758 540.126 -301.254 540.25 -306.664C542.347 -301.824 545.035 -297.639 546.353 -291.954C547.329 -287.748 546.55 -281.598 546.571 -276.293L546.582 -276.314ZM370.001 135.994C369.773 136.078 369.544 136.163 369.316 136.247C368.735 160.532 368.226 184.816 367.5 209.08C367.386 212.757 366.275 216.308 365.632 219.901C365.351 216.033 364.77 212.123 364.843 208.298C365.31 184.013 365.881 159.729 366.524 135.465C366.773 125.933 367.292 116.443 367.697 106.933C368.465 116.613 369.233 126.314 370.012 135.994H370.001ZM346.648 -41.3738C342.953 -25.8394 339.424 -10.643 335.625 4.23622C335.293 5.54661 332.688 5.94812 332.128 4.70113C331.287 2.79896 330.623 -1.76625 331.121 -3.73183C334.504 -17.1739 338.168 -30.2566 341.863 -43.3182C342.351 -45.0302 343.503 -46.8478 344.323 -46.7844C344.987 -46.7422 345.61 -43.9312 346.648 -41.3526V-41.3738ZM87.8337 -86.4766C84.3878 -76.691 81.1806 -67.4125 77.8697 -58.3244C77.4753 -57.2253 76.4893 -57.1619 75.7731 -56.6124C76.4893 -65.2145 77.1847 -73.8376 77.9423 -82.4397C78.2018 -85.3564 78.4198 -88.3999 78.9802 -91.0418C80.122 -96.389 81.4816 -101.504 82.7582 -106.724C84.284 -100.658 85.7993 -94.5926 87.8337 -86.4978V-86.4766ZM386.4 -52.7023C389.753 -49.0882 391.517 -48.4964 392.046 -46.4252C395.067 -34.6317 397.807 -22.4789 400.578 -10.3895C400.64 -10.1359 399.696 -8.40273 399.644 -8.48727C395.015 -16.6244 390.054 -24.1275 386.037 -33.5327C384.812 -36.4071 386.151 -44.5018 386.39 -52.7023H386.4ZM-1.61383 -71.4494C-5.18426 -55.8093 -7.8517 -43.4873 -10.7994 -31.4825C-12.2732 -25.4801 -14.2453 -20.0695 -15.9993 -14.3841C-15.5011 -21.2742 -15.553 -28.6504 -14.3906 -34.9487C-12.1798 -46.9536 -9.39819 -58.4723 -6.54392 -69.822C-6.1599 -71.3437 -4.00104 -70.7519 -1.62422 -71.4283L-1.61383 -71.4494ZM190.816 131.048C190.982 131.133 191.148 131.217 191.303 131.302C189.352 149.224 187.473 167.189 185.367 185.028C185.014 188.05 183.675 190.544 182.803 193.291C182.201 189.698 180.727 185.577 181.121 182.618C183.913 161.504 187.069 140.622 190.182 119.719C190.349 118.642 191.148 117.986 191.646 117.141C191.698 118.282 191.853 119.466 191.77 120.565C191.501 124.073 191.137 127.561 190.805 131.069L190.816 131.048ZM576.515 -112.748C576.214 -110.972 575.519 -106.872 574.823 -102.772C573.464 -105.393 572 -107.802 570.765 -110.677C569.654 -113.255 568.399 -116.024 567.869 -119.236C566.644 -126.76 565.814 -134.602 564.932 -142.358C564.932 -142.422 566.644 -144.091 566.935 -143.521C570.028 -137.307 573.121 -131.051 575.903 -124.203C576.629 -122.385 576.266 -118.475 576.525 -112.748H576.515ZM143.487 330.269C142.687 327.564 141.826 325.958 141.951 324.88C143.59 310.994 145.261 297.108 147.296 283.476C147.514 282.039 150.119 282.313 151.613 281.785C151.665 285.061 152.195 288.717 151.697 291.507C149.839 301.906 147.68 312.03 145.573 322.196C145.064 324.647 144.358 326.888 143.487 330.248V330.269ZM162.865 -51.3919C163.114 -53.4209 163.581 -57.2253 164.048 -61.0296C165.719 -58.5779 167.618 -56.5912 168.999 -53.5266C170.286 -50.6733 172.092 -46.1927 171.822 -43.2549C171.168 -36.407 169.403 -30.0454 168.096 -23.4934C166.746 -28.0164 165.148 -32.3068 164.141 -37.1679C163.383 -40.8243 163.373 -45.2415 162.865 -51.3919ZM628.909 -238.904C630.653 -247.38 631.41 -251.036 632.168 -254.714C635.282 -247.929 638.51 -241.335 641.333 -234.001C641.582 -233.367 638.416 -224.913 638.178 -225.209C635.022 -229.119 632.106 -233.959 628.909 -238.904ZM192.082 -175.646C193.877 -181.247 196.14 -188.285 198.392 -195.323C199.555 -192.09 201.994 -187.926 201.662 -185.813C199.97 -175.076 197.562 -164.889 195.403 -154.511C194.511 -160.218 193.608 -165.924 192.082 -175.668V-175.646ZM444.523 -228.062C442.468 -223.243 440.787 -219.058 440.704 -219.185C436.864 -225.948 433.148 -233.092 429.422 -240.194C430.844 -243.195 433.304 -249.155 433.532 -248.775C437.196 -242.688 440.569 -235.776 444.513 -228.062H444.523ZM439.884 -3.3091C439.614 -1.38579 439.261 1.17151 438.908 3.75002C438.286 2.86234 437.393 2.31289 437.071 1.04477C434.715 -8.19136 432.068 -17.2374 430.408 -27.0653C429.827 -30.4892 431.747 -35.9209 432.525 -40.4438C433.978 -37.5483 436.168 -35.2023 436.749 -31.6093C438.161 -22.7747 438.836 -13.3906 439.894 -3.3091H439.884ZM577.127 -336.042C575.238 -327.736 573.744 -321.205 572.26 -314.653C571.014 -325.432 569.499 -336.106 568.689 -347.033C568.44 -350.414 570.132 -354.451 570.941 -358.192C572.965 -350.943 574.989 -343.693 577.127 -336.042ZM306.636 -42.6208C305.204 -37.485 304.343 -34.3992 303.492 -31.3345C300.243 -37.1045 296.994 -42.8533 293.746 -48.6232C296.174 -52.8925 298.603 -57.162 301.032 -61.4102C302.869 -55.2598 304.706 -49.1094 306.636 -42.6208ZM410.75 -149.122C410.968 -145.571 411.653 -140.773 411.362 -136.293C411.217 -134.116 409.255 -132.488 408.113 -130.607C407.252 -139.695 405.415 -148.995 405.82 -157.808C406.224 -166.706 408.84 -175.118 410.49 -183.741C410.573 -174.357 410.667 -164.973 410.75 -155.568C410.76 -153.793 410.75 -152.038 410.75 -149.122ZM418.389 -22.6903C415.348 -13.4964 413.573 -8.10688 411.788 -2.71738C409.598 -11.9112 407.418 -21.1051 405.228 -30.2989C406.411 -31.5036 407.895 -34.3569 408.715 -33.6383C411.746 -30.9964 414.569 -27.1498 418.378 -22.6903H418.389ZM-55.3052 -128.536C-59.7163 -119.68 -63.8265 -111.437 -67.9262 -103.195C-68.4763 -104.653 -69.618 -106.428 -69.4935 -107.527C-68.7462 -114.227 -68.5593 -122.724 -66.5458 -126.866C-64.553 -130.988 -60.6504 -130.818 -57.5575 -132.15C-57.1008 -132.34 -56.4573 -130.459 -55.3052 -128.536ZM21.6355 3.66552C24.4274 -0.476995 26.3372 -5.61288 27.9252 -5.19017C30.9974 -4.3659 33.8932 -0.392505 36.8616 2.29168C33.478 7.00485 30.1775 12.1407 26.5863 15.8817C26.1089 16.3678 24.0746 9.79476 21.6458 3.66552H21.6355ZM247.268 5.39864C246.292 -2.8864 245.451 -5.95111 245.846 -7.36717C248.773 -17.8714 251.897 -28.1432 255.177 -38.1402C255.384 -38.7954 257.419 -36.6184 258.602 -35.7519C255.27 -23.6202 251.928 -11.5096 247.268 5.41979V5.39864ZM233.993 -214.409C235.332 -221.108 236.494 -226.878 237.646 -232.669C239.701 -227.682 243.666 -221.996 243.355 -217.832C242.877 -211.407 239.463 -206.039 237.304 -200.206C236.266 -204.665 235.218 -209.146 233.993 -214.409ZM677.079 62.8021C674.972 62.8021 673.311 63.6263 673.062 62.6753C669.408 48.7048 665.931 34.5231 662.486 20.299C662.486 20.2567 663.959 18.3969 663.98 18.4814C668.142 32.3462 672.232 46.2954 677.079 62.8232V62.8021ZM120.58 90.0878C122.759 82.9018 124.431 77.4277 126.102 71.9325C127.347 78.1674 129.464 84.3178 129.558 90.6372C129.63 95.4983 127.181 100.55 125.842 105.495C124.233 100.782 122.625 96.0691 120.58 90.0667V90.0878ZM506.736 -122.111C504.401 -122.449 503.653 -122.111 503.114 -122.703C497.312 -129.043 491.468 -135.257 485.832 -142.253C484.909 -143.394 484.961 -148.234 484.566 -151.362C486.113 -151.024 488.022 -151.848 489.154 -150.157C494.063 -142.844 498.744 -134.792 503.508 -127.014C504.141 -125.978 504.806 -125.027 506.736 -122.111ZM531.719 -148.509C531.719 -147.642 531.719 -152.144 531.719 -156.667C533.338 -153.137 534.998 -149.692 536.566 -146.057C537.095 -144.81 537.728 -143.035 537.707 -141.534C537.593 -134.137 537.344 -126.739 536.96 -119.384C536.908 -118.433 535.798 -117.736 535.175 -116.911C534.199 -123.336 533.161 -129.719 532.269 -136.208C531.968 -138.406 532.04 -140.837 531.708 -148.53L531.719 -148.509ZM137.944 1.6788C139.761 -13.2427 141.452 -28.1009 143.456 -42.7688C143.819 -45.453 145.428 -47.3551 146.455 -49.5955C146.424 -46.8056 146.642 -43.8889 146.331 -41.2682C144.566 -26.4312 142.698 -11.6365 140.788 3.11599C140.508 5.25065 139.812 7.11059 139.304 9.09731C138.868 6.75129 138.442 4.40528 137.944 1.69996V1.6788ZM464.213 -168.82C461.545 -177.443 459.314 -183.593 457.788 -190.462C457.456 -191.942 459.646 -196.084 460.684 -199.022C463.081 -192.343 465.593 -185.834 467.742 -178.796C467.98 -178.014 466.205 -174.336 464.223 -168.841L464.213 -168.82ZM291.722 -57.4367C290.767 -61.706 289.407 -65.5315 289.76 -66.546C291.597 -71.8298 293.663 -77.0713 296.143 -80.7277C296.807 -81.7 299.226 -77.0714 300.835 -75.0001C298.053 -69.6529 295.271 -64.2845 291.711 -57.4367H291.722ZM777.902 56.2924C777.237 58.5538 776.978 60.3503 776.656 60.3926C773.771 60.7942 770.532 62.7175 768.052 60.5829C764.99 57.9621 762.551 51.8752 759.852 47.2888C762.758 48.0708 765.665 48.7259 768.56 49.6981C770.709 50.4168 772.857 51.2834 774.944 52.5726C775.992 53.2278 776.905 54.982 777.902 56.2924ZM23.9812 -232.458C22.7564 -225.505 21.3448 -217.537 19.9333 -209.59C18.3453 -215.951 16.5393 -222.123 15.2938 -228.781C14.7748 -231.549 15.4806 -235.375 15.6259 -238.735C16.695 -236.643 17.6395 -233.853 18.8953 -232.712C19.6738 -232.014 21.0231 -233.494 21.9572 -234.614C22.5384 -235.311 22.8187 -237.15 23.2339 -238.482C23.4207 -237.002 23.5971 -235.544 23.9812 -232.458ZM221.777 137.283C224.288 140.918 225.856 143.18 227.423 145.441C224.548 148.717 221.787 152.775 218.746 154.931C217.448 155.84 215.559 152.775 213.94 151.528C216.369 147.111 218.798 142.715 221.777 137.304V137.283ZM549.965 -92.5001C548.969 -88.6323 548.19 -85.6312 547.412 -82.63C545.295 -85.5889 541.537 -88.2519 541.423 -91.5701C541.226 -96.8962 543.416 -102.666 544.599 -108.225C546.249 -103.406 547.9 -98.5659 549.965 -92.5001ZM181.038 -71.3015C183.384 -76.3528 184.889 -81.0871 186.965 -83.264C187.691 -84.0249 189.809 -78.424 191.293 -75.7187C189.3 -70.5194 187.297 -65.3412 185.304 -60.142C184.204 -63.0164 183.114 -65.8908 181.038 -71.3015ZM122.469 -113.361C121.078 -105.541 120.071 -99.8763 119.065 -94.1909C117.985 -101.842 116.605 -109.387 115.961 -117.228C115.712 -120.272 117.134 -123.949 117.788 -127.331C119.345 -122.66 120.912 -118.01 122.469 -113.361ZM270.974 -63.5659C268.109 -56.6335 265.68 -50.779 263.262 -44.9245C262.712 -47.8835 261.321 -51.8358 261.767 -53.6323C263.283 -59.7615 265.442 -65.151 267.362 -70.8153C268.379 -68.7863 269.386 -66.7573 270.974 -63.587V-63.5659ZM229.104 -204.137C228.243 -198.388 227.174 -191.265 226.105 -184.143C225.814 -191.117 225.523 -198.113 225.243 -205.088C225.222 -205.659 225.222 -206.272 225.285 -206.842C225.866 -212.633 226.447 -218.424 227.039 -224.215C227.651 -218.276 228.264 -212.316 229.104 -204.137ZM280.149 -219.46C278.654 -214.979 277.585 -211.788 276.516 -208.575C274.721 -212.527 272.915 -216.48 271.119 -220.432C272.873 -223.602 274.617 -226.773 276.371 -229.922C277.492 -226.815 278.613 -223.708 280.149 -219.439V-219.46ZM-80.4954 -26.093C-83.6195 -21.1896 -86.0482 -17.0471 -88.6845 -13.6231C-89.0478 -13.1582 -90.3971 -16.2651 -91.2897 -17.7234C-88.9025 -23.6624 -86.5153 -29.6226 -84.1177 -35.5616C-83.2874 -33.3847 -82.4466 -31.2078 -80.4954 -26.1142V-26.093ZM201.766 -250.888C199.887 -259.173 197.749 -264.542 198.309 -266.951C199.492 -272.023 202.077 -275.553 204.09 -279.717C204.692 -277.603 205.99 -275.067 205.782 -273.461C204.942 -267.12 203.644 -261.054 201.766 -250.888ZM68.1133 23.0466C67.1065 20.0031 66.3592 18.6505 66.4734 17.9319C67.8745 9.28752 69.3069 0.664343 71.0298 -7.66297C71.2063 -8.55065 73.3029 -7.55732 74.5068 -7.43051C72.514 2.08038 70.5109 11.5912 68.1133 23.0254V23.0466ZM446.309 -265.112C445.053 -260.357 444.077 -256.7 443.102 -253.044C441.731 -257.588 439.51 -261.942 439.272 -266.761C439.106 -270.248 441.565 -274.348 442.852 -278.174C443.963 -273.947 445.084 -269.741 446.298 -265.112H446.309ZM486.082 -323.974C488.874 -312.455 491.001 -303.748 493.036 -294.934C493.046 -294.871 491.292 -292.609 491.25 -292.757C488.863 -299.943 486.455 -307.15 484.369 -314.759C484.037 -315.964 485.127 -319.049 486.092 -323.974H486.082ZM282.858 -345.109C279.661 -342.827 277.513 -339.699 275.696 -340.438C274.004 -341.115 272.655 -345.891 271.161 -348.85C272.852 -352.105 274.399 -355.909 276.329 -358.213C276.745 -358.72 278.499 -353.986 282.868 -345.088L282.858 -345.109ZM139.283 350.39C137.955 358.126 136.834 365.375 135.474 372.434C134.228 378.923 132.744 385.179 131.364 391.541C131.935 385.221 132.36 378.817 133.097 372.603C133.979 365.164 135.048 357.809 136.242 350.559C136.533 348.784 137.643 347.664 138.37 346.227C138.702 347.748 139.024 349.27 139.273 350.39H139.283ZM605.753 -320.339C605.151 -320.994 604.809 -321.1 604.694 -321.522C601.778 -332.196 598.882 -342.911 596.038 -353.69C595.976 -353.923 596.671 -355.085 597.014 -355.825C600.096 -345.405 603.21 -335.007 606.22 -324.46C606.449 -323.657 605.94 -321.86 605.753 -320.339ZM571.118 228.122C572.488 223.135 573.765 218.485 575.041 213.856C576.235 216.583 578.684 220.535 578.414 221.845C577.293 227.34 575.353 232.054 573.723 237.042C572.965 234.442 572.197 231.821 571.118 228.122ZM265.639 -319.895C263.272 -315.118 261.747 -311.758 260.013 -309.01C259.878 -308.799 257.387 -313.491 257.574 -314.928C258.166 -319.493 259.515 -323.572 260.563 -327.863C261.913 -325.749 263.252 -323.636 265.639 -319.895Z" fill="#004520"/>
</g>
</g>
<defs>
<clipPath id="clip0_338_2">
<rect width="430" height="360" fill="white"/>
</clipPath>
<clipPath id="clip1_338_2">
<rect width="1216" height="1986" fill="white" transform="matrix(1 0 0 -1 -353 1615)"/>
</clipPath>
</defs>
</svg>
