<svg width="1021" height="935" viewBox="0 0 1021 935" fill="none" xmlns="http://www.w3.org/2000/svg">
<path d="M234.684 360.289L167.735 514.984L183.942 616.195L258.486 722.109L340.512 749.452L430.597 693.686L480.303 792.56L724.595 712.094L718.204 598.952L787.516 602.216L854.49 525.793L856.179 394.769L745.223 216.044L553.457 196.579L371.533 243.456L234.684 360.289Z" fill="#C1D4EC"/>
<path d="M231.952 457.31C232.431 455.582 232.716 453.713 233.423 452.117C237.487 442.923 241.55 433.728 245.763 424.65C250.146 415.275 254.232 405.669 259.279 396.737C269.246 378.951 281.318 362.861 296.569 349.874C306.142 341.724 315.853 333.652 326.112 326.504C345.398 313.075 366.388 302.963 387.802 293.611C414.449 281.988 441.943 272.855 469.335 263.268C493.344 254.892 518.063 250.019 543.287 247.136C556.602 245.598 569.962 243.601 583.357 243.535C597.507 243.479 611.749 244.204 625.81 248.223C634.098 250.592 642.854 251.196 650.982 254.019C667.238 259.665 683.312 266.056 699.227 272.779C704.497 274.991 709.117 279.104 714.011 282.403C720.357 286.629 726.794 290.665 732.923 295.16C735.988 297.408 738.607 300.401 741.146 303.378C744.886 307.805 748.135 312.707 751.955 317.028C763.599 330.096 776.076 342.46 784.383 358.464C784.669 359.023 784.944 359.667 785.344 360.109C794.654 369.771 797.93 382.397 801.47 394.902C802.947 400.151 804.528 405.369 806.348 410.512C809.29 418.789 810.953 427.058 809.918 435.839C809.417 440.164 810.883 444.77 810.589 449.152C809.649 464.543 807.372 479.741 801.872 493.874C796.747 507.041 790.217 519.55 780.405 529.475C776.236 533.723 771.437 537.275 766.913 541.107C766.708 541.292 766.319 541.494 766.113 541.436C757.768 539.125 751.635 546.128 744.023 546.545C739.817 546.797 735.359 546.358 731.244 545.205C724.865 543.418 718.806 541.694 712.338 544.226C707.207 546.222 704.978 544.728 704.094 538.97C703.532 535.46 702.217 533.521 699.004 532.493C697.507 532.026 695.769 530.905 694.933 529.545C691.135 523.234 686.331 517.194 687.366 509.02C687.582 507.293 687.604 505.546 687.694 503.777C688.022 496.956 687.416 496.334 681.151 494.188C677.996 493.102 674.989 491.525 672.062 489.841C667.763 487.369 664.369 488.907 663.617 493.755C663.424 494.949 662.464 495.975 661.859 497.053C660.773 496.338 659.538 495.749 658.578 494.832C657.789 494.106 657.502 492.697 656.667 492.186C655.432 491.476 653.775 490.735 652.643 491.086C651.821 491.341 651.033 493.286 651.034 494.5C651.024 497.499 651.232 500.592 651.839 503.52C653.158 510.074 654.887 516.501 656.206 523.054C656.469 524.39 655.945 526.212 655.157 527.306C651.491 532.451 651.665 537.983 653.555 543.955C654.185 545.986 654.643 548.435 654.107 550.342C653.07 554.266 653.825 556.461 657.587 558.29C660.376 559.651 664.984 561.542 660.3 566.192C660.186 566.309 661.788 569.415 662.966 569.819C665.504 570.732 668.281 571.085 670.899 571.042C672.213 571.04 673.469 569.638 674.772 568.87C673.663 568.202 672.531 567.581 671.422 566.913C670.599 566.44 669.764 565.929 668.929 565.419C669.466 564.726 669.877 563.749 670.563 563.415C672.299 562.593 674.162 561.57 675.979 561.614C680.437 561.689 681.007 559.043 680.936 555.178C680.875 549.287 681.123 543.421 681.988 537.486C685.511 540.725 687.936 544.183 686.475 548.805C685.072 553.248 686.332 556.946 688.357 561.054C691.298 567.024 693.599 573.354 695.821 579.669C697 582.987 693.859 587.644 689.872 589.569C682.456 593.164 674.649 593.196 666.591 591.931C659.286 590.795 658.453 591.985 659.909 599.589C663.348 617.467 666.639 635.352 669.896 653.246C670.32 655.584 670.47 658.007 670.415 660.372C670.415 661.222 669.41 661.979 668.873 662.793C668.495 661.939 667.9 661.111 667.809 660.209C667.257 656.129 666.992 652.001 666.361 647.906C665.799 644.396 663.786 642.389 660.3 642.904C654.186 643.788 649.956 641.537 646.957 635.383C644.085 629.513 638.448 625.149 638.214 617.732C638.157 616.333 636.567 614.721 635.377 613.551C633.136 611.413 630.735 609.486 628.265 607.58C627.418 606.911 626.275 606.618 625.269 606.161C625.053 607.159 624.527 608.253 624.677 609.219C625.25 612.522 625.835 615.863 626.888 619.018C627.347 620.495 628.811 622.429 630.068 622.727C636.778 624.371 638.016 630.545 639.677 635.778C642.15 643.634 632.238 658.69 624.602 657.333C617.755 656.097 611.606 655.656 605.046 657.406C602.304 658.135 598.826 653.587 599.579 650.56C599.875 649.335 601.886 647.942 603.2 647.939C605.864 647.923 608.665 649.443 611.179 649.068C613.51 648.709 616.161 647.199 617.589 645.259C619.839 642.213 618.351 639.719 614.648 638.925C612.75 638.501 610.75 638.109 609.08 637.089C605.787 635.074 605.157 632.071 607.544 629.105C610.148 625.868 611.918 622.607 609.035 618.522C606.232 614.574 602.848 612.992 598.426 615.456C597.272 616.098 595.535 615.827 594.06 615.677C589.488 615.232 587.351 616.462 588.017 621.154C589.107 628.669 590.746 636.257 593.3 643.399C595.28 648.938 596.884 654.23 596.784 660.09C596.751 661.8 597.255 663.547 597.496 665.293C598.77 673.885 597.422 674.991 589.077 673.531C586.334 673.046 583.362 673.886 580.608 674.457C578.277 674.937 576.026 675.797 573.843 676.757C569.432 678.651 565.283 678.359 561.772 674.55C558.41 670.856 557.504 666.724 558.221 661.402C559.109 654.811 559.173 647.748 557.98 641.114C557.51 638.386 553.005 636.099 550.101 634.004C547.643 632.257 544.67 631.276 542.212 629.528C540.085 628.002 538.713 628.063 537.412 630.288C534.854 634.644 533.485 639.076 534.449 644.606C535.79 652.205 534.842 652.783 527.801 652.132C526.486 652.014 525.15 653.4 523.79 653.983C522.796 654.413 521.288 655.245 520.705 654.819C518.109 652.992 517.705 646.357 519.178 643.472C520.091 641.691 520.101 639.299 520.306 637.171C520.544 634.669 520.52 632.166 520.61 629.669C522.473 630.103 524.428 630.226 526.2 630.972C529.104 632.217 531.343 631.077 530.736 628.27C529.303 621.347 527.116 614.536 524.906 607.773C524.539 606.591 522.584 605.376 521.235 605.146C519.726 604.885 517.463 605.223 516.664 606.28C515.876 607.375 516.117 609.729 516.621 611.354C517.056 612.757 518.726 613.778 519.344 615.165C519.95 616.515 519.929 618.141 520.181 619.682C518.832 619.574 517.278 619.894 516.157 619.31C512.602 617.417 510.545 619.148 510.387 622.395C510.195 626.017 510.666 629.959 511.914 633.378C513.402 637.45 514.627 641.037 512.938 645.285C512.311 646.897 513.032 649.223 513.376 651.181C513.835 653.508 514.796 655.76 515.072 658.104C515.221 659.312 514.49 660.591 514.171 661.864C513.302 660.879 512.17 660.016 511.598 658.898C510.9 657.495 510.761 655.838 510.189 654.355C507.774 648.263 505.439 642.186 502.692 636.237C502.04 634.861 499.982 634.163 498.575 633.142C497.65 634.643 495.983 636.172 496.041 637.693C496.122 640.015 496.764 643.176 498.296 644.482C503.282 648.684 503.583 654.866 505.678 660.288C506.01 661.116 504.776 662.592 504.24 663.77C503.051 663.086 501.176 662.737 500.741 661.698C499.288 658.343 498.554 654.644 497.135 651.279C496.551 649.881 494.801 648.966 493.589 647.844C493.122 649.487 492.014 651.248 492.301 652.778C492.966 656.377 494.442 659.805 495.324 663.377C495.622 664.58 495.143 665.943 495.018 667.237C493.966 666.753 492.846 666.413 491.885 665.739C481.88 658.438 478.342 647.391 475.866 635.772C475.694 634.975 475.899 634.061 475.545 633.402C474.824 632.168 473.863 631.13 472.994 630.023C472.457 631.323 471.407 632.661 471.499 633.928C472.121 641.872 475.291 648.944 478.816 656.069C482.363 663.146 484.951 670.764 487.618 678.275C488.099 679.584 486.786 681.529 486.318 683.172C485.026 682.277 483.128 681.732 482.545 680.456C480.119 675.42 477.499 671.577 471.612 669.921C465.759 668.254 464.52 661.352 462.551 656.093C460.822 651.488 458.785 646.614 461.022 641.346C461.65 639.856 460.414 637.082 459.498 635.22C453.307 622.891 446.945 610.614 440.652 598.317C440.159 597.336 439.987 595.932 439.232 595.316C430.827 588.328 429.678 577.229 424.781 568.222C423.11 565.138 421.474 562.042 419.552 559.116C418.705 557.841 417.424 556.618 416.098 556.099C414.818 555.605 413.069 555.662 411.949 556.292C411.378 556.631 411.711 558.674 411.586 559.967C411.427 561.393 411.233 562.829 411.074 564.255C410.216 563.307 409.473 562.242 408.512 561.447C407.437 560.525 405.962 558.918 405.139 559.173C402.499 559.992 399.894 561.285 397.563 562.858C396.752 563.393 396.81 565.278 396.457 566.561C397.508 566.923 398.56 567.285 399.635 567.6C401.281 568.061 402.916 568.485 404.55 568.909C403.294 570.311 402.289 572.282 400.724 573.051C398.21 574.276 392.911 581.06 392.112 583.817C390.527 589.126 388.61 594.336 386.327 599.335C385.927 600.228 383.036 600.598 381.767 600.02C380.074 599.168 378.85 597.16 377.409 595.663C378.609 594.563 379.705 593.373 380.973 592.372C382.002 591.568 383.602 591.274 384.172 590.206C384.8 589.08 384.502 587.392 384.57 585.913C383.336 586.296 382.044 586.494 380.902 587.051C380.022 587.486 379.405 588.77 378.514 588.925C377.52 589.112 376.194 588.713 375.382 588.034C375.016 587.702 375.277 585.638 375.814 585.188C378.408 583.25 381.161 581.586 383.903 579.886C385.354 578.991 387.32 578.543 388.154 577.232C388.782 576.228 387.992 574.165 387.797 572.566C386.597 573.06 384.837 573.201 384.311 574.173C382.576 577.181 380.519 577.697 377.535 576.072C374.962 574.684 373.763 576.027 372.976 578.579C372.348 580.555 371.47 582.689 370.087 584.049C367.312 586.853 367.416 589.371 369.361 592.856C374.75 602.479 383.715 608.241 391.034 615.727C392.898 617.618 394.694 619.045 393.975 622.061C393.36 624.681 394.778 625.739 397.041 626.373C398.161 626.714 399.145 627.825 400.163 628.562C399.386 629.451 398.792 630.566 397.855 631.18C392.348 634.629 392.303 634.602 394.867 641.296C397.763 648.818 394.588 653.365 386.93 651.935C381.866 650.995 378.369 652.201 374.393 655.62C371.069 658.472 365.994 659.074 361.652 660.583C358.327 661.735 355.036 663.12 351.573 663.83C348.533 664.448 345.287 664.645 342.155 664.362C337.012 663.892 331.799 663.201 326.712 661.945C321.957 660.788 317.258 659.088 312.765 656.959C308.066 654.773 303.687 651.8 299.125 649.207C292.733 645.562 289.255 639.313 285.731 633.039C282.63 627.523 279.027 622.326 276.017 616.741C273.042 611.147 270.479 605.303 267.858 599.517C266.931 597.497 266.586 595.175 265.602 593.213C264.092 590.16 264.993 588.22 267.21 586.278C273.047 581.108 272.967 580.728 270.413 572.493C269.921 570.905 270.354 568.787 270.993 567.213C271.678 565.543 272.888 563.993 274.214 562.813C278.098 559.342 282.039 556.055 277.806 549.798C277.738 549.698 277.703 549.466 277.772 549.323C280.02 544.213 280.749 538.806 280.494 533.015C280.447 531.896 283.132 530.375 284.801 529.696C287.417 528.682 289.829 527.854 289.941 524.216C289.952 523.403 290.648 522.134 291.277 521.98C295.539 520.82 296.897 517.444 297.661 513.362C297.843 512.374 298.551 511.264 299.294 510.629C306.799 504.294 314.225 497.822 322.039 491.877C325.169 489.489 328.22 487.936 327.188 482.791C326.374 478.712 328.168 477.103 331.998 478.182C335.701 479.22 337.827 477.832 339.733 474.65C342.017 470.865 344.575 467.238 347.534 464.054C348.904 462.536 351.407 462.124 353.464 461.365C355.121 460.77 357.213 460.85 358.469 459.813C363.267 455.896 367.688 451.489 372.441 447.546C373.96 446.266 375.971 445.237 377.914 444.958C383.011 444.309 388.211 444.113 393.355 443.854C396.395 443.721 397.068 441.772 396.712 439.048C396.322 435.971 397.602 435.736 399.797 436.999C401.123 437.761 402.461 438.561 403.867 439.218C407.526 440.957 410.578 441.104 413.204 437.092C415.922 432.889 417.774 433.165 421.57 436.683C422.68 437.716 424.098 438.531 425.492 438.908C428.613 439.762 430.9 440.955 431.805 444.844C432.618 448.316 436.242 448.124 438.846 445.009C439.771 443.872 441.233 443.256 442.433 442.399C442.594 444.008 443.155 445.697 442.905 447.191C441.913 452.72 440.362 458.14 439.691 463.732C439.452 465.749 441.134 468.143 441.958 470.316C443.729 469.605 445.535 469.004 447.215 468.119C448.083 467.647 448.528 466.295 449.385 465.908C450.151 465.589 451.454 465.793 452.185 466.335C452.631 466.682 452.747 468.144 452.484 468.873C452.108 469.84 451.251 470.592 450.6 471.401C446.283 476.747 447.004 479.802 452.961 483.379C454.711 484.416 455.707 486.779 457.239 488.328C459.481 490.588 461.654 492.99 464.215 494.706C467.44 496.863 467.84 497.913 464.732 499.889C461.785 501.774 461.786 504.203 462.828 507.199C464.763 512.712 472.161 518.028 477.602 517.758C480.15 517.615 481.887 516.429 481.782 513.425C481.666 510.871 481.253 508.327 481.263 505.814C481.251 504.684 481.891 503.595 482.221 502.481C483.25 503.012 484.931 503.341 485.217 504.143C486.247 506.859 487.792 510.023 487.348 512.59C486.323 518.859 488.269 523.437 492.649 527.503C497.566 532.091 498.896 538.439 500.249 544.739C500.638 546.602 500.662 548.861 501.726 550.232C504.998 554.48 505.8 559.007 505.403 564.15C505.29 565.602 506.274 567.685 507.361 568.765C510.243 571.636 511.033 574.792 510.613 578.768C510.135 583.166 511.645 584.155 515.655 582.426C520.42 580.341 525.188 582.749 527.443 587.838C528.69 590.65 530.658 593.116 532.259 595.736C533.564 597.882 535.096 599.917 536.001 602.227C536.39 603.24 535.808 605.728 535.157 605.93C529.98 607.535 532.223 611.738 533.288 614.444C534.73 618.125 537.178 621.536 539.751 624.502C540.392 625.235 543.374 624.189 544.997 623.362C552.23 619.783 553.042 619.976 556.475 627.777C557.62 630.377 558.341 633.19 559.554 635.768C560.241 637.256 561.362 638.568 562.54 639.7C563.398 640.527 564.758 640.794 565.753 641.457C571.527 645.293 576.155 643.494 578.197 636.626C579.087 633.679 580.251 630.767 580.809 627.72C581.071 626.263 580.441 624.474 579.915 622.897C578.655 619.078 576.984 615.386 575.896 611.513C574.109 605.145 572.562 598.702 571.05 592.249C570.546 590.139 570.67 587.874 570.337 585.71C569.5 580.586 568.445 575.488 567.768 570.395C567.458 568.062 567.719 565.634 567.935 563.3C568.151 560.966 568.447 558.648 569.074 556.429C569.462 555.135 570.604 554.092 571.415 552.95C572.341 553.878 573.828 554.672 574.091 555.764C575.042 559.558 576.142 563.467 576.132 567.316C576.114 574.041 579.73 581.34 585.424 584.918C586.865 585.807 588.226 587.409 588.981 588.996C591.579 594.587 593.754 600.389 596.352 605.979C597.576 608.595 598.973 612.129 602.686 610.168C606.034 608.361 607.47 601.722 605.091 599.019C602.598 596.189 599.625 593.873 596.869 591.286C592.123 586.767 591.366 582.994 594.049 577.224C595.921 573.202 598.915 572.8 601.855 576.22C602.564 577.052 603.307 577.996 603.628 579.03C606.01 586.954 608.289 594.91 610.603 602.856C610.798 603.483 610.718 604.196 611.027 604.708C612.297 606.743 613.647 608.672 614.974 610.649C615.83 608.683 616.732 606.744 617.462 604.736C619.733 598.729 620.141 592.652 617.817 586.248C617.278 584.755 617.311 582.438 618.088 581.185C618.727 580.096 621.081 579.083 622.099 579.577C624.797 580.885 627.29 582.865 629.657 584.924C630.48 585.64 630.618 587.298 631.065 588.495C630.048 588.851 628.917 589.688 627.991 589.489C625.19 588.819 622.687 589.352 622.644 592.483C622.622 594.595 624.156 598.329 625.516 598.717C629.883 599.953 631.199 602.986 632.253 606.869C632.597 608.099 633.763 609.073 634.553 610.164C635.478 609.27 636.552 608.492 637.363 607.471C638.014 606.662 638.39 605.574 638.801 604.596C640.045 601.579 641.816 600.504 644.789 602.699C645.91 603.525 647.19 604.262 648.459 604.597C649.762 604.921 651.168 604.728 652.528 604.752C652.402 603.253 652.721 601.494 652.08 600.276C650.466 597.012 648.955 593.351 644.179 595.399C643.311 595.749 640.898 593.785 639.994 592.325C638.312 589.689 636.973 586.704 636.011 583.723C635.553 582.246 635.7 579.812 636.557 578.818C640.886 573.872 640.275 566.087 634.318 562.753C629.082 559.802 626.873 555.589 626.196 549.767C625.736 545.862 625.516 541.517 623.674 538.243C621.031 533.598 618.171 529.708 619.174 523.729C619.652 520.909 616.348 519.343 613.445 520.284C610.394 521.23 608.988 519.844 606.757 517.379C603.852 514.191 599.679 511.882 595.678 510.37C591.082 508.638 588.246 505.672 586.231 501.236C585.648 499.96 584.344 499.028 583.326 497.927C582.424 499.016 581.522 500.106 580.619 501.195C579.9 502.026 579.18 502.856 578.461 503.686C577.911 502.764 577.191 501.894 576.882 500.897C575.61 496.798 577.278 494.054 581.255 493.671C581.689 493.617 582.295 493.875 582.569 493.668C586.579 490.239 590.6 487.089 596.203 490.857C596.717 489.727 597.882 488.515 597.687 487.523C596.862 483.286 595.122 479.737 590.527 478.49C585.485 477.138 585.165 475.862 587.962 471.31C591.513 465.554 591.09 465.159 587.178 459.45C584.352 455.306 582.361 450.459 580.62 445.696C579.373 442.277 580.468 439.266 584.503 438.946C588.971 438.572 588.867 435.447 587.15 432.579C585.171 429.226 582.083 426.54 579.91 423.287C578.651 421.41 577.953 418.915 577.654 416.619C577.333 414.128 577.777 411.561 577.936 409.043C578.003 407.807 577.659 406.092 578.265 405.378C581.406 401.814 581.062 399.734 576.523 397.458C573.893 396.128 575.251 391.781 578.359 390.533C588.655 386.41 598.79 381.89 609.2 378.014C621.473 373.48 634.033 370.84 647.328 375.421C649.603 376.213 652.266 375.59 654.78 375.579C656.689 375.554 658.78 374.906 660.415 375.573C663.216 376.728 665.56 377.256 667.753 374.755C668.141 374.31 669.227 374.055 669.787 374.286C675.297 376.666 680.625 379.547 686.261 381.483C690 382.753 694.218 383.509 698.024 383.058C702.161 382.585 705.716 382.778 709.032 385.716C712.874 389.14 717.125 387.7 721.125 387.026C724.383 386.502 727.103 386.063 728.202 390.459C728.328 390.865 728.694 391.318 729.037 391.576C733.897 395.372 738.894 399.004 743.686 402.943C746.556 405.291 749.061 408.158 751.851 410.612C758.312 416.3 764.933 421.776 771.326 427.606C773.053 429.176 774.049 431.66 775.433 433.7C776.199 434.839 776.909 436.522 777.904 436.82C781.505 437.89 781.815 440.587 782.251 443.811C782.986 449.332 784.052 454.83 785.415 460.196C786.424 464.175 796.164 468.319 798.037 465.269C800.709 460.919 804.684 456.772 805.824 452.208C807.079 447.285 804.229 441.125 803.574 435.499C803.126 431.509 803.375 427.465 803.293 423.442C803.245 420.016 803.631 416.536 802.978 413.217C802.107 408.832 800.252 404.671 799.095 400.334C794.525 382.806 788.263 366.127 776.79 352.034C767.56 340.688 758.283 329.437 748.642 318.461C746.491 316.01 743.05 314.487 739.998 313.369C730.063 309.689 722.824 302.219 716.521 293.891C710.161 285.5 702.877 279.46 693.171 276.155C682.996 272.671 673.255 267.555 663.126 263.855C646.938 257.945 630.67 252.019 613.559 251.01C601.306 250.276 588.927 249.014 576.823 249.853C569.497 250.343 562.596 254.629 555.363 256.872C548.986 258.849 542.541 260.605 536.015 261.859C534.244 262.206 532.002 260.432 530.024 259.507C527.784 258.461 525.576 256.433 523.359 256.311C515.449 255.89 510.549 261.174 505.043 266.323C500.382 270.682 493.892 273.626 487.652 275.075C481.618 276.461 475.218 276.421 469.836 280.033C467.163 281.834 464.957 281.87 463.012 278.628C460.758 274.874 457.558 275.704 455.891 278.204C450.318 286.531 443.279 288.552 433.551 286.873C428.236 285.971 422.157 288.665 416.935 290.973C414.158 292.198 411.988 295.745 410.447 298.773C408.027 303.572 404.371 305.839 399.697 307.612C393.538 309.927 386.314 309.536 381.322 315.01C380.649 315.746 379.106 315.86 377.94 315.857C371.208 315.961 364.498 316.017 357.789 315.952C352.063 315.906 347.012 317.554 342.534 321.29C339.666 323.677 336.398 325.5 333.291 327.597C331.554 328.784 329.68 329.769 328.172 331.209C311.129 347.504 294.063 363.848 277.145 380.307C275.158 382.259 273.742 384.965 272.246 387.413C266.936 395.981 261.684 404.613 256.511 413.261C255.598 414.799 254.536 416.707 254.628 418.46C255.231 431.672 246.606 439.002 239.604 447.448C237.034 450.552 234.911 454.125 232.558 457.445C232.215 457.309 231.872 457.172 231.483 457.01L231.952 457.31ZM700.201 507.631L699.046 507.543C699.171 505.643 699.296 503.742 699.397 501.889C700.46 502.045 701.866 501.852 702.518 502.5C706.143 506.071 707.662 503.819 709.032 500.48C709.979 498.202 710.091 494.929 713.818 495.555C714.012 495.575 714.823 493.826 714.605 493.125C713.998 491.167 712.911 489.359 712.133 487.455C708.436 478.198 701.426 473.287 692.34 474.404C687.197 475.028 682.181 476.543 677.244 478.074C675.564 478.595 674.056 480.277 673.04 481.847C672.606 482.508 673.362 485.066 674.059 485.376C677.683 487.005 681.376 488.491 685.16 489.423C691.824 491.04 694.615 494.709 694.151 502.058C694.004 504.249 693.525 506.584 694.018 508.657C694.419 510.436 695.826 512.185 697.176 513.507C697.713 514.029 700.17 513.469 700.238 513.084C700.523 511.336 700.248 509.478 700.178 507.678L700.201 507.631ZM657.092 571.357L656.292 572.657C658.992 576.516 661.657 580.385 664.483 584.164C665.078 584.992 666.324 585.739 667.227 585.742C671.982 585.806 676.748 585.907 681.434 585.385C682.52 585.25 684.05 582.792 684.06 581.372C684.012 577.339 680.25 574.66 676.341 574.415C671.346 574.061 666.339 573.063 661.367 572.298C659.95 572.09 658.543 571.676 657.137 571.383L657.092 571.357ZM437.129 499.34C437.129 499.34 437.232 499.308 437.301 499.287C437.862 501.097 438.332 502.975 439.064 504.731C439.362 505.449 440.254 505.901 440.883 506.475C441.248 505.835 442.013 505.153 441.887 504.625C440.799 500.267 439.585 495.988 438.256 491.704C438.13 491.298 436.85 490.804 436.393 491.027C435.902 491.26 435.434 492.296 435.537 492.871C435.915 495.061 436.568 497.166 437.129 499.34ZM479.091 580.487C480.989 582.367 482.43 583.742 483.848 585.165C484.212 582.825 485.148 580.389 484.735 578.21C484.437 576.764 482.151 575.692 480.756 574.465C480.242 576.324 479.729 578.184 479.091 580.487ZM465.531 611.773C467.212 613.317 468.424 614.438 469.625 615.523C470.081 613.358 470.959 611.223 470.787 609.091C470.706 607.983 468.774 606.962 467.687 605.883C467.014 607.711 466.375 609.528 465.531 611.773ZM437.362 526.147C438.838 527.39 440.073 528.464 441.353 529.565C441.398 528.134 441.946 526.507 441.442 525.368C440.79 523.87 439.292 522.796 438.148 521.532C437.932 522.894 437.681 524.267 437.374 526.184L437.362 526.147ZM648.242 585.233C648.721 583.385 649.543 581.915 649.154 581.388C648.49 580.46 647.073 580.131 645.987 579.537C645.633 580.699 644.857 581.952 645.04 583.028C645.144 583.725 646.687 584.218 648.208 585.244L648.242 585.233ZM551.027 250.646C548.901 251.063 546.901 251.399 544.913 251.773C545.119 252.438 545.325 253.103 545.543 253.804C547.36 253.241 549.211 252.667 551.028 252.103C551.062 252.093 551.05 251.813 551.027 250.646ZM488.055 605.153C486.249 604.782 484.682 604.337 483.128 604.171C482.899 604.161 482.283 605.688 482.386 605.777C483.667 606.878 485.062 607.862 486.422 608.857C486.685 608.25 486.947 607.642 488.02 605.164L488.055 605.153Z" fill="white"/>
<path d="M624.657 557.409C624.532 558.46 624.762 560.656 623.929 562.21C623.62 562.791 620.785 562.132 619.276 561.507C615.744 560.052 614.99 560.65 614.889 564.932C614.856 566.278 614.171 567.583 613.794 568.914C612.902 567.734 611.736 566.638 611.209 565.304C609.664 561.411 608.37 557.481 610.734 553.469C611.202 552.676 610.812 551.299 611.052 550.253C611.496 548.537 612.215 545.399 612.683 545.456C615.301 545.778 618.547 546.067 620.251 547.805C622.287 549.886 622.94 553.448 624.646 557.372L624.657 557.409Z" fill="white"/>
<path d="M596.556 527.262C596.43 526.248 596.327 525.309 596.189 524.38C595.821 521.498 595.168 518.179 598.745 517.475C602.539 516.743 603.741 520.135 604.909 523.174C605.172 523.902 605.173 524.752 605.368 525.501C606.135 528.582 606.823 531.891 602.926 532.654C599.246 533.39 597.701 530.348 596.556 527.262Z" fill="white"/>
<path d="M563.702 690.832C562.525 691.52 561.36 692.853 560.24 692.755C558.205 692.617 555.93 692.068 554.249 690.889C552.431 689.631 549.984 687.435 549.914 685.634C549.868 683.665 552.027 681.539 553.569 679.846C554.014 679.344 556.174 679.645 556.689 680.336C558.965 683.314 560.922 686.593 563.702 690.832Z" fill="white"/>
<path d="M548.061 663.661C550.771 664.886 552.795 665.837 554.807 666.751C553.813 667.909 552.9 669.933 551.826 669.983C549.86 670.066 547.79 668.967 545.755 668.344C546.395 667.012 547.045 665.717 548.061 663.661Z" fill="white"/>
<path d="M548.302 473.812L553.261 489.803C550.037 487.645 546.945 478.646 548.302 473.812Z" fill="white"/>
<path d="M542.201 611.922C540.854 613.878 540.02 615.068 539.198 616.294C537.883 615.205 536.031 614.321 535.481 612.913C535.035 611.837 536.222 610.093 536.713 608.645C538.279 609.576 539.846 610.507 542.201 611.922Z" fill="white"/>
<path d="M669.572 550.89C671.034 549.181 671.868 547.87 672.987 546.997C673.901 546.309 675.181 546.195 676.301 545.807C676.291 547.227 676.783 548.937 676.224 550.041C674.842 552.737 672.556 552.393 669.572 550.89Z" fill="white"/>
<path d="M563.703 558.378C563.087 559.783 562.676 560.761 562.253 561.702C560.915 560.295 559.314 559.01 558.387 557.354C557.907 556.532 558.66 554.962 558.877 553.721C560.375 555.159 561.873 556.597 563.703 558.378Z" fill="white"/>
<path d="M589.433 541.736C588.268 543.433 587.8 544.833 586.84 545.374C586.36 545.644 584.291 544.302 584.313 543.769C584.324 542.592 584.963 541.139 585.797 540.435C586.243 540.054 587.718 541.054 589.433 541.736Z" fill="white"/>
<path d="M463.87 472.386C463.138 470.63 462.302 468.905 461.695 467.069C461.615 466.811 462.598 466.223 463.1 465.784C463.982 467.656 464.909 469.554 465.79 471.427C465.138 471.75 464.487 472.073 463.859 472.349L463.87 472.386Z" fill="white"/>
<path d="M489.528 699.705C487.756 697.623 486.658 696.749 486.2 695.636C485.925 694.993 486.633 693.883 486.884 692.995C487.73 693.785 488.828 694.416 489.354 695.387C489.766 696.109 489.481 697.25 489.528 699.705Z" fill="white"/>
<path d="M619.73 249.218C628.086 251.08 636.477 252.931 644.822 254.755" stroke="white" stroke-width="2" stroke-linecap="round" stroke-linejoin="round"/>
<path d="M590.011 495.733C588.16 495.821 586.308 496.031 584.468 495.913C580.25 495.642 578.045 497.136 579.317 502.085C579.523 502.871 579.238 503.769 579.204 504.63" stroke="white" stroke-width="2" stroke-linecap="round" stroke-linejoin="round"/>
<path d="M678.622 565.895C675.26 563.294 672.049 564.937 668.815 565.9" stroke="white" stroke-width="2" stroke-linecap="round" stroke-linejoin="round"/>
<path d="M510.092 645.318C511.57 651.053 513.025 656.836 514.503 662.571" stroke="white" stroke-width="2" stroke-linecap="round" stroke-linejoin="round"/>
<path d="M551.641 667.692C549.515 667.866 547.378 668.002 545.252 668.176" stroke="white" stroke-width="2" stroke-linecap="round" stroke-linejoin="round"/>
<path d="M656.571 523.385C654.903 523.579 653.257 523.726 651.589 523.919" stroke="white" stroke-width="2" stroke-linecap="round" stroke-linejoin="round"/>
<path d="M547.468 473.18L552.312 488.802" stroke="white" stroke-width="2" stroke-linecap="round" stroke-linejoin="round"/>
<path d="M275.647 571.071C273.841 571.308 272.024 571.507 270.253 571.733" stroke="white" stroke-width="2" stroke-linecap="round" stroke-linejoin="round"/>
<path d="M662.05 260.505C668.795 263.109 675.506 265.724 682.251 268.328" stroke="white" stroke-width="2" stroke-linecap="round" stroke-linejoin="round"/>
<path d="M486.335 692.437C487.411 694.451 488.52 696.455 489.596 698.469" stroke="white" stroke-width="2" stroke-linecap="round" stroke-linejoin="round"/>
<path d="M535.558 626.37C538.37 626.834 541.148 627.308 543.96 627.772" stroke="white" stroke-width="2" stroke-linecap="round" stroke-linejoin="round"/>
<path d="M388.009 583.552C384.316 581.823 381.322 582.589 378.866 585.82C378.227 586.666 377.118 587.091 376.216 587.694" stroke="white" stroke-width="2" stroke-linecap="round" stroke-linejoin="round"/>
<path d="M457.124 486.623C455.501 487.449 453.89 488.313 452.302 489.129" stroke="white" stroke-width="2" stroke-linecap="round" stroke-linejoin="round"/>
<path d="M270.07 590.896C268.401 591.09 266.755 591.236 265.087 591.43" stroke="white" stroke-width="2" stroke-linecap="round" stroke-linejoin="round"/>
<path d="M622.042 599.025C621.811 595.737 621.546 592.459 621.316 589.171" stroke="white" stroke-width="2" stroke-linecap="round" stroke-linejoin="round"/>
<path d="M404.801 568.265L393.694 571.709" stroke="white" stroke-width="2" stroke-linecap="round" stroke-linejoin="round"/>
<path d="M618.035 531.814C619.212 531.611 620.39 531.408 621.601 531.194" stroke="white" stroke-width="2" stroke-linecap="round" stroke-linejoin="round"/>
<path d="M691.576 515.568C690.97 515.675 690.399 515.771 689.793 515.878" stroke="white" stroke-width="2" stroke-linecap="round" stroke-linejoin="round"/>
<path d="M555.347 249.793C549.104 247.113 543.025 248.23 539.827 252.581" stroke="white" stroke-width="2" stroke-linecap="round" stroke-linejoin="round"/>
<path d="M558.728 553.241C559.953 556.221 561.212 559.191 562.437 562.171" stroke="white" stroke-width="2" stroke-linecap="round" stroke-linejoin="round"/>
<path d="M665.991 641.26C668.213 648.06 670.468 654.85 668.69 662.081" stroke="white" stroke-width="2" stroke-linecap="round" stroke-linejoin="round"/>
<path d="M462.232 465.405C463.125 467.8 464.029 470.232 464.922 472.627" stroke="white" stroke-width="2" stroke-linecap="round" stroke-linejoin="round"/>
<path d="M676.717 571.748C669.003 574.261 662.019 572.46 655.58 566.968" stroke="white" stroke-width="2" stroke-linecap="round" stroke-linejoin="round"/>
<path d="M807.267 438.442C807.475 441.9 807.683 445.357 807.925 448.804" stroke="white" stroke-width="2" stroke-linecap="round" stroke-linejoin="round"/>
<path d="M578.932 392.987C579.195 393.593 579.447 394.163 579.711 394.769" stroke="white" stroke-width="2" stroke-linecap="round" stroke-linejoin="round"/>
<path d="M683.254 551.383C683.45 553.832 683.68 556.271 683.875 558.72" stroke="white" stroke-width="2" stroke-linecap="round" stroke-linejoin="round"/>
<path d="M530.785 614.734C531.38 616.411 531.965 618.052 532.56 619.729" stroke="white" stroke-width="2" stroke-linecap="round" stroke-linejoin="round"/>
<path d="M743.723 312.659C752.184 317.281 757.527 325.542 763.943 332.539C774.82 344.347 782.954 358.219 791.523 371.795C792.21 372.918 793.102 373.977 793.48 375.196C797.774 388.801 802 402.428 806.157 416.077C806.73 417.923 806.776 419.892 807.041 421.835" stroke="white" stroke-width="2" stroke-linecap="round" stroke-linejoin="round"/>
<path d="M557.108 634.786L561.593 642.463" stroke="white" stroke-width="2" stroke-linecap="round" stroke-linejoin="round"/>
<path d="M623.038 602.238C627.21 601.997 630.126 604.129 631.351 608.202C632.611 612.264 635.182 612.438 638.268 612.088" stroke="white" stroke-width="2" stroke-linecap="round" stroke-linejoin="round"/>
<path d="M238.46 445.212L232.501 457.625" stroke="white" stroke-width="2" stroke-linecap="round" stroke-linejoin="round"/>
<path d="M598.699 612.822L608.071 611.413" stroke="white" stroke-width="2" stroke-linecap="round" stroke-linejoin="round"/>
<path d="M348.325 315.244C345.606 317.018 342.887 318.792 340.156 320.53" stroke="white" stroke-width="2" stroke-linecap="round" stroke-linejoin="round"/>
<path d="M605.741 595.539C608.314 598.627 609.757 602.066 608.81 606.164" stroke="white" stroke-width="2" stroke-linecap="round" stroke-linejoin="round"/>
<path d="M806.622 449.208C809.366 450.664 809.527 451.91 807.633 456.95" stroke="white" stroke-width="2" stroke-linecap="round" stroke-linejoin="round"/>
<path d="M408.635 556.51L410.914 563.859" stroke="white" stroke-width="2" stroke-linecap="round" stroke-linejoin="round"/>
</svg>
