<svg width="547" height="446" viewBox="0 0 547 446" fill="none" xmlns="http://www.w3.org/2000/svg">
<path d="M220.635 43.084L146.362 63.0303L124.08 82.5777L91.7491 113.694L73.8362 165.156L63.3506 228.984L84.3218 298.796L124.08 361.427L215.829 407.703L309.326 416.08L382.288 388.156L434.716 345.869L481.465 280.445V189.49L452.629 113.694L382.288 63.0303L309.326 39.4937L220.635 43.084Z" fill="#FAAB28" stroke="white"/>
<path d="M165.07 269.706C157.057 272.507 150.25 279.065 140.149 275.97C140.831 272.882 138.524 272.116 135.256 272.355C141.792 263.93 142.526 266.523 145.112 271.478C149.551 266.1 153.754 261.01 158.604 255.146C153.597 256.486 149.639 257.547 145.68 258.608C145.497 258.177 145.313 257.754 145.13 257.324C146.388 256.669 147.707 256.095 148.852 255.305C149.245 255.034 149.193 254.22 149.341 253.662C152.033 253.294 155.31 255.808 157.337 251.946C158.254 250.191 160.046 248.731 161.68 247.382C165.192 244.47 168.871 241.718 172.471 238.901C172.183 238.582 171.894 238.263 171.606 237.944C168.539 240.218 165.524 242.539 162.396 244.734C161.068 245.659 159.224 247.231 158.114 246.936C152.286 245.404 149.796 247.327 149.778 252.616C149.778 252.991 149.56 253.374 149.438 253.749C146.519 255.209 143.557 256.606 140.682 258.137C138.489 259.302 135.929 260.164 134.714 257.731C134.155 256.606 135.684 254.268 136.82 252.848C138.41 250.845 140.516 249.178 142.403 247.374C141.984 246.991 141.565 246.608 141.136 246.226C138.602 248.643 135.859 250.901 133.613 253.51C131.63 255.824 131.044 260.387 126.273 256.151C125.976 255.888 124.744 256.51 123.573 256.813C123.94 255.281 124.263 253.925 124.692 252.13C123.494 252.64 122.568 253.031 121.537 253.47C121.52 253.215 121.441 253.015 121.502 252.864C122.568 249.983 123.94 247.095 119.781 245.085C119.484 244.941 119.693 242.891 120.314 242.38C121.852 241.119 123.757 240.242 125.793 239.045C124.927 238.59 124.639 238.319 124.473 238.375C120.29 239.614 117.832 238.247 117.098 234.274C116.6 231.561 115.919 228.856 115.656 226.128C115.534 224.835 116.216 223.479 116.941 222.258V232.016C118.741 230.284 119.554 229.511 120.357 228.737C120.724 228.761 121.091 228.792 121.458 228.816C121.231 230.931 121.004 233.037 120.698 235.869C121.24 236.013 122.481 236.571 123.687 236.532C124.054 236.516 124.193 234.76 124.718 233.947C125.373 232.925 126.308 232.064 127.697 230.476C126.299 229.622 124.674 228.633 122.795 227.492C124.054 225.96 125.53 224.165 127.479 221.795C125.592 220.638 123.792 219.545 121.45 218.109C123.285 217.152 124.071 216.745 125.093 216.21C124.097 215.165 123.171 214.2 121.948 212.915C123.678 211.639 125.268 210.458 127.627 208.71C125.373 208.591 124.054 208.519 122.594 208.439C122.254 207.498 121.895 206.516 121.528 205.487C123.407 204.147 127.697 203.844 124.342 200.197C128.423 197.772 132.171 198.801 132.049 202.695C131.883 207.857 137.563 208.351 138.777 212.165C139.354 211.886 139.939 211.607 140.516 211.335C139.197 208.296 137.877 205.256 136.322 201.673C143.19 203.205 147.961 206.644 151.832 211.463C152.164 211.08 152.496 210.689 152.819 210.306C151.176 208.631 149.534 206.955 147.882 205.28C148.04 204.984 148.206 204.681 148.363 204.386C151.893 205.782 155.563 206.955 158.927 208.639C162.405 210.378 165.428 212.899 168.958 214.535C172.305 216.083 174.856 219.809 179.968 217.575C176.508 215.931 173.039 214.279 169.579 212.636C169.684 212.261 169.788 211.886 169.885 211.511C177.452 212.851 185.019 214.2 192.586 215.54C192.691 215.157 192.787 214.774 192.892 214.399C190.122 213.625 187.387 212.676 184.573 212.101C179.47 211.064 174.28 210.402 169.203 209.301C165.28 208.447 160.972 207.849 157.747 205.886C154.488 203.899 152.242 200.445 149.813 197.453C149.254 196.767 149.735 195.378 149.735 193.831C146.405 196.519 144.291 199.28 139.747 199.017C136.497 198.825 135.317 197.277 134.548 195.107C133.709 192.737 134.74 191.533 137.667 192.019C139.747 192.362 141.862 192.514 144.457 192.809C142.937 190.735 141.801 189.179 140.149 186.929C138.183 187.296 134.941 187.902 131.481 188.549C131.481 184.663 137.641 182.828 133.77 178.48C135.999 179.653 138.227 180.841 140.472 182.006C141.093 182.325 141.766 182.876 142.377 182.844C149.175 182.477 153.44 186.395 157.809 190.224C158.726 191.03 159.993 191.501 161.085 192.131C160.701 193.487 160.316 194.836 159.941 196.184H164.406C164.519 195.753 164.624 195.315 164.738 194.884C163.48 193.99 162.23 193.096 160.972 192.203C160.43 190.304 159.897 188.405 159.242 186.091C160.946 186.243 162.282 186.355 163.619 186.474C163.943 186.155 164.266 185.828 164.589 185.509C163.235 185.198 161.889 184.895 160.535 184.583C160.989 184.073 161.444 183.562 161.907 183.044C164.065 183.897 166.223 184.743 168.548 185.66C167.971 186.45 167.551 187.017 167.123 187.607C176.351 191.964 179.584 193.232 186.522 191.732C186.548 191.341 186.583 190.958 186.609 190.567C183.83 190.392 181.06 190.216 177.906 190.017C177.766 189.482 177.504 188.493 177.233 187.456C175.293 187.639 172.821 188.341 174.018 185.046L173.913 185.142C176.307 185.517 178.701 185.892 181.76 186.371C178.893 182.501 172.305 181.639 173.074 175.807C165.192 175.336 159.189 171.73 153.326 167.414C150.862 165.602 147.043 165.331 143.854 164.334C142.517 163.919 141.206 163.432 139.441 162.826C140.394 161.837 141.005 161.19 141.783 160.384C141.067 159.938 140.376 159.499 139.249 158.789C141.407 157.624 143.146 156.69 144.798 155.797C147.227 157.201 150.014 158.701 152.636 160.408C153.326 160.855 153.702 161.916 153.903 162.754C154.34 164.549 154.558 166.384 154.873 168.195C155.275 168.084 155.668 167.972 156.07 167.86C156.917 165.858 157.966 163.903 158.569 161.837C159.163 159.794 153.807 154.433 151.246 154.257C146.379 153.93 144.806 151.217 147.681 147.659C148.389 146.781 150.941 146.015 151.631 146.478C153.632 147.802 155.213 149.709 156.76 151.528C157.817 152.773 158.525 154.265 159.827 155.43C160.78 152.254 160.133 149.765 157.293 147.739C153.553 145.074 153.824 142.281 157.625 139.664C158.7 138.922 159.355 137.694 160.946 135.811C158.516 136.13 157.241 136.289 155.965 136.457C156.026 136.225 156.009 135.914 156.166 135.779C164.388 129.196 165.428 129.428 168.521 138.635C169.142 140.494 169.456 142.441 170.881 144.388C171.055 142.84 171.221 141.284 171.466 139.074C173.511 140.47 175.232 141.747 177.058 142.872C178.055 143.478 179.225 143.845 180.318 144.316C180.519 143.255 180.685 142.185 180.929 141.124C181.174 140.063 181.506 139.026 181.794 137.973C181.943 140.374 182.039 142.784 182.258 145.177C182.327 145.935 182.555 146.789 183.035 147.379C186.399 151.52 190.069 155.462 193.189 159.746C195.557 162.993 197.523 166.552 199.148 170.166C200.503 173.19 201.097 176.501 202.032 179.685C203.369 178.017 204.714 176.126 204.173 174.977C201.796 169.951 198.737 165.204 196.186 160.241C194.936 157.807 194.237 155.135 193.294 152.574C193.704 152.318 194.106 152.071 194.517 151.816C197.156 153.683 199.804 155.542 202.442 157.408C202.888 157.145 203.334 156.89 203.788 156.627L201.053 147.683C200.73 147.754 200.406 147.834 200.083 147.906C199.882 148.784 199.681 149.661 199.445 150.683C193.154 146.478 189.676 139.632 181.698 138.053C180.257 135.348 178.806 132.643 176.971 129.204C179.322 129.029 181.165 128.885 183.629 128.702C183.359 127.489 183.044 126.117 182.782 124.976C180.536 125.247 178.771 125.454 177.006 125.67C176.884 125.343 176.753 125.024 176.63 124.697C178.046 123.54 179.584 122.478 180.825 121.186C181.462 120.524 182.135 119.207 181.821 118.585C180.309 115.497 182.161 113.965 184.827 113.128C186.233 112.681 188.68 112.529 189.44 113.279C191.415 115.21 192.568 117.723 189.099 120.811C198.554 121.577 201.542 125.837 198.816 133.138C198.301 133.337 197.794 133.529 197.278 133.728C196.553 131.622 195.836 129.508 195.006 127.098C193.198 128.837 195.172 133.736 189.833 131.917C190.017 132.515 190.026 132.89 190.165 132.93C195.225 134.566 200.153 136.289 203.098 140.893C203.648 141.747 205.3 142.018 206.444 142.56C207.432 146.015 207.912 149.685 209.538 152.877C212.229 158.158 215.654 163.121 218.809 168.291C220.993 165.507 219.805 163.169 217.882 160.751C216.747 159.315 214.877 157.217 215.331 156.084C216.589 152.964 214.536 151.337 212.919 149.47C210.866 147.1 208.559 144.914 206.357 142.648C205.204 140.502 203.875 138.42 202.949 136.202C202.215 134.438 200.302 132.779 203.325 130.593C204.452 129.779 203.089 126.085 202.809 123.189C203.037 123.085 204.024 122.638 205.064 122.167C206.873 129.196 208.638 136.05 210.324 142.608C211.783 139.441 213.094 136.577 214.413 133.704C214.999 133.736 215.584 133.76 216.17 133.792C217.157 138.603 217.612 143.574 219.272 148.185C221.011 153.028 223.894 157.528 227.381 162.14V151.337C228.333 152.478 228.639 153.212 229.172 153.395C229.976 153.667 231.217 153.89 231.75 153.515C232.248 153.164 232.484 151.728 232.108 151.257C231.016 149.877 229.618 148.664 228.228 147.507C225.065 144.882 222.304 142.209 223.134 137.749C223.37 136.489 222.444 135.045 221.981 133.425C230.456 136.975 255.185 175.209 257.064 187.504C255.736 186.004 254.635 184.759 253.306 183.251C255.002 192.027 256.601 200.285 258.261 208.902H250.126C257.483 205.774 250.86 202.264 251.646 199.216C251.524 200.868 251.393 202.527 251.227 204.745C249.768 203.907 248.876 203.389 247.373 202.519C248.09 204.123 248.57 205.208 248.57 205.2C246.412 203.556 243.144 201.474 240.462 198.897C237.919 196.455 233.34 194.533 236.224 189.753C236.547 189.219 235.009 187.942 234.922 186.961C234.747 184.839 234.948 182.692 234.992 180.562C235.446 180.53 235.9 180.506 236.363 180.474C235.76 179.748 235.009 179.086 234.598 178.288C233.926 176.972 231.217 175.472 234.764 174.275C233.917 172.432 233.209 170.509 232.134 168.786C231.785 168.227 230.456 168.172 230.046 168.036C230.561 174.522 231.094 181.216 231.627 187.91C231.147 188.006 230.657 188.11 230.177 188.206C225.048 177.794 212.605 171.618 211.652 158.797C211.224 158.908 210.787 159.02 210.359 159.132C209.87 159.778 209.38 160.432 208.882 161.095C207.659 160.496 206.444 159.898 205.212 159.315C205.142 159.283 204.976 159.435 204.513 159.674C206.34 162.435 207.93 165.363 210.062 167.916C214.361 173.078 219.455 177.738 223.248 183.179C225.86 186.929 229.487 190.831 227.87 196.16C227.442 197.564 228.167 199.256 227.625 201.394C225.458 199.312 223.291 197.229 220.915 194.955C219.901 196.91 218.8 199.009 217.559 201.402C218.328 201.897 219.272 204.282 221.116 201.418C221.29 201.147 222.47 201.027 222.715 201.251C226.245 204.617 232.571 205.415 233.908 212.293C230.317 210.051 227.521 208.304 224.724 206.564C224.471 206.82 224.226 207.075 223.973 207.322C227.634 210.929 231.287 214.535 235.219 218.404C234.03 220.399 230.203 220.606 224.882 219.458C218.363 218.045 211.617 217.487 204.959 216.641C204.181 216.545 203.325 216.944 201.936 217.24C212.465 220.654 222.426 223.886 232.938 227.3C223.842 231.76 211.277 232.391 208.419 228.665C204.277 230.548 200.092 232.455 194.849 234.84C200.948 237.066 205.212 233.268 210.342 233.308C209.887 234.154 209.52 234.84 209.013 235.79C210.149 236.013 211.215 236.228 212.666 236.516C209.625 237.673 206.864 238.726 204.103 239.779L204.478 241.047C206.733 240.776 208.987 240.505 211.242 240.242L211.661 241.047C208.376 242.332 205.09 243.617 201.778 244.901C202.606 247.178 201.298 249.042 197.855 250.494C198.143 251.93 198.432 253.406 198.764 255.082C197.619 256.175 196.072 257.699 194.482 259.183C189.003 264.297 181.419 265.198 174.507 267.409C171.396 268.406 168.146 269.02 164.965 269.81C165.341 264.847 170.968 264.552 173.782 261.616C170.461 262.366 167.385 263.419 164.484 264.776C163.235 265.358 162.352 266.587 161.304 267.52C162.562 268.254 163.829 268.988 165.087 269.722L165.07 269.706ZM247.95 184.559C245.678 181.001 243.415 177.451 241.143 173.892C241.213 171.515 245.949 170.461 243.406 167.366C241.868 165.491 240.208 163.688 238.6 161.861C238.408 161.988 238.216 162.116 238.024 162.243C238.548 163.488 239.072 164.725 239.815 166.48C237.561 165.275 235.927 164.406 234.301 163.536C234.205 163.712 234.109 163.895 234.004 164.071C236.416 167.318 238.836 170.557 241.248 173.804C243.511 177.363 245.766 180.921 248.029 184.48C247.653 185.597 246.936 186.73 246.971 187.839C247.024 189.61 247.566 191.365 247.898 193.128L249.025 192.809C249.217 191.126 249.654 189.426 249.514 187.759C249.418 186.666 248.501 185.629 247.959 184.551L247.95 184.559ZM189.344 252.92C190.034 253.813 191.17 255.281 192.97 257.611C194.036 253.502 194.788 250.614 195.644 247.303C190.768 246.752 186.557 248.029 183.07 250.454C180.117 252.505 181.209 255.401 182.957 258.225C185.246 256.326 187.326 254.603 189.344 252.928V252.92ZM166.861 144.22C166.879 149.374 174.594 157.209 180.396 158.821C182.231 154.042 177.854 152.238 174.988 149.773C175.783 151.185 176.578 152.589 177.749 154.664C171.886 152.917 170.278 148.401 166.861 144.22ZM238.967 186.626C238.557 186.801 238.146 186.977 237.735 187.16C240.112 191.9 242.489 196.639 244.857 201.378C245.145 201.227 245.433 201.075 245.722 200.931C244.577 196.551 243.424 192.171 242.279 187.791C242.139 187.791 242.008 187.791 241.868 187.791C241.825 188.581 241.772 189.378 241.711 190.519C240.619 188.972 239.797 187.799 238.967 186.626ZM135.666 220.527C135.265 220.814 134.871 221.109 134.469 221.396C135.361 222.489 136.033 223.894 137.213 224.596C138.253 225.218 139.843 225.122 141.206 225.178C141.442 225.186 142.045 224.069 141.932 223.957C140.997 223.08 140.018 222.202 138.882 221.572C137.93 221.045 136.75 220.862 135.675 220.527H135.666ZM163.829 198.833C163.654 199.256 163.471 199.671 163.296 200.094C166.127 201.442 168.958 202.79 171.781 204.139C172.008 203.86 172.235 203.58 172.462 203.309C172.025 202.16 171.588 201.003 171.152 199.854C170.959 200.15 170.767 200.453 170.575 200.748C168.329 200.11 166.075 199.471 163.829 198.833ZM136.007 239.524C136.287 239.619 136.575 239.715 136.855 239.811C137.685 238.167 138.681 236.564 139.267 234.848C139.45 234.306 138.559 233.46 138.166 232.75C137.449 233.268 136.208 233.707 136.112 234.314C135.832 236.013 136.016 237.784 136.016 239.524H136.007ZM194.508 192.466C194.281 192.929 194.054 193.384 193.827 193.846C196.509 194.7 199.192 195.554 201.874 196.408C202.049 195.937 202.224 195.466 202.399 194.995C199.769 194.15 197.138 193.312 194.508 192.466Z" fill="white"/>
<path d="M347.616 320.657C346.873 319.899 346.122 319.141 344.863 317.865C344.348 320.402 343.972 322.261 343.579 324.184C348.56 327.056 353.427 329.865 358.364 332.713C356.459 334.269 354.694 335.713 353.899 336.359C354.903 339.231 355.594 341.218 356.38 343.468C350.325 343.468 349.888 342.909 350.936 337.827C346.655 339.479 346.026 340.715 347.196 344.92C347.406 345.678 347.695 346.564 347.45 347.242C346.961 348.582 346.104 350.896 345.431 350.888C343.605 350.864 341.796 349.835 339.988 349.205C340.092 348.822 340.197 348.439 340.293 348.056C341.097 347.92 341.91 347.784 342.758 347.641C341.683 345.83 337.139 342.487 335.138 341.96C335.68 345.901 332.796 347.976 329.983 350.202C329.441 350.633 329.266 352.133 329.659 352.731C330.288 353.68 331.547 354.295 332.211 355.396C328.899 355.524 326.286 356.369 326.487 351.215C326.68 346.221 326.138 341.362 327.92 336.431C328.637 334.46 327.667 331.987 327.422 329.242C322.048 325.014 323.097 317.219 318.221 311.769C318.964 314.235 319.672 316.716 320.449 319.165C321.577 322.732 323.447 326.226 323.779 329.849C324.399 336.598 324.259 343.42 324.137 350.21C324.119 351.383 322.616 352.532 321.795 353.688C320.851 352.667 319.532 351.774 319.051 350.601C318.37 348.933 318.754 346.843 317.889 345.303C316.675 343.125 318.195 340.356 315.434 338.465C313.005 336.806 313.337 332.274 307.613 333.048C308.417 335.17 309.527 337.205 309.92 339.343C310.689 343.58 312.585 348.367 311.178 352.013C309.64 356.002 304.887 358.946 301.532 362.353C301.13 362.194 300.728 362.042 300.334 361.882C300.605 359.808 301.086 357.734 301.068 355.667C301.051 354.215 300.352 352.771 299.959 351.327C298.788 351.678 297.643 352.212 296.437 352.34C294.803 352.516 293.134 352.38 292.261 352.38C291.815 346.149 291.439 340.763 291.02 334.859C289.866 335.553 289.438 335.721 289.456 335.817C290.924 344.417 286.153 353.034 289.665 361.755C290.321 363.374 288.599 366.414 286.983 367.882C286.258 368.544 283.024 367.053 281.023 366.326C279.687 365.848 278.507 365.002 277.266 364.316L276.619 365.114C277.799 366.486 278.979 367.858 280.158 369.223C277.93 371.026 269.743 372.701 268.371 371.321C267.68 370.627 268.493 368.616 268.738 367.22C268.982 365.848 270.083 364.172 269.55 363.199C267.934 360.255 265.714 357.59 263.163 354.032C263.478 356.026 263.705 357.319 263.879 358.611C264.15 360.702 264.762 362.84 264.535 364.89C264.29 367.132 264.063 370.044 259.851 368.816C259.161 368.616 258.112 369.446 257.16 369.829C256.872 369.43 256.4 369.095 256.435 368.8C256.749 365.537 257.186 362.281 257.492 359.018C257.562 358.308 257.457 357.454 257.073 356.856C254.233 352.396 254.853 352.005 257.938 347.385C259.519 345.016 258.846 341.298 258.838 338.186C258.838 337.197 257.684 336.207 256.758 334.747C254.573 337.947 252.756 340.293 253.315 344.346C254.206 350.752 253.551 357.343 253.551 363.845C252.974 363.933 252.398 364.013 251.821 364.1C251.139 363.191 250.615 362.122 249.741 361.404C248.378 360.271 246.744 359.401 245.285 358.364C244.132 357.542 242.401 356.776 242.113 355.715C241.729 354.295 241.903 352.141 242.865 351.135C244.909 349.013 246.657 347.274 245.058 344.194C244.603 343.316 245.215 341.864 245.608 340.755C247.225 336.128 248.999 331.548 250.571 326.912C251 325.652 250.895 324.232 250.178 322.684C245.53 331.404 245.32 341.601 239.492 350.497C234.843 345.415 238.959 340.66 238.128 335.322C234.86 339.383 235.656 343.476 234.852 347.202C234.188 350.29 233.366 353.369 232.353 356.377C231.846 357.869 230.745 359.186 229.915 360.582C229.364 360.183 228.814 359.792 228.263 359.393C227.564 358.444 226.874 357.494 226.061 356.401C224.148 357.383 222.365 358.3 219.988 359.521V354.159C215.978 358.172 214.92 358.077 209.311 353.76C211.373 350.393 213.409 347.082 215.445 343.771C214.99 343.404 214.536 343.037 214.081 342.662C211.303 346.364 208.105 349.436 202.827 349.907C203.203 347.018 202.346 343.843 207.327 344.018C208.035 344.042 209.686 341.729 209.468 340.747C208.035 334.165 211.748 329.218 215.322 324.224C217.227 321.559 219.176 318.878 221.465 316.501C222.75 315.168 224.829 314.498 226.472 313.421C227.643 312.655 228.665 311.705 229.757 310.844C229.53 310.501 229.312 310.158 229.085 309.815C227.057 310.389 225.03 310.971 221.518 311.969C225.362 306.288 228.552 301.565 231.75 296.841C232.143 296.945 232.536 297.049 232.938 297.153C231.802 300.456 230.666 303.751 229.53 307.054L230.002 307.381C231.776 305.61 233.559 303.839 235.498 301.9C236.241 302.65 236.862 303.272 238.041 304.461C237.91 303.057 238.032 302.283 237.744 301.676C236.608 299.259 234.17 296.746 239.763 296.06C240.872 295.924 242.349 293.307 242.41 291.791C242.664 285.999 246.246 284.14 252.38 284.243V289.158L252.441 289.046C252.398 291.121 252.319 293.195 252.319 295.278C252.319 296.53 252.441 297.775 252.485 298.557C254.285 297.863 256.277 297.089 259.1 296.004C259.362 294.129 259.738 291.408 260.113 288.687C260.384 288.687 260.655 288.703 260.926 288.711C260.393 296.339 259.851 303.966 259.318 311.586C259.773 311.626 260.218 311.658 260.673 311.697C264.788 302.554 262.088 292.437 265.181 283.015L266.623 296.554C266.859 296.562 267.095 296.57 267.322 296.578V281.738C267.873 281.738 268.423 281.722 268.974 281.714C268.974 285.735 268.843 289.756 269.026 293.77C269.122 295.948 267.567 298.716 271.866 299.73C273.063 300.009 273.474 303.192 274.164 305.067C274.601 306.256 274.898 307.493 275.999 308.586C270.948 294.998 271.001 280.829 270.284 266.411C270.957 267.225 271.971 267.959 272.25 268.877C273.631 273.329 275.082 277.789 276.025 282.328C278.297 293.251 280.386 304.214 282.387 315.184C283.173 319.484 283.479 323.857 284.099 328.181C284.283 329.426 284.807 330.631 286.013 331.843C286.179 331.317 286.598 330.718 286.467 330.263C284.222 322.604 284.457 314.929 285.532 307.118C286.17 302.522 285.646 297.791 286.223 292.9C287.795 296.642 289.368 300.384 290.941 304.134L291.841 304.086C291.544 302.466 291.395 300.807 290.915 299.235C289.062 293.187 285.087 286.98 285.751 281.204C286.432 275.228 279.354 269.587 285.655 264.145C289.071 274.869 290.452 286.541 296.56 296.881C295.24 290.53 290.137 284.794 293.519 277.829L293.431 277.924C294.34 279.879 295.24 281.826 296.149 283.781C296.446 283.709 296.752 283.645 297.049 283.573C296.498 281.259 295.939 278.938 295.319 276.321C298.928 275.579 297.608 273.289 296.796 271.422C298.141 270.097 299.303 268.956 300.553 267.736C302.388 270.289 307.744 271.637 306.023 276.656C309.597 277.908 312.804 279.033 316.989 280.501C309.972 273.44 303.891 267.313 297.809 261.185C298.36 260.754 298.901 260.324 299.452 259.893C321.489 277.781 339.76 298.605 356.861 321.383C352.867 321.056 350.185 320.841 347.502 320.625L347.625 320.697L347.616 320.657ZM227.957 322.133C233.095 318.344 235.629 313.692 233.489 310.445C231.549 314.657 229.801 318.439 228.054 322.237C225.222 324.152 220.591 323.801 218.817 328.732C221.238 327 222.522 324.112 225.144 327.607C226.28 325.405 227.119 323.769 227.957 322.141V322.133ZM313.599 325.987C315.119 318.32 311.414 311.785 309.177 304.908C308.81 304.988 308.452 305.067 308.085 305.147C309.92 312.096 311.755 319.038 313.59 325.987H313.599ZM297.643 318.83C299.775 315.2 298.36 309.224 294.637 305.331C294.637 307.676 294.253 310.269 294.751 312.711C295.188 314.825 296.621 316.772 297.643 318.83ZM277.983 323.338C277.476 323.45 276.978 323.554 276.471 323.665C277.24 326.793 278.018 329.92 278.786 333.048C279.162 332.984 279.538 332.92 279.905 332.857C279.258 329.681 278.62 326.514 277.974 323.338H277.983ZM318.859 326.553C318.239 326.522 317.618 326.49 316.998 326.458V332.338C317.391 332.362 317.793 332.386 318.186 332.41C318.405 330.455 318.632 328.508 318.85 326.553H318.859Z" fill="white"/>
<path d="M408.896 185.996C405.418 187.081 405.042 189.155 406.563 191.916C408.066 194.644 406.309 195.402 403.749 195.777C399.73 196.368 395.736 197.078 391.734 197.732C391.647 198.139 391.559 198.538 391.463 198.945C392.512 199.591 393.482 200.652 394.618 200.812C398.821 201.418 403.076 201.977 407.323 202.04C409.341 202.072 411.377 200.947 413.413 200.341L413.3 200.245C414.689 202.056 416.087 203.867 417.765 206.054H407.908C410.058 208.327 411.517 209.867 413.265 211.718C411.683 212.46 410.582 212.971 410.294 213.107C409.892 215.005 409.603 216.362 409.298 217.83C409.848 217.83 410.809 217.606 411.552 217.878C413.099 218.436 414.532 219.25 416.008 219.952C414.881 221.516 414.077 224.037 412.574 224.444C409.036 225.409 405.165 225.37 400.848 225.792C402.421 226.495 404.168 227.979 405.715 227.819C409.324 227.452 409.857 230.029 410.766 231.816C411.15 232.574 409.472 234.21 408.275 236.212C415.86 240.944 414.873 248.396 413.885 256.358C411.762 255.776 410.224 255.361 409.062 255.042C408.52 253.095 408.031 251.34 407.541 249.576C407.201 249.616 406.86 249.656 406.519 249.696C406.143 250.853 405.759 252.002 405.383 253.159C404.946 253.366 404.509 253.574 404.064 253.781C401.757 250.829 399.45 247.885 397.064 244.845C396.575 245.651 395.885 246.8 395.16 247.989C396.234 249.441 397.327 250.909 398.419 252.369L397.798 253.638C393.587 252.688 389.279 252.002 385.189 250.725C379.151 248.826 373.218 246.616 367.338 244.335C363.825 242.97 360.365 241.383 357.149 239.516C356.223 238.981 356.232 237.114 355.27 237.146C350.08 237.226 344.811 237.88 339.726 237.25C333.731 236.5 327.894 234.697 322.022 233.244C314.525 231.393 313.581 230.284 312.882 223.471C312.751 222.178 312.271 220.91 311.904 219.465C312.507 219.234 313.188 218.755 313.494 218.907C318.125 221.181 322.686 223.582 327.318 225.848C328.305 226.335 329.817 226.159 330.568 226.79C332.7 228.585 335.164 230.38 336.353 232.678C337.585 235.048 338.852 235.558 341.342 235.072C338.869 227.803 337.803 224.548 323.377 219.218C326.304 217.112 331.861 217.91 334.64 219.697C336.938 221.181 340.206 221.436 343.09 222.09C343.404 222.162 344.453 221.093 344.348 220.83C344.103 220.207 343.448 219.434 342.793 219.274C341.08 218.851 339.289 218.716 337.524 218.46C337.524 217.989 337.506 217.519 337.497 217.056C341.438 216.745 345.379 216.434 349.932 216.067C347.38 213.561 347.598 211.75 350.167 209.708C352.763 207.649 354.842 205.032 356.992 202.543C357.813 201.594 358.171 200.317 358.748 199.192C358.416 199.024 358.084 198.849 357.752 198.681C353.969 202.32 350.674 206.604 346.253 209.421C342.094 212.069 336.755 213.162 331.94 214.942C331.678 214.567 331.416 214.2 331.154 213.825C332.298 212.771 333.408 211.694 334.588 210.681C336.274 209.229 338.144 207.921 339.656 206.333C340.18 205.782 339.892 204.57 339.97 203.66C338.992 203.883 337.681 203.828 337.095 204.394C334.422 206.971 332.01 209.772 329.388 212.397C328.637 213.154 327.588 213.904 326.531 214.136C321.323 215.293 316.063 216.242 310.846 217.351C309.719 217.591 308.679 218.173 307.605 218.596C308.208 219.537 308.741 220.511 309.422 221.396C309.833 221.931 310.453 222.33 310.986 222.785C310.785 223.096 310.584 223.399 310.392 223.71C307.91 222.561 305.438 221.404 302.519 220.048C304.31 212.532 308.924 206.915 317.19 203.756C318.737 203.165 319.584 201.187 321.035 200.189C323.884 198.211 326.933 196.463 330.813 194.955C329.327 197.548 327.851 200.141 326.365 202.727C326.592 202.918 326.828 203.11 327.055 203.293C329.153 200.971 331.154 198.57 333.373 196.352C336.056 193.655 339 191.174 341.683 188.477C343.518 186.626 344.767 184.184 346.856 182.676C354.301 177.283 361.999 172.169 370.51 167.094C369.47 169.616 368.386 172.121 367.408 174.65C366.473 177.052 363.388 179.501 366.936 181.95C368.928 176.756 370.422 171.594 372.878 166.839C375.053 162.618 378.234 158.821 381.118 154.935C381.581 154.313 383.258 153.659 383.625 153.914C384.377 154.44 385.181 155.701 384.98 156.435C383.887 160.48 382.559 164.477 381.161 168.443C380.751 169.616 379.851 170.645 378.715 172.48C384.254 170.765 387.933 168.626 390.441 164.621C391.647 162.682 394.181 161.438 396.121 159.882C397.431 162.028 398.751 164.174 400.062 166.328C399.572 166.56 399.083 166.783 398.594 167.015C398.218 166.145 397.842 165.283 397.51 164.517C396.304 167.142 395.299 169.831 393.849 172.296C393.124 173.517 391.358 174.195 390.458 175.368C389.078 177.187 388.038 179.214 386.876 181.129C391.778 181.791 395.754 182.325 400.009 182.9C399.66 182.294 399.266 181.623 399.363 181.783C401.364 178.368 403.102 175.416 404.798 172.52C412.513 177.211 405.899 180.044 402.124 184.176C406.1 183.115 409.114 181.958 408.791 186.115L408.887 186.004L408.896 185.996ZM357.175 192.251C357.752 192.482 358.329 192.713 358.905 192.945C360.802 189.945 362.689 186.945 364.585 183.945C363.886 183.61 363.178 183.275 362.479 182.94C360.714 186.043 358.94 189.147 357.175 192.251ZM381.187 187.894C381.546 188.078 381.895 188.261 382.253 188.437C384.027 187.272 385.801 186.099 387.575 184.926C386.71 183.825 385.941 182.844 384.254 180.706C382.987 183.682 382.087 185.78 381.187 187.886V187.894ZM394.915 210.234C394.565 211.096 394.085 212.277 393.639 213.386H404.867C404.867 213.266 404.859 213.139 404.85 213.019C401.626 212.117 398.393 211.208 394.915 210.234Z" fill="white"/>
<path d="M360.312 144.675C359.028 145.281 357.752 145.888 356.468 146.494C356.957 146.997 357.438 147.499 357.927 148.002C362.829 145.872 365.686 139.521 373.148 141.515C369.286 146.566 361.999 148.489 359.631 154.201C360.05 154.56 360.47 154.911 360.889 155.27C362.296 153.89 363.502 152.238 365.179 151.217C366.272 150.555 368.037 150.81 369.496 150.651C369.33 152.127 369.714 153.97 368.876 154.983C367.635 156.499 365.538 157.425 363.554 158.781C364.638 159.826 365.494 160.648 366.438 161.557C367.346 160.791 368.238 160.041 369.138 159.276C369.47 159.643 369.811 159.946 369.776 159.994C368.876 161.135 367.652 163.321 367.058 163.185C363.231 162.323 359.972 162.116 358.005 166.001C357.883 166.249 357.044 166.488 356.852 166.36C351.959 162.946 350.465 168.18 347.371 169.656C350.176 169.472 352.972 169.297 355.777 169.113C355.891 169.624 356.004 170.134 356.118 170.645C347.153 177.02 335.732 179.07 325.509 183.227C325.701 183.642 325.885 184.057 326.077 184.472C326.601 184.448 327.143 184.336 327.65 184.424C329.187 184.695 330.717 185.038 332.246 185.349C331.398 186.522 330.813 188.014 329.659 188.812C324.32 192.466 318.842 195.945 313.363 199.416C312.664 199.854 311.65 199.942 310.768 200.062C309.719 200.197 308.452 199.878 307.631 200.309C305.001 201.705 302.72 203.804 299.95 204.753C298.168 205.368 295.747 204.442 293.615 204.211C293.938 202.743 294.27 201.275 294.567 199.806C294.961 197.86 295.109 195.841 295.756 193.966C296.333 192.291 297.11 190.432 298.465 189.331C299.19 188.74 301.313 189.586 302.807 189.793C304.223 189.993 305.822 190.647 306.993 190.256C307.683 190.025 307.535 188.07 308.059 187.009C309.046 184.99 309.745 182.485 311.467 181.209C314.779 178.759 318.728 177.028 322.407 174.993L321.716 173.685C318.518 175.025 315.312 176.358 311.056 178.137C316.718 170.964 321.795 164.533 327.685 157.081C324.609 158.701 322.608 159.754 319.82 161.222C318.929 156.252 318.405 151.257 317.033 146.462C316.316 143.941 314.132 141.771 312.611 139.441C312.035 139.704 311.458 139.967 310.873 140.231C311.458 141.914 312.043 143.59 312.629 145.273C314.123 149.574 315.644 153.866 317.085 158.175C317.216 158.581 316.876 159.148 316.666 159.611C315.443 162.299 314.184 164.972 312.498 168.626C311.17 164.486 309.955 160.704 308.749 156.922C309.833 166.025 305.927 174.395 303.961 183.06C300.693 181.344 302.44 178.496 302.807 175.959C303.174 173.366 303.629 170.781 304.039 168.196C303.699 168.116 303.358 168.036 303.017 167.956C302.65 169.161 302.283 170.366 301.846 171.802C300.903 170.222 300.046 168.802 298.648 166.464C298.351 169.703 297.975 172.201 298.002 174.698C298.002 175.288 300.107 176.11 299.985 176.405C298.229 180.754 296.263 185.03 294.332 189.315C293.598 190.934 292.802 192.53 291.378 193.966C290.679 191.389 288.224 188.788 292.514 186.722C293.239 186.371 293.099 184.161 292.986 182.836C292.829 181.017 291.85 179.19 292.025 177.427C292.802 169.783 293.816 162.148 294.908 154.536C295.1 153.172 296.079 151.895 297.084 149.749C297.862 152.805 298.351 154.752 298.849 156.698C299.295 156.627 299.74 156.563 300.186 156.491V147.842C301.436 149.773 302.082 150.762 302.72 151.744C303.157 151.624 303.603 151.504 304.039 151.393C303.008 147.914 301.401 144.467 301.103 140.941C300.798 137.366 301.785 133.704 302.362 128.782C304.538 131.159 305.979 132.731 308.024 134.957C306.154 128.861 304.494 123.444 302.834 118.003C306.984 114.492 306.547 113.455 303.026 109.17C301.366 107.152 301.549 103.697 301.418 100.873C301.331 99.0137 302.161 97.1148 302.641 94.9845C306.53 98.5031 305.473 103.218 306.006 106.609C307.797 107.383 309.073 107.662 309.946 108.365C311.074 109.274 311.877 110.519 312.821 111.612L312.725 111.5C313.013 118.545 313.311 125.598 313.599 132.643C314.071 132.643 314.543 132.643 315.023 132.643C315.687 128.63 312.043 124.05 316.037 120.596C316.797 116.199 315.958 111.636 319.75 107.998C321.909 105.923 321.874 103.849 319.497 101.806C317.706 100.266 315.818 98.7265 314.473 96.8834C313.599 95.6787 313.625 93.9314 313.249 92.4314C315.591 92.6309 318.274 92.2559 320.187 93.1973C322.249 94.2106 323.796 96.3329 325.194 98.1999C326.811 100.354 327.405 102.716 324.259 104.71C328.104 106.154 328.987 104.367 328.873 101.176C330.629 102.995 331.896 104.311 333.163 105.62L334.063 105.053C332.333 102.389 330.603 99.7158 328.576 96.6042C334.526 94.4181 336.344 99.1015 338.992 101.064C342.277 103.498 339.979 106.585 337.095 109.825C340.197 110.646 342.679 111.301 345.414 112.019C344.96 113.311 344.584 114.388 343.885 116.359C346.227 115.769 347.834 115.362 350.124 114.779V122.678C348.455 121.912 347.502 121.481 346.55 121.042C344.549 123.013 342.618 124.912 340.687 126.811C340.722 127.138 340.757 127.473 340.792 127.8C344.829 127.242 348.892 126.803 352.885 126.069C354.965 125.686 356.433 125.143 355.035 122.263C353.462 119.024 353.313 115.202 353.261 111.356C355.078 114.029 356.896 116.71 358.705 119.383C358.407 119.758 358.102 120.141 357.805 120.516C360.015 120.269 362.226 120.013 363.633 119.854C364.664 121.186 365.791 122.128 366.193 123.284C366.586 124.409 366.805 126.149 366.141 126.923C363.074 130.473 359.334 133.05 353.864 132.5C352.081 132.324 350.22 132.803 348.402 132.978C348.507 133.473 348.621 133.968 348.726 134.454C349.975 134.191 351.225 133.728 352.474 133.728C353.907 133.728 355.34 134.135 356.773 134.367C356.337 135.89 356.415 137.901 355.358 138.851C352.413 141.507 349.005 143.725 346.27 146.853C347.791 145.991 349.311 145.13 351.478 143.909C351.094 145.632 350.849 146.717 350.534 148.138C354.073 146.933 357.263 145.84 360.452 144.747L360.365 144.683L360.312 144.675ZM323.141 130.058C323.953 130.569 324.766 131.071 325.579 131.582C327.457 128.909 328.873 125.782 331.328 123.675C333.985 121.401 337.62 120.085 341.115 118.194C337.96 118.05 335.313 117.923 332.517 117.795C329.528 121.705 326.339 125.885 323.141 130.066V130.058ZM338.974 174.874C339.219 171.124 339.411 168.18 339.603 165.236C339.367 165.283 339.131 165.331 338.904 165.379C337.567 168.124 336.23 170.876 334.78 173.86C335.278 173.98 336.571 174.299 338.974 174.882V174.874ZM328.873 133.545C329.222 133.912 329.563 134.287 329.913 134.654C331.73 133.178 333.539 131.694 335.671 129.954C330.586 128.103 330.577 131.869 328.873 133.537V133.545Z" fill="white"/>
<path d="M189.694 270.353H196.378C195.478 269.004 195.111 268.366 194.648 267.784C192.752 265.382 193.984 264.217 196.649 264.241C200.704 264.273 204.749 264.704 208.804 264.919C210.377 264.999 211.958 264.935 213.531 264.935C213.549 264.6 213.566 264.265 213.583 263.93C210.359 263.34 207.126 262.757 203.902 262.167C203.806 261.848 203.71 261.536 203.622 261.217C205.938 260.324 208.253 259.43 210.988 258.369V262.175C212.168 261.728 213.636 261.552 213.776 261.066C215.584 254.771 221.797 254.396 227.005 252.808C230.701 251.683 234.511 250.805 238.338 250.135C240.182 249.816 242.183 250.239 244.167 250.797C237.465 256.342 228.263 256.095 220.705 259.39C220.897 259.893 221.089 260.403 221.282 260.906C229.46 258.489 237.648 256.063 246.019 253.59C241.563 262.941 232.082 265.988 221.78 268.51C224.646 271.621 226.953 273.783 231.129 271.023C229.251 274.765 227.608 278.036 225.965 281.307C226.385 281.618 226.795 281.922 227.215 282.233C228.333 281.06 229.67 279.999 230.535 278.682C233.489 274.174 236.189 269.531 239.23 265.079C239.719 264.361 241.484 264.369 243.197 263.89C243.022 265.215 243.144 265.837 242.865 266.188C237.77 272.619 235.027 279.983 231.968 287.331C228.534 295.573 223.938 303.416 219.718 311.37C216.362 317.689 212.806 323.929 209.346 330.2C207.248 333.989 203.264 334.428 198.982 335.138C198.703 335.825 198.432 336.862 197.855 337.739C197.444 338.362 196.457 339.263 196.038 339.144C195.26 338.92 194.246 338.114 194.115 337.428C193.364 333.503 191.118 333.487 187.946 335.154C187.081 335.609 186.033 335.793 185.063 336.064C181.882 336.957 178.771 336.503 177.976 333.391C177.251 330.543 179.261 328.365 182.633 327.702C183.315 327.567 183.997 327.487 184.783 327.367C182.485 323.968 176.211 321.91 172.646 323.362C169.745 324.543 168.6 323.139 168.259 320.921C167.517 316.078 170.584 312.655 173.808 309.328C174.848 308.251 175.827 307.126 176.831 306.017C176.36 305.698 175.888 305.37 175.416 305.051C171.693 309.551 167.962 314.051 164.179 318.623C164.021 314.41 160.928 314.578 156.882 315.886C157.066 312.735 157.232 310.03 157.389 307.325C161.601 299.434 169.719 295.31 176.875 290.076C175.687 290.483 174.498 290.889 173.17 291.344C173.485 290.562 173.721 289.98 173.957 289.405C173.712 289.11 173.476 288.823 173.231 288.528C170.252 290.139 167.281 291.759 164.301 293.371C166.547 297.504 161.461 297.966 160.203 300.32C159.006 302.554 158.368 305.043 157.485 307.421C155.764 306.272 154.034 305.123 151.351 303.328C151.273 303.448 150.574 304.557 150.303 304.995C148.013 304.812 146.318 304.684 144.667 304.549V295.365C148.075 292.501 151.727 289.437 155.79 286.031C149.403 285.767 148.136 292.182 143.181 293.123C142.578 292.19 141.949 291.201 141.32 290.211C142.351 288.073 143.435 285.935 144.405 283.757C146.519 279.001 146.493 278.985 153.134 279.153C151.779 280.15 150.775 280.892 149.77 281.626C149.848 281.906 149.927 282.193 150.006 282.472C153.239 281.858 156.481 281.243 160.081 280.557V284.211C164.056 283.31 167.875 282.552 171.597 281.523C172.707 281.219 173.493 280.039 174.551 279.448C176.945 278.116 179.339 276.751 181.864 275.666C184.346 274.597 187.055 273.967 189.51 272.874C189.965 272.674 189.729 271.182 189.807 270.281L189.72 270.385L189.694 270.353ZM213.889 302.714C208.9 303.966 208.856 303.95 207.423 308.674C206.418 311.977 205.396 315.296 204.697 318.663C204.19 321.136 204.199 323.697 203.98 326.226C204.426 326.29 204.863 326.362 205.309 326.426C206.445 322.46 207.362 318.423 208.778 314.538C210.263 310.461 212.22 306.519 213.881 302.714H213.889ZM180.877 278.467C179.051 281.339 177.347 284.02 175.643 286.701C181.803 284.435 183.699 281.403 180.877 278.467ZM176.194 314.394C175.416 316.325 174.708 318.112 174.035 319.78H181.218C179.182 317.602 177.801 316.118 176.194 314.394ZM176.657 299.929C177.006 300.312 177.347 300.695 177.696 301.07L184.617 296.395C184.311 296.012 184.005 295.637 183.699 295.254L176.665 299.929H176.657Z" fill="white"/>
<path d="M394.504 278.642C394.303 277.398 394.085 275.985 393.857 274.573C393.552 274.581 393.237 274.597 392.931 274.605C392.276 277.07 391.621 279.536 390.974 282.001C390.598 281.977 390.231 281.953 389.855 281.929C389.296 280.908 388.737 279.895 388.02 278.586C386.474 278.969 384.884 279.368 382.489 279.967C387.042 283.884 390.948 287.227 395.815 291.408C391.245 291.942 387.549 292.373 382.83 292.924C392.197 296.195 393.91 301.708 389.148 308.985C384.586 306.296 379.763 303.44 374.931 300.591L373.944 301.916C376.993 303.926 380.113 305.849 383.075 307.971C384.517 309.009 387.234 310.173 384.691 312.232C382.769 313.796 380.427 313.636 378.548 311.586C377.098 309.998 375.481 308.538 373.944 307.022C373.376 307.405 372.799 307.796 372.231 308.179C373.087 309.431 373.734 310.876 374.835 311.897C378.444 315.24 378.365 315.495 374.599 318.439C373.498 319.301 372.843 321.112 372.773 322.524C372.633 325.341 371.069 326.585 368.351 326.107C366.009 325.692 365.738 324.359 365.896 321.79C366.132 317.889 364.262 313.883 363.318 309.918C362.925 308.29 361.798 306.328 362.392 305.059C364.506 300.559 360.802 298.652 358.04 296.107C360.819 302.913 360.854 309.99 362.016 317.968C360.321 316.827 359.141 316.453 358.905 315.806C356.896 310.141 351.277 307.421 347.223 303.424C346.13 302.346 345.912 300.543 345.466 299.482C344.016 299.179 342.434 299.283 341.753 298.62C339.192 296.115 336.894 293.379 334.57 290.69C329.371 284.674 324.154 278.658 319.051 272.579C317.312 270.504 315.871 268.214 314.805 265.318L320.082 267.799C317.164 262.629 310.96 259.558 309.02 252.345C317.461 255.576 322.581 261.401 329.083 265.254C329.441 264.927 329.799 264.608 330.157 264.281C327.51 261.656 324.871 259.023 322.223 256.398C322.407 256.183 322.581 255.959 322.765 255.744C328.689 258.153 334.605 260.571 340.529 262.98C340.783 262.526 341.027 262.063 341.281 261.608C336.58 259.278 331.879 256.957 325.989 254.044C330.017 253.813 332.892 253.646 335.758 253.478C335.785 253.286 335.811 253.103 335.837 252.911C328.96 250.981 322.083 249.042 314.7 246.967H330.044C328.314 245.204 326.758 243.616 324.425 241.239C344.732 239.763 362.427 244.175 379.885 251.443V255.712C387.383 251.595 390.502 252.393 398.104 260.363C397.335 260.539 396.758 260.691 396.182 260.786C395.666 260.874 395.133 260.898 394.259 260.986C394.749 262.326 395.133 263.363 395.762 265.103C391.262 264.76 387.173 264.44 383.049 264.121C382.62 266.371 382.612 266.443 385.434 266.483C390.222 266.539 395.002 266.499 400.516 266.499C399.432 267.624 398.856 268.222 398.392 268.701C400.927 270.903 403.592 272.826 405.654 275.196C406.659 276.352 407.41 279.193 406.746 279.751C405.435 280.852 402.98 281.451 401.136 281.243C398.995 281.004 397.003 279.679 394.478 278.634L394.504 278.642ZM370.946 271.079C369.347 275.459 368.063 278.961 366.787 282.464C366.132 282.344 365.485 282.225 364.83 282.113V275.18C364.262 275.203 363.694 275.219 363.126 275.243C363.126 277.398 363.004 279.56 363.178 281.706C363.266 282.791 363.537 284.395 364.314 284.794C366.787 286.054 369.54 286.86 372.423 287.921C371.969 287.251 371.497 286.653 371.13 286.006C370.422 284.77 368.823 283.014 369.242 282.336C371.759 278.283 371.89 274.142 371.051 269.738C370.885 268.861 371.908 267.823 372.309 266.834C373.192 264.64 374.468 262.462 374.704 260.204C374.852 258.792 373.376 257.244 372.633 255.76C371.698 256.757 370.562 257.651 369.889 258.784C368.709 260.746 367.661 262.805 366.831 264.911C365.852 267.408 365.153 269.994 363.982 273.64C366.743 272.634 368.124 272.132 370.955 271.095L370.946 271.079ZM337.113 247.973C338.633 251.731 351.242 254.483 355.157 252.68C349.329 251.156 343.491 249.64 337.113 247.973ZM344.994 288.711C345.309 288.544 345.624 288.376 345.947 288.209C343.963 285.233 341.98 282.264 339.996 279.288C339.481 279.584 338.965 279.879 338.441 280.182C340.625 283.022 342.81 285.871 344.994 288.711Z" fill="white"/>
<path d="M263.145 101.575C263.469 100.865 263.897 99.9072 264.456 98.6705C265.749 99.0295 266.929 99.3566 268.353 99.7556C267.418 98.0641 266.527 96.4604 265.12 93.9153C272.583 97.003 273.238 97.9684 271.927 103.617C271.42 105.803 272.88 108.731 269.393 109.952C269.323 109.976 269.297 110.207 269.314 110.327C269.891 115.13 270.477 119.933 271.062 124.736C271.63 124.736 272.207 124.72 272.775 124.712C273.29 121.832 273.666 118.92 274.409 116.096C274.61 115.346 275.929 114.835 277.362 114.572C276.707 108.396 273.343 101.631 279.887 94.5137C280.7 99.0136 281.347 102.596 281.993 106.178C282.203 106.306 282.413 106.434 282.614 106.561C283.287 104.63 283.951 102.692 284.624 100.761C284.868 100.737 285.113 100.713 285.358 100.689V115.984C285.794 116.008 286.231 116.032 286.659 116.056C287.123 113.519 287.594 110.981 288.093 108.285C290.504 111.221 289.893 111.077 288.783 114.915C287.656 118.832 288.18 123.117 287.463 127.17C286.38 133.345 284.388 139.417 283.671 145.616C283.024 151.209 283.391 156.93 283.671 162.579C283.924 167.797 284.641 172.991 285.157 178.201C284.65 178.24 284.152 178.288 283.645 178.328C282.133 165.993 280.613 153.667 279.101 141.332C277.161 145.018 276.882 148.457 277.546 152.55C279.031 161.693 282.719 170.645 280.709 180.235C279.87 184.248 280.569 188.525 280.569 192.658C281.023 192.091 281.688 191.261 282.535 190.208C282.57 190.743 282.745 191.15 282.596 191.365C281.085 193.519 280.027 196.368 277.878 197.62C273.343 200.269 266.09 195.602 265.339 190.144C265.19 189.043 263.976 188.086 263.32 187.025C262.499 185.692 261.031 184.288 261.11 182.98C261.407 178.232 260.542 176.709 256.758 175.592C256.146 173.677 256.015 172.36 255.334 171.347C254.469 170.07 253.001 169.137 252.074 167.876C249.584 164.477 247.172 161.023 244.857 157.52C242.585 154.073 240.881 150.244 238.163 147.124C235.437 143.997 234.511 140.829 234.546 136.959C234.555 135.204 232.938 133.441 231.4 131.893C231.863 133.808 232.335 135.723 232.798 137.638C232.344 137.829 231.898 138.021 231.444 138.204C228.823 132.859 222.697 129.627 221.229 123.005C218.372 123.109 218.057 121.298 217.131 118.569C215.654 114.229 212.142 110.471 208.97 105.668C211.609 106.785 213.374 107.535 214.868 108.165C215.261 105.676 215.646 103.234 216.1 100.37C215.829 100.274 214.99 99.971 214.475 99.7875C215.078 98.5987 215.672 97.4099 216.607 95.5589C218.11 96.0854 219.884 96.6679 221.622 97.3301C222.138 97.5296 222.627 98.2476 223.029 98.1838C228.796 97.2822 228.456 101.343 229.53 104.519C231.514 110.375 233.794 116.151 235.953 121.96C236.468 121.8 236.993 121.633 237.508 121.473C235.839 117.452 233.926 113.495 232.58 109.378C231.243 105.317 230.474 101.096 229.452 96.9232C235.035 96.4126 236.757 97.5695 236.031 100.362C241.126 105.125 245.923 109.617 250.711 114.109C250.965 113.965 251.227 113.822 251.48 113.686C249.348 109.497 247.216 105.301 244.612 100.186C247.181 100.45 248.221 100.561 249.269 100.665C249.339 100.21 249.374 99.963 249.418 99.7157C249.768 98.0003 250.117 96.2929 250.467 94.5855C252.503 95.862 255.307 96.7636 256.33 98.5269C257.221 100.059 256.225 102.588 255.849 104.646C255.089 108.819 254.189 112.976 254.346 117.284C255.412 113.957 256.478 110.622 257.553 107.295L259.703 107.471C260.297 114.109 260.9 120.747 261.52 127.712C262.307 127.289 262.927 127.122 262.936 126.938C263.076 121.17 267.305 115.944 265.513 109.88C265.094 108.468 266.134 106.705 265.793 105.253C265.496 103.992 264.177 102.923 263.137 101.543L263.145 101.575ZM275.318 196.495C275.824 196.304 276.34 196.112 276.847 195.913C277.388 193.687 277.939 191.469 278.673 188.437C275.807 185.006 274.933 180.275 278.411 174.578C276.541 175.264 275.676 175.576 274.688 175.935C272.434 168.259 270.215 160.68 267.986 153.1L266.492 153.419C269.472 165.164 272.46 176.916 275.44 188.66C275.117 188.756 274.802 188.844 274.479 188.94C272.233 183.091 269.979 177.243 267.733 171.395C267.366 171.53 266.999 171.666 266.632 171.802C268.886 180.243 271.141 188.676 275.309 196.495H275.318ZM261.337 135.97L259.86 135.866C259.703 141.411 259.545 146.965 259.379 152.51C259.283 155.749 259.493 158.765 264.107 158.182C263.198 150.866 262.263 143.414 261.337 135.97ZM272.766 138.228C272.198 138.172 271.63 138.116 271.062 138.061C270.914 140.039 270.459 142.058 270.686 144.005C271.123 147.802 271.971 151.56 272.574 155.342C273.185 159.156 273.701 162.977 274.269 166.799C274.776 166.743 275.283 166.695 275.789 166.64C275.256 161.278 274.723 155.916 274.199 150.555C274.042 148.983 273.159 146.909 273.928 145.935C276.401 142.8 275.012 140.558 272.775 138.228H272.766ZM247.024 147.507C246.395 147.754 245.757 148.002 245.128 148.257C246.019 150.443 246.779 152.685 247.889 154.776C248.221 155.398 249.532 155.581 250.397 155.964C250.764 155.007 251.742 153.754 251.384 153.156C250.187 151.145 248.518 149.374 247.024 147.515V147.507ZM252.765 148.257C251.55 143.965 250.379 139.832 249.243 135.827C246.91 140.582 246.788 145.002 252.765 148.257ZM284.047 129.883C279.398 134.917 282.159 140.59 281.128 145.935C281.591 145.975 282.046 146.015 282.509 146.055C283.024 140.662 283.531 135.276 284.047 129.883ZM248.719 131.031C251.201 123.013 251.183 122.877 247.959 119.582C248.238 123.795 248.474 127.409 248.719 131.031ZM240.234 131.678L241.056 131.239C240.462 129.843 239.859 128.446 239.142 126.779C237.421 128.103 236.049 129.156 234.537 130.313C235.979 131.67 237.185 132.811 239.055 134.566C238.53 132.587 238.26 131.526 237.823 129.883C239.002 130.76 239.614 131.223 240.226 131.678H240.234ZM263.556 159.563C263.032 159.587 262.499 159.618 261.975 159.642C258.287 163.193 262.674 165.299 263.434 168.052C263.792 168.004 264.15 167.948 264.509 167.9C264.194 165.124 263.871 162.339 263.556 159.563ZM258.925 169.687C259.327 169.392 259.72 169.089 260.122 168.794C258.077 166.416 256.033 164.047 253.979 161.669C253.542 161.996 253.105 162.323 252.669 162.65C255.849 164.166 254.862 168.826 258.925 169.687Z" fill="white"/>
<path d="M423.191 321.83C413.501 331.859 404.098 342.143 394.041 351.853C385.425 360.175 374.948 366.502 364.008 372.071C349.084 379.674 332.849 384.39 316.631 388.802C295.799 394.459 274.286 395.416 252.738 393.038C231.863 390.741 211.845 385.507 193.337 376.164C183.193 371.042 172.786 366.151 163.445 359.951C155.904 354.941 149.612 348.295 143.103 342.08C139.319 338.473 136.191 334.293 132.765 330.367L132.661 330.455C133.272 330.144 134.102 329.434 134.461 329.601C135.981 330.295 137.353 331.237 138.384 332.282C141.53 335.992 144.684 339.71 148.302 343.97C148.931 343.931 150.46 343.835 152.33 343.715C152.19 344.968 152.077 346.061 152.042 346.348C154.558 348.646 156.629 350.553 158.735 352.428C159.102 352.755 159.74 353.265 160.054 353.162C164.257 351.813 164.021 354.127 163.654 356.281C166.879 358.108 169.762 360.43 173.126 361.467C176.954 362.648 179.593 364.643 181.856 367.475C182.135 367.826 183.463 367.356 184.25 367.507C185.631 367.778 187.02 368.145 188.322 368.64C189.641 369.143 190.865 370.379 192.132 370.371C195.81 370.371 197.339 372.127 197.575 375.318C201.21 374.704 204.225 374.768 204.085 379.69C206.96 376.746 208.48 378.158 209.625 380.879C209.826 380.337 210.027 379.794 210.228 379.26C212.447 379.85 214.737 380.289 216.878 381.071C219.088 381.876 220.836 383.64 223.65 381.932C227.538 379.571 228.089 379.986 228.377 384.382C228.412 384.964 228.875 385.523 229.408 386.664C230.046 385.467 230.5 384.844 230.719 384.15C231.706 381.007 232.597 380.815 235.158 383.448C236.966 385.315 240.191 386.041 242.043 386.919C243.555 385.427 244.691 384.294 245.835 383.169C247.015 384.9 248.186 386.632 249.497 388.547C251.62 386.632 254.241 386.081 255.238 388.874C258.174 389.201 260.21 389.472 262.245 389.648C263.172 389.727 264.544 389.983 264.972 389.544C267.34 387.134 269.183 387.797 270.162 389.352C272.915 389.352 274.828 389.225 276.707 389.376C280.141 389.656 283.549 390.254 286.974 390.374C287.691 390.398 288.46 388.906 289.211 388.116C289.997 387.286 290.793 386.464 291.579 385.642C292.313 386.352 293.012 387.094 293.781 387.773C294.961 388.818 296.184 389.815 297.599 391.02C299.33 387.664 302.135 386.746 306.014 388.267C307.517 387.637 308.775 387.182 309.938 386.592C312.201 385.443 314.377 384.142 316.657 383.041C317.776 382.499 319.13 381.829 320.266 381.98C322.485 382.275 324.626 383.097 326.732 383.688C327.553 381.454 328.034 380.153 328.567 378.733C332.648 381.222 337.357 380.065 340.608 376.355C341.342 375.518 342.862 374.488 343.771 374.656C349.46 375.701 353.68 374.201 356.406 369.454C357.411 367.699 358.25 367.068 360.435 367.906C363.746 369.175 367.696 367.826 368.098 364.683C368.779 359.313 372.712 360.43 376.25 360.398C376.914 360.398 377.587 360.757 378.444 361.013C378.741 359.217 379.003 357.662 379.352 355.563C381.021 356.553 382.044 357.159 383.721 358.156C383.992 354.981 384.219 352.252 384.473 349.236C386.22 349.723 387.785 350.17 389.357 350.609C390.488 346.162 392.617 344.917 395.745 346.875C398.017 344.409 400.306 341.92 402.325 339.726C402.464 338.657 402.22 337.404 402.797 336.766C405.077 334.253 409.516 333.335 409.551 329.043C409.551 328.899 412.391 328.771 414.252 328.604C417.957 322.934 420.96 320.7 423.261 321.902L423.191 321.814V321.83Z" fill="white"/>
<path d="M339.83 70.6818C335.295 71.6232 330.751 72.8918 326.627 69.4531C326.347 69.2217 324.853 70.203 323.962 70.602C321.419 67.6579 318.527 66.4292 314.385 66.7483C312.166 66.9159 309.798 65.3681 307.727 64.6819C307.071 65.767 306.093 67.3786 305.105 68.9983C304.319 67.4983 303.541 65.9904 301.977 62.9984C300.894 64.6101 299.95 66.0063 299.006 67.4106C297.835 66.5648 296.664 65.7111 294.952 64.4745C293.956 65.1447 292.339 66.2457 290.723 67.3388C289.56 65.8388 288.398 64.3388 286.834 62.3203C285.384 62.5197 282.954 62.8548 279.372 63.3415C278.236 63.0623 275.85 62.4798 273.386 61.8814C270.319 65.8468 265.007 63.3335 259.973 65.1287C259.659 64.658 259.004 63.6766 258.304 62.6234C256.085 63.9957 254.014 65.2803 251.699 66.7164C250.729 66.2138 249.505 65.5835 247.801 64.7058C246.77 66.0383 245.774 67.3148 244.315 69.1978C243.31 67.1872 242.707 65.9904 241.956 64.4904C241.108 65.4159 240.427 66.1659 239.605 67.0595C238.626 66.5409 237.657 66.0223 236.643 65.4798C235.769 66.2297 234.983 66.9159 233.078 68.5595C233.078 66.4132 232.894 65.3122 233.165 64.3229C233.279 63.892 234.292 63.4532 234.948 63.3894C243.092 62.5756 251.235 61.666 259.405 61.1075C267.06 60.5809 274.758 60.1182 282.43 60.198C301.007 60.3894 318.981 63.9479 336.632 69.0142C337.751 69.3334 338.677 70.227 339.69 70.8573L339.839 70.7217L339.83 70.6818Z" fill="white"/>
<path d="M289.779 157.528C290.233 155.677 290.688 153.826 291.238 151.6C286.083 155.861 290.696 161.206 288.529 166.424C285.558 159.802 285.043 153.674 286.065 147.555C287.874 136.768 290.224 126.061 292.173 115.29C292.837 111.628 292.986 107.886 293.37 104.184C293.859 104.12 294.349 104.048 294.838 103.984C295.52 104.702 296.726 105.372 296.813 106.138C297.468 111.971 299.924 117.588 297.73 123.755C296.245 127.928 296.822 132.675 295.974 137.095C294.646 144.044 292.898 150.922 291.325 157.831C290.81 157.728 290.294 157.616 289.779 157.512V157.528Z" fill="white"/>
<path d="M423.261 321.918C422.177 316.859 422.649 312.391 428.338 309.575C429.037 309.224 429.063 307.796 429.482 306.894C429.902 305.985 430.444 305.123 430.898 304.229C431.457 303.12 432.602 301.876 432.383 300.894C431.912 298.74 432.235 297.719 434.568 296.514C437.128 295.198 439.208 292.94 441.087 290.802C441.611 290.203 440.886 288.488 440.405 287.411C439.854 286.182 438.937 285.089 438.177 283.932C439.715 283.653 441.253 283.358 442.808 283.11C443.323 283.03 443.865 283.094 444.791 283.094C443.839 280.693 439.453 278.036 446.356 276.871C438.622 273.56 444.031 270.999 446.067 268.158C447.666 268.629 449.484 269.164 451.424 269.73C445.892 288.695 436.062 305.929 423.182 321.806C423.191 321.822 423.261 321.902 423.261 321.902V321.918Z" fill="white"/>
<path d="M103.869 288.982C101.929 285.009 99.5611 281.171 98.1193 277.047C93.2173 262.972 87.5026 249.01 88.49 233.819C89.1017 224.452 89.5473 215.077 90.1852 205.71C90.2813 204.282 91.0153 202.886 91.4522 201.474C91.8367 201.522 92.2211 201.578 92.6056 201.625C92.6056 205.407 92.658 209.197 92.5881 212.979C92.527 216.274 92.527 219.593 92.0726 222.848C91.8716 224.292 90.6308 225.617 89.5298 227.596C90.2988 230.651 91.26 234.457 92.3435 238.726C88.4114 241.167 90.4823 245.22 91.2163 248.667C92.4833 254.595 94.6154 260.371 96.4329 266.196C96.66 266.93 97.2979 267.56 97.5601 268.294C98.495 270.855 99.3514 273.432 100.155 276.073C100.793 277.637 101.3 279.265 102.13 280.733C102.593 281.554 103.528 282.584 104.402 282.711C108.116 283.27 107.88 284.467 105.529 286.493C104.743 287.171 104.341 288.224 103.764 289.102L103.86 288.99L103.869 288.982Z" fill="white"/>
<path d="M375.875 87.8835C377.439 88.2345 379.344 88.1787 380.506 89.0005C384.246 91.6573 387.645 94.7051 391.288 97.4737C394.714 100.075 398.427 102.357 401.739 105.061C404.404 107.247 406.641 109.856 409.402 112.625C407.393 113.335 405.863 113.878 404.815 114.245C402.089 112.042 399.677 110.096 396.811 107.782C396.942 107.495 397.396 106.473 398.095 104.894C396.479 105.5 395.369 105.923 394.251 106.338C394.023 106.17 393.622 106.011 393.613 105.843C393.464 102.388 391.07 100.809 388.064 99.0374C383.94 96.604 380.48 93.2291 376.731 90.2531L377.439 89.3435C376.617 89.7185 375.787 90.0855 374.966 90.4605C374.756 90.277 374.555 90.1015 374.345 89.918C374.931 89.176 375.525 88.434 376.111 87.7L375.875 87.8835Z" fill="white"/>
<path d="M375.875 87.8835L376.111 87.7C374.005 88.4659 371.899 89.2318 369.225 90.1972C369.138 88.7132 369.05 87.0218 368.954 85.2904C363.152 87.1973 360.102 85.817 356.834 80.0166C355.445 80.9661 354.03 81.9155 352.623 82.873V78.3571H346.454C345.589 76.4024 344.566 74.1045 343.544 71.8147C343.789 71.5434 344.033 71.2642 344.287 70.9929C347.502 72.5727 350.7 74.1764 353.942 75.7162C358.25 77.7667 362.61 79.7214 366.901 81.7958C369.208 82.9128 371.479 84.1096 373.629 85.45C374.555 86.0245 375.149 87.0617 375.892 87.8835H375.875Z" fill="white"/>
<path d="M132.774 330.375C130.677 328.229 128.309 326.25 126.518 323.912C119.676 314.961 111.445 306.79 107.687 296.067C106.822 293.586 105.162 291.336 103.869 288.982C103.869 288.982 103.773 289.094 103.764 289.102C104.778 289.286 106.525 289.238 106.691 289.685C107.949 293.083 110.317 292.517 113.585 291.903C112.432 293.187 111.287 294.464 110.064 295.82C112.048 299.323 114.118 302.985 116.749 307.62C122.69 309.735 123.189 316.955 127.627 322.077C128.318 321.902 129.41 321.375 130.45 321.439C131.158 321.487 132.328 322.317 132.39 322.883C132.661 325.388 132.608 327.934 132.669 330.463L132.774 330.375Z" fill="white"/>
<path d="M226.096 240.481C224.252 241.718 222.417 242.962 220.565 244.191C217.568 246.17 213.837 247.686 214.99 252.146C215.095 252.552 214.37 253.422 213.819 253.637C208.874 255.544 203.875 257.348 198.895 259.191C198.668 258.768 198.449 258.337 198.222 257.914C199.568 257.108 201.088 256.47 202.233 255.465C206.838 251.435 211.39 247.358 215.82 243.17C218.616 240.529 221.858 239.38 226.096 240.481Z" fill="white"/>
<path d="M194.299 75.9876C197.243 74.6312 200.057 72.9238 203.15 71.9824C211.914 69.3255 220.792 66.9798 229.329 64.5942C229.985 65.1368 230.36 65.2964 230.352 65.4559C230.253 69.9026 227.978 71.2244 223.527 69.4213C222.627 69.0542 221.841 68.4718 220.574 67.7458C219.656 69.3734 218.844 70.8015 218.048 72.2058C214.711 70.9452 212.584 71.3281 211.67 73.3547C210.7 72.8201 209.765 72.3015 209.433 72.11C207.397 72.7643 205.763 73.2908 203.141 74.1366C203.072 74.2722 202.512 75.4371 202.224 76.0195C199.873 76.2349 198.03 76.4104 196.195 76.578L196.177 77.4556C195.522 76.945 194.875 76.4424 194.211 75.9238L194.307 75.9876H194.299Z" fill="white"/>
<path d="M140.988 108.747C143.968 106.737 146.982 104.766 149.927 102.708C155.703 98.6704 161.444 94.5774 167.202 90.5164C167.534 90.7238 167.857 90.9312 168.189 91.1387C167.901 93.2291 167.621 95.3115 167.263 97.8726C165.262 96.7556 163.864 95.9817 163.113 95.5588C161.269 97.2822 159.329 99.9949 158.499 99.7316C155.004 98.6465 156.716 104.718 152.749 102.053C153.108 103.769 153.343 104.87 153.562 105.923C151.072 107.989 146.108 106.928 145.977 111.54C144.256 110.574 142.604 109.649 140.962 108.715L140.997 108.739L140.988 108.747Z" fill="white"/>
<path d="M360.4 144.739C359.29 143.973 358.18 143.207 357.035 142.417C358.311 137.765 370.317 128.885 375.639 129.292C371.672 135.651 365.45 139.728 360.303 144.667C360.312 144.675 360.4 144.739 360.4 144.739Z" fill="white"/>
<path d="M255.307 267.488C250.947 277.27 243.389 284.219 237.77 292.74C235.07 287.842 236.704 284.57 241.563 282.895C242.812 282.464 243.651 280.836 244.498 279.656C247.26 275.786 249.925 271.861 252.703 267.999C252.913 267.712 253.726 267.783 255.316 267.488H255.307Z" fill="white"/>
<path d="M244.009 239.372C241.161 243.545 224.917 250.023 220.425 248.771C221.981 244.965 237.997 238.574 244.009 239.372Z" fill="white"/>
<path d="M312.795 111.604C311.187 107.638 309.579 103.665 307.884 99.4844C308.504 98.6786 309.422 97.4738 310.514 96.0457C314.376 99.9392 316.998 104.391 315.993 110.072C315.678 111.859 314.971 113.311 312.69 111.492L312.786 111.604H312.795Z" fill="white"/>
<path d="M437.574 151.839C436.176 150.691 434.778 149.542 433.642 148.608C431.798 148.608 429.736 148.608 427.665 148.608C429.308 147.036 430.95 145.457 432.916 143.574C431.929 142.225 426.625 141.691 430.365 136.816C433.502 141.507 436.429 145.888 439.356 150.26C438.762 150.786 438.168 151.313 437.574 151.839Z" fill="white"/>
<path d="M189.79 270.249C183.359 272.028 176.997 274.07 170.479 275.499C163.777 276.967 163.707 276.703 161.33 274.27C164.659 274.27 168.189 274.916 171.265 274.11C175.171 273.081 179.025 271.278 182.301 269.06C185.77 266.714 187.728 267.6 189.694 270.36L189.79 270.249Z" fill="white"/>
<path d="M408.8 186.107C410.809 185.174 413.064 183.195 414.785 183.522C418.665 184.272 418.866 188.82 415.371 191.66C414.444 192.418 413.204 192.865 411.377 193.846C410.451 190.91 409.682 188.445 408.904 185.98L408.808 186.099L408.8 186.107Z" fill="white"/>
<path d="M185.735 78.4767C185.29 80.5352 185.019 82.6575 184.285 84.6282C184.066 85.2186 182.52 85.7372 181.628 85.6813C180.658 85.6175 179.732 84.8516 178.317 84.1495C178.465 85.9446 178.561 87.1654 178.701 88.9286C177.015 88.6573 175.704 88.4419 174.122 88.1866C173.38 90.4206 172.244 92.2078 169.037 89.1121C174.734 85.5218 180.265 82.0352 185.788 78.5485L185.735 78.4688V78.4767Z" fill="white"/>
<path d="M94.8249 184.599C96.6424 178.807 98.4686 173.023 100.347 167.023C100.942 167.477 101.256 167.597 101.291 167.765C101.859 170.35 98.8968 181.966 97.1055 183.714C96.59 184.208 95.5938 184.288 94.8162 184.56L94.8249 184.607V184.599Z" fill="white"/>
<path d="M259.781 203.572C259.196 199.455 258.61 195.338 257.946 190.647C262.77 192.586 264.107 199.774 261.354 203.445C260.83 203.484 260.306 203.532 259.781 203.572Z" fill="white"/>
<path d="M416.777 252.193C417.983 253.071 419.18 253.941 420.701 255.05C421.732 253.797 422.649 252.688 424.449 250.51C424.921 252.353 425.725 253.59 425.367 254.388C424.047 257.292 420.229 258.887 417.669 257.308C416.384 256.51 416.201 254.228 415.51 252.616C415.93 252.473 416.358 252.329 416.777 252.193Z" fill="white"/>
<path d="M347.494 320.585C349.669 321.583 351.88 322.524 354.012 323.601C355.209 324.208 356.424 324.91 357.306 325.835C357.63 326.17 357.079 327.87 356.817 327.894C355.471 328.021 353.846 328.181 352.763 327.623C350.779 326.609 348.927 325.245 347.397 323.705C346.882 323.186 347.52 321.71 347.616 320.665L347.494 320.585Z" fill="white"/>
<path d="M419.311 121.745C417.835 122.662 416.725 123.356 414.235 124.912C415.886 119.87 407.856 119.136 411.176 113.606C413.938 116.367 416.332 118.761 419.32 121.753L419.311 121.745Z" fill="white"/>
<path d="M119.589 142.648C117.474 143.079 115.473 143.486 113.201 143.949C115.29 140.454 117.457 136.84 119.615 133.233C119.947 133.281 120.279 133.321 120.62 133.369C120.27 136.56 119.912 139.752 119.589 142.648Z" fill="white"/>
<path d="M140.63 262.837C134.909 267.342 131.571 269.409 130.616 269.036C136.523 262.422 137.606 261.76 140.63 262.837Z" fill="white"/>
<path d="M174.009 185.038C169.413 184.599 165.28 183.315 161.452 179.908C168.635 179.062 172.008 180.618 173.904 185.142L174.009 185.038Z" fill="white"/>
<path d="M424.895 127.018C426.511 129.962 427.805 132.324 429.343 135.109C424.554 134.992 423.072 132.295 424.895 127.018Z" fill="white"/>
<path d="M287.603 210.689C293.431 213.562 297.058 209.117 301.374 208.846C298.281 211.264 295.467 214.335 290.871 213.793C289.656 213.649 288.687 211.774 287.603 210.689Z" fill="white"/>
<path d="M252.607 223.367C253.508 221.013 254.399 218.668 255.386 216.083C256.863 215.995 259.004 215.875 261.59 215.724C259.493 218.325 257.553 220.742 255.273 223.575C255.019 223.543 253.761 223.407 252.494 223.263L252.607 223.367Z" fill="white"/>
<path d="M404.588 164.134C404.002 165.172 403.565 165.938 402.849 167.198C402.351 165.196 401.975 163.68 401.591 162.116C408.695 161.478 408.965 161.653 407.725 166.392C406.676 165.634 405.724 164.948 404.588 164.127V164.134Z" fill="white"/>
<path d="M459.034 246.13C457.339 246.68 456.028 247.574 455.076 247.326C453.145 246.824 451.397 245.715 449.624 244.773C449.536 244.726 449.903 243.521 450.139 243.497C451.039 243.409 452.035 243.417 452.874 243.688C454.491 244.207 456.037 244.925 459.034 246.13Z" fill="white"/>
<path d="M176.089 140.51C173.957 138.348 171.825 136.186 169.701 134.023C170.129 133.688 170.549 133.353 170.977 133.018C175.512 133.289 175.093 137.462 177.294 139.568C176.893 139.88 176.491 140.199 176.089 140.51Z" fill="white"/>
<path d="M238.041 91.7211C244.029 91.9126 246.904 91.3009 246.665 89.8861L248.413 88.2744C248.684 89.3036 249.427 90.4845 249.103 91.3302C248.701 92.3834 247.592 93.4206 246.499 94.019C243.24 95.7902 240.82 94.1147 238.041 91.7211Z" fill="white"/>
<path d="M252.372 289.15C253.717 286.358 255.072 283.565 256.924 279.719C257.842 282.145 258.322 283.437 258.811 284.722C258.427 284.65 258.051 284.57 257.667 284.499C256.889 285.783 256.033 287.044 255.343 288.368C254.626 289.741 254.172 291.6 252.441 289.03L252.372 289.15Z" fill="white"/>
<path d="M94.8162 184.552C94.6152 189.315 94.4055 194.078 94.2045 198.833C93.4443 198.761 92.6841 198.681 91.9326 198.61C92.9025 193.95 93.8725 189.291 94.8336 184.615C94.8249 184.599 94.8162 184.552 94.8162 184.552Z" fill="white"/>
<path d="M382.21 147.172C380.314 146.677 378.417 146.175 376.521 145.68C377.124 144.77 378.05 143.007 378.269 143.079C379.947 143.622 381.476 144.515 383.057 145.305C382.778 145.927 382.489 146.55 382.21 147.172Z" fill="white"/>
<path d="M421.889 244.997C420.159 246.162 419.119 246.864 418.079 247.566C417.406 246.728 416.174 245.859 416.227 245.061C416.279 244.271 417.564 243.018 418.42 242.938C419.268 242.859 420.264 243.976 421.88 245.005L421.889 244.997Z" fill="white"/>
<path d="M440.221 152.805C441.724 155.302 444.59 156.994 441.357 159.531C440.833 159.938 439.75 159.994 439.024 159.842C438.71 159.778 438.395 158.693 438.518 158.167C438.902 156.555 439.505 154.983 440.221 152.813V152.805Z" fill="white"/>
<path d="M252.494 223.263C251.961 225.362 251.428 227.46 250.895 229.558C250.405 229.534 249.925 229.518 249.435 229.494C248.693 228.306 247.95 227.125 246.919 225.489C249.007 224.707 250.807 224.037 252.607 223.367L252.494 223.263Z" fill="white"/>
<path d="M346.366 110.758C345.204 109.832 344.051 108.915 342.889 107.989C343.824 107.12 344.759 106.258 345.694 105.388L347.974 109.657C347.432 110.024 346.899 110.391 346.358 110.758H346.366Z" fill="white"/>
<path d="M293.519 277.804L289.456 268.27C289.91 268.134 290.364 267.991 290.819 267.855C293.999 270.656 293.667 274.286 293.44 277.892L293.519 277.804Z" fill="white"/>
<path d="M456.911 230.699C454.473 232.215 452.289 232.327 450.838 228.394C452.944 228.721 455.05 229.048 457.156 229.375C457.077 229.814 456.99 230.261 456.911 230.699Z" fill="white"/>
<path d="M458.187 218.221C453.128 215.795 456.431 214.04 456.806 212.189C457.252 210.003 457.138 207.729 457.453 205.503C457.68 209.492 457.916 213.482 458.187 218.229V218.221Z" fill="white"/>
<path d="M413.404 200.349C413.632 198.945 413.859 197.54 414.095 196.136C415.606 196.751 417.109 197.373 418.621 197.987C418.551 198.45 418.472 198.913 418.402 199.376C416.699 199.663 414.995 199.958 413.291 200.245L413.413 200.349H413.404Z" fill="white"/>
<path d="M153.763 183.012C150.547 181.671 147.332 180.331 144.116 178.983C144.291 178.608 144.466 178.225 144.64 177.85C147.935 179.022 151.22 180.203 154.514 181.376C154.261 181.919 154.016 182.461 153.763 183.004V183.012Z" fill="white"/>
<path d="M185.779 78.5565C188.619 77.6949 191.45 76.8412 194.29 75.9874C194.29 75.9874 194.194 75.9236 194.202 75.9316C193.713 76.4103 193.093 76.8172 192.734 77.3598C190.061 81.4288 189.868 81.4767 185.735 78.4927C185.727 78.4767 185.77 78.5565 185.77 78.5565H185.779Z" fill="white"/>
<path d="M455.111 199.479C453.827 197.892 452.865 197.102 452.542 196.128C452.393 195.666 453.468 194.868 453.993 194.221C454.849 194.979 455.924 195.634 456.448 196.551C456.693 196.982 455.862 197.923 455.111 199.471V199.479Z" fill="white"/>
<path d="M140.953 108.723C142.517 112.896 141.119 114.628 135.492 115.194C137.405 112.976 139.214 110.878 141.005 108.763C140.988 108.747 140.953 108.723 140.953 108.723Z" fill="white"/>
<path d="M230.229 91.9287C232.519 92.4154 234.799 92.9021 237.089 93.3808C236.897 94.043 236.704 94.7132 236.512 95.3754C234.258 94.777 232.012 94.1787 229.758 93.5803C229.915 93.0297 230.072 92.4792 230.229 91.9287Z" fill="white"/>
<path d="M339.83 70.6819L339.682 70.8175C342.478 71.7829 342.478 73.6898 338.581 75.9796C339 74.2164 339.411 72.4451 339.83 70.6819Z" fill="white"/>
<path d="M394.364 283.086C396.26 283.39 398.148 283.693 400.044 284.004C399.965 284.586 399.878 285.177 399.799 285.759C397.877 285.592 395.955 285.432 394.023 285.265C394.137 284.539 394.251 283.812 394.364 283.086Z" fill="white"/>
</svg>
