<svg width="159" height="159" viewBox="0 0 159 159" fill="none" xmlns="http://www.w3.org/2000/svg">
<g clip-path="url(#clip0_511_2)">
<mask id="mask0_511_2" style="mask-type:luminance" maskUnits="userSpaceOnUse" x="0" y="0" width="159" height="159">
<path d="M159 0H0V159H159V0Z" fill="white"/>
</mask>
<g mask="url(#mask0_511_2)">
<mask id="mask1_511_2" style="mask-type:luminance" maskUnits="userSpaceOnUse" x="10" y="10" width="139" height="139">
<path d="M14.8398 53H10.0698V57.77H14.8398V53Z" fill="white"/>
<path d="M14.8398 67.3101H10.0698V72.0801H14.8398V67.3101Z" fill="white"/>
<path d="M14.8398 72.0796H10.0698V76.8496H14.8398V72.0796Z" fill="white"/>
<path d="M14.8398 81.6196H10.0698V86.3896H14.8398V81.6196Z" fill="white"/>
<path d="M14.8398 86.3896H10.0698V91.1596H14.8398V86.3896Z" fill="white"/>
<path d="M19.6098 48.23H14.8398V53H19.6098V48.23Z" fill="white"/>
<path d="M19.6098 57.77H14.8398V62.54H19.6098V57.77Z" fill="white"/>
<path d="M19.6098 72.0796H14.8398V76.8496H19.6098V72.0796Z" fill="white"/>
<path d="M19.6098 86.3896H14.8398V91.1596H19.6098V86.3896Z" fill="white"/>
<path d="M19.6098 91.1597H14.8398V95.9297H19.6098V91.1597Z" fill="white"/>
<path d="M19.6098 95.9297H14.8398V100.7H19.6098V95.9297Z" fill="white"/>
<path d="M24.3799 48.23H19.6099V53H24.3799V48.23Z" fill="white"/>
<path d="M24.3799 67.3101H19.6099V72.0801H24.3799V67.3101Z" fill="white"/>
<path d="M24.3799 72.0796H19.6099V76.8496H24.3799V72.0796Z" fill="white"/>
<path d="M24.3799 76.8496H19.6099V81.6196H24.3799V76.8496Z" fill="white"/>
<path d="M24.3799 81.6196H19.6099V86.3896H24.3799V81.6196Z" fill="white"/>
<path d="M24.3799 100.7H19.6099V105.47H24.3799V100.7Z" fill="white"/>
<path d="M29.1499 62.54H24.3799V67.31H29.1499V62.54Z" fill="white"/>
<path d="M29.1499 67.3101H24.3799V72.0801H29.1499V67.3101Z" fill="white"/>
<path d="M29.1499 76.8496H24.3799V81.6196H29.1499V76.8496Z" fill="white"/>
<path d="M29.1499 81.6196H24.3799V86.3896H29.1499V81.6196Z" fill="white"/>
<path d="M29.1499 91.1597H24.3799V95.9297H29.1499V91.1597Z" fill="white"/>
<path d="M29.1499 95.9297H24.3799V100.7H29.1499V95.9297Z" fill="white"/>
<path d="M29.1499 105.47H24.3799V110.24H29.1499V105.47Z" fill="white"/>
<path d="M33.9199 62.54H29.1499V67.31H33.9199V62.54Z" fill="white"/>
<path d="M33.9199 72.0796H29.1499V76.8496H33.9199V72.0796Z" fill="white"/>
<path d="M33.9199 76.8496H29.1499V81.6196H33.9199V76.8496Z" fill="white"/>
<path d="M33.9199 81.6196H29.1499V86.3896H33.9199V81.6196Z" fill="white"/>
<path d="M33.9199 100.7H29.1499V105.47H33.9199V100.7Z" fill="white"/>
<path d="M38.6899 53H33.9199V57.77H38.6899V53Z" fill="white"/>
<path d="M38.6899 62.54H33.9199V67.31H38.6899V62.54Z" fill="white"/>
<path d="M38.6899 72.0796H33.9199V76.8496H38.6899V72.0796Z" fill="white"/>
<path d="M38.6899 91.1597H33.9199V95.9297H38.6899V91.1597Z" fill="white"/>
<path d="M38.6899 95.9297H33.9199V100.7H38.6899V95.9297Z" fill="white"/>
<path d="M38.6899 100.7H33.9199V105.47H38.6899V100.7Z" fill="white"/>
<path d="M38.6899 105.47H33.9199V110.24H38.6899V105.47Z" fill="white"/>
<path d="M43.4599 48.23H38.6899V53H43.4599V48.23Z" fill="white"/>
<path d="M43.4599 57.77H38.6899V62.54H43.4599V57.77Z" fill="white"/>
<path d="M43.4599 67.3101H38.6899V72.0801H43.4599V67.3101Z" fill="white"/>
<path d="M43.4599 76.8496H38.6899V81.6196H43.4599V76.8496Z" fill="white"/>
<path d="M43.4599 86.3896H38.6899V91.1596H43.4599V86.3896Z" fill="white"/>
<path d="M43.4599 95.9297H38.6899V100.7H43.4599V95.9297Z" fill="white"/>
<path d="M43.4599 105.47H38.6899V110.24H43.4599V105.47Z" fill="white"/>
<path d="M48.23 53H43.46V57.77H48.23V53Z" fill="white"/>
<path d="M48.23 62.54H43.46V67.31H48.23V62.54Z" fill="white"/>
<path d="M48.23 67.3101H43.46V72.0801H48.23V67.3101Z" fill="white"/>
<path d="M48.23 72.0796H43.46V76.8496H48.23V72.0796Z" fill="white"/>
<path d="M48.23 76.8496H43.46V81.6196H48.23V76.8496Z" fill="white"/>
<path d="M53 14.8398H48.23V19.6098H53V14.8398Z" fill="white"/>
<path d="M53 19.6099H48.23V24.3799H53V19.6099Z" fill="white"/>
<path d="M53 24.3799H48.23V29.1499H53V24.3799Z" fill="white"/>
<path d="M53 33.9199H48.23V38.6899H53V33.9199Z" fill="white"/>
<path d="M53 38.6899H48.23V43.4599H53V38.6899Z" fill="white"/>
<path d="M53 57.77H48.23V62.54H53V57.77Z" fill="white"/>
<path d="M53 67.3101H48.23V72.0801H53V67.3101Z" fill="white"/>
<path d="M53 72.0796H48.23V76.8496H53V72.0796Z" fill="white"/>
<path d="M53 76.8496H48.23V81.6196H53V76.8496Z" fill="white"/>
<path d="M53 81.6196H48.23V86.3896H53V81.6196Z" fill="white"/>
<path d="M53 95.9297H48.23V100.7H53V95.9297Z" fill="white"/>
<path d="M53 100.7H48.23V105.47H53V100.7Z" fill="white"/>
<path d="M53 134.09H48.23V138.86H53V134.09Z" fill="white"/>
<path d="M53 138.86H48.23V143.63H53V138.86Z" fill="white"/>
<path d="M57.77 19.6099H53V24.3799H57.77V19.6099Z" fill="white"/>
<path d="M57.77 24.3799H53V29.1499H57.77V24.3799Z" fill="white"/>
<path d="M57.77 33.9199H53V38.6899H57.77V33.9199Z" fill="white"/>
<path d="M57.77 48.23H53V53H57.77V48.23Z" fill="white"/>
<path d="M57.77 53H53V57.77H57.77V53Z" fill="white"/>
<path d="M57.77 57.77H53V62.54H57.77V57.77Z" fill="white"/>
<path d="M57.77 67.3101H53V72.0801H57.77V67.3101Z" fill="white"/>
<path d="M57.77 72.0796H53V76.8496H57.77V72.0796Z" fill="white"/>
<path d="M57.77 86.3896H53V91.1596H57.77V86.3896Z" fill="white"/>
<path d="M57.77 91.1597H53V95.9297H57.77V91.1597Z" fill="white"/>
<path d="M57.77 95.9297H53V100.7H57.77V95.9297Z" fill="white"/>
<path d="M57.77 105.47H53V110.24H57.77V105.47Z" fill="white"/>
<path d="M57.77 110.24H53V115.01H57.77V110.24Z" fill="white"/>
<path d="M57.77 119.78H53V124.55H57.77V119.78Z" fill="white"/>
<path d="M57.77 124.55H53V129.32H57.77V124.55Z" fill="white"/>
<path d="M57.77 129.32H53V134.09H57.77V129.32Z" fill="white"/>
<path d="M57.77 134.09H53V138.86H57.77V134.09Z" fill="white"/>
<path d="M57.77 143.63H53V148.4H57.77V143.63Z" fill="white"/>
<path d="M62.5398 14.8398H57.7698V19.6098H62.5398V14.8398Z" fill="white"/>
<path d="M62.5398 29.1499H57.7698V33.9199H62.5398V29.1499Z" fill="white"/>
<path d="M62.5398 33.9199H57.7698V38.6899H62.5398V33.9199Z" fill="white"/>
<path d="M62.5398 38.6899H57.7698V43.4599H62.5398V38.6899Z" fill="white"/>
<path d="M62.5398 43.46H57.7698V48.23H62.5398V43.46Z" fill="white"/>
<path d="M62.5398 48.23H57.7698V53H62.5398V48.23Z" fill="white"/>
<path d="M62.5398 53H57.7698V57.77H62.5398V53Z" fill="white"/>
<path d="M62.5398 62.54H57.7698V67.31H62.5398V62.54Z" fill="white"/>
<path d="M62.5398 76.8496H57.7698V81.6196H62.5398V76.8496Z" fill="white"/>
<path d="M62.5398 81.6196H57.7698V86.3896H62.5398V81.6196Z" fill="white"/>
<path d="M62.5398 91.1597H57.7698V95.9297H62.5398V91.1597Z" fill="white"/>
<path d="M62.5398 95.9297H57.7698V100.7H62.5398V95.9297Z" fill="white"/>
<path d="M62.5398 100.7H57.7698V105.47H62.5398V100.7Z" fill="white"/>
<path d="M62.5398 105.47H57.7698V110.24H62.5398V105.47Z" fill="white"/>
<path d="M62.5398 115.01H57.7698V119.78H62.5398V115.01Z" fill="white"/>
<path d="M62.5398 129.32H57.7698V134.09H62.5398V129.32Z" fill="white"/>
<path d="M62.5398 134.09H57.7698V138.86H62.5398V134.09Z" fill="white"/>
<path d="M62.5398 138.86H57.7698V143.63H62.5398V138.86Z" fill="white"/>
<path d="M67.3098 14.8398H62.5398V19.6098H67.3098V14.8398Z" fill="white"/>
<path d="M67.3098 19.6099H62.5398V24.3799H67.3098V19.6099Z" fill="white"/>
<path d="M67.3098 53H62.5398V57.77H67.3098V53Z" fill="white"/>
<path d="M67.3098 62.54H62.5398V67.31H67.3098V62.54Z" fill="white"/>
<path d="M67.3098 76.8496H62.5398V81.6196H67.3098V76.8496Z" fill="white"/>
<path d="M67.3098 81.6196H62.5398V86.3896H67.3098V81.6196Z" fill="white"/>
<path d="M67.3098 95.9297H62.5398V100.7H67.3098V95.9297Z" fill="white"/>
<path d="M67.3098 105.47H62.5398V110.24H67.3098V105.47Z" fill="white"/>
<path d="M67.3098 129.32H62.5398V134.09H67.3098V129.32Z" fill="white"/>
<path d="M67.3098 143.63H62.5398V148.4H67.3098V143.63Z" fill="white"/>
<path d="M72.0798 29.1499H67.3098V33.9199H72.0798V29.1499Z" fill="white"/>
<path d="M72.0798 33.9199H67.3098V38.6899H72.0798V33.9199Z" fill="white"/>
<path d="M72.0798 38.6899H67.3098V43.4599H72.0798V38.6899Z" fill="white"/>
<path d="M72.0798 48.23H67.3098V53H72.0798V48.23Z" fill="white"/>
<path d="M72.0798 62.54H67.3098V67.31H72.0798V62.54Z" fill="white"/>
<path d="M72.0798 67.3101H67.3098V72.0801H72.0798V67.3101Z" fill="white"/>
<path d="M72.0798 72.0796H67.3098V76.8496H72.0798V72.0796Z" fill="white"/>
<path d="M72.0798 81.6196H67.3098V86.3896H72.0798V81.6196Z" fill="white"/>
<path d="M72.0798 91.1597H67.3098V95.9297H72.0798V91.1597Z" fill="white"/>
<path d="M72.0798 100.7H67.3098V105.47H72.0798V100.7Z" fill="white"/>
<path d="M72.0798 110.24H67.3098V115.01H72.0798V110.24Z" fill="white"/>
<path d="M72.0798 119.78H67.3098V124.55H72.0798V119.78Z" fill="white"/>
<path d="M72.0798 134.09H67.3098V138.86H72.0798V134.09Z" fill="white"/>
<path d="M72.0798 138.86H67.3098V143.63H72.0798V138.86Z" fill="white"/>
<path d="M72.0798 143.63H67.3098V148.4H72.0798V143.63Z" fill="white"/>
<path d="M76.8498 10.0698H72.0798V14.8398H76.8498V10.0698Z" fill="white"/>
<path d="M76.8498 19.6099H72.0798V24.3799H76.8498V19.6099Z" fill="white"/>
<path d="M76.8498 24.3799H72.0798V29.1499H76.8498V24.3799Z" fill="white"/>
<path d="M76.8498 43.46H72.0798V48.23H76.8498V43.46Z" fill="white"/>
<path d="M76.8498 53H72.0798V57.77H76.8498V53Z" fill="white"/>
<path d="M76.8498 67.3101H72.0798V72.0801H76.8498V67.3101Z" fill="white"/>
<path d="M76.8498 72.0796H72.0798V76.8496H76.8498V72.0796Z" fill="white"/>
<path d="M76.8498 76.8496H72.0798V81.6196H76.8498V76.8496Z" fill="white"/>
<path d="M76.8498 81.6196H72.0798V86.3896H76.8498V81.6196Z" fill="white"/>
<path d="M76.8498 91.1597H72.0798V95.9297H76.8498V91.1597Z" fill="white"/>
<path d="M76.8498 95.9297H72.0798V100.7H76.8498V95.9297Z" fill="white"/>
<path d="M76.8498 100.7H72.0798V105.47H76.8498V100.7Z" fill="white"/>
<path d="M76.8498 115.01H72.0798V119.78H76.8498V115.01Z" fill="white"/>
<path d="M76.8498 119.78H72.0798V124.55H76.8498V119.78Z" fill="white"/>
<path d="M76.8498 129.32H72.0798V134.09H76.8498V129.32Z" fill="white"/>
<path d="M76.8498 134.09H72.0798V138.86H76.8498V134.09Z" fill="white"/>
<path d="M76.8498 143.63H72.0798V148.4H76.8498V143.63Z" fill="white"/>
<path d="M81.6199 14.8398H76.8499V19.6098H81.6199V14.8398Z" fill="white"/>
<path d="M81.6199 24.3799H76.8499V29.1499H81.6199V24.3799Z" fill="white"/>
<path d="M81.6199 38.6899H76.8499V43.4599H81.6199V38.6899Z" fill="white"/>
<path d="M81.6199 43.46H76.8499V48.23H81.6199V43.46Z" fill="white"/>
<path d="M81.6199 48.23H76.8499V53H81.6199V48.23Z" fill="white"/>
<path d="M81.6199 53H76.8499V57.77H81.6199V53Z" fill="white"/>
<path d="M81.6199 62.54H76.8499V67.31H81.6199V62.54Z" fill="white"/>
<path d="M81.6199 67.3101H76.8499V72.0801H81.6199V67.3101Z" fill="white"/>
<path d="M81.6199 86.3896H76.8499V91.1596H81.6199V86.3896Z" fill="white"/>
<path d="M81.6199 100.7H76.8499V105.47H81.6199V100.7Z" fill="white"/>
<path d="M81.6199 105.47H76.8499V110.24H81.6199V105.47Z" fill="white"/>
<path d="M81.6199 110.24H76.8499V115.01H81.6199V110.24Z" fill="white"/>
<path d="M81.6199 115.01H76.8499V119.78H81.6199V115.01Z" fill="white"/>
<path d="M81.6199 119.78H76.8499V124.55H81.6199V119.78Z" fill="white"/>
<path d="M81.6199 124.55H76.8499V129.32H81.6199V124.55Z" fill="white"/>
<path d="M81.6199 129.32H76.8499V134.09H81.6199V129.32Z" fill="white"/>
<path d="M81.6199 138.86H76.8499V143.63H81.6199V138.86Z" fill="white"/>
<path d="M81.6199 143.63H76.8499V148.4H81.6199V143.63Z" fill="white"/>
<path d="M86.3899 24.3799H81.6199V29.1499H86.3899V24.3799Z" fill="white"/>
<path d="M86.3899 33.9199H81.6199V38.6899H86.3899V33.9199Z" fill="white"/>
<path d="M86.3899 43.46H81.6199V48.23H86.3899V43.46Z" fill="white"/>
<path d="M86.3899 62.54H81.6199V67.31H86.3899V62.54Z" fill="white"/>
<path d="M86.3899 76.8496H81.6199V81.6196H86.3899V76.8496Z" fill="white"/>
<path d="M86.3899 81.6196H81.6199V86.3896H86.3899V81.6196Z" fill="white"/>
<path d="M86.3899 86.3896H81.6199V91.1596H86.3899V86.3896Z" fill="white"/>
<path d="M86.3899 100.7H81.6199V105.47H86.3899V100.7Z" fill="white"/>
<path d="M86.3899 105.47H81.6199V110.24H86.3899V105.47Z" fill="white"/>
<path d="M86.3899 110.24H81.6199V115.01H86.3899V110.24Z" fill="white"/>
<path d="M86.3899 115.01H81.6199V119.78H86.3899V115.01Z" fill="white"/>
<path d="M86.3899 124.55H81.6199V129.32H86.3899V124.55Z" fill="white"/>
<path d="M86.3899 129.32H81.6199V134.09H86.3899V129.32Z" fill="white"/>
<path d="M86.3899 143.63H81.6199V148.4H86.3899V143.63Z" fill="white"/>
<path d="M91.1599 19.6099H86.3899V24.3799H91.1599V19.6099Z" fill="white"/>
<path d="M91.1599 24.3799H86.3899V29.1499H91.1599V24.3799Z" fill="white"/>
<path d="M91.1599 38.6899H86.3899V43.4599H91.1599V38.6899Z" fill="white"/>
<path d="M91.1599 43.46H86.3899V48.23H91.1599V43.46Z" fill="white"/>
<path d="M91.1599 53H86.3899V57.77H91.1599V53Z" fill="white"/>
<path d="M91.1599 62.54H86.3899V67.31H91.1599V62.54Z" fill="white"/>
<path d="M91.1599 72.0796H86.3899V76.8496H91.1599V72.0796Z" fill="white"/>
<path d="M91.1599 76.8496H86.3899V81.6196H91.1599V76.8496Z" fill="white"/>
<path d="M91.1599 91.1597H86.3899V95.9297H91.1599V91.1597Z" fill="white"/>
<path d="M91.1599 105.47H86.3899V110.24H91.1599V105.47Z" fill="white"/>
<path d="M91.1599 129.32H86.3899V134.09H91.1599V129.32Z" fill="white"/>
<path d="M91.1599 138.86H86.3899V143.63H91.1599V138.86Z" fill="white"/>
<path d="M91.1599 143.63H86.3899V148.4H91.1599V143.63Z" fill="white"/>
<path d="M95.9299 14.8398H91.1599V19.6098H95.9299V14.8398Z" fill="white"/>
<path d="M95.9299 19.6099H91.1599V24.3799H95.9299V19.6099Z" fill="white"/>
<path d="M95.9299 43.46H91.1599V48.23H95.9299V43.46Z" fill="white"/>
<path d="M95.9299 48.23H91.1599V53H95.9299V48.23Z" fill="white"/>
<path d="M95.9299 57.77H91.1599V62.54H95.9299V57.77Z" fill="white"/>
<path d="M95.9299 76.8496H91.1599V81.6196H95.9299V76.8496Z" fill="white"/>
<path d="M95.9299 95.9297H91.1599V100.7H95.9299V95.9297Z" fill="white"/>
<path d="M95.9299 100.7H91.1599V105.47H95.9299V100.7Z" fill="white"/>
<path d="M95.9299 110.24H91.1599V115.01H95.9299V110.24Z" fill="white"/>
<path d="M95.9299 119.78H91.1599V124.55H95.9299V119.78Z" fill="white"/>
<path d="M95.9299 134.09H91.1599V138.86H95.9299V134.09Z" fill="white"/>
<path d="M100.7 10.0698H95.9299V14.8398H100.7V10.0698Z" fill="white"/>
<path d="M100.7 29.1499H95.9299V33.9199H100.7V29.1499Z" fill="white"/>
<path d="M100.7 33.9199H95.9299V38.6899H100.7V33.9199Z" fill="white"/>
<path d="M100.7 38.6899H95.9299V43.4599H100.7V38.6899Z" fill="white"/>
<path d="M100.7 43.46H95.9299V48.23H100.7V43.46Z" fill="white"/>
<path d="M100.7 48.23H95.9299V53H100.7V48.23Z" fill="white"/>
<path d="M100.7 72.0796H95.9299V76.8496H100.7V72.0796Z" fill="white"/>
<path d="M100.7 76.8496H95.9299V81.6196H100.7V76.8496Z" fill="white"/>
<path d="M100.7 95.9297H95.9299V100.7H100.7V95.9297Z" fill="white"/>
<path d="M100.7 105.47H95.9299V110.24H100.7V105.47Z" fill="white"/>
<path d="M100.7 115.01H95.9299V119.78H100.7V115.01Z" fill="white"/>
<path d="M100.7 124.55H95.9299V129.32H100.7V124.55Z" fill="white"/>
<path d="M100.7 129.32H95.9299V134.09H100.7V129.32Z" fill="white"/>
<path d="M100.7 134.09H95.9299V138.86H100.7V134.09Z" fill="white"/>
<path d="M105.47 19.6099H100.7V24.3799H105.47V19.6099Z" fill="white"/>
<path d="M105.47 24.3799H100.7V29.1499H105.47V24.3799Z" fill="white"/>
<path d="M105.47 29.1499H100.7V33.9199H105.47V29.1499Z" fill="white"/>
<path d="M105.47 33.9199H100.7V38.6899H105.47V33.9199Z" fill="white"/>
<path d="M105.47 43.46H100.7V48.23H105.47V43.46Z" fill="white"/>
<path d="M105.47 48.23H100.7V53H105.47V48.23Z" fill="white"/>
<path d="M105.47 53H100.7V57.77H105.47V53Z" fill="white"/>
<path d="M105.47 57.77H100.7V62.54H105.47V57.77Z" fill="white"/>
<path d="M105.47 62.54H100.7V67.31H105.47V62.54Z" fill="white"/>
<path d="M105.47 67.3101H100.7V72.0801H105.47V67.3101Z" fill="white"/>
<path d="M105.47 72.0796H100.7V76.8496H105.47V72.0796Z" fill="white"/>
<path d="M105.47 76.8496H100.7V81.6196H105.47V76.8496Z" fill="white"/>
<path d="M105.47 81.6196H100.7V86.3896H105.47V81.6196Z" fill="white"/>
<path d="M105.47 86.3896H100.7V91.1596H105.47V86.3896Z" fill="white"/>
<path d="M105.47 91.1597H100.7V95.9297H105.47V91.1597Z" fill="white"/>
<path d="M105.47 95.9297H100.7V100.7H105.47V95.9297Z" fill="white"/>
<path d="M105.47 105.47H100.7V110.24H105.47V105.47Z" fill="white"/>
<path d="M105.47 110.24H100.7V115.01H105.47V110.24Z" fill="white"/>
<path d="M105.47 115.01H100.7V119.78H105.47V115.01Z" fill="white"/>
<path d="M105.47 129.32H100.7V134.09H105.47V129.32Z" fill="white"/>
<path d="M105.47 134.09H100.7V138.86H105.47V134.09Z" fill="white"/>
<path d="M105.47 138.86H100.7V143.63H105.47V138.86Z" fill="white"/>
<path d="M110.24 14.8398H105.47V19.6098H110.24V14.8398Z" fill="white"/>
<path d="M110.24 24.3799H105.47V29.1499H110.24V24.3799Z" fill="white"/>
<path d="M110.24 29.1499H105.47V33.9199H110.24V29.1499Z" fill="white"/>
<path d="M110.24 33.9199H105.47V38.6899H110.24V33.9199Z" fill="white"/>
<path d="M110.24 38.6899H105.47V43.4599H110.24V38.6899Z" fill="white"/>
<path d="M110.24 48.23H105.47V53H110.24V48.23Z" fill="white"/>
<path d="M110.24 53H105.47V57.77H110.24V53Z" fill="white"/>
<path d="M110.24 67.3101H105.47V72.0801H110.24V67.3101Z" fill="white"/>
<path d="M110.24 72.0796H105.47V76.8496H110.24V72.0796Z" fill="white"/>
<path d="M110.24 76.8496H105.47V81.6196H110.24V76.8496Z" fill="white"/>
<path d="M110.24 81.6196H105.47V86.3896H110.24V81.6196Z" fill="white"/>
<path d="M110.24 86.3896H105.47V91.1596H110.24V86.3896Z" fill="white"/>
<path d="M110.24 91.1597H105.47V95.9297H110.24V91.1597Z" fill="white"/>
<path d="M110.24 95.9297H105.47V100.7H110.24V95.9297Z" fill="white"/>
<path d="M110.24 100.7H105.47V105.47H110.24V100.7Z" fill="white"/>
<path d="M110.24 105.47H105.47V110.24H110.24V105.47Z" fill="white"/>
<path d="M110.24 110.24H105.47V115.01H110.24V110.24Z" fill="white"/>
<path d="M110.24 115.01H105.47V119.78H110.24V115.01Z" fill="white"/>
<path d="M110.24 119.78H105.47V124.55H110.24V119.78Z" fill="white"/>
<path d="M110.24 124.55H105.47V129.32H110.24V124.55Z" fill="white"/>
<path d="M110.24 129.32H105.47V134.09H110.24V129.32Z" fill="white"/>
<path d="M115.01 48.23H110.24V53H115.01V48.23Z" fill="white"/>
<path d="M115.01 53H110.24V57.77H115.01V53Z" fill="white"/>
<path d="M115.01 62.54H110.24V67.31H115.01V62.54Z" fill="white"/>
<path d="M115.01 86.3896H110.24V91.1596H115.01V86.3896Z" fill="white"/>
<path d="M115.01 91.1597H110.24V95.9297H115.01V91.1597Z" fill="white"/>
<path d="M115.01 105.47H110.24V110.24H115.01V105.47Z" fill="white"/>
<path d="M115.01 124.55H110.24V129.32H115.01V124.55Z" fill="white"/>
<path d="M115.01 129.32H110.24V134.09H115.01V129.32Z" fill="white"/>
<path d="M115.01 138.86H110.24V143.63H115.01V138.86Z" fill="white"/>
<path d="M115.01 143.63H110.24V148.4H115.01V143.63Z" fill="white"/>
<path d="M119.78 53H115.01V57.77H119.78V53Z" fill="white"/>
<path d="M119.78 57.77H115.01V62.54H119.78V57.77Z" fill="white"/>
<path d="M119.78 67.3101H115.01V72.0801H119.78V67.3101Z" fill="white"/>
<path d="M119.78 72.0796H115.01V76.8496H119.78V72.0796Z" fill="white"/>
<path d="M119.78 95.9297H115.01V100.7H119.78V95.9297Z" fill="white"/>
<path d="M119.78 100.7H115.01V105.47H119.78V100.7Z" fill="white"/>
<path d="M119.78 105.47H115.01V110.24H119.78V105.47Z" fill="white"/>
<path d="M119.78 115.01H115.01V119.78H119.78V115.01Z" fill="white"/>
<path d="M119.78 124.55H115.01V129.32H119.78V124.55Z" fill="white"/>
<path d="M119.78 134.09H115.01V138.86H119.78V134.09Z" fill="white"/>
<path d="M119.78 138.86H115.01V143.63H119.78V138.86Z" fill="white"/>
<path d="M124.55 48.23H119.78V53H124.55V48.23Z" fill="white"/>
<path d="M124.55 53H119.78V57.77H124.55V53Z" fill="white"/>
<path d="M124.55 76.8496H119.78V81.6196H124.55V76.8496Z" fill="white"/>
<path d="M124.55 81.6196H119.78V86.3896H124.55V81.6196Z" fill="white"/>
<path d="M124.55 91.1597H119.78V95.9297H124.55V91.1597Z" fill="white"/>
<path d="M124.55 105.47H119.78V110.24H124.55V105.47Z" fill="white"/>
<path d="M124.55 124.55H119.78V129.32H124.55V124.55Z" fill="white"/>
<path d="M124.55 138.86H119.78V143.63H124.55V138.86Z" fill="white"/>
<path d="M129.32 57.77H124.55V62.54H129.32V57.77Z" fill="white"/>
<path d="M129.32 67.3101H124.55V72.0801H129.32V67.3101Z" fill="white"/>
<path d="M129.32 76.8496H124.55V81.6196H129.32V76.8496Z" fill="white"/>
<path d="M129.32 86.3896H124.55V91.1596H129.32V86.3896Z" fill="white"/>
<path d="M129.32 105.47H124.55V110.24H129.32V105.47Z" fill="white"/>
<path d="M129.32 110.24H124.55V115.01H129.32V110.24Z" fill="white"/>
<path d="M129.32 115.01H124.55V119.78H129.32V115.01Z" fill="white"/>
<path d="M129.32 119.78H124.55V124.55H129.32V119.78Z" fill="white"/>
<path d="M129.32 124.55H124.55V129.32H129.32V124.55Z" fill="white"/>
<path d="M129.32 129.32H124.55V134.09H129.32V129.32Z" fill="white"/>
<path d="M129.32 134.09H124.55V138.86H129.32V134.09Z" fill="white"/>
<path d="M129.32 138.86H124.55V143.63H129.32V138.86Z" fill="white"/>
<path d="M134.09 48.23H129.32V53H134.09V48.23Z" fill="white"/>
<path d="M134.09 67.3101H129.32V72.0801H134.09V67.3101Z" fill="white"/>
<path d="M134.09 91.1597H129.32V95.9297H134.09V91.1597Z" fill="white"/>
<path d="M134.09 100.7H129.32V105.47H134.09V100.7Z" fill="white"/>
<path d="M134.09 124.55H129.32V129.32H134.09V124.55Z" fill="white"/>
<path d="M134.09 138.86H129.32V143.63H134.09V138.86Z" fill="white"/>
<path d="M138.86 48.23H134.09V53H138.86V48.23Z" fill="white"/>
<path d="M138.86 62.54H134.09V67.31H138.86V62.54Z" fill="white"/>
<path d="M138.86 76.8496H134.09V81.6196H138.86V76.8496Z" fill="white"/>
<path d="M138.86 91.1597H134.09V95.9297H138.86V91.1597Z" fill="white"/>
<path d="M138.86 105.47H134.09V110.24H138.86V105.47Z" fill="white"/>
<path d="M138.86 119.78H134.09V124.55H138.86V119.78Z" fill="white"/>
<path d="M138.86 129.32H134.09V134.09H138.86V129.32Z" fill="white"/>
<path d="M138.86 134.09H134.09V138.86H138.86V134.09Z" fill="white"/>
<path d="M138.86 143.63H134.09V148.4H138.86V143.63Z" fill="white"/>
<path d="M143.63 48.23H138.86V53H143.63V48.23Z" fill="white"/>
<path d="M143.63 53H138.86V57.77H143.63V53Z" fill="white"/>
<path d="M143.63 62.54H138.86V67.31H143.63V62.54Z" fill="white"/>
<path d="M143.63 72.0796H138.86V76.8496H143.63V72.0796Z" fill="white"/>
<path d="M143.63 81.6196H138.86V86.3896H143.63V81.6196Z" fill="white"/>
<path d="M143.63 95.9297H138.86V100.7H143.63V95.9297Z" fill="white"/>
<path d="M143.63 105.47H138.86V110.24H143.63V105.47Z" fill="white"/>
<path d="M143.63 124.55H138.86V129.32H143.63V124.55Z" fill="white"/>
<path d="M143.63 129.32H138.86V134.09H143.63V129.32Z" fill="white"/>
<path d="M143.63 138.86H138.86V143.63H143.63V138.86Z" fill="white"/>
<path d="M148.4 53H143.63V57.77H148.4V53Z" fill="white"/>
<path d="M148.4 57.77H143.63V62.54H148.4V57.77Z" fill="white"/>
<path d="M148.4 67.3101H143.63V72.0801H148.4V67.3101Z" fill="white"/>
<path d="M148.4 100.7H143.63V105.47H148.4V100.7Z" fill="white"/>
<path d="M148.4 105.47H143.63V110.24H148.4V105.47Z" fill="white"/>
<path d="M148.4 110.24H143.63V115.01H148.4V110.24Z" fill="white"/>
<path d="M148.4 119.78H143.63V124.55H148.4V119.78Z" fill="white"/>
<path d="M148.4 129.32H143.63V134.09H148.4V129.32Z" fill="white"/>
<path d="M148.4 134.09H143.63V138.86H148.4V134.09Z" fill="white"/>
<path d="M148.4 138.86H143.63V143.63H148.4V138.86Z" fill="white"/>
</mask>
<g mask="url(#mask1_511_2)">
<path d="M159 0H0V159H159V0Z" fill="white"/>
</g>
<mask id="mask2_511_2" style="mask-type:luminance" maskUnits="userSpaceOnUse" x="10" y="10" width="34" height="34">
<path fill-rule="evenodd" clip-rule="evenodd" d="M10.0698 10.0698V43.4598H43.4598V10.0698H10.0698ZM14.8398 14.8398H38.6898V38.6898H14.8398V14.8398Z" fill="white"/>
</mask>
<g mask="url(#mask2_511_2)">
<path d="M43.4598 10.0698H10.0698V43.4598H43.4598V10.0698Z" fill="white"/>
</g>
<mask id="mask3_511_2" style="mask-type:luminance" maskUnits="userSpaceOnUse" x="19" y="19" width="15" height="15">
<path d="M33.9199 19.6099H19.6099V33.9199H33.9199V19.6099Z" fill="white"/>
</mask>
<g mask="url(#mask3_511_2)">
<path d="M33.9199 19.6099H19.6099V33.9199H33.9199V19.6099Z" fill="white"/>
</g>
<mask id="mask4_511_2" style="mask-type:luminance" maskUnits="userSpaceOnUse" x="115" y="10" width="34" height="34">
<path fill-rule="evenodd" clip-rule="evenodd" d="M148.4 10.0698H115.01V43.4598H148.4V10.0698ZM143.63 14.8398V38.6898H119.78V14.8398H143.63Z" fill="white"/>
</mask>
<g mask="url(#mask4_511_2)">
<path d="M148.4 10.0698H115.01V43.4598H148.4V10.0698Z" fill="white"/>
</g>
<mask id="mask5_511_2" style="mask-type:luminance" maskUnits="userSpaceOnUse" x="124" y="19" width="15" height="15">
<path d="M138.86 33.9199V19.6099H124.55V33.9199H138.86Z" fill="white"/>
</mask>
<g mask="url(#mask5_511_2)">
<path d="M138.86 19.6099H124.55V33.9199H138.86V19.6099Z" fill="white"/>
</g>
<mask id="mask6_511_2" style="mask-type:luminance" maskUnits="userSpaceOnUse" x="10" y="115" width="34" height="34">
<path fill-rule="evenodd" clip-rule="evenodd" d="M10.0698 148.4H43.4598V115.01H10.0698V148.4ZM14.8398 143.63V119.78H38.6898V143.63H14.8398Z" fill="white"/>
</mask>
<g mask="url(#mask6_511_2)">
<path d="M43.4598 115.01H10.0698V148.4H43.4598V115.01Z" fill="white"/>
</g>
<mask id="mask7_511_2" style="mask-type:luminance" maskUnits="userSpaceOnUse" x="19" y="124" width="15" height="15">
<path d="M19.6099 124.55V138.86H33.9199V124.55H19.6099Z" fill="white"/>
</mask>
<g mask="url(#mask7_511_2)">
<path d="M33.9199 124.55H19.6099V138.86H33.9199V124.55Z" fill="white"/>
</g>
</g>
</g>
<defs>
<clipPath id="clip0_511_2">
<rect width="159" height="159" fill="white"/>
</clipPath>
</defs>
</svg>
