<svg width="428" height="360" viewBox="0 0 428 360" fill="none" xmlns="http://www.w3.org/2000/svg">
<g clip-path="url(#clip0_254_2944)">
<rect width="430" height="360" fill="#FAAB28"/>
<g clip-path="url(#clip1_254_2944)">
<path d="M148.105 59.2424C146.445 150.758 143.32 242.316 143.487 333.811C143.736 464.026 145.479 594.325 148.396 724.392C150.16 802.74 154.8 880.962 166.995 955.739C168.801 966.813 171.479 977.423 174.416 987.315C175.828 992.07 178.776 994.67 181.038 998.263C181.578 991.901 183.052 985.138 182.491 979.283C179.398 946.672 174.354 914.652 172.683 881.765C167.67 783.105 162.055 684.319 160.114 585.279C157.675 461.088 157.415 336.538 158.547 212.241C159.408 117.217 163.892 22.3401 166.808 -72.5996C166.933 -76.7422 167.213 -80.9482 167.774 -84.9005C168.199 -87.9017 169.175 -90.5436 169.901 -93.3335C170.711 -90.4802 172.237 -87.5846 172.216 -84.7526C172.143 -71.1625 172.631 -57.0441 171.147 -44.067C163.695 21.4102 169.455 84.7316 176.824 147.968C179.243 168.745 181.661 189.499 184.214 210.191C184.526 212.685 185.657 214.693 186.404 216.933C186.467 214.101 186.799 211.163 186.55 208.479C181.806 157.162 175.942 106.184 172.621 54.4236C170.773 25.595 173.088 -4.50171 173.711 -34.0277C173.773 -36.7542 175.216 -39.3538 176.025 -42.0168C176.523 -39.4171 177.312 -36.902 177.489 -34.1968C179.803 1.09924 181.754 36.522 184.443 71.6911C185.159 81.054 188.055 89.6349 189.954 98.5963C189.809 89.1066 190.068 79.4901 189.435 70.1694C188.003 49.013 185.491 28.089 184.712 6.84802C184.308 -4.24805 186.643 -15.8091 187.774 -27.1588C187.868 -28.131 188.273 -28.9552 188.532 -29.8429C189.061 -27.9196 189.861 -26.1019 190.068 -24.0306C191.552 -9.51068 192.871 5.09375 194.334 19.6348C206.353 139.409 218.549 259.098 230.142 379.062C231.315 391.257 230.588 407.32 227.776 417.824C212.736 474.044 203.8 535.019 196.213 597.263C195.86 600.137 195.33 603.054 195.341 605.949C195.341 609.098 195.87 612.248 196.171 615.397C197.323 613.156 198.942 611.402 199.534 608.612C203.073 591.873 206.218 574.732 209.778 558.036C216.452 526.755 223.24 495.581 230.194 464.575C231.398 459.228 233.619 454.959 235.373 450.182C236.224 456.269 237.387 462.25 237.885 468.464C240.864 505.388 243.479 542.438 246.707 579.255C247.517 588.492 250.143 596.967 251.938 605.801C252.955 596.079 255.322 585.976 254.761 576.698C251.71 526.607 247.787 476.77 244.569 426.722C244.04 418.5 244.445 408.419 246.23 401.36C259.93 347.148 274.056 293.443 288.11 239.653C288.826 236.927 290.123 234.94 291.151 232.615C291.493 237.815 292.334 243.098 292.116 248.171C289.303 313.817 286.895 379.59 283.211 445.025C281.218 480.363 276.973 515.089 273.828 550.131C273.257 556.514 272.821 563.108 272.852 569.575C272.873 573.803 273.817 578.03 274.357 582.236C274.938 578.051 275.675 573.95 276.059 569.702C280.045 526.544 285.151 483.682 287.642 440.122C291.836 366.486 294.296 292.386 297.669 218.518C298.115 208.69 298.738 198.122 300.762 189.563C314.763 130.299 329.118 71.4164 343.586 12.6814C344.084 10.6524 344.977 -9.87006 348.724 10.1028C350.083 7.60883 352.263 5.62219 352.678 2.51532C355.595 -19.1696 358.086 -41.108 360.847 -62.8773C361.324 -66.6394 362.455 -69.9999 363.286 -73.5507C363.286 -69.6829 363.607 -65.6672 363.223 -61.9897C359.892 -29.5681 356.425 2.7688 353.052 35.1693C352.803 37.5364 353.021 40.1149 353.031 42.5878C353.695 40.7913 354.702 39.2061 354.962 37.1559C361.085 -10.166 367.199 -57.4879 373.115 -104.937C374.682 -117.491 375.367 -130.553 376.903 -143.128C377.401 -147.186 379.332 -150.42 380.609 -154.013C381.667 -150.145 383.11 -146.531 383.722 -142.346C389.95 -99.8431 395.669 -56.9595 402.27 -14.7312C409.68 32.6753 421.253 75.1361 438.057 109.714C445.821 125.692 442.759 144.946 443.558 163.228C443.683 166.166 444.233 169.019 444.575 171.915C444.762 169.04 444.98 166.166 445.136 163.27C445.717 152.449 446.267 141.628 446.838 130.828C450.917 136.429 455.131 141.628 459.065 147.673C480.414 180.475 504.1 202.561 528.667 220.927C532.289 223.633 536.794 228.473 538.392 235.173C559.005 321.13 579.359 407.404 599.276 494.122C603.521 512.595 605.701 533.307 609.012 552.836C609.894 558.036 611.399 562.706 612.614 567.631C612.479 561.819 612.946 555.542 612.115 550.237C606.158 512.616 601.124 474.002 593.516 437.987C580.386 375.849 565.565 315.402 551.563 254.131C550.173 248.044 549.55 241.112 548.564 234.581C551.501 234.623 554.449 234.56 557.386 234.708C575.674 235.638 593.962 236.652 612.25 237.476C613.869 237.54 615.624 237.223 617.077 235.849C618.333 234.665 619.256 231.77 620.325 229.614C619.069 228.98 617.824 227.86 616.558 227.775C595.893 226.169 575.218 224.753 554.553 223.168C546.706 222.576 541.423 214.925 538.455 198.186C535.808 183.264 532.673 168.322 528.553 155.154C520.789 130.299 521.381 107.41 527.162 80.4623C537.406 32.6965 537.095 32.1047 552.342 71.6066C562.534 98.0046 573.412 123.156 584.102 148.602C585.451 151.815 587.589 153.442 589.364 155.81C589.084 151.075 589.562 145.009 588.399 141.776C578.778 115.124 569.8 86.9086 558.777 63.2581C546.125 36.1415 542.502 11.6458 551.667 -24.9395C560.915 -61.905 559.192 -63.4902 574.823 -36.881C591.399 -8.66528 608.628 17.796 624.736 47.1953C632.147 60.7218 637.627 79.2998 643.844 95.8276C647.477 105.508 650.757 115.8 654.348 125.523C654.992 127.256 656.434 127.594 657.514 128.587C657.275 126.389 657.296 123.832 656.756 122.057C653.456 111.13 649.947 100.477 646.668 89.5082C644.924 83.6748 643.502 77.3553 641.935 71.2684C644.903 73.4875 647.986 75.1361 650.809 78.0106C656.995 84.3088 662.994 91.4738 669.19 97.7298C670.446 98.9979 672.221 97.8777 673.757 97.8566C672.823 94.792 672.221 90.3747 670.903 88.8741C661.468 78.0951 651.878 67.9925 642.391 57.4671C641.27 56.2201 640.45 53.7472 639.485 51.845C640.762 52.1198 642.101 51.8874 643.294 52.7117C654.224 60.3204 665.08 68.4786 676.072 75.5589C678.739 77.2709 681.874 75.5588 684.79 75.3898C682.278 72.4308 679.871 68.859 677.234 66.5975C662.008 53.5571 646.553 41.6578 631.576 27.4126C627.57 23.6083 623.73 14.0763 621.913 5.13605C615.167 -28.0464 609.251 -62.032 603.137 -95.8063C602.494 -99.3781 602.535 -103.521 602.255 -107.41C603.968 -106.332 605.815 -105.803 607.383 -104.07C636.091 -72.198 664.852 -40.474 693.353 -7.71423C696.218 -4.41711 698.937 5.09375 699.228 12.2163C700.089 32.8867 699.549 53.8107 699.892 74.6078C699.964 78.8137 701.532 82.8928 702.414 87.0142C703.514 82.8083 705.465 78.6869 705.569 74.3542C706.047 55.9453 706.14 37.4943 706.036 19.0431C705.974 8.11615 707.126 3.12817 712.658 7.88361C747.906 38.0859 784.295 58.7141 821.66 72.5154C829.392 75.3687 836.284 90.0154 843.352 99.949C850.234 109.65 856.825 120.302 863.54 130.532V119.816C856.959 109.185 850.358 98.6175 843.819 87.8385C842.802 86.1477 842.117 83.4846 841.287 81.2865C842.47 80.7792 843.674 79.6379 844.816 79.8493C851.064 81.0751 857.302 82.6392 863.54 84.0975V69.8101C857.561 68.4151 851.573 67.2315 845.615 65.5829C835.921 62.8776 826.673 60.5739 818.256 45.6735C786.288 -10.9268 757.372 -73.7833 732.015 -144.439C728.289 -154.837 725.196 -166.314 721.802 -177.283C727.085 -171.259 732.316 -165.024 737.672 -159.297C740.474 -156.295 743.464 -154.119 746.38 -151.582C744.003 -155.831 741.803 -160.692 739.229 -164.242C725.736 -182.841 710.157 -195.565 702.632 -230.269C700.452 -240.329 700.546 -245.339 706.026 -244.113C717.339 -241.576 728.767 -239.759 739.852 -234.623C750.77 -229.55 761.305 -220.526 772.068 -213.784C774.061 -212.536 776.396 -213.826 778.576 -213.932C776.988 -216.742 775.587 -220.737 773.771 -222.174C765.031 -229.064 756.168 -235.13 747.387 -241.767C745.685 -243.056 744.2 -245.656 742.612 -247.642C744.117 -249.693 745.55 -252.144 747.148 -253.75C753.832 -260.535 760.33 -268.862 767.346 -273.195C774.331 -277.506 778.773 -286.13 783.029 -298.092C784.627 -302.573 789.412 -303.545 792.65 -303.08C803.818 -301.453 814.934 -298.282 826.092 -296.19C827.701 -295.894 829.413 -298.198 831.084 -299.297C829.673 -302.214 828.427 -307.075 826.829 -307.688C819.844 -310.372 812.744 -311.64 805.697 -313.732C796.833 -316.367 794.695 -325.984 799.282 -342.582C824.338 -432.999 816.481 -556.45 779.801 -638.962C750.033 -705.94 712.98 -727.266 671.162 -719.213C664.924 -718.009 658.303 -726.336 651.857 -730.246H628.878C631.213 -717.945 633.725 -705.792 635.821 -693.323C637.129 -685.566 638.136 -677.429 638.738 -669.292C639.724 -655.871 640.274 -642.302 641.011 -628.775C637.181 -635.56 632.905 -641.456 629.718 -649.446C627.995 -653.757 627.643 -661.577 627.549 -667.875C627.227 -688.651 627.31 -709.47 627.238 -730.267H609.188C609.853 -724.708 610.704 -714.225 611.14 -714.289C620.938 -716.149 615.935 -697.719 618.312 -689.793C618.8 -688.165 617.897 -684.572 617.637 -681.867C616.537 -683.262 614.918 -684.065 614.42 -686.136C610.911 -700.699 607.621 -715.515 604.269 -730.246H558.32C558.279 -712.492 558.362 -694.717 558.133 -676.964C558.061 -671.532 557.158 -666.142 556.639 -660.711C555.736 -666.776 554.086 -672.821 554.075 -678.887C554.034 -696.007 554.667 -713.126 555.03 -730.246H550.11C549.602 -717.86 549.301 -705.412 548.481 -693.111C548.107 -687.489 546.696 -682.205 545.751 -676.773C543.53 -682.269 540.188 -687.066 539.347 -693.407C537.79 -705.2 537.697 -717.903 536.991 -730.225H499.253L500.114 -704.355C497.706 -712.408 495.308 -720.439 492.911 -728.513C492.766 -728.978 492.755 -729.654 492.693 -730.225H111.975C108.602 -716.846 105.271 -703.404 101.825 -690.11C101.067 -687.193 99.8941 -684.805 98.9081 -682.184C99.0222 -686.01 98.6797 -690.237 99.3336 -693.555C101.731 -705.94 104.451 -718.03 107.056 -730.225H26.6484C23.5139 -709.406 20.4832 -688.504 17.1204 -667.854C16.6222 -664.79 14.5256 -662.972 13.1763 -660.584C12.3771 -663.965 10.8618 -667.411 10.9033 -670.729C11.1317 -685.481 11.7959 -700.213 12.5328 -721.242C13.633 -705.37 14.2246 -695.563 15.0342 -685.862C15.221 -683.621 16.1863 -681.698 16.7986 -679.648C17.1204 -681.825 17.8262 -684.107 17.712 -686.179C16.9543 -700.889 16.0202 -715.557 15.1484 -730.246H-20.9503C-21.1164 -727.308 -20.7739 -723.039 -21.5315 -721.686C-26.5966 -712.661 -31.9003 -704.271 -37.121 -695.668C-35.367 -704.376 -33.5714 -713.063 -31.8899 -721.834C-31.3813 -724.497 -31.153 -727.435 -30.8001 -730.225H-40.6499C-43.6495 -715.007 -46.5868 -699.748 -49.7006 -684.636C-50.1676 -682.395 -51.382 -680.874 -52.2538 -679.035C-52.1396 -681.867 -52.3161 -684.953 -51.8594 -687.489C-49.2958 -701.798 -46.5868 -716.001 -43.9297 -730.225H-75.1087C-85.1142 -691.547 -93.3968 -650.249 -110.73 -623.005C-115.795 -615.058 -120.466 -605.865 -125.147 -596.819C-125.935 -595.297 -125.873 -591.662 -126.205 -589.02C-125.074 -590.119 -123.766 -590.753 -122.842 -592.38C-119.23 -598.721 -115.774 -605.484 -112.183 -611.846C-111.498 -613.072 -110.408 -613.198 -109.505 -613.854C-109.785 -612.247 -109.931 -610.493 -110.346 -609.077C-122.251 -568.413 -133.647 -526.206 -154.862 -504.922C-170.431 -489.282 -186.456 -475.692 -202.471 -462.229C-207.567 -457.938 -213.255 -456.945 -218.663 -454.43C-214.926 -462.863 -211.314 -471.529 -207.443 -479.644C-195.278 -505.197 -184.629 -536.668 -170.4 -554.506C-149.745 -580.418 -131.104 -610.366 -114.747 -647.121C-103.049 -673.413 -92.6495 -702.432 -81.6787 -730.225H-101.368C-115.971 -701.671 -130.897 -673.878 -145.116 -644.437C-173.005 -586.695 -201.506 -530.073 -227.682 -468.823C-239.213 -441.833 -251.533 -431.836 -266.947 -430.843C-275.416 -430.294 -283.906 -431.033 -292.365 -430.294C-294.617 -430.103 -296.807 -426.658 -299.028 -424.693C-296.994 -421.48 -295.064 -415.9 -292.894 -415.435C-283.408 -413.406 -273.828 -413.343 -264.341 -411.399C-261.913 -410.891 -259.785 -404.53 -257.304 -403.663C-254.242 -402.585 -250.724 -402.966 -247.838 -405.248C-239.525 -411.864 -231.491 -420.191 -223.219 -427.102C-185.979 -458.15 -147.482 -484.759 -120.59 -554.654C-108.841 -585.173 -98.2854 -617.848 -87.1797 -649.53C-86.0172 -652.848 -85.0519 -656.589 -83.6611 -659.358C-81.7721 -663.141 -79.5718 -666.164 -77.5063 -669.503C-78.4923 -664.832 -79.4576 -660.119 -80.4955 -655.49C-81.3362 -651.749 -82.7581 -648.283 -83.0176 -644.394C-83.2563 -640.886 -82.2703 -636.997 -81.824 -633.277C-79.8312 -635.095 -76.9666 -635.686 -75.9909 -638.941C-72.7734 -649.805 -70.5938 -662.148 -67.2621 -672.779C-66.0373 -676.689 -62.6745 -677.407 -60.2769 -679.606C-60.1524 -674.639 -59.1975 -668.848 -60.0382 -664.811C-67.314 -629.895 -74.6001 -594.938 -82.4675 -560.656C-97.6003 -494.714 -112.847 -428.856 -128.821 -363.886C-131 -355.031 -137.404 -347.591 -142.303 -345.985C-165.521 -338.461 -188.937 -333.832 -212.196 -326.794C-221.33 -324.025 -230.246 -317.896 -239.213 -312.802C-240.469 -312.084 -241.393 -308.597 -242.472 -306.398C-241.206 -305.997 -239.909 -305.003 -238.663 -305.278C-206.353 -312.422 -174.064 -319.756 -141.753 -326.773C-139.626 -327.238 -137.394 -325.462 -135.214 -324.723C-136.398 -320.305 -137.124 -314.578 -138.847 -311.682C-152.869 -288.053 -167.068 -264.952 -181.215 -241.724C-183.581 -237.835 -185.979 -233.989 -188.356 -230.121C-184.152 -234.285 -179.762 -237.751 -175.786 -242.781C-167.286 -253.518 -159.097 -265.459 -150.513 -275.879C-149.071 -277.633 -144.545 -274.865 -144.441 -273.301C-143.009 -250.348 -141.805 -227.289 -141.328 -204.167C-141.255 -200.616 -145.469 -192.775 -147.005 -193.536C-160.581 -200.236 -174.001 -208.479 -187.473 -216.193C-193.192 -219.469 -191.137 -224.732 -188.273 -230.248C-202.845 -217.524 -214.449 -239.188 -227.309 -246.226C-231.087 -248.297 -234.896 -250.009 -238.694 -251.89C-235.29 -246.543 -232.052 -240.583 -228.44 -236.018C-225.388 -232.171 -221.88 -230.121 -218.632 -226.993C-216.431 -224.88 -214.335 -222.238 -212.196 -219.828C-213.961 -217.778 -215.808 -215.982 -217.469 -213.593C-218.248 -212.473 -218.673 -210.212 -219.265 -208.479C-218.133 -207.358 -216.774 -204.716 -215.902 -205.329C-190.649 -222.808 -170.026 -182.546 -146.465 -178.509C-144.327 -178.149 -141.878 -167.476 -140.809 -160.671C-139.179 -150.314 -139.594 -138.077 -137.352 -128.629C-134.996 -118.738 -130.897 -117.343 -129.008 -131.187C-128.312 -136.28 -127.326 -141.86 -127.669 -146.827C-129.236 -169.759 -123.911 -171.64 -115.307 -169.378C-104.492 -166.525 -93.5005 -166.652 -82.6024 -165.193C-80.8587 -164.961 -79.1462 -163.207 -77.4232 -162.15C-78.1394 -159.085 -78.5961 -155.492 -79.6236 -153.02C-91.0614 -125.205 -102.043 -98.7653 -120.351 -88.3032C-152.444 -69.9578 -182.689 -40.3049 -210.121 1.3739C-211.584 3.59314 -212.705 6.86914 -213.982 9.63788C-212.259 8.62341 -210.453 8.01038 -208.823 6.50977C-180.416 -19.55 -152.039 -45.7789 -123.59 -71.6697C-121.576 -73.5084 -119.075 -72.8533 -116.802 -73.3394C-118.037 -69.5773 -119.345 -65.942 -120.455 -62.032C-121.078 -59.834 -121.389 -57.2131 -121.836 -54.7826C-120.632 -55.8816 -119.345 -56.6847 -118.234 -58.1431C-109.215 -69.9365 -100.382 -82.4911 -91.1653 -93.4814C-86.422 -99.1456 -84.7613 -96.1655 -84.2527 -82.3853C-82.6336 -39.2482 -91.7257 -7.08014 -102.863 25.8909C-135.619 122.817 -172.901 208.563 -221.538 268.397C-223.416 270.722 -224.776 275.076 -226.374 278.479C-224.371 276.915 -222.306 275.689 -220.386 273.723C-180.405 232.742 -148.811 169.484 -121.296 95.7431C-110.616 67.1259 -100.776 37.0504 -90.4698 7.77795C-89.4008 4.7345 -87.7816 2.59979 -86.4116 0.0635376C-85.903 3.82562 -84.7198 7.86249 -85 11.3287C-86.5984 30.9845 -88.1138 50.7672 -90.501 70.0215C-93.3449 92.911 -93.8223 119.098 -105.779 131.567C-106.578 132.392 -106.91 135.351 -107.461 137.316C-106.288 137.189 -104.866 137.95 -103.973 136.788C-98.0674 129.221 -98.3165 137.612 -98.4514 146.383C-98.6382 157.965 -98.6901 169.569 -98.8043 181.172C-97.0191 169.843 -94.6319 158.769 -93.5836 147.123C-91.5804 124.952 -87.7609 106.966 -79.4472 91.1778C-44.8327 25.447 -10.623 -41.4462 15.1484 -125.607C15.9476 -128.228 17.5148 -129.728 18.7188 -131.757C19.1755 -128.545 20.0058 -125.353 20.0266 -122.141C20.1303 -103.69 20.7635 -85.0272 19.7048 -66.8719C19.1859 -58.0585 16.0617 -48.6111 12.948 -42.0803C-6.73087 -0.676208 -27.0429 39.6499 -40.3593 92.6361C-47.4068 120.683 -52.9908 150.462 -59.0107 179.671C-59.7891 183.455 -59.2701 188.485 -59.3531 192.944C-58.0869 189.351 -56.3328 186.181 -55.6374 182.123C-46.5142 129.158 -33.8308 80.7581 -16.2278 39.0582C-7.74805 18.9585 1.57242 0.507385 10.5919 -18.5143C11.8893 -21.262 13.6642 -22.9316 15.221 -25.1086C15.1691 -20.7336 15.4805 -16.1683 15.0031 -12.0469C6.6582 60.0878 -2.71414 131.715 -9.9588 204.379C-17.2034 276.999 -23.4102 350.297 -27.9562 423.911C-30.2189 460.538 -27.7694 498.54 -27.3646 535.907C-27.3438 537.577 -26.4824 539.204 -26.0154 540.853C-25.6832 539.267 -25.1746 537.725 -25.0605 536.055C-24.8633 533.138 -24.718 530.095 -24.8633 527.199C-28.7866 451.535 -23.9914 377.667 -15.4701 304.475C-5.14285 215.707 4.96643 126.812 15.2522 38.0014C15.8853 32.5485 17.3176 27.5183 18.3763 22.2767C18.8226 28.3215 19.9331 34.5564 19.6114 40.3897C14.6709 128.904 9.51248 217.356 4.50974 305.849C4.16724 311.894 4.57202 318.15 4.63428 324.3C5.78638 318.615 7.41589 313.141 7.99713 307.181C10.3013 283.319 12.2526 259.288 14.4218 235.363C14.6709 232.658 15.4597 230.185 16.0098 227.606C16.3108 230.227 16.8713 232.848 16.8921 235.49C17.4318 299.72 16.425 364.225 18.9264 428.075C20.6597 472.438 12.6989 505.261 2.06024 539.077C-16.7779 598.954 -34.9102 659.887 -53.2502 720.503C-54.3296 724.074 -54.6721 728.703 -55.3572 732.846C-54.1324 729.802 -52.8143 726.886 -51.6933 723.652C-26.9391 652.489 -2.21594 581.284 22.5695 510.206C23.4621 507.649 24.967 506.106 26.1814 504.077C26.7834 507.226 27.6345 510.27 27.9355 513.546C29.4301 530.264 31.0907 546.961 32.0145 563.827C32.3466 569.829 31.0077 576.487 30.0528 582.574C17.8158 660.986 -1.66586 731.324 -21.2409 801.599C-25.0501 815.252 -28.1431 829.941 -31.0596 844.609C-31.8692 848.688 -30.8728 854.458 -30.7067 859.446C-28.7451 856.804 -26.0465 855.177 -24.9463 851.372C-14.4841 815.125 -3.54446 779.386 5.80713 741.807C26.3371 659.295 39.7885 570.505 53.4267 481.801C67.8122 388.213 82.2703 294.499 99.2921 203.11C110.232 144.375 125.832 89.7195 139.408 33.3305C140.093 30.4772 141.431 28.3848 142.469 25.9331C143.092 29.1246 143.788 32.2526 144.327 35.5074C145.635 43.412 146.87 51.3801 148.126 59.327C147.711 45.8427 147.067 32.3795 146.943 18.8951C146.86 10.2297 147.42 1.50079 147.929 -7.12238C148.043 -9.08795 149.112 -10.8 149.735 -12.6388C150.191 -10.3139 151.126 -7.90442 151.032 -5.70636C150.14 15.9573 149.07 37.5788 148.053 59.2002L148.105 59.2424ZM328.661 -415.774C326.014 -425.285 323.222 -434.647 320.825 -444.475C320.378 -446.314 321.52 -449.971 321.925 -452.782C325.755 -446.568 330.041 -441.199 333.093 -433.506C333.788 -431.752 330.207 -421.987 328.588 -415.9C326.647 -405.565 325.132 -394.723 322.589 -385.149C321.385 -380.604 317.721 -375.025 316.071 -376.145C313.435 -377.941 310.238 -384.24 309.594 -389.904C308.235 -401.845 307.602 -414.78 308.193 -426.954C308.494 -433.189 311.784 -439.466 314.39 -443.884C314.981 -444.898 318.52 -438.748 320.337 -435.028C323.274 -428.983 325.9 -422.241 328.661 -415.774ZM436.967 34.2604C436.355 25.5104 435.504 16.7816 435.224 7.96814C435.047 2.32501 435.711 -3.46606 436.002 -9.19373C438.41 -3.63513 442.157 1.18372 442.883 7.63C443.797 15.6826 442.354 25.13 441.648 33.8589C441.399 36.8812 440.32 39.5866 439.614 42.4188C438.701 39.6078 437.787 36.7756 436.884 33.9647C436.947 43.3699 437.019 52.775 437.081 62.2014C437.092 64.3995 437.081 66.6187 437.081 68.8167C438.109 67.4007 439.78 66.4495 440.071 64.5051C442.292 49.9006 444.575 35.2961 446.153 20.3323C447.253 9.87036 448.893 7.37634 453.989 9.828C463.766 14.5412 473.865 16.0841 483.694 20.4168C486.808 21.7906 490.576 26.3981 492.164 32.0413C497.436 50.7037 501.173 71.5009 506.777 89.6349C515.506 117.893 514.084 144.396 506.995 172.57C504.224 183.581 502.117 186.329 496.315 181.996C468.416 161.199 447.274 120.64 428.768 73.1071C410.449 26.0388 407.158 -35.0634 398.596 -91.1353C398.378 -92.5936 398.72 -94.4536 398.793 -96.1233C399.613 -94.8975 400.64 -94.0309 401.211 -92.3823C404.003 -84.3086 406.266 -75.1993 409.463 -67.9922C422.436 -38.6775 434.02 -7.79871 436.957 34.2183L436.967 34.2604ZM290.673 140.888C291.805 141.205 292.946 141.501 294.078 141.818C292.054 159.889 291.711 179.967 287.715 195.671C273.963 249.735 258.944 302.277 244.341 355.327C243.272 359.195 241.632 362.344 240.262 365.81C239.234 361.266 237.771 356.975 237.241 352.178C223.053 223.231 208.865 94.2847 194.926 -34.7886C192.497 -57.2343 190.712 -80.145 189.663 -103.077C189.383 -109.248 192.144 -118.928 194.791 -122.416C206.696 -138.119 218.953 -152.576 231.356 -166.335C233.152 -168.321 237.854 -165.806 238.778 -162.319C246.655 -132.455 254.128 -102.041 261.331 -71.3738C262.733 -65.4136 263.148 -57.4244 262.826 -50.64C261.02 -12.2372 258.809 26.06 256.848 64.4205C256.401 73.1706 256.36 82.0051 256.142 90.7974C257.315 81.7515 259.027 72.8747 259.577 63.6385C262.411 15.9362 264.912 -31.8719 267.642 -79.6166C267.818 -82.6389 268.835 -85.4077 269.469 -88.3032C270.351 -86.1263 271.472 -84.2029 272.084 -81.709C276.298 -64.3569 280.003 -46.3707 284.664 -29.6104C290.206 -9.67981 291.773 8.79248 283.615 27.0956C283.003 28.4483 282.993 31.069 282.702 33.098C283.408 32.4851 284.228 32.2103 284.799 31.2169C290.507 21.1777 290.59 31.5552 290.632 39.3541C290.787 73.1917 290.694 107.05 290.694 140.909L290.673 140.888ZM809.589 -454.409C810.264 -419.705 805.801 -384.578 796.833 -352.177C787.284 -317.642 787.191 -317.769 768.789 -325.589C765.301 -327.069 761.378 -326.921 758.441 -330.535C754.102 -335.882 749.047 -342.265 746.816 -351.205C740.713 -375.722 735.835 -401.719 730.656 -427.313C728.87 -436.127 727.604 -445.427 726.099 -454.494C729.732 -449.463 733.271 -444.053 737.028 -439.509C745.28 -429.512 754.621 -422.474 761.71 -409.539C770.366 -393.729 777.154 -373.059 784.814 -354.629C785.738 -352.41 787.097 -351.099 788.26 -349.366C788.26 -352.748 788.862 -356.954 788.167 -359.342C785.105 -369.804 782.396 -381.513 778.234 -389.545C762.084 -420.656 745.384 -450.414 728.974 -480.913C722.985 -492.051 715.865 -501.858 711.651 -515.722C697.785 -561.311 684.998 -608.443 671.847 -655.046C664.084 -682.55 667.606 -698.36 682.413 -702.474C749.691 -721.031 809.734 -605.484 809.589 -454.451V-454.409ZM23.5762 377.836C24.1575 377.836 24.7491 377.836 25.3303 377.836C25.3303 323.159 25.185 268.482 25.3615 213.805C25.6209 130.299 29.2328 47.6603 39.7262 -33.0343C40.2867 -37.3247 41.3246 -41.3193 42.1342 -45.4407C42.9541 -41.1925 44.1892 -37.0923 44.511 -32.675C46.8463 -0.591675 48.9948 31.5552 51.2159 63.6808C51.4546 67.0625 51.8179 70.4019 52.1293 73.7835C52.9285 70.5286 54.2259 67.4218 54.4231 63.9978C55.1807 51.0419 55.3676 37.9169 56.2809 25.0243C56.4574 22.5092 58.8134 19.6561 60.3599 18.9163C62.2905 18.0075 64.4286 19.1276 66.4836 19.3812C66.4421 14.816 66.8573 9.97601 66.2761 5.7489C64.7296 -5.64301 62.8924 -16.8658 60.9412 -27.9829C53.6135 -69.7463 53.6342 -69.4928 71.8496 -90.1632C74.9634 -93.6927 77.3817 -100.097 80.1218 -105.169C77.2468 -102.316 74.3614 -99.4626 71.4968 -96.5671C70.2617 -95.3201 69.1096 -93.3969 67.8225 -92.6782C63.1519 -90.0997 58.4398 -87.8805 53.738 -85.5345C56.4781 -95.0876 58.6577 -105.719 62.0621 -113.983C76.9562 -150.187 92.1928 -185.737 107.326 -221.456C109.09 -225.619 111.052 -229.403 112.92 -233.355C113.501 -227.479 114.83 -221.413 114.529 -215.749C112.588 -178.551 110.284 -141.437 108.166 -104.281C108.011 -101.534 108.374 -98.6384 108.488 -95.8274C109.329 -98.3425 110.688 -100.646 110.917 -103.394C113.003 -128.545 114.882 -153.759 116.833 -178.974C117.009 -181.256 117.279 -183.497 117.497 -185.758C117.84 -183.391 118.618 -180.876 118.462 -178.699C116.584 -152.364 115.151 -125.755 112.235 -99.9489C111.322 -91.8751 106.869 -83.5476 103.091 -79.6376C95.5037 -71.7753 87.2004 -67.2947 79.3641 -60.468C77.7554 -59.0731 76.8939 -53.5566 75.6899 -49.9425C77.5582 -48.0615 79.4679 -44.3839 81.2739 -44.6376C87.5118 -45.5464 93.8015 -46.9624 99.9149 -49.7946C106.578 -52.8804 108.28 -48.3363 106.993 -34.2601C103.215 7.14386 99.6657 48.6536 96.1888 90.2056C92.0682 139.43 87.3976 188.168 76.3334 232.911C66.7639 271.61 57.3811 310.562 48.4862 350.022C41.7605 379.886 36.0105 410.765 29.6169 440.988C28.8488 444.624 26.7834 446.948 25.3199 449.886C24.7283 446.082 23.6696 442.299 23.6385 438.494C23.4724 418.268 23.5555 398.041 23.5555 377.836H23.5762ZM699.145 -28.3845C697.287 -27.8561 694.547 -25.0452 692.959 -26.9052C661.209 -64.0399 629.459 -101.196 598.155 -140.064C595.177 -143.762 592.758 -160.797 594.128 -168.004C602.556 -212.473 612.053 -256.012 621.54 -299.487C622.183 -302.404 626.21 -304.834 627.809 -303.292C641.052 -290.589 654.141 -277.168 667.135 -263.304C669.377 -260.915 671.702 -256.139 672.667 -251.256C686.378 -181.911 695.356 -109.777 699.145 -28.4056V-28.3845ZM813.398 52.0565C810.149 52.0565 808.395 52.9019 806.89 51.9296C774.943 31.5129 742.965 11.2864 711.184 -10.3138C708.278 -12.2794 705.497 -22.4879 704.614 -29.9486C701.314 -58.1431 699.238 -87.0139 695.937 -115.23C690.945 -157.838 685.309 -200.109 679.974 -242.527C679.704 -244.704 679.684 -247.008 679.538 -249.27C680.182 -248.657 680.96 -248.34 681.448 -247.368C690.623 -228.79 701.054 -212.346 708.673 -191.126C738.824 -107.092 769.027 -23.4388 808.198 42.2919C809.485 44.4478 810.668 46.9205 813.388 52.0353L813.398 52.0565ZM738.949 -338.63C723.878 -349.789 710.655 -361.456 696.965 -369.297C675.428 -381.64 660.762 -408.271 652.002 -453.458C646.948 -479.539 641.136 -503.422 645.059 -533.138C646.834 -546.622 646.47 -561.417 647.238 -575.578C647.446 -579.424 648.276 -583.123 648.816 -586.885C650.414 -585.025 652.189 -583.63 653.59 -581.2C664.468 -562.283 675.293 -543.198 686.108 -524.113C695.211 -508.029 706.991 -495.496 712.793 -474.974C723.888 -435.725 731.621 -391.975 740.547 -349.874C741.045 -347.528 739.665 -343.322 738.959 -338.651L738.949 -338.63ZM360.255 -309.421C359.269 -303.144 358.459 -296.253 357.141 -289.828C350.914 -259.436 344.759 -228.959 338.179 -198.925C326.087 -143.699 313.736 -88.7471 301.395 -33.7742C300.606 -30.2656 299.008 -27.6237 297.793 -24.6013C297.202 -28.1097 296.164 -31.576 296.102 -35.1056C294.887 -103.373 293.559 -171.619 292.977 -239.907C292.905 -248.382 296.122 -259.013 299.257 -265.185C309.937 -286.214 321.157 -305.976 332.408 -325.61C335.117 -330.345 338.791 -332.353 341.863 -336.22C342.766 -337.362 343.212 -340.532 343.669 -342.941C345.797 -354.333 347.852 -365.789 349.928 -377.223C350.789 -375.553 352.159 -374.2 352.419 -372.172C355.097 -351.628 357.598 -330.979 360.265 -309.357L360.255 -309.421ZM399.748 -248.044C403.245 -264.318 405.913 -277.274 408.819 -289.976C410.22 -296.105 412.057 -301.749 413.697 -307.624C415.763 -301.622 418.264 -296.127 419.821 -289.554C432.328 -236.863 444.845 -184.173 456.978 -131.081C466.465 -89.5925 475.308 -47.3853 484.67 -5.74866C487.95 8.81354 485.957 14.6681 479.013 12.153C471.26 9.34198 463.569 5.43201 455.94 1.2049C450.305 -1.9231 449.422 -10.0392 452.194 -20.5646C456.262 -36.0144 460.403 -51.3798 464.347 -66.9775C465.012 -69.6195 464.825 -73.3182 465.033 -76.5096C463.704 -75.1781 461.784 -74.6285 461.13 -72.3671C457.497 -59.8339 453.916 -47.1527 450.782 -33.9855C444.866 -9.13031 442.925 -8.13696 433.532 -28.1943C431.653 -32.2101 429.93 -37.4939 429.152 -42.8834C421.648 -95.0665 414.351 -147.376 407.075 -199.707C406.722 -202.244 407.138 -205.308 407.19 -208.119C408.393 -207.401 409.618 -206.851 410.791 -205.942C412.857 -204.336 414.891 -202.518 416.946 -200.806C415.617 -205.055 414.424 -209.535 412.94 -213.509C408.57 -225.218 404.097 -236.736 399.779 -248.023L399.748 -248.044ZM361.096 -250.918C361.044 -250.918 360.992 -250.918 360.94 -250.918C360.577 -233.122 359.829 -215.305 359.923 -197.531C360.255 -133.554 355.283 -73.276 339.974 -16.7391C326.845 31.7665 316.31 83.6115 304.467 133.808C303.087 139.662 300.658 144.354 298.717 149.596C298.375 143.297 297.793 137.02 297.731 130.722C297.565 114.68 298.229 98.4906 297.503 82.5969C295.012 28.0255 297.679 -23.1641 314.161 -68.0767C318.655 -80.3352 320.98 -96.4192 324.156 -110.897C335.117 -160.734 346.004 -210.677 356.996 -260.493C357.754 -263.916 359.144 -266.664 360.234 -269.708C360.525 -265.819 360.878 -261.951 361.085 -258.041C361.21 -255.695 361.106 -253.285 361.106 -250.918H361.096ZM-87.9062 -176.776C-87.9166 -176.543 -87.927 -176.311 -87.9373 -176.057C-94.4451 -177.346 -100.953 -178.741 -107.471 -179.904C-125.852 -183.158 -125.78 -183.137 -128.509 -221.519C-129.796 -239.653 -131.924 -257.576 -132.754 -275.794C-133.979 -302.7 -126.755 -320.073 -117.123 -333.578C-114.518 -337.235 -111.56 -339.644 -108.758 -342.645C-109.038 -336.22 -109.246 -329.795 -109.63 -323.391C-109.765 -321.109 -110.709 -318.889 -110.657 -316.713C-110.574 -313.035 -109.993 -309.4 -109.609 -305.764C-108.478 -307.92 -106.983 -309.653 -106.267 -312.337C-103.278 -323.666 -101.264 -336.643 -97.4342 -346.281C-94.9951 -352.41 -90.0028 -353.72 -86.1521 -357.187C-85.1142 -350.973 -83.6507 -344.949 -83.1006 -338.545C-79.1981 -293.252 -75.7315 -247.748 -71.6006 -202.561C-69.8672 -183.666 -71.5487 -177.283 -80.537 -176.818C-82.9865 -176.691 -85.4463 -176.818 -87.9062 -176.818V-176.776ZM16.9855 -165.067C15.2625 -159.593 14.2454 -156.063 13.0933 -152.745C3.56522 -125.227 -5.21552 -96.25 -15.6881 -70.5283C-36.4983 -19.4232 -58.2011 29.9489 -79.6444 79.8281C-80.9626 82.8928 -83.1837 84.1398 -84.9793 86.2534C-84.6264 82.3011 -84.4707 78.2219 -83.8791 74.4598C-75.0983 18.7894 -66.3072 -36.881 -57.4019 -92.4457C-52.6171 -122.31 -52.067 -122.542 -40.0168 -105.085C-38.9374 -103.521 -37.7023 -102.485 -36.5398 -101.217C-37.2664 -103.986 -38.0551 -106.712 -38.7194 -109.565C-39.996 -114.997 -46.5038 -120.873 -39.7781 -126.368C-22.393 -140.571 -4.69656 -152.956 12.9065 -165.849C13.9132 -166.588 15.2106 -165.426 16.9855 -165.024V-165.067ZM-76.2815 -330.683C-74.8804 -372.002 -76.2504 -364.753 -60.2977 -377.413C-54.9109 -381.682 -49.6383 -386.713 -44.2515 -391.024C-41.0443 -393.582 -37.723 -395.441 -34.4536 -397.618C-35.5641 -391.109 -36.7266 -384.62 -37.7645 -378.047C-38.1901 -375.384 -38.3458 -372.531 -38.626 -369.762C-37.5154 -371.601 -36.1246 -372.996 -35.3358 -375.363C-31.5474 -386.839 -28.0185 -398.717 -24.1575 -410.067C-23.5036 -411.99 -21.708 -412.075 -20.4521 -413.005C-20.12 -410.448 -19.2377 -407.51 -19.5491 -405.396C-24.2405 -374.01 -27.4788 -340.933 -34.3187 -311.915C-41.8747 -279.895 -52.752 -251.595 -62.2282 -221.73C-63.1208 -218.919 -64.2936 -216.51 -65.3316 -213.91C-66.3072 -217.123 -67.8952 -220.124 -68.1651 -223.59C-70.9882 -259.246 -73.6037 -294.964 -76.2712 -330.683H-76.2815ZM685.06 -349.768C704.843 -339.898 724.874 -331.106 744.543 -319.46C751.964 -315.064 758.669 -304.454 765.405 -295.619C766.412 -294.288 766.433 -283.699 765.862 -283.213C754.33 -273.343 742 -254.025 731.123 -257.259C706.898 -264.466 681.718 -277.485 672.263 -338.968C671.889 -341.42 671.837 -344.125 671.64 -346.724C672.418 -345.203 673.238 -343.766 673.965 -342.117C678.013 -332.796 677.815 -332.987 680.078 -342.941C680.711 -345.71 682.839 -346.873 685.07 -349.81L685.06 -349.768ZM21.3966 -247.938C20.9192 -247.727 20.4417 -247.516 19.9539 -247.325C19.9539 -240.203 19.6737 -233.017 20.0162 -225.979C20.722 -211.543 18.0753 -203.998 11.4015 -201.398C-1.19882 -196.474 -13.7057 -190.387 -26.2748 -185.187C-27.9874 -184.469 -29.8971 -185.991 -31.7135 -186.477C-31.2256 -190.281 -31.0388 -194.445 -30.1981 -197.826C-23.1922 -226 -16.1655 -254.131 -8.94162 -282.029C-3.59637 -302.679 1.96683 -323.053 7.64423 -343.28C8.49533 -346.302 10.54 -347.718 12.0346 -349.895C12.5847 -346.724 13.3631 -343.639 13.6434 -340.342C16.2693 -309.569 18.8226 -278.753 21.3862 -247.938H21.3966ZM-60.443 -523.521C-60.8063 -525.719 -62.7679 -531.299 -62.3112 -535.653C-60.1731 -555.88 -56.9763 -573.189 -49.6798 -590.182C-38.7194 -615.671 -31.7965 -649.34 -23.0365 -679.373C-21.9675 -683.03 -20.1926 -685.714 -18.7395 -688.842C-18.2102 -683.389 -17.3487 -677.957 -17.2138 -672.462C-16.8194 -655.554 -16.7364 -638.624 -16.4042 -621.695C-16.3835 -620.723 -15.3663 -619.56 -14.7125 -618.99C-8.80673 -613.896 -6.8139 -596.65 -11.2873 -585.786C-16.0098 -574.31 -21.7495 -564.672 -26.0465 -552.54C-34.1733 -529.608 -44.978 -522.148 -60.4533 -523.521H-60.443ZM589.167 -177.494C587.953 -184.553 587.112 -189.266 586.323 -194.022C577.117 -250.178 581.331 -307.92 582.244 -365.218C582.286 -367.585 586.23 -372.552 586.894 -371.558C594.315 -360.695 602.868 -351.269 608.099 -336.432C610.901 -328.464 607.673 -310.752 607.528 -297.437C607.434 -289.49 608.13 -281.522 608.306 -273.533C608.42 -268.503 608.929 -262.775 608.057 -258.527C603.169 -234.665 597.958 -211.12 592.758 -187.576C592.115 -184.659 590.911 -182.334 589.157 -177.494H589.167ZM-11.0901 -507.902C-11.4534 -459.439 -20.4417 -429.765 -38.2731 -413.259C-46.2962 -405.84 -54.3816 -398.696 -62.5811 -392.208C-65.9647 -389.524 -69.7012 -388.932 -73.282 -387.389C-72.7734 -398.316 -72.4828 -409.306 -71.6317 -420.085C-71.4034 -422.96 -69.5351 -425.327 -68.3311 -427.715C-58.2841 -447.73 -48.6523 -468.929 -37.9825 -487.211C-31.8277 -497.757 -24.0848 -504.14 -16.7883 -511.136C-15.2003 -512.658 -12.5121 -508.79 -11.1005 -507.902H-11.0901ZM567.018 -205.266C566.468 -200.975 565.741 -195.227 565.015 -189.478C563.292 -194.424 561.548 -199.327 559.867 -204.315C559.555 -205.224 559.472 -206.513 559.306 -207.654C551.449 -263.303 543.364 -318.826 535.943 -374.75C534.604 -384.853 535.849 -396.646 536.109 -407.615C536.171 -410.405 537.033 -413.111 537.52 -415.858C538.455 -413.512 539.378 -411.145 540.323 -408.799C541.008 -407.108 541.714 -405.481 542.409 -403.832C542.482 -406.03 542.16 -409.137 542.7 -410.257C544.08 -413.089 545.979 -417.295 547.433 -416.894C554.075 -415.076 557.23 -405.037 557.916 -391.341C560.977 -329.985 563.935 -268.608 567.028 -205.266H567.018ZM622.308 -473.05C622.681 -453.077 621.425 -445.025 614.212 -454.853C605.66 -466.498 596.505 -476.242 588.368 -489.092C584.943 -494.503 582.089 -505.282 581.393 -514.476C579.286 -542.543 578.311 -571.012 577.044 -599.355C576.878 -603.138 577.584 -607.112 577.885 -611C579.888 -609.669 582.452 -609.563 583.749 -606.71C585.545 -602.736 586.624 -596.924 587.569 -591.535C589.883 -578.219 591.824 -564.63 594.191 -551.357C594.647 -548.799 596.329 -547.277 597.45 -545.27C597.771 -547.933 598.498 -550.701 598.353 -553.238C597.803 -563.235 596.91 -573.147 596.287 -583.144C596.1 -586.188 596.37 -589.358 596.422 -592.465C597.18 -590.119 598.104 -587.963 598.654 -585.427C605.244 -555.415 611.846 -525.424 618.281 -495.264C620.201 -486.239 621.633 -476.728 622.297 -473.029L622.308 -473.05ZM519.129 -430.315C518.786 -422.917 518.817 -420.508 518.547 -418.225C515.33 -390.242 487.306 -359.828 474.934 -371.706C473.201 -373.376 471.488 -381.873 471.893 -386.311C474.239 -412.498 477.301 -438.388 479.947 -464.448C481.027 -475.1 482.677 -480.828 488.219 -474.318C496.378 -464.723 504.992 -456.882 512.953 -446.589C516.005 -442.658 517.779 -434.035 519.139 -430.294L519.129 -430.315ZM441.461 -352.262C442.178 -352.917 442.894 -353.594 443.61 -354.249C443.61 -359.596 443.267 -365.091 443.786 -370.185C443.994 -372.172 446.578 -375.173 447.346 -374.37C455.006 -366.359 456.563 -352.854 452.827 -335.502C451.83 -330.873 452.629 -324.406 452.609 -318.763C455.266 -320.897 459.251 -321.362 460.331 -325.462C464.171 -340.046 467.876 -335.333 470.741 -325.653C480.477 -292.724 490.046 -259.499 498.941 -225.471C500.239 -220.526 497.841 -210.339 496.357 -203.364C496.139 -202.307 491.167 -204.294 489.05 -207.168C471.634 -230.797 459.417 -264.191 451.145 -304.771C447.917 -320.601 444.689 -336.411 441.461 -352.241V-352.262ZM553.722 -71.5641C553.006 -68.7742 552.695 -66.2379 551.948 -64.8219C545.357 -52.3943 538.839 -39.7131 531.874 -28.3212C530.816 -26.5881 526.467 -29.6316 525.543 -32.9709C514.51 -72.6208 503.736 -112.609 493.264 -152.977C492.319 -156.634 493.959 -163.46 494.395 -168.807C496.284 -167.603 498.547 -167.455 499.99 -165.024C516.337 -137.231 532.559 -109.121 548.803 -81.0326C550.463 -78.1582 551.999 -74.9246 553.733 -71.5641H553.722ZM485.791 -130.975C487.254 -126.748 488.822 -122.775 490.109 -118.421C497.343 -93.8829 504.349 -69.0278 511.749 -44.7433C522.626 -9.00354 522.595 -9.2782 503.425 4.77679C496.865 9.57452 493.388 6.31964 490.596 -7.27039C486.247 -28.4268 481.162 -48.8859 476.418 -69.683C472.568 -86.5701 476.107 -116.751 483.196 -127.784C483.84 -128.777 484.576 -129.496 485.791 -130.997V-130.975ZM562.804 -135.393C561.393 -123.261 560.469 -117.026 559.971 -110.622C558.601 -93.0164 555.694 -93.1644 550.775 -105.761C541.423 -129.665 531.625 -152.766 522.367 -176.839C517.489 -189.52 512.559 -202.688 509.268 -217.355C507.826 -223.802 510.421 -234.56 511.189 -243.373C513.981 -241.217 517.198 -240.329 519.492 -236.673C528.501 -222.343 538.278 -209.261 545.741 -191.634C553.037 -174.387 557.864 -152.153 562.804 -135.393ZM482.241 -143.699C479.376 -133.829 476.304 -124.085 473.647 -113.835C470.565 -101.936 468.8 -104.387 466.444 -115.187C457.175 -157.458 447.658 -199.475 438.223 -241.598C434.767 -257.047 431.248 -272.455 427.875 -288.011C427.335 -290.484 427.387 -293.59 427.169 -296.401C428.124 -296.401 429.453 -297.289 429.972 -296.254C439.375 -277.549 450.087 -260.894 457.632 -239.082C466.403 -213.741 472.402 -183.856 479.563 -155.894C480.477 -152.343 481.182 -148.539 482.241 -143.699ZM483.86 -359.152C496.191 -357.567 505.957 -370.312 514.686 -387.262C519.409 -396.435 520.924 -394.342 522.512 -381.767C527.006 -346.238 517.987 -317.114 513.337 -285.982C513.14 -284.692 508.563 -284.037 507.276 -286.362C498.225 -302.594 489.413 -319.502 480.705 -336.601C477.373 -343.132 474.498 -350.783 471.416 -357.926C475.567 -358.328 479.719 -358.75 483.871 -359.152H483.86ZM105.488 -338.63C102.188 -318.784 99.7488 -295.577 94.4658 -276.006C91.9437 -266.664 84.0244 -264.234 78.5546 -258.675C75.8767 -275.034 69.5558 -293.611 71.3099 -307.244C74.5275 -332.268 82.2496 -354.756 88.7469 -377.392C90.1169 -382.168 94.3101 -385.022 97.2163 -385.043C98.7005 -385.043 100.776 -377.265 101.565 -372.256C103.143 -362.196 104.025 -351.607 105.488 -338.609V-338.63ZM268.348 -176.839C269.012 -198.397 264.051 -223.907 275.789 -239.4C277.523 -241.682 279.505 -243.098 281.373 -244.916C282.214 -240.773 283.657 -236.715 283.802 -232.467C284.446 -213.551 284.716 -194.572 285.131 -175.613C285.971 -137.105 286.854 -98.5961 287.591 -60.0664C287.653 -57.0863 286.75 -54.0006 286.304 -50.9572C285.639 -52.6902 284.726 -54.2119 284.352 -56.2198C277.035 -95.1299 262.753 -129.538 268.337 -176.839H268.348ZM263.023 -269.454C265.514 -249.164 260.636 -238.216 249.935 -237.053C248.316 -236.884 246.562 -234.306 245.15 -235.151C241.04 -237.582 234.999 -238.829 233.557 -244.874C231.46 -253.666 231.149 -267.615 232.851 -276.978C237.573 -303.038 250.143 -318.615 253.692 -347.084C254.201 -351.142 256.931 -353.868 258.622 -357.229C259.37 -352.283 260.584 -347.422 260.781 -342.371C261.653 -319.27 262.234 -296.127 263.023 -269.454ZM-121.047 -355.242C-120.621 -362.534 -120.943 -368.431 -119.915 -372.784C-105.302 -434.5 -90.5217 -496.046 -75.7107 -557.528C-75.1398 -559.895 -73.9047 -561.523 -72.981 -563.509C-72.9706 -560.233 -72.5866 -556.725 -73.0017 -553.724C-78.731 -511.601 -82.7478 -467.724 -91.0407 -428.095C-96.5001 -401.972 -108.146 -381.978 -117.072 -359.342C-117.549 -358.116 -118.514 -357.799 -121.068 -355.242H-121.047ZM282.505 -311.429C283.346 -310.583 284.197 -309.738 285.037 -308.892C281.872 -292.28 278.997 -275.372 275.333 -259.309C274.409 -255.251 270.963 -253.941 268.68 -251.362C267.912 -256.139 266.635 -260.831 266.459 -265.734C265.493 -292.301 265.742 -319.249 263.729 -345.393C261.757 -370.925 265.41 -390.686 272.717 -408.778C273.963 -411.864 276.174 -413.068 277.938 -415.161C278.841 -411.145 280.906 -406.284 280.439 -403.283C278.53 -391.151 278.727 -380.922 280.533 -367.881C282.982 -350.233 282.007 -330.345 282.494 -311.429H282.505ZM52.6794 -329.542C53.0842 -293.443 49.4722 -260.112 38.4807 -231.981C37.3078 -228.98 35.8651 -226.444 34.547 -223.696C33.5298 -227.5 31.9833 -231.051 31.5682 -235.151C29.8867 -251.933 28.361 -268.799 27.1051 -285.77C23.9914 -328.062 24.0641 -328.104 42.0926 -344.717C51.7245 -353.615 53.0219 -351.776 52.669 -329.542H52.6794ZM386.172 -186.117C388.32 -196.791 390.635 -208.775 393.157 -220.547C393.8 -223.548 395.108 -225.873 396.105 -228.494C397.07 -225.239 398.398 -222.259 398.948 -218.708C407.127 -165.764 415.213 -112.778 423.256 -59.7281C423.734 -56.5579 423.651 -53.0072 423.838 -49.6256C422.551 -51.4432 420.765 -52.6268 420.049 -55.1842C409.203 -94.052 398.471 -133.068 387.832 -172.21C386.909 -175.634 386.857 -180.178 386.182 -186.096L386.172 -186.117ZM165.854 -302.742C164.951 -286.954 163.892 -266.918 162.563 -246.945C162.314 -243.267 160.674 -236.694 160.176 -236.927C154.385 -239.442 148.24 -241.196 143.175 -247.114C140.798 -249.883 139.19 -261.634 139.605 -268.651C140.497 -283.826 141.525 -300.48 145.116 -312.971C148.738 -325.589 155.506 -333.938 160.903 -344.146C162.553 -332.374 164.203 -320.58 165.843 -308.808C165.916 -308.258 165.843 -307.624 165.843 -302.742H165.854ZM474.166 -463.751C471.883 -441.897 469.693 -420.001 467.202 -398.252C466.807 -394.85 465.043 -392.208 463.901 -389.207C463.05 -392.123 462.002 -394.871 461.389 -398.02C457.373 -418.69 452.432 -438.896 449.869 -460.411C448.166 -474.72 449.651 -491.036 450.325 -506.317C450.429 -508.705 454.155 -512.89 455.712 -512.024C468.084 -505.218 473.024 -490.846 474.156 -463.751H474.166ZM534.49 28.723C534.293 29.97 534.116 31.7454 533.753 33.2883C529.02 53.3034 524.339 73.382 519.315 93.0167C519.014 94.2214 514.842 93.3336 514.271 91.1778C510.462 76.7635 507.39 61.4193 503.601 46.9628C495.267 15.1753 496.979 17.1409 509.632 8.01044C511.957 6.34076 514.136 3.74103 516.368 1.50073C523.228 -5.34711 534.718 11.5822 534.479 28.7018L534.49 28.723ZM581.642 -470.345C582.265 -471.212 585.337 -477.848 586.406 -476.58C596.91 -464.047 607.331 -450.964 617.149 -436.085C619.163 -433.041 619.235 -421.713 618.935 -414.442C618.748 -409.877 616.464 -402.67 614.679 -401.972C597.854 -395.336 582.441 -424.566 581.642 -470.366V-470.345ZM51.1121 -147.989C54.0805 -170.372 48.8183 -205.646 66.6704 -217.588C69.9606 -219.786 73.5103 -220.209 76.9458 -221.456C77.2157 -210.951 79.3641 -198.186 77.3817 -190.366C71.8911 -168.66 64.7503 -148.898 58.0765 -128.672C56.9037 -125.121 54.8071 -122.986 53.136 -120.218C52.4614 -124.973 51.6622 -129.686 51.1744 -134.526C50.8941 -137.358 51.1225 -140.444 51.1225 -147.968L51.1121 -147.989ZM510.856 -564.799C509.559 -561.967 507.452 -555.288 504.536 -551.589C501.069 -547.172 496.917 -545.375 493.077 -542.374C488.126 -538.485 486.331 -542.036 486.102 -553.618C485.552 -581.369 484.379 -609.077 483.57 -636.807C483.476 -639.935 484.078 -643.168 484.359 -646.36C485.697 -644.605 487.088 -642.999 488.365 -641.055C497.447 -627.232 499.377 -605.611 501.484 -584.137C501.692 -582.003 502.107 -579.974 502.429 -577.881C502.948 -579.593 503.643 -581.178 503.975 -583.059C505.003 -588.935 505.906 -594.938 506.85 -600.877C507.815 -594.409 508.874 -588.005 509.725 -581.453C510.161 -578.072 510.223 -574.436 510.867 -564.778L510.856 -564.799ZM699.373 -534.364C698.024 -534.702 696.934 -534.258 696.332 -535.23C690.436 -544.699 682.964 -552.012 679.092 -564.545C668.786 -597.939 659.891 -633.425 650.84 -668.594C649.74 -672.842 651.172 -680.176 651.421 -686.073C653.715 -683.452 656.922 -682.121 658.147 -677.999C671.121 -634.144 683.783 -589.844 696.519 -545.65C697.38 -542.649 698.096 -539.415 699.373 -534.364ZM597.377 -79.2996C596.37 -89.8037 595.353 -99.6528 594.523 -109.565C594.326 -111.954 594.72 -114.553 594.834 -117.068C595.447 -115.208 596.246 -113.539 596.63 -111.489C603.604 -74.7343 610.538 -37.9589 617.44 -1.14117C617.71 0.317139 617.596 2.13483 617.658 3.78339C616.641 2.38843 615.374 1.43732 614.638 -0.486023C606.604 -21.4522 598.539 -42.355 590.734 -63.7017C586.334 -75.7488 580.978 -87.5635 578.819 -101.513C577.636 -109.185 582.182 -121.042 584.144 -131.018C586.188 -125.227 588.928 -120.027 590.112 -113.496C592.104 -102.527 593.039 -90.6703 594.585 -79.2996C594.813 -77.5875 595.934 -76.4462 596.64 -75.0302C596.91 -76.5941 597.18 -78.1582 597.377 -79.2996ZM36.2491 543.854C35.3669 541.613 34.5262 540.472 34.464 539.162C33.5609 519.485 29.3885 496.49 32.6269 480.744C40.3593 443.038 51.5999 408.736 61.4394 373.081C61.8441 371.622 62.4773 370.481 62.9962 369.192C63.0793 371.178 63.4737 373.398 63.2142 375.131C54.9213 428.624 46.5764 482.054 38.2004 535.484C37.7853 538.105 37.0484 540.493 36.2596 543.875L36.2491 543.854ZM133.315 -145.305H133.844C133.844 -155.429 133.554 -165.595 133.927 -175.634C134.322 -186.181 135.36 -196.601 136.117 -207.084C140.425 -204.865 144.794 -203.131 148.998 -200.215C151.105 -198.756 154.717 -193.726 154.551 -192.691C149.828 -163.545 144.784 -134.653 139.542 -105.93C139.107 -103.521 136.792 -100.984 135.619 -101.492C134.654 -101.914 133.491 -106.67 133.429 -109.608C133.18 -121.486 133.325 -133.406 133.325 -145.305H133.315ZM291.213 -346.957C291.036 -346.957 290.86 -346.957 290.673 -346.957C290.673 -358.835 290.528 -370.713 290.767 -382.57C290.829 -385.804 292.095 -388.911 292.801 -392.06C299.828 -381.978 306.906 -372.045 313.767 -361.477C314.275 -360.695 313.705 -354.587 312.895 -352.114C307.809 -336.685 302.568 -321.489 297.222 -306.483C296.32 -303.968 294.659 -302.721 293.351 -300.903C292.635 -304.391 291.379 -307.814 291.296 -311.365C291.036 -323.222 291.192 -335.1 291.192 -346.978L291.213 -346.957ZM-41.9473 -139.303C-42.5909 -140.951 -44.1788 -144.439 -44.0439 -144.798C-40.5358 -153.971 -37.5051 -168.216 -33.0835 -170.752C-17.5563 -179.692 -1.54132 -184.659 14.318 -190.873C15.74 -191.422 17.3176 -190.196 18.8226 -189.795C17.7743 -186.836 17.0062 -182.25 15.6465 -181.172C3.57559 -171.619 -8.56799 -162.53 -20.7427 -153.632C-27.4684 -148.708 -34.3083 -144.439 -41.9473 -139.303ZM-28.579 -263.705C-29.1498 -264.234 -29.7207 -264.783 -30.2915 -265.311C-29.5858 -270.257 -29.1913 -275.541 -28.1223 -280.064C-18.5112 -320.601 -8.81708 -361.012 0.980835 -401.338C1.5932 -403.874 3.18118 -405.312 4.30215 -407.256C5.34006 -402.881 7.69614 -397.555 7.19794 -394.279C3.99078 -373.123 1.4375 -350.698 -3.81436 -331.993C-10.1456 -309.442 -18.9471 -290.167 -26.6692 -269.433C-27.3542 -267.594 -27.9459 -265.607 -28.5894 -263.684L-28.579 -263.705ZM526.737 -329.753C527.577 -325.906 528.138 -323.962 528.449 -321.848C532.518 -294.161 536.576 -266.474 540.53 -238.702C540.873 -236.314 540.416 -233.397 540.333 -230.734C539.109 -231.685 537.749 -232.214 536.669 -233.672C516.44 -261.021 514.489 -275.076 524.484 -321.088C525.014 -323.518 525.709 -325.801 526.737 -329.732V-329.753ZM263.812 -454.641C261.57 -464.195 260.231 -467.449 260.065 -470.979C258.955 -495.137 258.052 -519.358 257.221 -543.579C257.138 -546.094 257.948 -548.757 258.342 -551.357C259.733 -549.919 261.767 -549.285 262.421 -546.897C266.708 -531.172 273.008 -515.723 273.994 -498.878C274.71 -486.725 268.234 -472.585 263.802 -454.641H263.812ZM633.247 -365.324C646.284 -364.542 656.85 -343.533 657.815 -320.094C657.867 -318.889 654.992 -315.191 654.12 -315.994C646.595 -322.863 639.008 -329.711 631.94 -338.439C630.051 -340.764 628.878 -349.895 629.21 -355.369C629.49 -359.871 632.49 -363.569 633.258 -365.324H633.247ZM213.442 -278.817C208.18 -253.877 202.845 -228.494 197.396 -203.216C197.064 -201.673 195.829 -201.081 195.009 -200.046C194.801 -202.307 194.261 -204.695 194.438 -206.788C197.074 -237.561 199.742 -268.334 202.71 -298.959C202.855 -300.417 206.851 -302.34 207.318 -301.051C209.436 -295.239 210.92 -288.328 213.432 -278.817H213.442ZM532.829 207.866C530.67 208.521 529.269 209.895 528.159 209.134C523.747 206.175 519.181 203.554 515.174 198.799C512.507 195.629 508.459 187.724 508.895 184.279C510.462 172.063 513.669 160.84 516.389 149.385C516.451 149.131 518.579 150.103 518.921 151.477C523.374 169.061 527.671 186.836 532.808 207.845L532.829 207.866ZM58.5747 -496.933C55.6167 -488.796 51.8802 -477.573 47.6247 -467.323C46.099 -463.645 43.3381 -462.377 41.1378 -459.989C40.3801 -466.012 38.4496 -472.754 39.1138 -477.911C40.4112 -488.014 42.5597 -498.244 45.4659 -506.571C48.4447 -515.131 52.752 -521.514 56.4781 -528.826C57.0698 -519.759 57.6717 -510.671 58.5747 -496.912V-496.933ZM386.099 -362.132C387.542 -360.674 388.019 -360.082 388.528 -359.68C403.588 -347.866 407.003 -330.81 400.526 -299.868C399.966 -297.183 399.602 -294.203 398.865 -291.773C398.212 -289.596 397.163 -287.968 396.291 -286.109C395.731 -288.011 394.932 -289.765 394.631 -291.857C391.735 -312.232 388.891 -332.627 386.141 -353.086C385.798 -355.601 386.099 -358.539 386.099 -362.175V-362.132ZM228.845 -198.777C228.16 -199.686 230.433 -198.228 231.253 -194.994C231.782 -192.923 230.609 -186.371 229.447 -185.103C220.323 -175.148 211.034 -165.912 201.745 -156.676C200.945 -155.873 199.793 -156.739 198.797 -156.824C199.119 -159.001 199.409 -161.22 199.783 -163.376C204.371 -189.626 213.753 -199.665 228.845 -198.756V-198.777ZM513.887 -506.148C513.721 -504.331 513.285 -499.829 512.86 -495.327C510.701 -496.933 508.262 -497.631 506.435 -500.294C501.93 -506.846 497.519 -513.82 493.534 -521.725C492.703 -523.374 493.212 -532.356 494.229 -533.603C509.05 -551.822 511.801 -548.672 513.607 -512.51C513.669 -511.347 513.711 -510.164 513.887 -506.127V-506.148ZM393.333 -450.097C394.184 -454.726 395.191 -461.532 396.738 -467.703C397.07 -469.035 400.277 -469.183 400.599 -467.957C405.467 -449.463 410.127 -430.695 414.631 -411.758C415.005 -410.194 414.019 -404.952 413.531 -404.868C405.944 -403.431 392.98 -431.266 393.323 -450.097H393.333ZM424.979 -365.197C425.924 -363.802 426.547 -363.379 426.775 -362.491C432.951 -337.996 439.095 -313.479 445.208 -288.898C445.416 -288.074 445.198 -286.764 445.177 -285.665C444.492 -286.256 443.662 -286.51 443.143 -287.525C435.826 -301.812 428.02 -315.212 421.606 -331.232C419.8 -335.734 421.949 -348.119 422.634 -356.764C422.872 -359.765 424.159 -362.365 424.99 -365.197H424.979ZM398.346 -521.027C394.34 -522.401 389.348 -561.586 392.15 -569.681C396.686 -582.785 405.342 -582.468 405.653 -568.455C405.996 -553.195 401.948 -537.471 399.737 -522C399.654 -521.408 398.834 -521.302 398.346 -521.027ZM42.8295 -370.29C36.1869 -376.927 30.5303 -382.57 24.884 -388.213C29.0564 -398.802 33.2289 -409.412 37.4013 -420.001C40.5669 -407.573 43.9297 -395.336 46.6906 -382.486C47.0954 -380.626 44.6562 -375.87 42.8295 -370.29ZM575.145 -529.777C574.74 -525.719 574.045 -518.829 573.349 -511.939C570.173 -519.294 566.945 -526.586 563.873 -534.131C563.448 -535.167 563.551 -537.661 563.707 -539.331C565.181 -554.78 566.644 -570.23 568.315 -585.596C568.575 -587.984 569.852 -589.844 570.651 -591.958C571.18 -589.337 572.021 -586.822 572.187 -584.116C573.204 -567.102 574.055 -550.046 575.145 -529.777ZM129.682 -48.7167C124.669 -20.4376 119.718 7.56659 114.695 35.4863C114.477 36.7333 113.563 37.3885 112.982 38.3185C112.868 36.6277 112.536 34.8734 112.66 33.2672C114.975 4.77673 117.155 -23.7982 119.915 -52.0773C120.31 -56.1564 123.6 -58.8828 125.551 -62.2433C126.724 -58.3755 127.907 -54.5288 129.682 -48.7167ZM110.315 -261.972C109.91 -256.836 109.983 -255.441 109.702 -254.553C103.309 -234.158 96.9049 -213.762 90.3764 -193.557C89.9405 -192.204 88.5186 -192.373 87.5533 -191.824C87.3457 -195.058 86.5569 -198.798 87.0447 -201.419C88.996 -211.776 90.968 -222.28 93.6666 -231.749C96.8426 -242.908 100.579 -253.391 104.554 -263.261C105.281 -265.079 108.291 -262.521 110.315 -261.972ZM558.652 -606.858C559.047 -606.604 559.441 -606.351 559.825 -606.097C558.082 -589.633 556.473 -573.084 554.48 -556.767C554.075 -553.47 552.217 -551.04 551.024 -548.207C550.287 -551.737 548.813 -555.393 548.938 -558.754C549.924 -584.666 551.169 -610.514 552.487 -636.363C552.612 -638.857 553.816 -641.097 554.521 -643.443C555.622 -641.266 557.542 -639.322 557.687 -636.87C558.299 -626.958 558.372 -616.876 558.642 -606.858H558.652ZM600.771 -16.7391C600.065 -16.3586 599.276 -15.4498 599.027 -15.8936C588.358 -35.9298 577.646 -55.8605 567.361 -76.7844C566.696 -78.1371 569.416 -87.3522 570.557 -92.9108C571.844 -89.9095 573.214 -87.0562 574.408 -83.8859C575.238 -81.6879 575.674 -78.7711 576.546 -76.6576C584.216 -57.974 591.938 -39.396 599.629 -20.7547C599.982 -19.8881 600.2 -18.768 600.771 -16.7179V-16.7391ZM395.316 -493.044C393.022 -483.216 391.465 -476.516 389.898 -469.838C388.818 -471.211 387.241 -471.994 386.753 -474.044C382.985 -489.853 379.28 -505.747 375.948 -521.979C375.367 -524.79 376.28 -529.841 377.163 -532.948C377.609 -534.512 380.297 -535.399 380.692 -534.343C385.715 -520.774 390.5 -506.803 395.316 -493.023V-493.044ZM58.0454 -457.474C57.1216 -436.803 56.3951 -419.134 55.4921 -401.528C55.3572 -398.865 54.4542 -396.393 53.9041 -393.835C53.354 -395.04 52.7313 -396.118 52.2642 -397.449C45.1337 -418.014 44.7497 -441.347 51.3716 -459.989C52.9907 -464.554 55.0043 -468.464 56.8414 -472.691C57.3084 -466.689 57.7859 -460.686 58.035 -457.495L58.0454 -457.474ZM518.091 -713.232C522.388 -698.564 526.57 -689.581 527.816 -678.972C531.241 -649.763 533.452 -619.856 536.088 -590.203C536.265 -588.174 535.984 -585.955 535.912 -583.82C535.486 -585.258 534.895 -586.589 534.646 -588.174C528.833 -625.816 523.042 -663.458 517.323 -701.164C517.063 -702.875 517.541 -705.137 518.08 -713.232H518.091ZM374.225 -342.159C374.983 -343.089 375.741 -344.04 376.498 -344.97C376.737 -350.804 376.831 -356.679 377.287 -362.407C377.432 -364.267 378.522 -365.789 379.176 -367.458C379.778 -365.725 380.692 -364.182 380.93 -362.238C384.096 -336.58 387.199 -310.879 390.22 -285.136C390.458 -283.107 389.991 -280.698 389.846 -278.479C388.829 -280.085 387.355 -281.226 386.878 -283.403C382.56 -302.89 378.408 -322.546 374.215 -342.159H374.225ZM264.58 -176.945C264.736 -176.924 264.881 -176.881 265.037 -176.86C264.57 -167.18 264.103 -157.5 263.635 -147.82C261.02 -155.746 258.404 -163.651 255.81 -171.597C255.187 -173.521 254.336 -175.423 254.118 -177.6C253.454 -184.215 251.585 -193.156 252.862 -197.171C254.979 -203.85 259.183 -207.38 262.504 -212.241C263.2 -204.611 264.009 -197.002 264.528 -189.309C264.808 -185.272 264.58 -181.066 264.58 -176.945ZM648.826 -626.049C648.826 -630.17 648.733 -634.313 648.868 -638.413C648.941 -640.611 649.377 -642.746 649.657 -644.901C650.497 -643.802 651.639 -643.168 652.127 -641.562C657.991 -622.456 663.793 -603.265 669.46 -583.884C669.772 -582.806 668.588 -577.924 668.277 -578.008C661.012 -579.889 648.66 -610.514 648.826 -626.028V-626.049ZM255.135 -496.363C254.896 -491.945 254.502 -484.802 254.107 -477.679C251.232 -482.92 246.437 -487.359 245.887 -493.573C244.828 -505.599 245.773 -518.766 246.697 -531.193C247.018 -535.547 249.676 -539.077 251.274 -543.008C252.084 -538.401 253.288 -533.941 253.62 -529.186C254.325 -519.273 254.575 -509.234 255.135 -496.363ZM473.979 -568.814C473.793 -566.997 473.46 -563.742 473.139 -560.466C471.519 -562.178 469.558 -563.108 468.323 -565.708C462.324 -578.368 462.22 -617.362 468.001 -634.545C468.354 -635.602 469.049 -636.13 469.589 -636.912C469.994 -634.757 470.648 -632.664 470.772 -630.445C471.862 -610.472 472.869 -590.457 473.979 -568.814ZM223.053 -320.474C223.219 -323.708 223.281 -325.758 223.437 -327.787C225.274 -350.614 227.101 -373.44 229.011 -396.245C229.187 -398.4 229.914 -400.324 230.381 -402.374C231.242 -400.493 232.311 -398.865 232.934 -396.646C238.207 -377.688 233.899 -338.249 224.994 -323.37C224.589 -322.694 224.153 -322.102 223.063 -320.474H223.053ZM504.183 -206.555C505.428 -204.209 506.331 -202.92 506.985 -201.166C514.5 -180.939 521.983 -160.671 529.445 -140.359C529.923 -139.07 530.151 -137.337 530.494 -135.815C529.56 -136.28 528.387 -136.111 527.723 -137.295C519.129 -152.703 510.472 -168.004 502.19 -184.173C500.924 -186.646 501.059 -193.536 501.297 -198.207C501.443 -200.997 503.031 -203.427 504.172 -206.555H504.183ZM462.147 -666.037C461.026 -654.666 460.383 -645.831 459.231 -637.293C458.504 -631.924 457.03 -627.063 455.888 -621.97C455.131 -627.761 453.885 -633.488 453.719 -639.364C453.397 -650.946 455.245 -664.769 446.132 -663.5C445.758 -663.458 445.094 -673.117 444.575 -678.253C449.599 -676.626 454.664 -675.463 459.594 -673.011C460.839 -672.398 461.628 -667.537 462.137 -666.058L462.147 -666.037ZM411.819 -509.044C412.524 -509.614 413.23 -510.164 413.946 -510.734C413.946 -518.407 413.791 -526.079 414.019 -533.709C414.112 -536.837 415.036 -539.859 415.576 -542.924C416.5 -540.387 418.036 -538.062 418.243 -535.273C419.956 -513.229 421.45 -491.121 422.883 -468.992C422.997 -467.175 422.25 -465.082 421.907 -463.117C421.025 -464.216 419.634 -464.892 419.323 -466.52C416.707 -480.596 414.278 -494.841 411.798 -509.044H411.819ZM182.055 -290.758C183.446 -303.017 185.356 -320.707 187.525 -338.249C187.878 -341.082 189.362 -343.237 190.328 -345.689C190.971 -342.624 192.341 -339.306 192.134 -336.516C190.815 -318.509 189.321 -300.523 187.536 -282.706C186.736 -274.759 185.128 -267.171 183.882 -259.436C183.394 -267.763 182.907 -276.09 182.055 -290.737V-290.758ZM369.503 -469.605C370.209 -470.472 370.925 -471.338 371.631 -472.226C371.631 -474.593 371.444 -477.045 371.672 -479.285C372.118 -483.681 372.803 -487.951 373.385 -492.283C374.682 -488.881 376.322 -485.837 377.225 -481.99C379.809 -470.958 382.28 -459.777 384.387 -448.28C384.957 -445.152 384.698 -439.107 383.712 -437.374C382.653 -435.514 379.301 -435.577 378.678 -437.479C375.326 -447.73 372.513 -458.805 369.513 -469.584L369.503 -469.605ZM579.971 -362.661C579.255 -361.519 578.549 -360.378 577.833 -359.237C577.314 -346.83 576.806 -334.424 576.255 -322.017C576.183 -320.284 575.944 -318.572 575.788 -316.839C575.238 -318.572 574.377 -320.157 574.18 -322.06C571.917 -343.449 569.685 -364.88 567.724 -386.417C567.61 -387.643 569.872 -389.883 571.024 -391.658C574.003 -381.978 576.982 -372.319 579.961 -362.639L579.971 -362.661ZM336.632 -533.455C336.518 -529.08 336.663 -524.219 336.123 -519.759C335.937 -518.174 334.079 -517.519 332.989 -516.462C331.017 -535.125 328.848 -553.703 327.301 -572.534C327.083 -575.134 329.917 -578.917 331.328 -582.172C332.501 -578.41 334.39 -574.901 334.712 -570.822C335.677 -558.627 336.03 -546.2 336.632 -533.476V-533.455ZM-79.1669 -58.3121C-78.731 -69.4293 -78.2951 -76.4462 -78.2121 -83.4843C-78.0564 -97.349 -74.9634 -105.592 -68.684 -107.663C-66.9611 -108.234 -65.1447 -107.41 -63.3803 -107.219C-63.7954 -103.901 -63.8785 -100.181 -64.6673 -97.3702C-68.3207 -84.3086 -72.1091 -71.416 -75.9806 -58.6503C-76.6137 -56.5579 -77.9214 -55.4589 -78.9178 -53.8948C-79.0839 -56.7269 -79.2396 -59.538 -79.1669 -58.3121ZM378.034 -256.942C377.827 -257.026 377.619 -257.111 377.412 -257.195C378.138 -264.339 378.854 -271.483 379.581 -278.627C381.906 -273.068 384.272 -267.594 386.535 -261.93C387.23 -260.175 388.289 -257.618 388.123 -255.927C386.981 -244.874 385.622 -233.926 384.127 -223.062C383.982 -222.005 381.657 -221.287 381.646 -221.35C380.37 -229.593 379.083 -237.857 378.107 -246.311C377.723 -249.65 378.045 -253.37 378.045 -256.921L378.034 -256.942ZM246.417 -445.638C243.375 -449.463 238.362 -452.147 237.615 -457.621C236.629 -464.765 239.016 -474.128 239.94 -482.519C243.126 -478.08 246.313 -473.663 249.478 -469.182C249.925 -468.548 250.371 -467.766 250.682 -466.858C252.229 -462.356 253.723 -457.769 255.239 -453.225C252.686 -451.027 250.132 -448.829 246.406 -445.638H246.417ZM-20.4936 -267.277C-19.7048 -266.939 -19.2689 -266.749 -18.8226 -266.579C-19.0821 -264.91 -19.217 -263.113 -19.6114 -261.613C-25.7455 -237.983 -31.8692 -214.354 -38.107 -190.852C-38.6986 -188.611 -40.0064 -187.259 -40.9821 -185.483C-41.0859 -188.189 -41.5737 -191.148 -41.2312 -193.557C-39.6432 -204.822 -38.7505 -217.271 -35.8755 -226.824C-31.454 -241.471 -25.6209 -254.089 -20.4936 -267.298V-267.277ZM-50.3856 -616.749C-50.7592 -618.778 -51.1329 -620.025 -51.2055 -621.336C-52.1189 -637.039 -41.2623 -678.845 -34.6093 -685.249C-33.6336 -686.179 -32.6061 -686.855 -31.6097 -687.637C-31.838 -684.995 -31.7446 -681.93 -32.3362 -679.754C-37.6607 -660.351 -43.1098 -641.118 -48.5381 -621.864C-48.9533 -620.385 -49.5241 -619.116 -50.3856 -616.749ZM640.419 -551.357C640.212 -547.425 639.932 -539.796 639.33 -532.271C639.143 -529.904 638.094 -527.854 637.441 -525.656C636.776 -527.389 635.79 -528.911 635.52 -530.898C633.922 -542.543 632.012 -554.146 631.296 -566.088C631.068 -569.913 634.15 -574.69 635.718 -579.044C637.285 -575.155 639.298 -571.731 640.274 -567.25C641.011 -563.89 640.419 -559.177 640.419 -551.357ZM207.37 -522.317C205.751 -509.678 204.609 -498.096 202.71 -487.126C201.869 -482.286 199.492 -478.736 197.811 -474.593C196.732 -481.483 194.199 -489.198 194.905 -495.073C196.181 -505.62 199.326 -515.131 201.859 -524.853C202.585 -527.622 203.914 -529.608 204.973 -531.975C205.813 -528.594 206.654 -525.212 207.37 -522.338V-522.317ZM556.961 -206.809C556.846 -205.964 556.639 -204.463 556.442 -202.962C555.404 -204.695 553.753 -205.963 553.411 -208.204C547.443 -246.966 541.631 -285.834 535.839 -324.723C535.621 -326.202 535.984 -328.083 536.078 -329.795C536.763 -327.724 537.718 -325.843 538.081 -323.539C542.357 -296.613 546.488 -269.581 550.764 -242.675C552.643 -230.903 554.781 -219.321 556.95 -206.83L556.961 -206.809ZM304.28 -283.276C303.689 -283.636 303.232 -283.91 302.786 -284.185C303.149 -285.707 303.398 -287.419 303.875 -288.708C310.373 -306.103 316.787 -323.687 323.554 -340.553C324.758 -343.554 327.54 -343.554 329.585 -344.928C329.066 -340.321 329.211 -334.297 327.903 -331.317C321.541 -316.86 314.826 -303.165 308.162 -289.342C307 -286.933 305.526 -285.2 304.28 -283.276ZM62.0414 -236.99C60.5156 -238.406 58.7823 -239.632 58.8134 -240.012C60.2458 -254.089 61.8234 -268.08 63.5255 -282.008C63.5567 -282.304 65.9958 -282.198 66.1826 -281.247C68.0924 -271.589 71.1439 -261.613 70.9674 -251.975C70.874 -246.734 65.1966 -241.978 62.0309 -237.011L62.0414 -236.99ZM-57.1216 -140.803C-56.2498 -138.521 -55.3676 -136.238 -54.4957 -133.955C-57.2047 -131.271 -59.8098 -127.721 -62.6434 -126.156C-66.1515 -124.191 -69.8569 -123.874 -73.4792 -122.838C-73.1678 -129.052 -73.0225 -135.35 -72.4828 -141.48C-72.078 -146.066 -71.4137 -150.779 -70.3758 -154.816C-69.504 -158.155 -67.9056 -160.607 -66.629 -163.439C-66.8677 -159.952 -67.096 -156.486 -67.3347 -152.998C-67.6253 -148.56 -67.916 -144.1 -68.2066 -139.662C-66.5667 -141.966 -64.989 -144.502 -63.2765 -146.51C-62.0414 -147.968 -60.1627 -150.42 -59.4154 -149.427C-58.2737 -147.905 -57.8586 -143.805 -57.132 -140.782L-57.1216 -140.803ZM572.602 -187.111C574.159 -198.482 575.664 -209.451 577.169 -220.42C578.829 -210.529 580.542 -200.68 582.109 -190.704C582.639 -187.364 582.95 -183.75 583.054 -180.221C583.22 -174.641 583.126 -168.998 583.137 -163.397C580.594 -166.398 577.667 -168.512 575.643 -172.697C574.076 -175.951 573.661 -181.806 572.602 -187.111ZM68.7878 -484.231C66.577 -452.845 64.5427 -423.425 62.3839 -394.047C62.1971 -391.574 61.1799 -389.376 60.5571 -387.072C60.308 -388.636 59.7579 -390.263 59.841 -391.743C61.4497 -422.41 63.0585 -453.099 64.906 -483.703C65.0825 -486.556 66.7846 -488.986 67.781 -491.607C68.1962 -488.585 68.6114 -485.541 68.7878 -484.231ZM245.368 -435.176C249.281 -429.533 251.212 -426.743 253.153 -423.953C249.634 -413.132 246.116 -402.289 242.597 -391.468C241.289 -399.922 238.902 -408.44 239.047 -416.767C239.151 -422.516 242.742 -427.969 245.368 -435.176ZM211.999 -386.48C213.027 -392.969 214.49 -402.205 215.964 -411.462C216.94 -410.722 218.694 -410.278 218.777 -409.201C219.503 -399.922 219.981 -390.538 220.386 -381.154C220.479 -378.893 220.147 -376.42 219.815 -374.179C218.922 -368.219 217.936 -362.344 216.981 -356.447C215.528 -362.428 213.951 -368.283 212.695 -374.433C212.165 -377.011 212.331 -380.245 211.999 -386.48ZM508.21 -255.209C506.113 -247.494 504.982 -242.95 503.581 -238.829C503.466 -238.491 501.11 -240.477 500.519 -242.422C496.762 -254.723 493.119 -267.214 489.683 -279.937C489.226 -281.628 490.192 -285.115 490.493 -287.778C496.326 -277.042 502.169 -266.305 508.21 -255.209ZM665.962 -285.263C665.755 -283.826 665.558 -282.389 665.35 -280.951C663.658 -281.395 661.707 -280.804 660.327 -282.473C650.591 -294.309 640.969 -306.568 631.369 -318.868C630.704 -319.714 630.435 -322.081 629.988 -323.729C630.756 -323.349 631.576 -323.243 632.282 -322.567C641.758 -313.542 651.266 -304.665 660.628 -295.133C662.672 -293.062 664.198 -288.603 665.962 -285.242V-285.263ZM549.207 -41.5308C546.799 -28.6382 544.942 -17.5633 542.648 -6.91107C541.714 -2.59949 539.845 0.760986 538.392 4.54419C536.97 1.1203 534.946 -1.8598 534.293 -5.87549C533.618 -10.0391 533.39 -17.056 534.511 -19.5923C538.05 -27.5814 542.284 -34.1545 546.332 -41.0023C546.862 -41.9111 547.92 -41.3405 549.187 -41.5095L549.207 -41.5308ZM-59.1663 -207.844C-58.4917 -213.086 -58.4087 -216.172 -57.7444 -218.454C-50.9772 -241.407 -44.1477 -264.297 -37.2144 -287.017C-36.4879 -289.384 -34.9622 -290.61 -33.8101 -292.365C-34.0073 -289.532 -33.8101 -286.13 -34.4743 -283.953C-41.636 -260.26 -48.9325 -236.736 -56.229 -213.234C-56.6546 -211.86 -57.433 -210.973 -59.1663 -207.866V-207.844ZM521.163 -543.854C521.163 -543.854 521.464 -546.538 521.765 -549.264C522.575 -546.559 523.82 -544.065 524.111 -541.127C526.02 -522.021 527.857 -502.851 529.373 -483.576C529.726 -479.137 528.75 -474.213 528.376 -469.5C526.965 -473.896 524.63 -477.975 524.308 -482.73C522.969 -502.048 522.242 -521.577 521.153 -543.854H521.163ZM265.68 -103.373C264.3 -94.5382 263.646 -90.4379 263.002 -86.3165C262.535 -87.6057 261.913 -88.7471 261.622 -90.2264C256.505 -116.307 251.419 -142.41 246.354 -168.533C246.064 -170.012 246.084 -171.788 245.96 -173.415C246.385 -173.098 247.029 -173.077 247.195 -172.443C253.568 -148.729 259.909 -124.952 265.67 -103.373H265.68ZM161.889 -377.498C159.335 -370.84 156.782 -363.823 154.001 -357.271C153.471 -356.024 152.06 -356.574 151.053 -356.299C151.458 -363.104 151.811 -369.931 152.278 -376.715C152.433 -379.04 152.765 -381.344 153.15 -383.542C154.478 -391.088 155.869 -398.591 157.228 -406.115C158.63 -397.534 160.021 -388.953 161.889 -377.498ZM546.581 -637.314C546.581 -634.376 546.737 -631.375 546.55 -628.5C545.979 -619.814 545.263 -611.169 544.599 -602.504C543.665 -610.683 542.617 -618.799 541.817 -627.042C541.039 -635.095 540.312 -643.232 539.939 -651.411C539.7 -656.758 540.126 -662.254 540.25 -667.664C542.347 -662.824 545.035 -658.639 546.353 -652.954C547.329 -648.748 546.55 -642.598 546.571 -637.293L546.581 -637.314ZM370.001 -225.006C369.773 -224.922 369.544 -224.837 369.316 -224.753C368.735 -200.468 368.226 -176.184 367.5 -151.92C367.385 -148.243 366.275 -144.692 365.631 -141.099C365.351 -144.967 364.77 -148.877 364.843 -152.702C365.31 -176.987 365.88 -201.271 366.524 -225.535C366.773 -235.067 367.292 -244.557 367.697 -254.067C368.465 -244.387 369.233 -234.686 370.011 -225.006H370.001ZM346.648 -402.374C342.953 -386.839 339.424 -371.643 335.625 -356.764C335.293 -355.453 332.688 -355.052 332.128 -356.299C331.287 -358.201 330.623 -362.766 331.121 -364.732C334.504 -378.174 338.168 -391.257 341.863 -404.318C342.351 -406.03 343.503 -407.848 344.323 -407.784C344.987 -407.742 345.61 -404.931 346.648 -402.353V-402.374ZM87.8335 -447.477C84.3877 -437.691 81.1805 -428.413 77.8695 -419.324C77.4751 -418.225 76.4891 -418.162 75.773 -417.612C76.4891 -426.214 77.1845 -434.838 77.9422 -443.44C78.2017 -446.356 78.4196 -449.4 78.9801 -452.042C80.1218 -457.389 81.4815 -462.504 82.7581 -467.724C84.2838 -461.658 85.7992 -455.593 87.8335 -447.498V-447.477ZM386.4 -413.702C389.753 -410.088 391.517 -409.496 392.046 -407.425C395.067 -395.632 397.807 -383.479 400.578 -371.39C400.64 -371.136 399.696 -369.403 399.644 -369.487C395.015 -377.624 390.054 -385.127 386.037 -394.533C384.812 -397.407 386.151 -405.502 386.39 -413.702H386.4ZM-1.61395 -432.449C-5.18439 -416.809 -7.85184 -404.487 -10.7995 -392.483C-12.2733 -386.48 -14.2454 -381.069 -15.9995 -375.384C-15.5013 -382.274 -15.5531 -389.65 -14.3907 -395.949C-12.1799 -407.954 -9.39832 -419.472 -6.54404 -430.822C-6.16 -432.344 -4.00116 -431.752 -1.62433 -432.428L-1.61395 -432.449ZM190.815 -229.952C190.982 -229.867 191.148 -229.783 191.303 -229.698C189.352 -211.776 187.473 -193.811 185.366 -175.972C185.013 -172.95 183.675 -170.456 182.803 -167.709C182.201 -171.302 180.727 -175.423 181.121 -178.382C183.913 -199.496 187.069 -220.378 190.182 -241.281C190.348 -242.359 191.148 -243.014 191.646 -243.859C191.698 -242.718 191.853 -241.534 191.77 -240.435C191.5 -236.927 191.137 -233.439 190.805 -229.931L190.815 -229.952ZM576.515 -473.748C576.214 -471.972 575.518 -467.872 574.823 -463.772C573.463 -466.393 572 -468.802 570.765 -471.677C569.654 -474.255 568.398 -477.024 567.869 -480.236C566.644 -487.76 565.814 -495.602 564.932 -503.358C564.932 -503.422 566.644 -505.091 566.935 -504.521C570.028 -498.307 573.121 -492.051 575.903 -485.203C576.629 -483.385 576.266 -479.475 576.525 -473.748H576.515ZM143.487 -30.7306C142.687 -33.4359 141.826 -35.0422 141.95 -36.1201C143.59 -50.006 145.261 -63.8918 147.296 -77.524C147.514 -78.9613 150.119 -78.6866 151.613 -79.215C151.665 -75.9391 152.195 -72.2826 151.696 -69.4927C149.839 -59.0941 147.68 -48.9705 145.573 -38.8043C145.064 -36.3527 144.358 -34.1122 143.487 -30.7517V-30.7306ZM162.864 -412.392C163.113 -414.421 163.581 -418.225 164.048 -422.03C165.719 -419.578 167.618 -417.591 168.998 -414.527C170.285 -411.673 172.091 -407.193 171.822 -404.255C171.168 -397.407 169.403 -391.045 168.095 -384.493C166.746 -389.016 165.148 -393.307 164.141 -398.168C163.383 -401.824 163.373 -406.242 162.864 -412.392ZM628.909 -599.904C630.653 -608.38 631.41 -612.036 632.168 -615.714C635.282 -608.929 638.51 -602.335 641.333 -595.001C641.582 -594.367 638.416 -585.913 638.177 -586.209C635.022 -590.119 632.106 -594.959 628.909 -599.904ZM192.082 -536.646C193.877 -542.247 196.14 -549.285 198.392 -556.323C199.555 -553.09 201.994 -548.926 201.662 -546.812C199.97 -536.076 197.562 -525.889 195.403 -515.511C194.51 -521.218 193.607 -526.924 192.082 -536.668V-536.646ZM444.523 -589.062C442.468 -584.243 440.787 -580.058 440.704 -580.185C436.864 -586.948 433.148 -594.092 429.422 -601.194C430.844 -604.195 433.303 -610.155 433.532 -609.775C437.196 -603.688 440.569 -596.776 444.513 -589.062H444.523ZM439.884 -364.309C439.614 -362.386 439.261 -359.828 438.908 -357.25C438.285 -358.138 437.393 -358.687 437.071 -359.955C434.715 -369.191 432.068 -378.237 430.408 -388.065C429.826 -391.489 431.747 -396.921 432.525 -401.444C433.978 -398.548 436.168 -396.202 436.749 -392.609C438.161 -383.775 438.836 -374.391 439.894 -364.309H439.884ZM577.127 -697.042C575.238 -688.736 573.744 -682.205 572.26 -675.653C571.014 -686.432 569.499 -697.106 568.689 -708.033C568.44 -711.414 570.132 -715.451 570.941 -719.192C572.965 -711.943 574.989 -704.693 577.127 -697.042ZM306.636 -403.621C305.204 -398.485 304.343 -395.399 303.491 -392.334C300.243 -398.104 296.994 -403.853 293.745 -409.623C296.174 -413.893 298.603 -418.162 301.032 -422.41C302.869 -416.26 304.706 -410.109 306.636 -403.621ZM410.75 -510.122C410.968 -506.571 411.653 -501.773 411.362 -497.292C411.217 -495.116 409.255 -493.488 408.113 -491.607C407.252 -500.695 405.415 -509.995 405.82 -518.808C406.224 -527.706 408.84 -536.118 410.49 -544.741C410.573 -535.357 410.667 -525.973 410.75 -516.568C410.76 -514.793 410.75 -513.038 410.75 -510.122ZM418.389 -383.69C415.348 -374.496 413.573 -369.107 411.788 -363.717C409.598 -372.911 407.418 -382.105 405.228 -391.299C406.411 -392.504 407.895 -395.357 408.715 -394.638C411.746 -391.996 414.569 -388.15 418.378 -383.69H418.389ZM-55.3053 -489.536C-59.7164 -480.68 -63.8266 -472.437 -67.9263 -464.195C-68.4764 -465.653 -69.6181 -467.428 -69.4936 -468.527C-68.7463 -475.227 -68.5594 -483.724 -66.5459 -487.866C-64.5531 -491.988 -60.6506 -491.818 -57.5576 -493.15C-57.1009 -493.34 -56.4574 -491.459 -55.3053 -489.536ZM21.6353 -357.334C24.4273 -361.477 26.3371 -366.613 27.9251 -366.19C30.9973 -365.366 33.8931 -361.392 36.8615 -358.708C33.4779 -353.995 30.1774 -348.859 26.5862 -345.118C26.1087 -344.632 24.0744 -351.205 21.6457 -357.334H21.6353ZM247.268 -355.601C246.292 -363.886 245.451 -366.951 245.846 -368.367C248.773 -378.871 251.897 -389.143 255.177 -399.14C255.384 -399.795 257.418 -397.618 258.602 -396.752C255.27 -384.62 251.928 -372.51 247.268 -355.58V-355.601ZM233.993 -575.409C235.332 -582.108 236.494 -587.878 237.646 -593.669C239.701 -588.682 243.666 -582.996 243.355 -578.832C242.877 -572.407 239.462 -567.039 237.304 -561.206C236.266 -565.665 235.217 -570.146 233.993 -575.409ZM677.078 -298.198C674.972 -298.198 673.311 -297.374 673.062 -298.325C669.408 -312.295 665.931 -326.477 662.485 -340.701C662.485 -340.743 663.959 -342.603 663.98 -342.519C668.142 -328.654 672.231 -314.705 677.078 -298.177V-298.198ZM120.58 -270.912C122.759 -278.098 124.43 -283.572 126.101 -289.068C127.347 -282.833 129.464 -276.682 129.558 -270.363C129.63 -265.502 127.181 -260.45 125.842 -255.505C124.233 -260.218 122.624 -264.931 120.58 -270.933V-270.912ZM506.736 -483.111C504.401 -483.449 503.653 -483.111 503.114 -483.703C497.312 -490.043 491.468 -496.257 485.832 -503.253C484.909 -504.394 484.961 -509.234 484.566 -512.362C486.113 -512.024 488.022 -512.848 489.154 -511.157C494.063 -503.844 498.744 -495.792 503.508 -488.014C504.141 -486.979 504.805 -486.027 506.736 -483.111ZM531.719 -509.509C531.719 -508.642 531.719 -513.144 531.719 -517.667C533.338 -514.137 534.998 -510.692 536.566 -507.057C537.095 -505.81 537.728 -504.035 537.707 -502.534C537.593 -495.137 537.344 -487.739 536.96 -480.384C536.908 -479.433 535.797 -478.736 535.175 -477.911C534.199 -484.337 533.161 -490.719 532.269 -497.208C531.968 -499.406 532.04 -501.837 531.708 -509.53L531.719 -509.509ZM137.944 -359.321C139.76 -374.243 141.452 -389.101 143.455 -403.769C143.819 -406.453 145.427 -408.355 146.455 -410.595C146.424 -407.806 146.642 -404.889 146.33 -402.268C144.566 -387.431 142.698 -372.636 140.788 -357.884C140.508 -355.749 139.812 -353.889 139.304 -351.903C138.868 -354.249 138.442 -356.595 137.944 -359.3V-359.321ZM464.213 -529.82C461.545 -538.443 459.314 -544.593 457.788 -551.462C457.456 -552.942 459.646 -557.084 460.684 -560.022C463.081 -553.343 465.593 -546.834 467.741 -539.796C467.98 -539.014 466.205 -535.336 464.223 -529.841L464.213 -529.82ZM291.721 -418.437C290.767 -422.706 289.407 -426.531 289.76 -427.546C291.597 -432.83 293.662 -438.071 296.143 -441.728C296.807 -442.7 299.226 -438.071 300.834 -436C298.053 -430.653 295.271 -425.285 291.711 -418.437H291.721ZM777.901 -304.708C777.237 -302.446 776.978 -300.65 776.656 -300.607C773.771 -300.206 770.532 -298.282 768.052 -300.417C764.99 -303.038 762.551 -309.125 759.852 -313.711C762.758 -312.929 765.664 -312.274 768.56 -311.302C770.709 -310.583 772.857 -309.717 774.943 -308.427C775.992 -307.772 776.905 -306.018 777.901 -304.708ZM23.981 -593.458C22.7563 -586.505 21.3447 -578.537 19.9331 -570.59C18.3451 -576.951 16.5392 -583.123 15.2937 -589.781C14.7747 -592.549 15.4805 -596.375 15.6258 -599.735C16.6949 -597.643 17.6393 -594.853 18.8952 -593.712C19.6736 -593.014 21.0229 -594.494 21.9571 -595.614C22.5383 -596.311 22.8186 -598.15 23.2337 -599.482C23.4206 -598.002 23.597 -596.544 23.981 -593.458ZM221.776 -223.717C224.288 -220.082 225.855 -217.82 227.423 -215.559C224.548 -212.283 221.787 -208.225 218.746 -206.069C217.448 -205.16 215.559 -208.225 213.94 -209.472C216.369 -213.889 218.798 -218.285 221.776 -223.696V-223.717ZM549.965 -453.5C548.969 -449.632 548.19 -446.631 547.412 -443.63C545.294 -446.589 541.537 -449.252 541.423 -452.57C541.226 -457.896 543.416 -463.666 544.599 -469.225C546.249 -464.406 547.9 -459.566 549.965 -453.5ZM181.038 -432.302C183.384 -437.353 184.889 -442.087 186.965 -444.264C187.691 -445.025 189.809 -439.424 191.293 -436.719C189.3 -431.519 187.297 -426.341 185.304 -421.142C184.204 -424.016 183.114 -426.891 181.038 -432.302ZM122.469 -474.361C121.078 -466.541 120.071 -460.876 119.064 -455.191C117.985 -462.842 116.605 -470.387 115.961 -478.228C115.712 -481.272 117.134 -484.949 117.788 -488.331C119.345 -483.66 120.912 -479.01 122.469 -474.361ZM270.974 -424.566C268.109 -417.634 265.68 -411.779 263.262 -405.925C262.712 -408.883 261.321 -412.836 261.767 -414.632C263.283 -420.761 265.442 -426.151 267.362 -431.815C268.379 -429.786 269.386 -427.757 270.974 -424.587V-424.566ZM229.104 -565.137C228.243 -559.388 227.174 -552.265 226.105 -545.143C225.814 -552.117 225.523 -559.113 225.243 -566.088C225.222 -566.659 225.222 -567.271 225.285 -567.842C225.866 -573.633 226.447 -579.424 227.039 -585.215C227.651 -579.276 228.263 -573.316 229.104 -565.137ZM280.149 -580.46C278.654 -575.979 277.585 -572.788 276.516 -569.575C274.72 -573.527 272.914 -577.48 271.119 -581.432C272.873 -584.602 274.617 -587.773 276.371 -590.922C277.492 -587.815 278.613 -584.708 280.149 -580.439V-580.46ZM-80.4955 -387.093C-83.6196 -382.19 -86.0483 -378.047 -88.6846 -374.623C-89.0479 -374.158 -90.3972 -377.265 -91.2898 -378.723C-88.9026 -384.662 -86.5154 -390.623 -84.1178 -396.562C-83.2875 -394.385 -82.4467 -392.208 -80.4955 -387.114V-387.093ZM201.765 -611.888C199.887 -620.173 197.749 -625.542 198.309 -627.951C199.492 -633.023 202.077 -636.553 204.09 -640.717C204.692 -638.603 205.99 -636.067 205.782 -634.461C204.941 -628.12 203.644 -622.054 201.765 -611.888ZM68.1132 -337.953C67.1064 -340.997 66.3591 -342.349 66.4732 -343.068C67.8744 -351.713 69.3068 -360.336 71.0297 -368.663C71.2061 -369.551 73.3027 -368.557 74.5067 -368.431C72.5139 -358.92 70.5107 -349.409 68.1132 -337.975V-337.953ZM446.309 -626.112C445.053 -621.357 444.077 -617.7 443.101 -614.044C441.731 -618.588 439.51 -622.942 439.271 -627.761C439.105 -631.248 441.565 -635.348 442.852 -639.174C443.963 -634.947 445.084 -630.741 446.298 -626.112H446.309ZM486.081 -684.974C488.873 -673.455 491.001 -664.748 493.035 -655.934C493.046 -655.871 491.292 -653.609 491.25 -653.757C488.863 -660.943 486.455 -668.15 484.369 -675.759C484.037 -676.964 485.127 -680.049 486.092 -684.974H486.081ZM282.858 -706.109C279.661 -703.827 277.512 -700.699 275.696 -701.438C274.004 -702.115 272.655 -706.891 271.16 -709.85C272.852 -713.105 274.399 -716.909 276.329 -719.213C276.744 -719.72 278.498 -714.986 282.868 -706.088L282.858 -706.109ZM139.283 -10.6098C137.954 -2.87427 136.833 4.37512 135.474 11.4343C134.228 17.9229 132.744 24.179 131.364 30.5407C131.935 24.2213 132.36 17.8172 133.097 11.6035C133.979 4.16382 135.048 -3.19122 136.242 -10.4407C136.532 -12.216 137.643 -13.3362 138.37 -14.7734C138.702 -13.2516 139.023 -11.7299 139.273 -10.6098H139.283ZM605.753 -681.339C605.151 -681.994 604.809 -682.099 604.694 -682.522C601.778 -693.196 598.882 -703.911 596.038 -714.69C595.976 -714.923 596.671 -716.085 597.014 -716.825C600.096 -706.405 603.21 -696.007 606.22 -685.46C606.448 -684.657 605.94 -682.86 605.753 -681.339ZM571.118 -132.878C572.488 -137.865 573.764 -142.515 575.041 -147.144C576.235 -144.417 578.684 -140.465 578.414 -139.155C577.293 -133.66 575.352 -128.946 573.723 -123.958C572.965 -126.558 572.197 -129.179 571.118 -132.878ZM265.639 -680.895C263.272 -676.118 261.747 -672.758 260.013 -670.01C259.878 -669.799 257.387 -674.491 257.574 -675.928C258.166 -680.493 259.515 -684.572 260.563 -688.863C261.913 -686.749 263.251 -684.636 265.639 -680.895Z" fill="#004520"/>
</g>
</g>
<defs>
<clipPath id="clip0_254_2944">
<rect width="430" height="360" fill="white"/>
</clipPath>
<clipPath id="clip1_254_2944">
<rect width="1216" height="1986" fill="white" transform="matrix(1 0 0 -1 -353 1254)"/>
</clipPath>
</defs>
</svg>
