<svg width="430" height="360" viewBox="0 0 430 360" fill="none" xmlns="http://www.w3.org/2000/svg">
<g clip-path="url(#clip0_318_5154)">
<rect width="430" height="360" fill="#FAAB28"/>
<g clip-path="url(#clip1_318_5154)">
<path d="M148.105 782.242C146.445 873.758 143.321 965.316 143.487 1056.81C143.736 1187.03 145.479 1317.32 148.396 1447.39C150.16 1525.74 154.8 1603.96 166.995 1678.74C168.801 1689.81 171.479 1700.42 174.416 1710.31C175.828 1715.07 178.776 1717.67 181.038 1721.26C181.578 1714.9 183.052 1708.14 182.491 1702.28C179.398 1669.67 174.354 1637.65 172.683 1604.76C167.67 1506.11 162.055 1407.32 160.114 1308.28C157.675 1184.09 157.415 1059.54 158.547 935.241C159.408 840.216 163.892 745.34 166.809 650.4C166.933 646.258 167.213 642.052 167.774 638.099C168.199 635.098 169.175 632.456 169.902 629.666C170.711 632.52 172.237 635.415 172.216 638.247C172.143 651.837 172.631 665.956 171.147 678.933C163.695 744.41 169.455 807.732 176.824 870.968C179.243 891.744 181.661 912.499 184.214 933.191C184.526 935.685 185.657 937.692 186.404 939.933C186.467 937.101 186.799 934.163 186.55 931.479C181.806 880.162 175.942 829.184 172.621 777.423C170.773 748.595 173.088 718.498 173.711 688.972C173.773 686.246 175.216 683.646 176.025 680.983C176.523 683.583 177.312 686.098 177.489 688.803C179.803 724.099 181.755 759.522 184.443 794.691C185.159 804.054 188.055 812.635 189.954 821.596C189.809 812.106 190.068 802.49 189.435 793.169C188.003 772.013 185.491 751.089 184.713 729.848C184.308 718.752 186.643 707.191 187.774 695.841C187.868 694.869 188.273 694.045 188.532 693.157C189.061 695.08 189.861 696.898 190.068 698.969C191.552 713.489 192.871 728.094 194.334 742.635C206.353 862.408 218.549 982.098 230.142 1102.06C231.315 1114.26 230.588 1130.32 227.776 1140.82C212.736 1197.04 203.8 1258.02 196.213 1320.26C195.86 1323.14 195.33 1326.05 195.341 1328.95C195.341 1332.1 195.87 1335.25 196.171 1338.4C197.323 1336.16 198.942 1334.4 199.534 1331.61C203.073 1314.87 206.218 1297.73 209.778 1281.04C216.452 1249.76 223.24 1218.58 230.194 1187.58C231.398 1182.23 233.619 1177.96 235.373 1173.18C236.224 1179.27 237.387 1185.25 237.885 1191.46C240.864 1228.39 243.479 1265.44 246.707 1302.26C247.517 1311.49 250.143 1319.97 251.938 1328.8C252.956 1319.08 255.322 1308.98 254.761 1299.7C251.71 1249.61 247.787 1199.77 244.569 1149.72C244.04 1141.5 244.445 1131.42 246.23 1124.36C259.93 1070.15 274.056 1016.44 288.11 962.653C288.826 959.927 290.123 957.94 291.151 955.615C291.493 960.815 292.334 966.098 292.116 971.171C289.303 1036.82 286.895 1102.59 283.211 1168.03C281.218 1203.36 276.973 1238.09 273.828 1273.13C273.257 1279.51 272.821 1286.11 272.852 1292.58C272.873 1296.8 273.818 1301.03 274.357 1305.24C274.939 1301.05 275.675 1296.95 276.06 1292.7C280.045 1249.54 285.152 1206.68 287.643 1163.12C291.836 1089.49 294.296 1015.39 297.669 941.518C298.115 931.69 298.738 921.122 300.762 912.563C314.763 853.299 329.118 794.416 343.586 735.681C344.084 733.652 344.977 713.13 348.724 733.103C350.084 730.609 352.263 728.622 352.678 725.515C355.595 703.83 358.086 681.892 360.847 660.123C361.324 656.36 362.456 653 363.286 649.449C363.286 653.317 363.608 657.333 363.224 661.01C359.892 693.432 356.425 725.769 353.052 758.169C352.803 760.536 353.021 763.115 353.031 765.588C353.695 763.791 354.702 762.206 354.962 760.156C361.086 712.834 367.199 665.512 373.115 618.063C374.682 605.509 375.367 592.447 376.903 579.872C377.401 575.814 379.332 572.58 380.609 568.987C381.667 572.855 383.11 576.469 383.722 580.654C389.95 623.157 395.669 666.04 402.27 708.269C409.681 755.675 421.253 798.136 438.057 832.713C445.821 848.692 442.759 867.946 443.558 886.228C443.683 889.166 444.233 892.019 444.575 894.915C444.762 892.04 444.98 889.166 445.136 886.27C445.717 875.449 446.267 864.628 446.838 853.828C450.917 859.428 455.131 864.628 459.065 870.672C480.415 903.474 504.1 925.561 528.667 943.927C532.29 946.633 536.794 951.473 538.392 958.173C559.005 1044.13 579.359 1130.4 599.277 1217.12C603.522 1235.59 605.701 1256.31 609.012 1275.84C609.894 1281.04 611.399 1285.71 612.614 1290.63C612.479 1284.82 612.946 1278.54 612.116 1273.24C606.158 1235.62 601.124 1197 593.516 1160.99C580.386 1098.85 565.565 1038.4 551.564 977.131C550.173 971.044 549.55 964.112 548.564 957.581C551.501 957.623 554.449 957.56 557.386 957.708C575.674 958.638 593.962 959.652 612.25 960.476C613.87 960.54 615.624 960.223 617.077 958.849C618.333 957.665 619.256 954.77 620.325 952.614C619.07 951.98 617.824 950.86 616.558 950.775C595.893 949.169 575.218 947.753 554.553 946.168C546.706 945.576 541.423 937.925 538.455 921.186C535.808 906.264 532.674 891.322 528.553 878.154C520.789 853.299 521.381 830.41 527.162 803.462C537.406 755.696 537.095 755.105 552.342 794.606C562.534 821.004 573.412 846.155 584.102 871.602C585.451 874.815 587.59 876.442 589.364 878.809C589.084 874.075 589.562 868.009 588.399 864.776C578.778 838.124 569.8 809.908 558.777 786.258C546.125 759.141 542.503 734.646 551.667 698.06C560.915 661.095 559.192 659.51 574.823 686.119C591.399 714.335 608.628 740.796 624.737 770.195C632.147 783.722 637.627 802.3 643.845 818.827C647.477 828.507 650.757 838.8 654.348 848.523C654.992 850.256 656.435 850.594 657.514 851.587C657.275 849.389 657.296 846.832 656.756 845.056C653.456 834.129 649.948 823.477 646.668 812.508C644.924 806.675 643.502 800.355 641.935 794.268C644.903 796.487 647.986 798.136 650.809 801.01C656.995 807.309 662.994 814.474 669.19 820.73C670.446 821.998 672.221 820.878 673.757 820.856C672.823 817.792 672.221 813.375 670.903 811.874C661.468 801.095 651.878 790.992 642.392 780.467C641.271 779.22 640.451 776.747 639.485 774.845C640.762 775.12 642.101 774.887 643.295 775.712C654.224 783.32 665.08 791.478 676.072 798.559C678.739 800.271 681.874 798.559 684.79 798.39C682.279 795.431 679.871 791.859 677.234 789.597C662.008 776.557 646.554 764.658 631.576 750.412C627.57 746.608 623.73 737.076 621.913 728.136C615.167 694.954 609.251 660.968 603.138 627.194C602.494 623.622 602.536 619.479 602.255 615.59C603.968 616.668 605.815 617.197 607.383 618.93C636.091 650.802 664.852 682.526 693.353 715.286C696.218 718.583 698.937 728.094 699.228 735.216C700.089 755.887 699.549 776.811 699.892 797.608C699.965 801.814 701.532 805.893 702.414 810.014C703.514 805.808 705.466 801.687 705.569 797.354C706.047 778.945 706.14 760.494 706.036 742.043C705.974 731.116 707.126 726.128 712.658 730.883C747.906 761.086 784.295 781.714 821.66 795.515C829.393 798.369 836.284 813.015 843.352 822.949C850.234 832.65 856.825 843.302 863.54 853.532V842.816C856.96 832.185 850.358 821.617 843.82 810.838C842.802 809.148 842.117 806.484 841.287 804.286C842.47 803.779 843.674 802.638 844.816 802.849C851.064 804.075 857.302 805.639 863.54 807.097V792.81C857.562 791.415 851.573 790.231 845.615 788.583C835.921 785.878 826.673 783.574 818.256 768.673C786.288 712.073 757.372 649.217 732.016 578.561C728.289 568.163 725.196 556.686 721.802 545.717C727.085 551.741 732.316 557.976 737.672 563.703C740.474 566.704 743.464 568.881 746.38 571.418C744.003 567.169 741.803 562.308 739.229 558.758C725.736 540.158 710.157 527.435 702.632 492.731C700.452 482.67 700.546 477.661 706.026 478.887C717.339 481.423 728.767 483.241 739.852 488.377C750.771 493.449 761.305 502.474 772.069 509.216C774.061 510.463 776.397 509.174 778.576 509.068C776.988 506.257 775.587 502.263 773.771 500.826C765.031 493.936 756.168 487.87 747.387 481.233C745.685 479.944 744.201 477.344 742.613 475.358C744.118 473.307 745.55 470.856 747.148 469.25C753.832 462.465 760.33 454.138 767.346 449.805C774.331 445.493 778.773 436.87 783.029 424.908C784.627 420.427 789.412 419.455 792.65 419.92C803.818 421.547 814.934 424.717 826.092 426.81C827.701 427.106 829.413 424.802 831.084 423.703C829.673 420.786 828.427 415.925 826.829 415.312C819.844 412.628 812.744 411.36 805.697 409.268C796.833 406.633 794.695 397.016 799.283 380.418C824.338 290.001 816.481 166.55 779.801 84.0375C750.034 17.0597 712.98 -4.26589 671.162 3.78666C664.925 4.99137 658.303 -3.33587 651.857 -7.24591H628.878C631.213 5.05484 633.725 17.2076 635.822 29.6774C637.129 37.4341 638.136 45.5711 638.738 53.7082C639.724 67.1292 640.274 80.6981 641.011 94.2247C637.181 87.4403 632.905 81.5435 629.719 73.5543C627.996 69.2427 627.643 61.4227 627.549 55.1244C627.228 34.3484 627.311 13.5301 627.238 -7.26706H609.189C609.853 -1.70848 610.704 8.77463 611.14 8.71122C620.938 6.85132 615.935 25.2814 618.312 33.2071C618.8 34.8345 617.897 38.4275 617.637 41.1328C616.537 39.7379 614.918 38.9347 614.42 36.8635C610.912 22.3012 607.621 7.4854 604.269 -7.24591H558.32C558.279 10.5077 558.362 28.2826 558.134 46.0362C558.061 51.468 557.158 56.8574 556.639 62.2892C555.736 56.2233 554.086 50.1787 554.075 44.1129C554.034 26.9933 554.667 9.87369 555.03 -7.24591H550.11C549.602 5.13938 549.301 17.5881 548.481 29.8888C548.107 35.5108 546.696 40.7946 545.751 46.2264C543.53 40.7312 540.188 35.9335 539.347 29.5929C537.79 17.7994 537.697 5.09713 536.991 -7.22475H499.253L500.114 18.6448C497.706 10.5923 495.309 2.56089 492.911 -5.5128C492.766 -5.97777 492.755 -6.6541 492.693 -7.22475H111.976C108.602 6.1539 105.271 19.5959 101.825 32.89C101.067 35.8067 99.8942 38.195 98.9082 40.8158C99.0224 36.9903 98.6799 32.7632 99.3337 29.445C101.731 17.0597 104.451 4.97032 107.056 -7.22475H26.6486C23.5141 13.5935 20.4834 34.4964 17.1205 55.1456C16.6223 58.2102 14.5257 60.0278 13.1765 62.4161C12.3773 59.0345 10.8619 55.5893 10.9034 52.2711C11.1318 37.5186 11.796 22.7874 12.5329 1.75775C13.6331 17.6304 14.2247 27.4371 15.0343 37.1382C15.2211 39.3786 16.1864 41.3019 16.7988 43.352C17.1205 41.1751 17.8263 38.8924 17.7121 36.8212C16.9545 22.111 16.0203 7.44313 15.1485 -7.24591H-20.9502C-21.1163 -4.3081 -20.7737 -0.0387928 -21.5314 1.31387C-26.5964 10.3386 -31.9002 18.7294 -37.1209 27.3314C-35.3668 18.6237 -33.5712 9.93706 -31.8898 1.1659C-31.3812 -1.49714 -31.1529 -4.43489 -30.8 -7.22475H-40.6498C-43.6494 7.99267 -46.5867 23.2524 -49.7004 38.3641C-50.1675 40.6045 -51.3819 42.1261 -52.2537 43.9649C-52.1395 41.1328 -52.316 38.047 -51.8593 35.5108C-49.2956 21.2022 -46.5867 6.99931 -43.9296 -7.22475H-75.1086C-85.1141 31.4529 -93.3966 72.7512 -110.73 99.9946C-115.795 107.941 -120.465 117.135 -125.146 126.181C-125.935 127.703 -125.873 131.338 -126.205 133.98C-125.074 132.881 -123.766 132.247 -122.842 130.62C-119.23 124.279 -115.774 117.516 -112.183 111.154C-111.498 109.928 -110.408 109.801 -109.505 109.146C-109.785 110.753 -109.931 112.507 -110.346 113.923C-122.251 154.587 -133.647 196.794 -154.862 218.078C-170.431 233.718 -186.456 247.308 -202.471 260.771C-207.567 265.061 -213.255 266.055 -218.663 268.57C-214.926 260.137 -211.314 251.471 -207.443 243.355C-195.278 217.803 -184.629 186.332 -170.4 168.494C-149.745 142.582 -131.104 112.634 -114.747 75.8793C-103.049 49.587 -92.6493 20.5682 -81.6786 -7.22475H-101.368C-115.971 21.329 -130.897 49.1219 -145.116 78.5634C-173.005 136.305 -201.506 192.927 -227.682 254.177C-239.213 281.166 -251.533 291.163 -266.946 292.157C-275.416 292.706 -283.906 291.967 -292.365 292.706C-294.617 292.897 -296.807 296.342 -299.028 298.307C-296.994 301.52 -295.063 307.099 -292.894 307.564C-283.408 309.593 -273.828 309.657 -264.341 311.601C-261.912 312.109 -259.785 318.47 -257.304 319.337C-254.242 320.415 -250.724 320.034 -247.838 317.752C-239.525 311.136 -231.491 302.809 -223.219 295.898C-185.979 264.85 -147.482 238.241 -120.59 168.346C-108.841 137.827 -98.2852 105.152 -87.1796 73.4698C-86.0171 70.1516 -85.0518 66.4106 -83.661 63.6419C-81.772 59.8586 -79.5716 56.8363 -77.5062 53.4969C-78.4922 58.1678 -79.4574 62.881 -80.4954 67.5097C-81.3361 71.2506 -82.758 74.7168 -83.0175 78.6057C-83.2562 82.1141 -82.2702 86.0031 -81.8239 89.7229C-79.8311 87.9052 -76.9664 87.3135 -75.9908 84.0586C-72.7733 73.1951 -70.5936 60.852 -67.2619 50.221C-66.0372 46.311 -62.6744 45.5924 -60.2768 43.3943C-60.1522 48.3611 -59.1973 54.1522 -60.0381 58.189C-67.3138 93.1046 -74.6 128.062 -82.4674 162.344C-97.6002 228.286 -112.847 294.143 -128.821 359.113C-131 367.969 -137.404 375.409 -142.303 377.015C-165.521 384.539 -188.937 389.168 -212.196 396.206C-221.33 398.975 -230.246 405.104 -239.213 410.198C-240.469 410.916 -241.393 414.403 -242.472 416.601C-241.206 417.003 -239.909 417.996 -238.663 417.722C-206.353 410.578 -174.063 403.244 -141.753 396.227C-139.625 395.762 -137.394 397.537 -135.214 398.277C-136.397 402.694 -137.124 408.422 -138.847 411.318C-152.869 434.947 -167.068 458.048 -181.215 481.276C-183.581 485.164 -185.979 489.011 -188.355 492.879C-184.152 488.715 -179.762 485.249 -175.786 480.219C-167.286 469.482 -159.097 457.541 -150.513 447.121C-149.07 445.367 -144.545 448.135 -144.441 449.699C-143.009 472.652 -141.805 495.711 -141.328 518.833C-141.255 522.384 -145.469 530.225 -147.005 529.464C-160.581 522.764 -174.001 514.521 -187.473 506.807C-193.192 503.531 -191.137 498.268 -188.272 492.752C-202.845 505.475 -214.449 483.812 -227.308 476.774C-231.086 474.702 -234.896 472.991 -238.694 471.109C-235.29 476.457 -232.052 482.417 -228.44 486.982C-225.388 490.829 -221.88 492.879 -218.631 496.007C-216.431 498.12 -214.334 500.762 -212.196 503.172C-213.961 505.222 -215.808 507.018 -217.469 509.407C-218.247 510.527 -218.673 512.788 -219.265 514.521C-218.133 515.642 -216.774 518.283 -215.902 517.67C-190.649 500.192 -170.026 540.454 -146.465 544.491C-144.327 544.85 -141.878 555.524 -140.809 562.329C-139.179 572.686 -139.594 584.923 -137.352 594.37C-134.996 604.262 -130.897 605.657 -129.008 591.813C-128.312 586.72 -127.326 581.14 -127.669 576.173C-129.236 553.241 -123.911 551.36 -115.307 553.622C-104.492 556.475 -93.5004 556.348 -82.6023 557.806C-80.8586 558.039 -79.1461 559.793 -77.4231 560.85C-78.1393 563.915 -78.596 567.508 -79.6235 569.98C-91.0613 597.794 -102.042 624.235 -120.351 634.697C-152.444 653.042 -182.688 682.695 -210.121 724.374C-211.584 726.593 -212.705 729.869 -213.982 732.638C-212.259 731.623 -210.453 731.01 -208.823 729.51C-180.415 703.45 -152.039 677.221 -123.59 651.33C-121.576 649.491 -119.075 650.147 -116.802 649.661C-118.037 653.423 -119.345 657.058 -120.455 660.968C-121.078 663.166 -121.389 665.787 -121.836 668.217C-120.632 667.118 -119.345 666.315 -118.234 664.857C-109.214 653.063 -100.382 640.509 -91.1651 629.518C-86.4219 623.854 -84.7612 626.834 -84.2526 640.615C-82.6335 683.752 -91.7256 715.92 -102.862 748.891C-135.619 845.817 -172.901 931.563 -221.538 991.397C-223.416 993.722 -224.776 998.076 -226.374 1001.48C-224.371 999.915 -222.306 998.689 -220.386 996.723C-180.405 955.742 -148.811 892.484 -121.296 818.743C-110.616 790.126 -100.776 760.05 -90.4697 730.778C-89.4007 727.734 -87.7815 725.6 -86.4115 723.063C-85.9029 726.825 -84.7197 730.862 -84.9999 734.329C-86.5983 753.984 -88.1137 773.767 -90.5009 793.021C-93.3447 815.911 -93.8222 842.098 -105.779 854.567C-106.578 855.392 -106.91 858.35 -107.46 860.316C-106.288 860.189 -104.866 860.95 -103.973 859.788C-98.0673 852.221 -98.3164 860.612 -98.4513 869.383C-98.6381 880.965 -98.69 892.569 -98.8042 904.172C-97.019 892.843 -94.6318 881.768 -93.5835 870.123C-91.5803 847.952 -87.7608 829.966 -79.4471 814.178C-44.8326 748.447 -10.6229 681.554 15.1485 597.393C15.9477 594.772 17.5149 593.271 18.7189 591.242C19.1756 594.455 20.0059 597.646 20.0267 600.859C20.1305 619.31 20.7636 637.973 19.7049 656.128C19.186 664.941 16.0619 674.389 12.9481 680.92C-6.73075 722.324 -27.0428 762.65 -40.3592 815.636C-47.4066 843.683 -52.9906 873.462 -59.0105 902.671C-59.789 906.454 -59.27 911.485 -59.353 915.944C-58.0868 912.351 -56.3327 909.181 -55.6373 905.123C-46.514 852.158 -33.8307 803.758 -16.2277 762.058C-7.74792 741.958 1.57255 723.507 10.592 704.486C11.8894 701.738 13.6643 700.068 15.2211 697.891C15.1693 702.266 15.4806 706.832 15.0032 710.953C6.65833 783.088 -2.71403 854.715 -9.95867 927.378C-17.2033 999.999 -23.41 1073.3 -27.9561 1146.91C-30.2188 1183.54 -27.7693 1221.54 -27.3645 1258.91C-27.3437 1260.58 -26.4823 1262.2 -26.0152 1263.85C-25.6831 1262.27 -25.1745 1260.72 -25.0603 1259.05C-24.8631 1256.14 -24.7178 1253.09 -24.8631 1250.2C-28.7865 1174.53 -23.9913 1100.67 -15.47 1027.48C-5.14275 938.707 4.96655 849.812 15.2523 761.001C15.8854 755.548 17.3177 750.518 18.3764 745.277C18.8227 751.321 19.9333 757.556 19.6115 763.39C14.671 851.904 9.51261 940.356 4.50986 1028.85C4.16735 1034.89 4.57213 1041.15 4.63441 1047.3C5.78649 1041.61 7.41601 1036.14 7.99724 1030.18C10.3014 1006.32 12.2527 982.288 14.4219 958.363C14.671 955.657 15.4598 953.185 16.0099 950.606C16.3109 953.227 16.8714 955.848 16.8922 958.49C17.4319 1022.72 16.4251 1087.22 18.9265 1151.07C20.6598 1195.44 12.699 1228.26 2.06037 1262.08C-16.7778 1321.95 -34.9101 1382.89 -53.2501 1443.5C-54.3295 1447.07 -54.672 1451.7 -55.3571 1455.85C-54.1323 1452.8 -52.8142 1449.89 -51.6932 1446.65C-26.9389 1375.49 -2.21583 1304.28 22.5696 1233.21C23.4622 1230.65 24.9672 1229.11 26.1815 1227.08C26.7835 1230.23 27.6346 1233.27 27.9356 1236.55C29.4302 1253.26 31.0909 1269.96 32.0146 1286.83C32.3467 1292.83 31.0078 1299.49 30.0529 1305.57C17.8159 1383.99 -1.66573 1454.32 -21.2408 1524.6C-25.0499 1538.25 -28.143 1552.94 -31.0595 1567.61C-31.8691 1571.69 -30.8726 1577.46 -30.7066 1582.45C-28.7449 1579.8 -26.0464 1578.18 -24.9462 1574.37C-14.484 1538.13 -3.54436 1502.39 5.80726 1464.81C26.3372 1382.29 39.7886 1293.51 53.4268 1204.8C67.8123 1111.21 82.2704 1017.5 99.2922 926.11C110.232 867.375 125.832 812.719 139.408 756.33C140.093 753.477 141.432 751.385 142.469 748.933C143.092 752.124 143.788 755.253 144.327 758.507C145.635 766.412 146.87 774.38 148.126 782.327C147.711 768.843 147.067 755.379 146.943 741.895C146.86 733.23 147.42 724.501 147.929 715.877C148.043 713.912 149.112 712.2 149.735 710.361C150.192 712.686 151.126 715.095 151.032 717.294C150.14 738.957 149.071 760.579 148.053 782.2L148.105 782.242ZM328.661 307.226C326.014 297.715 323.222 288.353 320.825 278.525C320.378 276.686 321.52 273.029 321.925 270.218C325.755 276.432 330.041 281.8 333.093 289.494C333.788 291.248 330.208 301.012 328.588 307.099C326.647 317.435 325.132 328.277 322.589 337.851C321.385 342.395 317.721 347.975 316.071 346.855C313.435 345.058 310.238 338.76 309.595 333.096C308.235 321.154 307.602 308.22 308.193 296.046C308.494 289.811 311.785 283.534 314.39 279.116C314.981 278.102 318.521 284.252 320.337 287.972C323.274 294.017 325.9 300.759 328.661 307.226ZM436.967 757.26C436.355 748.51 435.504 739.781 435.224 730.968C435.047 725.325 435.712 719.534 436.002 713.806C438.41 719.365 442.157 724.184 442.884 730.63C443.797 738.682 442.354 748.13 441.648 756.859C441.399 759.881 440.32 762.587 439.614 765.419C438.701 762.608 437.787 759.776 436.884 756.965C436.947 766.37 437.019 775.775 437.082 785.201C437.092 787.399 437.082 789.619 437.082 791.817C438.109 790.401 439.78 789.449 440.071 787.505C442.292 772.9 444.575 758.296 446.153 743.332C447.253 732.87 448.893 730.376 453.989 732.828C463.766 737.541 473.865 739.084 483.694 743.417C486.808 744.791 490.576 749.398 492.164 755.041C497.436 773.704 501.173 794.501 506.778 812.635C515.506 840.893 514.084 867.396 506.996 895.57C504.224 906.581 502.117 909.329 496.315 904.996C468.416 884.199 447.274 843.64 428.768 796.107C410.449 749.039 407.159 687.937 398.596 631.865C398.378 630.406 398.72 628.546 398.793 626.877C399.613 628.102 400.64 628.969 401.211 630.618C404.003 638.691 406.266 647.801 409.463 655.008C422.437 684.322 434.02 715.201 436.957 757.218L436.967 757.26ZM290.673 863.888C291.805 864.205 292.946 864.501 294.078 864.818C292.054 882.889 291.711 902.967 287.715 918.671C273.963 972.735 258.944 1025.28 244.341 1078.33C243.272 1082.19 241.632 1085.34 240.262 1088.81C239.234 1084.27 237.771 1079.98 237.241 1075.18C223.053 946.231 208.865 817.285 194.926 688.211C192.497 665.766 190.712 642.855 189.663 619.923C189.383 613.752 192.144 604.072 194.791 600.584C206.696 584.881 218.953 570.424 231.357 556.665C233.152 554.678 237.854 557.194 238.778 560.681C246.655 590.545 254.128 620.959 261.331 651.626C262.733 657.586 263.148 665.575 262.826 672.36C261.02 710.763 258.809 749.06 256.848 787.42C256.401 796.17 256.36 805.005 256.142 813.797C257.315 804.751 259.027 795.875 259.577 786.638C262.411 738.936 264.912 691.128 267.642 643.383C267.818 640.361 268.836 637.592 269.469 634.697C270.351 636.874 271.472 638.797 272.084 641.291C276.298 658.643 280.004 676.629 284.664 693.389C290.206 713.32 291.774 731.792 283.615 750.096C283.003 751.448 282.993 754.069 282.702 756.098C283.408 755.485 284.228 755.21 284.799 754.217C290.507 744.178 290.59 754.555 290.632 762.354C290.787 796.192 290.694 830.05 290.694 863.909L290.673 863.888ZM809.589 268.591C810.264 303.295 805.801 338.422 796.833 370.822C787.284 405.358 787.191 405.231 768.789 397.411C765.301 395.931 761.378 396.079 758.441 392.465C754.102 387.118 749.048 380.735 746.816 371.795C740.713 347.278 735.835 321.281 730.656 295.686C728.871 286.873 727.604 277.573 726.099 268.506C729.732 273.537 733.271 278.947 737.029 283.491C745.28 293.488 754.621 300.526 761.71 313.461C770.366 329.27 777.154 349.941 784.814 368.371C785.738 370.59 787.098 371.9 788.26 373.633C788.26 370.252 788.862 366.046 788.167 363.658C785.105 353.196 782.396 341.487 778.234 333.455C762.084 302.344 745.384 272.585 728.974 242.087C722.986 230.949 715.865 221.142 711.651 207.277C697.785 161.689 684.998 114.557 671.848 67.9535C664.084 40.4495 667.606 24.6403 682.414 20.5259C749.691 1.96912 809.734 117.516 809.589 268.549V268.591ZM23.5764 1100.84C24.1576 1100.84 24.7492 1100.84 25.3304 1100.84C25.3304 1046.16 25.1851 991.482 25.3616 936.805C25.621 853.299 29.233 770.66 39.7263 689.966C40.2868 685.675 41.3247 681.681 42.1343 677.559C42.9542 681.807 44.1894 685.908 44.5111 690.325C46.8464 722.408 48.9949 754.555 51.216 786.681C51.4547 790.062 51.818 793.402 52.1294 796.783C52.9286 793.529 54.226 790.422 54.4232 786.998C55.1809 774.042 55.3677 760.917 56.2811 748.024C56.4575 745.509 58.8136 742.656 60.3601 741.916C62.2906 741.007 64.4287 742.127 66.4837 742.381C66.4422 737.816 66.8574 732.976 66.2762 728.749C64.7297 717.357 62.8926 706.134 60.9413 695.017C53.6136 653.254 53.6344 653.507 71.8498 632.837C74.9635 629.307 77.3819 622.903 80.122 617.831C77.2469 620.684 74.3615 623.537 71.4969 626.433C70.2618 627.68 69.1097 629.603 67.8227 630.322C63.152 632.9 58.4399 635.119 53.7382 637.465C56.4782 627.912 58.6579 617.281 62.0622 609.017C76.9563 572.813 92.1929 537.263 107.326 501.544C109.09 497.381 111.052 493.597 112.92 489.645C113.501 495.521 114.83 501.587 114.529 507.251C112.588 544.449 110.284 581.562 108.166 618.718C108.011 621.466 108.374 624.361 108.488 627.172C109.329 624.657 110.689 622.354 110.917 619.606C113.003 594.455 114.882 569.241 116.833 544.026C117.009 541.744 117.279 539.503 117.497 537.242C117.84 539.609 118.618 542.124 118.463 544.301C116.584 570.636 115.152 597.245 112.235 623.051C111.322 631.125 106.869 639.452 103.091 643.362C95.5038 651.225 87.2005 655.705 79.3643 662.532C77.7555 663.927 76.894 669.443 75.69 673.057C77.5583 674.938 79.4681 678.616 81.274 678.362C87.5119 677.453 93.8017 676.037 99.915 673.205C106.578 670.12 108.281 674.664 106.994 688.74C103.216 730.144 99.6659 771.654 96.1889 813.206C92.0683 862.43 87.3977 911.168 76.3335 955.911C66.764 994.61 57.3812 1033.56 48.4863 1073.02C41.7606 1102.89 36.0106 1133.76 29.617 1163.99C28.849 1167.62 26.7835 1169.95 25.32 1172.89C24.7284 1169.08 23.6698 1165.3 23.6386 1161.49C23.4726 1141.27 23.5556 1121.04 23.5556 1100.84H23.5764ZM699.145 694.615C697.287 695.144 694.547 697.955 692.959 696.095C661.209 658.96 629.459 621.804 598.156 582.936C595.177 579.238 592.758 562.203 594.128 554.995C602.556 510.527 612.053 466.988 621.54 423.513C622.183 420.596 626.21 418.166 627.809 419.708C641.053 432.411 654.141 445.832 667.135 459.696C669.377 462.085 671.702 466.861 672.667 471.743C686.378 541.088 695.356 613.223 699.145 694.594V694.615ZM813.398 775.056C810.15 775.056 808.395 775.902 806.891 774.93C774.943 754.513 742.965 734.286 711.184 712.686C708.278 710.72 705.497 700.512 704.614 693.051C701.314 664.857 699.238 635.986 695.938 607.77C690.945 565.162 685.309 522.891 679.974 480.472C679.705 478.295 679.684 475.992 679.538 473.73C680.182 474.343 680.96 474.66 681.448 475.632C690.623 494.21 701.054 510.654 708.673 531.873C738.824 615.907 769.027 699.561 808.198 765.292C809.485 767.448 810.669 769.92 813.388 775.035L813.398 775.056ZM738.949 384.37C723.878 373.211 710.655 361.544 696.965 353.703C675.428 341.36 660.763 314.729 652.003 269.542C646.948 243.461 641.136 219.578 645.059 189.862C646.834 176.378 646.471 161.583 647.239 147.422C647.446 143.576 648.277 139.877 648.816 136.115C650.415 137.975 652.189 139.37 653.591 141.8C664.468 160.716 675.293 179.801 686.108 198.887C695.211 214.971 706.991 227.504 712.793 248.026C723.889 287.274 731.621 331.025 740.547 373.126C741.045 375.472 739.665 379.678 738.959 384.349L738.949 384.37ZM360.255 413.579C359.269 419.856 358.46 426.746 357.141 433.172C350.914 463.564 344.759 494.041 338.179 524.075C326.087 579.301 313.736 634.253 301.395 689.226C300.606 692.734 299.008 695.376 297.793 698.399C297.202 694.89 296.164 691.424 296.102 687.894C294.887 619.627 293.559 551.381 292.978 483.093C292.905 474.618 296.122 463.987 299.257 457.815C309.937 436.786 321.157 417.024 332.408 397.39C335.117 392.655 338.791 390.647 341.863 386.78C342.766 385.638 343.213 382.468 343.669 380.059C345.797 368.667 347.852 357.211 349.928 345.777C350.789 347.447 352.159 348.799 352.419 350.828C355.097 371.372 357.598 392.021 360.266 413.643L360.255 413.579ZM399.748 474.956C403.246 458.682 405.913 445.726 408.819 433.024C410.22 426.894 412.057 421.251 413.697 415.376C415.763 421.378 418.264 426.873 419.821 433.446C432.328 486.137 444.845 538.827 456.978 591.919C466.465 633.407 475.308 675.615 484.67 717.251C487.95 731.813 485.957 737.668 479.013 735.153C471.26 732.342 463.569 728.432 455.941 724.205C450.305 721.077 449.422 712.961 452.194 702.435C456.262 686.985 460.404 671.62 464.348 656.022C465.012 653.38 464.825 649.682 465.033 646.49C463.704 647.822 461.784 648.371 461.13 650.633C457.497 663.166 453.917 675.847 450.782 689.014C444.866 713.87 442.925 714.863 433.532 694.806C431.653 690.79 429.93 685.506 429.152 680.116C421.648 627.933 414.351 575.624 407.075 523.293C406.723 520.756 407.138 517.692 407.19 514.881C408.394 515.599 409.618 516.149 410.791 517.058C412.857 518.664 414.891 520.481 416.946 522.193C415.618 517.945 414.424 513.465 412.94 509.491C408.57 497.782 404.097 486.263 399.779 474.977L399.748 474.956ZM361.096 472.082C361.044 472.082 360.992 472.082 360.94 472.082C360.577 489.878 359.83 507.695 359.923 525.469C360.255 589.446 355.284 649.724 339.974 706.261C326.845 754.766 316.31 806.611 304.467 856.808C303.087 862.662 300.658 867.354 298.717 872.596C298.375 866.297 297.793 860.02 297.731 853.722C297.565 837.68 298.229 821.49 297.503 805.597C295.012 751.025 297.679 699.836 314.161 654.923C318.655 642.665 320.98 626.581 324.156 612.103C335.117 562.266 346.005 512.323 356.996 462.507C357.754 459.083 359.145 456.336 360.234 453.292C360.525 457.181 360.878 461.049 361.085 464.959C361.21 467.305 361.106 469.714 361.106 472.082H361.096ZM-87.9061 546.224C-87.9165 546.457 -87.9268 546.689 -87.9372 546.943C-94.4449 545.654 -100.953 544.259 -107.471 543.096C-125.852 539.841 -125.78 539.863 -128.509 501.481C-129.796 483.347 -131.924 465.424 -132.754 447.205C-133.979 420.3 -126.755 402.927 -117.123 389.421C-114.518 385.765 -111.56 383.356 -108.758 380.354C-109.038 386.78 -109.246 393.205 -109.63 399.609C-109.765 401.891 -110.709 404.11 -110.657 406.287C-110.574 409.965 -109.993 413.6 -109.609 417.235C-108.478 415.08 -106.983 413.347 -106.267 410.662C-103.278 399.334 -101.264 386.357 -97.4341 376.719C-94.995 370.59 -90.0027 369.28 -86.152 365.813C-85.1141 372.027 -83.6506 378.051 -83.1005 384.455C-79.198 429.748 -75.7313 475.252 -71.6004 520.439C-69.8671 539.334 -71.5485 545.717 -80.5369 546.182C-82.9864 546.309 -85.4462 546.182 -87.9061 546.182V546.224ZM16.9856 557.933C15.2626 563.407 14.2455 566.937 13.0934 570.255C3.56535 597.773 -5.21539 626.75 -15.688 652.472C-36.4981 703.577 -58.201 752.949 -79.6443 802.828C-80.9624 805.893 -83.1836 807.14 -84.9791 809.253C-84.6263 805.301 -84.4706 801.222 -83.879 797.46C-75.0982 741.789 -66.3071 686.119 -57.4017 630.554C-52.617 600.69 -52.0669 600.457 -40.0167 617.915C-38.9372 619.479 -37.7022 620.515 -36.5397 621.783C-37.2662 619.014 -38.055 616.288 -38.7193 613.435C-39.9959 608.003 -46.5037 602.127 -39.778 596.632C-22.3929 582.429 -4.69644 570.044 12.9066 557.151C13.9134 556.411 15.2108 557.574 16.9856 557.976V557.933ZM-76.2814 392.317C-74.8802 350.997 -76.2503 358.247 -60.2975 345.587C-54.9108 341.318 -49.6382 336.287 -44.2514 331.976C-41.0442 329.418 -37.7229 327.558 -34.4535 325.382C-35.564 331.891 -36.7265 338.38 -37.7644 344.953C-38.19 347.616 -38.3456 350.469 -38.6259 353.238C-37.5153 351.399 -36.1245 350.004 -35.3357 347.637C-31.5473 336.16 -28.0184 324.282 -24.1573 312.933C-23.5035 311.009 -21.7079 310.925 -20.452 309.995C-20.1199 312.552 -19.2376 315.49 -19.549 317.604C-24.2404 348.99 -27.4787 382.066 -34.3185 411.085C-41.8746 443.105 -52.7519 471.405 -62.2281 501.269C-63.1207 504.08 -64.2935 506.49 -65.3314 509.09C-66.3071 505.877 -67.8951 502.876 -68.1649 499.41C-70.9881 463.754 -73.6036 428.036 -76.2711 392.317H-76.2814ZM685.06 373.232C704.843 383.102 724.875 391.894 744.543 403.54C751.964 407.936 758.669 418.546 765.405 427.381C766.412 428.712 766.433 439.301 765.862 439.787C754.331 449.657 742 468.975 731.123 465.741C706.898 458.534 681.718 445.515 672.263 384.032C671.889 381.58 671.837 378.875 671.64 376.275C672.418 377.797 673.238 379.234 673.965 380.883C678.013 390.204 677.816 390.013 680.078 380.059C680.711 377.29 682.839 376.127 685.071 373.19L685.06 373.232ZM21.3967 475.062C20.9193 475.273 20.4419 475.484 19.954 475.675C19.954 482.797 19.6738 489.983 20.0163 497.021C20.7221 511.457 18.0754 519.002 11.4016 521.602C-1.19869 526.526 -13.7055 532.613 -26.2747 537.812C-27.9873 538.531 -29.897 537.009 -31.7134 536.523C-31.2255 532.719 -31.0387 528.555 -30.198 525.173C-23.1921 497 -16.1654 468.869 -8.9415 440.971C-3.59624 420.321 1.96696 399.947 7.64435 379.72C8.49544 376.698 10.5401 375.282 12.0347 373.105C12.5848 376.275 13.3633 379.361 13.6435 382.658C16.2694 413.431 18.8227 444.246 21.3864 475.062H21.3967ZM-60.4429 199.478C-60.8061 197.28 -62.7678 191.701 -62.3111 187.347C-60.173 167.12 -56.9762 149.811 -49.6797 132.818C-38.7193 107.329 -31.7964 73.6601 -23.0364 43.6268C-21.9674 39.9704 -20.1925 37.2861 -18.7394 34.1581C-18.2101 39.611 -17.3486 45.0428 -17.2137 50.5379C-16.8193 67.4462 -16.7362 84.3756 -16.4041 101.305C-16.3834 102.277 -15.3662 103.44 -14.7123 104.01C-8.8066 109.104 -6.81379 126.35 -11.2872 137.214C-16.0097 148.69 -21.7494 158.328 -26.0464 170.46C-34.1732 193.392 -44.9779 200.852 -60.4532 199.478H-60.4429ZM589.167 545.506C587.953 538.446 587.112 533.733 586.323 528.978C577.117 472.821 581.331 415.08 582.244 357.782C582.286 355.415 586.23 350.448 586.894 351.441C594.315 362.305 602.868 371.731 608.099 386.568C610.901 394.536 607.673 412.248 607.528 425.563C607.435 433.51 608.13 441.478 608.306 449.467C608.421 454.497 608.929 460.225 608.057 464.473C603.169 488.335 597.958 511.879 592.758 535.424C592.115 538.341 590.911 540.666 589.157 545.506H589.167ZM-11.09 215.098C-11.4533 263.561 -20.4416 293.235 -38.273 309.741C-46.2961 317.16 -54.3814 324.304 -62.581 330.792C-65.9646 333.476 -69.7011 334.068 -73.2819 335.611C-72.7733 324.684 -72.4827 313.694 -71.6316 302.915C-71.4032 300.04 -69.535 297.673 -68.331 295.285C-58.284 275.27 -48.6521 254.071 -37.9824 235.789C-31.8275 225.242 -24.0847 218.86 -16.7882 211.864C-15.2002 210.342 -12.5119 214.21 -11.1004 215.098H-11.09ZM567.018 517.734C566.468 522.024 565.741 527.773 565.015 533.522C563.292 528.576 561.548 523.673 559.867 518.685C559.556 517.776 559.472 516.487 559.306 515.346C551.449 459.696 543.364 404.174 535.943 348.25C534.604 338.147 535.85 326.354 536.109 315.384C536.171 312.595 537.033 309.889 537.521 307.142C538.455 309.488 539.378 311.855 540.323 314.201C541.008 315.892 541.714 317.519 542.409 319.168C542.482 316.97 542.16 313.863 542.7 312.743C544.08 309.91 545.98 305.705 547.433 306.106C554.075 307.924 557.231 317.963 557.916 331.659C560.977 393.014 563.936 454.391 567.028 517.734H567.018ZM622.308 249.95C622.681 269.922 621.426 277.975 614.212 268.147C605.66 256.502 596.505 246.758 588.368 233.908C584.943 228.497 582.089 217.718 581.393 208.524C579.286 180.457 578.311 151.987 577.044 123.645C576.878 119.862 577.584 115.888 577.885 111.999C579.888 113.331 582.452 113.437 583.749 116.29C585.545 120.263 586.624 126.076 587.569 131.465C589.883 144.78 591.824 158.37 594.191 171.643C594.647 174.201 596.329 175.722 597.45 177.73C597.772 175.067 598.498 172.299 598.353 169.762C597.803 159.765 596.91 149.853 596.287 139.856C596.1 136.812 596.37 133.642 596.422 130.535C597.18 132.881 598.104 135.037 598.654 137.573C605.245 167.585 611.846 197.576 618.281 227.736C620.201 236.761 621.633 246.272 622.297 249.971L622.308 249.95ZM519.129 292.685C518.786 300.082 518.817 302.492 518.548 304.775C515.33 332.758 487.306 363.171 474.934 351.293C473.201 349.624 471.488 341.127 471.893 336.689C474.239 310.502 477.301 284.612 479.947 258.552C481.027 247.9 482.677 242.172 488.22 248.681C496.378 258.277 504.992 266.118 512.953 276.411C516.005 280.342 517.779 288.965 519.139 292.706L519.129 292.685ZM441.462 370.738C442.178 370.083 442.894 369.406 443.61 368.751C443.61 363.404 443.268 357.909 443.787 352.815C443.994 350.828 446.578 347.827 447.347 348.63C455.006 356.641 456.563 370.146 452.827 387.498C451.83 392.127 452.63 398.594 452.609 404.237C455.266 402.103 459.251 401.638 460.331 397.537C464.171 382.954 467.877 387.667 470.741 397.347C480.477 430.276 490.046 463.501 498.941 497.529C500.239 502.474 497.841 512.661 496.357 519.636C496.139 520.693 491.167 518.706 489.05 515.832C471.634 492.202 459.418 458.809 451.145 418.229C447.917 402.399 444.689 386.589 441.462 370.759V370.738ZM553.722 651.436C553.006 654.226 552.695 656.762 551.948 658.178C545.357 670.606 538.839 683.287 531.874 694.679C530.816 696.412 526.467 693.368 525.543 690.029C514.51 650.379 503.737 610.391 493.264 570.023C492.319 566.366 493.959 559.54 494.395 554.192C496.284 555.397 498.547 555.545 499.99 557.976C516.337 585.768 532.559 613.878 548.803 641.967C550.463 644.842 551.999 648.075 553.733 651.436H553.722ZM485.791 592.024C487.254 596.252 488.822 600.225 490.109 604.579C497.343 629.117 504.349 653.972 511.749 678.257C522.627 713.996 522.595 713.722 503.425 727.777C496.865 732.574 493.388 729.32 490.596 715.73C486.248 694.573 481.162 674.114 476.419 653.317C472.568 636.43 476.107 606.249 483.196 595.216C483.84 594.223 484.577 593.504 485.791 592.003V592.024ZM562.804 587.607C561.393 599.739 560.469 605.974 559.971 612.378C558.601 629.983 555.694 629.836 550.775 617.239C541.423 593.335 531.625 570.234 522.367 546.161C517.489 533.48 512.559 520.312 509.269 505.644C507.826 499.198 510.421 488.44 511.189 479.627C513.981 481.783 517.198 482.67 519.492 486.327C528.501 500.657 538.278 513.739 545.741 531.366C553.037 548.613 557.864 570.847 562.804 587.607ZM482.241 579.301C479.377 589.171 476.304 598.915 473.647 609.165C470.565 621.064 468.8 618.613 466.444 607.813C457.176 565.542 447.658 523.525 438.223 481.402C434.767 465.952 431.249 450.545 427.875 434.989C427.336 432.516 427.387 429.41 427.169 426.599C428.124 426.599 429.453 425.711 429.972 426.746C439.375 445.451 450.087 462.106 457.632 483.917C466.403 509.259 472.402 539.144 479.563 567.106C480.477 570.657 481.183 574.461 482.241 579.301ZM483.86 363.848C496.191 365.433 505.958 352.688 514.686 335.738C519.409 326.565 520.924 328.657 522.512 341.233C527.007 376.761 517.987 405.886 513.337 437.018C513.14 438.307 508.563 438.963 507.276 436.638C498.225 420.406 489.413 403.498 480.705 386.399C477.373 379.868 474.498 372.217 471.416 365.074C475.567 364.672 479.719 364.249 483.871 363.848H483.86ZM105.489 384.37C102.188 404.216 99.7489 427.423 94.4659 446.994C91.9438 456.336 84.0245 458.766 78.5547 464.325C75.8769 447.966 69.556 429.388 71.31 415.756C74.5276 390.732 82.2497 368.244 88.747 345.608C90.1171 340.831 94.3103 337.978 97.2164 337.957C98.7006 337.957 100.776 345.735 101.565 350.744C103.143 360.804 104.025 371.393 105.489 384.391V384.37ZM268.348 546.161C269.012 524.603 264.051 499.093 275.79 483.6C277.523 481.318 279.505 479.902 281.374 478.084C282.214 482.227 283.657 486.285 283.802 490.533C284.446 509.449 284.716 528.428 285.131 547.387C285.972 585.895 286.854 624.404 287.591 662.933C287.653 665.914 286.75 668.999 286.304 672.043C285.639 670.31 284.726 668.788 284.352 666.78C277.035 627.87 262.753 593.462 268.337 546.161H268.348ZM263.023 453.546C265.514 473.836 260.636 484.784 249.935 485.946C248.316 486.115 246.562 488.694 245.15 487.849C241.04 485.418 235 484.171 233.557 478.126C231.46 469.334 231.149 455.385 232.851 446.022C237.574 419.962 250.143 404.385 253.692 375.916C254.201 371.858 256.931 369.132 258.623 365.771C259.37 370.717 260.584 375.578 260.781 380.629C261.653 403.73 262.234 426.873 263.023 453.546ZM-121.047 367.758C-120.621 360.466 -120.943 354.569 -119.915 350.216C-105.302 288.5 -90.5216 226.954 -75.7106 165.472C-75.1397 163.105 -73.9046 161.477 -72.9809 159.491C-72.9705 162.767 -72.5864 166.275 -73.0016 169.276C-78.7309 211.399 -82.7476 255.276 -91.0406 294.904C-96.5 321.028 -108.145 341.022 -117.071 363.658C-117.549 364.883 -118.514 365.2 -121.067 367.758H-121.047ZM282.505 411.571C283.346 412.417 284.197 413.262 285.037 414.107C281.872 430.72 278.997 447.628 275.333 463.691C274.409 467.749 270.963 469.059 268.68 471.638C267.912 466.861 266.635 462.169 266.459 457.266C265.494 430.699 265.743 403.751 263.729 377.607C261.757 352.075 265.41 332.314 272.717 314.222C273.963 311.136 276.174 309.932 277.938 307.839C278.841 311.855 280.907 316.716 280.439 319.717C278.53 331.849 278.727 342.078 280.533 355.119C282.982 372.767 282.007 392.655 282.495 411.571H282.505ZM52.6795 393.458C53.0843 429.557 49.4723 462.888 38.4808 491.019C37.3079 494.02 35.8653 496.556 34.5471 499.304C33.53 495.5 31.9835 491.949 31.5683 487.849C29.8869 471.067 28.3611 454.201 27.1053 437.23C23.9915 394.938 24.0642 394.895 42.0927 378.283C51.7246 369.385 53.022 371.224 52.6691 393.458H52.6795ZM386.172 536.883C388.32 526.209 390.635 514.225 393.157 502.453C393.801 499.452 395.108 497.127 396.105 494.506C397.07 497.761 398.398 500.741 398.949 504.292C407.127 557.236 415.213 610.222 423.257 663.272C423.734 666.442 423.651 669.993 423.838 673.374C422.551 671.557 420.766 670.373 420.049 667.816C409.203 628.948 398.471 589.932 387.833 550.789C386.909 547.366 386.857 542.822 386.182 536.904L386.172 536.883ZM165.854 420.258C164.951 436.046 163.892 456.082 162.564 476.055C162.314 479.733 160.674 486.306 160.176 486.073C154.385 483.558 148.24 481.804 143.175 475.886C140.798 473.117 139.19 461.366 139.605 454.349C140.497 439.174 141.525 422.519 145.116 410.028C148.738 397.411 155.506 389.062 160.903 378.854C162.553 390.626 164.203 402.42 165.843 414.192C165.916 414.741 165.843 415.376 165.843 420.258H165.854ZM474.166 259.249C471.883 281.103 469.693 302.999 467.202 324.747C466.807 328.15 465.043 330.792 463.901 333.793C463.05 330.877 462.002 328.129 461.39 324.98C457.373 304.31 452.432 284.104 449.869 262.588C448.166 248.28 449.651 231.963 450.325 216.683C450.429 214.294 454.155 210.11 455.712 210.976C468.084 217.782 473.025 232.154 474.156 259.249H474.166ZM534.49 751.723C534.293 752.97 534.116 754.745 533.753 756.288C529.02 776.303 524.339 796.382 519.316 816.017C519.015 817.221 514.842 816.333 514.271 814.178C510.462 799.763 507.39 784.419 503.602 769.963C495.267 738.175 496.98 740.141 509.632 731.01C511.957 729.341 514.136 726.741 516.368 724.501C523.228 717.653 534.718 734.582 534.479 751.702L534.49 751.723ZM581.642 252.655C582.265 251.788 585.337 245.152 586.406 246.42C596.91 258.953 607.331 272.036 617.149 286.915C619.163 289.959 619.236 301.287 618.935 308.558C618.748 313.123 616.464 320.33 614.679 321.028C597.855 327.664 582.442 298.434 581.642 252.634V252.655ZM51.1122 575.011C54.0807 552.628 48.8184 517.353 66.6706 505.412C69.9607 503.214 73.5104 502.791 76.9459 501.544C77.2158 512.048 79.3643 524.814 77.3818 532.634C71.8913 554.34 64.7504 574.102 58.0766 594.328C56.9038 597.879 54.8072 600.014 53.1362 602.782C52.4615 598.027 51.6623 593.314 51.1745 588.474C50.8943 585.642 51.1226 582.556 51.1226 575.032L51.1122 575.011ZM510.857 158.201C509.559 161.033 507.452 167.712 504.536 171.411C501.069 175.828 496.917 177.625 493.077 180.626C488.126 184.515 486.331 180.964 486.102 169.382C485.552 141.631 484.379 113.923 483.57 86.1933C483.476 83.0653 484.078 79.8316 484.359 76.6401C485.698 78.3944 487.088 80.0007 488.365 81.9451C497.447 95.7676 499.377 117.389 501.484 138.862C501.692 140.997 502.107 143.026 502.429 145.118C502.948 143.406 503.643 141.821 503.975 139.94C505.003 134.065 505.906 128.062 506.85 122.123C507.815 128.591 508.874 134.995 509.725 141.547C510.161 144.928 510.223 148.564 510.867 158.222L510.857 158.201ZM699.373 188.636C698.024 188.298 696.934 188.742 696.332 187.77C690.437 178.301 682.964 170.988 679.092 158.455C668.786 125.061 659.891 89.5749 650.84 54.4057C649.74 50.1575 651.172 42.8236 651.421 36.9268C653.715 39.5476 656.922 40.8791 658.147 45.0005C671.121 88.8563 683.784 133.156 696.519 177.35C697.38 180.351 698.096 183.585 699.373 188.636ZM597.377 643.7C596.37 633.196 595.353 623.347 594.523 613.435C594.326 611.046 594.72 608.447 594.834 605.932C595.447 607.791 596.246 609.461 596.63 611.511C603.605 648.266 610.538 685.041 617.44 721.859C617.71 723.317 617.596 725.135 617.658 726.783C616.641 725.388 615.375 724.437 614.638 722.514C606.604 701.548 598.54 680.645 590.734 659.298C586.334 647.251 580.978 635.436 578.819 621.487C577.636 613.815 582.182 601.958 584.144 591.982C586.188 597.773 588.929 602.973 590.112 609.503C592.105 620.473 593.039 632.33 594.585 643.7C594.814 645.412 595.934 646.554 596.64 647.97C596.91 646.406 597.18 644.842 597.377 643.7ZM36.2493 1266.85C35.3671 1264.61 34.5263 1263.47 34.4641 1262.16C33.5611 1242.48 29.3887 1219.49 32.627 1203.74C40.3594 1166.04 51.6001 1131.74 61.4395 1096.08C61.8443 1094.62 62.4774 1093.48 62.9964 1092.19C63.0794 1094.18 63.4738 1096.4 63.2143 1098.13C54.9214 1151.62 46.5765 1205.05 38.2006 1258.48C37.7854 1261.1 37.0485 1263.49 36.2597 1266.87L36.2493 1266.85ZM133.315 577.695H133.844C133.844 567.571 133.554 557.405 133.927 547.366C134.322 536.819 135.36 526.399 136.117 515.916C140.425 518.135 144.794 519.869 148.998 522.785C151.105 524.244 154.717 529.274 154.551 530.309C149.828 559.455 144.784 588.347 139.543 617.07C139.107 619.479 136.792 622.015 135.619 621.508C134.654 621.086 133.492 616.33 133.429 613.392C133.18 601.514 133.325 589.594 133.325 577.695H133.315ZM291.213 376.043C291.037 376.043 290.86 376.043 290.673 376.043C290.673 364.165 290.528 352.287 290.767 340.43C290.829 337.196 292.095 334.089 292.801 330.94C299.828 341.022 306.906 350.955 313.767 361.523C314.276 362.305 313.705 368.413 312.895 370.886C307.809 386.315 302.568 401.511 297.223 416.517C296.32 419.032 294.659 420.279 293.351 422.097C292.635 418.609 291.379 415.185 291.296 411.635C291.037 399.778 291.192 387.9 291.192 376.022L291.213 376.043ZM-41.9472 583.697C-42.5907 582.049 -44.1787 578.561 -44.0438 578.202C-40.5356 569.029 -37.5049 554.784 -33.0834 552.248C-17.5562 543.308 -1.5412 538.341 14.3181 532.127C15.7401 531.578 17.3177 532.803 18.8227 533.205C17.7744 536.164 17.0063 540.75 15.6467 541.828C3.57572 551.381 -8.56788 560.47 -20.7426 569.367C-27.4683 574.292 -34.3082 578.561 -41.9472 583.697ZM-28.5789 459.295C-29.1497 458.766 -29.7206 458.217 -30.2914 457.688C-29.5856 452.743 -29.1912 447.459 -28.1222 442.936C-18.5111 402.399 -8.81696 361.988 0.980958 321.662C1.59333 319.125 3.18132 317.688 4.30227 315.744C5.34018 320.119 7.69626 325.445 7.19806 328.721C3.9909 349.877 1.43761 372.302 -3.81423 391.007C-10.1455 413.558 -18.947 432.833 -26.6691 453.567C-27.3541 455.406 -27.9457 457.393 -28.5893 459.316L-28.5789 459.295ZM526.737 393.247C527.577 397.094 528.138 399.038 528.449 401.152C532.518 428.839 536.576 456.526 540.531 484.298C540.873 486.686 540.416 489.603 540.333 492.266C539.109 491.315 537.749 490.786 536.669 489.328C516.441 461.979 514.489 447.924 524.484 401.912C525.014 399.482 525.709 397.199 526.737 393.268V393.247ZM263.812 268.358C261.57 258.805 260.231 255.55 260.065 252.021C258.955 227.863 258.052 203.642 257.221 179.421C257.138 176.906 257.948 174.243 258.342 171.643C259.733 173.081 261.767 173.715 262.421 176.103C266.708 191.828 273.008 207.277 273.994 224.122C274.71 236.275 268.234 250.415 263.802 268.358H263.812ZM633.248 357.676C646.284 358.458 656.85 379.467 657.815 402.906C657.867 404.111 654.992 407.809 654.12 407.006C646.595 400.137 639.008 393.289 631.94 384.56C630.051 382.235 628.878 373.105 629.21 367.631C629.49 363.129 632.49 359.43 633.258 357.676H633.248ZM213.442 444.183C208.18 469.123 202.845 494.506 197.396 519.784C197.064 521.327 195.829 521.919 195.009 522.954C194.801 520.693 194.261 518.305 194.438 516.212C197.074 485.439 199.742 454.666 202.71 424.041C202.855 422.583 206.851 420.659 207.318 421.949C209.436 427.761 210.92 434.672 213.432 444.183H213.442ZM532.829 930.866C530.67 931.521 529.269 932.895 528.159 932.134C523.747 929.175 519.181 926.554 515.174 921.799C512.507 918.628 508.459 910.724 508.895 907.279C510.462 895.063 513.669 883.84 516.389 872.384C516.451 872.131 518.579 873.103 518.921 874.477C523.374 892.061 527.671 909.836 532.808 930.845L532.829 930.866ZM58.5748 226.067C55.6168 234.204 51.8803 245.427 47.6248 255.677C46.0991 259.355 43.3383 260.623 41.1379 263.011C40.3802 256.988 38.4497 250.246 39.1139 245.089C40.4113 234.986 42.5598 224.756 45.466 216.429C48.4448 207.869 52.7521 201.486 56.4783 194.174C57.0699 203.241 57.6719 212.329 58.5748 226.088V226.067ZM386.099 360.868C387.542 362.326 388.019 362.918 388.528 363.319C403.588 375.134 407.003 392.19 400.526 423.132C399.966 425.816 399.603 428.797 398.866 431.227C398.212 433.404 397.163 435.031 396.292 436.891C395.731 434.989 394.932 433.235 394.631 431.143C391.735 410.768 388.891 390.373 386.141 369.914C385.798 367.399 386.099 364.461 386.099 360.825V360.868ZM228.845 524.222C228.16 523.314 230.433 524.772 231.253 528.006C231.782 530.077 230.609 536.629 229.447 537.897C220.323 547.852 211.034 557.088 201.745 566.324C200.946 567.127 199.794 566.261 198.797 566.176C199.119 563.999 199.41 561.78 199.783 559.624C204.371 533.374 213.753 523.335 228.845 524.244V524.222ZM513.887 216.852C513.721 218.669 513.285 223.171 512.86 227.673C510.701 226.067 508.262 225.369 506.435 222.706C501.93 216.154 497.519 209.18 493.534 201.275C492.703 199.626 493.212 190.644 494.229 189.397C509.051 171.178 511.801 174.328 513.607 210.49C513.669 211.652 513.711 212.836 513.887 216.873V216.852ZM393.333 272.903C394.185 268.274 395.191 261.468 396.738 255.297C397.07 253.965 400.277 253.817 400.599 255.043C405.467 273.537 410.127 292.305 414.632 311.242C415.005 312.806 414.019 318.048 413.531 318.132C405.944 319.569 392.981 291.734 393.323 272.903H393.333ZM424.979 357.803C425.924 359.198 426.547 359.621 426.775 360.508C432.951 385.004 439.095 409.521 445.208 434.102C445.416 434.926 445.198 436.236 445.177 437.335C444.492 436.743 443.662 436.49 443.143 435.475C435.826 421.188 428.021 407.788 421.606 391.767C419.8 387.266 421.949 374.88 422.634 366.236C422.873 363.235 424.16 360.635 424.99 357.803H424.979ZM398.347 201.972C394.34 200.599 389.348 161.414 392.15 153.319C396.686 140.215 405.342 140.532 405.654 154.545C405.996 169.805 401.948 185.529 399.737 201C399.654 201.592 398.834 201.698 398.347 201.972ZM42.8297 352.709C36.187 346.073 30.5304 340.43 24.8841 334.787C29.0566 324.198 33.229 313.588 37.4014 302.999C40.567 315.427 43.9298 327.664 46.6907 340.514C47.0955 342.374 44.6564 347.13 42.8297 352.709ZM575.145 193.222C574.74 197.28 574.045 204.17 573.349 211.061C570.173 203.706 566.945 196.414 563.873 188.869C563.448 187.833 563.552 185.339 563.707 183.669C565.181 168.219 566.645 152.769 568.316 137.404C568.575 135.016 569.852 133.156 570.651 131.042C571.18 133.663 572.021 136.178 572.187 138.884C573.204 155.898 574.055 172.954 575.145 193.222ZM129.682 674.283C124.669 702.562 119.718 730.566 114.695 758.486C114.477 759.733 113.564 760.388 112.982 761.318C112.868 759.628 112.536 757.873 112.661 756.267C114.975 727.777 117.155 699.202 119.916 670.923C120.31 666.844 123.6 664.117 125.551 660.757C126.724 664.624 127.908 668.471 129.682 674.283ZM110.315 461.028C109.91 466.164 109.983 467.559 109.703 468.446C103.309 488.842 96.905 509.238 90.3765 529.443C89.9406 530.796 88.5187 530.626 87.5534 531.176C87.3458 527.942 86.557 524.201 87.0448 521.581C88.9961 511.224 90.9682 500.72 93.6667 491.251C96.8428 480.092 100.579 469.609 104.554 459.739C105.281 457.921 108.291 460.478 110.315 461.028ZM558.653 116.142C559.047 116.396 559.441 116.649 559.825 116.903C558.082 133.367 556.473 149.916 554.48 166.233C554.075 169.53 552.217 171.96 551.024 174.792C550.287 171.263 548.813 167.606 548.938 164.246C549.924 138.334 551.169 112.486 552.487 86.6371C552.612 84.1431 553.816 81.9028 554.522 79.5568C555.622 81.7337 557.542 83.6782 557.687 86.1299C558.3 96.0423 558.372 106.124 558.642 116.142H558.653ZM600.771 706.261C600.065 706.641 599.277 707.55 599.027 707.106C588.358 687.07 577.646 667.139 567.361 646.215C566.696 644.863 569.416 635.648 570.557 630.089C571.844 633.09 573.215 635.944 574.408 639.114C575.238 641.312 575.674 644.229 576.546 646.342C584.216 665.026 591.938 683.604 599.629 702.245C599.982 703.112 600.2 704.232 600.771 706.282V706.261ZM395.316 229.956C393.022 239.783 391.465 246.483 389.898 253.162C388.819 251.788 387.241 251.006 386.753 248.956C382.985 233.147 379.28 217.253 375.948 201.021C375.367 198.21 376.281 193.159 377.163 190.052C377.609 188.488 380.297 187.6 380.692 188.657C385.715 202.226 390.5 216.197 395.316 229.977V229.956ZM58.0455 265.526C57.1217 286.197 56.3952 303.866 55.4922 321.471C55.3573 324.134 54.4543 326.607 53.9042 329.165C53.3541 327.96 52.7314 326.882 52.2643 325.551C45.1339 304.986 44.7498 281.653 51.3717 263.011C52.9909 258.446 55.0044 254.536 56.8415 250.309C57.3086 256.311 57.786 262.314 58.0351 265.505L58.0455 265.526ZM518.091 9.76799C522.388 24.4359 526.571 33.4184 527.816 44.0284C531.241 73.2374 533.452 103.144 536.088 132.797C536.265 134.826 535.984 137.045 535.912 139.179C535.486 137.742 534.895 136.411 534.646 134.826C528.833 97.1836 523.042 59.5417 517.323 21.8363C517.063 20.1243 517.541 17.8628 518.08 9.76799H518.091ZM374.225 380.841C374.983 379.911 375.741 378.959 376.499 378.03C376.737 372.196 376.831 366.321 377.287 360.593C377.433 358.733 378.522 357.211 379.176 355.542C379.778 357.275 380.692 358.818 380.93 360.762C384.096 386.42 387.199 412.121 390.22 437.864C390.458 439.893 389.991 442.302 389.846 444.521C388.829 442.915 387.355 441.774 386.878 439.597C382.56 420.11 378.408 400.454 374.215 380.841H374.225ZM264.58 546.055C264.736 546.076 264.881 546.119 265.037 546.14C264.57 555.82 264.103 565.5 263.636 575.18C261.02 567.254 258.405 559.349 255.81 551.402C255.187 549.479 254.336 547.577 254.118 545.4C253.454 538.785 251.585 529.844 252.862 525.829C254.979 519.15 259.183 515.62 262.504 510.759C263.2 518.389 264.009 525.998 264.528 533.691C264.809 537.728 264.58 541.934 264.58 546.055ZM648.827 96.9511C648.827 92.8297 648.733 88.6873 648.868 84.587C648.941 82.3889 649.377 80.2543 649.657 78.0985C650.498 79.1975 651.639 79.8316 652.127 81.4379C657.991 100.544 663.793 119.735 669.46 139.116C669.772 140.194 668.588 145.076 668.277 144.992C661.012 143.111 648.66 112.486 648.827 96.9723V96.9511ZM255.135 226.637C254.896 231.055 254.502 238.198 254.108 245.321C251.233 240.079 246.437 235.641 245.887 229.427C244.829 217.401 245.773 204.234 246.697 191.806C247.019 187.452 249.676 183.923 251.274 179.992C252.084 184.599 253.288 189.059 253.62 193.814C254.326 203.727 254.575 213.766 255.135 226.637ZM473.979 154.186C473.793 156.003 473.461 159.258 473.139 162.534C471.52 160.822 469.558 159.892 468.323 157.292C462.324 144.632 462.22 105.638 468.001 88.4547C468.354 87.3979 469.049 86.8695 469.589 86.0875C469.994 88.2433 470.648 90.3357 470.772 92.5549C471.862 112.528 472.869 132.543 473.979 154.186ZM223.053 402.525C223.219 399.292 223.282 397.242 223.437 395.213C225.274 372.386 227.101 349.56 229.011 326.755C229.187 324.599 229.914 322.676 230.381 320.626C231.242 322.507 232.311 324.134 232.934 326.354C238.207 345.312 233.899 384.751 224.994 399.63C224.589 400.306 224.153 400.898 223.064 402.525H223.053ZM504.183 516.445C505.428 518.791 506.331 520.08 506.985 521.834C514.5 542.061 521.983 562.329 529.446 582.64C529.923 583.93 530.151 585.663 530.494 587.185C529.56 586.72 528.387 586.889 527.723 585.705C519.129 570.297 510.473 554.995 502.19 538.827C500.924 536.354 501.059 529.464 501.297 524.793C501.443 522.003 503.031 519.573 504.172 516.445H504.183ZM462.147 56.9632C461.026 68.334 460.383 77.1685 459.231 85.7071C458.504 91.0755 457.03 95.9366 455.889 101.03C455.131 95.2391 453.885 89.5115 453.719 83.6359C453.398 72.0538 455.245 58.2313 446.132 59.4994C445.759 59.5417 445.094 49.8828 444.575 44.7469C449.599 46.3743 454.664 47.5368 459.594 49.9885C460.839 50.6015 461.628 55.4625 462.137 56.942L462.147 56.9632ZM411.819 213.956C412.525 213.385 413.23 212.836 413.946 212.265C413.946 204.593 413.791 196.921 414.019 189.291C414.113 186.163 415.036 183.141 415.576 180.076C416.5 182.613 418.036 184.937 418.243 187.727C419.956 209.771 421.451 231.879 422.883 254.008C422.997 255.825 422.25 257.918 421.907 259.883C421.025 258.784 419.634 258.108 419.323 256.48C416.707 242.404 414.279 228.159 411.798 213.956H411.819ZM182.056 432.242C183.446 419.983 185.356 402.293 187.525 384.751C187.878 381.918 189.362 379.763 190.328 377.311C190.971 380.376 192.341 383.694 192.134 386.484C190.816 404.491 189.321 422.477 187.536 440.294C186.737 448.241 185.128 455.829 183.882 463.564C183.394 455.237 182.907 446.91 182.056 432.263V432.242ZM369.503 253.395C370.209 252.528 370.925 251.662 371.631 250.774C371.631 248.407 371.444 245.955 371.672 243.715C372.119 239.319 372.804 235.049 373.385 230.716C374.682 234.119 376.322 237.163 377.225 241.009C379.809 252.042 382.28 263.223 384.387 274.72C384.958 277.848 384.698 283.893 383.712 285.626C382.653 287.486 379.301 287.423 378.678 285.52C375.326 275.27 372.513 264.195 369.513 253.416L369.503 253.395ZM579.971 360.339C579.255 361.481 578.549 362.622 577.833 363.763C577.314 376.17 576.806 388.576 576.256 400.982C576.183 402.716 575.944 404.427 575.788 406.161C575.238 404.427 574.377 402.842 574.18 400.94C571.917 379.551 569.686 358.12 567.724 336.583C567.61 335.357 569.872 333.117 571.024 331.342C574.003 341.022 576.982 350.68 579.961 360.36L579.971 360.339ZM336.632 189.545C336.518 193.92 336.663 198.781 336.124 203.241C335.937 204.826 334.079 205.481 332.989 206.538C331.017 187.875 328.848 169.297 327.301 150.466C327.083 147.866 329.917 144.083 331.328 140.828C332.501 144.59 334.39 148.099 334.712 152.178C335.677 164.373 336.03 176.8 336.632 189.524V189.545ZM-79.1668 664.688C-78.7309 653.571 -78.295 646.554 -78.212 639.516C-78.0563 625.651 -74.9633 617.408 -68.6839 615.337C-66.961 614.766 -65.1446 615.59 -63.3801 615.781C-63.7953 619.099 -63.8783 622.819 -64.6672 625.63C-68.3206 638.691 -72.109 651.584 -75.9804 664.35C-76.6136 666.442 -77.9213 667.541 -78.9177 669.105C-79.0838 666.273 -79.2395 663.462 -79.1668 664.688ZM378.035 466.058C377.827 465.974 377.619 465.889 377.412 465.804C378.138 458.661 378.855 451.517 379.581 444.373C381.906 449.932 384.272 455.406 386.535 461.07C387.231 462.824 388.289 465.382 388.123 467.073C386.981 478.126 385.622 489.074 384.127 499.938C383.982 500.995 381.657 501.713 381.647 501.65C380.37 493.407 379.083 485.143 378.107 476.689C377.723 473.35 378.045 469.63 378.045 466.079L378.035 466.058ZM246.417 277.362C243.376 273.537 238.362 270.852 237.615 265.378C236.629 258.235 239.016 248.872 239.94 240.481C243.126 244.919 246.313 249.337 249.479 253.817C249.925 254.451 250.371 255.233 250.682 256.142C252.229 260.644 253.724 265.23 255.239 269.775C252.686 271.973 250.132 274.171 246.406 277.362H246.417ZM-20.4935 455.723C-19.7047 456.061 -19.2688 456.251 -18.8225 456.42C-19.082 458.09 -19.2169 459.887 -19.6113 461.387C-25.7453 485.016 -31.869 508.646 -38.1069 532.148C-38.6985 534.389 -40.0063 535.741 -40.982 537.517C-41.0858 534.811 -41.5736 531.852 -41.231 529.443C-39.643 518.178 -38.7504 505.729 -35.8754 496.176C-31.4539 481.529 -25.6208 468.911 -20.4935 455.702V455.723ZM-50.3855 106.251C-50.7591 104.222 -51.1327 102.975 -51.2054 101.664C-52.1188 85.9607 -41.2622 44.1551 -34.6091 37.7511C-33.6335 36.8212 -32.606 36.1448 -31.6096 35.3628C-31.8379 38.0047 -31.7445 41.0694 -32.3361 43.2464C-37.6606 62.6486 -43.1097 81.8816 -48.538 101.136C-48.9531 102.615 -49.524 103.884 -50.3855 106.251ZM640.419 171.643C640.212 175.575 639.932 183.204 639.33 190.728C639.143 193.096 638.095 195.146 637.441 197.344C636.776 195.611 635.79 194.089 635.521 192.102C633.922 180.457 632.012 168.853 631.296 156.912C631.068 153.086 634.15 148.31 635.718 143.956C637.285 147.845 639.299 151.269 640.274 155.75C641.011 159.11 640.419 163.823 640.419 171.643ZM207.37 200.683C205.751 213.322 204.609 224.904 202.71 235.873C201.869 240.713 199.493 244.264 197.811 248.407C196.732 241.517 194.199 233.802 194.905 227.927C196.182 217.38 199.326 207.869 201.859 198.147C202.586 195.378 203.914 193.392 204.973 191.024C205.813 194.406 206.654 197.788 207.37 200.662V200.683ZM556.961 516.191C556.847 517.036 556.639 518.537 556.442 520.038C555.404 518.305 553.754 517.036 553.411 514.796C547.443 476.034 541.631 437.166 535.839 398.277C535.621 396.798 535.985 394.917 536.078 393.205C536.763 395.276 537.718 397.157 538.081 399.461C542.357 426.387 546.488 453.419 550.764 480.324C552.643 492.097 554.781 503.679 556.95 516.17L556.961 516.191ZM304.28 439.723C303.689 439.364 303.232 439.089 302.786 438.815C303.149 437.293 303.398 435.581 303.876 434.292C310.373 416.897 316.787 399.313 323.554 382.447C324.758 379.446 327.54 379.446 329.585 378.072C329.066 382.679 329.211 388.703 327.903 391.683C321.541 406.14 314.826 419.835 308.162 433.658C307 436.067 305.526 437.8 304.28 439.723ZM62.0415 486.01C60.5157 484.594 58.7824 483.368 58.8136 482.987C60.2459 468.911 61.8235 454.92 63.5257 440.992C63.5568 440.696 65.9959 440.801 66.1827 441.752C68.0925 451.411 71.144 461.387 70.9675 471.025C70.8741 476.266 65.1967 481.022 62.0311 485.989L62.0415 486.01ZM-57.1215 582.197C-56.2497 584.479 -55.3674 586.762 -54.4956 589.044C-57.2046 591.729 -59.8097 595.279 -62.6432 596.843C-66.1514 598.809 -69.8567 599.126 -73.4791 600.162C-73.1677 593.948 -73.0224 587.65 -72.4826 581.52C-72.0779 576.934 -71.4136 572.221 -70.3757 568.184C-69.5038 564.845 -67.9055 562.393 -66.6288 559.561C-66.8675 563.048 -67.0959 566.514 -67.3346 570.002C-67.6252 574.44 -67.9158 578.899 -68.2064 583.338C-66.5665 581.034 -64.9889 578.498 -63.2763 576.49C-62.0412 575.032 -60.1626 572.58 -59.4153 573.573C-58.2736 575.095 -57.8585 579.195 -57.1319 582.218L-57.1215 582.197ZM572.602 535.889C574.159 524.518 575.664 513.549 577.169 502.58C578.83 512.471 580.542 522.32 582.109 532.296C582.639 535.635 582.95 539.25 583.054 542.779C583.22 548.359 583.127 554.002 583.137 559.603C580.594 556.602 577.667 554.488 575.643 550.303C574.076 547.049 573.661 541.194 572.602 535.889ZM68.7879 238.769C66.5772 270.155 64.5429 299.575 62.384 328.953C62.1972 331.426 61.18 333.624 60.5573 335.928C60.3082 334.364 59.7581 332.737 59.8411 331.257C61.4499 300.59 63.0586 269.901 64.9061 239.297C65.0826 236.444 66.7847 234.014 67.7811 231.393C68.1963 234.415 68.6115 237.459 68.7879 238.769ZM245.368 287.824C249.281 293.467 251.212 296.257 253.153 299.047C249.634 309.868 246.116 320.711 242.597 331.532C241.289 323.078 238.902 314.56 239.047 306.233C239.151 300.484 242.742 295.031 245.368 287.824ZM211.999 336.52C213.027 330.031 214.49 320.795 215.964 311.538C216.94 312.278 218.694 312.721 218.777 313.799C219.504 323.078 219.981 332.462 220.386 341.846C220.479 344.107 220.147 346.58 219.815 348.82C218.922 354.781 217.936 360.656 216.981 366.553C215.528 360.572 213.951 354.717 212.695 348.567C212.165 345.988 212.332 342.755 211.999 336.52ZM508.21 467.791C506.113 475.506 504.982 480.05 503.581 484.171C503.467 484.509 501.111 482.522 500.519 480.578C496.762 468.277 493.119 455.786 489.683 443.063C489.226 441.372 490.192 437.885 490.493 435.222C496.326 445.958 502.169 456.695 508.21 467.791ZM665.963 437.737C665.755 439.174 665.558 440.611 665.35 442.048C663.658 441.605 661.707 442.196 660.327 440.527C650.591 428.691 640.97 416.432 631.369 404.132C630.705 403.286 630.435 400.919 629.988 399.27C630.756 399.651 631.576 399.757 632.282 400.433C641.758 409.458 651.266 418.335 660.628 427.867C662.672 429.938 664.198 434.397 665.963 437.758V437.737ZM549.208 681.469C546.8 694.362 544.942 705.437 542.648 716.089C541.714 720.4 539.846 723.761 538.392 727.544C536.971 724.12 534.947 721.14 534.293 717.124C533.618 712.961 533.39 705.944 534.511 703.408C538.05 695.418 542.285 688.845 546.332 681.998C546.862 681.089 547.92 681.659 549.187 681.49L549.208 681.469ZM-59.1662 515.155C-58.4916 509.914 -58.4085 506.828 -57.7443 504.545C-50.9771 481.592 -44.1476 458.703 -37.2143 435.983C-36.4878 433.615 -34.9621 432.39 -33.81 430.635C-34.0072 433.467 -33.8099 436.87 -34.4742 439.047C-41.6358 462.74 -48.9324 486.263 -56.2289 509.766C-56.6545 511.14 -57.4329 512.027 -59.1662 515.134V515.155ZM521.163 179.146C521.163 179.146 521.464 176.462 521.765 173.736C522.575 176.441 523.82 178.935 524.111 181.873C526.021 200.979 527.858 220.149 529.373 239.424C529.726 243.863 528.75 248.787 528.377 253.5C526.965 249.104 524.63 245.025 524.308 240.27C522.969 220.952 522.243 201.423 521.153 179.146H521.163ZM265.68 619.627C264.3 628.462 263.646 632.562 263.003 636.683C262.535 635.394 261.913 634.253 261.622 632.773C256.505 606.692 251.419 580.59 246.354 554.467C246.064 552.988 246.085 551.212 245.96 549.585C246.386 549.902 247.029 549.923 247.195 550.557C253.568 574.271 259.91 598.048 265.67 619.627H265.68ZM161.889 345.502C159.336 352.16 156.782 359.177 154.001 365.729C153.471 366.976 152.06 366.426 151.053 366.701C151.458 359.895 151.811 353.069 152.278 346.284C152.433 343.959 152.766 341.656 153.15 339.458C154.478 331.912 155.869 324.409 157.229 316.885C158.63 325.466 160.021 334.047 161.889 345.502ZM546.582 85.686C546.582 88.6238 546.737 91.6251 546.55 94.4995C545.98 103.186 545.263 111.83 544.599 120.496C543.665 112.317 542.617 104.201 541.818 95.9578C541.039 87.9053 540.313 79.7681 539.939 71.5888C539.7 66.2415 540.126 60.7463 540.25 55.3357C542.347 60.1757 545.035 64.3605 546.353 70.0459C547.329 74.2518 546.55 80.4022 546.571 85.7071L546.582 85.686ZM370.001 497.994C369.773 498.078 369.544 498.163 369.316 498.247C368.735 522.532 368.226 546.816 367.5 571.079C367.386 574.757 366.275 578.308 365.632 581.901C365.351 578.033 364.77 574.123 364.843 570.297C365.31 546.013 365.881 521.728 366.524 497.465C366.773 487.933 367.292 478.443 367.697 468.932C368.465 478.612 369.233 488.314 370.012 497.994H370.001ZM346.648 320.626C342.953 336.161 339.424 351.357 335.625 366.236C335.293 367.546 332.688 367.948 332.128 366.701C331.287 364.799 330.623 360.234 331.121 358.268C334.504 344.826 338.168 331.743 341.863 318.682C342.351 316.97 343.503 315.152 344.323 315.215C344.987 315.258 345.61 318.069 346.648 320.647V320.626ZM87.8337 275.523C84.3878 285.309 81.1806 294.587 77.8697 303.676C77.4753 304.775 76.4893 304.838 75.7731 305.387C76.4893 296.785 77.1847 288.162 77.9423 279.56C78.2018 276.644 78.4198 273.6 78.9802 270.958C80.122 265.611 81.4816 260.496 82.7582 255.276C84.284 261.342 85.7993 267.407 87.8337 275.502V275.523ZM386.4 309.298C389.753 312.912 391.517 313.503 392.046 315.575C395.067 327.368 397.807 339.521 400.578 351.61C400.64 351.864 399.696 353.597 399.644 353.513C395.015 345.376 390.054 337.872 386.037 328.467C384.812 325.593 386.151 317.498 386.39 309.298H386.4ZM-1.61383 290.55C-5.18426 306.191 -7.8517 318.513 -10.7994 330.517C-12.2732 336.52 -14.2453 341.93 -15.9993 347.616C-15.5011 340.726 -15.553 333.349 -14.3906 327.051C-12.1798 315.046 -9.39819 303.528 -6.54392 292.178C-6.1599 290.656 -4.00104 291.248 -1.62422 290.572L-1.61383 290.55ZM190.816 493.048C190.982 493.132 191.148 493.217 191.303 493.302C189.352 511.224 187.473 529.189 185.367 547.027C185.014 550.05 183.675 552.544 182.803 555.291C182.201 551.698 180.727 547.577 181.121 544.618C183.913 523.504 187.069 502.622 190.182 481.719C190.349 480.641 191.148 479.986 191.646 479.141C191.698 480.282 191.853 481.466 191.77 482.565C191.501 486.073 191.137 489.56 190.805 493.069L190.816 493.048ZM576.515 249.252C576.214 251.027 575.519 255.128 574.823 259.228C573.464 256.607 572 254.198 570.765 251.323C569.654 248.745 568.399 245.976 567.869 242.764C566.644 235.239 565.814 227.398 564.932 219.642C564.932 219.578 566.644 217.908 566.935 218.479C570.028 224.693 573.121 230.949 575.903 237.797C576.629 239.614 576.266 243.524 576.525 249.252H576.515ZM143.487 692.269C142.687 689.564 141.826 687.958 141.951 686.88C143.59 672.994 145.261 659.108 147.296 645.476C147.514 644.039 150.119 644.313 151.613 643.785C151.665 647.061 152.195 650.717 151.697 653.507C149.839 663.906 147.68 674.029 145.573 684.196C145.064 686.647 144.358 688.888 143.487 692.248V692.269ZM162.865 310.608C163.114 308.579 163.581 304.775 164.048 300.97C165.719 303.422 167.618 305.409 168.999 308.473C170.286 311.327 172.092 315.807 171.822 318.745C171.168 325.593 169.403 331.955 168.096 338.506C166.746 333.984 165.148 329.693 164.141 324.832C163.383 321.176 163.373 316.758 162.865 310.608ZM628.909 123.095C630.653 114.62 631.41 110.964 632.168 107.286C635.282 114.071 638.51 120.665 641.333 127.999C641.582 128.633 638.416 137.087 638.178 136.791C635.022 132.881 632.106 128.041 628.909 123.095ZM192.082 186.353C193.877 180.753 196.14 173.715 198.392 166.676C199.555 169.91 201.994 174.074 201.662 176.187C199.97 186.924 197.562 197.111 195.403 207.489C194.511 201.782 193.608 196.076 192.082 186.332V186.353ZM444.523 133.938C442.468 138.757 440.787 142.942 440.704 142.815C436.864 136.051 433.148 128.908 429.422 121.806C430.844 118.805 433.304 112.845 433.532 113.225C437.196 119.312 440.569 126.224 444.513 133.938H444.523ZM439.884 358.691C439.614 360.614 439.261 363.171 438.908 365.75C438.286 364.862 437.393 364.313 437.071 363.045C434.715 353.809 432.068 344.763 430.408 334.935C429.827 331.511 431.747 326.079 432.525 321.556C433.978 324.452 436.168 326.798 436.749 330.391C438.161 339.225 438.836 348.609 439.894 358.691H439.884ZM577.127 25.9577C575.238 34.2639 573.744 40.7947 572.26 47.3466C571.014 36.5676 569.499 25.8943 568.689 14.9673C568.44 11.5857 570.132 7.54877 570.941 3.80782C572.965 11.0572 574.989 18.3067 577.127 25.9577ZM306.636 319.379C305.204 324.515 304.343 327.601 303.492 330.665C300.243 324.895 296.994 319.147 293.746 313.377C296.174 309.107 298.603 304.838 301.032 300.59C302.869 306.74 304.706 312.89 306.636 319.379ZM410.75 212.878C410.968 216.429 411.653 221.227 411.362 225.707C411.217 227.884 409.255 229.512 408.113 231.393C407.252 222.305 405.415 213.005 405.82 204.192C406.224 195.294 408.84 186.882 410.49 178.259C410.573 187.643 410.667 197.027 410.75 206.432C410.76 208.207 410.75 209.962 410.75 212.878ZM418.389 339.31C415.348 348.503 413.573 353.893 411.788 359.282C409.598 350.089 407.418 340.895 405.228 331.701C406.411 330.496 407.895 327.643 408.715 328.362C411.746 331.003 414.569 334.85 418.378 339.31H418.389ZM-55.3052 233.464C-59.7163 242.32 -63.8265 250.563 -67.9262 258.805C-68.4763 257.347 -69.618 255.572 -69.4935 254.473C-68.7462 247.773 -68.5593 239.276 -66.5458 235.134C-64.553 231.012 -60.6504 231.181 -57.5575 229.85C-57.1008 229.66 -56.4573 231.541 -55.3052 233.464ZM21.6355 365.665C24.4274 361.523 26.3372 356.387 27.9252 356.81C30.9974 357.634 33.8932 361.607 36.8616 364.292C33.478 369.005 30.1775 374.141 26.5863 377.882C26.1089 378.368 24.0746 371.795 21.6458 365.665H21.6355ZM247.268 367.399C246.292 359.113 245.451 356.049 245.846 354.633C248.773 344.128 251.897 333.857 255.177 323.86C255.384 323.205 257.419 325.381 258.602 326.248C255.27 338.38 251.928 350.49 247.268 367.42V367.399ZM233.993 147.591C235.332 140.891 236.494 135.121 237.646 129.33C239.701 134.318 243.666 140.004 243.355 144.167C242.877 150.593 239.463 155.961 237.304 161.794C236.266 157.335 235.218 152.854 233.993 147.591ZM677.079 424.802C674.972 424.802 673.311 425.626 673.062 424.675C669.408 410.705 665.931 396.523 662.486 382.299C662.486 382.257 663.959 380.397 663.98 380.481C668.142 394.346 672.232 408.295 677.079 424.823V424.802ZM120.58 452.088C122.759 444.902 124.431 439.428 126.102 433.932C127.347 440.167 129.464 446.318 129.558 452.637C129.63 457.498 127.181 462.55 125.842 467.495C124.233 462.782 122.625 458.069 120.58 452.067V452.088ZM506.736 239.889C504.401 239.551 503.653 239.889 503.114 239.297C497.312 232.957 491.468 226.743 485.832 219.747C484.909 218.606 484.961 213.766 484.566 210.638C486.113 210.976 488.022 210.152 489.154 211.843C494.063 219.155 498.744 227.208 503.508 234.986C504.141 236.021 504.806 236.973 506.736 239.889ZM531.719 213.491C531.719 214.358 531.719 209.856 531.719 205.333C533.338 208.863 534.998 212.308 536.566 215.943C537.095 217.19 537.728 218.965 537.707 220.466C537.593 227.863 537.344 235.261 536.96 242.616C536.908 243.567 535.798 244.264 535.175 245.089C534.199 238.663 533.161 232.281 532.269 225.792C531.968 223.594 532.04 221.163 531.708 213.47L531.719 213.491ZM137.944 363.679C139.761 348.757 141.452 333.899 143.456 319.231C143.819 316.547 145.428 314.645 146.455 312.404C146.424 315.194 146.642 318.111 146.331 320.732C144.566 335.569 142.698 350.363 140.788 365.116C140.508 367.251 139.812 369.11 139.304 371.097C138.868 368.751 138.442 366.405 137.944 363.7V363.679ZM464.213 193.18C461.545 184.557 459.314 178.407 457.788 171.538C457.456 170.058 459.646 165.916 460.684 162.978C463.081 169.657 465.593 176.166 467.742 183.204C467.98 183.986 466.205 187.664 464.223 193.159L464.213 193.18ZM291.722 304.563C290.767 300.294 289.407 296.468 289.76 295.454C291.597 290.17 293.663 284.929 296.143 281.272C296.807 280.3 299.226 284.928 300.835 287C298.053 292.347 295.271 297.715 291.711 304.563H291.722ZM777.902 418.292C777.237 420.554 776.978 422.35 776.656 422.392C773.771 422.794 770.532 424.717 768.052 422.583C764.99 419.962 762.551 413.875 759.852 409.289C762.758 410.071 765.665 410.726 768.56 411.698C770.709 412.417 772.857 413.283 774.944 414.573C775.992 415.228 776.905 416.982 777.902 418.292ZM23.9812 129.542C22.7564 136.495 21.3448 144.463 19.9333 152.41C18.3453 146.048 16.5393 139.877 15.2938 133.219C14.7748 130.451 15.4806 126.625 15.6259 123.265C16.695 125.357 17.6395 128.147 18.8953 129.288C19.6738 129.986 21.0231 128.506 21.9572 127.386C22.5384 126.689 22.8187 124.85 23.2339 123.518C23.4207 124.998 23.5971 126.456 23.9812 129.542ZM221.777 499.283C224.288 502.918 225.856 505.18 227.423 507.441C224.548 510.717 221.787 514.775 218.746 516.931C217.448 517.84 215.559 514.775 213.94 513.528C216.369 509.111 218.798 504.715 221.777 499.304V499.283ZM549.965 269.5C548.969 273.368 548.19 276.369 547.412 279.37C545.295 276.411 541.537 273.748 541.423 270.43C541.226 265.104 543.416 259.334 544.599 253.775C546.249 258.594 547.9 263.434 549.965 269.5ZM181.038 290.698C183.384 285.647 184.889 280.913 186.965 278.736C187.691 277.975 189.809 283.576 191.293 286.281C189.3 291.48 187.297 296.659 185.304 301.858C184.204 298.984 183.114 296.109 181.038 290.698ZM122.469 248.639C121.078 256.459 120.071 262.124 119.065 267.809C117.985 260.158 116.605 252.613 115.961 244.771C115.712 241.728 117.134 238.05 117.788 234.669C119.345 239.34 120.912 243.989 122.469 248.639ZM270.974 298.434C268.109 305.366 265.68 311.221 263.262 317.075C262.712 314.116 261.321 310.164 261.767 308.368C263.283 302.238 265.442 296.849 267.362 291.185C268.379 293.214 269.386 295.243 270.974 298.413V298.434ZM229.104 157.863C228.243 163.612 227.174 170.735 226.105 177.857C225.814 170.882 225.523 163.887 225.243 156.912C225.222 156.341 225.222 155.728 225.285 155.158C225.866 149.367 226.447 143.576 227.039 137.785C227.651 143.724 228.264 149.684 229.104 157.863ZM280.149 142.54C278.654 147.021 277.585 150.212 276.516 153.425C274.721 149.472 272.915 145.52 271.119 141.568C272.873 138.397 274.617 135.227 276.371 132.078C277.492 135.185 278.613 138.292 280.149 142.561V142.54ZM-80.4954 335.907C-83.6195 340.81 -86.0482 344.953 -88.6845 348.377C-89.0478 348.842 -90.3971 345.735 -91.2897 344.276C-88.9025 338.337 -86.5153 332.377 -84.1177 326.438C-83.2874 328.615 -82.4466 330.792 -80.4954 335.886V335.907ZM201.766 111.112C199.887 102.827 197.749 97.4583 198.309 95.0489C199.492 89.9764 202.077 86.4469 204.09 82.2832C204.692 84.3967 205.99 86.933 205.782 88.5393C204.942 94.8799 203.644 100.946 201.766 111.112ZM68.1133 385.046C67.1065 382.003 66.3592 380.65 66.4734 379.932C67.8745 371.287 69.3069 362.664 71.0298 354.337C71.2063 353.449 73.3029 354.443 74.5068 354.569C72.514 364.08 70.5109 373.591 68.1133 385.025V385.046ZM446.309 96.8878C445.053 101.643 444.077 105.3 443.102 108.956C441.731 104.412 439.51 100.058 439.272 95.2392C439.106 91.7518 441.565 87.6515 442.852 83.826C443.963 88.0531 445.084 92.2591 446.298 96.8878H446.309ZM486.082 38.0259C488.874 49.5446 491.001 58.2523 493.036 67.0658C493.046 67.1292 491.292 69.3907 491.25 69.2428C488.863 62.0568 486.455 54.8496 484.369 47.2408C484.037 46.0361 485.127 42.9504 486.092 38.0259H486.082ZM282.858 16.8906C279.661 19.1732 277.513 22.3013 275.696 21.5615C274.004 20.8852 272.655 16.1085 271.161 13.1496C272.852 9.89475 274.399 6.09041 276.329 3.78666C276.745 3.27941 278.499 8.01377 282.868 16.9117L282.858 16.8906ZM139.283 712.39C137.955 720.126 136.834 727.375 135.474 734.434C134.228 740.923 132.744 747.179 131.364 753.541C131.935 747.221 132.36 740.817 133.097 734.603C133.979 727.164 135.048 719.809 136.242 712.559C136.533 710.784 137.643 709.664 138.37 708.227C138.702 709.748 139.024 711.27 139.273 712.39H139.283ZM605.753 41.6612C605.151 41.006 604.809 40.9004 604.694 40.4776C601.778 29.8043 598.882 19.0887 596.038 8.30965C595.976 8.07716 596.671 6.9147 597.014 6.17496C600.096 16.5947 603.21 26.9933 606.22 37.5398C606.449 38.343 605.94 40.1395 605.753 41.6612ZM571.118 590.122C572.488 585.134 573.765 580.485 575.041 575.856C576.235 578.582 578.684 582.535 578.414 583.845C577.293 589.34 575.353 594.053 573.723 599.041C572.965 596.442 572.197 593.821 571.118 590.122ZM265.639 42.105C263.272 46.8816 261.747 50.2421 260.013 52.9897C259.878 53.2011 257.387 48.5091 257.574 47.0719C258.166 42.5066 259.515 38.4275 260.563 34.1371C261.913 36.2506 263.252 38.364 265.639 42.105Z" fill="#004520"/>
</g>
</g>
<defs>
<clipPath id="clip0_318_5154">
<rect width="430" height="360" fill="white"/>
</clipPath>
<clipPath id="clip1_318_5154">
<rect width="1216" height="1986" fill="white" transform="matrix(1 0 0 -1 -353 1977)"/>
</clipPath>
</defs>
</svg>
